<svg width="29" height="36" viewBox="0 0 29 36" fill="none" xmlns="http://www.w3.org/2000/svg">
<rect width="29" height="36" fill="black" fill-opacity="0"/>
<path d="M27.5811 29.513C27.3392 29.1042 26.8101 28.1825 26.1976 27.1151C25.3375 25.6161 24.2663 23.7503 23.5733 22.5781C22.8582 21.3685 21.4174 20.4918 20.1466 19.7176C19.1406 19.105 18.19 18.5262 17.8364 17.9285C17.5958 17.5212 16.8196 16.211 15.8129 14.5117C18.4826 9.98862 22.3323 3.46506 22.567 3.06767C22.7628 2.73657 22.6602 2.30319 22.3382 2.10218C22.0161 1.90117 21.5946 2.00631 21.3991 2.3374C21.344 2.43007 17.7116 8.56159 15 13.1388C12.2884 8.56159 8.65605 2.43007 8.60093 2.3374C8.40541 2.00631 7.98387 1.90081 7.66182 2.10218C7.33977 2.30355 7.23681 2.73657 7.43302 3.06767C7.66771 3.46506 11.5174 9.98862 14.1871 14.5113C13.1804 16.211 12.4042 17.5212 12.1636 17.9282C11.8097 18.5258 10.8594 19.1046 9.85343 19.7173C8.58256 20.4914 7.14217 21.3685 6.42665 22.5778C5.73367 23.75 4.66248 25.6157 3.80241 27.1147C3.1895 28.1818 2.66084 29.1035 2.41887 29.5126C2.14119 29.982 1.86282 30.5369 2.07463 31.1802C2.275 31.7886 2.87335 32.3774 4.01422 33.0905C5.15509 33.8037 5.93924 34.0781 6.55631 33.9812C7.20942 33.8785 7.56024 33.3689 7.83758 32.8995C8.07955 32.4907 8.63178 31.5833 9.27138 30.533C10.1699 29.0575 11.2879 27.2213 11.9809 26.0495C12.6961 24.8398 12.7907 23.1213 12.8739 21.6048C12.9394 20.4044 13.0018 19.2707 13.3554 18.6727C13.5665 18.3159 14.1815 17.2745 15 15.8881C15.8185 17.2745 16.4335 18.3159 16.6446 18.6727C16.9982 19.2707 17.0602 20.4041 17.1261 21.6048C17.2093 23.1213 17.3039 24.8398 18.0191 26.0495C18.7121 27.2213 19.8304 29.0575 20.7286 30.533C21.3682 31.5829 21.9205 32.4903 22.1624 32.8995C22.4401 33.3689 22.7906 33.8785 23.4437 33.9812C24.0608 34.0781 24.8449 33.8037 25.9858 33.0905C27.1267 32.3774 27.725 31.7886 27.9254 31.1802C28.1372 30.5373 27.8588 29.9824 27.5811 29.513Z" fill="white"/>
</svg>
