<svg width="1484" height="1080" viewBox="0 0 1484 1080" fill="none" xmlns="http://www.w3.org/2000/svg">
<rect width="1484" height="1080" fill="black" fill-opacity="0"/>
<rect width="1437" height="575" fill="black" fill-opacity="0" transform="translate(13 283.021)"/>
<rect width="1284.86" height="541.302" fill="black" fill-opacity="0" transform="translate(81.0664 301.22)"/>
<g filter="url(#filter0_d)">
<path d="M1365.21 577.918C1366.54 578.311 1367.93 577.558 1368.32 576.234C1368.72 574.911 1367.96 573.519 1366.64 573.125L1365.21 577.918ZM81.5004 351.521L83.975 351.166L81.5004 351.521ZM985.398 844.948C986.738 845.28 988.094 844.464 988.427 843.124C988.759 841.783 987.942 840.428 986.602 840.095L985.398 844.948ZM1366.64 573.125C1121.39 500.157 794.714 405.9 532.072 349.004C400.782 320.562 285.338 301.421 204.029 298.984C163.427 297.767 131.03 300.7 109.383 308.917C98.5347 313.034 90.176 318.557 84.9022 325.755C79.5798 333.018 77.5726 341.753 79.0258 351.877L83.975 351.166C82.6842 342.174 84.4787 334.792 88.9354 328.71C93.4407 322.561 100.839 317.508 111.157 313.591C131.843 305.739 163.416 302.769 203.879 303.982C284.701 306.405 399.767 325.458 531.014 353.89C793.448 410.741 1119.96 504.948 1365.21 577.918L1366.64 573.125ZM79.0258 351.877C101.721 509.989 228.197 608.239 398.537 679.391C568.893 750.55 784.066 794.989 985.398 844.948L986.602 840.095C784.935 790.053 570.357 745.743 400.464 674.777C230.554 603.804 106.28 506.554 83.975 351.166L79.0258 351.877Z" fill="url(#paint0_linear)"/>
</g>
<path fill-rule="evenodd" clip-rule="evenodd" d="M1275 506.021C1273.34 506.021 1272 507.365 1272 509.021V543.021C1272 544.678 1273.34 546.021 1275 546.021H1355.12L1361 556.021L1366.87 546.021H1447C1448.66 546.021 1450 544.678 1450 543.021V509.021C1450 507.365 1448.66 506.021 1447 506.021H1275Z" fill="white"/>
<path d="M1286.78 532.021H1291.94V530.581H1290.72V525.501H1291.56L1296.12 532.021H1299.06V530.581H1298.32L1293.74 524.121L1297.5 519.461H1298.62V518.021H1294.24V519.461H1295.12L1292.04 524.121H1290.72V519.461H1291.94V518.021H1286.78V519.461H1287.96V530.581H1286.78V532.021ZM1304.11 530.481C1303.19 530.481 1302.69 530.001 1302.69 529.281C1302.69 528.401 1303.31 527.961 1304.11 527.801C1305.07 527.621 1305.59 527.681 1305.59 527.681V528.321C1305.59 529.481 1305.65 530.041 1305.65 530.041C1305.65 530.041 1305.09 530.481 1304.11 530.481ZM1305.99 531.121C1306.23 531.741 1306.91 532.221 1307.83 532.221C1308.87 532.221 1309.51 531.781 1309.51 531.781V530.221C1308.69 530.741 1308.27 530.581 1308.27 529.901L1308.25 525.481C1308.25 522.881 1306.97 521.821 1304.43 521.821C1302.55 521.821 1300.99 522.381 1300.99 522.381V523.921C1300.99 523.921 1302.23 523.661 1303.15 523.661C1304.95 523.661 1305.63 524.101 1305.63 525.761V526.281C1305.05 526.281 1304.33 526.301 1303.57 526.401C1301.21 526.681 1300.07 527.781 1300.07 529.561C1300.07 531.021 1300.99 532.261 1302.99 532.261C1304.15 532.261 1305.15 531.821 1305.99 531.121ZM1310.97 532.021H1315.07V530.581H1313.63L1313.85 525.641C1313.89 524.901 1313.85 524.221 1313.85 524.221H1313.97C1313.97 524.221 1314.17 524.921 1314.47 525.541L1317.17 531.421H1318.35L1321.15 525.521C1321.49 524.781 1321.67 524.221 1321.67 524.221H1321.77C1321.77 524.221 1321.75 524.621 1321.79 525.441L1321.99 530.581H1320.53V532.021H1325.53V530.581H1324.29L1323.97 523.461H1325.27V522.021H1321.21L1318.25 528.241L1315.55 522.021H1311.29V523.461H1312.55L1312.23 530.581H1310.97V532.021ZM1332.35 532.221C1334.57 532.221 1335.65 531.521 1335.65 531.521V529.981C1335.65 529.981 1334.55 530.461 1333.35 530.461C1330.83 530.461 1329.89 529.061 1329.77 527.201H1336.17C1336.33 523.541 1334.65 521.821 1331.93 521.821C1329.19 521.821 1327.09 523.881 1327.09 527.201C1327.09 530.121 1328.95 532.221 1332.35 532.221ZM1329.83 525.681C1329.95 524.101 1330.71 523.281 1331.75 523.281C1332.65 523.281 1333.35 524.121 1333.35 525.521L1329.83 525.681ZM1337.91 532.021H1342.77V530.581H1341.83V527.661H1345.75V530.581H1344.83V532.021H1349.69V530.581H1348.41V523.461H1349.69V522.021H1344.83V523.461H1345.75V526.201H1341.83V523.461H1342.77V522.021H1337.91V523.461H1339.17V530.581H1337.91V532.021ZM1351.62 532.021H1356.8C1359.9 532.021 1361.4 530.781 1361.4 528.681C1361.4 526.621 1359.84 525.481 1356.84 525.481H1355.52V523.461H1356.7V522.021H1351.6V523.461H1352.86V530.581H1351.62V532.021ZM1355.52 530.621V526.881H1356.6C1357.96 526.881 1358.6 527.601 1358.6 528.761C1358.6 529.881 1357.96 530.621 1356.58 530.621H1355.52ZM1367.96 532.021H1373.6C1376.86 532.021 1378.98 530.581 1378.98 528.041C1378.98 526.181 1377.84 525.041 1376.18 524.661V524.601C1377.58 523.981 1378.4 522.941 1378.4 521.441C1378.4 519.241 1376.82 518.021 1373.12 518.021H1367.96V519.461H1369.24V530.581H1367.96V532.021ZM1372 530.621V525.481H1373.6C1375.3 525.481 1376.18 526.301 1376.18 528.041C1376.18 529.501 1375.3 530.621 1373.6 530.621H1372ZM1372 524.121V519.421H1373.12C1374.94 519.421 1375.8 520.261 1375.8 521.721C1375.8 523.141 1374.84 524.121 1374.84 524.121H1372ZM1386.02 532.221C1388.24 532.221 1389.32 531.521 1389.32 531.521V529.981C1389.32 529.981 1388.22 530.461 1387.02 530.461C1384.5 530.461 1383.56 529.061 1383.44 527.201H1389.84C1390 523.541 1388.32 521.821 1385.6 521.821C1382.86 521.821 1380.76 523.881 1380.76 527.201C1380.76 530.121 1382.62 532.221 1386.02 532.221ZM1383.5 525.681C1383.62 524.101 1384.38 523.281 1385.42 523.281C1386.32 523.281 1387.02 524.121 1387.02 525.521L1383.5 525.681ZM1393.36 532.021H1398.42V530.581H1397.22V523.461H1399.08L1399.32 525.261H1400.6L1400.52 522.021H1391.26L1391.18 525.261H1392.46L1392.7 523.461H1394.52V530.581H1393.36V532.021ZM1402.21 532.141C1404.39 532.141 1405.65 529.641 1405.81 523.461H1408.19V530.581H1407.07V532.021H1412.13V530.581H1410.85V523.461H1412.13V522.021H1402.83V523.461H1404.21C1404.17 527.101 1403.43 529.981 1401.83 529.981C1401.57 529.981 1401.25 529.941 1401.25 529.941L1401.33 531.981C1401.33 531.981 1401.53 532.141 1402.21 532.141ZM1417.78 530.481C1416.86 530.481 1416.36 530.001 1416.36 529.281C1416.36 528.401 1416.98 527.961 1417.78 527.801C1418.74 527.621 1419.26 527.681 1419.26 527.681V528.321C1419.26 529.481 1419.32 530.041 1419.32 530.041C1419.32 530.041 1418.76 530.481 1417.78 530.481ZM1419.66 531.121C1419.9 531.741 1420.58 532.221 1421.5 532.221C1422.54 532.221 1423.18 531.781 1423.18 531.781V530.221C1422.36 530.741 1421.94 530.581 1421.94 529.901L1421.92 525.481C1421.92 522.881 1420.64 521.821 1418.1 521.821C1416.22 521.821 1414.66 522.381 1414.66 522.381V523.921C1414.66 523.921 1415.9 523.661 1416.82 523.661C1418.62 523.661 1419.3 524.101 1419.3 525.761V526.281C1418.72 526.281 1418 526.301 1417.24 526.401C1414.88 526.681 1413.74 527.781 1413.74 529.561C1413.74 531.021 1414.66 532.261 1416.66 532.261C1417.82 532.261 1418.82 531.821 1419.66 531.121ZM1424.8 532.021H1429.66V530.581H1428.72V527.661H1432.64V530.581H1431.72V532.021H1436.58V530.581H1435.3V523.461H1436.58V522.021H1431.72V523.461H1432.64V526.201H1428.72V523.461H1429.66V522.021H1424.8V523.461H1426.06V530.581H1424.8V532.021Z" fill="#3D496A"/>
<path fill-rule="evenodd" clip-rule="evenodd" d="M909 777.021C907.344 777.021 906 778.365 906 780.021V814.021C906 815.678 907.344 817.021 909 817.021H989.125L995 827.021L1000.87 817.021H1081C1082.66 817.021 1084 815.678 1084 814.021V780.021C1084 778.365 1082.66 777.021 1081 777.021H909Z" fill="white"/>
<path d="M931.406 803.021H936.986V801.581H935.446V797.481H936.606C940.046 797.481 941.826 795.761 941.826 793.161C941.826 790.421 939.966 789.021 936.406 789.021H931.406V790.461H932.686V801.581H931.406V803.021ZM935.446 796.201V790.421H936.126C938.106 790.421 939.026 791.281 939.026 793.101C939.026 794.921 938.226 796.201 936.186 796.201H935.446ZM948.239 803.221C950.459 803.221 951.539 802.521 951.539 802.521V800.981C951.539 800.981 950.439 801.461 949.239 801.461C946.719 801.461 945.779 800.061 945.659 798.201H952.059C952.219 794.541 950.539 792.821 947.819 792.821C945.079 792.821 942.979 794.881 942.979 798.201C942.979 801.121 944.839 803.221 948.239 803.221ZM945.719 796.681C945.839 795.101 946.599 794.281 947.639 794.281C948.539 794.281 949.239 795.121 949.239 796.521L945.719 796.681ZM953.822 803.021H958.682V801.581H957.722V798.621H958.522L961.662 803.021H964.522V801.581H963.762L960.502 797.221L963.262 794.461H964.222V793.021H960.122V794.461H961.142L958.902 797.241H957.722V794.461H958.662V793.021H953.802V794.461H955.062V801.581H953.822V803.021ZM969.768 801.481C968.848 801.481 968.348 801.001 968.348 800.281C968.348 799.401 968.968 798.961 969.768 798.801C970.728 798.621 971.248 798.681 971.248 798.681V799.321C971.248 800.481 971.308 801.041 971.308 801.041C971.308 801.041 970.748 801.481 969.768 801.481ZM971.648 802.121C971.888 802.741 972.568 803.221 973.488 803.221C974.528 803.221 975.168 802.781 975.168 802.781V801.221C974.348 801.741 973.928 801.581 973.928 800.901L973.908 796.481C973.908 793.881 972.628 792.821 970.088 792.821C968.208 792.821 966.648 793.381 966.648 793.381V794.921C966.648 794.921 967.888 794.661 968.808 794.661C970.608 794.661 971.288 795.101 971.288 796.761V797.281C970.708 797.281 969.988 797.301 969.228 797.401C966.868 797.681 965.728 798.781 965.728 800.561C965.728 802.021 966.648 803.261 968.648 803.261C969.808 803.261 970.808 802.821 971.648 802.121ZM981.797 803.021H987.437C990.697 803.021 992.817 801.581 992.817 799.041C992.817 797.181 991.677 796.041 990.017 795.661V795.601C991.417 794.981 992.237 793.941 992.237 792.441C992.237 790.241 990.657 789.021 986.957 789.021H981.797V790.461H983.077V801.581H981.797V803.021ZM985.837 801.621V796.481H987.437C989.137 796.481 990.017 797.301 990.017 799.041C990.017 800.501 989.137 801.621 987.437 801.621H985.837ZM985.837 795.121V790.421H986.957C988.777 790.421 989.637 791.261 989.637 792.721C989.637 794.141 988.677 795.121 988.677 795.121H985.837ZM994.583 803.021H998.403L1001.84 797.121C1002.38 796.201 1002.66 795.381 1002.66 795.381H1002.74C1002.74 795.381 1002.66 796.201 1002.66 796.841V801.581H1001.7V803.021H1006.56V801.581H1005.28V794.461H1006.56V793.021H1002.68L999.263 798.861C998.683 799.901 998.403 800.721 998.403 800.721H998.323C998.323 800.721 998.423 799.541 998.423 798.741V794.461H999.443V793.021H994.583V794.461H995.843V801.581H994.583V803.021ZM1008.49 803.021H1025.19V801.581H1023.89V794.461H1025.19V793.021H1020.33V794.461H1021.23V801.581H1018.09V794.461H1018.97V793.021H1014.67V794.461H1015.59V801.581H1012.41V794.461H1013.35V793.021H1008.49V794.461H1009.75V801.581H1008.49V803.021ZM1032.13 803.221C1034.35 803.221 1035.43 802.521 1035.43 802.521V800.981C1035.43 800.981 1034.33 801.461 1033.13 801.461C1030.61 801.461 1029.67 800.061 1029.55 798.201H1035.95C1036.11 794.541 1034.43 792.821 1031.71 792.821C1028.97 792.821 1026.87 794.881 1026.87 798.201C1026.87 801.121 1028.73 803.221 1032.13 803.221ZM1029.61 796.681C1029.73 795.101 1030.49 794.281 1031.53 794.281C1032.43 794.281 1033.13 795.121 1033.13 796.521L1029.61 796.681ZM1037.47 808.041H1042.69V806.621H1041.41V802.681C1041.41 802.681 1042.01 803.221 1043.43 803.221C1046.21 803.221 1048.25 801.081 1048.25 797.481C1048.25 795.001 1046.89 792.821 1044.03 792.821C1043.05 792.821 1042.09 793.241 1041.35 793.901L1041.41 793.281L1040.89 792.921L1037.47 793.021L1037.45 794.421H1038.75V806.621H1037.47V808.041ZM1042.89 801.641C1041.81 801.641 1041.41 801.161 1041.41 801.161V797.381C1041.41 796.181 1041.33 795.361 1041.33 795.361C1041.85 794.941 1042.53 794.681 1043.23 794.681C1044.81 794.681 1045.51 796.041 1045.51 797.961C1045.51 800.421 1044.53 801.641 1042.89 801.641ZM1053.79 801.481C1052.87 801.481 1052.37 801.001 1052.37 800.281C1052.37 799.401 1052.99 798.961 1053.79 798.801C1054.75 798.621 1055.27 798.681 1055.27 798.681V799.321C1055.27 800.481 1055.33 801.041 1055.33 801.041C1055.33 801.041 1054.77 801.481 1053.79 801.481ZM1055.67 802.121C1055.91 802.741 1056.59 803.221 1057.51 803.221C1058.55 803.221 1059.19 802.781 1059.19 802.781V801.221C1058.37 801.741 1057.95 801.581 1057.95 800.901L1057.93 796.481C1057.93 793.881 1056.65 792.821 1054.11 792.821C1052.23 792.821 1050.67 793.381 1050.67 793.381V794.921C1050.67 794.921 1051.91 794.661 1052.83 794.661C1054.63 794.661 1055.31 795.101 1055.31 796.761V797.281C1054.73 797.281 1054.01 797.301 1053.25 797.401C1050.89 797.681 1049.75 798.781 1049.75 800.561C1049.75 802.021 1050.67 803.261 1052.67 803.261C1053.83 803.261 1054.83 802.821 1055.67 802.121Z" fill="#3D496A"/>
<g filter="url(#filter1_d)">
<circle cx="1361" cy="574.021" r="13" fill="white"/>
<circle cx="1361" cy="574.021" r="11.5" stroke="url(#paint1_linear)" stroke-width="3" stroke-linecap="round"/>
</g>
<g filter="url(#filter2_d)">
<circle cx="994" cy="845.021" r="13" fill="white"/>
<circle cx="994" cy="845.021" r="11.5" stroke="url(#paint2_linear)" stroke-width="3" stroke-linecap="round"/>
</g>
<path fill-rule="evenodd" clip-rule="evenodd" d="M16 283.021C14.3438 283.021 13 284.365 13 286.021V320.021C13 321.678 14.3438 323.021 16 323.021H77.125L83 333.021L88.8711 323.021H150C151.656 323.021 153 321.678 153 320.021V286.021C153 284.365 151.656 283.021 150 283.021H16Z" fill="white"/>
<path d="M25.3928 309.021H31.2728V307.581H29.4328V296.461H33.5128L33.7728 298.621H35.1128L35.2328 295.021H25.3928V296.461H26.6728V307.581H25.3928V309.021ZM39.6175 307.761C38.1775 307.761 37.4975 306.301 37.4975 304.001C37.4975 301.821 37.8975 300.261 39.6575 300.261C41.0975 300.261 41.7775 301.741 41.7775 304.041C41.7775 306.221 41.3775 307.761 39.6175 307.761ZM39.3775 309.221C42.6975 309.221 44.4775 306.881 44.4775 303.801C44.4775 300.841 42.6975 298.821 39.8975 298.821C36.5775 298.821 34.7975 301.161 34.7975 304.241C34.7975 307.201 36.5775 309.221 39.3775 309.221ZM45.9666 314.041H51.1866V312.621H49.9066V308.681C49.9066 308.681 50.5066 309.221 51.9266 309.221C54.7066 309.221 56.7466 307.081 56.7466 303.481C56.7466 301.001 55.3866 298.821 52.5266 298.821C51.5466 298.821 50.5866 299.241 49.8466 299.901L49.9066 299.281L49.3866 298.921L45.9666 299.021L45.9466 300.421H47.2466V312.621H45.9666V314.041ZM51.3866 307.641C50.3066 307.641 49.9066 307.161 49.9066 307.161V303.381C49.9066 302.181 49.8266 301.361 49.8266 301.361C50.3466 300.941 51.0266 300.681 51.7266 300.681C53.3066 300.681 54.0066 302.041 54.0066 303.961C54.0066 306.421 53.0266 307.641 51.3866 307.641ZM62.2894 307.481C61.3694 307.481 60.8694 307.001 60.8694 306.281C60.8694 305.401 61.4894 304.961 62.2894 304.801C63.2494 304.621 63.7694 304.681 63.7694 304.681V305.321C63.7694 306.481 63.8294 307.041 63.8294 307.041C63.8294 307.041 63.2694 307.481 62.2894 307.481ZM64.1694 308.121C64.4094 308.741 65.0894 309.221 66.0094 309.221C67.0494 309.221 67.6894 308.781 67.6894 308.781V307.221C66.8694 307.741 66.4494 307.581 66.4494 306.901L66.4294 302.481C66.4294 299.881 65.1494 298.821 62.6094 298.821C60.7294 298.821 59.1694 299.381 59.1694 299.381V300.921C59.1694 300.921 60.4094 300.661 61.3294 300.661C63.1294 300.661 63.8094 301.101 63.8094 302.761V303.281C63.2294 303.281 62.5094 303.301 61.7494 303.401C59.3894 303.681 58.2494 304.781 58.2494 306.561C58.2494 308.021 59.1694 309.261 61.1694 309.261C62.3294 309.261 63.3294 308.821 64.1694 308.121ZM74.3186 309.021H79.4786V307.581H78.3586V296.481H84.2786V307.581H83.1586V309.021H88.3186V307.581H87.0386V296.481H88.3186V295.021H74.3186V296.481H75.5986V307.581H74.3186V309.021ZM94.8909 307.761C93.4509 307.761 92.7709 306.301 92.7709 304.001C92.7709 301.821 93.1709 300.261 94.9309 300.261C96.3709 300.261 97.0509 301.741 97.0509 304.041C97.0509 306.221 96.6509 307.761 94.8909 307.761ZM94.6509 309.221C97.9709 309.221 99.7509 306.881 99.7509 303.801C99.7509 300.841 97.9709 298.821 95.1709 298.821C91.8509 298.821 90.0709 301.161 90.0709 304.241C90.0709 307.201 91.8509 309.221 94.6509 309.221ZM101.741 309.141C103.921 309.141 105.181 306.641 105.341 300.461H107.721V307.581H106.601V309.021H111.661V307.581H110.381V300.461H111.661V299.021H102.361V300.461H103.741C103.701 304.101 102.961 306.981 101.361 306.981C101.101 306.981 100.781 306.941 100.781 306.941L100.861 308.981C100.861 308.981 101.061 309.141 101.741 309.141ZM123.789 309.221C127.109 309.221 128.889 306.881 128.889 303.801C128.889 300.841 127.109 298.821 124.309 298.821C121.349 298.821 119.609 300.681 119.269 303.261H117.509V300.461H118.449V299.021H113.589V300.461H114.849V307.581H113.589V309.021H118.449V307.581H117.509V304.661H119.209C119.369 307.401 121.109 309.221 123.789 309.221ZM124.029 307.761C122.589 307.761 121.909 306.301 121.909 304.001C121.909 301.821 122.309 300.261 124.069 300.261C125.509 300.261 126.189 301.741 126.189 304.041C126.189 306.221 125.789 307.761 124.029 307.761ZM129.843 312.361H131.343L131.743 309.021H139.143L139.543 312.361H141.063L141.143 307.581H139.583L139.562 300.461H140.883V299.021H131.343V300.461H132.783C132.743 303.961 132.283 306.181 130.683 307.581H129.803L129.843 312.361ZM132.683 307.581C133.883 306.381 134.323 304.121 134.423 300.461H136.943V307.581H132.683Z" fill="#3D496A"/>
<g filter="url(#filter3_d)">
<circle cx="83" cy="351.021" r="13" fill="white"/>
<circle cx="83" cy="351.021" r="11.5" stroke="url(#paint3_linear)" stroke-width="3" stroke-linecap="round"/>
</g>
<defs>
<filter id="filter0_d" x="58.5664" y="278.72" width="1329.86" height="586.302" filterUnits="userSpaceOnUse" color-interpolation-filters="sRGB">
<feFlood flood-opacity="0" result="BackgroundImageFix"/>
<feColorMatrix in="SourceAlpha" type="matrix" values="0 0 0 0 0 0 0 0 0 0 0 0 0 0 0 0 0 0 127 0"/>
<feOffset/>
<feGaussianBlur stdDeviation="10"/>
<feColorMatrix type="matrix" values="0 0 0 0 1 0 0 0 0 1 0 0 0 0 1 0 0 0 1 0"/>
<feBlend mode="normal" in2="BackgroundImageFix" result="effect1_dropShadow"/>
<feBlend mode="normal" in="SourceGraphic" in2="effect1_dropShadow" result="shape"/>
</filter>
<filter id="filter1_d" x="1328" y="541.021" width="66" height="66" filterUnits="userSpaceOnUse" color-interpolation-filters="sRGB">
<feFlood flood-opacity="0" result="BackgroundImageFix"/>
<feColorMatrix in="SourceAlpha" type="matrix" values="0 0 0 0 0 0 0 0 0 0 0 0 0 0 0 0 0 0 127 0"/>
<feOffset/>
<feGaussianBlur stdDeviation="10"/>
<feColorMatrix type="matrix" values="0 0 0 0 1 0 0 0 0 1 0 0 0 0 1 0 0 0 0.7 0"/>
<feBlend mode="normal" in2="BackgroundImageFix" result="effect1_dropShadow"/>
<feBlend mode="normal" in="SourceGraphic" in2="effect1_dropShadow" result="shape"/>
</filter>
<filter id="filter2_d" x="961" y="812.021" width="66" height="66" filterUnits="userSpaceOnUse" color-interpolation-filters="sRGB">
<feFlood flood-opacity="0" result="BackgroundImageFix"/>
<feColorMatrix in="SourceAlpha" type="matrix" values="0 0 0 0 0 0 0 0 0 0 0 0 0 0 0 0 0 0 127 0"/>
<feOffset/>
<feGaussianBlur stdDeviation="10"/>
<feColorMatrix type="matrix" values="0 0 0 0 1 0 0 0 0 1 0 0 0 0 1 0 0 0 0.7 0"/>
<feBlend mode="normal" in2="BackgroundImageFix" result="effect1_dropShadow"/>
<feBlend mode="normal" in="SourceGraphic" in2="effect1_dropShadow" result="shape"/>
</filter>
<filter id="filter3_d" x="50" y="318.021" width="66" height="66" filterUnits="userSpaceOnUse" color-interpolation-filters="sRGB">
<feFlood flood-opacity="0" result="BackgroundImageFix"/>
<feColorMatrix in="SourceAlpha" type="matrix" values="0 0 0 0 0 0 0 0 0 0 0 0 0 0 0 0 0 0 127 0"/>
<feOffset/>
<feGaussianBlur stdDeviation="10"/>
<feColorMatrix type="matrix" values="0 0 0 0 1 0 0 0 0 1 0 0 0 0 1 0 0 0 0.7 0"/>
<feBlend mode="normal" in2="BackgroundImageFix" result="effect1_dropShadow"/>
<feBlend mode="normal" in="SourceGraphic" in2="effect1_dropShadow" result="shape"/>
</filter>
<linearGradient id="paint0_linear" x1="40.0003" y1="339.022" x2="253.541" y2="-42.74" gradientUnits="userSpaceOnUse">
<stop stop-color="#FF6E41"/>
<stop offset="1" stop-color="#FFB800"/>
</linearGradient>
<linearGradient id="paint1_linear" x1="1353.12" y1="586.358" x2="1360.04" y2="557.632" gradientUnits="userSpaceOnUse">
<stop stop-color="#FF6E41"/>
<stop offset="1" stop-color="#FFB800"/>
</linearGradient>
<linearGradient id="paint2_linear" x1="986.121" y1="857.358" x2="993.036" y2="828.632" gradientUnits="userSpaceOnUse">
<stop stop-color="#FF6E41"/>
<stop offset="1" stop-color="#FFB800"/>
</linearGradient>
<linearGradient id="paint3_linear" x1="75.1213" y1="363.358" x2="82.0357" y2="334.632" gradientUnits="userSpaceOnUse">
<stop stop-color="#FF6E41"/>
<stop offset="1" stop-color="#FFB800"/>
</linearGradient>
</defs>
</svg>
