<svg width="1484" height="1080" viewBox="0 0 1484 1080" fill="none" xmlns="http://www.w3.org/2000/svg">
<rect width="1484" height="1080" fill="black" fill-opacity="0"/>
<rect width="231" height="241" fill="black" fill-opacity="0" transform="translate(735 566)"/>
<g filter="url(#filter0_d)">
<circle cx="873" cy="611" r="7" fill="white"/>
<circle cx="873" cy="611" r="6" stroke="url(#paint0_linear)" stroke-width="2" stroke-linecap="round"/>
</g>
<path fill-rule="evenodd" clip-rule="evenodd" d="M870 666C868.343 666 867 667.343 867 669V693C867 694.657 868.343 696 870 696H913.035L916.5 702L919.965 696H963C964.657 696 966 694.657 966 693V669C966 667.343 964.657 666 963 666H870Z" fill="white"/>
<path d="M880.438 679H883.378V678.28H882.458V672.72H884.498L884.628 673.8H885.298L885.358 672H880.438V672.72H881.078V678.28H880.438V679ZM887.55 678.37C886.83 678.37 886.49 677.64 886.49 676.49C886.49 675.4 886.69 674.62 887.57 674.62C888.29 674.62 888.63 675.36 888.63 676.51C888.63 677.6 888.43 678.37 887.55 678.37ZM887.43 679.1C889.09 679.1 889.98 677.93 889.98 676.39C889.98 674.91 889.09 673.9 887.69 673.9C886.03 673.9 885.14 675.07 885.14 676.61C885.14 678.09 886.03 679.1 887.43 679.1ZM890.724 681.51H893.334V680.8H892.694V678.83C892.694 678.83 892.994 679.1 893.704 679.1C895.094 679.1 896.114 678.03 896.114 676.23C896.114 674.99 895.434 673.9 894.004 673.9C893.514 673.9 893.034 674.11 892.664 674.44L892.694 674.13L892.434 673.95L890.724 674L890.714 674.7H891.364V680.8H890.724V681.51ZM893.434 678.31C892.894 678.31 892.694 678.07 892.694 678.07V676.18C892.694 675.58 892.654 675.17 892.654 675.17C892.914 674.96 893.254 674.83 893.604 674.83C894.394 674.83 894.744 675.51 894.744 676.47C894.744 677.7 894.254 678.31 893.434 678.31ZM896.977 679H899.407V678.28H898.937V676.82H900.897V678.28H900.437V679H902.867V678.28H902.227V674.72H902.867V674H900.437V674.72H900.897V676.09H898.937V674.72H899.407V674H896.977V674.72H897.607V678.28H896.977V679ZM906.134 678.37C905.414 678.37 905.074 677.64 905.074 676.49C905.074 675.4 905.274 674.62 906.154 674.62C906.874 674.62 907.214 675.36 907.214 676.51C907.214 677.6 907.014 678.37 906.134 678.37ZM906.014 679.1C907.674 679.1 908.564 677.93 908.564 676.39C908.564 674.91 907.674 673.9 906.274 673.9C904.614 673.9 903.724 675.07 903.724 676.61C903.724 678.09 904.614 679.1 906.014 679.1ZM909.559 679.06C910.649 679.06 911.279 677.81 911.359 674.72H912.549V678.28H911.989V679H914.519V678.28H913.879V674.72H914.519V674H909.869V674.72H910.559C910.539 676.54 910.169 677.98 909.369 677.98C909.239 677.98 909.079 677.96 909.079 677.96L909.119 678.98C909.119 678.98 909.219 679.06 909.559 679.06ZM920.443 679H922.873V678.28H922.243V674.72H922.873V674H920.443V674.72H920.913V678.28H920.443V679ZM915.493 679H918.083C919.633 679 920.383 678.38 920.383 677.33C920.383 676.3 919.603 675.73 918.103 675.73H917.443V674.72H918.033V674H915.483V674.72H916.113V678.28H915.493V679ZM917.443 678.3V676.43H917.983C918.663 676.43 918.983 676.79 918.983 677.37C918.983 677.93 918.663 678.3 917.973 678.3H917.443ZM927.033 676.15H926.443L925.323 674.72H925.783V674H923.783V674.72H924.263L925.603 676.06L924.033 678.28H923.633V679H925.073L926.523 676.8H927.033V678.28H926.553V679H928.843V678.28H928.363V676.8H928.863L930.293 679H931.763V678.28H931.393L929.803 676.05L931.133 674.72H931.613V674H929.613V674.72H930.073L928.953 676.15H928.363V674.72H928.783V674H926.603V674.72H927.033V676.15ZM932.524 679H934.954V678.28H934.484V676.82H936.444V678.28H935.984V679H938.414V678.28H937.774V674.72H938.414V674H935.984V674.72H936.444V676.09H934.484V674.72H934.954V674H932.524V674.72H933.154V678.28H932.524V679ZM944.33 679H946.76V678.28H946.13V674.72H946.76V674H944.33V674.72H944.8V678.28H944.33V679ZM939.38 679H941.97C943.52 679 944.27 678.38 944.27 677.33C944.27 676.3 943.49 675.73 941.99 675.73H941.33V674.72H941.92V674H939.37V674.72H940V678.28H939.38V679ZM941.33 678.3V676.43H941.87C942.55 676.43 942.87 676.79 942.87 677.37C942.87 677.93 942.55 678.3 941.86 678.3H941.33ZM950.829 673.09C951.739 673.09 952.369 672.66 952.779 672.28L952.089 671.44C951.669 671.79 951.399 672.41 950.829 672.41C950.289 672.41 950.079 671.75 949.689 671.4L948.829 672.28C949.199 672.6 949.929 673.09 950.829 673.09ZM947.719 679H949.629L951.349 676.05C951.619 675.59 951.759 675.18 951.759 675.18H951.799C951.799 675.18 951.759 675.59 951.759 675.91V678.28H951.279V679H953.709V678.28H953.069V674.72H953.709V674H951.769L950.059 676.92C949.769 677.44 949.629 677.85 949.629 677.85H949.589C949.589 677.85 949.639 677.26 949.639 676.86V674.72H950.149V674H947.719V674.72H948.349V678.28H947.719V679ZM875.405 690H877.835V689.28H877.355V687.8H877.755L879.325 690H880.755V689.28H880.375L878.745 687.1L880.125 685.72H880.605V685H878.555V685.72H879.065L877.945 687.11H877.355V685.72H877.825V685H875.395V685.72H876.025V689.28H875.405V690ZM883.728 692.58C883.858 691.8 884.128 690.91 884.488 690L886.178 685.7H886.708V685H884.708V685.7H885.188L884.448 687.82C884.308 688.22 884.168 688.85 884.168 688.85H884.128C884.128 688.85 884.008 688.35 883.818 687.85L882.988 685.7H883.438V685H881.138V685.7H881.668L883.548 690.17C883.148 690.79 882.708 691.64 882.508 692.5L883.728 692.58ZM887.18 692.51H889.79V691.8H889.15V689.83C889.15 689.83 889.45 690.1 890.16 690.1C891.55 690.1 892.57 689.03 892.57 687.23C892.57 685.99 891.89 684.9 890.46 684.9C889.97 684.9 889.49 685.11 889.12 685.44L889.15 685.13L888.89 684.95L887.18 685L887.17 685.7H887.82V691.8H887.18V692.51ZM889.89 689.31C889.35 689.31 889.15 689.07 889.15 689.07V687.18C889.15 686.58 889.11 686.17 889.11 686.17C889.37 685.96 889.71 685.83 890.06 685.83C890.85 685.83 891.2 686.51 891.2 687.47C891.2 688.7 890.71 689.31 889.89 689.31ZM895.841 689.37C895.121 689.37 894.781 688.64 894.781 687.49C894.781 686.4 894.981 685.62 895.861 685.62C896.581 685.62 896.921 686.36 896.921 687.51C896.921 688.6 896.721 689.37 895.841 689.37ZM895.721 690.1C897.381 690.1 898.271 688.93 898.271 687.39C898.271 685.91 897.381 684.9 895.981 684.9C894.321 684.9 893.431 686.07 893.431 687.61C893.431 689.09 894.321 690.1 895.721 690.1ZM899.016 692.51H901.626V691.8H900.986V689.83C900.986 689.83 901.286 690.1 901.996 690.1C903.386 690.1 904.406 689.03 904.406 687.23C904.406 685.99 903.726 684.9 902.296 684.9C901.806 684.9 901.326 685.11 900.956 685.44L900.986 685.13L900.726 684.95L899.016 685L899.006 685.7H899.656V691.8H899.016V692.51ZM901.726 689.31C901.186 689.31 900.986 689.07 900.986 689.07V687.18C900.986 686.58 900.946 686.17 900.946 686.17C901.206 685.96 901.546 685.83 901.896 685.83C902.686 685.83 903.036 686.51 903.036 687.47C903.036 688.7 902.546 689.31 901.726 689.31ZM906.207 690H908.737V689.28H908.137V685.72H909.067L909.187 686.62H909.827L909.787 685H905.157L905.117 686.62H905.757L905.877 685.72H906.787V689.28H906.207V690ZM914.064 682.5C913.334 683.06 912.904 684.07 912.904 684.85C912.904 685.45 913.194 685.66 913.614 685.66C914.154 685.66 914.384 685.3 914.384 684.93C914.384 684.53 914.114 684.22 913.774 684.2C913.954 683.69 914.254 683.24 914.584 682.9L914.064 682.5ZM916.104 682.5C915.374 683.06 914.944 684.07 914.944 684.85C914.944 685.45 915.234 685.66 915.654 685.66C916.194 685.66 916.424 685.3 916.424 684.93C916.424 684.53 916.154 684.22 915.814 684.2C915.994 683.69 916.294 683.24 916.624 682.9L916.104 682.5ZM918.647 690H921.547V689.28H920.797V683.72H922.217L922.277 684.84H922.907L923.017 683H917.177L917.187 684.84H917.817L917.977 683.72H919.397V689.28H918.647V690ZM925.204 689.23C924.744 689.23 924.494 688.99 924.494 688.63C924.494 688.19 924.804 687.97 925.204 687.89C925.684 687.8 925.944 687.83 925.944 687.83V688.15C925.944 688.73 925.974 689.01 925.974 689.01C925.974 689.01 925.694 689.23 925.204 689.23ZM926.144 689.55C926.264 689.86 926.604 690.1 927.064 690.1C927.584 690.1 927.904 689.88 927.904 689.88V689.1C927.494 689.36 927.284 689.28 927.284 688.94L927.274 686.73C927.274 685.43 926.634 684.9 925.364 684.9C924.424 684.9 923.644 685.18 923.644 685.18V685.95C923.644 685.95 924.264 685.82 924.724 685.82C925.624 685.82 925.964 686.04 925.964 686.87V687.13C925.674 687.13 925.314 687.14 924.934 687.19C923.754 687.33 923.184 687.88 923.184 688.77C923.184 689.5 923.644 690.12 924.644 690.12C925.224 690.12 925.724 689.9 926.144 689.55ZM928.725 690H931.155V689.28H930.675V687.8H931.075L932.645 690H934.075V689.28H933.695L932.065 687.1L933.445 685.72H933.925V685H931.875V685.72H932.385L931.265 687.11H930.675V685.72H931.145V685H928.715V685.72H929.345V689.28H928.725V690ZM934.758 690H936.808V689.28H936.088L936.198 686.81C936.218 686.44 936.198 686.1 936.198 686.1H936.258C936.258 686.1 936.358 686.45 936.508 686.76L937.858 689.7H938.448L939.848 686.75C940.018 686.38 940.108 686.1 940.108 686.1H940.158C940.158 686.1 940.148 686.3 940.168 686.71L940.268 689.28H939.538V690H942.038V689.28H941.418L941.258 685.72H941.908V685H939.878L938.398 688.11L937.048 685H934.918V685.72H935.548L935.388 689.28H934.758V690ZM944.784 689.23C944.324 689.23 944.074 688.99 944.074 688.63C944.074 688.19 944.384 687.97 944.784 687.89C945.264 687.8 945.524 687.83 945.524 687.83V688.15C945.524 688.73 945.554 689.01 945.554 689.01C945.554 689.01 945.274 689.23 944.784 689.23ZM945.724 689.55C945.844 689.86 946.184 690.1 946.644 690.1C947.164 690.1 947.484 689.88 947.484 689.88V689.1C947.074 689.36 946.864 689.28 946.864 688.94L946.854 686.73C946.854 685.43 946.214 684.9 944.944 684.9C944.004 684.9 943.224 685.18 943.224 685.18V685.95C943.224 685.95 943.844 685.82 944.304 685.82C945.204 685.82 945.544 686.04 945.544 686.87V687.13C945.254 687.13 944.894 687.14 944.514 687.19C943.334 687.33 942.764 687.88 942.764 688.77C942.764 689.5 943.224 690.12 944.224 690.12C944.804 690.12 945.304 689.9 945.724 689.55ZM948.295 690H950.725V689.28H950.255V687.82H952.215V689.28H951.755V690H954.185V689.28H953.545V685.72H954.185V685H951.755V685.72H952.215V687.09H950.255V685.72H950.725V685H948.295V685.72H948.925V689.28H948.295V690ZM957.581 685.65C958.311 685.09 958.741 684.08 958.741 683.3C958.741 682.7 958.451 682.49 958.031 682.49C957.491 682.49 957.261 682.85 957.261 683.22C957.261 683.62 957.531 683.93 957.871 683.95C957.691 684.46 957.391 684.91 957.061 685.25L957.581 685.65ZM955.541 685.65C956.271 685.09 956.701 684.08 956.701 683.3C956.701 682.7 956.411 682.49 955.991 682.49C955.451 682.49 955.221 682.85 955.221 683.22C955.221 683.62 955.491 683.93 955.831 683.95C955.651 684.46 955.351 684.91 955.021 685.25L955.541 685.65Z" fill="#3D496A"/>
<path fill-rule="evenodd" clip-rule="evenodd" d="M826 566C824.343 566 823 567.343 823 569V593C823 594.657 824.343 596 826 596H869.035L872.5 602L875.965 596H919C920.657 596 922 594.657 922 593V569C922 567.343 920.657 566 919 566H826Z" fill="white"/>
<path d="M836.438 579H839.378V578.28H838.458V572.72H840.498L840.628 573.8H841.298L841.358 572H836.438V572.72H837.078V578.28H836.438V579ZM843.55 578.37C842.83 578.37 842.49 577.64 842.49 576.49C842.49 575.4 842.69 574.62 843.57 574.62C844.29 574.62 844.63 575.36 844.63 576.51C844.63 577.6 844.43 578.37 843.55 578.37ZM843.43 579.1C845.09 579.1 845.98 577.93 845.98 576.39C845.98 574.91 845.09 573.9 843.69 573.9C842.03 573.9 841.14 575.07 841.14 576.61C841.14 578.09 842.03 579.1 843.43 579.1ZM846.724 581.51H849.334V580.8H848.694V578.83C848.694 578.83 848.994 579.1 849.704 579.1C851.094 579.1 852.114 578.03 852.114 576.23C852.114 574.99 851.434 573.9 850.004 573.9C849.514 573.9 849.034 574.11 848.664 574.44L848.694 574.13L848.434 573.95L846.724 574L846.714 574.7H847.364V580.8H846.724V581.51ZM849.434 578.31C848.894 578.31 848.694 578.07 848.694 578.07V576.18C848.694 575.58 848.654 575.17 848.654 575.17C848.914 574.96 849.254 574.83 849.604 574.83C850.394 574.83 850.744 575.51 850.744 576.47C850.744 577.7 850.254 578.31 849.434 578.31ZM852.977 579H855.407V578.28H854.937V576.82H856.897V578.28H856.437V579H858.867V578.28H858.227V574.72H858.867V574H856.437V574.72H856.897V576.09H854.937V574.72H855.407V574H852.977V574.72H853.607V578.28H852.977V579ZM862.134 578.37C861.414 578.37 861.074 577.64 861.074 576.49C861.074 575.4 861.274 574.62 862.154 574.62C862.874 574.62 863.214 575.36 863.214 576.51C863.214 577.6 863.014 578.37 862.134 578.37ZM862.014 579.1C863.674 579.1 864.564 577.93 864.564 576.39C864.564 574.91 863.674 573.9 862.274 573.9C860.614 573.9 859.724 575.07 859.724 576.61C859.724 578.09 860.614 579.1 862.014 579.1ZM865.559 579.06C866.649 579.06 867.279 577.81 867.359 574.72H868.549V578.28H867.989V579H870.519V578.28H869.879V574.72H870.519V574H865.869V574.72H866.559C866.539 576.54 866.169 577.98 865.369 577.98C865.239 577.98 865.079 577.96 865.079 577.96L865.119 578.98C865.119 578.98 865.219 579.06 865.559 579.06ZM876.443 579H878.873V578.28H878.243V574.72H878.873V574H876.443V574.72H876.913V578.28H876.443V579ZM871.493 579H874.083C875.633 579 876.383 578.38 876.383 577.33C876.383 576.3 875.603 575.73 874.103 575.73H873.443V574.72H874.033V574H871.483V574.72H872.113V578.28H871.493V579ZM873.443 578.3V576.43H873.983C874.663 576.43 874.983 576.79 874.983 577.37C874.983 577.93 874.663 578.3 873.973 578.3H873.443ZM883.033 576.15H882.443L881.323 574.72H881.783V574H879.783V574.72H880.263L881.603 576.06L880.033 578.28H879.633V579H881.073L882.523 576.8H883.033V578.28H882.553V579H884.843V578.28H884.363V576.8H884.863L886.293 579H887.763V578.28H887.393L885.803 576.05L887.133 574.72H887.613V574H885.613V574.72H886.073L884.953 576.15H884.363V574.72H884.783V574H882.603V574.72H883.033V576.15ZM888.524 579H890.954V578.28H890.484V576.82H892.444V578.28H891.984V579H894.414V578.28H893.774V574.72H894.414V574H891.984V574.72H892.444V576.09H890.484V574.72H890.954V574H888.524V574.72H889.154V578.28H888.524V579ZM900.33 579H902.76V578.28H902.13V574.72H902.76V574H900.33V574.72H900.8V578.28H900.33V579ZM895.38 579H897.97C899.52 579 900.27 578.38 900.27 577.33C900.27 576.3 899.49 575.73 897.99 575.73H897.33V574.72H897.92V574H895.37V574.72H896V578.28H895.38V579ZM897.33 578.3V576.43H897.87C898.55 576.43 898.87 576.79 898.87 577.37C898.87 577.93 898.55 578.3 897.86 578.3H897.33ZM906.829 573.09C907.739 573.09 908.369 572.66 908.779 572.28L908.089 571.44C907.669 571.79 907.399 572.41 906.829 572.41C906.289 572.41 906.079 571.75 905.689 571.4L904.829 572.28C905.199 572.6 905.929 573.09 906.829 573.09ZM903.719 579H905.629L907.349 576.05C907.619 575.59 907.759 575.18 907.759 575.18H907.799C907.799 575.18 907.759 575.59 907.759 575.91V578.28H907.279V579H909.709V578.28H909.069V574.72H909.709V574H907.769L906.059 576.92C905.769 577.44 905.629 577.85 905.629 577.85H905.589C905.589 577.85 905.639 577.26 905.639 576.86V574.72H906.149V574H903.719V574.72H904.349V578.28H903.719V579ZM840.856 591.67H841.606L841.626 589.28H840.866V585.72H841.486V585H839.056V585.72H839.536V589.28H837.706V585.72H838.156V585H835.726V585.72H836.376V589.28H835.726V590H840.656L840.856 591.67ZM845.005 590.1C846.115 590.1 846.655 589.75 846.655 589.75V588.98C846.655 588.98 846.105 589.22 845.505 589.22C844.245 589.22 843.775 588.52 843.715 587.59H846.915C846.995 585.76 846.155 584.9 844.795 584.9C843.425 584.9 842.375 585.93 842.375 587.59C842.375 589.05 843.305 590.1 845.005 590.1ZM843.745 586.83C843.805 586.04 844.185 585.63 844.705 585.63C845.155 585.63 845.505 586.05 845.505 586.75L843.745 586.83ZM847.787 590H850.217V589.28H849.747V587.82H851.707V589.28H851.247V590H853.677V589.28H853.037V585.72H853.677V585H851.247V585.72H851.707V587.09H849.747V585.72H850.217V585H847.787V585.72H848.417V589.28H847.787V590ZM855.522 590H858.052V589.28H857.452V585.72H858.382L858.502 586.62H859.142L859.102 585H854.472L854.432 586.62H855.072L855.192 585.72H856.102V589.28H855.522V590ZM859.796 592.51H862.406V591.8H861.766V589.83C861.766 589.83 862.066 590.1 862.776 590.1C864.166 590.1 865.186 589.03 865.186 587.23C865.186 585.99 864.506 584.9 863.076 584.9C862.586 584.9 862.106 585.11 861.736 585.44L861.766 585.13L861.506 584.95L859.796 585L859.786 585.7H860.436V591.8H859.796V592.51ZM862.506 589.31C861.966 589.31 861.766 589.07 861.766 589.07V587.18C861.766 586.58 861.726 586.17 861.726 586.17C861.986 585.96 862.326 585.83 862.676 585.83C863.466 585.83 863.816 586.51 863.816 587.47C863.816 588.7 863.326 589.31 862.506 589.31ZM869.571 582.5C868.841 583.06 868.411 584.07 868.411 584.85C868.411 585.45 868.701 585.66 869.121 585.66C869.661 585.66 869.891 585.3 869.891 584.93C869.891 584.53 869.621 584.22 869.281 584.2C869.461 583.69 869.761 583.24 870.091 582.9L869.571 582.5ZM871.611 582.5C870.881 583.06 870.451 584.07 870.451 584.85C870.451 585.45 870.741 585.66 871.161 585.66C871.701 585.66 871.931 585.3 871.931 584.93C871.931 584.53 871.661 584.22 871.321 584.2C871.501 583.69 871.801 583.24 872.131 582.9L871.611 582.5ZM873.054 590H875.994V589.28H875.074V583.72H877.114L877.244 584.8H877.914L877.974 583H873.054V583.72H873.694V589.28H873.054V590ZM880.739 592.58C880.869 591.8 881.139 590.91 881.499 590L883.189 585.7H883.719V585H881.719V585.7H882.199L881.459 587.82C881.319 588.22 881.179 588.85 881.179 588.85H881.139C881.139 588.85 881.019 588.35 880.829 587.85L879.999 585.7H880.449V585H878.149V585.7H878.679L880.559 590.17C880.159 590.79 879.719 591.64 879.519 592.5L880.739 592.58ZM886.86 590.1C888.29 590.1 889.24 589.1 889.24 587.42C889.24 586.08 888.41 585.17 887.09 585.17C886.1 585.17 885.49 585.64 885.2 586.54H885.14C885.26 585.11 885.56 584.28 887.16 583.96C887.9 583.82 888.46 583.71 888.94 583.55L888.67 582.48C888.16 582.65 887.64 582.76 886.86 582.92C885.04 583.31 884.44 584.53 884.44 587.04C884.44 589.1 885.35 590.1 886.86 590.1ZM886.86 589.44C886.16 589.44 885.78 588.54 885.78 587.52C885.78 586.63 886.15 585.89 886.86 585.89C887.54 585.89 887.92 586.62 887.92 587.82C887.92 588.77 887.55 589.44 886.86 589.44ZM892.02 589.23C891.56 589.23 891.31 588.99 891.31 588.63C891.31 588.19 891.62 587.97 892.02 587.89C892.5 587.8 892.76 587.83 892.76 587.83V588.15C892.76 588.73 892.79 589.01 892.79 589.01C892.79 589.01 892.51 589.23 892.02 589.23ZM892.96 589.55C893.08 589.86 893.42 590.1 893.88 590.1C894.4 590.1 894.72 589.88 894.72 589.88V589.1C894.31 589.36 894.1 589.28 894.1 588.94L894.09 586.73C894.09 585.43 893.45 584.9 892.18 584.9C891.24 584.9 890.46 585.18 890.46 585.18V585.95C890.46 585.95 891.08 585.82 891.54 585.82C892.44 585.82 892.78 586.04 892.78 586.87V587.13C892.49 587.13 892.13 587.14 891.75 587.19C890.57 587.33 890 587.88 890 588.77C890 589.5 890.46 590.12 891.46 590.12C892.04 590.12 892.54 589.9 892.96 589.55ZM895.331 590H897.551V589.28H897.061L897.951 588.06L898.921 589.28H898.581V590H900.961V589.28H900.391L898.781 587.37L900.251 585.7H900.861V585H898.641V585.7H899.171L898.271 586.88L897.381 585.7H897.771V585H895.391V585.7H895.901L897.441 587.56L895.931 589.28H895.331V590ZM903.553 589.23C903.093 589.23 902.843 588.99 902.843 588.63C902.843 588.19 903.153 587.97 903.553 587.89C904.033 587.8 904.293 587.83 904.293 587.83V588.15C904.293 588.73 904.323 589.01 904.323 589.01C904.323 589.01 904.043 589.23 903.553 589.23ZM904.493 589.55C904.613 589.86 904.953 590.1 905.413 590.1C905.933 590.1 906.253 589.88 906.253 589.88V589.1C905.843 589.36 905.633 589.28 905.633 588.94L905.623 586.73C905.623 585.43 904.983 584.9 903.713 584.9C902.773 584.9 901.993 585.18 901.993 585.18V585.95C901.993 585.95 902.613 585.82 903.073 585.82C903.973 585.82 904.313 586.04 904.313 586.87V587.13C904.023 587.13 903.663 587.14 903.283 587.19C902.103 587.33 901.533 587.88 901.533 588.77C901.533 589.5 901.993 590.12 902.993 590.12C903.573 590.12 904.073 589.9 904.493 589.55ZM909.24 585.65C909.97 585.09 910.4 584.08 910.4 583.3C910.4 582.7 910.11 582.49 909.69 582.49C909.15 582.49 908.92 582.85 908.92 583.22C908.92 583.62 909.19 583.93 909.53 583.95C909.35 584.46 909.05 584.91 908.72 585.25L909.24 585.65ZM907.2 585.65C907.93 585.09 908.36 584.08 908.36 583.3C908.36 582.7 908.07 582.49 907.65 582.49C907.11 582.49 906.88 582.85 906.88 583.22C906.88 583.62 907.15 583.93 907.49 583.95C907.31 584.46 907.01 584.91 906.68 585.25L907.2 585.65Z" fill="#3D496A"/>
<path fill-rule="evenodd" clip-rule="evenodd" d="M738 754C736.343 754 735 755.343 735 757V781C735 782.657 736.343 784 738 784H781.035L784.5 790L787.965 784H831C832.657 784 834 782.657 834 781V757C834 755.343 832.657 754 831 754H738Z" fill="white"/>
<path d="M745.42 767H748V766.28H747.44V760.73H750.4V766.28H749.84V767H752.42V766.28H751.78V760.73H752.42V760H745.42V760.73H746.06V766.28H745.42V767ZM755.323 766.23C754.863 766.23 754.613 765.99 754.613 765.63C754.613 765.19 754.923 764.97 755.323 764.89C755.803 764.8 756.063 764.83 756.063 764.83V765.15C756.063 765.73 756.093 766.01 756.093 766.01C756.093 766.01 755.813 766.23 755.323 766.23ZM756.263 766.55C756.383 766.86 756.723 767.1 757.183 767.1C757.703 767.1 758.023 766.88 758.023 766.88V766.1C757.613 766.36 757.403 766.28 757.403 765.94L757.393 763.73C757.393 762.43 756.753 761.9 755.483 761.9C754.543 761.9 753.763 762.18 753.763 762.18V762.95C753.763 762.95 754.383 762.82 754.843 762.82C755.743 762.82 756.083 763.04 756.083 763.87V764.13C755.793 764.13 755.433 764.14 755.053 764.19C753.873 764.33 753.303 764.88 753.303 765.77C753.303 766.5 753.763 767.12 754.763 767.12C755.343 767.12 755.843 766.9 756.263 766.55ZM758.646 769.51H761.256V768.8H760.616V766.83C760.616 766.83 760.916 767.1 761.626 767.1C763.016 767.1 764.036 766.03 764.036 764.23C764.036 762.99 763.356 761.9 761.926 761.9C761.436 761.9 760.956 762.11 760.586 762.44L760.616 762.13L760.356 761.95L758.646 762L758.636 762.7H759.286V768.8H758.646V769.51ZM761.356 766.31C760.816 766.31 760.616 766.07 760.616 766.07V764.18C760.616 763.58 760.576 763.17 760.576 763.17C760.836 762.96 761.176 762.83 761.526 762.83C762.316 762.83 762.666 763.51 762.666 764.47C762.666 765.7 762.176 766.31 761.356 766.31ZM764.909 767H767.339V766.28H766.859V764.8H767.259L768.829 767H770.259V766.28H769.879L768.249 764.1L769.629 762.72H770.109V762H768.059V762.72H768.569L767.449 764.11H766.859V762.72H767.329V762H764.899V762.72H765.529V766.28H764.909V767ZM775.236 766.23C774.776 766.23 774.526 765.99 774.526 765.63C774.526 765.19 774.836 764.97 775.236 764.89C775.716 764.8 775.976 764.83 775.976 764.83V765.15C775.976 765.73 776.006 766.01 776.006 766.01C776.006 766.01 775.726 766.23 775.236 766.23ZM776.176 766.55C776.296 766.86 776.636 767.1 777.096 767.1C777.616 767.1 777.936 766.88 777.936 766.88V766.1C777.526 766.36 777.316 766.28 777.316 765.94L777.306 763.73C777.306 762.43 776.666 761.9 775.396 761.9C774.456 761.9 773.676 762.18 773.676 762.18V762.95C773.676 762.95 774.296 762.82 774.756 762.82C775.656 762.82 775.996 763.04 775.996 763.87V764.13C775.706 764.13 775.346 764.14 774.966 764.19C773.786 764.33 773.216 764.88 773.216 765.77C773.216 766.5 773.676 767.12 774.676 767.12C775.256 767.12 775.756 766.9 776.176 766.55ZM778.757 767H781.187V766.28H780.707V764.8H781.107L782.677 767H784.107V766.28H783.727L782.097 764.1L783.477 762.72H783.957V762H781.907V762.72H782.417L781.297 764.11H780.707V762.72H781.177V762H778.747V762.72H779.377V766.28H778.757V767ZM785.76 767H788.29V766.28H787.69V762.72H788.62L788.74 763.62H789.38L789.34 762H784.71L784.67 763.62H785.31L785.43 762.72H786.34V766.28H785.76V767ZM790.143 767H792.053L793.773 764.05C794.043 763.59 794.183 763.18 794.183 763.18H794.223C794.223 763.18 794.183 763.59 794.183 763.91V766.28H793.703V767H796.133V766.28H795.493V762.72H796.133V762H794.193L792.483 764.92C792.193 765.44 792.053 765.85 792.053 765.85H792.013C792.013 765.85 792.063 765.26 792.063 764.86V762.72H792.573V762H790.143V762.72H790.773V766.28H790.143V767ZM797.096 767H799.916C801.076 767 801.896 766.54 801.896 765.56C801.896 764.86 801.416 764.46 800.606 764.38V764.34C801.256 764.24 801.626 763.81 801.626 763.23C801.626 762.48 801.016 762 799.886 762H797.096V762.72H797.726V766.28H797.096V767ZM799.046 766.3V764.76H799.646C800.276 764.76 800.556 765.03 800.556 765.53C800.556 766.06 800.206 766.3 799.616 766.3H799.046ZM799.046 764.08V762.7H799.466C800.006 762.7 800.296 762.92 800.296 763.41C800.296 763.73 800.126 763.98 799.886 764.08H799.046ZM802.77 767H805.2V766.28H804.73V764.82H806.69V766.28H806.23V767H808.66V766.28H808.02V762.72H808.66V762H806.23V762.72H806.69V764.09H804.73V762.72H805.2V762H802.77V762.72H803.4V766.28H802.77V767ZM811.927 766.37C811.207 766.37 810.867 765.64 810.867 764.49C810.867 763.4 811.067 762.62 811.947 762.62C812.667 762.62 813.007 763.36 813.007 764.51C813.007 765.6 812.807 766.37 811.927 766.37ZM811.807 767.1C813.467 767.1 814.357 765.93 814.357 764.39C814.357 762.91 813.467 761.9 812.067 761.9C810.407 761.9 809.517 763.07 809.517 764.61C809.517 766.09 810.407 767.1 811.807 767.1ZM815.211 767H817.931V766.28H817.181V762.72H818.401L818.541 763.7H819.221L819.211 762H815.211V762.72H815.841V766.28H815.211V767ZM822.357 766.37C821.637 766.37 821.297 765.64 821.297 764.49C821.297 763.4 821.497 762.62 822.377 762.62C823.097 762.62 823.437 763.36 823.437 764.51C823.437 765.6 823.237 766.37 822.357 766.37ZM822.237 767.1C823.897 767.1 824.787 765.93 824.787 764.39C824.787 762.91 823.897 761.9 822.497 761.9C820.837 761.9 819.947 763.07 819.947 764.61C819.947 766.09 820.837 767.1 822.237 767.1ZM743.973 777.37C743.253 777.37 742.913 776.64 742.913 775.49C742.913 774.4 743.113 773.62 743.993 773.62C744.713 773.62 745.053 774.36 745.053 775.51C745.053 776.6 744.853 777.37 743.973 777.37ZM743.853 778.1C745.513 778.1 746.403 776.93 746.403 775.39C746.403 773.91 745.513 772.9 744.113 772.9C742.453 772.9 741.563 774.07 741.563 775.61C741.563 777.09 742.453 778.1 743.853 778.1ZM748.196 778H750.726V777.28H750.126V773.72H751.056L751.176 774.62H751.816L751.776 773H747.146L747.106 774.62H747.746L747.866 773.72H748.776V777.28H748.196V778ZM752.142 779.67H752.892L753.092 778H756.792L756.992 779.67H757.752L757.792 777.28H757.012L757.002 773.72H757.662V773H752.892V773.72H753.612C753.592 775.47 753.362 776.58 752.562 777.28H752.122L752.142 779.67ZM753.562 777.28C754.162 776.68 754.382 775.55 754.432 773.72H755.692V777.28H753.562ZM763.594 778H766.024V777.28H765.394V773.72H766.024V773H763.594V773.72H764.064V777.28H763.594V778ZM758.644 778H761.234C762.784 778 763.534 777.38 763.534 776.33C763.534 775.3 762.754 774.73 761.254 774.73H760.594V773.72H761.184V773H758.634V773.72H759.264V777.28H758.644V778ZM760.594 777.3V775.43H761.134C761.814 775.43 762.134 775.79 762.134 776.37C762.134 776.93 761.814 777.3 761.124 777.3H760.594ZM766.784 778H769.004V777.28H768.514L769.404 776.06L770.374 777.28H770.034V778H772.414V777.28H771.844L770.234 775.37L771.704 773.7H772.314V773H770.094V773.7H770.624L769.724 774.88L768.834 773.7H769.224V773H766.844V773.7H767.354L768.894 775.56L767.384 777.28H766.784V778ZM775.006 777.23C774.546 777.23 774.296 776.99 774.296 776.63C774.296 776.19 774.606 775.97 775.006 775.89C775.486 775.8 775.746 775.83 775.746 775.83V776.15C775.746 776.73 775.776 777.01 775.776 777.01C775.776 777.01 775.496 777.23 775.006 777.23ZM775.946 777.55C776.066 777.86 776.406 778.1 776.866 778.1C777.386 778.1 777.706 777.88 777.706 777.88V777.1C777.296 777.36 777.086 777.28 777.086 776.94L777.076 774.73C777.076 773.43 776.436 772.9 775.166 772.9C774.226 772.9 773.446 773.18 773.446 773.18V773.95C773.446 773.95 774.066 773.82 774.526 773.82C775.426 773.82 775.766 774.04 775.766 774.87V775.13C775.476 775.13 775.116 775.14 774.736 775.19C773.556 775.33 772.986 775.88 772.986 776.77C772.986 777.5 773.446 778.12 774.446 778.12C775.026 778.12 775.526 777.9 775.946 777.55ZM781.991 770.5C781.261 771.06 780.831 772.07 780.831 772.85C780.831 773.45 781.121 773.66 781.541 773.66C782.081 773.66 782.311 773.3 782.311 772.93C782.311 772.53 782.041 772.22 781.701 772.2C781.881 771.69 782.181 771.24 782.511 770.9L781.991 770.5ZM784.031 770.5C783.301 771.06 782.871 772.07 782.871 772.85C782.871 773.45 783.161 773.66 783.581 773.66C784.121 773.66 784.351 773.3 784.351 772.93C784.351 772.53 784.081 772.22 783.741 772.2C783.921 771.69 784.221 771.24 784.551 770.9L784.031 770.5ZM789.194 774.07H788.534L786.994 771.72H787.434V771H785.244V771.72H785.784L787.674 774.04L785.404 777.28H785.024V778H786.484L788.734 774.72H789.194V777.28H788.604V778H791.184V777.28H790.574V774.72H791.044L793.264 778H794.744V777.28H794.394L792.024 774.06L793.964 771.72H794.524V771H792.334V771.72H792.834L791.284 774.07H790.574V771.72H791.184V771H788.604V771.72H789.194V774.07ZM797.855 778.1C798.965 778.1 799.505 777.75 799.505 777.75V776.98C799.505 776.98 798.955 777.22 798.355 777.22C797.095 777.22 796.625 776.52 796.565 775.59H799.765C799.845 773.76 799.005 772.9 797.645 772.9C796.275 772.9 795.225 773.93 795.225 775.59C795.225 777.05 796.155 778.1 797.855 778.1ZM796.595 774.83C796.655 774.04 797.035 773.63 797.555 773.63C798.005 773.63 798.355 774.05 798.355 774.75L796.595 774.83ZM803.196 778.1C804.626 778.1 805.576 777.1 805.576 775.42C805.576 774.08 804.746 773.17 803.426 773.17C802.436 773.17 801.826 773.64 801.536 774.54H801.476C801.596 773.11 801.896 772.28 803.496 771.96C804.236 771.82 804.796 771.71 805.276 771.55L805.006 770.48C804.496 770.65 803.976 770.76 803.196 770.92C801.376 771.31 800.776 772.53 800.776 775.04C800.776 777.1 801.686 778.1 803.196 778.1ZM803.196 777.44C802.496 777.44 802.116 776.54 802.116 775.52C802.116 774.63 802.486 773.89 803.196 773.89C803.876 773.89 804.256 774.62 804.256 775.82C804.256 776.77 803.886 777.44 803.196 777.44ZM806.317 780.51H808.927V779.8H808.287V777.83C808.287 777.83 808.587 778.1 809.297 778.1C810.687 778.1 811.707 777.03 811.707 775.23C811.707 773.99 811.027 772.9 809.597 772.9C809.107 772.9 808.627 773.11 808.257 773.44L808.287 773.13L808.027 772.95L806.317 773L806.307 773.7H806.957V779.8H806.317V780.51ZM809.027 777.31C808.487 777.31 808.287 777.07 808.287 777.07V775.18C808.287 774.58 808.247 774.17 808.247 774.17C808.507 773.96 808.847 773.83 809.197 773.83C809.987 773.83 810.337 774.51 810.337 775.47C810.337 776.7 809.847 777.31 809.027 777.31ZM815.189 778.1C816.299 778.1 816.839 777.75 816.839 777.75V776.98C816.839 776.98 816.289 777.22 815.689 777.22C814.429 777.22 813.959 776.52 813.899 775.59H817.099C817.179 773.76 816.339 772.9 814.979 772.9C813.609 772.9 812.559 773.93 812.559 775.59C812.559 777.05 813.489 778.1 815.189 778.1ZM813.929 774.83C813.989 774.04 814.369 773.63 814.889 773.63C815.339 773.63 815.689 774.05 815.689 774.75L813.929 774.83ZM817.97 778H819.88L821.6 775.05C821.87 774.59 822.01 774.18 822.01 774.18H822.05C822.05 774.18 822.01 774.59 822.01 774.91V777.28H821.53V778H823.96V777.28H823.32V773.72H823.96V773H822.02L820.31 775.92C820.02 776.44 819.88 776.85 819.88 776.85H819.84C819.84 776.85 819.89 776.26 819.89 775.86V773.72H820.4V773H817.97V773.72H818.6V777.28H817.97V778ZM827.363 773.65C828.093 773.09 828.523 772.08 828.523 771.3C828.523 770.7 828.233 770.49 827.813 770.49C827.273 770.49 827.043 770.85 827.043 771.22C827.043 771.62 827.313 771.93 827.653 771.95C827.473 772.46 827.173 772.91 826.843 773.25L827.363 773.65ZM825.323 773.65C826.053 773.09 826.483 772.08 826.483 771.3C826.483 770.7 826.193 770.49 825.773 770.49C825.233 770.49 825.003 770.85 825.003 771.22C825.003 771.62 825.273 771.93 825.613 771.95C825.433 772.46 825.133 772.91 824.803 773.25L825.323 773.65Z" fill="#3D496A"/>
<g filter="url(#filter1_d)">
<circle cx="917" cy="712" r="7" fill="white"/>
<circle cx="917" cy="712" r="6" stroke="url(#paint1_linear)" stroke-width="2" stroke-linecap="round"/>
</g>
<g filter="url(#filter2_d)">
<circle cx="785" cy="800" r="7" fill="white"/>
<circle cx="785" cy="800" r="6" stroke="url(#paint2_linear)" stroke-width="2" stroke-linecap="round"/>
</g>
<defs>
<filter id="filter0_d" x="856" y="594" width="34" height="34" filterUnits="userSpaceOnUse" color-interpolation-filters="sRGB">
<feFlood flood-opacity="0" result="BackgroundImageFix"/>
<feColorMatrix in="SourceAlpha" type="matrix" values="0 0 0 0 0 0 0 0 0 0 0 0 0 0 0 0 0 0 127 0"/>
<feOffset/>
<feGaussianBlur stdDeviation="5"/>
<feColorMatrix type="matrix" values="0 0 0 0 1 0 0 0 0 1 0 0 0 0 1 0 0 0 0.5 0"/>
<feBlend mode="normal" in2="BackgroundImageFix" result="effect1_dropShadow"/>
<feBlend mode="normal" in="SourceGraphic" in2="effect1_dropShadow" result="shape"/>
</filter>
<filter id="filter1_d" x="900" y="695" width="34" height="34" filterUnits="userSpaceOnUse" color-interpolation-filters="sRGB">
<feFlood flood-opacity="0" result="BackgroundImageFix"/>
<feColorMatrix in="SourceAlpha" type="matrix" values="0 0 0 0 0 0 0 0 0 0 0 0 0 0 0 0 0 0 127 0"/>
<feOffset/>
<feGaussianBlur stdDeviation="5"/>
<feColorMatrix type="matrix" values="0 0 0 0 1 0 0 0 0 1 0 0 0 0 1 0 0 0 0.5 0"/>
<feBlend mode="normal" in2="BackgroundImageFix" result="effect1_dropShadow"/>
<feBlend mode="normal" in="SourceGraphic" in2="effect1_dropShadow" result="shape"/>
</filter>
<filter id="filter2_d" x="768" y="783" width="34" height="34" filterUnits="userSpaceOnUse" color-interpolation-filters="sRGB">
<feFlood flood-opacity="0" result="BackgroundImageFix"/>
<feColorMatrix in="SourceAlpha" type="matrix" values="0 0 0 0 0 0 0 0 0 0 0 0 0 0 0 0 0 0 127 0"/>
<feOffset/>
<feGaussianBlur stdDeviation="5"/>
<feColorMatrix type="matrix" values="0 0 0 0 1 0 0 0 0 1 0 0 0 0 1 0 0 0 0.5 0"/>
<feBlend mode="normal" in2="BackgroundImageFix" result="effect1_dropShadow"/>
<feBlend mode="normal" in="SourceGraphic" in2="effect1_dropShadow" result="shape"/>
</filter>
<linearGradient id="paint0_linear" x1="868.758" y1="617.642" x2="872.481" y2="602.175" gradientUnits="userSpaceOnUse">
<stop stop-color="#FFC700"/>
<stop offset="1" stop-color="#FFF5D0"/>
</linearGradient>
<linearGradient id="paint1_linear" x1="912.758" y1="718.642" x2="916.481" y2="703.175" gradientUnits="userSpaceOnUse">
<stop stop-color="#FFC700"/>
<stop offset="1" stop-color="#FFF5D0"/>
</linearGradient>
<linearGradient id="paint2_linear" x1="780.758" y1="806.642" x2="784.481" y2="791.175" gradientUnits="userSpaceOnUse">
<stop stop-color="#FFC700"/>
<stop offset="1" stop-color="#FFF5D0"/>
</linearGradient>
</defs>
</svg>
