<svg width="1484" height="1081" viewBox="0 0 1484 1081" fill="none" xmlns="http://www.w3.org/2000/svg">
<rect width="1484" height="1080" fill="black" fill-opacity="0" transform="translate(0 0.0214844)"/>
<rect width="629" height="996" fill="black" fill-opacity="0" transform="translate(302 41.0215)"/>
<rect width="629" height="996" fill="black" fill-opacity="0" transform="translate(302 41.0215)"/>
<g filter="url(#filter0_d)">
<path d="M423.5 67.0215C521.094 122.597 578.259 131.615 684.5 109.022C750 76.5215 782.107 100.021 787.5 192.021C792.893 284.021 738 364.521 728.5 460.021C719 555.521 789.732 668.469 797 806.021C801.547 892.069 787 1025.02 787 1025.02" stroke="url(#paint0_linear)" stroke-width="5" stroke-linecap="round"/>
</g>
<path fill-rule="evenodd" clip-rule="evenodd" d="M544 41.0215C542.344 41.0215 541 42.3646 541 44.0215V78.0215C541 79.6783 542.344 81.0215 544 81.0215H679.125L685 91.0215L690.871 81.0215H826C827.656 81.0215 829 79.6783 829 78.0215V44.0215C829 42.3646 827.656 41.0215 826 41.0215H544Z" fill="white"/>
<path d="M549.747 67.0215H554.427V65.5815H553.247C553.387 65.3215 553.647 64.9415 553.927 64.5215L555.247 62.5215C555.707 61.8415 555.967 61.2615 555.967 61.2615L558.867 65.5815H557.827V67.0215H563.107V65.5815H561.727L557.647 59.6415L561.467 54.4615H562.827V53.0215H558.147V54.4615H559.427C559.307 54.6815 559.087 55.1015 558.787 55.5215L557.607 57.1815C557.147 57.8615 556.807 58.5015 556.807 58.5015L554.247 54.4615H555.167V53.0215H549.927V54.4615H551.267L555.047 60.0415L551.087 65.5815H549.747V67.0215ZM564.033 72.0415H569.253V70.6215H567.973V66.6815C567.973 66.6815 568.573 67.2215 569.993 67.2215C572.773 67.2215 574.813 65.0815 574.813 61.4815C574.813 59.0015 573.453 56.8215 570.593 56.8215C569.613 56.8215 568.653 57.2415 567.913 57.9015L567.973 57.2815L567.453 56.9215L564.033 57.0215L564.013 58.4215H565.313V70.6215H564.033V72.0415ZM569.453 65.6415C568.373 65.6415 567.973 65.1615 567.973 65.1615V61.3815C567.973 60.1815 567.893 59.3615 567.893 59.3615C568.413 58.9415 569.093 58.6815 569.793 58.6815C571.373 58.6815 572.073 60.0415 572.073 61.9615C572.073 64.4215 571.093 65.6415 569.453 65.6415ZM581.776 67.2215C583.996 67.2215 585.076 66.5215 585.076 66.5215V64.9815C585.076 64.9815 583.976 65.4615 582.776 65.4615C580.256 65.4615 579.316 64.0615 579.196 62.2015H585.596C585.756 58.5415 584.076 56.8215 581.356 56.8215C578.616 56.8215 576.516 58.8815 576.516 62.2015C576.516 65.1215 578.376 67.2215 581.776 67.2215ZM579.256 60.6815C579.376 59.1015 580.136 58.2815 581.176 58.2815C582.076 58.2815 582.776 59.1215 582.776 60.5215L579.256 60.6815ZM592.459 67.2215C595.319 67.2215 597.219 65.2215 597.219 61.8615C597.219 59.1815 595.559 57.3615 592.919 57.3615C590.939 57.3615 589.719 58.3015 589.139 60.1015H589.019C589.259 57.2415 589.859 55.5815 593.059 54.9415C594.539 54.6615 595.659 54.4415 596.619 54.1215L596.079 51.9815C595.059 52.3215 594.019 52.5415 592.459 52.8615C588.819 53.6415 587.619 56.0815 587.619 61.1015C587.619 65.2215 589.439 67.2215 592.459 67.2215ZM592.459 65.9015C591.059 65.9015 590.299 64.1015 590.299 62.0615C590.299 60.2815 591.039 58.8015 592.459 58.8015C593.819 58.8015 594.579 60.2615 594.579 62.6615C594.579 64.5615 593.839 65.9015 592.459 65.9015ZM604.198 67.2215C606.418 67.2215 607.498 66.5215 607.498 66.5215V64.9815C607.498 64.9815 606.398 65.4615 605.198 65.4615C602.678 65.4615 601.738 64.0615 601.618 62.2015H608.018C608.178 58.5415 606.498 56.8215 603.778 56.8215C601.038 56.8215 598.938 58.8815 598.938 62.2015C598.938 65.1215 600.798 67.2215 604.198 67.2215ZM601.678 60.6815C601.798 59.1015 602.558 58.2815 603.598 58.2815C604.498 58.2815 605.198 59.1215 605.198 60.5215L601.678 60.6815ZM611.541 67.0215H616.601V65.5815H615.401V58.4615H617.261L617.501 60.2615H618.781L618.701 57.0215H609.441L609.361 60.2615H610.641L610.881 58.4615H612.701V65.5815H611.541V67.0215ZM627.515 67.0215H633.315V65.5815H631.815V54.4615H634.655L634.775 56.7015H636.035L636.255 53.0215H624.575L624.595 56.7015H625.855L626.175 54.4615H629.015V65.5815H627.515V67.0215ZM641.759 72.1815C642.019 70.6215 642.559 68.8415 643.279 67.0215L646.659 58.4215H647.719V57.0215H643.719V58.4215H644.679L643.199 62.6615C642.919 63.4615 642.639 64.7215 642.639 64.7215H642.559C642.559 64.7215 642.319 63.7215 641.939 62.7215L640.279 58.4215H641.179V57.0215H636.579V58.4215H637.639L641.399 67.3615C640.599 68.6015 639.719 70.3015 639.319 72.0215L641.759 72.1815ZM648.968 67.1415C651.148 67.1415 652.408 64.6415 652.568 58.4615H654.948V65.5815H653.828V67.0215H658.888V65.5815H657.608V58.4615H658.888V57.0215H649.588V58.4615H650.968C650.928 62.1015 650.188 64.9815 648.588 64.9815C648.328 64.9815 648.008 64.9415 648.008 64.9415L648.088 66.9815C648.088 66.9815 648.288 67.1415 648.968 67.1415ZM670.735 67.0215H675.595V65.5815H674.335V58.4615H675.595V57.0215H670.735V58.4615H671.675V65.5815H670.735V67.0215ZM660.835 67.0215H666.015C669.115 67.0215 670.615 65.7815 670.615 63.6815C670.615 61.6215 669.055 60.4815 666.055 60.4815H664.735V58.4615H665.915V57.0215H660.815V58.4615H662.075V65.5815H660.835V67.0215ZM664.735 65.6215V61.8815H665.815C667.175 61.8815 667.815 62.6015 667.815 63.7615C667.815 64.8815 667.175 65.6215 665.795 65.6215H664.735ZM677.355 67.0215H681.455V65.5815H680.015L680.235 60.6415C680.275 59.9015 680.235 59.2215 680.235 59.2215H680.355C680.355 59.2215 680.555 59.9215 680.855 60.5415L683.555 66.4215H684.735L687.535 60.5215C687.875 59.7815 688.055 59.2215 688.055 59.2215H688.155C688.155 59.2215 688.135 59.6215 688.175 60.4415L688.375 65.5815H686.915V67.0215H691.915V65.5815H690.675L690.355 58.4615H691.655V57.0215H687.595L684.635 63.2415L681.935 57.0215H677.675V58.4615H678.935L678.615 65.5815H677.355V67.0215ZM698.489 67.2215C700.349 67.2215 701.349 66.5215 701.349 66.5215V64.9815C701.349 64.9815 700.509 65.4415 699.029 65.4415C697.269 65.4415 696.169 64.0215 696.169 61.7815C696.169 59.8415 696.949 58.5415 698.249 58.5415C699.369 58.5415 699.629 59.0815 700.889 59.3615L701.429 57.1215C700.489 57.0215 699.749 56.8215 698.529 56.8215C695.609 56.8215 693.469 58.7815 693.469 62.2015C693.469 65.3015 695.589 67.2215 698.489 67.2215ZM703.043 67.0215H707.903V65.5815H706.943V62.6215H707.743L710.883 67.0215H713.743V65.5815H712.983L709.723 61.2215L712.483 58.4615H713.443V57.0215H709.343V58.4615H710.363L708.123 61.2415H706.943V58.4615H707.883V57.0215H703.023V58.4615H704.283V65.5815H703.043V67.0215ZM715.269 67.0215H719.089L722.529 61.1215C723.069 60.2015 723.349 59.3815 723.349 59.3815H723.429C723.429 59.3815 723.349 60.2015 723.349 60.8415V65.5815H722.389V67.0215H727.249V65.5815H725.969V58.4615H727.249V57.0215H723.369L719.949 62.8615C719.369 63.9015 719.089 64.7215 719.089 64.7215H719.009C719.009 64.7215 719.109 63.5415 719.109 62.7415V58.4615H720.129V57.0215H715.269V58.4615H716.529V65.5815H715.269V67.0215ZM735.395 55.2015C737.215 55.2015 738.475 54.3415 739.295 53.5815L737.915 51.9015C737.075 52.6015 736.535 53.8415 735.395 53.8415C734.315 53.8415 733.895 52.5215 733.115 51.8215L731.395 53.5815C732.135 54.2215 733.595 55.2015 735.395 55.2015ZM729.175 67.0215H732.995L736.435 61.1215C736.975 60.2015 737.255 59.3815 737.255 59.3815H737.335C737.335 59.3815 737.255 60.2015 737.255 60.8415V65.5815H736.295V67.0215H741.155V65.5815H739.875V58.4615H741.155V57.0215H737.275L733.855 62.8615C733.275 63.9015 732.995 64.7215 732.995 64.7215H732.915C732.915 64.7215 733.015 63.5415 733.015 62.7415V58.4615H734.035V57.0215H729.175V58.4615H730.435V65.5815H729.175V67.0215ZM747.808 67.0215H752.668V65.5815H751.708V62.6215H752.508L755.648 67.0215H758.508V65.5815H757.748L754.488 61.2215L757.248 58.4615H758.208V57.0215H754.108V58.4615H755.128L752.888 61.2415H751.708V58.4615H752.648V57.0215H747.788V58.4615H749.048V65.5815H747.808V67.0215ZM763.754 65.4815C762.834 65.4815 762.334 65.0015 762.334 64.2815C762.334 63.4015 762.954 62.9615 763.754 62.8015C764.714 62.6215 765.234 62.6815 765.234 62.6815V63.3215C765.234 64.4815 765.294 65.0415 765.294 65.0415C765.294 65.0415 764.734 65.4815 763.754 65.4815ZM765.634 66.1215C765.874 66.7415 766.554 67.2215 767.474 67.2215C768.514 67.2215 769.154 66.7815 769.154 66.7815V65.2215C768.334 65.7415 767.914 65.5815 767.914 64.9015L767.894 60.4815C767.894 57.8815 766.614 56.8215 764.074 56.8215C762.194 56.8215 760.634 57.3815 760.634 57.3815V58.9215C760.634 58.9215 761.874 58.6615 762.794 58.6615C764.594 58.6615 765.274 59.1015 765.274 60.7615V61.2815C764.694 61.2815 763.974 61.3015 763.214 61.4015C760.854 61.6815 759.714 62.7815 759.714 64.5615C759.714 66.0215 760.634 67.2615 762.634 67.2615C763.794 67.2615 764.794 66.8215 765.634 66.1215ZM770.616 67.0215H774.716V65.5815H773.276L773.496 60.6415C773.536 59.9015 773.496 59.2215 773.496 59.2215H773.616C773.616 59.2215 773.816 59.9215 774.116 60.5415L776.816 66.4215H777.996L780.796 60.5215C781.136 59.7815 781.316 59.2215 781.316 59.2215H781.416C781.416 59.2215 781.396 59.6215 781.436 60.4415L781.636 65.5815H780.176V67.0215H785.176V65.5815H783.936L783.616 58.4615H784.916V57.0215H780.856L777.896 63.2415L775.196 57.0215H770.936V58.4615H772.196L771.876 65.5815H770.616V67.0215ZM791.991 67.2215C794.211 67.2215 795.291 66.5215 795.291 66.5215V64.9815C795.291 64.9815 794.191 65.4615 792.991 65.4615C790.471 65.4615 789.531 64.0615 789.411 62.2015H795.811C795.971 58.5415 794.291 56.8215 791.571 56.8215C788.831 56.8215 786.731 58.8815 786.731 62.2015C786.731 65.1215 788.591 67.2215 791.991 67.2215ZM789.471 60.6815C789.591 59.1015 790.351 58.2815 791.391 58.2815C792.291 58.2815 792.991 59.1215 792.991 60.5215L789.471 60.6815ZM797.554 67.0215H802.414V65.5815H801.474V62.6615H805.394V65.5815H804.474V67.0215H809.334V65.5815H808.054V58.4615H809.334V57.0215H804.474V58.4615H805.394V61.2015H801.474V58.4615H802.414V57.0215H797.554V58.4615H798.814V65.5815H797.554V67.0215ZM811.265 67.0215H816.445C819.545 67.0215 821.045 65.7815 821.045 63.6815C821.045 61.6215 819.485 60.4815 816.485 60.4815H815.165V58.4615H816.345V57.0215H811.245V58.4615H812.505V65.5815H811.265V67.0215ZM815.165 65.6215V61.8815H816.245C817.605 61.8815 818.245 62.6015 818.245 63.7615C818.245 64.8815 817.605 65.6215 816.225 65.6215H815.165Z" fill="#3D496A"/>
<g filter="url(#filter1_d)">
<circle cx="685" cy="109.021" r="13" fill="white"/>
<circle cx="685" cy="109.021" r="11.5" stroke="url(#paint1_linear)" stroke-width="3" stroke-linecap="round"/>
</g>
<path fill-rule="evenodd" clip-rule="evenodd" d="M429.871 94.0215L424 84.0215L418.125 94.0215H305C303.344 94.0215 302 95.3646 302 97.0215V131.021C302 132.678 303.344 134.021 305 134.021H543C544.656 134.021 546 132.678 546 131.021V97.0215C546 95.3646 544.656 94.0215 543 94.0215H429.871Z" fill="white"/>
<path d="M321.259 120.221C322.799 120.221 323.959 119.261 324.619 117.401C325.579 114.681 325.679 111.421 325.879 107.461H329.459V118.581H328.339V120.021H333.499V118.581H332.219V107.461H333.499V106.021H322.619V107.461H324.139C324.039 111.181 323.679 114.121 323.079 115.941C322.579 117.421 321.699 118.081 320.719 118.081C320.499 118.081 320.239 118.041 320.239 118.041L320.359 120.021C320.359 120.021 320.539 120.221 321.259 120.221ZM345.454 120.021H350.314V118.581H349.054V111.461H350.314V110.021H345.454V111.461H346.394V118.581H345.454V120.021ZM335.554 120.021H340.734C343.834 120.021 345.334 118.781 345.334 116.681C345.334 114.621 343.774 113.481 340.774 113.481H339.454V111.461H340.634V110.021H335.534V111.461H336.794V118.581H335.554V120.021ZM339.454 118.621V114.881H340.534C341.894 114.881 342.534 115.601 342.534 116.761C342.534 117.881 341.894 118.621 340.514 118.621H339.454ZM352.233 120.021H357.093V118.581H356.153V111.461H359.813V118.581H358.893V120.021H363.753V118.581H362.473V111.461H363.753V110.021H352.233V111.461H353.493V118.581H352.233V120.021ZM365.691 120.021H370.871C373.971 120.021 375.471 118.781 375.471 116.681C375.471 114.621 373.911 113.481 370.911 113.481H369.591V111.461H370.771V110.021H365.671V111.461H366.931V118.581H365.691V120.021ZM369.591 118.621V114.881H370.671C372.031 114.881 372.671 115.601 372.671 116.761C372.671 117.881 372.031 118.621 370.651 118.621H369.591ZM377.019 120.021H380.839L384.279 114.121C384.819 113.201 385.099 112.381 385.099 112.381H385.179C385.179 112.381 385.099 113.201 385.099 113.841V118.581H384.139V120.021H388.999V118.581H387.719V111.461H388.999V110.021H385.119L381.699 115.861C381.119 116.901 380.839 117.721 380.839 117.721H380.759C380.759 117.721 380.859 116.541 380.859 115.741V111.461H381.879V110.021H377.019V111.461H378.279V118.581H377.019V120.021ZM390.925 120.021H395.785V118.581H394.845V115.661H398.765V118.581H397.845V120.021H402.705V118.581H401.425V111.461H402.705V110.021H397.845V111.461H398.765V114.201H394.845V111.461H395.785V110.021H390.925V111.461H392.185V118.581H390.925V120.021ZM409.419 120.221C411.279 120.221 412.279 119.521 412.279 119.521V117.981C412.279 117.981 411.439 118.441 409.959 118.441C408.199 118.441 407.099 117.021 407.099 114.781C407.099 112.841 407.879 111.541 409.179 111.541C410.299 111.541 410.559 112.081 411.819 112.361L412.359 110.121C411.419 110.021 410.679 109.821 409.459 109.821C406.539 109.821 404.399 111.781 404.399 115.201C404.399 118.301 406.519 120.221 409.419 120.221ZM413.972 120.021H418.832V118.581H417.872V115.621H418.672L421.812 120.021H424.672V118.581H423.912L420.652 114.221L423.412 111.461H424.372V110.021H420.272V111.461H421.292L419.052 114.241H417.872V111.461H418.812V110.021H413.952V111.461H415.212V118.581H413.972V120.021ZM426.198 120.021H430.018L433.458 114.121C433.998 113.201 434.278 112.381 434.278 112.381H434.358C434.358 112.381 434.278 113.201 434.278 113.841V118.581H433.318V120.021H438.178V118.581H436.898V111.461H438.178V110.021H434.298L430.878 115.861C430.298 116.901 430.018 117.721 430.018 117.721H429.938C429.938 117.721 430.038 116.541 430.038 115.741V111.461H431.058V110.021H426.198V111.461H427.458V118.581H426.198V120.021ZM445.147 120.221C447.367 120.221 448.447 119.521 448.447 119.521V117.981C448.447 117.981 447.347 118.461 446.147 118.461C443.627 118.461 442.687 117.061 442.567 115.201H448.967C449.127 111.541 447.447 109.821 444.727 109.821C441.987 109.821 439.887 111.881 439.887 115.201C439.887 118.121 441.747 120.221 445.147 120.221ZM442.627 113.681C442.747 112.101 443.507 111.281 444.547 111.281C445.447 111.281 446.147 112.121 446.147 113.521L442.627 113.681ZM455.417 120.021H460.277V118.581H459.337V111.461H462.997V118.581H462.077V120.021H466.937V118.581H465.657V111.461H466.937V110.021H455.417V111.461H456.677V118.581H455.417V120.021ZM473.897 120.221C476.117 120.221 477.197 119.521 477.197 119.521V117.981C477.197 117.981 476.097 118.461 474.897 118.461C472.377 118.461 471.437 117.061 471.317 115.201H477.717C477.877 111.541 476.197 109.821 473.477 109.821C470.737 109.821 468.637 111.881 468.637 115.201C468.637 118.121 470.497 120.221 473.897 120.221ZM471.377 113.681C471.497 112.101 472.257 111.281 473.297 111.281C474.197 111.281 474.897 112.121 474.897 113.521L471.377 113.681ZM494.82 123.361H496.44L496.48 118.581H494.86V111.461H496.16V110.021H491.3V111.461H492.2V118.581H489.06V111.461H489.94V110.021H485.64V111.461H486.56V118.581H483.38V111.461H484.32V110.021H479.46V111.461H480.72V118.581H479.46V120.021H494.62L494.82 123.361ZM503.194 120.221C505.414 120.221 506.494 119.521 506.494 119.521V117.981C506.494 117.981 505.394 118.461 504.194 118.461C501.674 118.461 500.734 117.061 500.614 115.201H507.014C507.174 111.541 505.494 109.821 502.774 109.821C500.034 109.821 497.934 111.881 497.934 115.201C497.934 118.121 499.794 120.221 503.194 120.221ZM500.674 113.681C500.794 112.101 501.554 111.281 502.594 111.281C503.494 111.281 504.194 112.121 504.194 113.521L500.674 113.681ZM508.537 125.041H513.757V123.621H512.477V119.681C512.477 119.681 513.077 120.221 514.497 120.221C517.277 120.221 519.317 118.081 519.317 114.481C519.317 112.001 517.957 109.821 515.097 109.821C514.117 109.821 513.157 110.241 512.417 110.901L512.477 110.281L511.957 109.921L508.537 110.021L508.517 111.421H509.817V123.621H508.537V125.041ZM513.957 118.641C512.877 118.641 512.477 118.161 512.477 118.161V114.381C512.477 113.181 512.397 112.361 512.397 112.361C512.917 111.941 513.597 111.681 514.297 111.681C515.877 111.681 516.577 113.041 516.577 114.961C516.577 117.421 515.597 118.641 513.957 118.641ZM530.962 120.021H535.822V118.581H534.562V111.461H535.822V110.021H530.962V111.461H531.902V118.581H530.962V120.021ZM521.062 120.021H526.242C529.342 120.021 530.842 118.781 530.842 116.681C530.842 114.621 529.282 113.481 526.282 113.481H524.962V111.461H526.142V110.021H521.042V111.461H522.302V118.581H521.062V120.021ZM524.962 118.621V114.881H526.042C527.402 114.881 528.042 115.601 528.042 116.761C528.042 117.881 527.402 118.621 526.022 118.621H524.962Z" fill="#3D496A"/>
<g filter="url(#filter2_d)">
<circle cx="424" cy="68.0215" r="13" fill="white"/>
<circle cx="424" cy="68.0215" r="11.5" stroke="url(#paint2_linear)" stroke-width="3" stroke-linecap="round"/>
</g>
<path fill-rule="evenodd" clip-rule="evenodd" d="M646 956.021C644.344 956.021 643 957.365 643 959.021V993.021C643 994.678 644.344 996.021 646 996.021H781.125L787 1006.02L792.871 996.021H928C929.656 996.021 931 994.678 931 993.021V959.021C931 957.365 929.656 956.021 928 956.021H646Z" fill="white"/>
<path d="M649.802 982.021H654.482V980.581H653.302C653.442 980.321 653.702 979.941 653.982 979.521L655.302 977.521C655.762 976.841 656.022 976.261 656.022 976.261L658.922 980.581H657.882V982.021H663.162V980.581H661.782L657.702 974.641L661.522 969.461H662.882V968.021H658.202V969.461H659.482C659.362 969.681 659.142 970.101 658.842 970.521L657.662 972.181C657.202 972.861 656.862 973.501 656.862 973.501L654.302 969.461H655.222V968.021H649.982V969.461H651.322L655.102 975.041L651.142 980.581H649.802V982.021ZM664.088 987.041H669.308V985.621H668.028V981.681C668.028 981.681 668.628 982.221 670.048 982.221C672.828 982.221 674.868 980.081 674.868 976.481C674.868 974.001 673.508 971.821 670.648 971.821C669.668 971.821 668.708 972.241 667.968 972.901L668.028 972.281L667.508 971.921L664.088 972.021L664.068 973.421H665.368V985.621H664.088V987.041ZM669.508 980.641C668.428 980.641 668.028 980.161 668.028 980.161V976.381C668.028 975.181 667.948 974.361 667.948 974.361C668.468 973.941 669.148 973.681 669.848 973.681C671.428 973.681 672.128 975.041 672.128 976.961C672.128 979.421 671.148 980.641 669.508 980.641ZM681.83 982.221C684.05 982.221 685.13 981.521 685.13 981.521V979.981C685.13 979.981 684.03 980.461 682.83 980.461C680.31 980.461 679.37 979.061 679.25 977.201H685.65C685.81 973.541 684.13 971.821 681.41 971.821C678.67 971.821 676.57 973.881 676.57 977.201C676.57 980.121 678.43 982.221 681.83 982.221ZM679.31 975.681C679.43 974.101 680.19 973.281 681.23 973.281C682.13 973.281 682.83 974.121 682.83 975.521L679.31 975.681ZM692.514 982.221C695.374 982.221 697.274 980.221 697.274 976.861C697.274 974.181 695.614 972.361 692.974 972.361C690.994 972.361 689.774 973.301 689.194 975.101H689.074C689.314 972.241 689.914 970.581 693.114 969.941C694.594 969.661 695.714 969.441 696.674 969.121L696.134 966.981C695.114 967.321 694.074 967.541 692.514 967.861C688.874 968.641 687.674 971.081 687.674 976.101C687.674 980.221 689.494 982.221 692.514 982.221ZM692.514 980.901C691.114 980.901 690.354 979.101 690.354 977.061C690.354 975.281 691.094 973.801 692.514 973.801C693.874 973.801 694.634 975.261 694.634 977.661C694.634 979.561 693.894 980.901 692.514 980.901ZM704.252 982.221C706.472 982.221 707.552 981.521 707.552 981.521V979.981C707.552 979.981 706.452 980.461 705.252 980.461C702.732 980.461 701.792 979.061 701.672 977.201H708.072C708.232 973.541 706.552 971.821 703.832 971.821C701.092 971.821 698.992 973.881 698.992 977.201C698.992 980.121 700.852 982.221 704.252 982.221ZM701.732 975.681C701.852 974.101 702.612 973.281 703.652 973.281C704.552 973.281 705.252 974.121 705.252 975.521L701.732 975.681ZM711.595 982.021H716.655V980.581H715.455V973.461H717.315L717.555 975.261H718.835L718.755 972.021H709.495L709.415 975.261H710.695L710.935 973.461H712.755V980.581H711.595V982.021ZM732.049 982.021H737.609V980.581H736.329V969.481H737.609V968.021H732.449V969.481H733.569V975.001C733.569 975.001 732.869 975.281 731.529 975.281C729.129 975.281 728.389 973.981 728.389 971.701V969.481H729.509V968.021H724.349V969.481H725.629V971.901C725.629 974.621 727.089 976.901 730.849 976.901C732.549 976.901 733.569 976.521 733.569 976.521V980.581H732.049V982.021ZM743.806 987.181C744.066 985.621 744.606 983.841 745.326 982.021L748.706 973.421H749.766V972.021H745.766V973.421H746.726L745.246 977.661C744.966 978.461 744.686 979.721 744.686 979.721H744.606C744.606 979.721 744.366 978.721 743.986 977.721L742.326 973.421H743.226V972.021H738.626V973.421H739.686L743.446 982.361C742.646 983.601 741.766 985.301 741.366 987.021L743.806 987.181ZM750.929 982.021H756.569C758.889 982.021 760.529 981.101 760.529 979.141C760.529 977.741 759.569 976.941 757.949 976.781V976.701C759.249 976.501 759.989 975.641 759.989 974.481C759.989 972.981 758.769 972.021 756.509 972.021H750.929V973.461H752.189V980.581H750.929V982.021ZM754.829 980.621V977.541H756.029C757.289 977.541 757.849 978.081 757.849 979.081C757.849 980.141 757.149 980.621 755.969 980.621H754.829ZM754.829 976.181V973.421H755.669C756.749 973.421 757.329 973.861 757.329 974.841C757.329 975.481 756.989 975.981 756.509 976.181H754.829ZM765.996 980.481C765.076 980.481 764.576 980.001 764.576 979.281C764.576 978.401 765.196 977.961 765.996 977.801C766.956 977.621 767.476 977.681 767.476 977.681V978.321C767.476 979.481 767.536 980.041 767.536 980.041C767.536 980.041 766.976 980.481 765.996 980.481ZM767.876 981.121C768.116 981.741 768.796 982.221 769.716 982.221C770.756 982.221 771.396 981.781 771.396 981.781V980.221C770.576 980.741 770.156 980.581 770.156 979.901L770.136 975.481C770.136 972.881 768.856 971.821 766.316 971.821C764.436 971.821 762.876 972.381 762.876 972.381V973.921C762.876 973.921 764.116 973.661 765.036 973.661C766.836 973.661 767.516 974.101 767.516 975.761V976.281C766.936 976.281 766.216 976.301 765.456 976.401C763.096 976.681 761.956 977.781 761.956 979.561C761.956 981.021 762.876 982.261 764.876 982.261C766.036 982.261 767.036 981.821 767.876 981.121ZM773.339 982.141C775.519 982.141 776.779 979.641 776.939 973.461H779.319V980.581H778.199V982.021H783.259V980.581H781.979V973.461H783.259V972.021H773.959V973.461H775.339C775.299 977.101 774.559 979.981 772.959 979.981C772.699 979.981 772.379 979.941 772.379 979.941L772.459 981.981C772.459 981.981 772.659 982.141 773.339 982.141ZM785.207 982.021H790.387C793.487 982.021 794.987 980.781 794.987 978.681C794.987 976.621 793.427 975.481 790.427 975.481H789.107V973.461H790.287V972.021H785.187V973.461H786.447V980.581H785.207V982.021ZM789.107 980.621V976.881H790.187C791.547 976.881 792.187 977.601 792.187 978.761C792.187 979.881 791.547 980.621 790.167 980.621H789.107ZM801.434 982.221C803.294 982.221 804.294 981.521 804.294 981.521V979.981C804.294 979.981 803.454 980.441 801.974 980.441C800.214 980.441 799.114 979.021 799.114 976.781C799.114 974.841 799.894 973.541 801.194 973.541C802.314 973.541 802.574 974.081 803.834 974.361L804.374 972.121C803.434 972.021 802.694 971.821 801.474 971.821C798.554 971.821 796.414 973.781 796.414 977.201C796.414 980.301 798.534 982.221 801.434 982.221ZM805.988 982.021H810.848V980.581H809.888V977.621H810.688L813.828 982.021H816.688V980.581H815.928L812.668 976.221L815.428 973.461H816.388V972.021H812.288V973.461H813.308L811.068 976.241H809.888V973.461H810.828V972.021H805.968V973.461H807.228V980.581H805.988V982.021ZM818.214 982.021H822.034L825.474 976.121C826.014 975.201 826.294 974.381 826.294 974.381H826.374C826.374 974.381 826.294 975.201 826.294 975.841V980.581H825.334V982.021H830.194V980.581H828.914V973.461H830.194V972.021H826.314L822.894 977.861C822.314 978.901 822.034 979.721 822.034 979.721H821.954C821.954 979.721 822.054 978.541 822.054 977.741V973.461H823.074V972.021H818.214V973.461H819.474V980.581H818.214V982.021ZM838.34 970.201C840.16 970.201 841.42 969.341 842.24 968.581L840.86 966.901C840.02 967.601 839.48 968.841 838.34 968.841C837.26 968.841 836.84 967.521 836.06 966.821L834.34 968.581C835.08 969.221 836.54 970.201 838.34 970.201ZM832.12 982.021H835.94L839.38 976.121C839.92 975.201 840.2 974.381 840.2 974.381H840.28C840.28 974.381 840.2 975.201 840.2 975.841V980.581H839.24V982.021H844.1V980.581H842.82V973.461H844.1V972.021H840.22L836.8 977.861C836.22 978.901 835.94 979.721 835.94 979.721H835.86C835.86 979.721 835.96 978.541 835.96 977.741V973.461H836.98V972.021H832.12V973.461H833.38V980.581H832.12V982.021ZM850.753 982.021H855.613V980.581H854.653V977.621H855.453L858.593 982.021H861.453V980.581H860.693L857.433 976.221L860.193 973.461H861.153V972.021H857.053V973.461H858.073L855.833 976.241H854.653V973.461H855.593V972.021H850.733V973.461H851.993V980.581H850.753V982.021ZM866.7 980.481C865.78 980.481 865.28 980.001 865.28 979.281C865.28 978.401 865.9 977.961 866.7 977.801C867.66 977.621 868.18 977.681 868.18 977.681V978.321C868.18 979.481 868.24 980.041 868.24 980.041C868.24 980.041 867.68 980.481 866.7 980.481ZM868.58 981.121C868.82 981.741 869.5 982.221 870.42 982.221C871.46 982.221 872.1 981.781 872.1 981.781V980.221C871.28 980.741 870.86 980.581 870.86 979.901L870.84 975.481C870.84 972.881 869.56 971.821 867.02 971.821C865.14 971.821 863.58 972.381 863.58 972.381V973.921C863.58 973.921 864.82 973.661 865.74 973.661C867.54 973.661 868.22 974.101 868.22 975.761V976.281C867.64 976.281 866.92 976.301 866.16 976.401C863.8 976.681 862.66 977.781 862.66 979.561C862.66 981.021 863.58 982.261 865.58 982.261C866.74 982.261 867.74 981.821 868.58 981.121ZM873.562 982.021H877.662V980.581H876.222L876.442 975.641C876.482 974.901 876.442 974.221 876.442 974.221H876.562C876.562 974.221 876.762 974.921 877.062 975.541L879.762 981.421H880.942L883.742 975.521C884.082 974.781 884.262 974.221 884.262 974.221H884.362C884.362 974.221 884.342 974.621 884.382 975.441L884.582 980.581H883.122V982.021H888.122V980.581H886.882L886.562 973.461H887.862V972.021H883.802L880.842 978.241L878.142 972.021H873.882V973.461H875.142L874.822 980.581H873.562V982.021ZM894.936 982.221C897.156 982.221 898.236 981.521 898.236 981.521V979.981C898.236 979.981 897.136 980.461 895.936 980.461C893.416 980.461 892.476 979.061 892.356 977.201H898.756C898.916 973.541 897.236 971.821 894.516 971.821C891.776 971.821 889.676 973.881 889.676 977.201C889.676 980.121 891.536 982.221 894.936 982.221ZM892.416 975.681C892.536 974.101 893.296 973.281 894.336 973.281C895.236 973.281 895.936 974.121 895.936 975.521L892.416 975.681ZM900.499 982.021H905.359V980.581H904.419V977.661H908.339V980.581H907.419V982.021H912.279V980.581H910.999V973.461H912.279V972.021H907.419V973.461H908.339V976.201H904.419V973.461H905.359V972.021H900.499V973.461H901.759V980.581H900.499V982.021ZM914.21 982.021H919.39C922.49 982.021 923.99 980.781 923.99 978.681C923.99 976.621 922.43 975.481 919.43 975.481H918.11V973.461H919.29V972.021H914.19V973.461H915.45V980.581H914.21V982.021ZM918.11 980.621V976.881H919.19C920.55 976.881 921.19 977.601 921.19 978.761C921.19 979.881 920.55 980.621 919.17 980.621H918.11Z" fill="#3D496A"/>
<g filter="url(#filter3_d)">
<circle cx="787" cy="1024.02" r="13" fill="white"/>
<circle cx="787" cy="1024.02" r="11.5" stroke="url(#paint3_linear)" stroke-width="3" stroke-linecap="round"/>
</g>
<path fill-rule="evenodd" clip-rule="evenodd" d="M838 450.021C836.344 450.021 835 451.365 835 453.021V503.021C835 504.678 836.344 506.021 838 506.021H966.125L972 516.021L977.871 506.021H1106C1107.66 506.021 1109 504.678 1109 503.021V453.021C1109 451.365 1107.66 450.021 1106 450.021H838Z" fill="white"/>
<path d="M847.055 471.021H852.215V469.581H851.095V458.481H857.015V469.581H855.895V471.021H861.055V469.581H859.775V458.481H861.055V457.021H847.055V458.481H848.335V469.581H847.055V471.021ZM862.668 476.041H867.888V474.621H866.608V470.681C866.608 470.681 867.208 471.221 868.628 471.221C871.408 471.221 873.448 469.081 873.448 465.481C873.448 463.001 872.088 460.821 869.228 460.821C868.248 460.821 867.288 461.241 866.548 461.901L866.608 461.281L866.088 460.921L862.668 461.021L862.648 462.421H863.948V474.621H862.668V476.041ZM868.088 469.641C867.008 469.641 866.608 469.161 866.608 469.161V465.381C866.608 464.181 866.528 463.361 866.528 463.361C867.048 462.941 867.728 462.681 868.428 462.681C870.008 462.681 870.708 464.041 870.708 465.961C870.708 468.421 869.728 469.641 868.088 469.641ZM875.173 471.021H878.993L882.433 465.121C882.973 464.201 883.253 463.381 883.253 463.381H883.333C883.333 463.381 883.253 464.201 883.253 464.841V469.581H882.293V471.021H887.153V469.581H885.873V462.461H887.153V461.021H883.273L879.853 466.861C879.273 467.901 878.993 468.721 878.993 468.721H878.913C878.913 468.721 879.013 467.541 879.013 466.741V462.461H880.033V461.021H875.173V462.461H876.433V469.581H875.173V471.021ZM888.859 476.041H894.079V474.621H892.799V470.681C892.799 470.681 893.399 471.221 894.819 471.221C897.599 471.221 899.639 469.081 899.639 465.481C899.639 463.001 898.279 460.821 895.419 460.821C894.439 460.821 893.479 461.241 892.739 461.901L892.799 461.281L892.279 460.921L888.859 461.021L888.839 462.421H890.139V474.621H888.859V476.041ZM894.279 469.641C893.199 469.641 892.799 469.161 892.799 469.161V465.381C892.799 464.181 892.719 463.361 892.719 463.361C893.239 462.941 893.919 462.681 894.619 462.681C896.199 462.681 896.899 464.041 896.899 465.961C896.899 468.421 895.919 469.641 894.279 469.641ZM906.182 469.761C904.742 469.761 904.062 468.301 904.062 466.001C904.062 463.821 904.462 462.261 906.222 462.261C907.662 462.261 908.342 463.741 908.342 466.041C908.342 468.221 907.942 469.761 906.182 469.761ZM905.942 471.221C909.262 471.221 911.042 468.881 911.042 465.801C911.042 462.841 909.262 460.821 906.462 460.821C903.142 460.821 901.362 463.161 901.362 466.241C901.362 469.201 903.142 471.221 905.942 471.221ZM911.993 474.361H913.493L913.893 471.021H921.293L921.693 474.361H923.213L923.293 469.581H921.733L921.713 462.461H923.033V461.021H913.493V462.461H914.933C914.893 465.961 914.433 468.181 912.833 469.581H911.953L911.993 474.361ZM914.833 469.581C916.033 468.381 916.473 466.121 916.573 462.461H919.093V469.581H914.833ZM924.978 471.021H929.838V469.581H928.898V466.661H932.818V469.581H931.898V471.021H936.758V469.581H935.478V462.461H936.758V461.021H931.898V462.461H932.818V465.201H928.898V462.461H929.838V461.021H924.978V462.461H926.238V469.581H924.978V471.021ZM948.589 471.021H953.449V469.581H952.189V462.461H953.449V461.021H948.589V462.461H949.529V469.581H948.589V471.021ZM938.689 471.021H943.869C946.969 471.021 948.469 469.781 948.469 467.681C948.469 465.621 946.909 464.481 943.909 464.481H942.589V462.461H943.769V461.021H938.669V462.461H939.929V469.581H938.689V471.021ZM942.589 469.621V465.881H943.669C945.029 465.881 945.669 466.601 945.669 467.761C945.669 468.881 945.029 469.621 943.649 469.621H942.589ZM961.588 459.201C963.408 459.201 964.668 458.341 965.488 457.581L964.108 455.901C963.268 456.601 962.728 457.841 961.588 457.841C960.508 457.841 960.088 456.521 959.308 455.821L957.588 457.581C958.328 458.221 959.788 459.201 961.588 459.201ZM955.368 471.021H959.188L962.628 465.121C963.168 464.201 963.448 463.381 963.448 463.381H963.528C963.528 463.381 963.448 464.201 963.448 464.841V469.581H962.488V471.021H967.348V469.581H966.068V462.461H967.348V461.021H963.468L960.048 466.861C959.468 467.901 959.188 468.721 959.188 468.721H959.108C959.108 468.721 959.208 467.541 959.208 466.741V462.461H960.228V461.021H955.368V462.461H956.628V469.581H955.368V471.021ZM976.941 471.221C979.241 471.221 980.941 469.941 980.941 468.061C980.941 466.701 979.801 465.961 978.421 465.841V465.761C979.861 465.481 980.601 464.661 980.601 463.461C980.601 461.781 979.061 460.821 976.841 460.821C975.441 460.821 974.621 461.041 973.581 461.181L973.981 463.321C975.221 462.941 975.801 462.401 976.761 462.401C977.601 462.401 977.961 462.901 977.961 463.641C977.961 464.661 977.281 465.141 976.141 465.141H975.341V466.581H976.181C977.481 466.581 978.261 466.981 978.261 467.881C978.261 469.081 977.381 469.581 976.061 469.581C974.701 469.581 973.641 469.001 973.641 469.001V470.501C973.641 470.501 974.661 471.221 976.941 471.221ZM986.412 469.481C985.492 469.481 984.992 469.001 984.992 468.281C984.992 467.401 985.612 466.961 986.412 466.801C987.372 466.621 987.892 466.681 987.892 466.681V467.321C987.892 468.481 987.952 469.041 987.952 469.041C987.952 469.041 987.392 469.481 986.412 469.481ZM988.292 470.121C988.532 470.741 989.212 471.221 990.132 471.221C991.172 471.221 991.812 470.781 991.812 470.781V469.221C990.992 469.741 990.572 469.581 990.572 468.901L990.552 464.481C990.552 461.881 989.272 460.821 986.732 460.821C984.852 460.821 983.292 461.381 983.292 461.381V462.921C983.292 462.921 984.532 462.661 985.452 462.661C987.252 462.661 987.932 463.101 987.932 464.761V465.281C987.352 465.281 986.632 465.301 985.872 465.401C983.512 465.681 982.372 466.781 982.372 468.561C982.372 470.021 983.292 471.261 985.292 471.261C986.452 471.261 987.452 470.821 988.292 470.121ZM993.435 471.021H998.295V469.581H997.355V462.461H1001.01V469.581H1000.09V471.021H1004.95V469.581H1003.67V462.461H1004.95V461.021H993.435V462.461H994.695V469.581H993.435V471.021ZM1011.49 469.761C1010.05 469.761 1009.37 468.301 1009.37 466.001C1009.37 463.821 1009.77 462.261 1011.53 462.261C1012.97 462.261 1013.65 463.741 1013.65 466.041C1013.65 468.221 1013.25 469.761 1011.49 469.761ZM1011.25 471.221C1014.57 471.221 1016.35 468.881 1016.35 465.801C1016.35 462.841 1014.57 460.821 1011.77 460.821C1008.45 460.821 1006.67 463.161 1006.67 466.241C1006.67 469.201 1008.45 471.221 1011.25 471.221ZM1018.06 471.021H1023.7C1026.02 471.021 1027.66 470.101 1027.66 468.141C1027.66 466.741 1026.7 465.941 1025.08 465.781V465.701C1026.38 465.501 1027.12 464.641 1027.12 463.481C1027.12 461.981 1025.9 461.021 1023.64 461.021H1018.06V462.461H1019.32V469.581H1018.06V471.021ZM1021.96 469.621V466.541H1023.16C1024.42 466.541 1024.98 467.081 1024.98 468.081C1024.98 469.141 1024.28 469.621 1023.1 469.621H1021.96ZM1021.96 465.181V462.421H1022.8C1023.88 462.421 1024.46 462.861 1024.46 463.841C1024.46 464.481 1024.12 464.981 1023.64 465.181H1021.96ZM1034.55 471.221C1036.77 471.221 1037.85 470.521 1037.85 470.521V468.981C1037.85 468.981 1036.75 469.461 1035.55 469.461C1033.03 469.461 1032.09 468.061 1031.97 466.201H1038.37C1038.53 462.541 1036.85 460.821 1034.13 460.821C1031.39 460.821 1029.29 462.881 1029.29 466.201C1029.29 469.121 1031.15 471.221 1034.55 471.221ZM1032.03 464.681C1032.15 463.101 1032.91 462.281 1033.95 462.281C1034.85 462.281 1035.55 463.121 1035.55 464.521L1032.03 464.681ZM1039.34 474.361H1040.84L1041.24 471.021H1048.64L1049.04 474.361H1050.56L1050.64 469.581H1049.08L1049.06 462.461H1050.38V461.021H1040.84V462.461H1042.28C1042.24 465.961 1041.78 468.181 1040.18 469.581H1039.3L1039.34 474.361ZM1042.18 469.581C1043.38 468.381 1043.82 466.121 1043.92 462.461H1046.44V469.581H1042.18ZM1052.32 471.021H1057.18V469.581H1056.24V466.661H1060.16V469.581H1059.24V471.021H1064.1V469.581H1062.82V462.461H1064.1V461.021H1059.24V462.461H1060.16V465.201H1056.24V462.461H1057.18V461.021H1052.32V462.461H1053.58V469.581H1052.32V471.021ZM1066.01 471.021H1069.83L1073.27 465.121C1073.81 464.201 1074.09 463.381 1074.09 463.381H1074.17C1074.17 463.381 1074.09 464.201 1074.09 464.841V469.581H1073.13V471.021H1077.99V469.581H1076.71V462.461H1077.99V461.021H1074.11L1070.69 466.861C1070.11 467.901 1069.83 468.721 1069.83 468.721H1069.75C1069.75 468.721 1069.85 467.541 1069.85 466.741V462.461H1070.87V461.021H1066.01V462.461H1067.27V469.581H1066.01V471.021ZM1079.94 471.021H1084.8V469.581H1083.84V466.621H1084.64L1087.78 471.021H1090.64V469.581H1089.88L1086.62 465.221L1089.38 462.461H1090.34V461.021H1086.24V462.461H1087.26L1085.02 465.241H1083.84V462.461H1084.78V461.021H1079.92V462.461H1081.18V469.581H1079.94V471.021ZM903.79 481.021C902.33 482.141 901.47 484.161 901.47 485.721C901.47 486.921 902.05 487.341 902.89 487.341C903.97 487.341 904.43 486.621 904.43 485.881C904.43 485.081 903.89 484.461 903.21 484.421C903.57 483.401 904.17 482.501 904.83 481.821L903.79 481.021ZM907.87 481.021C906.41 482.141 905.55 484.161 905.55 485.721C905.55 486.921 906.13 487.341 906.97 487.341C908.05 487.341 908.51 486.621 908.51 485.881C908.51 485.081 907.97 484.461 907.29 484.421C907.65 483.401 908.25 482.501 908.91 481.821L907.87 481.021ZM910.756 496.021H916.396C919.656 496.021 921.776 494.581 921.776 492.041C921.776 490.181 920.636 489.041 918.976 488.661V488.601C920.376 487.981 921.196 486.941 921.196 485.441C921.196 483.241 919.616 482.021 915.916 482.021H910.756V483.461H912.036V494.581H910.756V496.021ZM914.796 494.621V489.481H916.396C918.096 489.481 918.976 490.301 918.976 492.041C918.976 493.501 918.096 494.621 916.396 494.621H914.796ZM914.796 488.121V483.421H915.916C917.736 483.421 918.596 484.261 918.596 485.721C918.596 487.141 917.636 488.121 917.636 488.121H914.796ZM923.542 496.021H927.362L930.802 490.121C931.342 489.201 931.622 488.381 931.622 488.381H931.702C931.702 488.381 931.622 489.201 931.622 489.841V494.581H930.662V496.021H935.522V494.581H934.242V487.461H935.522V486.021H931.642L928.222 491.861C927.642 492.901 927.362 493.721 927.362 493.721H927.282C927.282 493.721 927.382 492.541 927.382 491.741V487.461H928.402V486.021H923.542V487.461H924.802V494.581H923.542V496.021ZM937.448 496.021H954.148V494.581H952.848V487.461H954.148V486.021H949.288V487.461H950.188V494.581H947.048V487.461H947.928V486.021H943.628V487.461H944.548V494.581H941.368V487.461H942.308V486.021H937.448V487.461H938.708V494.581H937.448V496.021ZM961.084 496.221C963.304 496.221 964.384 495.521 964.384 495.521V493.981C964.384 493.981 963.284 494.461 962.084 494.461C959.564 494.461 958.624 493.061 958.504 491.201H964.904C965.064 487.541 963.384 485.821 960.664 485.821C957.924 485.821 955.824 487.881 955.824 491.201C955.824 494.121 957.684 496.221 961.084 496.221ZM958.564 489.681C958.684 488.101 959.444 487.281 960.484 487.281C961.384 487.281 962.084 488.121 962.084 489.521L958.564 489.681ZM966.428 501.041H971.648V499.621H970.368V495.681C970.368 495.681 970.967 496.221 972.388 496.221C975.168 496.221 977.208 494.081 977.208 490.481C977.208 488.001 975.848 485.821 972.988 485.821C972.008 485.821 971.048 486.241 970.308 486.901L970.368 486.281L969.848 485.921L966.428 486.021L966.408 487.421H967.708V499.621H966.428V501.041ZM971.848 494.641C970.768 494.641 970.368 494.161 970.368 494.161V490.381C970.368 489.181 970.288 488.361 970.288 488.361C970.808 487.941 971.488 487.681 972.188 487.681C973.768 487.681 974.468 489.041 974.468 490.961C974.468 493.421 973.488 494.641 971.848 494.641ZM983.93 496.221C985.79 496.221 986.79 495.521 986.79 495.521V493.981C986.79 493.981 985.95 494.441 984.47 494.441C982.71 494.441 981.61 493.021 981.61 490.781C981.61 488.841 982.39 487.541 983.69 487.541C984.81 487.541 985.07 488.081 986.33 488.361L986.87 486.121C985.93 486.021 985.19 485.821 983.97 485.821C981.05 485.821 978.91 487.781 978.91 491.201C978.91 494.301 981.03 496.221 983.93 496.221ZM988.484 496.021H993.344V494.581H992.384V491.621H993.184L996.324 496.021H999.184V494.581H998.424L995.164 490.221L997.924 487.461H998.884V486.021H994.784V487.461H995.804L993.564 490.241H992.384V487.461H993.324V486.021H988.464V487.461H989.724V494.581H988.484V496.021ZM1000.71 496.021H1004.53L1007.97 490.121C1008.51 489.201 1008.79 488.381 1008.79 488.381H1008.87C1008.87 488.381 1008.79 489.201 1008.79 489.841V494.581H1007.83V496.021H1012.69V494.581H1011.41V487.461H1012.69V486.021H1008.81L1005.39 491.861C1004.81 492.901 1004.53 493.721 1004.53 493.721H1004.45C1004.45 493.721 1004.55 492.541 1004.55 491.741V487.461H1005.57V486.021H1000.71V487.461H1001.97V494.581H1000.71V496.021ZM1020.84 484.201C1022.66 484.201 1023.92 483.341 1024.74 482.581L1023.36 480.901C1022.52 481.601 1021.98 482.841 1020.84 482.841C1019.76 482.841 1019.34 481.521 1018.56 480.821L1016.84 482.581C1017.58 483.221 1019.04 484.201 1020.84 484.201ZM1014.62 496.021H1018.44L1021.88 490.121C1022.42 489.201 1022.7 488.381 1022.7 488.381H1022.78C1022.78 488.381 1022.7 489.201 1022.7 489.841V494.581H1021.74V496.021H1026.6V494.581H1025.32V487.461H1026.6V486.021H1022.72L1019.3 491.861C1018.72 492.901 1018.44 493.721 1018.44 493.721H1018.36C1018.36 493.721 1018.46 492.541 1018.46 491.741V487.461H1019.48V486.021H1014.62V487.461H1015.88V494.581H1014.62V496.021ZM1033.4 487.321C1034.86 486.201 1035.72 484.181 1035.72 482.621C1035.72 481.421 1035.14 481.001 1034.3 481.001C1033.22 481.001 1032.76 481.721 1032.76 482.461C1032.76 483.261 1033.3 483.881 1033.98 483.921C1033.62 484.941 1033.02 485.841 1032.36 486.521L1033.4 487.321ZM1029.32 487.321C1030.78 486.201 1031.64 484.181 1031.64 482.621C1031.64 481.421 1031.06 481.001 1030.22 481.001C1029.14 481.001 1028.68 481.721 1028.68 482.461C1028.68 483.261 1029.22 483.881 1029.9 483.921C1029.54 484.941 1028.94 485.841 1028.28 486.521L1029.32 487.321Z" fill="#3C5079"/>
<defs>
<filter id="filter0_d" x="401" y="44.521" width="419.381" height="1003" filterUnits="userSpaceOnUse" color-interpolation-filters="sRGB">
<feFlood flood-opacity="0" result="BackgroundImageFix"/>
<feColorMatrix in="SourceAlpha" type="matrix" values="0 0 0 0 0 0 0 0 0 0 0 0 0 0 0 0 0 0 127 0"/>
<feOffset/>
<feGaussianBlur stdDeviation="10"/>
<feColorMatrix type="matrix" values="0 0 0 0 1 0 0 0 0 1 0 0 0 0 1 0 0 0 1 0"/>
<feBlend mode="normal" in2="BackgroundImageFix" result="effect1_dropShadow"/>
<feBlend mode="normal" in="SourceGraphic" in2="effect1_dropShadow" result="shape"/>
</filter>
<filter id="filter1_d" x="652" y="76.0215" width="66" height="66" filterUnits="userSpaceOnUse" color-interpolation-filters="sRGB">
<feFlood flood-opacity="0" result="BackgroundImageFix"/>
<feColorMatrix in="SourceAlpha" type="matrix" values="0 0 0 0 0 0 0 0 0 0 0 0 0 0 0 0 0 0 127 0"/>
<feOffset/>
<feGaussianBlur stdDeviation="10"/>
<feColorMatrix type="matrix" values="0 0 0 0 1 0 0 0 0 1 0 0 0 0 1 0 0 0 0.7 0"/>
<feBlend mode="normal" in2="BackgroundImageFix" result="effect1_dropShadow"/>
<feBlend mode="normal" in="SourceGraphic" in2="effect1_dropShadow" result="shape"/>
</filter>
<filter id="filter2_d" x="391" y="35.0215" width="66" height="66" filterUnits="userSpaceOnUse" color-interpolation-filters="sRGB">
<feFlood flood-opacity="0" result="BackgroundImageFix"/>
<feColorMatrix in="SourceAlpha" type="matrix" values="0 0 0 0 0 0 0 0 0 0 0 0 0 0 0 0 0 0 127 0"/>
<feOffset/>
<feGaussianBlur stdDeviation="10"/>
<feColorMatrix type="matrix" values="0 0 0 0 1 0 0 0 0 1 0 0 0 0 1 0 0 0 0.7 0"/>
<feBlend mode="normal" in2="BackgroundImageFix" result="effect1_dropShadow"/>
<feBlend mode="normal" in="SourceGraphic" in2="effect1_dropShadow" result="shape"/>
</filter>
<filter id="filter3_d" x="754" y="991.021" width="66" height="66" filterUnits="userSpaceOnUse" color-interpolation-filters="sRGB">
<feFlood flood-opacity="0" result="BackgroundImageFix"/>
<feColorMatrix in="SourceAlpha" type="matrix" values="0 0 0 0 0 0 0 0 0 0 0 0 0 0 0 0 0 0 127 0"/>
<feOffset/>
<feGaussianBlur stdDeviation="10"/>
<feColorMatrix type="matrix" values="0 0 0 0 1 0 0 0 0 1 0 0 0 0 1 0 0 0 0.7 0"/>
<feBlend mode="normal" in2="BackgroundImageFix" result="effect1_dropShadow"/>
<feBlend mode="normal" in="SourceGraphic" in2="effect1_dropShadow" result="shape"/>
</filter>
<linearGradient id="paint0_linear" x1="677.5" y1="56.5212" x2="818.225" y2="62.3183" gradientUnits="userSpaceOnUse">
<stop stop-color="#FF6E41"/>
<stop offset="1" stop-color="#FFB800"/>
</linearGradient>
<linearGradient id="paint1_linear" x1="677.121" y1="121.358" x2="684.036" y2="92.6317" gradientUnits="userSpaceOnUse">
<stop stop-color="#FF6E41"/>
<stop offset="1" stop-color="#FFB800"/>
</linearGradient>
<linearGradient id="paint2_linear" x1="416.121" y1="80.3575" x2="423.036" y2="51.6317" gradientUnits="userSpaceOnUse">
<stop stop-color="#FF6E41"/>
<stop offset="1" stop-color="#FFB800"/>
</linearGradient>
<linearGradient id="paint3_linear" x1="779.121" y1="1036.36" x2="786.036" y2="1007.63" gradientUnits="userSpaceOnUse">
<stop stop-color="#FF6E41"/>
<stop offset="1" stop-color="#FFB800"/>
</linearGradient>
</defs>
</svg>
