<svg width="29" height="36" viewBox="0 0 29 36" fill="none" xmlns="http://www.w3.org/2000/svg">
<rect width="29" height="36" fill="black" fill-opacity="0"/>
<path d="M8.76812 10.0033V7.26518C8.76812 6.00187 9.79044 5 11.058 5H19.5475C20.8151 5 21.8116 6.00187 21.8116 7.26547V10.0036C21.8116 11.2669 20.8151 12.2222 19.5475 12.2222H18.913V10.3808C18.913 9.92584 18.6728 9.55664 18.1884 9.55664C17.7043 9.55664 17.4638 9.92556 17.4638 10.3808V12.2222H13.1159V10.3808C13.1159 9.92584 12.8754 9.55664 12.3913 9.55664C11.9072 9.55664 11.6667 9.92584 11.6667 10.3808V12.2222H11.058C9.79044 12.2222 8.76812 11.2669 8.76812 10.0033ZM25 18.8906V26.6776C25 27.6882 24.211 28.6889 23.1965 28.6889H22.3893C22.0675 29.8444 20.9104 31 19.5281 31H11.0774C9.69478 31 8.53826 29.8444 8.21652 28.6889H7.08957C6.07536 28.6889 5 27.6882 5 26.6776V18.8906C5 17.8801 6.07536 17.1333 7.08957 17.1333H8.18841V15.2339C8.18841 14.4348 8.47681 13.7484 8.99565 13.2183C9.59362 13.656 10.2977 13.9556 11.0968 13.9556H11.6667V15.7363C11.6667 16.1913 11.9072 16.5602 12.3913 16.5602C12.8754 16.5602 13.1159 16.1913 13.1159 15.7363V13.9556H17.4638V15.7363C17.4638 16.1913 17.7043 16.5602 18.1884 16.5602C18.6728 16.5602 18.913 16.1913 18.913 15.7363V13.9556H19.509C20.3084 13.9556 21.1441 13.656 21.742 13.2183C22.2612 13.7484 22.6812 14.4348 22.6812 15.2339V17.1333H23.1965C24.211 17.1333 25 17.8801 25 18.8906ZM20.6522 23.7778V22.8851C20.6522 22.1271 19.9504 21.4667 19.1896 21.4667H17.2754H13.3304H11.4162C10.6554 21.4667 9.92754 22.1271 9.92754 22.8851V23.7778H20.6522ZM9.92754 25.2222V27.135C9.92754 27.8927 10.6554 28.6889 11.4162 28.6889H13.3304H17.2757H19.1899C19.9504 28.6889 20.6522 27.8927 20.6522 27.135V25.2222" fill="white"/>
</svg>
