<svg width="29" height="36" viewBox="0 0 29 36" fill="none" xmlns="http://www.w3.org/2000/svg">
<rect width="29" height="36" fill="black" fill-opacity="0"/>
<path fill-rule="evenodd" clip-rule="evenodd" d="M25.252 10.9895C26.4429 10.127 26.7957 8.44745 26.0018 7.2218C25.2079 5.95076 23.5759 5.63299 22.3409 6.45009C21.15 7.26719 20.7972 8.94678 21.5911 10.1724C22.385 11.4435 24.017 11.8066 25.252 10.9895ZM27.2809 26.696L25.9577 27.7401L15.9895 25.6065L20.0033 21.1579C20.7972 20.2954 20.5767 18.9335 19.5622 18.3434L16.8276 16.8L17.7538 16.1645L12.064 13.2593C10.2115 14.8934 10.2556 17.1178 12.461 18.3888L15.9454 20.3862L12.064 24.7894L2.27225 22.6559C0.904938 22.3835 0.463868 24.5171 1.83118 24.7894L26.0018 29.9644C26.3106 30.0552 26.6193 29.9644 26.884 29.7828L28.6041 28.3756C29.6627 27.5131 28.3836 25.7881 27.2809 26.696ZM18.5918 15.3474C18.5036 16.4369 18.7242 17.3447 19.7386 17.5263L24.5904 18.2072C26.487 18.4342 26.7957 15.5744 24.9874 15.302C24.8991 15.302 22.782 14.9842 22.5174 14.9388L21.5029 14.4395C21.6352 12.9869 21.5911 13.4862 21.6793 12.2152C21.7234 11.5343 21.1059 10.7172 20.7531 10.1724C20.0474 9.08297 18.6801 8.76521 17.6215 9.49152L16.166 10.4902L18.8565 11.852C18.8124 12.079 18.7683 12.8053 18.7683 13.0323L6.85938 6.90404C5.62439 6.26852 4.65403 8.22047 5.88903 8.856L18.5918 15.3474Z" fill="white"/>
</svg>
