<svg width="1484" height="1080" viewBox="0 0 1484 1080" fill="none" xmlns="http://www.w3.org/2000/svg">
<rect width="1484" height="1080" fill="black" fill-opacity="0" transform="translate(0 -0.000488281)"/>
<rect width="358.562" height="996.839" fill="black" fill-opacity="0" transform="translate(781.418 37.3784)"/>
<rect width="358.562" height="996.839" fill="black" fill-opacity="0" transform="translate(781.418 37.3784)"/>
<g filter="url(#filter0_d)">
<path d="M1034.27 881.255L1021.8 855.118L1072.88 828.388L852.507 388.223L950.518 336.544L836.469 114.383" stroke="url(#paint0_linear)" stroke-width="5"/>
</g>
<g filter="url(#filter1_d)">
<path d="M1033.84 877.885L1071.13 952.469L1058.23 958.207L1082.61 1005.54L1086.91 1002.66L1091.22 1011.26L1114.16 999.8L1109.86 991.187L1104.13 994.062L1092.65 972.547L1085.49 976.848L1076.87 962.508L1111.3 945.293L1139.98 1001.23L1078.31 1034.22L1009.46 890.787L1033.84 877.885Z" fill="white"/>
<path d="M1033.84 877.885L1071.13 952.469L1058.23 958.207L1082.61 1005.54L1086.91 1002.66L1091.22 1011.26L1114.16 999.8L1109.86 991.187L1104.13 994.062L1092.65 972.547L1085.49 976.848L1076.87 962.508L1111.3 945.293L1139.98 1001.23L1078.31 1034.22L1009.46 890.787L1033.84 877.885Z" stroke="url(#paint1_linear)" stroke-width="4"/>
</g>
<g filter="url(#filter2_d)">
<path d="M781.418 57.468L823.01 37.3784L854.564 103.361L814.409 124.877L781.418 57.468Z" fill="white"/>
<path d="M781.418 57.468L823.01 37.3784L854.564 103.361L814.409 124.877L781.418 57.468Z" stroke="url(#paint2_linear)" stroke-width="4"/>
</g>
<path fill-rule="evenodd" clip-rule="evenodd" d="M1063 857C1061.34 857 1060 858.343 1060 860V894C1060 894.945 1060.44 895.788 1061.12 896.338L1067.38 907L1073.25 897H1225C1226 897 1226.89 896.507 1227.43 895.75C1227.79 895.258 1228 894.653 1228 894V860C1228 858.343 1226.66 857 1225 857H1063Z" fill="white"/>
<path d="M1073.44 886.98H1074.98L1075.52 883H1084.94L1085.5 886.98H1087.04L1087.08 881.56H1085.34V870.46H1086.62V869H1075.72V870.46H1077.28C1077.26 875.66 1076.2 879.32 1074.48 881.56H1073.4L1073.44 886.98ZM1076.46 881.56C1077.96 879.28 1078.88 876 1078.94 870.46H1082.58V881.56H1076.46ZM1093.31 881.74C1091.87 881.74 1091.19 880.28 1091.19 877.98C1091.19 875.8 1091.59 874.24 1093.35 874.24C1094.79 874.24 1095.47 875.72 1095.47 878.02C1095.47 880.2 1095.07 881.74 1093.31 881.74ZM1093.07 883.2C1096.39 883.2 1098.17 880.86 1098.17 877.78C1098.17 874.82 1096.39 872.8 1093.59 872.8C1090.27 872.8 1088.49 875.14 1088.49 878.22C1088.49 881.18 1090.27 883.2 1093.07 883.2ZM1099.72 883H1103.82V881.56H1102.38L1102.6 876.62C1102.64 875.88 1102.6 875.2 1102.6 875.2H1102.72C1102.72 875.2 1102.92 875.9 1103.22 876.52L1105.92 882.4H1107.1L1109.9 876.5C1110.24 875.76 1110.42 875.2 1110.42 875.2H1110.52C1110.52 875.2 1110.5 875.6 1110.54 876.42L1110.74 881.56H1109.28V883H1114.28V881.56H1113.04L1112.72 874.44H1114.02V873H1109.96L1107 879.22L1104.3 873H1100.04V874.44H1101.3L1100.98 881.56H1099.72V883ZM1119.86 886.98H1121.4L1121.94 883H1131.36L1131.92 886.98H1133.46L1133.5 881.56H1131.76V870.46H1133.04V869H1122.14V870.46H1123.7C1123.68 875.66 1122.62 879.32 1120.9 881.56H1119.82L1119.86 886.98ZM1122.88 881.56C1124.38 879.28 1125.3 876 1125.36 870.46H1129V881.56H1122.88ZM1137.91 883L1140.17 879.4H1141.39V881.56H1140.47V883H1145.33V881.56H1144.05V874.44H1145.33V873H1139.93C1137.43 873 1135.69 874.16 1135.69 876.2C1135.69 877.52 1136.33 878.6 1137.79 878.92L1135.87 881.56H1134.87V883H1137.91ZM1140.43 878C1139.05 878 1138.47 877.16 1138.47 876.2C1138.47 875.14 1139.07 874.44 1140.41 874.44H1141.39V878H1140.43ZM1147.25 883H1152.69V881.56H1151.19V874.44H1153.63L1153.91 876.4H1155.27L1155.25 873H1147.25V874.44H1148.51V881.56H1147.25V883ZM1156.82 883H1160.64L1164.08 877.1C1164.62 876.18 1164.9 875.36 1164.9 875.36H1164.98C1164.98 875.36 1164.9 876.18 1164.9 876.82V881.56H1163.94V883H1168.8V881.56H1167.52V874.44H1168.8V873H1164.92L1161.5 878.84C1160.92 879.88 1160.64 880.7 1160.64 880.7H1160.56C1160.56 880.7 1160.66 879.52 1160.66 878.72V874.44H1161.68V873H1156.82V874.44H1158.08V881.56H1156.82V883ZM1171.04 883.12C1173.22 883.12 1174.48 880.62 1174.64 874.44H1177.02V881.56H1175.9V883H1180.96V881.56H1179.68V874.44H1180.96V873H1171.66V874.44H1173.04C1173 878.08 1172.26 880.96 1170.66 880.96C1170.4 880.96 1170.08 880.92 1170.08 880.92L1170.16 882.96C1170.16 882.96 1170.36 883.12 1171.04 883.12ZM1187.93 883.2C1190.15 883.2 1191.23 882.5 1191.23 882.5V880.96C1191.23 880.96 1190.13 881.44 1188.93 881.44C1186.41 881.44 1185.47 880.04 1185.35 878.18H1191.75C1191.91 874.52 1190.23 872.8 1187.51 872.8C1184.77 872.8 1182.67 874.86 1182.67 878.18C1182.67 881.1 1184.53 883.2 1187.93 883.2ZM1185.41 876.66C1185.53 875.08 1186.29 874.26 1187.33 874.26C1188.23 874.26 1188.93 875.1 1188.93 876.5L1185.41 876.66ZM1193.5 883H1199.14C1201.46 883 1203.1 882.08 1203.1 880.12C1203.1 878.72 1202.14 877.92 1200.52 877.76V877.68C1201.82 877.48 1202.56 876.62 1202.56 875.46C1202.56 873.96 1201.34 873 1199.08 873H1193.5V874.44H1194.76V881.56H1193.5V883ZM1197.4 881.6V878.52H1198.6C1199.86 878.52 1200.42 879.06 1200.42 880.06C1200.42 881.12 1199.72 881.6 1198.54 881.6H1197.4ZM1197.4 877.16V874.4H1198.24C1199.32 874.4 1199.9 874.84 1199.9 875.82C1199.9 876.46 1199.56 876.96 1199.08 877.16H1197.4ZM1208.56 881.46C1207.64 881.46 1207.14 880.98 1207.14 880.26C1207.14 879.38 1207.76 878.94 1208.56 878.78C1209.52 878.6 1210.04 878.66 1210.04 878.66V879.3C1210.04 880.46 1210.1 881.02 1210.1 881.02C1210.1 881.02 1209.54 881.46 1208.56 881.46ZM1210.44 882.1C1210.68 882.72 1211.36 883.2 1212.28 883.2C1213.32 883.2 1213.96 882.76 1213.96 882.76V881.2C1213.14 881.72 1212.72 881.56 1212.72 880.88L1212.7 876.46C1212.7 873.86 1211.42 872.8 1208.88 872.8C1207 872.8 1205.44 873.36 1205.44 873.36V874.9C1205.44 874.9 1206.68 874.64 1207.6 874.64C1209.4 874.64 1210.08 875.08 1210.08 876.74V877.26C1209.5 877.26 1208.78 877.28 1208.02 877.38C1205.66 877.66 1204.52 878.76 1204.52 880.54C1204.52 882 1205.44 883.24 1207.44 883.24C1208.6 883.24 1209.6 882.8 1210.44 882.1Z" fill="#3D496A"/>
<path fill-rule="evenodd" clip-rule="evenodd" d="M872 28.9995C870.344 28.9995 869 30.3428 869 31.9995V78.9995C869 79.9448 869.438 80.7881 870.121 81.3379L876.383 91.9995L882.254 81.9995H1118C1119.66 81.9995 1121 80.6562 1121 78.9995V31.9995C1121 30.3428 1119.66 28.9995 1118 28.9995H872Z" fill="white"/>
<path d="M879.658 48.9995H884.818V47.5595H883.698V36.4595H889.618V47.5595H888.498V48.9995H893.658V47.5595H892.378V36.4595H893.658V34.9995H879.658V36.4595H880.938V47.5595H879.658V48.9995ZM900.651 49.1995C902.871 49.1995 903.951 48.4995 903.951 48.4995V46.9595C903.951 46.9595 902.851 47.4395 901.651 47.4395C899.131 47.4395 898.191 46.0395 898.071 44.1795H904.471C904.631 40.5195 902.951 38.7995 900.231 38.7995C897.491 38.7995 895.391 40.8595 895.391 44.1795C895.391 47.0995 897.251 49.1995 900.651 49.1995ZM898.131 42.6595C898.251 41.0795 899.011 40.2595 900.051 40.2595C900.951 40.2595 901.651 41.0995 901.651 42.4995L898.131 42.6595ZM905.994 54.0195H911.214V52.5995H909.934V48.6595C909.934 48.6595 910.534 49.1995 911.954 49.1995C914.734 49.1995 916.774 47.0595 916.774 43.4595C916.774 40.9795 915.414 38.7995 912.554 38.7995C911.574 38.7995 910.614 39.2195 909.874 39.8795L909.934 39.2595L909.414 38.8995L905.994 38.9995L905.974 40.3995H907.274V52.5995H905.994V54.0195ZM911.414 47.6195C910.334 47.6195 909.934 47.1395 909.934 47.1395V43.3595C909.934 42.1595 909.854 41.3395 909.854 41.3395C910.374 40.9195 911.054 40.6595 911.754 40.6595C913.334 40.6595 914.034 42.0195 914.034 43.9395C914.034 46.3995 913.054 47.6195 911.414 47.6195ZM918.339 48.9995H922.439V47.5595H920.999L921.219 42.6195C921.259 41.8795 921.219 41.1995 921.219 41.1995H921.339C921.339 41.1995 921.539 41.8995 921.839 42.5195L924.539 48.3995H925.719L928.519 42.4995C928.859 41.7595 929.039 41.1995 929.039 41.1995H929.139C929.139 41.1995 929.119 41.5995 929.159 42.4195L929.359 47.5595H927.899V48.9995H932.899V47.5595H931.659L931.339 40.4395H932.639V38.9995H928.579L925.619 45.2195L922.919 38.9995H918.659V40.4395H919.919L919.599 47.5595H918.339V48.9995ZM939.473 49.1995C941.333 49.1995 942.333 48.4995 942.333 48.4995V46.9595C942.333 46.9595 941.493 47.4195 940.013 47.4195C938.253 47.4195 937.153 45.9995 937.153 43.7595C937.153 41.8195 937.933 40.5195 939.233 40.5195C940.353 40.5195 940.613 41.0595 941.873 41.3395L942.413 39.0995C941.473 38.9995 940.733 38.7995 939.513 38.7995C936.593 38.7995 934.453 40.7595 934.453 44.1795C934.453 47.2795 936.573 49.1995 939.473 49.1995ZM944.027 48.9995H948.887V47.5595H947.927V44.5995H948.727L951.867 48.9995H954.727V47.5595H953.967L950.707 43.1995L953.467 40.4395H954.427V38.9995H950.327V40.4395H951.347L949.107 43.2195H947.927V40.4395H948.867V38.9995H944.007V40.4395H945.267V47.5595H944.027V48.9995ZM956.253 48.9995H960.073L963.513 43.0995C964.053 42.1795 964.333 41.3595 964.333 41.3595H964.413C964.413 41.3595 964.333 42.1795 964.333 42.8195V47.5595H963.373V48.9995H968.233V47.5595H966.953V40.4395H968.233V38.9995H964.353L960.933 44.8395C960.353 45.8795 960.073 46.6995 960.073 46.6995H959.993C959.993 46.6995 960.093 45.5195 960.093 44.7195V40.4395H961.113V38.9995H956.253V40.4395H957.513V47.5595H956.253V48.9995ZM976.379 37.1795C978.199 37.1795 979.459 36.3195 980.279 35.5595L978.899 33.8795C978.059 34.5795 977.519 35.8195 976.379 35.8195C975.299 35.8195 974.879 34.4995 974.099 33.7995L972.379 35.5595C973.119 36.1995 974.579 37.1795 976.379 37.1795ZM970.159 48.9995H973.979L977.419 43.0995C977.959 42.1795 978.239 41.3595 978.239 41.3595H978.319C978.319 41.3595 978.239 42.1795 978.239 42.8195V47.5595H977.279V48.9995H982.139V47.5595H980.859V40.4395H982.139V38.9995H978.259L974.839 44.8395C974.259 45.8795 973.979 46.6995 973.979 46.6995H973.899C973.899 46.6995 973.999 45.5195 973.999 44.7195V40.4395H975.019V38.9995H970.159V40.4395H971.419V47.5595H970.159V48.9995ZM990.553 48.9995H995.613V47.5595H994.413V40.4395H996.273L996.513 42.2395H997.793L997.713 38.9995H988.453L988.373 42.2395H989.653L989.893 40.4395H991.713V47.5595H990.553V48.9995ZM1004.46 49.1995C1006.68 49.1995 1007.76 48.4995 1007.76 48.4995V46.9595C1007.76 46.9595 1006.66 47.4395 1005.46 47.4395C1002.94 47.4395 1002 46.0395 1001.88 44.1795H1008.28C1008.44 40.5195 1006.76 38.7995 1004.04 38.7995C1001.3 38.7995 999.199 40.8595 999.199 44.1795C999.199 47.0995 1001.06 49.1995 1004.46 49.1995ZM1001.94 42.6595C1002.06 41.0795 1002.82 40.2595 1003.86 40.2595C1004.76 40.2595 1005.46 41.0995 1005.46 42.4995L1001.94 42.6595ZM1013.74 47.4595C1012.82 47.4595 1012.32 46.9795 1012.32 46.2595C1012.32 45.3795 1012.94 44.9395 1013.74 44.7795C1014.7 44.5995 1015.22 44.6595 1015.22 44.6595V45.2995C1015.22 46.4595 1015.28 47.0195 1015.28 47.0195C1015.28 47.0195 1014.72 47.4595 1013.74 47.4595ZM1015.62 48.0995C1015.86 48.7195 1016.54 49.1995 1017.46 49.1995C1018.5 49.1995 1019.14 48.7595 1019.14 48.7595V47.1995C1018.32 47.7195 1017.9 47.5595 1017.9 46.8795L1017.88 42.4595C1017.88 39.8595 1016.6 38.7995 1014.06 38.7995C1012.18 38.7995 1010.62 39.3595 1010.62 39.3595V40.8995C1010.62 40.8995 1011.86 40.6395 1012.78 40.6395C1014.58 40.6395 1015.26 41.0795 1015.26 42.7395V43.2595C1014.68 43.2595 1013.96 43.2795 1013.2 43.3795C1010.84 43.6595 1009.7 44.7595 1009.7 46.5395C1009.7 47.9995 1010.62 49.2395 1012.62 49.2395C1013.78 49.2395 1014.78 48.7995 1015.62 48.0995ZM1022.39 48.9995H1027.45V47.5595H1026.25V40.4395H1028.11L1028.35 42.2395H1029.63L1029.55 38.9995H1020.29L1020.21 42.2395H1021.49L1021.73 40.4395H1023.55V47.5595H1022.39V48.9995ZM1030.94 54.0195H1036.16V52.5995H1034.88V48.6595C1034.88 48.6595 1035.48 49.1995 1036.9 49.1995C1039.68 49.1995 1041.72 47.0595 1041.72 43.4595C1041.72 40.9795 1040.36 38.7995 1037.5 38.7995C1036.52 38.7995 1035.56 39.2195 1034.82 39.8795L1034.88 39.2595L1034.36 38.8995L1030.94 38.9995L1030.92 40.3995H1032.22V52.5995H1030.94V54.0195ZM1036.36 47.6195C1035.28 47.6195 1034.88 47.1395 1034.88 47.1395V43.3595C1034.88 42.1595 1034.8 41.3395 1034.8 41.3395C1035.32 40.9195 1036 40.6595 1036.7 40.6595C1038.28 40.6595 1038.98 42.0195 1038.98 43.9395C1038.98 46.3995 1038 47.6195 1036.36 47.6195ZM1052.97 47.7395C1051.53 47.7395 1050.85 46.2795 1050.85 43.9795C1050.85 41.7995 1051.25 40.2395 1053.01 40.2395C1054.45 40.2395 1055.13 41.7195 1055.13 44.0195C1055.13 46.1995 1054.73 47.7395 1052.97 47.7395ZM1052.73 49.1995C1056.05 49.1995 1057.83 46.8595 1057.83 43.7795C1057.83 40.8195 1056.05 38.7995 1053.25 38.7995C1049.93 38.7995 1048.15 41.1395 1048.15 44.2195C1048.15 47.1795 1049.93 49.1995 1052.73 49.1995ZM1059.53 48.9995H1064.39V47.5595H1063.45V40.4395H1067.11V47.5595H1066.19V48.9995H1071.05V47.5595H1069.77V40.4395H1071.05V38.9995H1059.53V40.4395H1060.79V47.5595H1059.53V48.9995ZM1078.01 49.1995C1080.23 49.1995 1081.31 48.4995 1081.31 48.4995V46.9595C1081.31 46.9595 1080.21 47.4395 1079.01 47.4395C1076.49 47.4395 1075.55 46.0395 1075.43 44.1795H1081.83C1081.99 40.5195 1080.31 38.7995 1077.59 38.7995C1074.85 38.7995 1072.75 40.8595 1072.75 44.1795C1072.75 47.0995 1074.61 49.1995 1078.01 49.1995ZM1075.49 42.6595C1075.61 41.0795 1076.37 40.2595 1077.41 40.2595C1078.31 40.2595 1079.01 41.0995 1079.01 42.4995L1075.49 42.6595ZM1083.36 54.0195H1088.58V52.5995H1087.3V48.6595C1087.3 48.6595 1087.9 49.1995 1089.32 49.1995C1092.1 49.1995 1094.14 47.0595 1094.14 43.4595C1094.14 40.9795 1092.78 38.7995 1089.92 38.7995C1088.94 38.7995 1087.98 39.2195 1087.24 39.8795L1087.3 39.2595L1086.78 38.8995L1083.36 38.9995L1083.34 40.3995H1084.64V52.5995H1083.36V54.0195ZM1088.78 47.6195C1087.7 47.6195 1087.3 47.1395 1087.3 47.1395V43.3595C1087.3 42.1595 1087.22 41.3395 1087.22 41.3395C1087.74 40.9195 1088.42 40.6595 1089.12 40.6595C1090.7 40.6595 1091.4 42.0195 1091.4 43.9395C1091.4 46.3995 1090.42 47.6195 1088.78 47.6195ZM1105.78 48.9995H1110.64V47.5595H1109.38V40.4395H1110.64V38.9995H1105.78V40.4395H1106.72V47.5595H1105.78V48.9995ZM1095.88 48.9995H1101.06C1104.16 48.9995 1105.66 47.7595 1105.66 45.6595C1105.66 43.5995 1104.1 42.4595 1101.1 42.4595H1099.78V40.4395H1100.96V38.9995H1095.86V40.4395H1097.12V47.5595H1095.88V48.9995ZM1099.78 47.5995V43.8595H1100.86C1102.22 43.8595 1102.86 44.5795 1102.86 45.7395C1102.86 46.8595 1102.22 47.5995 1100.84 47.5995H1099.78ZM953.431 73.9995H957.251L960.691 68.0995C961.231 67.1795 961.511 66.3595 961.511 66.3595H961.591C961.591 66.3595 961.511 67.1795 961.511 67.8195V72.5595H960.551V73.9995H965.411V72.5595H964.131V65.4395H965.411V63.9995H961.531L958.111 69.8395C957.531 70.8795 957.251 71.6995 957.251 71.6995H957.171C957.171 71.6995 957.271 70.5195 957.271 69.7195V65.4395H958.291V63.9995H953.431V65.4395H954.691V72.5595H953.431V73.9995ZM977.164 74.1995C980.024 74.1995 981.924 72.1995 981.924 68.8395C981.924 66.1595 980.264 64.3395 977.624 64.3395C975.644 64.3395 974.424 65.2795 973.844 67.0795H973.724C973.964 64.2195 974.564 62.5595 977.764 61.9195C979.244 61.6395 980.364 61.4195 981.324 61.0995L980.784 58.9595C979.764 59.2995 978.724 59.5195 977.164 59.8395C973.524 60.6195 972.324 63.0595 972.324 68.0795C972.324 72.1995 974.144 74.1995 977.164 74.1995ZM977.164 72.8795C975.764 72.8795 975.004 71.0795 975.004 69.0395C975.004 67.2595 975.744 65.7795 977.164 65.7795C978.524 65.7795 979.284 67.2395 979.284 69.6395C979.284 71.5395 978.544 72.8795 977.164 72.8795ZM987.483 72.4595C986.563 72.4595 986.063 71.9795 986.063 71.2595C986.063 70.3795 986.683 69.9395 987.483 69.7795C988.443 69.5995 988.963 69.6595 988.963 69.6595V70.2995C988.963 71.4595 989.023 72.0195 989.023 72.0195C989.023 72.0195 988.463 72.4595 987.483 72.4595ZM989.363 73.0995C989.603 73.7195 990.283 74.1995 991.203 74.1995C992.243 74.1995 992.883 73.7595 992.883 73.7595V72.1995C992.063 72.7195 991.643 72.5595 991.643 71.8795L991.623 67.4595C991.623 64.8595 990.343 63.7995 987.803 63.7995C985.923 63.7995 984.363 64.3595 984.363 64.3595V65.8995C984.363 65.8995 985.603 65.6395 986.523 65.6395C988.323 65.6395 989.003 66.0795 989.003 67.7395V68.2595C988.423 68.2595 987.703 68.2795 986.943 68.3795C984.583 68.6595 983.443 69.7595 983.443 71.5395C983.443 72.9995 984.363 74.2395 986.363 74.2395C987.523 74.2395 988.523 73.7995 989.363 73.0995ZM994.825 74.1195C997.005 74.1195 998.265 71.6195 998.425 65.4395H1000.8V72.5595H999.685V73.9995H1004.74V72.5595H1003.46V65.4395H1004.74V63.9995H995.445V65.4395H996.825C996.785 69.0795 996.045 71.9595 994.445 71.9595C994.185 71.9595 993.865 71.9195 993.865 71.9195L993.945 73.9595C993.945 73.9595 994.145 74.1195 994.825 74.1195ZM1011.72 74.1995C1013.94 74.1995 1015.02 73.4995 1015.02 73.4995V71.9595C1015.02 71.9595 1013.92 72.4395 1012.72 72.4395C1010.2 72.4395 1009.26 71.0395 1009.14 69.1795H1015.54C1015.7 65.5195 1014.02 63.7995 1011.3 63.7995C1008.56 63.7995 1006.46 65.8595 1006.46 69.1795C1006.46 72.0995 1008.32 74.1995 1011.72 74.1995ZM1009.2 67.6595C1009.32 66.0795 1010.08 65.2595 1011.12 65.2595C1012.02 65.2595 1012.72 66.0995 1012.72 67.4995L1009.2 67.6595ZM1019.06 73.9995H1024.12V72.5595H1022.92V65.4395H1024.78L1025.02 67.2395H1026.3L1026.22 63.9995H1016.96L1016.88 67.2395H1018.16L1018.4 65.4395H1020.22V72.5595H1019.06V73.9995ZM1031.47 72.4595C1030.55 72.4595 1030.05 71.9795 1030.05 71.2595C1030.05 70.3795 1030.67 69.9395 1031.47 69.7795C1032.43 69.5995 1032.95 69.6595 1032.95 69.6595V70.2995C1032.95 71.4595 1033.01 72.0195 1033.01 72.0195C1033.01 72.0195 1032.45 72.4595 1031.47 72.4595ZM1033.35 73.0995C1033.59 73.7195 1034.27 74.1995 1035.19 74.1995C1036.23 74.1995 1036.87 73.7595 1036.87 73.7595V72.1995C1036.05 72.7195 1035.63 72.5595 1035.63 71.8795L1035.61 67.4595C1035.61 64.8595 1034.33 63.7995 1031.79 63.7995C1029.91 63.7995 1028.35 64.3595 1028.35 64.3595V65.8995C1028.35 65.8995 1029.59 65.6395 1030.51 65.6395C1032.31 65.6395 1032.99 66.0795 1032.99 67.7395V68.2595C1032.41 68.2595 1031.69 68.2795 1030.93 68.3795C1028.57 68.6595 1027.43 69.7595 1027.43 71.5395C1027.43 72.9995 1028.35 74.2395 1030.35 74.2395C1031.51 74.2395 1032.51 73.7995 1033.35 73.0995Z" fill="#3D496A"/>
<defs>
<filter id="filter0_d" x="814.246" y="93.2412" width="281.973" height="809.091" filterUnits="userSpaceOnUse" color-interpolation-filters="sRGB">
<feFlood flood-opacity="0" result="BackgroundImageFix"/>
<feColorMatrix in="SourceAlpha" type="matrix" values="0 0 0 0 0 0 0 0 0 0 0 0 0 0 0 0 0 0 127 0"/>
<feOffset/>
<feGaussianBlur stdDeviation="10"/>
<feColorMatrix type="matrix" values="0 0 0 0 1 0 0 0 0 1 0 0 0 0 1 0 0 0 1 0"/>
<feBlend mode="normal" in2="BackgroundImageFix" result="effect1_dropShadow"/>
<feBlend mode="normal" in="SourceGraphic" in2="effect1_dropShadow" result="shape"/>
</filter>
<filter id="filter1_d" x="986.828" y="855.16" width="175.826" height="201.807" filterUnits="userSpaceOnUse" color-interpolation-filters="sRGB">
<feFlood flood-opacity="0" result="BackgroundImageFix"/>
<feColorMatrix in="SourceAlpha" type="matrix" values="0 0 0 0 0 0 0 0 0 0 0 0 0 0 0 0 0 0 127 0"/>
<feOffset/>
<feGaussianBlur stdDeviation="10"/>
<feColorMatrix type="matrix" values="0 0 0 0 1 0 0 0 0 1 0 0 0 0 1 0 0 0 0.7 0"/>
<feBlend mode="normal" in2="BackgroundImageFix" result="effect1_dropShadow"/>
<feBlend mode="normal" in="SourceGraphic" in2="effect1_dropShadow" result="shape"/>
</filter>
<filter id="filter2_d" x="758.738" y="14.7041" width="118.454" height="132.915" filterUnits="userSpaceOnUse" color-interpolation-filters="sRGB">
<feFlood flood-opacity="0" result="BackgroundImageFix"/>
<feColorMatrix in="SourceAlpha" type="matrix" values="0 0 0 0 0 0 0 0 0 0 0 0 0 0 0 0 0 0 127 0"/>
<feOffset/>
<feGaussianBlur stdDeviation="10"/>
<feColorMatrix type="matrix" values="0 0 0 0 1 0 0 0 0 1 0 0 0 0 1 0 0 0 0.7 0"/>
<feBlend mode="normal" in2="BackgroundImageFix" result="effect1_dropShadow"/>
<feBlend mode="normal" in="SourceGraphic" in2="effect1_dropShadow" result="shape"/>
</filter>
<linearGradient id="paint0_linear" x1="819.243" y1="94.1863" x2="705.325" y2="851.62" gradientUnits="userSpaceOnUse">
<stop stop-color="#D0A1FF"/>
<stop offset="1" stop-color="#8000FF"/>
</linearGradient>
<linearGradient id="paint1_linear" x1="1019.08" y1="877.885" x2="1114.98" y2="1038.4" gradientUnits="userSpaceOnUse">
<stop stop-color="#D0A1FF"/>
<stop offset="1" stop-color="#00D7FF"/>
</linearGradient>
<linearGradient id="paint2_linear" x1="786.807" y1="37.3784" x2="840.446" y2="127.282" gradientUnits="userSpaceOnUse">
<stop stop-color="#D0A1FF"/>
<stop offset="1" stop-color="#00D7FF"/>
</linearGradient>
</defs>
</svg>
