<svg width="225" height="105" viewBox="0 0 225 105" fill="none" xmlns="http://www.w3.org/2000/svg">
<rect width="225" height="105" fill="black" fill-opacity="0"/>
<path d="M102.377 16.7493H98.9453V55.5611H102.377V16.7493Z" fill="#292626"/>
<path d="M112.558 16.7493H109.126V55.5611H112.558V16.7493Z" fill="#292626"/>
<path d="M114.273 16.7493H97.1152V20.2146H114.273V16.7493Z" fill="#292626"/>
<path d="M128.342 33.7295H119.191V37.1948H128.342V33.7295Z" fill="#292626"/>
<path d="M126.741 25.9902V22.4093L120.221 33.7295L132.804 55.5611H128.8L116.79 34.538L116.218 33.7295L116.79 32.8054L125.941 16.7493H130.173V25.9902H126.741Z" fill="#292626"/>
<path d="M158.427 16.7493H154.995V55.5611H158.427V16.7493Z" fill="#292626"/>
<path d="M178.444 16.7493H175.013V55.5611H178.444V16.7493Z" fill="#292626"/>
<path d="M168.492 41.2375H165.061V55.561H168.492V41.2375Z" fill="#292626"/>
<path d="M161.058 16.7493L166.777 39.8516L172.497 16.7493H176.043L168.379 47.4753L166.777 54.2905L165.061 47.4753L157.397 16.7493H161.058Z" fill="#292626"/>
<path d="M141.04 16.7493H137.608V55.5611H141.04V16.7493Z" fill="#292626"/>
<path d="M149.733 16.7493H138.98V20.2146H149.733V16.7493Z" fill="#292626"/>
<path d="M152.593 16.7493L139.095 41.8153L137.608 41.0067V37.1948L148.704 16.7493H152.593Z" fill="#292626"/>
<path d="M189.997 16.7493H186.565V55.5611H189.997V16.7493Z" fill="#292626"/>
<path d="M198.691 52.0957H187.938V55.561H198.691V52.0957Z" fill="#292626"/>
<path d="M201.55 55.5611L188.052 30.4951L186.565 31.3037V35.1156L197.661 55.5611H201.55Z" fill="#292626"/>
<path d="M102.377 62.0298H98.9453V100.842H102.377V62.0298Z" fill="#292626"/>
<path d="M110.612 62.0298H100.317V65.4951H110.612V62.0298Z" fill="#292626"/>
<path d="M100.089 79.8186L99.0596 79.241L99.5171 78.4324L100.089 79.8186ZM112.9 62.0298L103.292 78.6634L101.69 74.505L108.897 62.0298H112.9Z" fill="#292626"/>
<path d="M111.871 100.842L102.377 76.1222L105.58 74.8516L115.532 100.842H111.871Z" fill="#292626"/>
<path d="M112.1 97.3762H99.8604V100.842H112.1V97.3762Z" fill="#292626"/>
<path d="M145.157 62.0298H141.726V100.842H145.157V62.0298Z" fill="#292626"/>
<path d="M135.092 91.4851H131.66V100.842H135.092V91.4851Z" fill="#292626"/>
<path d="M142.298 62.3763L134.405 94.604L131.66 93.911V91.4852L138.867 62.0298H140.582L142.298 62.3763Z" fill="#292626"/>
<path d="M143.441 62.0298H133.146V65.4951H143.441V62.0298Z" fill="#292626"/>
<path d="M155.452 62.0298H152.021V100.842H155.452V62.0298Z" fill="#292626"/>
<path d="M165.977 62.0298H162.545V100.842H165.977V62.0298Z" fill="#292626"/>
<path d="M162.904 67.0196L152.791 79.5591L155.452 81.7474L165.565 69.208L162.904 67.0196Z" fill="#292626"/>
<path d="M176.042 62.0298H172.61V100.842H176.042V62.0298Z" fill="#292626"/>
<path d="M173.297 78.5479V78.4324V78.5479ZM186.566 62.0298L177.072 78.6634L175.47 74.505L182.562 62.0298H186.566Z" fill="#292626"/>
<path d="M185.422 100.842L176.042 76.1222L179.245 74.8516L189.197 100.842H185.422Z" fill="#292626"/>
<path d="M204.754 62.0298H201.322V100.842H204.754V62.0298Z" fill="#292626"/>
<path d="M194.687 91.4851H191.256V100.842H194.687V91.4851Z" fill="#292626"/>
<path d="M202.008 62.3763L194.116 94.604L191.256 93.911V91.4852L198.462 62.0298H200.292L202.008 62.3763Z" fill="#292626"/>
<path d="M203.152 62.0298H192.857V65.4951H203.152V62.0298Z" fill="#292626"/>
<path d="M204.753 79.01H195.831V82.4754H204.753V79.01Z" fill="#292626"/>
<path d="M209.672 100.842L219.28 75.6602L222.483 76.9308L213.332 100.842H209.672Z" fill="#292626"/>
<path d="M225 62.0298H221.568V100.842H225V62.0298Z" fill="#292626"/>
<path d="M223.627 62.0298H212.875V65.4951H223.627V62.0298Z" fill="#292626"/>
<path d="M222.827 85.8252L223.513 87.0958L225 86.2872V82.4753L224.428 81.5512L222.827 85.8252ZM210.016 62.0298L220.654 81.7823L222.255 77.5083L213.905 62.0298H210.016Z" fill="#292626"/>
<path d="M124.454 79.01H115.303V82.4754H124.454V79.01Z" fill="#292626"/>
<path d="M122.737 71.2707V67.6898L116.332 79.01L128.8 100.842H124.796L112.786 79.8186L112.328 79.01L112.786 78.0859L121.937 62.0298H126.169V71.2707H122.737Z" fill="#292626"/>
<path fill-rule="evenodd" clip-rule="evenodd" d="M0 76.8152L22.3055 88.4819L13.7265 96.7987L5.94814 93.6799L0 76.8152Z" fill="white"/>
<path fill-rule="evenodd" clip-rule="evenodd" d="M30.999 68.9604V100.842H35.9177L36.0321 72.0793L30.999 68.9604Z" fill="#8C403F"/>
<path fill-rule="evenodd" clip-rule="evenodd" d="M65.7731 34.307L58.3379 16.9802L70.1198 22.0627L74.4665 47.7063L65.7731 34.4225V34.307Z" fill="#2C9BD5"/>
<path fill-rule="evenodd" clip-rule="evenodd" d="M60.6249 66.9967L65.7723 34.3069L52.9609 61.3366L60.6249 66.9967Z" fill="#3F5B89"/>
<path fill-rule="evenodd" clip-rule="evenodd" d="M52.9613 61.3367L43.124 105L48.3858 104.769L60.6253 66.9967L52.9613 61.3367Z" fill="#226E72"/>
<path fill-rule="evenodd" clip-rule="evenodd" d="M43.1244 105L35.918 104.769L36.0324 72.0792L52.9617 61.3367L43.1244 105Z" fill="#59A1AD"/>
<path fill-rule="evenodd" clip-rule="evenodd" d="M35.918 104.769V90.3301L48.9581 79.1255L43.1244 105L35.918 104.769Z" fill="#279359"/>
<path fill-rule="evenodd" clip-rule="evenodd" d="M36.0322 60.9901V72.0792L52.9616 61.3366L65.7729 34.3069L58.2234 36.8481L36.0322 60.9901Z" fill="#2488C5"/>
<path fill-rule="evenodd" clip-rule="evenodd" d="M65.7724 34.3069L74.4659 47.7062L60.625 66.9967L65.7724 34.3069Z" fill="#3C496A"/>
<path fill-rule="evenodd" clip-rule="evenodd" d="M14.756 84.5544L13.7266 96.7987L22.3056 88.4818L14.756 84.5544Z" fill="#24523E"/>
<path fill-rule="evenodd" clip-rule="evenodd" d="M9.72265 46.7822L36.0317 72.0793L8.00684 54.7525L9.72265 46.7822Z" fill="#E26D42"/>
<path fill-rule="evenodd" clip-rule="evenodd" d="M9.72266 46.7821L13.8406 36.8481L36.0318 60.9901V72.0792L9.72266 46.7821Z" fill="#F6C837"/>
<path fill-rule="evenodd" clip-rule="evenodd" d="M0 76.8152L14.756 84.5545L13.7265 96.7987L5.94814 93.6799L0 76.8152Z" fill="#279359"/>
<path fill-rule="evenodd" clip-rule="evenodd" d="M8.00712 54.7524L0 76.8151L9.0366 81.5511L22.8775 63.8779L8.00712 54.7524Z" fill="#D24E43"/>
<path fill-rule="evenodd" clip-rule="evenodd" d="M13.6126 83.9769L29.3981 67.9208L22.878 63.8779L9.03711 81.5512L13.6126 83.9769Z" fill="#974644"/>
<path fill-rule="evenodd" clip-rule="evenodd" d="M36.032 53.1353V60.9901L13.8408 36.8481L25.5083 45.396L36.032 53.1353Z" fill="#974644"/>
<path fill-rule="evenodd" clip-rule="evenodd" d="M36.0322 60.9901L58.2234 36.8481L36.0322 53.1353V60.9901Z" fill="#A0474D"/>
<path fill-rule="evenodd" clip-rule="evenodd" d="M75.3809 57.2938L81.7866 100.842H85.9045L80.8714 36.6172L75.3809 57.2938Z" fill="#995484"/>
<path fill-rule="evenodd" clip-rule="evenodd" d="M81.7867 100.842H75.4954L60.625 66.9968L69.0897 55.2146L75.381 57.2938L81.7867 100.842Z" fill="#3F5B89"/>
<path fill-rule="evenodd" clip-rule="evenodd" d="M78.2412 76.6997L81.7872 100.842H85.9052L84.4181 82.3598L78.2412 76.6997Z" fill="#7D5795"/>
<path fill-rule="evenodd" clip-rule="evenodd" d="M81.7873 100.842H75.496L69.5479 87.4423L78.2413 76.6997L81.7873 100.842Z" fill="#4B4671"/>
<path fill-rule="evenodd" clip-rule="evenodd" d="M70.1191 22.0627L80.8716 36.6172L74.4659 47.7063L70.1191 22.0627Z" fill="#2488C5"/>
<path fill-rule="evenodd" clip-rule="evenodd" d="M75.3809 57.2938L83.0449 63.6469L80.8715 36.6172L74.4658 47.7063L75.3809 57.2938Z" fill="#2488C5"/>
<path fill-rule="evenodd" clip-rule="evenodd" d="M39.3495 13.5149H36.0322V33.1519H39.2351L43.1242 23.2179L39.3495 17.4423V13.5149Z" fill="#F7E737"/>
<path fill-rule="evenodd" clip-rule="evenodd" d="M58.3375 16.9802L51.9318 21.2542L44.0391 41.2376L58.2231 36.8482L58.3375 16.9802Z" fill="#D74F56"/>
<path fill-rule="evenodd" clip-rule="evenodd" d="M58.2231 36.8481L44.0391 41.2376L46.67 45.396L58.2231 36.8481Z" fill="#D74F56"/>
<path fill-rule="evenodd" clip-rule="evenodd" d="M39.2351 33.1519L44.0393 41.2377H36.0322V33.1519H39.2351Z" fill="#713540"/>
<path fill-rule="evenodd" clip-rule="evenodd" d="M43.1235 23.2178L51.9314 21.2542L44.0386 41.2376L39.2344 33.1518L43.1235 23.2178Z" fill="#A0474D"/>
<path fill-rule="evenodd" clip-rule="evenodd" d="M47.0136 13.2839L40.3791 19.0595L39.3496 17.4423V13.5149L44.0395 8.31689L47.0136 13.2839Z" fill="#A0474D"/>
<path fill-rule="evenodd" clip-rule="evenodd" d="M40.3789 19.0595L47.0134 13.2839L51.932 21.2542L43.1242 23.2179L40.3789 19.0595Z" fill="#A0474D"/>
<path fill-rule="evenodd" clip-rule="evenodd" d="M53.1902 10.0496L42.209 3.00342L44.0392 8.31695L47.0133 13.2839L51.9319 21.2542L58.3376 16.9803L53.1902 10.0496Z" fill="#E88782"/>
<path fill-rule="evenodd" clip-rule="evenodd" d="M39.3495 13.5149L44.0393 8.31689H36.0322V13.5149H39.3495Z" fill="#A0474D"/>
<path fill-rule="evenodd" clip-rule="evenodd" d="M36.0322 41.2375V53.1352L46.6703 45.396L44.0393 41.2375H36.0322Z" fill="#D74F56"/>
<path fill-rule="evenodd" clip-rule="evenodd" d="M36.0322 8.31695H44.0393L42.2091 3.00342H36.0322V8.31695Z" fill="#E88782"/>
<path fill-rule="evenodd" clip-rule="evenodd" d="M43.582 3.92739L46.2129 0.693069L51.4748 0L54.1057 4.85148L53.1906 10.0495L43.582 3.92739Z" fill="#713540"/>
<path fill-rule="evenodd" clip-rule="evenodd" d="M75.3812 57.2938L74.466 47.7063L69.0898 55.2145L75.3812 57.2938Z" fill="#3C496A"/>
<path fill-rule="evenodd" clip-rule="evenodd" d="M13.8408 36.8481L28.1392 41.2376L25.5083 45.396L13.8408 36.8481Z" fill="#D24E43"/>
<path fill-rule="evenodd" clip-rule="evenodd" d="M36.0324 41.2375V53.1352L25.5088 45.396L28.1397 41.2375H36.0324Z" fill="#D24E43"/>
<path fill-rule="evenodd" clip-rule="evenodd" d="M32.8295 13.5149H36.0323V33.1519H32.9439L29.0547 23.2179L32.8295 17.4423V13.5149Z" fill="#F6C837"/>
<path fill-rule="evenodd" clip-rule="evenodd" d="M13.7266 16.9802L20.1323 21.2542L28.1394 41.2376L13.841 36.8482L13.7266 16.9802Z" fill="#D24E43"/>
<path fill-rule="evenodd" clip-rule="evenodd" d="M32.9439 33.1519L28.1396 41.2377H36.0324V33.1519H32.9439Z" fill="#6A3636"/>
<path fill-rule="evenodd" clip-rule="evenodd" d="M29.0541 23.2178L20.1318 21.2542L28.139 41.2376L32.9432 33.1518L29.0541 23.2178Z" fill="#974644"/>
<path fill-rule="evenodd" clip-rule="evenodd" d="M25.0508 13.2839L31.6853 19.0595L32.8291 17.4423V13.5149L28.1392 8.31689L25.0508 13.2839Z" fill="#974644"/>
<path fill-rule="evenodd" clip-rule="evenodd" d="M31.685 19.0595L25.0505 13.2839L20.1318 21.2542L29.0541 23.2179L31.685 19.0595Z" fill="#974644"/>
<path fill-rule="evenodd" clip-rule="evenodd" d="M18.874 10.0496L29.8552 3.00342L28.1394 8.31695L25.0509 13.2839L20.1323 21.2542L13.7266 16.9803L18.874 10.0496Z" fill="#E26D42"/>
<path fill-rule="evenodd" clip-rule="evenodd" d="M32.8295 13.5149L28.1396 8.31689H36.0324V13.5149H32.8295Z" fill="#974644"/>
<path fill-rule="evenodd" clip-rule="evenodd" d="M36.0324 8.31695H28.1396L29.8555 3.00342H36.0324V8.31695Z" fill="#E26D42"/>
<path fill-rule="evenodd" clip-rule="evenodd" d="M28.4826 3.92739L25.8517 0.693069L20.7043 0L17.959 4.85148L18.8741 10.0495L28.4826 3.92739Z" fill="#6A3636"/>
<path fill-rule="evenodd" clip-rule="evenodd" d="M58.338 16.9802L65.7732 34.307L58.2236 36.8482L58.338 16.9802Z" fill="#3F5B89"/>
<path fill-rule="evenodd" clip-rule="evenodd" d="M27.9102 15.7096L31.6849 15.1321L31.9137 17.2113L30.5411 18.0199L27.9102 15.7096Z" fill="#292626"/>
<path fill-rule="evenodd" clip-rule="evenodd" d="M44.1539 15.7096L40.3792 15.1321L40.1504 17.2113L41.523 18.0199L44.1539 15.7096Z" fill="#292626"/>
<path fill-rule="evenodd" clip-rule="evenodd" d="M36.0322 30.6105H34.3164V27.7227L32.6006 23.3333L34.3164 21.6006H36.0322V30.6105ZM36.0322 30.6105H37.748V27.7227L39.4638 23.3333L37.748 21.6006H36.0322V30.6105Z" fill="#292626"/>
<path fill-rule="evenodd" clip-rule="evenodd" d="M36.0322 72.0791L52.9616 61.3365L36.0322 60.99V72.0791Z" fill="#3F5B89"/>
<path fill-rule="evenodd" clip-rule="evenodd" d="M22.8774 59.4884L13.8408 36.8481L36.032 60.9901V72.0792L22.8774 59.4884Z" fill="#D24E43"/>
<path fill-rule="evenodd" clip-rule="evenodd" d="M22.8779 63.878V59.4885L36.0325 72.0793L22.8779 63.878Z" fill="#974442"/>
<path fill-rule="evenodd" clip-rule="evenodd" d="M48.9578 79.1255L55.7066 82.1288L48.3858 104.769L43.124 105L48.9578 79.1255Z" fill="#24523E"/>
<path fill-rule="evenodd" clip-rule="evenodd" d="M66.2305 79.7029L75.3815 57.2937L78.2411 76.6996L69.5477 87.4422L66.2305 79.7029Z" fill="#64436B"/>
</svg>
