<svg width="29" height="36" viewBox="0 0 29 36" fill="none" xmlns="http://www.w3.org/2000/svg">
<rect width="29" height="36" fill="black" fill-opacity="0"/>
<rect width="29" height="26" fill="black" fill-opacity="0" transform="translate(0 5)"/>
<path d="M14.5024 9.20612L4.31836 17.9395V30.4192C4.31836 30.7416 4.58731 31 4.9201 31H11.2848V25.5284C11.2848 25.206 11.5518 24.9457 11.8846 24.9457H17.1144C17.4472 24.9457 17.7141 25.206 17.7141 25.5284V31H24.0808C24.4136 31 24.6806 30.7416 24.6806 30.4192V17.9358L14.5024 9.20612ZM17.4476 21.3884H11.7587V17.998H17.4476V21.3884Z" fill="white"/>
<path d="M4.31843 6.21161H7.98002L7.948 8.31183L4.31836 11.4875V6.21161H4.31843Z" fill="white"/>
<path d="M14.4438 5.04921L0 17.4355L1.52144 19.0979L14.5029 7.96477L27.4814 19.0979L29 17.4355L14.5591 5.04921L14.5 5L14.4438 5.04921Z" fill="white"/>
</svg>
