<svg width="1484" height="1080" viewBox="0 0 1484 1080" fill="none" xmlns="http://www.w3.org/2000/svg">
<rect width="1484" height="1080" fill="black" fill-opacity="0"/>
<rect width="750" height="1023" fill="black" fill-opacity="0" transform="translate(174 29)"/>
<g filter="url(#filter0_d)">
<path d="M288 1036C299.43 971.52 325.76 871.53 390 787C439.19 722.28 463.78 689.91 501 670C522.37 658.56 552.83 650 562.5 622.5C571.16 597.86 563.87 567.93 562.5 562.5C554.5 537 547.8 520.63 554.5 509C559 502.5 563.48 504.39 578 496.5C593.63 488.01 601.77 476.74 615 459C615 459 639.5 413 688 370.5C700.5 359.546 712.954 346.016 727 337.5C738.42 330.61 744.5 325.01 755.5 323.5C778.24 320.37 787.23 333.12 804 331C826.88 328.1 845.5 310 851 278C859.078 231 839.13 216.33 851 185C857.062 169 862.659 162.927 888.5 139C902 126.5 915.5 116.75 924 107.5C912.57 93.4401 882.7 60.7101 832.5 46.5001C810.239 40.2418 786.974 38.3737 764 41.0001" stroke="url(#paint0_linear)" stroke-width="5" stroke-linecap="round"/>
</g>
<path fill-rule="evenodd" clip-rule="evenodd" d="M177 971C175.344 971 174 972.343 174 974V1008C174 1009.66 175.344 1011 177 1011H281.125L287 1021L292.871 1011H397C398.656 1011 400 1009.66 400 1008V974C400 972.343 398.656 971 397 971H177Z" fill="white"/>
<path fill-rule="evenodd" clip-rule="evenodd" d="M594 564C592.344 564 591 565.343 591 567V601C591 602.657 592.344 604 594 604H657.125L663 614L668.871 604H732C733.656 604 735 602.657 735 601V567C735 565.343 733.656 564 732 564H594Z" fill="white"/>
<path d="M194.286 997.2C196.266 997.2 197.066 995.76 197.826 994.02L201.986 984.44H203.146V983H198.646V984.44H200.106L197.786 990.28C197.546 990.92 197.386 991.56 197.386 991.56H197.366C197.366 991.56 197.166 990.98 196.846 990.28L194.086 984.44H195.286V983H190.226V984.44H191.346L196.006 994.12C195.566 994.86 194.926 995.2 194.146 995.2C193.546 995.2 192.866 995.04 192.866 995.04L192.926 996.92C192.926 996.92 193.406 997.2 194.286 997.2ZM207.626 997.2C209.486 997.2 210.486 996.5 210.486 996.5V994.96C210.486 994.96 209.646 995.42 208.166 995.42C206.406 995.42 205.306 994 205.306 991.76C205.306 989.82 206.086 988.52 207.386 988.52C208.506 988.52 208.766 989.06 210.026 989.34L210.566 987.1C209.626 987 208.886 986.8 207.666 986.8C204.746 986.8 202.606 988.76 202.606 992.18C202.606 995.28 204.726 997.2 207.626 997.2ZM212.179 997H217.359C220.459 997 221.959 995.76 221.959 993.66C221.959 991.6 220.399 990.46 217.399 990.46H216.079V988.44H217.259V987H212.159V988.44H213.419V995.56H212.179V997ZM216.079 995.6V991.86H217.159C218.519 991.86 219.159 992.58 219.159 993.74C219.159 994.86 218.519 995.6 217.139 995.6H216.079ZM223.507 997H229.147C231.467 997 233.107 996.08 233.107 994.12C233.107 992.72 232.147 991.92 230.527 991.76V991.68C231.827 991.48 232.567 990.62 232.567 989.46C232.567 987.96 231.347 987 229.087 987H223.507V988.44H224.767V995.56H223.507V997ZM227.407 995.6V992.52H228.607C229.867 992.52 230.427 993.06 230.427 994.06C230.427 995.12 229.727 995.6 228.547 995.6H227.407ZM227.407 991.16V988.4H228.247C229.327 988.4 229.907 988.84 229.907 989.82C229.907 990.46 229.567 990.96 229.087 991.16H227.407ZM234.855 997H238.675L242.115 991.1C242.655 990.18 242.935 989.36 242.935 989.36H243.015C243.015 989.36 242.935 990.18 242.935 990.82V995.56H241.975V997H246.835V995.56H245.555V988.44H246.835V987H242.955L239.535 992.84C238.955 993.88 238.675 994.7 238.675 994.7H238.595C238.595 994.7 238.695 993.52 238.695 992.72V988.44H239.715V987H234.855V988.44H236.115V995.56H234.855V997ZM248.761 997H253.621V995.56H252.681V992.64H256.601V995.56H255.681V997H260.541V995.56H259.261V988.44H260.541V987H255.681V988.44H256.601V991.18H252.681V988.44H253.621V987H248.761V988.44H250.021V995.56H248.761V997ZM267.255 997.2C269.115 997.2 270.115 996.5 270.115 996.5V994.96C270.115 994.96 269.275 995.42 267.795 995.42C266.035 995.42 264.935 994 264.935 991.76C264.935 989.82 265.715 988.52 267.015 988.52C268.135 988.52 268.395 989.06 269.655 989.34L270.195 987.1C269.255 987 268.515 986.8 267.295 986.8C264.375 986.8 262.235 988.76 262.235 992.18C262.235 995.28 264.355 997.2 267.255 997.2ZM271.808 997H276.668V995.56H275.708V992.6H276.508L279.648 997H282.508V995.56H281.748L278.488 991.2L281.248 988.44H282.208V987H278.108V988.44H279.128L276.888 991.22H275.708V988.44H276.648V987H271.788V988.44H273.048V995.56H271.808V997ZM284.034 997H287.854L291.294 991.1C291.834 990.18 292.114 989.36 292.114 989.36H292.194C292.194 989.36 292.114 990.18 292.114 990.82V995.56H291.154V997H296.014V995.56H294.734V988.44H296.014V987H292.134L288.714 992.84C288.134 993.88 287.854 994.7 287.854 994.7H287.774C287.774 994.7 287.874 993.52 287.874 992.72V988.44H288.894V987H284.034V988.44H285.294V995.56H284.034V997ZM302.983 997.2C305.203 997.2 306.283 996.5 306.283 996.5V994.96C306.283 994.96 305.183 995.44 303.983 995.44C301.463 995.44 300.523 994.04 300.403 992.18H306.803C306.963 988.52 305.283 986.8 302.563 986.8C299.823 986.8 297.723 988.86 297.723 992.18C297.723 995.1 299.583 997.2 302.983 997.2ZM300.463 990.66C300.583 989.08 301.343 988.26 302.383 988.26C303.283 988.26 303.983 989.1 303.983 990.5L300.463 990.66ZM318.153 997.2C320.013 997.2 321.013 996.5 321.013 996.5V994.96C321.013 994.96 320.173 995.42 318.693 995.42C316.933 995.42 315.833 994 315.833 991.76C315.833 989.82 316.613 988.52 317.913 988.52C319.033 988.52 319.293 989.06 320.553 989.34L321.093 987.1C320.153 987 319.413 986.8 318.193 986.8C315.273 986.8 313.133 988.76 313.133 992.18C313.133 995.28 315.253 997.2 318.153 997.2ZM324.467 997H329.527V995.56H328.327V988.44H330.187L330.427 990.24H331.707L331.627 987H322.367L322.287 990.24H323.567L323.807 988.44H325.627V995.56H324.467V997ZM337.953 995.74C336.513 995.74 335.833 994.28 335.833 991.98C335.833 989.8 336.233 988.24 337.993 988.24C339.433 988.24 340.113 989.72 340.113 992.02C340.113 994.2 339.713 995.74 337.953 995.74ZM337.713 997.2C341.033 997.2 342.813 994.86 342.813 991.78C342.813 988.82 341.033 986.8 338.233 986.8C334.913 986.8 333.133 989.14 333.133 992.22C333.133 995.18 334.913 997.2 337.713 997.2ZM344.803 997.12C346.983 997.12 348.243 994.62 348.403 988.44H350.783V995.56H349.663V997H354.723V995.56H353.443V988.44H354.723V987H345.423V988.44H346.803C346.763 992.08 346.023 994.96 344.423 994.96C344.163 994.96 343.843 994.92 343.843 994.92L343.923 996.96C343.923 996.96 344.123 997.12 344.803 997.12ZM361.693 997.2C364.553 997.2 366.453 995.2 366.453 991.84C366.453 989.16 364.793 987.34 362.153 987.34C360.173 987.34 358.953 988.28 358.373 990.08H358.253C358.493 987.22 359.093 985.56 362.293 984.92C363.773 984.64 364.893 984.42 365.853 984.1L365.313 981.96C364.293 982.3 363.253 982.52 361.693 982.84C358.053 983.62 356.853 986.06 356.853 991.08C356.853 995.2 358.673 997.2 361.693 997.2ZM361.693 995.88C360.293 995.88 359.533 994.08 359.533 992.04C359.533 990.26 360.273 988.78 361.693 988.78C363.053 988.78 363.813 990.24 363.813 992.64C363.813 994.54 363.073 995.88 361.693 995.88ZM378.095 997H382.955V995.56H381.695V988.44H382.955V987H378.095V988.44H379.035V995.56H378.095V997ZM368.195 997H373.375C376.475 997 377.975 995.76 377.975 993.66C377.975 991.6 376.415 990.46 373.415 990.46H372.095V988.44H373.275V987H368.175V988.44H369.435V995.56H368.195V997ZM372.095 995.6V991.86H373.175C374.535 991.86 375.175 992.58 375.175 993.74C375.175 994.86 374.535 995.6 373.155 995.6H372.095Z" fill="#3D496A"/>
<path fill-rule="evenodd" clip-rule="evenodd" d="M760.871 73L755 63L749.125 73H655C653.344 73 652 74.3431 652 76V110C652 111.657 653.344 113 655 113H855C856.656 113 858 111.657 858 110V76C858 74.3431 856.656 73 855 73H760.871Z" fill="white"/>
<path d="M671.351 99H676.511V97.56H675.291V92.48H676.131L680.691 99H683.631V97.56H682.891L678.311 91.1L682.071 86.44H683.191V85H678.811V86.44H679.691L676.611 91.1H675.291V86.44H676.511V85H671.351V86.44H672.531V97.56H671.351V99ZM688.676 97.46C687.756 97.46 687.256 96.98 687.256 96.26C687.256 95.38 687.876 94.94 688.676 94.78C689.636 94.6 690.156 94.66 690.156 94.66V95.3C690.156 96.46 690.216 97.02 690.216 97.02C690.216 97.02 689.656 97.46 688.676 97.46ZM690.556 98.1C690.796 98.72 691.476 99.2 692.396 99.2C693.436 99.2 694.076 98.76 694.076 98.76V97.2C693.256 97.72 692.836 97.56 692.836 96.88L692.816 92.46C692.816 89.86 691.536 88.8 688.996 88.8C687.116 88.8 685.556 89.36 685.556 89.36V90.9C685.556 90.9 686.796 90.64 687.716 90.64C689.516 90.64 690.196 91.08 690.196 92.74V93.26C689.616 93.26 688.896 93.28 688.136 93.38C685.776 93.66 684.636 94.76 684.636 96.54C684.636 98 685.556 99.24 687.556 99.24C688.716 99.24 689.716 98.8 690.556 98.1ZM695.538 99H699.638V97.56H698.198L698.418 92.62C698.458 91.88 698.418 91.2 698.418 91.2H698.538C698.538 91.2 698.738 91.9 699.038 92.52L701.738 98.4H702.918L705.718 92.5C706.058 91.76 706.238 91.2 706.238 91.2H706.338C706.338 91.2 706.318 91.6 706.358 92.42L706.558 97.56H705.098V99H710.098V97.56H708.858L708.538 90.44H709.838V89H705.778L702.818 95.22L700.118 89H695.858V90.44H697.118L696.798 97.56H695.538V99ZM716.913 99.2C719.133 99.2 720.213 98.5 720.213 98.5V96.96C720.213 96.96 719.113 97.44 717.913 97.44C715.393 97.44 714.453 96.04 714.333 94.18H720.733C720.893 90.52 719.213 88.8 716.493 88.8C713.752 88.8 711.653 90.86 711.653 94.18C711.653 97.1 713.513 99.2 716.913 99.2ZM714.393 92.66C714.513 91.08 715.273 90.26 716.313 90.26C717.213 90.26 717.913 91.1 717.913 92.5L714.393 92.66ZM722.476 99H727.336V97.56H726.396V94.64H730.316V97.56H729.396V99H734.256V97.56H732.976V90.44H734.256V89H729.396V90.44H730.316V93.18H726.396V90.44H727.336V89H722.476V90.44H723.736V97.56H722.476V99ZM736.167 99H741.027V97.56H740.087V94.64H744.007V97.56H743.087V99H747.947V97.56H746.667V90.44H747.947V89H743.087V90.44H744.007V93.18H740.087V90.44H741.027V89H736.167V90.44H737.427V97.56H736.167V99ZM759.778 99H764.638V97.56H763.378V90.44H764.638V89H759.778V90.44H760.718V97.56H759.778V99ZM749.878 99H755.058C758.158 99 759.658 97.76 759.658 95.66C759.658 93.6 758.098 92.46 755.098 92.46H753.778V90.44H754.958V89H749.858V90.44H751.118V97.56H749.878V99ZM753.778 97.6V93.86H754.858C756.218 93.86 756.858 94.58 756.858 95.74C756.858 96.86 756.218 97.6 754.838 97.6H753.778ZM772.778 87.18C774.598 87.18 775.858 86.32 776.678 85.56L775.298 83.88C774.458 84.58 773.918 85.82 772.778 85.82C771.698 85.82 771.278 84.5 770.498 83.8L768.778 85.56C769.518 86.2 770.978 87.18 772.778 87.18ZM766.558 99H770.378L773.818 93.1C774.358 92.18 774.638 91.36 774.638 91.36H774.718C774.718 91.36 774.638 92.18 774.638 92.82V97.56H773.678V99H778.538V97.56H777.258V90.44H778.538V89H774.658L771.238 94.84C770.658 95.88 770.378 96.7 770.378 96.7H770.298C770.298 96.7 770.398 95.52 770.398 94.72V90.44H771.418V89H766.558V90.44H767.818V97.56H766.558V99ZM785.171 99H790.611V97.56H789.111V90.44H791.551L791.831 92.4H793.191L793.171 89H785.171V90.44H786.431V97.56H785.171V99ZM799.461 97.74C798.021 97.74 797.341 96.28 797.341 93.98C797.341 91.8 797.741 90.24 799.501 90.24C800.941 90.24 801.621 91.72 801.621 94.02C801.621 96.2 801.221 97.74 799.461 97.74ZM799.221 99.2C802.541 99.2 804.321 96.86 804.321 93.78C804.321 90.82 802.541 88.8 799.741 88.8C796.421 88.8 794.641 91.14 794.641 94.22C794.641 97.18 796.421 99.2 799.221 99.2ZM805.81 104.02H811.03V102.6H809.75V98.66C809.75 98.66 810.35 99.2 811.77 99.2C814.55 99.2 816.59 97.06 816.59 93.46C816.59 90.98 815.23 88.8 812.37 88.8C811.39 88.8 810.43 89.22 809.69 89.88L809.75 89.26L809.23 88.9L805.81 89L805.79 90.4H807.09V102.6H805.81V104.02ZM811.23 97.62C810.15 97.62 809.75 97.14 809.75 97.14V93.36C809.75 92.16 809.67 91.34 809.67 91.34C810.19 90.92 810.87 90.66 811.57 90.66C813.15 90.66 813.85 92.02 813.85 93.94C813.85 96.4 812.87 97.62 811.23 97.62ZM823.133 97.74C821.693 97.74 821.013 96.28 821.013 93.98C821.013 91.8 821.413 90.24 823.173 90.24C824.613 90.24 825.293 91.72 825.293 94.02C825.293 96.2 824.893 97.74 823.133 97.74ZM822.893 99.2C826.213 99.2 827.993 96.86 827.993 93.78C827.993 90.82 826.213 88.8 823.413 88.8C820.093 88.8 818.313 91.14 818.313 94.22C818.313 97.18 820.093 99.2 822.893 99.2ZM828.944 102.34H830.444L830.844 99H838.244L838.644 102.34H840.164L840.244 97.56H838.684L838.664 90.44H839.984V89H830.444V90.44H831.884C831.844 93.94 831.384 96.16 829.784 97.56H828.904L828.944 102.34ZM831.784 97.56C832.984 96.36 833.424 94.1 833.524 90.44H836.044V97.56H831.784Z" fill="#3D496A"/>
<g filter="url(#filter1_d)">
<circle cx="287" cy="1039" r="13" fill="white"/>
<circle cx="287" cy="1039" r="11.5" stroke="url(#paint1_linear)" stroke-width="3" stroke-linecap="round"/>
</g>
<g filter="url(#filter2_d)">
<circle cx="755" cy="42" r="13" fill="white"/>
<circle cx="755" cy="42" r="11.5" stroke="url(#paint2_linear)" stroke-width="3" stroke-linecap="round"/>
</g>
<path d="M615.96 591H620.82V589.56H619.88V582.44H623.54V589.56H622.62V591H627.48V589.56H626.2V582.44H627.48V581H615.96V582.44H617.22V589.56H615.96V591ZM634.02 589.74C632.58 589.74 631.9 588.28 631.9 585.98C631.9 583.8 632.3 582.24 634.06 582.24C635.5 582.24 636.18 583.72 636.18 586.02C636.18 588.2 635.78 589.74 634.02 589.74ZM633.78 591.2C637.1 591.2 638.88 588.86 638.88 585.78C638.88 582.82 637.1 580.8 634.3 580.8C630.98 580.8 629.2 583.14 629.2 586.22C629.2 589.18 630.98 591.2 633.78 591.2ZM645.587 591.2C647.447 591.2 648.447 590.5 648.447 590.5V588.96C648.447 588.96 647.607 589.42 646.127 589.42C644.367 589.42 643.267 588 643.267 585.76C643.267 583.82 644.047 582.52 645.347 582.52C646.467 582.52 646.727 583.06 647.987 583.34L648.527 581.1C647.587 581 646.847 580.8 645.627 580.8C642.707 580.8 640.567 582.76 640.567 586.18C640.567 589.28 642.687 591.2 645.587 591.2ZM651.68 591.3C652.64 591.3 653.26 590.76 653.26 589.8C653.26 588.96 652.72 588.44 651.8 588.44C650.92 588.44 650.2 588.96 650.2 589.88C650.2 590.74 650.84 591.3 651.68 591.3ZM663.223 591.2C665.203 591.2 666.003 589.76 666.763 588.02L670.923 578.44H672.083V577H667.583V578.44H669.043L666.723 584.28C666.483 584.92 666.323 585.56 666.323 585.56H666.303C666.303 585.56 666.103 584.98 665.783 584.28L663.023 578.44H664.223V577H659.163V578.44H660.283L664.943 588.12C664.503 588.86 663.863 589.2 663.083 589.2C662.483 589.2 661.803 589.04 661.803 589.04L661.863 590.92C661.863 590.92 662.343 591.2 663.223 591.2ZM676.563 591.2C678.423 591.2 679.423 590.5 679.423 590.5V588.96C679.423 588.96 678.583 589.42 677.103 589.42C675.343 589.42 674.243 588 674.243 585.76C674.243 583.82 675.023 582.52 676.323 582.52C677.443 582.52 677.703 583.06 678.963 583.34L679.503 581.1C678.563 581 677.823 580.8 676.603 580.8C673.683 580.8 671.543 582.76 671.543 586.18C671.543 589.28 673.663 591.2 676.563 591.2ZM681.117 591H686.297C689.397 591 690.897 589.76 690.897 587.66C690.897 585.6 689.337 584.46 686.337 584.46H685.017V582.44H686.197V581H681.097V582.44H682.357V589.56H681.117V591ZM685.017 589.6V585.86H686.097C687.457 585.86 688.097 586.58 688.097 587.74C688.097 588.86 687.457 589.6 686.077 589.6H685.017ZM692.444 591H698.084C700.404 591 702.044 590.08 702.044 588.12C702.044 586.72 701.084 585.92 699.464 585.76V585.68C700.764 585.48 701.504 584.62 701.504 583.46C701.504 581.96 700.284 581 698.024 581H692.444V582.44H693.704V589.56H692.444V591ZM696.344 589.6V586.52H697.544C698.804 586.52 699.364 587.06 699.364 588.06C699.364 589.12 698.664 589.6 697.484 589.6H696.344ZM696.344 585.16V582.4H697.184C698.264 582.4 698.844 582.84 698.844 583.82C698.844 584.46 698.504 584.96 698.024 585.16H696.344ZM707.512 589.46C706.592 589.46 706.092 588.98 706.092 588.26C706.092 587.38 706.712 586.94 707.512 586.78C708.472 586.6 708.992 586.66 708.992 586.66V587.3C708.992 588.46 709.052 589.02 709.052 589.02C709.052 589.02 708.492 589.46 707.512 589.46ZM709.392 590.1C709.632 590.72 710.312 591.2 711.232 591.2C712.272 591.2 712.912 590.76 712.912 590.76V589.2C712.092 589.72 711.672 589.56 711.672 588.88L711.652 584.46C711.652 581.86 710.372 580.8 707.832 580.8C705.952 580.8 704.392 581.36 704.392 581.36V582.9C704.392 582.9 705.632 582.64 706.552 582.64C708.352 582.64 709.032 583.08 709.032 584.74V585.26C708.452 585.26 707.732 585.28 706.972 585.38C704.612 585.66 703.472 586.76 703.472 588.54C703.472 590 704.392 591.24 706.392 591.24C707.552 591.24 708.552 590.8 709.392 590.1Z" fill="#3C5079"/>
<defs>
<filter id="filter0_d" x="265.5" y="17.3464" width="681.804" height="1041.15" filterUnits="userSpaceOnUse" color-interpolation-filters="sRGB">
<feFlood flood-opacity="0" result="BackgroundImageFix"/>
<feColorMatrix in="SourceAlpha" type="matrix" values="0 0 0 0 0 0 0 0 0 0 0 0 0 0 0 0 0 0 127 0"/>
<feOffset/>
<feGaussianBlur stdDeviation="10"/>
<feColorMatrix type="matrix" values="0 0 0 0 1 0 0 0 0 1 0 0 0 0 1 0 0 0 1 0"/>
<feBlend mode="normal" in2="BackgroundImageFix" result="effect1_dropShadow"/>
<feBlend mode="normal" in="SourceGraphic" in2="effect1_dropShadow" result="shape"/>
</filter>
<filter id="filter1_d" x="254" y="1006" width="66" height="66" filterUnits="userSpaceOnUse" color-interpolation-filters="sRGB">
<feFlood flood-opacity="0" result="BackgroundImageFix"/>
<feColorMatrix in="SourceAlpha" type="matrix" values="0 0 0 0 0 0 0 0 0 0 0 0 0 0 0 0 0 0 127 0"/>
<feOffset/>
<feGaussianBlur stdDeviation="10"/>
<feColorMatrix type="matrix" values="0 0 0 0 1 0 0 0 0 1 0 0 0 0 1 0 0 0 0.7 0"/>
<feBlend mode="normal" in2="BackgroundImageFix" result="effect1_dropShadow"/>
<feBlend mode="normal" in="SourceGraphic" in2="effect1_dropShadow" result="shape"/>
</filter>
<filter id="filter2_d" x="722" y="9" width="66" height="66" filterUnits="userSpaceOnUse" color-interpolation-filters="sRGB">
<feFlood flood-opacity="0" result="BackgroundImageFix"/>
<feColorMatrix in="SourceAlpha" type="matrix" values="0 0 0 0 0 0 0 0 0 0 0 0 0 0 0 0 0 0 127 0"/>
<feOffset/>
<feGaussianBlur stdDeviation="10"/>
<feColorMatrix type="matrix" values="0 0 0 0 1 0 0 0 0 1 0 0 0 0 1 0 0 0 0.7 0"/>
<feBlend mode="normal" in2="BackgroundImageFix" result="effect1_dropShadow"/>
<feBlend mode="normal" in="SourceGraphic" in2="effect1_dropShadow" result="shape"/>
</filter>
<linearGradient id="paint0_linear" x1="288" y1="1036" x2="802.81" y2="48.3311" gradientUnits="userSpaceOnUse">
<stop stop-color="#FF6E41"/>
<stop offset="1" stop-color="#FFB800"/>
</linearGradient>
<linearGradient id="paint1_linear" x1="279.121" y1="1051.34" x2="286.036" y2="1022.61" gradientUnits="userSpaceOnUse">
<stop stop-color="#FF6E41"/>
<stop offset="1" stop-color="#FFB800"/>
</linearGradient>
<linearGradient id="paint2_linear" x1="747.121" y1="54.3361" x2="754.036" y2="25.6102" gradientUnits="userSpaceOnUse">
<stop stop-color="#FF6E41"/>
<stop offset="1" stop-color="#FFB800"/>
</linearGradient>
</defs>
</svg>
