<svg width="1484" height="1080" viewBox="0 0 1484 1080" fill="none" xmlns="http://www.w3.org/2000/svg">
<rect width="1484" height="1080" fill="black" fill-opacity="0"/>
<path fill-rule="evenodd" clip-rule="evenodd" d="M658 412C656.344 412 655 413.343 655 415V449C655 450.657 656.344 452 658 452H759.125L765 462L770.871 452H872C872.91 452 873.727 451.593 874.277 450.95C874.727 450.426 875 449.745 875 449V415C875 413.343 873.656 412 872 412H658Z" fill="white"/>
<path d="M663.303 438H668.463V436.56H667.343V425.46H673.263V436.56H672.143V438H677.303V436.56H676.023V425.46H677.303V424H663.303V425.46H664.583V436.56H663.303V438ZM679.69 438.12C681.87 438.12 683.13 435.62 683.29 429.44H685.67V436.56H684.55V438H689.61V436.56H688.33V429.44H689.61V428H680.31V429.44H681.69C681.65 433.08 680.91 435.96 679.31 435.96C679.05 435.96 678.73 435.92 678.73 435.92L678.81 437.96C678.81 437.96 679.01 438.12 679.69 438.12ZM695.258 436.46C694.338 436.46 693.838 435.98 693.838 435.26C693.838 434.38 694.458 433.94 695.258 433.78C696.218 433.6 696.738 433.66 696.738 433.66V434.3C696.738 435.46 696.798 436.02 696.798 436.02C696.798 436.02 696.238 436.46 695.258 436.46ZM697.138 437.1C697.378 437.72 698.058 438.2 698.978 438.2C700.018 438.2 700.658 437.76 700.658 437.76V436.2C699.838 436.72 699.418 436.56 699.418 435.88L699.398 431.46C699.398 428.86 698.118 427.8 695.578 427.8C693.698 427.8 692.138 428.36 692.138 428.36V429.9C692.138 429.9 693.378 429.64 694.298 429.64C696.098 429.64 696.778 430.08 696.778 431.74V432.26C696.198 432.26 695.478 432.28 694.718 432.38C692.358 432.66 691.218 433.76 691.218 435.54C691.218 437 692.138 438.24 694.138 438.24C695.298 438.24 696.298 437.8 697.138 437.1ZM703.904 438H708.964V436.56H707.764V429.44H709.624L709.864 431.24H711.144L711.064 428H701.804L701.724 431.24H703.004L703.244 429.44H705.064V436.56H703.904V438ZM717.391 436.74C715.951 436.74 715.271 435.28 715.271 432.98C715.271 430.8 715.671 429.24 717.431 429.24C718.871 429.24 719.551 430.72 719.551 433.02C719.551 435.2 719.151 436.74 717.391 436.74ZM717.151 438.2C720.471 438.2 722.251 435.86 722.251 432.78C722.251 429.82 720.471 427.8 717.671 427.8C714.351 427.8 712.571 430.14 712.571 433.22C712.571 436.18 714.351 438.2 717.151 438.2ZM728.805 438H733.165V436.54H731.885V428.08C731.885 427.48 731.825 426.76 731.825 426.76L731.885 426.74C731.885 426.74 732.085 427.28 732.405 427.92L736.465 436H736.945L740.965 427.96C741.345 427.2 741.505 426.68 741.505 426.68L741.565 426.7C741.565 426.7 741.485 427.24 741.485 428V436.54H740.365V438H745.405V436.54H744.125V425.44H745.405V424H741.645L738.025 431.16C737.625 431.92 737.425 432.62 737.425 432.62H737.345C737.345 432.62 737.045 431.88 736.685 431.16L733.225 424H728.805V425.44H730.405V436.54H728.805V438ZM751.215 436.46C750.295 436.46 749.795 435.98 749.795 435.26C749.795 434.38 750.415 433.94 751.215 433.78C752.175 433.6 752.695 433.66 752.695 433.66V434.3C752.695 435.46 752.755 436.02 752.755 436.02C752.755 436.02 752.195 436.46 751.215 436.46ZM753.095 437.1C753.335 437.72 754.015 438.2 754.935 438.2C755.975 438.2 756.615 437.76 756.615 437.76V436.2C755.795 436.72 755.375 436.56 755.375 435.88L755.355 431.46C755.355 428.86 754.075 427.8 751.535 427.8C749.655 427.8 748.095 428.36 748.095 428.36V429.9C748.095 429.9 749.335 429.64 750.255 429.64C752.055 429.64 752.735 430.08 752.735 431.74V432.26C752.155 432.26 751.435 432.28 750.675 432.38C748.315 432.66 747.175 433.76 747.175 435.54C747.175 437 748.095 438.24 750.095 438.24C751.255 438.24 752.255 437.8 753.095 437.1ZM758.237 438H763.097V436.56H762.157V433.64H766.077V436.56H765.157V438H770.017V436.56H768.737V429.44H770.017V428H765.157V429.44H766.077V432.18H762.157V429.44H763.097V428H758.237V429.44H759.497V436.56H758.237V438ZM771.949 438H777.129C780.229 438 781.729 436.76 781.729 434.66C781.729 432.6 780.169 431.46 777.169 431.46H775.849V429.44H777.029V428H771.929V429.44H773.189V436.56H771.949V438ZM775.849 436.6V432.86H776.929C778.289 432.86 778.929 433.58 778.929 434.74C778.929 435.86 778.289 436.6 776.909 436.6H775.849ZM783.276 438H788.136V436.56H787.196V429.44H790.856V436.56H789.936V438H794.796V436.56H793.516V429.44H794.796V428H783.276V429.44H784.536V436.56H783.276V438ZM801.134 443.16C801.394 441.6 801.934 439.82 802.654 438L806.034 429.4H807.094V428H803.094V429.4H804.054L802.574 433.64C802.294 434.44 802.014 435.7 802.014 435.7H801.934C801.934 435.7 801.694 434.7 801.314 433.7L799.654 429.4H800.554V428H795.954V429.4H797.014L800.774 438.34C799.974 439.58 799.094 441.28 798.694 443L801.134 443.16ZM808.257 438H813.117V436.56H812.177V429.44H815.837V436.56H814.917V438H819.777V436.56H818.497V429.44H819.777V428H808.257V429.44H809.517V436.56H808.257V438ZM826.114 443.16C826.374 441.6 826.914 439.82 827.634 438L831.014 429.4H832.074V428H828.074V429.4H829.034L827.554 433.64C827.274 434.44 826.994 435.7 826.994 435.7H826.914C826.914 435.7 826.674 434.7 826.294 433.7L824.634 429.4H825.534V428H820.934V429.4H821.994L825.754 438.34C824.954 439.58 824.074 441.28 823.674 443L826.114 443.16ZM833.237 438H838.097V436.56H837.157V433.64H841.077V436.56H840.157V438H845.017V436.56H843.737V429.44H845.017V428H840.157V429.44H841.077V432.18H837.157V429.44H838.097V428H833.237V429.44H834.497V436.56H833.237V438ZM849.451 426.08C850.431 426.08 851.091 425.56 851.091 424.54C851.091 423.64 850.531 423.12 849.611 423.12C848.671 423.12 847.931 423.62 847.931 424.6C847.931 425.54 848.591 426.08 849.451 426.08ZM853.431 426.08C854.411 426.08 855.071 425.56 855.071 424.54C855.071 423.64 854.511 423.12 853.591 423.12C852.651 423.12 851.911 423.62 851.911 424.6C851.911 425.54 852.571 426.08 853.431 426.08ZM851.971 438.2C854.191 438.2 855.271 437.5 855.271 437.5V435.96C855.271 435.96 854.171 436.44 852.971 436.44C850.451 436.44 849.511 435.04 849.391 433.18H855.791C855.951 429.52 854.271 427.8 851.551 427.8C848.811 427.8 846.711 429.86 846.711 433.18C846.711 436.1 848.571 438.2 851.971 438.2ZM849.451 431.66C849.571 430.08 850.331 429.26 851.371 429.26C852.271 429.26 852.971 430.1 852.971 431.5L849.451 431.66ZM857.314 443.02H862.534V441.6H861.254V437.66C861.254 437.66 861.854 438.2 863.274 438.2C866.054 438.2 868.094 436.06 868.094 432.46C868.094 429.98 866.734 427.8 863.874 427.8C862.894 427.8 861.934 428.22 861.194 428.88L861.254 428.26L860.734 427.9L857.314 428L857.294 429.4H858.594V441.6H857.314V443.02ZM862.734 436.62C861.654 436.62 861.254 436.14 861.254 436.14V432.36C861.254 431.16 861.174 430.34 861.174 430.34C861.694 429.92 862.374 429.66 863.074 429.66C864.654 429.66 865.354 431.02 865.354 432.94C865.354 435.4 864.374 436.62 862.734 436.62Z" fill="#3D496A"/>
<g filter="url(#filter0_d)">
<circle cx="765" cy="480" r="13" fill="white"/>
<circle cx="765" cy="480" r="11.5" stroke="url(#paint0_linear)" stroke-width="3" stroke-linecap="round"/>
</g>
<path fill-rule="evenodd" clip-rule="evenodd" d="M380.582 769.224C380.215 769.721 380 770.335 380 771V818C380 819.657 381.344 821 383 821H509.125L515 831L520.871 821H647C648.066 821 649.004 820.442 649.539 819.603C649.832 819.139 650 818.589 650 818V771C650 769.343 648.656 768 647 768H383C382.008 768 381.129 768.481 380.582 769.224Z" fill="white"/>
<path d="M420.299 788H425.459V786.56H424.339V775.46H430.259V786.56H429.139V788H434.299V786.56H433.019V775.46H434.299V774H420.299V775.46H421.579V786.56H420.299V788ZM441.291 788.2C443.511 788.2 444.591 787.5 444.591 787.5V785.96C444.591 785.96 443.491 786.44 442.291 786.44C439.771 786.44 438.831 785.04 438.711 783.18H445.111C445.271 779.52 443.591 777.8 440.871 777.8C438.131 777.8 436.031 779.86 436.031 783.18C436.031 786.1 437.891 788.2 441.291 788.2ZM438.771 781.66C438.891 780.08 439.651 779.26 440.691 779.26C441.591 779.26 442.291 780.1 442.291 781.5L438.771 781.66ZM452.195 788H457.455V786.56H456.215V779.44H457.455V778H452.595V779.44H453.555V782.9C453.555 782.9 452.915 783.16 451.835 783.16C450.855 783.16 449.975 782.78 449.975 781.32V779.44H451.055V778H446.195V779.44H447.315V781.4C447.315 783.82 449.295 784.76 450.955 784.76C452.495 784.76 453.555 784.36 453.555 784.36V786.56H452.195V788ZM464.016 786.74C462.576 786.74 461.896 785.28 461.896 782.98C461.896 780.8 462.296 779.24 464.056 779.24C465.496 779.24 466.176 780.72 466.176 783.02C466.176 785.2 465.776 786.74 464.016 786.74ZM463.776 788.2C467.096 788.2 468.876 785.86 468.876 782.78C468.876 779.82 467.096 777.8 464.296 777.8C460.976 777.8 459.196 780.14 459.196 783.22C459.196 786.18 460.976 788.2 463.776 788.2ZM470.365 793.02H475.585V791.6H474.305V787.66C474.305 787.66 474.905 788.2 476.325 788.2C479.105 788.2 481.145 786.06 481.145 782.46C481.145 779.98 479.785 777.8 476.925 777.8C475.945 777.8 474.985 778.22 474.245 778.88L474.305 778.26L473.785 777.9L470.365 778L470.345 779.4H471.645V791.6H470.365V793.02ZM475.785 786.62C474.705 786.62 474.305 786.14 474.305 786.14V782.36C474.305 781.16 474.225 780.34 474.225 780.34C474.745 779.92 475.425 779.66 476.125 779.66C477.705 779.66 478.405 781.02 478.405 782.94C478.405 785.4 477.425 786.62 475.785 786.62ZM487.688 786.74C486.248 786.74 485.568 785.28 485.568 782.98C485.568 780.8 485.968 779.24 487.728 779.24C489.168 779.24 489.848 780.72 489.848 783.02C489.848 785.2 489.448 786.74 487.688 786.74ZM487.448 788.2C490.768 788.2 492.548 785.86 492.548 782.78C492.548 779.82 490.768 777.8 487.968 777.8C484.648 777.8 482.868 780.14 482.868 783.22C482.868 786.18 484.648 788.2 487.448 788.2ZM494.715 783.36L500.535 783.16V780.98L494.715 781.18V783.36ZM502.858 788H506.898L512.478 777.9C512.698 777.5 512.978 776.88 512.978 776.88H513.078C513.078 776.88 513.018 777.52 513.018 778V786.56H511.898V788H517.058V786.56H515.778V775.46H517.058V774H513.018L507.618 783.78C507.358 784.26 506.938 785.2 506.938 785.2H506.818C506.818 785.2 506.898 784.1 506.898 783.5V775.46H508.018V774H502.858V775.46H504.138V786.56H502.858V788ZM519.44 788.12C521.62 788.12 522.88 785.62 523.04 779.44H525.42V786.56H524.3V788H529.36V786.56H528.08V779.44H529.36V778H520.06V779.44H521.44C521.4 783.08 520.66 785.96 519.06 785.96C518.8 785.96 518.48 785.92 518.48 785.92L518.56 787.96C518.56 787.96 518.76 788.12 519.44 788.12ZM541.208 788H546.068V786.56H544.808V779.44H546.068V778H541.208V779.44H542.148V786.56H541.208V788ZM531.308 788H536.488C539.588 788 541.088 786.76 541.088 784.66C541.088 782.6 539.528 781.46 536.528 781.46H535.208V779.44H536.388V778H531.288V779.44H532.548V786.56H531.308V788ZM535.208 786.6V782.86H536.288C537.648 782.86 538.288 783.58 538.288 784.74C538.288 785.86 537.648 786.6 536.268 786.6H535.208ZM553.327 788H558.587V786.56H557.347V779.44H558.587V778H553.727V779.44H554.687V782.9C554.687 782.9 554.047 783.16 552.967 783.16C551.987 783.16 551.107 782.78 551.107 781.32V779.44H552.187V778H547.327V779.44H548.447V781.4C548.447 783.82 550.427 784.76 552.087 784.76C553.627 784.76 554.687 784.36 554.687 784.36V786.56H553.327V788ZM565.329 788.2C567.189 788.2 568.189 787.5 568.189 787.5V785.96C568.189 785.96 567.349 786.42 565.869 786.42C564.109 786.42 563.009 785 563.009 782.76C563.009 780.82 563.789 779.52 565.089 779.52C566.209 779.52 566.469 780.06 567.729 780.34L568.269 778.1C567.329 778 566.589 777.8 565.369 777.8C562.449 777.8 560.309 779.76 560.309 783.18C560.309 786.28 562.429 788.2 565.329 788.2ZM569.882 788H574.742V786.56H573.782V783.6H574.582L577.722 788H580.582V786.56H579.822L576.562 782.2L579.322 779.44H580.282V778H576.182V779.44H577.202L574.962 782.22H573.782V779.44H574.722V778H569.862V779.44H571.122V786.56H569.882V788ZM582.108 788H585.928L589.368 782.1C589.908 781.18 590.188 780.36 590.188 780.36H590.268C590.268 780.36 590.188 781.18 590.188 781.82V786.56H589.228V788H594.088V786.56H592.808V779.44H594.088V778H590.208L586.788 783.84C586.208 784.88 585.928 785.7 585.928 785.7H585.848C585.848 785.7 585.948 784.52 585.948 783.72V779.44H586.968V778H582.108V779.44H583.368V786.56H582.108V788ZM602.235 776.18C604.055 776.18 605.315 775.32 606.135 774.56L604.755 772.88C603.915 773.58 603.375 774.82 602.235 774.82C601.155 774.82 600.735 773.5 599.955 772.8L598.235 774.56C598.975 775.2 600.435 776.18 602.235 776.18ZM596.015 788H599.835L603.275 782.1C603.815 781.18 604.095 780.36 604.095 780.36H604.175C604.175 780.36 604.095 781.18 604.095 781.82V786.56H603.135V788H607.995V786.56H606.715V779.44H607.995V778H604.115L600.695 783.84C600.115 784.88 599.835 785.7 599.835 785.7H599.755C599.755 785.7 599.855 784.52 599.855 783.72V779.44H600.875V778H596.015V779.44H597.275V786.56H596.015V788ZM393.603 813H398.463V811.56H397.523V804.44H401.183V811.56H400.263V813H405.123V811.56H403.843V804.44H405.123V803H393.603V804.44H394.863V811.56H393.603V813ZM406.82 818.02H412.04V816.6H410.76V812.66C410.76 812.66 411.36 813.2 412.78 813.2C415.56 813.2 417.6 811.06 417.6 807.46C417.6 804.98 416.24 802.8 413.38 802.8C412.4 802.8 411.44 803.22 410.7 803.88L410.76 803.26L410.24 802.9L406.82 803L406.8 804.4H408.1V816.6H406.82V818.02ZM412.24 811.62C411.16 811.62 410.76 811.14 410.76 811.14V807.36C410.76 806.16 410.68 805.34 410.68 805.34C411.2 804.92 411.88 804.66 412.58 804.66C414.16 804.66 414.86 806.02 414.86 807.94C414.86 810.4 413.88 811.62 412.24 811.62ZM419.325 813H423.145L426.585 807.1C427.125 806.18 427.405 805.36 427.405 805.36H427.485C427.485 805.36 427.405 806.18 427.405 806.82V811.56H426.445V813H431.305V811.56H430.025V804.44H431.305V803H427.425L424.005 808.84C423.425 809.88 423.145 810.7 423.145 810.7H423.065C423.065 810.7 423.165 809.52 423.165 808.72V804.44H424.185V803H419.325V804.44H420.585V811.56H419.325V813ZM433.011 818.02H438.231V816.6H436.951V812.66C436.951 812.66 437.551 813.2 438.971 813.2C441.751 813.2 443.791 811.06 443.791 807.46C443.791 804.98 442.431 802.8 439.571 802.8C438.591 802.8 437.631 803.22 436.891 803.88L436.951 803.26L436.431 802.9L433.011 803L432.991 804.4H434.291V816.6H433.011V818.02ZM438.431 811.62C437.351 811.62 436.951 811.14 436.951 811.14V807.36C436.951 806.16 436.871 805.34 436.871 805.34C437.391 804.92 438.071 804.66 438.771 804.66C440.351 804.66 441.051 806.02 441.051 807.94C441.051 810.4 440.071 811.62 438.431 811.62ZM450.334 811.74C448.894 811.74 448.214 810.28 448.214 807.98C448.214 805.8 448.614 804.24 450.374 804.24C451.814 804.24 452.494 805.72 452.494 808.02C452.494 810.2 452.094 811.74 450.334 811.74ZM450.094 813.2C453.414 813.2 455.194 810.86 455.194 807.78C455.194 804.82 453.414 802.8 450.614 802.8C447.294 802.8 445.514 805.14 445.514 808.22C445.514 811.18 447.294 813.2 450.094 813.2ZM456.145 816.34H457.645L458.045 813H465.445L465.845 816.34H467.365L467.445 811.56H465.885L465.865 804.44H467.185V803H457.645V804.44H459.085C459.045 807.94 458.585 810.16 456.985 811.56H456.105L456.145 816.34ZM458.985 811.56C460.185 810.36 460.625 808.1 460.725 804.44H463.245V811.56H458.985ZM469.13 813H473.99V811.56H473.05V808.64H476.97V811.56H476.05V813H480.91V811.56H479.63V804.44H480.91V803H476.05V804.44H476.97V807.18H473.05V804.44H473.99V803H469.13V804.44H470.39V811.56H469.13V813ZM492.741 813H497.601V811.56H496.341V804.44H497.601V803H492.741V804.44H493.681V811.56H492.741V813ZM482.841 813H488.021C491.121 813 492.621 811.76 492.621 809.66C492.621 807.6 491.061 806.46 488.061 806.46H486.741V804.44H487.921V803H482.821V804.44H484.081V811.56H482.841V813ZM486.741 811.6V807.86H487.821C489.181 807.86 489.821 808.58 489.821 809.74C489.821 810.86 489.181 811.6 487.801 811.6H486.741ZM505.741 801.18C507.561 801.18 508.821 800.32 509.641 799.56L508.261 797.88C507.421 798.58 506.881 799.82 505.741 799.82C504.661 799.82 504.241 798.5 503.461 797.8L501.741 799.56C502.481 800.2 503.941 801.18 505.741 801.18ZM499.521 813H503.341L506.781 807.1C507.321 806.18 507.601 805.36 507.601 805.36H507.681C507.681 805.36 507.601 806.18 507.601 806.82V811.56H506.641V813H511.501V811.56H510.221V804.44H511.501V803H507.621L504.201 808.84C503.621 809.88 503.341 810.7 503.341 810.7H503.261C503.261 810.7 503.361 809.52 503.361 808.72V804.44H504.381V803H499.521V804.44H500.781V811.56H499.521V813ZM521.094 813.2C523.394 813.2 525.094 811.92 525.094 810.04C525.094 808.68 523.954 807.94 522.574 807.82V807.74C524.014 807.46 524.754 806.64 524.754 805.44C524.754 803.76 523.214 802.8 520.994 802.8C519.594 802.8 518.774 803.02 517.734 803.16L518.134 805.3C519.374 804.92 519.954 804.38 520.914 804.38C521.754 804.38 522.114 804.88 522.114 805.62C522.114 806.64 521.434 807.12 520.294 807.12H519.494V808.56H520.334C521.634 808.56 522.414 808.96 522.414 809.86C522.414 811.06 521.534 811.56 520.214 811.56C518.854 811.56 517.794 810.98 517.794 810.98V812.48C517.794 812.48 518.814 813.2 521.094 813.2ZM530.565 811.46C529.645 811.46 529.145 810.98 529.145 810.26C529.145 809.38 529.765 808.94 530.565 808.78C531.525 808.6 532.045 808.66 532.045 808.66V809.3C532.045 810.46 532.105 811.02 532.105 811.02C532.105 811.02 531.545 811.46 530.565 811.46ZM532.445 812.1C532.685 812.72 533.365 813.2 534.285 813.2C535.325 813.2 535.965 812.76 535.965 812.76V811.2C535.145 811.72 534.725 811.56 534.725 810.88L534.705 806.46C534.705 803.86 533.425 802.8 530.885 802.8C529.005 802.8 527.445 803.36 527.445 803.36V804.9C527.445 804.9 528.685 804.64 529.605 804.64C531.405 804.64 532.085 805.08 532.085 806.74V807.26C531.505 807.26 530.785 807.28 530.025 807.38C527.665 807.66 526.525 808.76 526.525 810.54C526.525 812 527.445 813.24 529.445 813.24C530.605 813.24 531.605 812.8 532.445 812.1ZM537.587 813H542.447V811.56H541.507V804.44H545.167V811.56H544.247V813H549.107V811.56H547.827V804.44H549.107V803H537.587V804.44H538.847V811.56H537.587V813ZM555.647 811.74C554.207 811.74 553.527 810.28 553.527 807.98C553.527 805.8 553.927 804.24 555.687 804.24C557.127 804.24 557.807 805.72 557.807 808.02C557.807 810.2 557.407 811.74 555.647 811.74ZM555.407 813.2C558.727 813.2 560.507 810.86 560.507 807.78C560.507 804.82 558.727 802.8 555.927 802.8C552.607 802.8 550.827 805.14 550.827 808.22C550.827 811.18 552.607 813.2 555.407 813.2ZM562.216 813H567.856C570.176 813 571.816 812.08 571.816 810.12C571.816 808.72 570.856 807.92 569.236 807.76V807.68C570.536 807.48 571.276 806.62 571.276 805.46C571.276 803.96 570.056 803 567.796 803H562.216V804.44H563.476V811.56H562.216V813ZM566.116 811.6V808.52H567.316C568.576 808.52 569.136 809.06 569.136 810.06C569.136 811.12 568.436 811.6 567.256 811.6H566.116ZM566.116 807.16V804.4H566.956C568.036 804.4 568.616 804.84 568.616 805.82C568.616 806.46 568.276 806.96 567.796 807.16H566.116ZM578.704 813.2C580.924 813.2 582.004 812.5 582.004 812.5V810.96C582.004 810.96 580.904 811.44 579.704 811.44C577.184 811.44 576.244 810.04 576.124 808.18H582.524C582.684 804.52 581.004 802.8 578.284 802.8C575.544 802.8 573.444 804.86 573.444 808.18C573.444 811.1 575.304 813.2 578.704 813.2ZM576.184 806.66C576.304 805.08 577.064 804.26 578.104 804.26C579.004 804.26 579.704 805.1 579.704 806.5L576.184 806.66ZM583.489 816.34H584.989L585.389 813H592.789L593.189 816.34H594.709L594.789 811.56H593.229L593.209 804.44H594.529V803H584.989V804.44H586.429C586.389 807.94 585.929 810.16 584.329 811.56H583.449L583.489 816.34ZM586.329 811.56C587.529 810.36 587.969 808.1 588.069 804.44H590.589V811.56H586.329ZM596.474 813H601.334V811.56H600.394V808.64H604.314V811.56H603.394V813H608.254V811.56H606.974V804.44H608.254V803H603.394V804.44H604.314V807.18H600.394V804.44H601.334V803H596.474V804.44H597.734V811.56H596.474V813ZM610.165 813H613.985L617.425 807.1C617.965 806.18 618.245 805.36 618.245 805.36H618.325C618.325 805.36 618.245 806.18 618.245 806.82V811.56H617.285V813H622.145V811.56H620.865V804.44H622.145V803H618.265L614.845 808.84C614.265 809.88 613.985 810.7 613.985 810.7H613.905C613.905 810.7 614.005 809.52 614.005 808.72V804.44H615.025V803H610.165V804.44H611.425V811.56H610.165V813ZM624.091 813H628.951V811.56H627.991V808.6H628.791L631.931 813H634.791V811.56H634.031L630.771 807.2L633.531 804.44H634.491V803H630.391V804.44H631.411L629.171 807.22H627.991V804.44H628.931V803H624.071V804.44H625.331V811.56H624.091V813Z" fill="#3C5079"/>
<defs>
<filter id="filter0_d" x="732" y="447" width="66" height="66" filterUnits="userSpaceOnUse" color-interpolation-filters="sRGB">
<feFlood flood-opacity="0" result="BackgroundImageFix"/>
<feColorMatrix in="SourceAlpha" type="matrix" values="0 0 0 0 0 0 0 0 0 0 0 0 0 0 0 0 0 0 127 0"/>
<feOffset/>
<feGaussianBlur stdDeviation="10"/>
<feColorMatrix type="matrix" values="0 0 0 0 1 0 0 0 0 1 0 0 0 0 1 0 0 0 0.7 0"/>
<feBlend mode="normal" in2="BackgroundImageFix" result="effect1_dropShadow"/>
<feBlend mode="normal" in="SourceGraphic" in2="effect1_dropShadow" result="shape"/>
</filter>
<linearGradient id="paint0_linear" x1="757.121" y1="492.336" x2="764.036" y2="463.61" gradientUnits="userSpaceOnUse">
<stop stop-color="#FF6E41"/>
<stop offset="1" stop-color="#FFB800"/>
</linearGradient>
</defs>
</svg>
