<svg width="29" height="36" viewBox="0 0 29 36" fill="none" xmlns="http://www.w3.org/2000/svg">
<rect width="29" height="36" fill="black" fill-opacity="0"/>
<rect width="17.1425" height="35.9997" fill="black" fill-opacity="0" transform="translate(6)"/>
<path d="M18.0136 17.6344C18.302 17.823 18.6263 17.9361 18.9867 17.9361C19.1309 17.9361 19.3111 17.8984 19.4553 17.8607C19.8517 17.7476 21.005 17.4082 22.9873 13.2599C23.3477 12.5057 23.0594 11.6006 22.3386 11.2235C21.6177 10.8464 20.7527 11.1481 20.3923 11.9023C20.1401 12.4303 19.8517 12.996 19.5634 13.4862C19.0949 10.9596 18.6624 8.54605 16.8243 8.35749C16.7162 8.35749 16.2837 8.31978 16.1035 8.31978C15.9233 8.31978 15.1303 8.28207 14.1212 8.28207C13.4004 8.24436 12.7516 8.84774 12.6796 9.60196L11.6344 19.1429C11.4902 20.2742 10.8775 24.6864 10.7333 26.044C10.6252 26.8359 9.14754 30.5316 7.85006 33.4731C7.45361 34.3782 7.81402 35.4341 8.679 35.8489C8.89525 35.962 9.14754 35.9997 9.39982 35.9997C10.0486 35.9997 10.6613 35.6226 10.9496 34.9815C11.6344 33.4354 13.905 28.1935 14.1212 26.5342C14.2293 25.7046 14.4816 23.7059 14.6979 22.0466C15.7791 23.2157 16.9684 24.9127 17.2207 25.6292C17.473 26.3834 17.9055 30.7579 18.2299 34.3782C18.302 35.3209 19.0588 35.9997 19.9238 35.9997C19.9598 35.9997 20.0319 35.9997 20.068 35.9997C21.005 35.9243 21.6898 35.057 21.6177 34.0765C21.3654 30.9464 20.8609 25.516 20.3923 24.3093C20.104 23.6305 18.9507 21.5941 17.437 19.8971L17.6893 17.3704C17.7974 17.4459 17.9055 17.5213 18.0136 17.6344Z" fill="white"/>
<path d="M19.3547 3.89998C19.4394 1.92336 17.9767 0.249147 16.0876 0.160509C14.1985 0.0718705 12.5985 1.60238 12.5137 3.57899C12.429 5.5556 13.8917 7.22981 15.7808 7.31845C17.6699 7.40709 19.27 5.87659 19.3547 3.89998Z" fill="white"/>
<path d="M10.7698 18.2756L11.6708 9.41349C11.7789 8.54614 11.1662 7.75421 10.3013 7.64107L8.64336 7.45252C7.81442 7.33938 7.05756 7.98047 6.94944 8.88554L6.01237 17.7476C5.90425 18.615 6.51694 19.4069 7.38193 19.5201L9.03982 19.7086C9.9048 19.784 10.6617 19.143 10.7698 18.2756Z" fill="white"/>
</svg>
