<svg width="1484" height="1095" viewBox="0 0 1484 1095" fill="none" xmlns="http://www.w3.org/2000/svg">
<rect width="1484" height="1088" fill="black" fill-opacity="0" transform="translate(0 7)"/>
<rect width="335" height="781" fill="black" fill-opacity="0" transform="translate(734 7)"/>
<g filter="url(#filter0_d)">
<circle cx="992" cy="766" r="7" fill="white"/>
<circle cx="992" cy="766" r="6" stroke="url(#paint0_linear)" stroke-width="2" stroke-linecap="round"/>
</g>
<rect width="44" height="44" fill="black" fill-opacity="0" transform="translate(970 744)"/>
<g filter="url(#filter1_d)">
<circle cx="992" cy="766" r="21" stroke="white" stroke-width="2"/>
</g>
<circle cx="992" cy="766" r="21" stroke="url(#paint1_linear)" stroke-width="2" stroke-dasharray="7 7"/>
<rect width="44" height="44" fill="black" fill-opacity="0" transform="translate(882 615)"/>
<g filter="url(#filter2_d)">
<circle cx="904" cy="637" r="21" stroke="white" stroke-width="2"/>
</g>
<circle cx="904" cy="637" r="21" stroke="url(#paint2_linear)" stroke-width="2" stroke-dasharray="7 7"/>
<rect width="44" height="44" fill="black" fill-opacity="0" transform="translate(800 205)"/>
<g filter="url(#filter3_d)">
<circle cx="822" cy="227" r="21" stroke="white" stroke-width="2"/>
</g>
<circle cx="822" cy="227" r="21" stroke="url(#paint3_linear)" stroke-width="2" stroke-dasharray="7 7"/>
<rect width="44" height="44" fill="black" fill-opacity="0" transform="translate(762 119)"/>
<g filter="url(#filter4_d)">
<circle cx="784" cy="141" r="21" stroke="white" stroke-width="2"/>
</g>
<circle cx="784" cy="141" r="21" stroke="url(#paint4_linear)" stroke-width="2" stroke-dasharray="7 7"/>
<rect width="44" height="44" fill="black" fill-opacity="0" transform="translate(991 7)"/>
<g filter="url(#filter5_d)">
<circle cx="1013" cy="29" r="21" stroke="white" stroke-width="2"/>
</g>
<circle cx="1013" cy="29" r="21" stroke="url(#paint5_linear)" stroke-width="2" stroke-dasharray="7 7"/>
<g filter="url(#filter6_d)">
<circle cx="904" cy="637" r="7" fill="white"/>
<circle cx="904" cy="637" r="6" stroke="url(#paint6_linear)" stroke-width="2" stroke-linecap="round"/>
</g>
<g filter="url(#filter7_d)">
<circle cx="822" cy="227" r="7" fill="white"/>
<circle cx="822" cy="227" r="6" stroke="url(#paint7_linear)" stroke-width="2" stroke-linecap="round"/>
</g>
<g filter="url(#filter8_d)">
<circle cx="784" cy="141" r="7" fill="white"/>
<circle cx="784" cy="141" r="6" stroke="url(#paint8_linear)" stroke-width="2" stroke-linecap="round"/>
</g>
<g filter="url(#filter9_d)">
<circle cx="1013" cy="29" r="7" fill="white"/>
<circle cx="1013" cy="29" r="6" stroke="url(#paint9_linear)" stroke-width="2" stroke-linecap="round"/>
</g>
<path fill-rule="evenodd" clip-rule="evenodd" d="M938 730C936.343 730 935 731.343 935 733V747C935 748.657 936.343 750 938 750H988.563L991.5 755L994.436 750H1045C1046.66 750 1048 748.657 1048 747V733C1048 732.198 1047.69 731.469 1047.17 730.931C1046.63 730.357 1045.85 730 1045 730H938Z" fill="white"/>
<path d="M941.73 743H944.63V742.28H943.88V736.72H945.3L945.36 737.84H945.99L946.1 736H940.26L940.27 737.84H940.9L941.06 736.72H942.48V742.28H941.73V743ZM948.852 745.58C948.982 744.8 949.252 743.91 949.612 743L951.302 738.7H951.832V738H949.832V738.7H950.312L949.572 740.82C949.432 741.22 949.292 741.85 949.292 741.85H949.252C949.252 741.85 949.132 741.35 948.942 740.85L948.112 738.7H948.562V738H946.262V738.7H946.792L948.672 743.17C948.272 743.79 947.832 744.64 947.632 745.5L948.852 745.58ZM952.304 745.51H954.914V744.8H954.274V742.83C954.274 742.83 954.574 743.1 955.284 743.1C956.674 743.1 957.694 742.03 957.694 740.23C957.694 738.99 957.014 737.9 955.584 737.9C955.094 737.9 954.614 738.11 954.244 738.44L954.274 738.13L954.014 737.95L952.304 738L952.294 738.7H952.944V744.8H952.304V745.51ZM955.014 742.31C954.474 742.31 954.274 742.07 954.274 742.07V740.18C954.274 739.58 954.234 739.17 954.234 739.17C954.494 738.96 954.834 738.83 955.184 738.83C955.974 738.83 956.324 739.51 956.324 740.47C956.324 741.7 955.834 742.31 955.014 742.31ZM960.959 743H963.389V742.28H962.919V740.82H964.879V742.28H964.419V743H966.849V742.28H966.209V738.72H966.849V738H964.419V738.72H964.879V740.09H962.919V738.72H963.389V738H960.959V738.72H961.589V742.28H960.959V743ZM969.664 742.23C969.204 742.23 968.954 741.99 968.954 741.63C968.954 741.19 969.264 740.97 969.664 740.89C970.144 740.8 970.404 740.83 970.404 740.83V741.15C970.404 741.73 970.434 742.01 970.434 742.01C970.434 742.01 970.154 742.23 969.664 742.23ZM970.604 742.55C970.724 742.86 971.064 743.1 971.524 743.1C972.044 743.1 972.364 742.88 972.364 742.88V742.1C971.954 742.36 971.744 742.28 971.744 741.94L971.734 739.73C971.734 738.43 971.094 737.9 969.824 737.9C968.884 737.9 968.104 738.18 968.104 738.18V738.95C968.104 738.95 968.724 738.82 969.184 738.82C970.084 738.82 970.424 739.04 970.424 739.87V740.13C970.134 740.13 969.774 740.14 969.394 740.19C968.214 740.33 967.644 740.88 967.644 741.77C967.644 742.5 968.104 743.12 969.104 743.12C969.684 743.12 970.184 742.9 970.604 742.55ZM975.529 743H978.249V742.28H977.499V738.72H978.719L978.859 739.7H979.539L979.529 738H975.529V738.72H976.159V742.28H975.529V743ZM982.674 742.37C981.954 742.37 981.614 741.64 981.614 740.49C981.614 739.4 981.814 738.62 982.694 738.62C983.414 738.62 983.754 739.36 983.754 740.51C983.754 741.6 983.554 742.37 982.674 742.37ZM982.554 743.1C984.214 743.1 985.104 741.93 985.104 740.39C985.104 738.91 984.214 737.9 982.814 737.9C981.154 737.9 980.264 739.07 980.264 740.61C980.264 742.09 981.154 743.1 982.554 743.1ZM985.849 745.51H988.459V744.8H987.819V742.83C987.819 742.83 988.119 743.1 988.829 743.1C990.219 743.1 991.239 742.03 991.239 740.23C991.239 738.99 990.559 737.9 989.129 737.9C988.639 737.9 988.159 738.11 987.789 738.44L987.819 738.13L987.559 737.95L985.849 738L985.839 738.7H986.489V744.8H985.849V745.51ZM988.559 742.31C988.019 742.31 987.819 742.07 987.819 742.07V740.18C987.819 739.58 987.779 739.17 987.779 739.17C988.039 738.96 988.379 738.83 988.729 738.83C989.519 738.83 989.869 739.51 989.869 740.47C989.869 741.7 989.379 742.31 988.559 742.31ZM994.311 745.58C994.441 744.8 994.711 743.91 995.071 743L996.761 738.7H997.291V738H995.291V738.7H995.771L995.031 740.82C994.891 741.22 994.751 741.85 994.751 741.85H994.711C994.711 741.85 994.591 741.35 994.401 740.85L993.571 738.7H994.021V738H991.721V738.7H992.251L994.131 743.17C993.731 743.79 993.291 744.64 993.091 745.5L994.311 745.58ZM1000.41 743H1002.99V742.28H1002.38V739.74H1002.8L1005.08 743H1006.55V742.28H1006.18L1003.89 739.05L1005.77 736.72H1006.33V736H1004.14V736.72H1004.58L1003.04 739.05H1002.38V736.72H1002.99V736H1000.41V736.72H1001V742.28H1000.41V743ZM1009.45 742.37C1008.73 742.37 1008.39 741.64 1008.39 740.49C1008.39 739.4 1008.59 738.62 1009.47 738.62C1010.19 738.62 1010.53 739.36 1010.53 740.51C1010.53 741.6 1010.33 742.37 1009.45 742.37ZM1009.33 743.1C1010.99 743.1 1011.88 741.93 1011.88 740.39C1011.88 738.91 1010.99 737.9 1009.59 737.9C1007.93 737.9 1007.04 739.07 1007.04 740.61C1007.04 742.09 1007.93 743.1 1009.33 743.1ZM1012.88 743.06C1013.97 743.06 1014.6 741.81 1014.68 738.72H1015.87V742.28H1015.31V743H1017.84V742.28H1017.2V738.72H1017.84V738H1013.19V738.72H1013.88C1013.86 740.54 1013.49 741.98 1012.69 741.98C1012.56 741.98 1012.4 741.96 1012.4 741.96L1012.44 742.98C1012.44 742.98 1012.54 743.06 1012.88 743.06ZM1018.8 743H1021.23V742.28H1020.76V738.72H1022.59V742.28H1022.13V743H1024.56V742.28H1023.92V738.72H1024.56V738H1018.8V738.72H1019.43V742.28H1018.8V743ZM1027.38 742.23C1026.92 742.23 1026.67 741.99 1026.67 741.63C1026.67 741.19 1026.98 740.97 1027.38 740.89C1027.86 740.8 1028.12 740.83 1028.12 740.83V741.15C1028.12 741.73 1028.15 742.01 1028.15 742.01C1028.15 742.01 1027.87 742.23 1027.38 742.23ZM1028.32 742.55C1028.44 742.86 1028.78 743.1 1029.24 743.1C1029.76 743.1 1030.08 742.88 1030.08 742.88V742.1C1029.67 742.36 1029.46 742.28 1029.46 741.94L1029.45 739.73C1029.45 738.43 1028.81 737.9 1027.54 737.9C1026.6 737.9 1025.82 738.18 1025.82 738.18V738.95C1025.82 738.95 1026.44 738.82 1026.9 738.82C1027.8 738.82 1028.14 739.04 1028.14 739.87V740.13C1027.85 740.13 1027.49 740.14 1027.11 740.19C1025.93 740.33 1025.36 740.88 1025.36 741.77C1025.36 742.5 1025.82 743.12 1026.82 743.12C1027.4 743.12 1027.9 742.9 1028.32 742.55ZM1030.9 743H1033.33V742.28H1032.85V740.8H1033.25L1034.82 743H1036.25V742.28H1035.87L1034.24 740.1L1035.62 738.72H1036.1V738H1034.05V738.72H1034.56L1033.44 740.11H1032.85V738.72H1033.32V738H1030.89V738.72H1031.52V742.28H1030.9V743ZM1037.01 743H1038.92L1040.64 740.05C1040.91 739.59 1041.05 739.18 1041.05 739.18H1041.09C1041.09 739.18 1041.05 739.59 1041.05 739.91V742.28H1040.57V743H1043V742.28H1042.36V738.72H1043V738H1041.06L1039.35 740.92C1039.06 741.44 1038.92 741.85 1038.92 741.85H1038.88C1038.88 741.85 1038.93 741.26 1038.93 740.86V738.72H1039.44V738H1037.01V738.72H1037.64V742.28H1037.01V743Z" fill="#3D496A"/>
<path fill-rule="evenodd" clip-rule="evenodd" d="M848 590C846.343 590 845 591.343 845 593V617C845 618.657 846.343 620 848 620H900.035L903.5 626L906.965 620H959C960.657 620 962 618.657 962 617V593C962 591.343 960.657 590 959 590H848Z" fill="white"/>
<path d="M847.566 603H850.466V602.28H849.716V596.72H851.136L851.196 597.84H851.826L851.936 596H846.096L846.106 597.84H846.736L846.896 596.72H848.316V602.28H847.566V603ZM854.688 605.58C854.818 604.8 855.088 603.91 855.448 603L857.138 598.7H857.668V598H855.668V598.7H856.148L855.408 600.82C855.268 601.22 855.128 601.85 855.128 601.85H855.088C855.088 601.85 854.968 601.35 854.778 600.85L853.948 598.7H854.398V598H852.098V598.7H852.628L854.508 603.17C854.108 603.79 853.668 604.64 853.468 605.5L854.688 605.58ZM858.14 605.51H860.75V604.8H860.11V602.83C860.11 602.83 860.41 603.1 861.12 603.1C862.51 603.1 863.53 602.03 863.53 600.23C863.53 598.99 862.85 597.9 861.42 597.9C860.93 597.9 860.45 598.11 860.08 598.44L860.11 598.13L859.85 597.95L858.14 598L858.13 598.7H858.78V604.8H858.14V605.51ZM860.85 602.31C860.31 602.31 860.11 602.07 860.11 602.07V600.18C860.11 599.58 860.07 599.17 860.07 599.17C860.33 598.96 860.67 598.83 861.02 598.83C861.81 598.83 862.16 599.51 862.16 600.47C862.16 601.7 861.67 602.31 860.85 602.31ZM866.794 603H869.614C870.774 603 871.594 602.54 871.594 601.56C871.594 600.86 871.114 600.46 870.304 600.38V600.34C870.954 600.24 871.324 599.81 871.324 599.23C871.324 598.48 870.714 598 869.584 598H866.794V598.72H867.424V602.28H866.794V603ZM868.744 602.3V600.76H869.344C869.974 600.76 870.254 601.03 870.254 601.53C870.254 602.06 869.904 602.3 869.314 602.3H868.744ZM868.744 600.08V598.7H869.164C869.704 598.7 869.994 598.92 869.994 599.41C869.994 599.73 869.824 599.98 869.584 600.08H868.744ZM875.002 603H877.582V602.28H876.972V599.74H877.392L879.672 603H881.142V602.28H880.772L878.482 599.05L880.362 596.72H880.922V596H878.732V596.72H879.172L877.632 599.05H876.972V596.72H877.582V596H875.002V596.72H875.592V602.28H875.002V603ZM883.664 602.23C883.204 602.23 882.954 601.99 882.954 601.63C882.954 601.19 883.264 600.97 883.664 600.89C884.144 600.8 884.404 600.83 884.404 600.83V601.15C884.404 601.73 884.434 602.01 884.434 602.01C884.434 602.01 884.154 602.23 883.664 602.23ZM884.604 602.55C884.724 602.86 885.064 603.1 885.524 603.1C886.044 603.1 886.364 602.88 886.364 602.88V602.1C885.954 602.36 885.744 602.28 885.744 601.94L885.734 599.73C885.734 598.43 885.094 597.9 883.824 597.9C882.884 597.9 882.104 598.18 882.104 598.18V598.95C882.104 598.95 882.724 598.82 883.184 598.82C884.084 598.82 884.424 599.04 884.424 599.87V600.13C884.134 600.13 883.774 600.14 883.394 600.19C882.214 600.33 881.644 600.88 881.644 601.77C881.644 602.5 882.104 603.12 883.104 603.12C883.684 603.12 884.184 602.9 884.604 602.55ZM887.095 603H889.145V602.28H888.425L888.535 599.81C888.555 599.44 888.535 599.1 888.535 599.1H888.595C888.595 599.1 888.695 599.45 888.845 599.76L890.195 602.7H890.785L892.185 599.75C892.355 599.38 892.445 599.1 892.445 599.1H892.495C892.495 599.1 892.485 599.3 892.505 599.71L892.605 602.28H891.875V603H894.375V602.28H893.755L893.595 598.72H894.245V598H892.215L890.735 601.11L889.385 598H887.255V598.72H887.885L887.725 602.28H887.095V603ZM897.782 603.1C898.892 603.1 899.432 602.75 899.432 602.75V601.98C899.432 601.98 898.882 602.22 898.282 602.22C897.022 602.22 896.552 601.52 896.492 600.59H899.692C899.772 598.76 898.932 597.9 897.572 597.9C896.202 597.9 895.152 598.93 895.152 600.59C895.152 602.05 896.082 603.1 897.782 603.1ZM896.522 599.83C896.582 599.04 896.962 598.63 897.482 598.63C897.932 598.63 898.282 599.05 898.282 599.75L896.522 599.83ZM900.564 603H902.994V602.28H902.524V600.82H904.484V602.28H904.024V603H906.454V602.28H905.814V598.72H906.454V598H904.024V598.72H904.484V600.09H902.524V598.72H902.994V598H900.564V598.72H901.194V602.28H900.564V603ZM907.41 603H909.84V602.28H909.37V600.82H911.33V602.28H910.87V603H913.3V602.28H912.66V598.72H913.3V598H910.87V598.72H911.33V600.09H909.37V598.72H909.84V598H907.41V598.72H908.04V602.28H907.41V603ZM919.215 603H921.645V602.28H921.015V598.72H921.645V598H919.215V598.72H919.685V602.28H919.215V603ZM914.265 603H916.855C918.405 603 919.155 602.38 919.155 601.33C919.155 600.3 918.375 599.73 916.875 599.73H916.215V598.72H916.805V598H914.255V598.72H914.885V602.28H914.265V603ZM916.215 602.3V600.43H916.755C917.435 600.43 917.755 600.79 917.755 601.37C917.755 601.93 917.435 602.3 916.745 602.3H916.215ZM925.715 597.09C926.625 597.09 927.255 596.66 927.665 596.28L926.975 595.44C926.555 595.79 926.285 596.41 925.715 596.41C925.175 596.41 924.965 595.75 924.575 595.4L923.715 596.28C924.085 596.6 924.815 597.09 925.715 597.09ZM922.605 603H924.515L926.235 600.05C926.505 599.59 926.645 599.18 926.645 599.18H926.685C926.685 599.18 926.645 599.59 926.645 599.91V602.28H926.165V603H928.595V602.28H927.955V598.72H928.595V598H926.655L924.945 600.92C924.655 601.44 924.515 601.85 924.515 601.85H924.475C924.475 601.85 924.525 601.26 924.525 600.86V598.72H925.035V598H922.605V598.72H923.235V602.28H922.605V603ZM931.912 603H934.632V602.28H933.882V598.72H935.102L935.242 599.7H935.922L935.912 598H931.912V598.72H932.542V602.28H931.912V603ZM939.057 602.37C938.337 602.37 937.997 601.64 937.997 600.49C937.997 599.4 938.197 598.62 939.077 598.62C939.797 598.62 940.137 599.36 940.137 600.51C940.137 601.6 939.937 602.37 939.057 602.37ZM938.937 603.1C940.597 603.1 941.487 601.93 941.487 600.39C941.487 598.91 940.597 597.9 939.197 597.9C937.537 597.9 936.647 599.07 936.647 600.61C936.647 602.09 937.537 603.1 938.937 603.1ZM942.231 605.51H944.841V604.8H944.201V602.83C944.201 602.83 944.501 603.1 945.211 603.1C946.601 603.1 947.621 602.03 947.621 600.23C947.621 598.99 946.941 597.9 945.511 597.9C945.021 597.9 944.541 598.11 944.171 598.44L944.201 598.13L943.941 597.95L942.231 598L942.221 598.7H942.871V604.8H942.231V605.51ZM944.941 602.31C944.401 602.31 944.201 602.07 944.201 602.07V600.18C944.201 599.58 944.161 599.17 944.161 599.17C944.421 598.96 944.761 598.83 945.111 598.83C945.901 598.83 946.251 599.51 946.251 600.47C946.251 601.7 945.761 602.31 944.941 602.31ZM950.893 602.37C950.173 602.37 949.833 601.64 949.833 600.49C949.833 599.4 950.033 598.62 950.913 598.62C951.633 598.62 951.973 599.36 951.973 600.51C951.973 601.6 951.773 602.37 950.893 602.37ZM950.773 603.1C952.433 603.1 953.323 601.93 953.323 600.39C953.323 598.91 952.433 597.9 951.033 597.9C949.373 597.9 948.483 599.07 948.483 600.61C948.483 602.09 949.373 603.1 950.773 603.1ZM953.798 604.67H954.548L954.748 603H958.448L958.648 604.67H959.408L959.448 602.28H958.668L958.658 598.72H959.318V598H954.548V598.72H955.268C955.248 600.47 955.018 601.58 954.218 602.28H953.778L953.798 604.67ZM955.218 602.28C955.818 601.68 956.038 600.55 956.088 598.72H957.348V602.28H955.218ZM851.37 614H853.28L855 611.05C855.27 610.59 855.41 610.18 855.41 610.18H855.45C855.45 610.18 855.41 610.59 855.41 610.91V613.28H854.93V614H857.36V613.28H856.72V609.72H857.36V609H855.42L853.71 611.92C853.42 612.44 853.28 612.85 853.28 612.85H853.24C853.24 612.85 853.29 612.26 853.29 611.86V609.72H853.8V609H851.37V609.72H852V613.28H851.37V614ZM862.296 614.1C863.286 614.1 863.686 613.38 864.066 612.51L866.146 607.72H866.726V607H864.476V607.72H865.206L864.046 610.64C863.926 610.96 863.846 611.28 863.846 611.28H863.836C863.836 611.28 863.736 610.99 863.576 610.64L862.196 607.72H862.796V607H860.266V607.72H860.826L863.156 612.56C862.936 612.93 862.616 613.1 862.226 613.1C861.926 613.1 861.586 613.02 861.586 613.02L861.616 613.96C861.616 613.96 861.856 614.1 862.296 614.1ZM868.966 614.1C869.896 614.1 870.396 613.75 870.396 613.75V612.98C870.396 612.98 869.976 613.21 869.236 613.21C868.356 613.21 867.806 612.5 867.806 611.38C867.806 610.41 868.196 609.76 868.846 609.76C869.406 609.76 869.536 610.03 870.166 610.17L870.436 609.05C869.966 609 869.596 608.9 868.986 608.9C867.526 608.9 866.456 609.88 866.456 611.59C866.456 613.14 867.516 614.1 868.966 614.1ZM871.243 614H873.833C875.383 614 876.133 613.38 876.133 612.33C876.133 611.3 875.353 610.73 873.853 610.73H873.193V609.72H873.783V609H871.233V609.72H871.863V613.28H871.243V614ZM873.193 613.3V611.43H873.733C874.413 611.43 874.733 611.79 874.733 612.37C874.733 612.93 874.413 613.3 873.723 613.3H873.193ZM876.907 614H879.727C880.887 614 881.707 613.54 881.707 612.56C881.707 611.86 881.227 611.46 880.417 611.38V611.34C881.067 611.24 881.437 610.81 881.437 610.23C881.437 609.48 880.827 609 879.697 609H876.907V609.72H877.537V613.28H876.907V614ZM878.857 613.3V611.76H879.457C880.087 611.76 880.367 612.03 880.367 612.53C880.367 613.06 880.017 613.3 879.427 613.3H878.857ZM878.857 611.08V609.7H879.277C879.817 609.7 880.107 609.92 880.107 610.41C880.107 610.73 879.937 610.98 879.697 611.08H878.857ZM882.581 614H884.491L886.211 611.05C886.481 610.59 886.621 610.18 886.621 610.18H886.661C886.661 610.18 886.621 610.59 886.621 610.91V613.28H886.141V614H888.571V613.28H887.931V609.72H888.571V609H886.631L884.921 611.92C884.631 612.44 884.491 612.85 884.491 612.85H884.451C884.451 612.85 884.501 612.26 884.501 611.86V609.72H885.011V609H882.581V609.72H883.211V613.28H882.581V614ZM889.534 614H891.964V613.28H891.494V611.82H893.454V613.28H892.994V614H895.424V613.28H894.784V609.72H895.424V609H892.994V609.72H893.454V611.09H891.494V609.72H891.964V609H889.534V609.72H890.164V613.28H889.534V614ZM898.781 614.1C899.711 614.1 900.211 613.75 900.211 613.75V612.98C900.211 612.98 899.791 613.21 899.051 613.21C898.171 613.21 897.621 612.5 897.621 611.38C897.621 610.41 898.011 609.76 898.661 609.76C899.221 609.76 899.351 610.03 899.981 610.17L900.251 609.05C899.781 609 899.411 608.9 898.801 608.9C897.341 608.9 896.271 609.88 896.271 611.59C896.271 613.14 897.331 614.1 898.781 614.1ZM901.057 614H903.487V613.28H903.007V611.8H903.407L904.977 614H906.407V613.28H906.027L904.397 611.1L905.777 609.72H906.257V609H904.207V609.72H904.717L903.597 611.11H903.007V609.72H903.477V609H901.047V609.72H901.677V613.28H901.057V614ZM907.17 614H909.08L910.8 611.05C911.07 610.59 911.21 610.18 911.21 610.18H911.25C911.25 610.18 911.21 610.59 911.21 610.91V613.28H910.73V614H913.16V613.28H912.52V609.72H913.16V609H911.22L909.51 611.92C909.22 612.44 909.08 612.85 909.08 612.85H909.04C909.04 612.85 909.09 612.26 909.09 611.86V609.72H909.6V609H907.17V609.72H907.8V613.28H907.17V614ZM916.645 614.1C917.755 614.1 918.295 613.75 918.295 613.75V612.98C918.295 612.98 917.745 613.22 917.145 613.22C915.885 613.22 915.415 612.52 915.355 611.59H918.555C918.635 609.76 917.795 608.9 916.435 608.9C915.065 608.9 914.015 609.93 914.015 611.59C914.015 613.05 914.945 614.1 916.645 614.1ZM915.385 610.83C915.445 610.04 915.825 609.63 916.345 609.63C916.795 609.63 917.145 610.05 917.145 610.75L915.385 610.83ZM924.23 614.1C925.16 614.1 925.66 613.75 925.66 613.75V612.98C925.66 612.98 925.24 613.21 924.5 613.21C923.62 613.21 923.07 612.5 923.07 611.38C923.07 610.41 923.46 609.76 924.11 609.76C924.67 609.76 924.8 610.03 925.43 610.17L925.7 609.05C925.23 609 924.86 608.9 924.25 608.9C922.79 608.9 921.72 609.88 921.72 611.59C921.72 613.14 922.78 614.1 924.23 614.1ZM927.387 614H929.917V613.28H929.317V609.72H930.247L930.367 610.62H931.007L930.967 609H926.337L926.297 610.62H926.937L927.057 609.72H927.967V613.28H927.387V614ZM934.13 613.37C933.41 613.37 933.07 612.64 933.07 611.49C933.07 610.4 933.27 609.62 934.15 609.62C934.87 609.62 935.21 610.36 935.21 611.51C935.21 612.6 935.01 613.37 934.13 613.37ZM934.01 614.1C935.67 614.1 936.56 612.93 936.56 611.39C936.56 609.91 935.67 608.9 934.27 608.9C932.61 608.9 931.72 610.07 931.72 611.61C931.72 613.09 932.61 614.1 934.01 614.1ZM937.555 614.06C938.645 614.06 939.275 612.81 939.355 609.72H940.545V613.28H939.985V614H942.515V613.28H941.875V609.72H942.515V609H937.865V609.72H938.555C938.535 611.54 938.165 612.98 937.365 612.98C937.235 612.98 937.075 612.96 937.075 612.96L937.115 613.98C937.115 613.98 937.215 614.06 937.555 614.06ZM946 614.1C947.43 614.1 948.38 613.1 948.38 611.42C948.38 610.08 947.55 609.17 946.23 609.17C945.24 609.17 944.63 609.64 944.34 610.54H944.28C944.4 609.11 944.7 608.28 946.3 607.96C947.04 607.82 947.6 607.71 948.08 607.55L947.81 606.48C947.3 606.65 946.78 606.76 946 606.92C944.18 607.31 943.58 608.53 943.58 611.04C943.58 613.1 944.49 614.1 946 614.1ZM946 613.44C945.3 613.44 944.92 612.54 944.92 611.52C944.92 610.63 945.29 609.89 946 609.89C946.68 609.89 947.06 610.62 947.06 611.82C947.06 612.77 946.69 613.44 946 613.44ZM954.201 614H956.631V613.28H956.001V609.72H956.631V609H954.201V609.72H954.671V613.28H954.201V614ZM949.251 614H951.841C953.391 614 954.141 613.38 954.141 612.33C954.141 611.3 953.361 610.73 951.861 610.73H951.201V609.72H951.791V609H949.241V609.72H949.871V613.28H949.251V614ZM951.201 613.3V611.43H951.741C952.421 611.43 952.741 611.79 952.741 612.37C952.741 612.93 952.421 613.3 951.731 613.3H951.201Z" fill="#3D496A"/>
<path fill-rule="evenodd" clip-rule="evenodd" d="M1015.96 49L1012.5 43L1009.04 49H968C966.343 49 965 50.3433 965 52V76C965 77.6567 966.343 79 968 79H1057C1058.66 79 1060 77.6567 1060 76V52C1060 50.3433 1058.66 49 1057 49H1015.96Z" fill="white"/>
<path d="M970.96 62H973.86V61.28H973.11V55.72H974.53L974.59 56.84H975.22L975.33 55H969.49L969.5 56.84H970.13L970.29 55.72H971.71V61.28H970.96V62ZM978.083 64.58C978.213 63.8 978.483 62.91 978.843 62L980.533 57.7H981.063V57H979.063V57.7H979.543L978.803 59.82C978.663 60.22 978.523 60.85 978.523 60.85H978.483C978.483 60.85 978.363 60.35 978.173 59.85L977.343 57.7H977.793V57H975.493V57.7H976.023L977.903 62.17C977.503 62.79 977.063 63.64 976.863 64.5L978.083 64.58ZM981.534 64.51H984.144V63.8H983.504V61.83C983.504 61.83 983.804 62.1 984.514 62.1C985.904 62.1 986.924 61.03 986.924 59.23C986.924 57.99 986.244 56.9 984.814 56.9C984.324 56.9 983.844 57.11 983.474 57.44L983.504 57.13L983.244 56.95L981.534 57L981.524 57.7H982.174V63.8H981.534V64.51ZM984.244 61.31C983.704 61.31 983.504 61.07 983.504 61.07V59.18C983.504 58.58 983.464 58.17 983.464 58.17C983.724 57.96 984.064 57.83 984.414 57.83C985.204 57.83 985.554 58.51 985.554 59.47C985.554 60.7 985.064 61.31 984.244 61.31ZM990.189 62H993.009C994.169 62 994.989 61.54 994.989 60.56C994.989 59.86 994.509 59.46 993.699 59.38V59.34C994.349 59.24 994.719 58.81 994.719 58.23C994.719 57.48 994.109 57 992.979 57H990.189V57.72H990.819V61.28H990.189V62ZM992.139 61.3V59.76H992.739C993.369 59.76 993.649 60.03 993.649 60.53C993.649 61.06 993.299 61.3 992.709 61.3H992.139ZM992.139 59.08V57.7H992.559C993.099 57.7 993.389 57.92 993.389 58.41C993.389 58.73 993.219 58.98 992.979 59.08H992.139ZM998.366 62H1001.19C1002.82 62 1003.88 61.28 1003.88 60.01C1003.88 59.08 1003.31 58.51 1002.48 58.32V58.29C1003.18 57.98 1003.59 57.46 1003.59 56.71C1003.59 55.61 1002.8 55 1000.95 55H998.366V55.72H999.006V61.28H998.366V62ZM1000.39 61.3V58.73H1001.19C1002.04 58.73 1002.48 59.14 1002.48 60.01C1002.48 60.74 1002.04 61.3 1001.19 61.3H1000.39ZM1000.39 58.05V55.7H1000.95C1001.86 55.7 1002.29 56.12 1002.29 56.85C1002.29 57.56 1001.81 58.05 1001.81 58.05H1000.39ZM1004.76 62H1006.67L1008.39 59.05C1008.66 58.59 1008.8 58.18 1008.8 58.18H1008.84C1008.84 58.18 1008.8 58.59 1008.8 58.91V61.28H1008.32V62H1010.75V61.28H1010.11V57.72H1010.75V57H1008.81L1007.1 59.92C1006.81 60.44 1006.67 60.85 1006.67 60.85H1006.63C1006.63 60.85 1006.68 60.26 1006.68 59.86V57.72H1007.19V57H1004.76V57.72H1005.39V61.28H1004.76V62ZM1011.71 62H1020.06V61.28H1019.41V57.72H1020.06V57H1017.63V57.72H1018.08V61.28H1016.51V57.72H1016.95V57H1014.8V57.72H1015.26V61.28H1013.67V57.72H1014.14V57H1011.71V57.72H1012.34V61.28H1011.71V62ZM1023.53 62.1C1024.64 62.1 1025.18 61.75 1025.18 61.75V60.98C1025.18 60.98 1024.63 61.22 1024.03 61.22C1022.77 61.22 1022.3 60.52 1022.24 59.59H1025.44C1025.52 57.76 1024.68 56.9 1023.32 56.9C1021.95 56.9 1020.9 57.93 1020.9 59.59C1020.9 61.05 1021.83 62.1 1023.53 62.1ZM1022.27 58.83C1022.33 58.04 1022.71 57.63 1023.23 57.63C1023.68 57.63 1024.03 58.05 1024.03 58.75L1022.27 58.83ZM1026.2 64.51H1028.81V63.8H1028.17V61.83C1028.17 61.83 1028.47 62.1 1029.18 62.1C1030.57 62.1 1031.59 61.03 1031.59 59.23C1031.59 57.99 1030.91 56.9 1029.48 56.9C1028.99 56.9 1028.51 57.11 1028.14 57.44L1028.17 57.13L1027.91 56.95L1026.2 57L1026.19 57.7H1026.84V63.8H1026.2V64.51ZM1028.91 61.31C1028.37 61.31 1028.17 61.07 1028.17 61.07V59.18C1028.17 58.58 1028.13 58.17 1028.13 58.17C1028.39 57.96 1028.73 57.83 1029.08 57.83C1029.87 57.83 1030.22 58.51 1030.22 59.47C1030.22 60.7 1029.73 61.31 1028.91 61.31ZM1034.95 62.1C1035.88 62.1 1036.38 61.75 1036.38 61.75V60.98C1036.38 60.98 1035.96 61.21 1035.22 61.21C1034.34 61.21 1033.79 60.5 1033.79 59.38C1033.79 58.41 1034.18 57.76 1034.83 57.76C1035.39 57.76 1035.52 58.03 1036.15 58.17L1036.42 57.05C1035.95 57 1035.58 56.9 1034.97 56.9C1033.51 56.9 1032.44 57.88 1032.44 59.59C1032.44 61.14 1033.5 62.1 1034.95 62.1ZM1037.23 62H1039.66V61.28H1039.18V59.8H1039.58L1041.15 62H1042.58V61.28H1042.2L1040.57 59.1L1041.95 57.72H1042.43V57H1040.38V57.72H1040.89L1039.77 59.11H1039.18V57.72H1039.65V57H1037.22V57.72H1037.85V61.28H1037.23V62ZM1043.34 62H1045.25L1046.97 59.05C1047.24 58.59 1047.38 58.18 1047.38 58.18H1047.42C1047.42 58.18 1047.38 58.59 1047.38 58.91V61.28H1046.9V62H1049.33V61.28H1048.69V57.72H1049.33V57H1047.39L1045.68 59.92C1045.39 60.44 1045.25 60.85 1045.25 60.85H1045.21C1045.21 60.85 1045.26 60.26 1045.26 59.86V57.72H1045.77V57H1043.34V57.72H1043.97V61.28H1043.34V62ZM1053.41 56.09C1054.32 56.09 1054.95 55.66 1055.36 55.28L1054.67 54.44C1054.25 54.79 1053.98 55.41 1053.41 55.41C1052.87 55.41 1052.66 54.75 1052.27 54.4L1051.41 55.28C1051.78 55.6 1052.51 56.09 1053.41 56.09ZM1050.3 62H1052.21L1053.93 59.05C1054.2 58.59 1054.34 58.18 1054.34 58.18H1054.38C1054.38 58.18 1054.34 58.59 1054.34 58.91V61.28H1053.86V62H1056.29V61.28H1055.65V57.72H1056.29V57H1054.35L1052.64 59.92C1052.35 60.44 1052.21 60.85 1052.21 60.85H1052.17C1052.17 60.85 1052.22 60.26 1052.22 59.86V57.72H1052.73V57H1050.3V57.72H1050.93V61.28H1050.3V62ZM985.414 73.1C986.564 73.1 987.414 72.46 987.414 71.52C987.414 70.84 986.844 70.47 986.154 70.41V70.37C986.874 70.23 987.244 69.82 987.244 69.22C987.244 68.38 986.474 67.9 985.364 67.9C984.664 67.9 984.254 68.01 983.734 68.08L983.934 69.15C984.554 68.96 984.844 68.69 985.324 68.69C985.744 68.69 985.924 68.94 985.924 69.31C985.924 69.82 985.584 70.06 985.014 70.06H984.614V70.78H985.034C985.684 70.78 986.074 70.98 986.074 71.43C986.074 72.03 985.634 72.28 984.974 72.28C984.294 72.28 983.764 71.99 983.764 71.99V72.74C983.764 72.74 984.274 73.1 985.414 73.1ZM990.15 72.23C989.69 72.23 989.44 71.99 989.44 71.63C989.44 71.19 989.75 70.97 990.15 70.89C990.63 70.8 990.89 70.83 990.89 70.83V71.15C990.89 71.73 990.92 72.01 990.92 72.01C990.92 72.01 990.64 72.23 990.15 72.23ZM991.09 72.55C991.21 72.86 991.55 73.1 992.01 73.1C992.53 73.1 992.85 72.88 992.85 72.88V72.1C992.44 72.36 992.23 72.28 992.23 71.94L992.22 69.73C992.22 68.43 991.58 67.9 990.31 67.9C989.37 67.9 988.59 68.18 988.59 68.18V68.95C988.59 68.95 989.21 68.82 989.67 68.82C990.57 68.82 990.91 69.04 990.91 69.87V70.13C990.62 70.13 990.26 70.14 989.88 70.19C988.7 70.33 988.13 70.88 988.13 71.77C988.13 72.5 988.59 73.12 989.59 73.12C990.17 73.12 990.67 72.9 991.09 72.55ZM993.661 73H996.091V72.28H995.621V68.72H997.451V72.28H996.991V73H999.421V72.28H998.781V68.72H999.421V68H993.661V68.72H994.291V72.28H993.661V73ZM1002.69 72.37C1001.97 72.37 1001.63 71.64 1001.63 70.49C1001.63 69.4 1001.83 68.62 1002.71 68.62C1003.43 68.62 1003.77 69.36 1003.77 70.51C1003.77 71.6 1003.57 72.37 1002.69 72.37ZM1002.57 73.1C1004.23 73.1 1005.12 71.93 1005.12 70.39C1005.12 68.91 1004.23 67.9 1002.83 67.9C1001.17 67.9 1000.28 69.07 1000.28 70.61C1000.28 72.09 1001.17 73.1 1002.57 73.1ZM1005.98 73H1008.8C1009.96 73 1010.78 72.54 1010.78 71.56C1010.78 70.86 1010.3 70.46 1009.49 70.38V70.34C1010.14 70.24 1010.51 69.81 1010.51 69.23C1010.51 68.48 1009.9 68 1008.77 68H1005.98V68.72H1006.61V72.28H1005.98V73ZM1007.93 72.3V70.76H1008.53C1009.16 70.76 1009.44 71.03 1009.44 71.53C1009.44 72.06 1009.09 72.3 1008.5 72.3H1007.93ZM1007.93 70.08V68.7H1008.35C1008.89 68.7 1009.18 68.92 1009.18 69.41C1009.18 69.73 1009.01 69.98 1008.77 70.08H1007.93ZM1014.22 73.1C1015.33 73.1 1015.87 72.75 1015.87 72.75V71.98C1015.87 71.98 1015.32 72.22 1014.72 72.22C1013.46 72.22 1012.99 71.52 1012.93 70.59H1016.13C1016.21 68.76 1015.37 67.9 1014.01 67.9C1012.64 67.9 1011.59 68.93 1011.59 70.59C1011.59 72.05 1012.52 73.1 1014.22 73.1ZM1012.96 69.83C1013.02 69.04 1013.4 68.63 1013.92 68.63C1014.37 68.63 1014.72 69.05 1014.72 69.75L1012.96 69.83ZM1016.61 74.67H1017.36L1017.56 73H1021.26L1021.46 74.67H1022.22L1022.26 72.28H1021.48L1021.47 68.72H1022.13V68H1017.36V68.72H1018.08C1018.06 70.47 1017.83 71.58 1017.03 72.28H1016.59L1016.61 74.67ZM1018.03 72.28C1018.63 71.68 1018.85 70.55 1018.9 68.72H1020.16V72.28H1018.03ZM1023.1 73H1025.53V72.28H1025.06V70.82H1027.02V72.28H1026.56V73H1028.99V72.28H1028.35V68.72H1028.99V68H1026.56V68.72H1027.02V70.09H1025.06V68.72H1025.53V68H1023.1V68.72H1023.73V72.28H1023.1V73ZM1029.95 73H1031.86L1033.58 70.05C1033.85 69.59 1033.99 69.18 1033.99 69.18H1034.03C1034.03 69.18 1033.99 69.59 1033.99 69.91V72.28H1033.51V73H1035.94V72.28H1035.3V68.72H1035.94V68H1034L1032.29 70.92C1032 71.44 1031.86 71.85 1031.86 71.85H1031.82C1031.82 71.85 1031.87 71.26 1031.87 70.86V68.72H1032.38V68H1029.95V68.72H1030.58V72.28H1029.95V73ZM1036.91 73H1039.34V72.28H1038.86V70.8H1039.26L1040.83 73H1042.26V72.28H1041.88L1040.25 70.1L1041.63 68.72H1042.11V68H1040.06V68.72H1040.57L1039.45 70.11H1038.86V68.72H1039.33V68H1036.9V68.72H1037.53V72.28H1036.91V73Z" fill="#3D496A"/>
<path fill-rule="evenodd" clip-rule="evenodd" d="M824.965 243L821.5 237L818.035 243H777C775.343 243 774 244.343 774 246V270C774 271.657 775.343 273 777 273H866C867.657 273 869 271.657 869 270V246C869 244.343 867.657 243 866 243H824.965Z" fill="white"/>
<path d="M787.226 256H790.126V255.28H789.376V249.72H790.796L790.856 250.84H791.486L791.596 249H785.756L785.766 250.84H786.396L786.556 249.72H787.976V255.28H787.226V256ZM794.348 258.58C794.478 257.8 794.748 256.91 795.108 256L796.798 251.7H797.328V251H795.328V251.7H795.808L795.068 253.82C794.928 254.22 794.788 254.85 794.788 254.85H794.748C794.748 254.85 794.628 254.35 794.438 253.85L793.608 251.7H794.058V251H791.758V251.7H792.288L794.168 256.17C793.768 256.79 793.328 257.64 793.128 258.5L794.348 258.58ZM797.8 258.51H800.41V257.8H799.77V255.83C799.77 255.83 800.07 256.1 800.78 256.1C802.17 256.1 803.19 255.03 803.19 253.23C803.19 251.99 802.51 250.9 801.08 250.9C800.59 250.9 800.11 251.11 799.74 251.44L799.77 251.13L799.51 250.95L797.8 251L797.79 251.7H798.44V257.8H797.8V258.51ZM800.51 255.31C799.97 255.31 799.77 255.07 799.77 255.07V253.18C799.77 252.58 799.73 252.17 799.73 252.17C799.99 251.96 800.33 251.83 800.68 251.83C801.47 251.83 801.82 252.51 801.82 253.47C801.82 254.7 801.33 255.31 800.51 255.31ZM806.455 256H808.885V255.28H808.415V253.82H810.375V255.28H809.915V256H812.345V255.28H811.705V251.72H812.345V251H809.915V251.72H810.375V253.09H808.415V251.72H808.885V251H806.455V251.72H807.085V255.28H806.455V256ZM815.16 255.23C814.7 255.23 814.45 254.99 814.45 254.63C814.45 254.19 814.76 253.97 815.16 253.89C815.64 253.8 815.9 253.83 815.9 253.83V254.15C815.9 254.73 815.93 255.01 815.93 255.01C815.93 255.01 815.65 255.23 815.16 255.23ZM816.1 255.55C816.22 255.86 816.56 256.1 817.02 256.1C817.54 256.1 817.86 255.88 817.86 255.88V255.1C817.45 255.36 817.24 255.28 817.24 254.94L817.23 252.73C817.23 251.43 816.59 250.9 815.32 250.9C814.38 250.9 813.6 251.18 813.6 251.18V251.95C813.6 251.95 814.22 251.82 814.68 251.82C815.58 251.82 815.92 252.04 815.92 252.87V253.13C815.63 253.13 815.27 253.14 814.89 253.19C813.71 253.33 813.14 253.88 813.14 254.77C813.14 255.5 813.6 256.12 814.6 256.12C815.18 256.12 815.68 255.9 816.1 255.55ZM821.175 256H823.995C825.625 256 826.685 255.28 826.685 254.01C826.685 253.08 826.115 252.51 825.285 252.32V252.29C825.985 251.98 826.395 251.46 826.395 250.71C826.395 249.61 825.605 249 823.755 249H821.175V249.72H821.815V255.28H821.175V256ZM823.195 255.3V252.73H823.995C824.845 252.73 825.285 253.14 825.285 254.01C825.285 254.74 824.845 255.3 823.995 255.3H823.195ZM823.195 252.05V249.7H823.755C824.665 249.7 825.095 250.12 825.095 250.85C825.095 251.56 824.615 252.05 824.615 252.05H823.195ZM830.206 256.1C831.316 256.1 831.856 255.75 831.856 255.75V254.98C831.856 254.98 831.306 255.22 830.706 255.22C829.446 255.22 828.976 254.52 828.916 253.59H832.116C832.196 251.76 831.356 250.9 829.996 250.9C828.626 250.9 827.576 251.93 827.576 253.59C827.576 255.05 828.506 256.1 830.206 256.1ZM828.946 252.83C829.006 252.04 829.386 251.63 829.906 251.63C830.356 251.63 830.706 252.05 830.706 252.75L828.946 252.83ZM833.878 256H836.408V255.28H835.808V251.72H836.738L836.858 252.62H837.498L837.458 251H832.828L832.788 252.62H833.428L833.548 251.72H834.458V255.28H833.878V256ZM838.304 256.06C839.394 256.06 840.024 254.81 840.104 251.72H841.294V255.28H840.734V256H843.264V255.28H842.624V251.72H843.264V251H838.614V251.72H839.304C839.284 253.54 838.914 254.98 838.114 254.98C837.984 254.98 837.824 254.96 837.824 254.96L837.864 255.98C837.864 255.98 837.964 256.06 838.304 256.06ZM846.088 255.23C845.628 255.23 845.378 254.99 845.378 254.63C845.378 254.19 845.688 253.97 846.088 253.89C846.568 253.8 846.828 253.83 846.828 253.83V254.15C846.828 254.73 846.858 255.01 846.858 255.01C846.858 255.01 846.578 255.23 846.088 255.23ZM847.028 255.55C847.148 255.86 847.488 256.1 847.948 256.1C848.468 256.1 848.788 255.88 848.788 255.88V255.1C848.378 255.36 848.168 255.28 848.168 254.94L848.158 252.73C848.158 251.43 847.518 250.9 846.248 250.9C845.308 250.9 844.528 251.18 844.528 251.18V251.95C844.528 251.95 845.148 251.82 845.608 251.82C846.508 251.82 846.848 252.04 846.848 252.87V253.13C846.558 253.13 846.198 253.14 845.818 253.19C844.638 253.33 844.068 253.88 844.068 254.77C844.068 255.5 844.528 256.12 845.528 256.12C846.108 256.12 846.608 255.9 847.028 255.55ZM849.599 256H852.029V255.28H851.559V253.82H853.519V255.28H853.059V256H855.489V255.28H854.849V251.72H855.489V251H853.059V251.72H853.519V253.09H851.559V251.72H852.029V251H849.599V251.72H850.229V255.28H849.599V256ZM856.805 257.79C857.535 257.23 857.965 256.22 857.965 255.44C857.965 254.84 857.675 254.63 857.255 254.63C856.715 254.63 856.485 254.99 856.485 255.36C856.485 255.76 856.755 256.07 857.095 256.09C856.915 256.6 856.615 257.05 856.285 257.39L856.805 257.79ZM779.769 267H782.349V266.28H781.789V260.73H784.749V266.28H784.189V267H786.769V266.28H786.129V260.73H786.769V260H779.769V260.73H780.409V266.28H779.769V267ZM790.055 266.37C789.335 266.37 788.995 265.64 788.995 264.49C788.995 263.4 789.195 262.62 790.075 262.62C790.795 262.62 791.135 263.36 791.135 264.51C791.135 265.6 790.935 266.37 790.055 266.37ZM789.935 267.1C791.595 267.1 792.485 265.93 792.485 264.39C792.485 262.91 791.595 261.9 790.195 261.9C788.535 261.9 787.645 263.07 787.645 264.61C787.645 266.09 788.535 267.1 789.935 267.1ZM793.48 267.06C794.57 267.06 795.2 265.81 795.28 262.72H796.47V266.28H795.91V267H798.44V266.28H797.8V262.72H798.44V262H793.79V262.72H794.48C794.46 264.54 794.09 265.98 793.29 265.98C793.16 265.98 793 265.96 793 265.96L793.04 266.98C793.04 266.98 793.14 267.06 793.48 267.06ZM804.504 267.1C806.164 267.1 807.054 265.93 807.054 264.39C807.054 262.91 806.164 261.9 804.764 261.9C803.284 261.9 802.414 262.83 802.244 264.12H801.364V262.72H801.834V262H799.404V262.72H800.034V266.28H799.404V267H801.834V266.28H801.364V264.82H802.214C802.294 266.19 803.164 267.1 804.504 267.1ZM804.624 266.37C803.904 266.37 803.564 265.64 803.564 264.49C803.564 263.4 803.764 262.62 804.644 262.62C805.364 262.62 805.704 263.36 805.704 264.51C805.704 265.6 805.504 266.37 804.624 266.37ZM807.531 268.67H808.281L808.481 267H812.181L812.381 268.67H813.141L813.181 266.28H812.401L812.391 262.72H813.051V262H808.281V262.72H809.001C808.981 264.47 808.751 265.58 807.951 266.28H807.511L807.531 268.67ZM808.951 266.28C809.551 265.68 809.771 264.55 809.821 262.72H811.081V266.28H808.951ZM816.376 267H818.286L820.006 264.05C820.276 263.59 820.416 263.18 820.416 263.18H820.456C820.456 263.18 820.416 263.59 820.416 263.91V266.28H819.936V267H822.366V266.28H821.726V262.72H822.366V262H820.426L818.716 264.92C818.426 265.44 818.286 265.85 818.286 265.85H818.246C818.246 265.85 818.296 265.26 818.296 264.86V262.72H818.806V262H816.376V262.72H817.006V266.28H816.376V267ZM825.833 267H828.653C830.283 267 831.343 266.28 831.343 265.01C831.343 264.08 830.773 263.51 829.943 263.32V263.29C830.643 262.98 831.053 262.46 831.053 261.71C831.053 260.61 830.263 260 828.413 260H825.833V260.72H826.473V266.28H825.833V267ZM827.853 266.3V263.73H828.653C829.503 263.73 829.943 264.14 829.943 265.01C829.943 265.74 829.503 266.3 828.653 266.3H827.853ZM827.853 263.05V260.7H828.413C829.323 260.7 829.753 261.12 829.753 261.85C829.753 262.56 829.273 263.05 829.273 263.05H827.853ZM832.226 267H834.136L835.856 264.05C836.126 263.59 836.266 263.18 836.266 263.18H836.306C836.306 263.18 836.266 263.59 836.266 263.91V266.28H835.786V267H838.216V266.28H837.576V262.72H838.216V262H836.276L834.566 264.92C834.276 265.44 834.136 265.85 834.136 265.85H834.096C834.096 265.85 834.146 265.26 834.146 264.86V262.72H834.656V262H832.226V262.72H832.856V266.28H832.226V267ZM839.179 267H847.529V266.28H846.879V262.72H847.529V262H845.099V262.72H845.549V266.28H843.979V262.72H844.419V262H842.269V262.72H842.729V266.28H841.139V262.72H841.609V262H839.179V262.72H839.809V266.28H839.179V267ZM850.997 267.1C852.107 267.1 852.647 266.75 852.647 266.75V265.98C852.647 265.98 852.097 266.22 851.497 266.22C850.237 266.22 849.767 265.52 849.707 264.59H852.907C852.987 262.76 852.147 261.9 850.787 261.9C849.417 261.9 848.367 262.93 848.367 264.59C848.367 266.05 849.297 267.1 850.997 267.1ZM849.737 263.83C849.797 263.04 850.177 262.63 850.697 262.63C851.147 262.63 851.497 263.05 851.497 263.75L849.737 263.83ZM853.669 269.51H856.279V268.8H855.639V266.83C855.639 266.83 855.939 267.1 856.649 267.1C858.039 267.1 859.059 266.03 859.059 264.23C859.059 262.99 858.379 261.9 856.949 261.9C856.459 261.9 855.979 262.11 855.609 262.44L855.639 262.13L855.379 261.95L853.669 262L853.659 262.7H854.309V268.8H853.669V269.51ZM856.379 266.31C855.839 266.31 855.639 266.07 855.639 266.07V264.18C855.639 263.58 855.599 263.17 855.599 263.17C855.859 262.96 856.199 262.83 856.549 262.83C857.339 262.83 857.689 263.51 857.689 264.47C857.689 265.7 857.199 266.31 856.379 266.31ZM861.83 266.23C861.37 266.23 861.12 265.99 861.12 265.63C861.12 265.19 861.43 264.97 861.83 264.89C862.31 264.8 862.57 264.83 862.57 264.83V265.15C862.57 265.73 862.6 266.01 862.6 266.01C862.6 266.01 862.32 266.23 861.83 266.23ZM862.77 266.55C862.89 266.86 863.23 267.1 863.69 267.1C864.21 267.1 864.53 266.88 864.53 266.88V266.1C864.12 266.36 863.91 266.28 863.91 265.94L863.9 263.73C863.9 262.43 863.26 261.9 861.99 261.9C861.05 261.9 860.27 262.18 860.27 262.18V262.95C860.27 262.95 860.89 262.82 861.35 262.82C862.25 262.82 862.59 263.04 862.59 263.87V264.13C862.3 264.13 861.94 264.14 861.56 264.19C860.38 264.33 859.81 264.88 859.81 265.77C859.81 266.5 860.27 267.12 861.27 267.12C861.85 267.12 862.35 266.9 862.77 266.55Z" fill="#3D496A"/>
<path fill-rule="evenodd" clip-rule="evenodd" d="M737 94C735.343 94 734 95.3433 734 97V121C734 122.657 735.343 124 737 124H780.035L783.5 130L786.965 124H830C831.073 124 832.016 123.436 832.546 122.588C832.834 122.128 833 121.583 833 121V97C833 95.3433 831.657 94 830 94H737Z" fill="white"/>
<path d="M740.904 107H743.724C745.354 107 746.414 106.28 746.414 105.01C746.414 104.08 745.844 103.51 745.014 103.32V103.29C745.714 102.98 746.124 102.46 746.124 101.71C746.124 100.61 745.334 100 743.484 100H740.904V100.72H741.544V106.28H740.904V107ZM742.924 106.3V103.73H743.724C744.574 103.73 745.014 104.14 745.014 105.01C745.014 105.74 744.574 106.3 743.724 106.3H742.924ZM742.924 103.05V100.7H743.484C744.394 100.7 744.824 101.12 744.824 101.85C744.824 102.56 744.344 103.05 744.344 103.05H742.924ZM749.936 107.1C751.046 107.1 751.586 106.75 751.586 106.75V105.98C751.586 105.98 751.036 106.22 750.436 106.22C749.176 106.22 748.706 105.52 748.646 104.59H751.846C751.926 102.76 751.086 101.9 749.726 101.9C748.356 101.9 747.306 102.93 747.306 104.59C747.306 106.05 748.236 107.1 749.936 107.1ZM748.676 103.83C748.736 103.04 749.116 102.63 749.636 102.63C750.086 102.63 750.436 103.05 750.436 103.75L748.676 103.83ZM752.607 109.51H755.217V108.8H754.577V106.83C754.577 106.83 754.877 107.1 755.587 107.1C756.977 107.1 757.997 106.03 757.997 104.23C757.997 102.99 757.317 101.9 755.887 101.9C755.397 101.9 754.917 102.11 754.547 102.44L754.577 102.13L754.317 101.95L752.607 102L752.597 102.7H753.247V108.8H752.607V109.51ZM755.317 106.31C754.777 106.31 754.577 106.07 754.577 106.07V104.18C754.577 103.58 754.537 103.17 754.537 103.17C754.797 102.96 755.137 102.83 755.487 102.83C756.277 102.83 756.627 103.51 756.627 104.47C756.627 105.7 756.137 106.31 755.317 106.31ZM759.799 107H762.329V106.28H761.729V102.72H762.659L762.779 103.62H763.419L763.379 102H758.749L758.709 103.62H759.349L759.469 102.72H760.379V106.28H759.799V107ZM766.542 106.37C765.822 106.37 765.482 105.64 765.482 104.49C765.482 103.4 765.682 102.62 766.562 102.62C767.282 102.62 767.622 103.36 767.622 104.51C767.622 105.6 767.422 106.37 766.542 106.37ZM766.422 107.1C768.082 107.1 768.972 105.93 768.972 104.39C768.972 102.91 768.082 101.9 766.682 101.9C765.022 101.9 764.132 103.07 764.132 104.61C764.132 106.09 765.022 107.1 766.422 107.1ZM769.967 107.06C771.057 107.06 771.687 105.81 771.767 102.72H772.957V106.28H772.397V107H774.927V106.28H774.287V102.72H774.927V102H770.277V102.72H770.967C770.947 104.54 770.577 105.98 769.777 105.98C769.647 105.98 769.487 105.96 769.487 105.96L769.527 106.98C769.527 106.98 769.627 107.06 769.967 107.06ZM778.412 107.1C779.522 107.1 780.062 106.75 780.062 106.75V105.98C780.062 105.98 779.512 106.22 778.912 106.22C777.652 106.22 777.182 105.52 777.122 104.59H780.322C780.402 102.76 779.562 101.9 778.202 101.9C776.832 101.9 775.782 102.93 775.782 104.59C775.782 106.05 776.712 107.1 778.412 107.1ZM777.152 103.83C777.212 103.04 777.592 102.63 778.112 102.63C778.562 102.63 778.912 103.05 778.912 103.75L777.152 103.83ZM782.084 107H784.614V106.28H784.014V102.72H784.944L785.064 103.62H785.704L785.664 102H781.034L780.994 103.62H781.634L781.754 102.72H782.664V106.28H782.084V107ZM786.467 107H788.897V106.28H788.427V104.82H790.387V106.28H789.927V107H792.357V106.28H791.717V102.72H792.357V102H789.927V102.72H790.387V104.09H788.427V102.72H788.897V102H786.467V102.72H787.097V106.28H786.467V107ZM798.273 107H800.703V106.28H800.073V102.72H800.703V102H798.273V102.72H798.743V106.28H798.273V107ZM793.323 107H795.913C797.463 107 798.213 106.38 798.213 105.33C798.213 104.3 797.433 103.73 795.933 103.73H795.273V102.72H795.863V102H793.313V102.72H793.943V106.28H793.323V107ZM795.273 106.3V104.43H795.813C796.493 104.43 796.813 104.79 796.813 105.37C796.813 105.93 796.493 106.3 795.803 106.3H795.273ZM804.773 101.09C805.683 101.09 806.313 100.66 806.723 100.28L806.033 99.44C805.613 99.79 805.343 100.41 804.773 100.41C804.233 100.41 804.023 99.75 803.633 99.4L802.773 100.28C803.143 100.6 803.873 101.09 804.773 101.09ZM801.663 107H803.573L805.293 104.05C805.563 103.59 805.703 103.18 805.703 103.18H805.743C805.743 103.18 805.703 103.59 805.703 103.91V106.28H805.223V107H807.653V106.28H807.013V102.72H807.653V102H805.713L804.003 104.92C803.713 105.44 803.573 105.85 803.573 105.85H803.533C803.533 105.85 803.583 105.26 803.583 104.86V102.72H804.093V102H801.663V102.72H802.293V106.28H801.663V107ZM811.859 107H814.389V106.28H813.789V102.72H814.719L814.839 103.62H815.479L815.439 102H810.809L810.769 103.62H811.409L811.529 102.72H812.439V106.28H811.859V107ZM818.453 109.58C818.583 108.8 818.853 107.91 819.213 107L820.903 102.7H821.433V102H819.433V102.7H819.913L819.173 104.82C819.033 105.22 818.893 105.85 818.893 105.85H818.853C818.853 105.85 818.733 105.35 818.543 104.85L817.713 102.7H818.163V102H815.863V102.7H816.393L818.273 107.17C817.873 107.79 817.433 108.64 817.233 109.5L818.453 109.58ZM821.904 109.51H824.514V108.8H823.874V106.83C823.874 106.83 824.174 107.1 824.884 107.1C826.274 107.1 827.294 106.03 827.294 104.23C827.294 102.99 826.614 101.9 825.184 101.9C824.694 101.9 824.214 102.11 823.844 102.44L823.874 102.13L823.614 101.95L821.904 102L821.894 102.7H822.544V108.8H821.904V109.51ZM824.614 106.31C824.074 106.31 823.874 106.07 823.874 106.07V104.18C823.874 103.58 823.834 103.17 823.834 103.17C824.094 102.96 824.434 102.83 824.784 102.83C825.574 102.83 825.924 103.51 825.924 104.47C825.924 105.7 825.434 106.31 824.614 106.31ZM741.907 118H744.337V117.28H743.867V115.82H745.827V117.28H745.367V118H747.797V117.28H747.157V113.72H747.797V113H745.367V113.72H745.827V115.09H743.867V113.72H744.337V113H741.907V113.72H742.537V117.28H741.907V118ZM750.612 117.23C750.152 117.23 749.902 116.99 749.902 116.63C749.902 116.19 750.212 115.97 750.612 115.89C751.092 115.8 751.352 115.83 751.352 115.83V116.15C751.352 116.73 751.382 117.01 751.382 117.01C751.382 117.01 751.102 117.23 750.612 117.23ZM751.552 117.55C751.672 117.86 752.012 118.1 752.472 118.1C752.992 118.1 753.312 117.88 753.312 117.88V117.1C752.902 117.36 752.692 117.28 752.692 116.94L752.682 114.73C752.682 113.43 752.042 112.9 750.772 112.9C749.832 112.9 749.052 113.18 749.052 113.18V113.95C749.052 113.95 749.672 113.82 750.132 113.82C751.032 113.82 751.372 114.04 751.372 114.87V115.13C751.082 115.13 750.722 115.14 750.342 115.19C749.162 115.33 748.592 115.88 748.592 116.77C748.592 117.5 749.052 118.12 750.052 118.12C750.632 118.12 751.132 117.9 751.552 117.55ZM756.497 118H758.677V117.27H758.037V113.04C758.037 112.74 758.007 112.38 758.007 112.38L758.037 112.37C758.037 112.37 758.137 112.64 758.297 112.96L760.327 117H760.567L762.577 112.98C762.767 112.6 762.847 112.34 762.847 112.34L762.877 112.35C762.877 112.35 762.837 112.62 762.837 113V117.27H762.277V118H764.797V117.27H764.157V111.72H764.797V111H762.917L761.107 114.58C760.907 114.96 760.807 115.31 760.807 115.31H760.767C760.767 115.31 760.617 114.94 760.437 114.58L758.707 111H756.497V111.72H757.297V117.27H756.497V118ZM767.702 117.23C767.242 117.23 766.992 116.99 766.992 116.63C766.992 116.19 767.302 115.97 767.702 115.89C768.182 115.8 768.442 115.83 768.442 115.83V116.15C768.442 116.73 768.472 117.01 768.472 117.01C768.472 117.01 768.192 117.23 767.702 117.23ZM768.642 117.55C768.762 117.86 769.102 118.1 769.562 118.1C770.082 118.1 770.402 117.88 770.402 117.88V117.1C769.992 117.36 769.782 117.28 769.782 116.94L769.772 114.73C769.772 113.43 769.132 112.9 767.862 112.9C766.922 112.9 766.142 113.18 766.142 113.18V113.95C766.142 113.95 766.762 113.82 767.222 113.82C768.122 113.82 768.462 114.04 768.462 114.87V115.13C768.172 115.13 767.812 115.14 767.432 115.19C766.252 115.33 765.682 115.88 765.682 116.77C765.682 117.5 766.142 118.12 767.142 118.12C767.722 118.12 768.222 117.9 768.642 117.55ZM771.213 118H773.643V117.28H773.173V115.82H775.133V117.28H774.673V118H777.103V117.28H776.463V113.72H777.103V113H774.673V113.72H775.133V115.09H773.173V113.72H773.643V113H771.213V113.72H771.843V117.28H771.213V118ZM778.069 118H780.659C782.209 118 782.959 117.38 782.959 116.33C782.959 115.3 782.179 114.73 780.679 114.73H780.019V113.72H780.609V113H778.059V113.72H778.689V117.28H778.069V118ZM780.019 117.3V115.43H780.559C781.239 115.43 781.559 115.79 781.559 116.37C781.559 116.93 781.239 117.3 780.549 117.3H780.019ZM783.733 118H786.163V117.28H785.693V113.72H787.523V117.28H787.063V118H789.493V117.28H788.853V113.72H789.493V113H783.733V113.72H784.363V117.28H783.733V118ZM792.662 120.58C792.792 119.8 793.062 118.91 793.422 118L795.112 113.7H795.642V113H793.642V113.7H794.122L793.382 115.82C793.242 116.22 793.102 116.85 793.102 116.85H793.062C793.062 116.85 792.942 116.35 792.752 115.85L791.922 113.7H792.372V113H790.072V113.7H790.602L792.482 118.17C792.082 118.79 791.642 119.64 791.442 120.5L792.662 120.58ZM796.223 118H798.653V117.28H798.183V113.72H800.013V117.28H799.553V118H801.983V117.28H801.343V113.72H801.983V113H796.223V113.72H796.853V117.28H796.223V118ZM805.152 120.58C805.282 119.8 805.552 118.91 805.912 118L807.602 113.7H808.132V113H806.132V113.7H806.612L805.872 115.82C805.732 116.22 805.592 116.85 805.592 116.85H805.552C805.552 116.85 805.432 116.35 805.242 115.85L804.412 113.7H804.862V113H802.562V113.7H803.092L804.972 118.17C804.572 118.79 804.132 119.64 803.932 120.5L805.152 120.58ZM808.713 118H811.143V117.28H810.673V115.82H812.633V117.28H812.173V118H814.603V117.28H813.963V113.72H814.603V113H812.173V113.72H812.633V115.09H810.673V113.72H811.143V113H808.713V113.72H809.343V117.28H808.713V118ZM816.82 112.04C817.31 112.04 817.64 111.78 817.64 111.27C817.64 110.82 817.36 110.56 816.9 110.56C816.43 110.56 816.06 110.81 816.06 111.3C816.06 111.77 816.39 112.04 816.82 112.04ZM818.81 112.04C819.3 112.04 819.63 111.78 819.63 111.27C819.63 110.82 819.35 110.56 818.89 110.56C818.42 110.56 818.05 110.81 818.05 111.3C818.05 111.77 818.38 112.04 818.81 112.04ZM818.08 118.1C819.19 118.1 819.73 117.75 819.73 117.75V116.98C819.73 116.98 819.18 117.22 818.58 117.22C817.32 117.22 816.85 116.52 816.79 115.59H819.99C820.07 113.76 819.23 112.9 817.87 112.9C816.5 112.9 815.45 113.93 815.45 115.59C815.45 117.05 816.38 118.1 818.08 118.1ZM816.82 114.83C816.88 114.04 817.26 113.63 817.78 113.63C818.23 113.63 818.58 114.05 818.58 114.75L816.82 114.83ZM820.752 120.51H823.362V119.8H822.722V117.83C822.722 117.83 823.022 118.1 823.732 118.1C825.122 118.1 826.142 117.03 826.142 115.23C826.142 113.99 825.462 112.9 824.032 112.9C823.542 112.9 823.062 113.11 822.692 113.44L822.722 113.13L822.462 112.95L820.752 113L820.742 113.7H821.392V119.8H820.752V120.51ZM823.462 117.31C822.922 117.31 822.722 117.07 822.722 117.07V115.18C822.722 114.58 822.682 114.17 822.682 114.17C822.942 113.96 823.282 113.83 823.632 113.83C824.422 113.83 824.772 114.51 824.772 115.47C824.772 116.7 824.282 117.31 823.462 117.31Z" fill="#3D496A"/>
<defs>
<filter id="filter0_d" x="975" y="749" width="34" height="34" filterUnits="userSpaceOnUse" color-interpolation-filters="sRGB">
<feFlood flood-opacity="0" result="BackgroundImageFix"/>
<feColorMatrix in="SourceAlpha" type="matrix" values="0 0 0 0 0 0 0 0 0 0 0 0 0 0 0 0 0 0 127 0"/>
<feOffset/>
<feGaussianBlur stdDeviation="5"/>
<feColorMatrix type="matrix" values="0 0 0 0 1 0 0 0 0 1 0 0 0 0 1 0 0 0 0.5 0"/>
<feBlend mode="normal" in2="BackgroundImageFix" result="effect1_dropShadow"/>
<feBlend mode="normal" in="SourceGraphic" in2="effect1_dropShadow" result="shape"/>
</filter>
<filter id="filter1_d" x="963" y="737" width="58" height="58" filterUnits="userSpaceOnUse" color-interpolation-filters="sRGB">
<feFlood flood-opacity="0" result="BackgroundImageFix"/>
<feColorMatrix in="SourceAlpha" type="matrix" values="0 0 0 0 0 0 0 0 0 0 0 0 0 0 0 0 0 0 127 0"/>
<feOffset/>
<feGaussianBlur stdDeviation="3.5"/>
<feColorMatrix type="matrix" values="0 0 0 0 1 0 0 0 0 1 0 0 0 0 1 0 0 0 1 0"/>
<feBlend mode="normal" in2="BackgroundImageFix" result="effect1_dropShadow"/>
<feBlend mode="normal" in="SourceGraphic" in2="effect1_dropShadow" result="shape"/>
</filter>
<filter id="filter2_d" x="875" y="608" width="58" height="58" filterUnits="userSpaceOnUse" color-interpolation-filters="sRGB">
<feFlood flood-opacity="0" result="BackgroundImageFix"/>
<feColorMatrix in="SourceAlpha" type="matrix" values="0 0 0 0 0 0 0 0 0 0 0 0 0 0 0 0 0 0 127 0"/>
<feOffset/>
<feGaussianBlur stdDeviation="3.5"/>
<feColorMatrix type="matrix" values="0 0 0 0 1 0 0 0 0 1 0 0 0 0 1 0 0 0 1 0"/>
<feBlend mode="normal" in2="BackgroundImageFix" result="effect1_dropShadow"/>
<feBlend mode="normal" in="SourceGraphic" in2="effect1_dropShadow" result="shape"/>
</filter>
<filter id="filter3_d" x="793" y="198" width="58" height="58" filterUnits="userSpaceOnUse" color-interpolation-filters="sRGB">
<feFlood flood-opacity="0" result="BackgroundImageFix"/>
<feColorMatrix in="SourceAlpha" type="matrix" values="0 0 0 0 0 0 0 0 0 0 0 0 0 0 0 0 0 0 127 0"/>
<feOffset/>
<feGaussianBlur stdDeviation="3.5"/>
<feColorMatrix type="matrix" values="0 0 0 0 1 0 0 0 0 1 0 0 0 0 1 0 0 0 1 0"/>
<feBlend mode="normal" in2="BackgroundImageFix" result="effect1_dropShadow"/>
<feBlend mode="normal" in="SourceGraphic" in2="effect1_dropShadow" result="shape"/>
</filter>
<filter id="filter4_d" x="755" y="112" width="58" height="58" filterUnits="userSpaceOnUse" color-interpolation-filters="sRGB">
<feFlood flood-opacity="0" result="BackgroundImageFix"/>
<feColorMatrix in="SourceAlpha" type="matrix" values="0 0 0 0 0 0 0 0 0 0 0 0 0 0 0 0 0 0 127 0"/>
<feOffset/>
<feGaussianBlur stdDeviation="3.5"/>
<feColorMatrix type="matrix" values="0 0 0 0 1 0 0 0 0 1 0 0 0 0 1 0 0 0 1 0"/>
<feBlend mode="normal" in2="BackgroundImageFix" result="effect1_dropShadow"/>
<feBlend mode="normal" in="SourceGraphic" in2="effect1_dropShadow" result="shape"/>
</filter>
<filter id="filter5_d" x="984" y="0" width="58" height="58" filterUnits="userSpaceOnUse" color-interpolation-filters="sRGB">
<feFlood flood-opacity="0" result="BackgroundImageFix"/>
<feColorMatrix in="SourceAlpha" type="matrix" values="0 0 0 0 0 0 0 0 0 0 0 0 0 0 0 0 0 0 127 0"/>
<feOffset/>
<feGaussianBlur stdDeviation="3.5"/>
<feColorMatrix type="matrix" values="0 0 0 0 1 0 0 0 0 1 0 0 0 0 1 0 0 0 1 0"/>
<feBlend mode="normal" in2="BackgroundImageFix" result="effect1_dropShadow"/>
<feBlend mode="normal" in="SourceGraphic" in2="effect1_dropShadow" result="shape"/>
</filter>
<filter id="filter6_d" x="887" y="620" width="34" height="34" filterUnits="userSpaceOnUse" color-interpolation-filters="sRGB">
<feFlood flood-opacity="0" result="BackgroundImageFix"/>
<feColorMatrix in="SourceAlpha" type="matrix" values="0 0 0 0 0 0 0 0 0 0 0 0 0 0 0 0 0 0 127 0"/>
<feOffset/>
<feGaussianBlur stdDeviation="5"/>
<feColorMatrix type="matrix" values="0 0 0 0 1 0 0 0 0 1 0 0 0 0 1 0 0 0 0.5 0"/>
<feBlend mode="normal" in2="BackgroundImageFix" result="effect1_dropShadow"/>
<feBlend mode="normal" in="SourceGraphic" in2="effect1_dropShadow" result="shape"/>
</filter>
<filter id="filter7_d" x="805" y="210" width="34" height="34" filterUnits="userSpaceOnUse" color-interpolation-filters="sRGB">
<feFlood flood-opacity="0" result="BackgroundImageFix"/>
<feColorMatrix in="SourceAlpha" type="matrix" values="0 0 0 0 0 0 0 0 0 0 0 0 0 0 0 0 0 0 127 0"/>
<feOffset/>
<feGaussianBlur stdDeviation="5"/>
<feColorMatrix type="matrix" values="0 0 0 0 1 0 0 0 0 1 0 0 0 0 1 0 0 0 0.5 0"/>
<feBlend mode="normal" in2="BackgroundImageFix" result="effect1_dropShadow"/>
<feBlend mode="normal" in="SourceGraphic" in2="effect1_dropShadow" result="shape"/>
</filter>
<filter id="filter8_d" x="767" y="124" width="34" height="34" filterUnits="userSpaceOnUse" color-interpolation-filters="sRGB">
<feFlood flood-opacity="0" result="BackgroundImageFix"/>
<feColorMatrix in="SourceAlpha" type="matrix" values="0 0 0 0 0 0 0 0 0 0 0 0 0 0 0 0 0 0 127 0"/>
<feOffset/>
<feGaussianBlur stdDeviation="5"/>
<feColorMatrix type="matrix" values="0 0 0 0 1 0 0 0 0 1 0 0 0 0 1 0 0 0 0.5 0"/>
<feBlend mode="normal" in2="BackgroundImageFix" result="effect1_dropShadow"/>
<feBlend mode="normal" in="SourceGraphic" in2="effect1_dropShadow" result="shape"/>
</filter>
<filter id="filter9_d" x="996" y="12" width="34" height="34" filterUnits="userSpaceOnUse" color-interpolation-filters="sRGB">
<feFlood flood-opacity="0" result="BackgroundImageFix"/>
<feColorMatrix in="SourceAlpha" type="matrix" values="0 0 0 0 0 0 0 0 0 0 0 0 0 0 0 0 0 0 127 0"/>
<feOffset/>
<feGaussianBlur stdDeviation="5"/>
<feColorMatrix type="matrix" values="0 0 0 0 1 0 0 0 0 1 0 0 0 0 1 0 0 0 0.5 0"/>
<feBlend mode="normal" in2="BackgroundImageFix" result="effect1_dropShadow"/>
<feBlend mode="normal" in="SourceGraphic" in2="effect1_dropShadow" result="shape"/>
</filter>
<linearGradient id="paint0_linear" x1="987.758" y1="772.642" x2="991.481" y2="757.175" gradientUnits="userSpaceOnUse">
<stop stop-color="#FF6E41"/>
<stop offset="1" stop-color="#FFB800"/>
</linearGradient>
<linearGradient id="paint1_linear" x1="992" y1="788" x2="992" y2="744" gradientUnits="userSpaceOnUse">
<stop stop-color="#FF6E41"/>
<stop offset="1" stop-color="#FFB800"/>
</linearGradient>
<linearGradient id="paint2_linear" x1="904" y1="659" x2="904" y2="615" gradientUnits="userSpaceOnUse">
<stop stop-color="#FF6E41"/>
<stop offset="1" stop-color="#FFB800"/>
</linearGradient>
<linearGradient id="paint3_linear" x1="822" y1="249" x2="822" y2="205" gradientUnits="userSpaceOnUse">
<stop stop-color="#FF6E41"/>
<stop offset="1" stop-color="#FFB800"/>
</linearGradient>
<linearGradient id="paint4_linear" x1="784" y1="163" x2="784" y2="119" gradientUnits="userSpaceOnUse">
<stop stop-color="#FF6E41"/>
<stop offset="1" stop-color="#FFB800"/>
</linearGradient>
<linearGradient id="paint5_linear" x1="1013" y1="51" x2="1013" y2="7" gradientUnits="userSpaceOnUse">
<stop stop-color="#FF6E41"/>
<stop offset="1" stop-color="#FFB800"/>
</linearGradient>
<linearGradient id="paint6_linear" x1="899.758" y1="643.642" x2="903.481" y2="628.175" gradientUnits="userSpaceOnUse">
<stop stop-color="#FF6E41"/>
<stop offset="1" stop-color="#FFB800"/>
</linearGradient>
<linearGradient id="paint7_linear" x1="817.758" y1="233.642" x2="821.481" y2="218.175" gradientUnits="userSpaceOnUse">
<stop stop-color="#FF6E41"/>
<stop offset="1" stop-color="#FFB800"/>
</linearGradient>
<linearGradient id="paint8_linear" x1="779.758" y1="147.642" x2="783.481" y2="132.175" gradientUnits="userSpaceOnUse">
<stop stop-color="#FF6E41"/>
<stop offset="1" stop-color="#FFB800"/>
</linearGradient>
<linearGradient id="paint9_linear" x1="1008.76" y1="35.6425" x2="1012.48" y2="20.1747" gradientUnits="userSpaceOnUse">
<stop stop-color="#FF6E41"/>
<stop offset="1" stop-color="#FFB800"/>
</linearGradient>
</defs>
</svg>
