<svg width="1484" height="1080" viewBox="0 0 1484 1080" fill="none" xmlns="http://www.w3.org/2000/svg">
<rect width="1484" height="1080" fill="black" fill-opacity="0"/>
<rect width="320" height="842" fill="black" fill-opacity="0" transform="translate(606 152)"/>
<g filter="url(#filter0_d)">
<circle cx="722" cy="795" r="12" fill="white"/>
<circle cx="722" cy="795" r="11" stroke="#D92968" stroke-width="2"/>
</g>
<g filter="url(#filter1_d)">
<circle cx="819.588" cy="931.588" r="6" fill="white"/>
<circle cx="819.588" cy="931.588" r="5.5" stroke="#D92968"/>
</g>
<g filter="url(#filter2_d)">
<circle cx="722.588" cy="748.588" r="6" fill="white"/>
<circle cx="722.588" cy="748.588" r="5.5" stroke="#D92968"/>
</g>
<g filter="url(#filter3_d)">
<circle cx="776.588" cy="427.588" r="6" fill="white"/>
<circle cx="776.588" cy="427.588" r="5.5" stroke="#D92968"/>
</g>
<g filter="url(#filter4_d)">
<circle cx="745" cy="250" r="6" fill="white"/>
<circle cx="745" cy="250" r="5.5" stroke="#D92968"/>
</g>
<g filter="url(#filter5_d)">
<circle cx="770" cy="158" r="6" fill="white"/>
<circle cx="770" cy="158" r="5.5" stroke="#D92968"/>
</g>
<g filter="url(#filter6_d)">
<circle cx="759" cy="490" r="6" fill="white"/>
<circle cx="759" cy="490" r="5.5" stroke="#D92968"/>
</g>
<g filter="url(#filter7_d)">
<circle cx="765.588" cy="474.588" r="6" fill="white"/>
<circle cx="765.588" cy="474.588" r="5.5" stroke="#D92968"/>
</g>
<g filter="url(#filter8_d)">
<circle cx="732.588" cy="446.588" r="6" fill="white"/>
<circle cx="732.588" cy="446.588" r="5.5" stroke="#D92968"/>
</g>
<g filter="url(#filter9_d)">
<circle cx="724" cy="936" r="6" fill="white"/>
<circle cx="724" cy="936" r="5.5" stroke="#D92968"/>
</g>
<rect width="89" height="31" fill="black" fill-opacity="0" transform="translate(677 810)"/>
<path fill-rule="evenodd" clip-rule="evenodd" d="M724.965 816L721.5 810L718.035 816H680C678.343 816 677 817.343 677 819V838C677 839.657 678.343 841 680 841H763C764.657 841 766 839.657 766 838V819C766 817.343 764.657 816 763 816H724.965Z" fill="white"/>
<path d="M708.882 833H712.494V831.992H711.71V824.222H715.854V831.992H715.07V833H718.682V831.992H717.786V824.222H718.682V823.2H708.882V824.222H709.778V831.992H708.882V833ZM723.577 833.14C725.131 833.14 725.887 832.65 725.887 832.65V831.572C725.887 831.572 725.117 831.908 724.277 831.908C722.513 831.908 721.855 830.928 721.771 829.626H726.251C726.363 827.064 725.187 825.86 723.283 825.86C721.365 825.86 719.895 827.302 719.895 829.626C719.895 831.67 721.197 833.14 723.577 833.14ZM721.813 828.562C721.897 827.456 722.429 826.882 723.157 826.882C723.787 826.882 724.277 827.47 724.277 828.45L721.813 828.562ZM727.317 836.514H730.971V835.52H730.075V832.762C730.075 832.762 730.495 833.14 731.489 833.14C733.435 833.14 734.863 831.642 734.863 829.122C734.863 827.386 733.911 825.86 731.909 825.86C731.223 825.86 730.551 826.154 730.033 826.616L730.075 826.182L729.711 825.93L727.317 826L727.303 826.98H728.213V835.52H727.317V836.514ZM731.111 832.034C730.355 832.034 730.075 831.698 730.075 831.698V829.052C730.075 828.212 730.019 827.638 730.019 827.638C730.383 827.344 730.859 827.162 731.349 827.162C732.455 827.162 732.945 828.114 732.945 829.458C732.945 831.18 732.259 832.034 731.111 832.034ZM735.958 833H738.828V831.992H737.82L737.974 828.534C738.002 828.016 737.974 827.54 737.974 827.54H738.058C738.058 827.54 738.198 828.03 738.408 828.464L740.298 832.58H741.124L743.084 828.45C743.322 827.932 743.448 827.54 743.448 827.54H743.518C743.518 827.54 743.504 827.82 743.532 828.394L743.672 831.992H742.65V833H746.15V831.992H745.282L745.058 827.008H745.968V826H743.126L741.054 830.354L739.164 826H736.182V827.008H737.064L736.84 831.992H735.958V833ZM747.405 833H751.031C753.201 833 754.251 832.132 754.251 830.662C754.251 829.22 753.159 828.422 751.059 828.422H750.135V827.008H750.961V826H747.391V827.008H748.273V831.992H747.405V833ZM750.135 832.02V829.402H750.891C751.843 829.402 752.291 829.906 752.291 830.718C752.291 831.502 751.843 832.02 750.877 832.02H750.135Z" fill="#3D496A"/>
<rect width="20" height="13" fill="black" fill-opacity="0" transform="translate(684 822)"/>
<rect width="20" height="13" fill="black" fill-opacity="0" transform="translate(684 822)"/>
<path d="M702.882 830.547C702.882 830.547 702.555 831.746 702.453 831.971C702.371 832.196 701.861 832.983 701.861 832.983C701.861 832.983 702.147 833.601 702.188 833.714C702.228 833.826 701.595 834.07 701.514 834.257C701.432 834.444 701.636 834.613 702.433 834.557C703.229 834.519 703.576 834.594 703.78 833.826C704.025 833.058 704.373 832.158 702.882 830.547Z" fill="#279359"/>
<path d="M691.14 829.779L690.63 828.355C690.548 828.149 690.344 827.999 690.099 827.999H688.996C688.996 827.999 689.241 828.917 689.507 829.742C689.752 830.547 690.099 830.978 690.099 830.978L691.14 829.779Z" fill="#F6C837"/>
<path d="M691.733 833.676C691.569 833.938 691.569 834.145 691.141 834.407C690.712 834.669 691.467 834.538 692.57 834.575C692.57 834.575 693.08 834.426 693.08 834.032C693.08 833.639 692.692 832.702 692.692 832.702C692.692 832.702 691.896 833.395 691.733 833.676Z" fill="#F6C837"/>
<path d="M686.913 823.203C686.913 823.203 686.607 822.734 686.198 822.828C685.79 822.922 686.056 823.727 686.056 823.727C686.056 823.727 686.301 823.315 686.913 823.203Z" fill="#279359"/>
<path d="M702.699 826.95C702.004 825.207 700.759 822.509 694.898 822.903C694.898 822.903 693.938 822.79 693.346 822.322C692.754 821.854 691.672 821.816 690.365 822.753C690.365 822.753 689.813 823.09 687.935 823.296C687.935 823.296 686.832 823.334 686.444 823.746C686.056 824.158 685.382 824.627 685.137 825.095C685.076 825.226 685.137 825.582 685.137 825.582L684.096 826.332C683.994 826.406 683.973 826.556 684.034 826.65C684.218 826.894 684.545 827.568 684.831 827.624C685.096 827.681 685.872 827.755 686.689 827.662C687.302 827.606 689.18 827.606 690.344 827.624C690.691 827.624 690.998 827.83 691.1 828.149L691.61 829.835C691.61 829.835 690.937 830.884 690.181 831.578C689.425 832.271 689.466 833.208 689.711 833.657C689.956 834.126 690.896 834.632 691.386 833.657C691.896 832.683 693.326 832.196 693.755 831.503C694.163 830.809 695.021 829.835 694.837 828.617L694.857 828.093C694.857 828.093 695.306 828.88 695.082 829.629C694.878 830.379 694.878 830.379 694.878 830.379C694.878 830.379 697.41 831.072 697.941 830.847C697.941 830.847 698.022 829.61 699.329 828.449C699.329 828.449 698.063 830.379 698.227 831.39C698.39 832.402 698.267 832.889 698.104 833.47C697.941 834.051 697.655 834.219 697.655 834.219C697.655 834.219 696.838 834.332 696.879 834.744C696.92 835.175 699.84 834.931 699.84 834.931C699.84 834.931 700.289 834.856 700.289 834.575C700.289 834.294 701.596 833.451 702.311 831.203C703.066 828.917 703.372 828.692 702.699 826.95ZM686.199 825.563C686.056 825.563 685.934 825.451 685.934 825.32C685.934 825.189 686.056 825.076 686.199 825.076C686.342 825.076 686.464 825.189 686.464 825.32C686.464 825.451 686.342 825.563 686.199 825.563ZM688.527 824.945C688.527 824.945 688.364 824.327 687.792 824.196C687.792 824.196 687.955 823.615 688.302 823.727C688.649 823.84 688.588 824.627 688.527 824.945Z" fill="#D92968"/>
<rect width="95" height="25" fill="black" fill-opacity="0" transform="translate(831 920)"/>
<path fill-rule="evenodd" clip-rule="evenodd" d="M840 945C838.343 945 837 943.657 837 942V935.964L831 932.5L837 929.036V923C837 921.343 838.343 920 840 920H923C924.657 920 926 921.343 926 923V942C926 943.657 924.657 945 923 945H840Z" fill="white"/>
<path d="M866.924 937H870.536V935.992H869.682V932.436H870.27L873.462 937H875.52V935.992H875.002L871.796 931.47L874.428 928.208H875.212V927.2H872.146V928.208H872.762L870.606 931.47H869.682V928.208H870.536V927.2H866.924V928.208H867.75V935.992H866.924V937ZM878.803 940.612C878.985 939.52 879.363 938.274 879.867 937L882.233 930.98H882.975V930H880.175V930.98H880.847L879.811 933.948C879.615 934.508 879.419 935.39 879.419 935.39H879.363C879.363 935.39 879.195 934.69 878.929 933.99L877.767 930.98H878.397V930H875.177V930.98H875.919L878.551 937.238C877.991 938.106 877.375 939.296 877.095 940.5L878.803 940.612ZM883.789 937H887.191V935.992H886.533V933.948H889.277V935.992H888.633V937H892.035V935.992H891.139V931.008H892.035V930H888.633V931.008H889.277V932.926H886.533V931.008H887.191V930H883.789V931.008H884.671V935.992H883.789V937ZM893.373 937H897.181V935.992H896.131V931.008H897.839L898.035 932.38H898.987L898.973 930H893.373V931.008H894.255V935.992H893.373V937ZM903.166 940.612C903.348 939.52 903.726 938.274 904.23 937L906.596 930.98H907.338V930H904.538V930.98H905.21L904.174 933.948C903.978 934.508 903.782 935.39 903.782 935.39H903.726C903.726 935.39 903.558 934.69 903.292 933.99L902.13 930.98H902.76V930H899.54V930.98H900.282L902.914 937.238C902.354 938.106 901.738 939.296 901.458 940.5L903.166 940.612ZM907.998 940.514H911.652V939.52H910.756V936.762C910.756 936.762 911.176 937.14 912.17 937.14C914.116 937.14 915.544 935.642 915.544 933.122C915.544 931.386 914.592 929.86 912.59 929.86C911.904 929.86 911.232 930.154 910.714 930.616L910.756 930.182L910.392 929.93L907.998 930L907.984 930.98H908.894V939.52H907.998V940.514ZM911.792 936.034C911.036 936.034 910.756 935.698 910.756 935.698V933.052C910.756 932.212 910.7 931.638 910.7 931.638C911.064 931.344 911.54 931.162 912.03 931.162C913.136 931.162 913.626 932.114 913.626 933.458C913.626 935.18 912.94 936.034 911.792 936.034Z" fill="#3D496A"/>
<rect width="15.9974" height="18.663" fill="black" fill-opacity="0" transform="translate(848.882 922) rotate(15.165)"/>
<path d="M863.607 925.991C863.607 925.991 859.203 925.15 858.281 929.836C858.272 929.869 862.676 930.71 863.607 925.991Z" fill="#D92968"/>
<path d="M862.488 932.951C862.488 932.951 859.985 929.205 856.056 931.878C856.056 931.878 858.559 935.624 862.488 932.951Z" fill="#0BC7DB"/>
<path d="M856.755 924.804C856.755 924.804 853.033 927.356 855.654 931.31C855.654 931.31 859.376 928.758 856.755 924.804Z" fill="#24523E"/>
<path d="M859.061 935.442C859.061 935.442 856.558 931.696 852.629 934.369C852.629 934.369 855.132 938.115 859.061 935.442Z" fill="#3C496A"/>
<path d="M853.327 927.295C853.327 927.295 849.605 929.847 852.226 933.801C852.226 933.801 855.948 931.249 853.327 927.295Z" fill="#985483"/>
<path d="M855.592 937.958C855.592 937.958 853.09 934.212 849.161 936.884C849.152 936.917 851.655 940.663 855.592 937.958Z" fill="#2AA15B"/>
<path d="M849.818 929.834C849.818 929.834 846.096 932.387 848.716 936.341C848.716 936.341 852.447 933.756 849.818 929.834Z" fill="#F6C837"/>
<path d="M847.835 936.601L844.214 939.223L844.954 940.272L848.575 937.65L847.835 936.601Z" fill="#D92968"/>
<rect width="125" height="47" fill="black" fill-opacity="0" transform="translate(661 947)"/>
<path fill-rule="evenodd" clip-rule="evenodd" d="M726.965 953L723.5 947L720.035 953H664C662.343 953 661 954.343 661 956V991C661 992.657 662.343 994 664 994H783C784.657 994 786 992.657 786 991V956C786 954.343 784.657 953 783 953H726.965Z" fill="white"/>
<path d="M690.005 970H693.617C696.277 970 697.649 968.754 697.649 967.004C697.649 965.436 696.613 964.19 693.995 964.19H692.833V961.208H695.689L695.871 962.622H696.809L696.893 960.2H690.005V961.208H690.901V968.992H690.005V970ZM692.833 969.02V965.17H693.631C694.975 965.17 695.689 965.828 695.689 967.004C695.689 968.152 695.087 969.02 693.659 969.02H692.833ZM702.471 970.14C704.025 970.14 704.781 969.65 704.781 969.65V968.572C704.781 968.572 704.011 968.908 703.171 968.908C701.407 968.908 700.749 967.928 700.665 966.626H705.145C705.257 964.064 704.081 962.86 702.177 962.86C700.259 962.86 698.789 964.302 698.789 966.626C698.789 968.67 700.091 970.14 702.471 970.14ZM700.707 965.562C700.791 964.456 701.323 963.882 702.051 963.882C702.681 963.882 703.171 964.47 703.171 965.45L700.707 965.562ZM706.507 970.084C708.033 970.084 708.915 968.334 709.027 964.008H710.693V968.992H709.909V970H713.451V968.992H712.555V964.008H713.451V963H706.941V964.008H707.907C707.879 966.556 707.361 968.572 706.241 968.572C706.059 968.572 705.835 968.544 705.835 968.544L705.891 969.972C705.891 969.972 706.031 970.084 706.507 970.084ZM718.037 969.118C717.029 969.118 716.553 968.096 716.553 966.486C716.553 964.96 716.833 963.868 718.065 963.868C719.073 963.868 719.549 964.904 719.549 966.514C719.549 968.04 719.269 969.118 718.037 969.118ZM717.869 970.14C720.193 970.14 721.439 968.502 721.439 966.346C721.439 964.274 720.193 962.86 718.233 962.86C715.909 962.86 714.663 964.498 714.663 966.654C714.663 968.726 715.909 970.14 717.869 970.14ZM722.635 970H726.443V968.992H725.393V964.008H727.101L727.297 965.38H728.249L728.235 963H722.635V964.008H723.517V968.992H722.635V970ZM732.638 969.118C731.63 969.118 731.154 968.096 731.154 966.486C731.154 964.96 731.434 963.868 732.666 963.868C733.674 963.868 734.15 964.904 734.15 966.514C734.15 968.04 733.87 969.118 732.638 969.118ZM732.47 970.14C734.794 970.14 736.04 968.502 736.04 966.346C736.04 964.274 734.794 962.86 732.834 962.86C730.51 962.86 729.264 964.498 729.264 966.654C729.264 968.726 730.51 970.14 732.47 970.14ZM737.082 973.514H740.736V972.52H739.84V969.762C739.84 969.762 740.26 970.14 741.254 970.14C743.2 970.14 744.628 968.642 744.628 966.122C744.628 964.386 743.676 962.86 741.674 962.86C740.988 962.86 740.316 963.154 739.798 963.616L739.84 963.182L739.476 962.93L737.082 963L737.068 963.98H737.978V972.52H737.082V973.514ZM740.876 969.034C740.12 969.034 739.84 968.698 739.84 968.698V966.052C739.84 965.212 739.784 964.638 739.784 964.638C740.148 964.344 740.624 964.162 741.114 964.162C742.22 964.162 742.71 965.114 742.71 966.458C742.71 968.18 742.024 969.034 740.876 969.034ZM749.334 970.14C750.636 970.14 751.336 969.65 751.336 969.65V968.572C751.336 968.572 750.748 968.894 749.712 968.894C748.48 968.894 747.71 967.9 747.71 966.332C747.71 964.974 748.256 964.064 749.166 964.064C749.95 964.064 750.132 964.442 751.014 964.638L751.392 963.07C750.734 963 750.216 962.86 749.362 962.86C747.318 962.86 745.82 964.232 745.82 966.626C745.82 968.796 747.304 970.14 749.334 970.14ZM752.522 970H755.924V968.992H755.252V966.92H755.812L758.01 970H760.012V968.992H759.48L757.198 965.94L759.13 964.008H759.802V963H756.932V964.008H757.646L756.078 965.954H755.252V964.008H755.91V963H752.508V964.008H753.39V968.992H752.522V970ZM761.08 970H763.754L766.162 965.87C766.54 965.226 766.736 964.652 766.736 964.652H766.792C766.792 964.652 766.736 965.226 766.736 965.674V968.992H766.064V970H769.466V968.992H768.57V964.008H769.466V963H766.75L764.356 967.088C763.95 967.816 763.754 968.39 763.754 968.39H763.698C763.698 968.39 763.768 967.564 763.768 967.004V964.008H764.482V963H761.08V964.008H761.962V968.992H761.08V970ZM775.169 961.726C776.443 961.726 777.325 961.124 777.899 960.592L776.933 959.416C776.345 959.906 775.967 960.774 775.169 960.774C774.413 960.774 774.119 959.85 773.573 959.36L772.369 960.592C772.887 961.04 773.909 961.726 775.169 961.726ZM770.815 970H773.489L775.897 965.87C776.275 965.226 776.471 964.652 776.471 964.652H776.527C776.527 964.652 776.471 965.226 776.471 965.674V968.992H775.799V970H779.201V968.992H778.305V964.008H779.201V963H776.485L774.091 967.088C773.685 967.816 773.489 968.39 773.489 968.39H773.433C773.433 968.39 773.503 967.564 773.503 967.004V964.008H774.217V963H770.815V964.008H771.697V968.992H770.815V970ZM695.822 986H698.692V984.992H697.684L697.838 981.534C697.866 981.016 697.838 980.54 697.838 980.54H697.922C697.922 980.54 698.062 981.03 698.272 981.464L700.162 985.58H700.988L702.948 981.45C703.186 980.932 703.312 980.54 703.312 980.54H703.382C703.382 980.54 703.368 980.82 703.396 981.394L703.536 984.992H702.514V986H706.014V984.992H705.146L704.922 980.008H705.832V979H702.99L700.918 983.354L699.028 979H696.046V980.008H696.928L696.704 984.992H695.822V986ZM710.49 985.118C709.482 985.118 709.006 984.096 709.006 982.486C709.006 980.96 709.286 979.868 710.518 979.868C711.526 979.868 712.002 980.904 712.002 982.514C712.002 984.04 711.722 985.118 710.49 985.118ZM710.322 986.14C712.646 986.14 713.892 984.502 713.892 982.346C713.892 980.274 712.646 978.86 710.686 978.86C708.362 978.86 707.116 980.498 707.116 982.654C707.116 984.726 708.362 986.14 710.322 986.14ZM715.088 986H718.49V984.992H717.832V982.948H720.576V984.992H719.932V986H723.334V984.992H722.438V980.008H723.334V979H719.932V980.008H720.576V981.926H717.832V980.008H718.49V979H715.088V980.008H715.97V984.992H715.088V986ZM727.276 984.922C726.632 984.922 726.282 984.586 726.282 984.082C726.282 983.466 726.716 983.158 727.276 983.046C727.948 982.92 728.312 982.962 728.312 982.962V983.41C728.312 984.222 728.354 984.614 728.354 984.614C728.354 984.614 727.962 984.922 727.276 984.922ZM728.592 985.37C728.76 985.804 729.236 986.14 729.88 986.14C730.608 986.14 731.056 985.832 731.056 985.832V984.74C730.482 985.104 730.188 984.992 730.188 984.516L730.174 981.422C730.174 979.602 729.278 978.86 727.5 978.86C726.184 978.86 725.092 979.252 725.092 979.252V980.33C725.092 980.33 725.96 980.148 726.604 980.148C727.864 980.148 728.34 980.456 728.34 981.618V981.982C727.934 981.982 727.43 981.996 726.898 982.066C725.246 982.262 724.448 983.032 724.448 984.278C724.448 985.3 725.092 986.168 726.492 986.168C727.304 986.168 728.004 985.86 728.592 985.37ZM735.622 986.14C736.924 986.14 737.624 985.65 737.624 985.65V984.572C737.624 984.572 737.036 984.894 736 984.894C734.768 984.894 733.998 983.9 733.998 982.332C733.998 980.974 734.544 980.064 735.454 980.064C736.238 980.064 736.42 980.442 737.302 980.638L737.68 979.07C737.022 979 736.504 978.86 735.65 978.86C733.606 978.86 732.108 980.232 732.108 982.626C732.108 984.796 733.592 986.14 735.622 986.14ZM740.041 986H743.583V984.992H742.743V980.008H744.045L744.213 981.268H745.109L745.053 979H738.571L738.515 981.268H739.411L739.579 980.008H740.853V984.992H740.041V986ZM753.122 986H756.524V984.992H755.642V980.008H756.524V979H753.122V980.008H753.78V984.992H753.122V986ZM746.192 986H749.818C751.988 986 753.038 985.132 753.038 983.662C753.038 982.22 751.946 981.422 749.846 981.422H748.922V980.008H749.748V979H746.178V980.008H747.06V984.992H746.192V986ZM748.922 985.02V982.402H749.678C750.63 982.402 751.078 982.906 751.078 983.718C751.078 984.502 750.63 985.02 749.664 985.02H748.922ZM757.713 989.514H761.367V988.52H760.471V985.762C760.471 985.762 760.891 986.14 761.885 986.14C763.831 986.14 765.259 984.642 765.259 982.122C765.259 980.386 764.307 978.86 762.305 978.86C761.619 978.86 760.947 979.154 760.429 979.616L760.471 979.182L760.107 978.93L757.713 979L757.699 979.98H758.609V988.52H757.713V989.514ZM761.507 985.034C760.751 985.034 760.471 984.698 760.471 984.698V982.052C760.471 981.212 760.415 980.638 760.415 980.638C760.779 980.344 761.255 980.162 761.745 980.162C762.851 980.162 763.341 981.114 763.341 982.458C763.341 984.18 762.655 985.034 761.507 985.034ZM766.481 986H770.107C772.277 986 773.327 985.132 773.327 983.662C773.327 982.22 772.235 981.422 770.135 981.422H769.211V980.008H770.037V979H766.467V980.008H767.349V984.992H766.481V986ZM769.211 985.02V982.402H769.967C770.919 982.402 771.367 982.906 771.367 983.718C771.367 984.502 770.919 985.02 769.953 985.02H769.211Z" fill="#3D496A"/>
<rect width="19" height="24.9999" fill="black" fill-opacity="0" transform="translate(688 959) scale(-1 1)"/>
<path d="M678.706 971.965C678.636 971.965 678.568 971.965 678.5 971.963C678.432 971.965 678.364 971.965 678.295 971.965C676.059 971.965 674.247 971.483 674.247 970.131C674.247 967.752 677.124 967.359 678.027 964.184V961.765H676.144V960.837H678.027V959H678.972V960.837H680.855V961.765H678.972V964.211C679.873 967.445 682.752 967.878 682.752 970.131C682.752 971.405 680.941 971.965 678.706 971.965Z" fill="#F6C837"/>
<path d="M669.793 975.406C670.322 974.886 671.015 974.627 671.707 974.627H675.244V972.327C675.244 972.327 676.438 972.722 678.5 972.722C680.561 972.722 681.857 972.327 681.857 972.327V974.627H685.319C685.723 974.627 686.125 974.719 686.496 974.896C686.657 974.967 686.8 975.055 686.926 975.156C687.026 975.23 687.123 975.308 687.214 975.398C687.738 975.912 688 976.586 688 977.259V977.882C687.61 976.685 686.467 975.817 685.12 975.817C683.827 975.817 682.725 976.619 682.293 977.741C681.784 976.161 680.276 975.011 678.5 975.011C676.724 975.011 675.217 976.161 674.707 977.741C674.276 976.619 673.173 975.817 671.88 975.817C670.534 975.817 669.391 976.686 669 977.882V977.285C669 976.605 669.264 975.925 669.793 975.406Z" fill="#D92968"/>
<path d="M671.88 976.47C673.183 976.47 674.239 977.506 674.239 978.786V984H669.521V978.786C669.521 977.506 670.577 976.47 671.88 976.47Z" fill="#3C496A"/>
<path d="M685.12 976.47C686.423 976.47 687.479 977.506 687.479 978.786V984H682.761V978.786C682.761 977.506 683.817 976.47 685.12 976.47Z" fill="#3C496A"/>
<path d="M678.501 975.664C680.329 975.664 681.812 977.121 681.812 978.917V984H675.189V978.917C675.188 977.121 676.671 975.664 678.501 975.664Z" fill="#985483"/>
<rect width="105" height="25" fill="black" fill-opacity="0" transform="translate(606 736)"/>
<path fill-rule="evenodd" clip-rule="evenodd" d="M609 761C607.343 761 606 759.657 606 758V739C606 737.343 607.343 736 609 736H702C703.657 736 705 737.343 705 739V745.036L711 748.5L705 751.964V758C705 759.657 703.657 761 702 761H609Z" fill="white"/>
<path d="M630.266 753H633.542V751.992H632.716C632.814 751.81 632.996 751.544 633.192 751.25L634.116 749.85C634.438 749.374 634.62 748.968 634.62 748.968L636.65 751.992H635.922V753H639.618V751.992H638.652L635.796 747.834L638.47 744.208H639.422V743.2H636.146V744.208H637.042C636.958 744.362 636.804 744.656 636.594 744.95L635.768 746.112C635.446 746.588 635.208 747.036 635.208 747.036L633.416 744.208H634.06V743.2H630.392V744.208H631.33L633.976 748.114L631.204 751.992H630.266V753ZM643.615 752.118C642.607 752.118 642.131 751.096 642.131 749.486C642.131 747.96 642.411 746.868 643.643 746.868C644.651 746.868 645.127 747.904 645.127 749.514C645.127 751.04 644.847 752.118 643.615 752.118ZM643.447 753.14C645.771 753.14 647.017 751.502 647.017 749.346C647.017 747.274 645.771 745.86 643.811 745.86C641.487 745.86 640.241 747.498 640.241 749.654C640.241 751.726 641.487 753.14 643.447 753.14ZM647.769 753H650.877V751.992H650.191L651.437 750.284L652.795 751.992H652.319V753H655.651V751.992H654.853L652.599 749.318L654.657 746.98H655.511V746H652.403V746.98H653.145L651.885 748.632L650.639 746.98H651.185V746H647.853V746.98H648.567L650.723 749.584L648.609 751.992H647.769V753ZM656.9 753.084C658.426 753.084 659.308 751.334 659.42 747.008H661.086V751.992H660.302V753H663.844V751.992H662.948V747.008H663.844V746H657.334V747.008H658.3C658.272 749.556 657.754 751.572 656.634 751.572C656.452 751.572 656.228 751.544 656.228 751.544L656.284 752.972C656.284 752.972 656.424 753.084 656.9 753.084ZM668.429 752.118C667.421 752.118 666.945 751.096 666.945 749.486C666.945 747.96 667.225 746.868 668.457 746.868C669.465 746.868 669.941 747.904 669.941 749.514C669.941 751.04 669.661 752.118 668.429 752.118ZM668.261 753.14C670.585 753.14 671.831 751.502 671.831 749.346C671.831 747.274 670.585 745.86 668.625 745.86C666.301 745.86 665.055 747.498 665.055 749.654C665.055 751.726 666.301 753.14 668.261 753.14ZM673.027 753H676.975C678.599 753 679.747 752.356 679.747 750.984C679.747 750.004 679.075 749.444 677.941 749.332V749.276C678.851 749.136 679.369 748.534 679.369 747.722C679.369 746.672 678.515 746 676.933 746H673.027V747.008H673.909V751.992H673.027V753ZM675.757 752.02V749.864H676.597C677.479 749.864 677.871 750.242 677.871 750.942C677.871 751.684 677.381 752.02 676.555 752.02H675.757ZM675.757 748.912V746.98H676.345C677.101 746.98 677.507 747.288 677.507 747.974C677.507 748.422 677.269 748.772 676.933 748.912H675.757ZM680.985 753H684.387V751.992H683.715V749.92H684.275L686.473 753H688.475V751.992H687.943L685.661 748.94L687.593 747.008H688.265V746H685.395V747.008H686.109L684.541 748.954H683.715V747.008H684.373V746H680.971V747.008H681.853V751.992H680.985V753ZM692.147 751.922C691.503 751.922 691.153 751.586 691.153 751.082C691.153 750.466 691.587 750.158 692.147 750.046C692.819 749.92 693.183 749.962 693.183 749.962V750.41C693.183 751.222 693.225 751.614 693.225 751.614C693.225 751.614 692.833 751.922 692.147 751.922ZM693.463 752.37C693.631 752.804 694.107 753.14 694.751 753.14C695.479 753.14 695.927 752.832 695.927 752.832V751.74C695.353 752.104 695.059 751.992 695.059 751.516L695.045 748.422C695.045 746.602 694.149 745.86 692.371 745.86C691.055 745.86 689.963 746.252 689.963 746.252V747.33C689.963 747.33 690.831 747.148 691.475 747.148C692.735 747.148 693.211 747.456 693.211 748.618V748.982C692.805 748.982 692.301 748.996 691.769 749.066C690.117 749.262 689.319 750.032 689.319 751.278C689.319 752.3 689.963 753.168 691.363 753.168C692.175 753.168 692.875 752.86 693.463 752.37Z" fill="#3D496A"/>
<rect width="9" height="22" fill="black" fill-opacity="0" transform="translate(615 737)"/>
<rect x="615" y="757.846" width="9" height="1.15385" fill="#24523E"/>
<path fill-rule="evenodd" clip-rule="evenodd" d="M623.031 749.207H619.659H616.04C612.783 745.021 618.103 741.683 619.387 740.961V739.054H618.21V738.526H619.387V737H619.929V738.526H621.106V739.054H619.929V740.972C621.16 741.717 626.05 745.043 623.031 749.207Z" fill="#F6C837"/>
<path fill-rule="evenodd" clip-rule="evenodd" d="M624 750H615V752.077V755.308V757.385H624V755.308V752.077V750ZM623.438 752.077H622.595V755.308H623.438V752.077ZM618.656 752.077H620.345V755.308H618.656V752.077ZM616.406 752.077H615.562V755.308H616.406V752.077Z" fill="#985483"/>
<rect width="89" height="31" fill="black" fill-opacity="0" transform="translate(726 169)"/>
<path fill-rule="evenodd" clip-rule="evenodd" d="M773.965 175L770.5 169L767.035 175H729C727.343 175 726 176.343 726 178V197C726 198.657 727.343 200 729 200H812C813.657 200 815 198.657 815 197V178C815 176.343 813.657 175 812 175H773.965Z" fill="white"/>
<path d="M759.882 192H763.494V190.992H762.71V187.464H766.994V190.992H766.21V192H769.822V190.992H768.926V183.208H769.822V182.2H766.21V183.208H766.994V186.456H762.71V183.208H763.494V182.2H759.882V183.208H760.778V190.992H759.882V192ZM778.196 192H781.598V190.992H780.716V186.008H781.598V185H778.196V186.008H778.854V190.992H778.196V192ZM771.266 192H774.892C777.062 192 778.112 191.132 778.112 189.662C778.112 188.22 777.02 187.422 774.92 187.422H773.996V186.008H774.822V185H771.252V186.008H772.134V190.992H771.266V192ZM773.996 191.02V188.402H774.752C775.704 188.402 776.152 188.906 776.152 189.718C776.152 190.502 775.704 191.02 774.738 191.02H773.996ZM782.788 195.514H786.442V194.52H785.546V191.762C785.546 191.762 785.966 192.14 786.96 192.14C788.906 192.14 790.334 190.642 790.334 188.122C790.334 186.386 789.382 184.86 787.38 184.86C786.694 184.86 786.022 185.154 785.504 185.616L785.546 185.182L785.182 184.93L782.788 185L782.774 185.98H783.684V194.52H782.788V195.514ZM786.582 191.034C785.826 191.034 785.546 190.698 785.546 190.698V188.052C785.546 187.212 785.49 186.638 785.49 186.638C785.854 186.344 786.33 186.162 786.82 186.162C787.926 186.162 788.416 187.114 788.416 188.458C788.416 190.18 787.73 191.034 786.582 191.034ZM794.914 191.118C793.906 191.118 793.43 190.096 793.43 188.486C793.43 186.96 793.71 185.868 794.942 185.868C795.95 185.868 796.426 186.904 796.426 188.514C796.426 190.04 796.146 191.118 794.914 191.118ZM794.746 192.14C797.07 192.14 798.316 190.502 798.316 188.346C798.316 186.274 797.07 184.86 795.11 184.86C792.785 184.86 791.54 186.498 791.54 188.654C791.54 190.726 792.785 192.14 794.746 192.14ZM803.164 192.14C805.166 192.14 806.496 190.74 806.496 188.388C806.496 186.512 805.334 185.238 803.486 185.238C802.1 185.238 801.246 185.896 800.84 187.156H800.756C800.924 185.154 801.344 183.992 803.584 183.544C804.62 183.348 805.404 183.194 806.076 182.97L805.698 181.472C804.984 181.71 804.256 181.864 803.164 182.088C800.616 182.634 799.776 184.342 799.776 187.856C799.776 190.74 801.05 192.14 803.164 192.14ZM803.164 191.216C802.184 191.216 801.652 189.956 801.652 188.528C801.652 187.282 802.17 186.246 803.164 186.246C804.116 186.246 804.648 187.268 804.648 188.948C804.648 190.278 804.13 191.216 803.164 191.216Z" fill="#3D496A"/>
<rect width="26" height="17" fill="black" fill-opacity="0" transform="translate(729 179)"/>
<rect width="26" height="16.9747" fill="black" fill-opacity="0" transform="translate(755 179) scale(-1 1)"/>
<path d="M744.185 189.676L749.005 190.055L745.453 191.231C745.083 191.358 744.714 191.181 744.595 190.827L744.185 189.676ZM732.46 182.908C732.737 182.908 732.961 182.693 732.961 182.428C732.961 182.162 732.737 181.96 732.46 181.96C732.182 181.96 731.971 182.162 731.971 182.428C731.971 182.693 732.182 182.908 732.46 182.908ZM740.554 195.342C740.607 195.975 740.607 195.975 740.184 195.975H739.669C739.247 195.975 739.247 195.975 739.141 195.342L738.375 190.915H740.198L740.554 195.342ZM746.562 191.611L748.503 190.978L748.094 195.342C748.041 195.975 748.041 195.975 747.619 195.975H747.077C746.721 195.975 746.721 195.975 746.694 195.342L746.562 191.611ZM735.616 188.853H737.623L736.738 195.342C736.672 195.975 736.672 195.975 736.236 195.975H735.576C735.219 195.975 735.219 195.975 735.259 195.342L735.616 188.853ZM738.415 190.283C735.47 190.27 734.81 188.942 734.189 187.601C733.041 185.324 733.041 185.324 730.585 185.324C729.106 185.324 729 183.87 729 183.87L732.407 180.632C731.852 180.113 731.522 179.835 731.852 179C734.348 180.783 734.982 180.796 738.547 180.796H749.52C750.682 180.796 751.725 181.315 751.725 182.833C751.725 184.932 751.699 186.513 752.755 187.854C754.01 187.854 754.696 188.398 755 189.625C751.382 189.372 750.814 187.121 750.814 182.833C750.814 182.301 750.154 182.301 750.154 182.833V186.463C750.154 188.879 751.686 189.385 751.738 190.485L751.963 195.342C751.989 195.975 751.989 195.975 751.567 195.975H750.986C750.563 195.975 750.563 195.975 750.458 195.342L749.533 190.89C746.325 189.119 742.68 190.295 738.415 190.283Z" fill="#2AA15B"/>
<path d="M740.25 190.839H738.349L739.141 196H740.725L740.25 190.839Z" fill="#985483"/>
<path d="M748.648 190.839L746.43 191.598L746.588 196H748.173L748.648 190.839Z" fill="#0BC7DB"/>
<rect width="100" height="25" fill="black" fill-opacity="0" transform="translate(621 435)"/>
<path fill-rule="evenodd" clip-rule="evenodd" d="M624 460C622.343 460 621 458.657 621 457V438C621 436.343 622.343 435 624 435H712C713.657 435 715 436.343 715 438V444.036L721 447.5L715 450.964V457C715 458.657 713.657 460 712 460H624Z" fill="white"/>
<path d="M652.882 452H656.494V450.992H655.71V443.222H659.854V450.992H659.07V452H662.682V450.992H661.786V443.222H662.682V442.2H652.882V443.222H653.778V450.992H652.882V452ZM671.059 452H674.461V450.992H673.579V446.008H674.461V445H671.059V446.008H671.717V450.992H671.059V452ZM664.129 452H667.755C669.925 452 670.975 451.132 670.975 449.662C670.975 448.22 669.883 447.422 667.783 447.422H666.859V446.008H667.685V445H664.115V446.008H664.997V450.992H664.129V452ZM666.859 451.02V448.402H667.615C668.567 448.402 669.015 448.906 669.015 449.718C669.015 450.502 668.567 451.02 667.601 451.02H666.859ZM679.166 452.14C680.468 452.14 681.168 451.65 681.168 451.65V450.572C681.168 450.572 680.58 450.894 679.544 450.894C678.312 450.894 677.542 449.9 677.542 448.332C677.542 446.974 678.088 446.064 678.998 446.064C679.782 446.064 679.964 446.442 680.846 446.638L681.224 445.07C680.566 445 680.048 444.86 679.194 444.86C677.15 444.86 675.652 446.232 675.652 448.626C675.652 450.796 677.136 452.14 679.166 452.14ZM682.354 452H685.756V450.992H685.084V448.92H685.644L687.842 452H689.844V450.992H689.312L687.03 447.94L688.962 446.008H689.634V445H686.764V446.008H687.478L685.91 447.954H685.084V446.008H685.742V445H682.34V446.008H683.222V450.992H682.354V452ZM694.052 451.118C693.044 451.118 692.568 450.096 692.568 448.486C692.568 446.96 692.848 445.868 694.08 445.868C695.088 445.868 695.564 446.904 695.564 448.514C695.564 450.04 695.284 451.118 694.052 451.118ZM693.884 452.14C696.208 452.14 697.454 450.502 697.454 448.346C697.454 446.274 696.208 444.86 694.248 444.86C691.924 444.86 690.678 446.498 690.678 448.654C690.678 450.726 691.924 452.14 693.884 452.14ZM698.497 455.514H702.151V454.52H701.255V451.762C701.255 451.762 701.675 452.14 702.669 452.14C704.615 452.14 706.043 450.642 706.043 448.122C706.043 446.386 705.091 444.86 703.089 444.86C702.403 444.86 701.731 445.154 701.213 445.616L701.255 445.182L700.891 444.93L698.497 445L698.483 445.98H699.393V454.52H698.497V455.514ZM702.291 451.034C701.535 451.034 701.255 450.698 701.255 450.698V448.052C701.255 447.212 701.199 446.638 701.199 446.638C701.563 446.344 702.039 446.162 702.529 446.162C703.635 446.162 704.125 447.114 704.125 448.458C704.125 450.18 703.439 451.034 702.291 451.034Z" fill="#3D496A"/>
<rect width="19.0003" height="17" fill="black" fill-opacity="0" transform="translate(628 438)"/>
<rect width="19.0003" height="17" fill="black" fill-opacity="0" transform="translate(628 438)"/>
<rect width="19.0003" height="17" fill="black" fill-opacity="0" transform="translate(628 438)"/>
<path d="M634.186 448.366H629.767L628 450.439V455H636.395V450.484L634.186 448.366ZM631.977 452.512H629.326V451.268H631.977V452.512ZM634.628 453.756H632.86V451.683H634.628V453.756Z" fill="#F6C837"/>
<path d="M643.465 444.634H639.93L637.279 447.122V452.951L647 453.341V446.293L643.465 444.634ZM640.372 451.268H638.605V449.195H640.372V451.268ZM645.675 449.61H641.698V447.537H645.675V449.61Z" fill="#2AA15B"/>
<path d="M639.046 438H634.231L631.977 440.073V447.122H635.511L638.604 443.39H642.581V440.488L639.046 438ZM635.511 444.22H633.744V441.732H635.511V444.22ZM636.837 441.732V440.073H638.604L639.046 441.732H636.837Z" fill="#3C496A"/>
<rect width="121" height="25" fill="black" fill-opacity="0" transform="translate(788 416)"/>
<path fill-rule="evenodd" clip-rule="evenodd" d="M797 441C795.343 441 794 439.657 794 438V431.964L788 428.5L794 425.036V419C794 417.343 795.343 416 797 416H906C907.657 416 909 417.343 909 419V438C909 439.657 907.657 441 906 441H797Z" fill="white"/>
<path d="M830.628 433.196C832.308 433.196 833.4 432.65 833.4 432.65V430.158H832.504L832.238 431.922C831.944 432.02 831.552 432.104 831.076 432.104C828.864 432.104 827.674 430.508 827.674 427.974C827.674 425.622 828.724 424.04 831.006 424.04C831.468 424.04 831.888 424.138 832.196 424.236L832.42 425.944H833.33L833.442 423.564C833.442 423.564 832.406 423.004 830.726 423.004C827.408 423.004 825.686 425.426 825.686 428.268C825.686 431.39 827.688 433.196 830.628 433.196ZM838.15 432.118C837.142 432.118 836.666 431.096 836.666 429.486C836.666 427.96 836.946 426.868 838.178 426.868C839.186 426.868 839.662 427.904 839.662 429.514C839.662 431.04 839.382 432.118 838.15 432.118ZM837.982 433.14C840.306 433.14 841.552 431.502 841.552 429.346C841.552 427.274 840.306 425.86 838.346 425.86C836.022 425.86 834.776 427.498 834.776 429.654C834.776 431.726 836.022 433.14 837.982 433.14ZM842.945 433.084C844.471 433.084 845.353 431.334 845.465 427.008H847.131V431.992H846.347V433H849.889V431.992H848.993V427.008H849.889V426H843.379V427.008H844.345C844.317 429.556 843.799 431.572 842.679 431.572C842.497 431.572 842.273 431.544 842.273 431.544L842.329 432.972C842.329 432.972 842.469 433.084 842.945 433.084ZM851.238 433H853.912L856.32 428.87C856.698 428.226 856.894 427.652 856.894 427.652H856.95C856.95 427.652 856.894 428.226 856.894 428.674V431.992H856.222V433H859.624V431.992H858.728V427.008H859.624V426H856.908L854.514 430.088C854.108 430.816 853.912 431.39 853.912 431.39H853.856C853.856 431.39 853.926 430.564 853.926 430.004V427.008H854.64V426H851.238V427.008H852.12V431.992H851.238V433ZM860.987 433H864.389V431.992H863.717V429.92H864.277L866.475 433H868.477V431.992H867.945L865.663 428.94L867.595 427.008H868.267V426H865.397V427.008H866.111L864.543 428.954H863.717V427.008H864.375V426H860.973V427.008H861.855V431.992H860.987V433ZM872.149 431.922C871.505 431.922 871.155 431.586 871.155 431.082C871.155 430.466 871.589 430.158 872.149 430.046C872.821 429.92 873.185 429.962 873.185 429.962V430.41C873.185 431.222 873.227 431.614 873.227 431.614C873.227 431.614 872.835 431.922 872.149 431.922ZM873.465 432.37C873.633 432.804 874.109 433.14 874.753 433.14C875.481 433.14 875.929 432.832 875.929 432.832V431.74C875.355 432.104 875.061 431.992 875.061 431.516L875.047 428.422C875.047 426.602 874.151 425.86 872.373 425.86C871.057 425.86 869.965 426.252 869.965 426.252V427.33C869.965 427.33 870.833 427.148 871.477 427.148C872.737 427.148 873.213 427.456 873.213 428.618V428.982C872.807 428.982 872.303 428.996 871.771 429.066C870.119 429.262 869.321 430.032 869.321 431.278C869.321 432.3 869.965 433.168 871.365 433.168C872.177 433.168 872.877 432.86 873.465 432.37ZM876.953 433H879.823V431.992H878.815L878.969 428.534C878.997 428.016 878.969 427.54 878.969 427.54H879.053C879.053 427.54 879.193 428.03 879.403 428.464L881.293 432.58H882.119L884.079 428.45C884.317 427.932 884.443 427.54 884.443 427.54H884.513C884.513 427.54 884.499 427.82 884.527 428.394L884.667 431.992H883.645V433H887.145V431.992H886.277L886.053 427.008H886.963V426H884.121L882.049 430.354L880.159 426H877.177V427.008H878.059L877.835 431.992H876.953V433ZM891.747 433.14C893.049 433.14 893.749 432.65 893.749 432.65V431.572C893.749 431.572 893.161 431.894 892.125 431.894C890.893 431.894 890.123 430.9 890.123 429.332C890.123 427.974 890.669 427.064 891.579 427.064C892.363 427.064 892.545 427.442 893.427 427.638L893.805 426.07C893.147 426 892.629 425.86 891.775 425.86C889.731 425.86 888.233 427.232 888.233 429.626C888.233 431.796 889.717 433.14 891.747 433.14ZM894.934 433H898.336V431.992H897.664V429.92H898.224L900.422 433H902.424V431.992H901.892L899.61 428.94L901.542 427.008H902.214V426H899.344V427.008H900.058L898.49 428.954H897.664V427.008H898.322V426H894.92V427.008H895.802V431.992H894.934V433Z" fill="#3D496A"/>
<rect width="15" height="17" fill="black" fill-opacity="0" transform="translate(803 419)"/>
<path d="M818 431.474C818 432.116 817.467 432.637 816.809 432.637H804.191C803.533 432.637 803 432.116 803 431.474V431.172C803 430.529 803.533 430.009 804.191 430.009H816.809C817.467 430.009 818 430.529 818 431.172V431.474Z" fill="#985483"/>
<path d="M818 434.837C818 435.48 817.467 436 816.809 436H804.191C803.533 436 803 435.48 803 434.837V434.535C803 433.892 803.533 433.372 804.191 433.372H816.809C817.467 433.372 818 433.892 818 434.535V434.837Z" fill="#2AA15B"/>
<rect width="12.3513" height="10.1328" fill="black" fill-opacity="0" transform="translate(804.325 419)"/>
<path d="M806.233 419.931C806.233 419.417 805.806 419 805.279 419C804.752 419 804.325 419.417 804.325 419.931V428.202C804.325 428.716 804.752 429.133 805.279 429.133C805.806 429.133 806.233 428.716 806.233 428.202V422.435H808.572V420.573H806.233V419.931Z" fill="#0BC7DB"/>
<path d="M815.722 419C815.196 419 814.769 419.417 814.769 419.931V420.573H812.094V422.435H814.769V428.202C814.769 428.716 815.196 429.133 815.722 429.133C816.249 429.133 816.676 428.716 816.676 428.202V419.931C816.676 419.417 816.249 419 815.722 419Z" fill="#0BC7DB"/>
<path d="M809.825 420.573H809.581V422.435H809.825V420.573Z" fill="#D92968"/>
<path d="M811.085 420.573H810.835V422.435H811.085V420.573Z" fill="#D92968"/>
<path d="M809.068 423.083C808.892 423.083 808.75 422.909 808.75 422.695V420.035C808.75 419.821 808.892 419.648 809.068 419.648C809.243 419.648 809.385 419.821 809.385 420.035V422.695C809.385 422.909 809.243 423.083 809.068 423.083Z" fill="#D92968"/>
<path d="M810.326 424.376C810.151 424.376 810.009 424.203 810.009 423.989V420.035C810.009 419.821 810.151 419.647 810.326 419.647C810.502 419.647 810.644 419.821 810.644 420.035V423.989C810.644 424.203 810.501 424.376 810.326 424.376Z" fill="#D92968"/>
<path d="M811.585 423.083C811.41 423.083 811.268 422.909 811.268 422.695V420.035C811.268 419.821 811.41 419.648 811.585 419.648C811.761 419.648 811.903 419.821 811.903 420.035V422.695C811.903 422.909 811.761 423.083 811.585 423.083Z" fill="#D92968"/>
<rect width="3.89169" height="4.75709" fill="black" fill-opacity="0" transform="translate(808.381 423.638)"/>
<path d="M812.273 425.537H812.071C812.071 424.598 811.288 423.834 810.326 423.834C809.364 423.834 808.582 424.598 808.582 425.537H808.381C808.381 424.49 809.254 423.638 810.327 423.638C811.4 423.638 812.273 424.49 812.273 425.537Z" fill="#D92968"/>
<path d="M811.648 428.395H808.98L808.678 425.393H811.95L811.648 428.395Z" fill="#F6C837"/>
<rect width="106" height="31" fill="black" fill-opacity="0" transform="translate(692 261)"/>
<path fill-rule="evenodd" clip-rule="evenodd" d="M748.965 267L745.5 261L742.035 267H695C693.343 267 692 268.343 692 270V289C692 290.657 693.343 292 695 292H795C796.657 292 798 290.657 798 289V270C798 268.343 796.657 267 795 267H748.965Z" fill="white"/>
<path d="M728.558 284H732.45V282.992H731.554V275.222H732.45V274.2H728.838V275.222H729.622V279.086C729.622 279.086 729.132 279.282 728.194 279.282C726.514 279.282 725.996 278.372 725.996 276.776V275.222H726.78V274.2H723.168V275.222H724.064V276.916C724.064 278.82 725.086 280.416 727.718 280.416C728.908 280.416 729.622 280.15 729.622 280.15V282.992H728.558V284ZM737.346 284.14C738.9 284.14 739.656 283.65 739.656 283.65V282.572C739.656 282.572 738.886 282.908 738.046 282.908C736.282 282.908 735.624 281.928 735.54 280.626H740.02C740.132 278.064 738.956 276.86 737.052 276.86C735.134 276.86 733.664 278.302 733.664 280.626C733.664 282.67 734.966 284.14 737.346 284.14ZM735.582 279.562C735.666 278.456 736.198 277.882 736.926 277.882C737.556 277.882 738.046 278.47 738.046 279.45L735.582 279.562ZM741.086 287.514H744.74V286.52H743.844V283.762C743.844 283.762 744.264 284.14 745.258 284.14C747.204 284.14 748.632 282.642 748.632 280.122C748.632 278.386 747.68 276.86 745.678 276.86C744.992 276.86 744.32 277.154 743.802 277.616L743.844 277.182L743.48 276.93L741.086 277L741.072 277.98H741.982V286.52H741.086V287.514ZM744.88 283.034C744.124 283.034 743.844 282.698 743.844 282.698V280.052C743.844 279.212 743.788 278.638 743.788 278.638C744.152 278.344 744.628 278.162 745.118 278.162C746.224 278.162 746.714 279.114 746.714 280.458C746.714 282.18 746.028 283.034 744.88 283.034ZM749.309 286.338H750.359L750.639 284H755.819L756.099 286.338H757.163L757.219 282.992H756.127L756.113 278.008H757.037V277H750.359V278.008H751.367C751.339 280.458 751.017 282.012 749.897 282.992H749.281L749.309 286.338ZM751.297 282.992C752.137 282.152 752.445 280.57 752.515 278.008H754.279V282.992H751.297ZM765.343 284H768.745V282.992H767.863V278.008H768.745V277H765.343V278.008H766.001V282.992H765.343V284ZM758.413 284H762.039C764.209 284 765.259 283.132 765.259 281.662C765.259 280.22 764.167 279.422 762.067 279.422H761.143V278.008H761.969V277H758.399V278.008H759.281V282.992H758.413V284ZM761.143 283.02V280.402H761.899C762.851 280.402 763.299 280.906 763.299 281.718C763.299 282.502 762.851 283.02 761.885 283.02H761.143ZM770.088 284H773.49V282.992H772.832V280.948H775.576V282.992H774.932V284H778.334V282.992H777.438V278.008H778.334V277H774.932V278.008H775.576V279.926H772.832V278.008H773.49V277H770.088V278.008H770.97V282.992H770.088V284ZM779.686 284H783.312C785.482 284 786.532 283.132 786.532 281.662C786.532 280.22 785.44 279.422 783.34 279.422H782.416V278.008H783.242V277H779.672V278.008H780.554V282.992H779.686V284ZM782.416 283.02V280.402H783.172C784.124 280.402 784.572 280.906 784.572 281.718C784.572 282.502 784.124 283.02 783.158 283.02H782.416Z" fill="#3D496A"/>
<rect width="19.0956" height="18" fill="black" fill-opacity="0" transform="translate(700.954 270)"/>
<path d="M708.5 284L708 280.5H709.5V287L710 288H708.5V284Z" fill="#F6C837"/>
<path d="M703 283L705 281L704.5 287L705 288H704L703 283Z" fill="#2AA15B"/>
<path d="M714 272L713 273L710 271.5L711 271L710.5 270H711.5L712 271.5L713 272L713.5 271.5L712.5 270H713.5L714 271L714.5 271.5V270.5L715 270L715.5 272H716V271L716.5 270.5L717 272L717.5 271L718.5 270.5V271L717.5 272.5L718.5 272V272.5L717 273L714 272Z" fill="#D92968"/>
<path d="M705 280L702 283L702.5 287L703 288H701.5L701 283C701 283 701.533 280.88 701.5 279.5C701.473 278.313 700.77 277.665 701 276.5C701.222 275.383 701.636 274.741 702.5 274C704.28 272.475 706.291 274.78 708.5 274C709.324 273.709 709.535 273.148 710.5 273C711.54 272.84 712.04 273.762 713 273.5C713.68 273.315 714.5 272.5 714.5 272.5L716.5 273L717 274C717 274 718.85 273.746 719.5 274.5C719.904 274.967 720.163 275.404 720 276C719.855 276.533 719.551 276.958 719 277C718.565 277.033 718 276.5 718 276.5L715 278H713.5L712 283.5L711.5 287L712 288H710.5V283.5L710 280H705Z" fill="#985483"/>
<rect width="86" height="25" fill="black" fill-opacity="0" transform="translate(777 462)"/>
<path fill-rule="evenodd" clip-rule="evenodd" d="M786 487C784.343 487 783 485.657 783 484V477.964L777 474.5L783 471.036V465C783 463.343 784.343 462 786 462H860C861.657 462 863 463.343 863 465V484C863 485.657 861.657 487 860 487H786Z" fill="white"/>
<path d="M809.94 479.14C811.326 479.14 811.886 478.132 812.418 476.914L815.33 470.208H816.142V469.2H812.992V470.208H814.014L812.39 474.296C812.222 474.744 812.11 475.192 812.11 475.192H812.096C812.096 475.192 811.956 474.786 811.732 474.296L809.8 470.208H810.64V469.2H807.098V470.208H807.882L811.144 476.984C810.836 477.502 810.388 477.74 809.842 477.74C809.422 477.74 808.946 477.628 808.946 477.628L808.988 478.944C808.988 478.944 809.324 479.14 809.94 479.14ZM819.278 479.14C820.58 479.14 821.28 478.65 821.28 478.65V477.572C821.28 477.572 820.692 477.894 819.656 477.894C818.424 477.894 817.654 476.9 817.654 475.332C817.654 473.974 818.2 473.064 819.11 473.064C819.894 473.064 820.076 473.442 820.958 473.638L821.336 472.07C820.678 472 820.16 471.86 819.306 471.86C817.262 471.86 815.764 473.232 815.764 475.626C815.764 477.796 817.248 479.14 819.278 479.14ZM825.687 478.118C824.679 478.118 824.203 477.096 824.203 475.486C824.203 473.96 824.483 472.868 825.715 472.868C826.723 472.868 827.199 473.904 827.199 475.514C827.199 477.04 826.919 478.118 825.687 478.118ZM825.519 479.14C827.843 479.14 829.089 477.502 829.089 475.346C829.089 473.274 827.843 471.86 825.883 471.86C823.559 471.86 822.313 473.498 822.313 475.654C822.313 477.726 823.559 479.14 825.519 479.14ZM830.482 479.084C832.008 479.084 832.89 477.334 833.002 473.008H834.668V477.992H833.884V479H837.426V477.992H836.53V473.008H837.426V472H830.916V473.008H831.882C831.854 475.556 831.336 477.572 830.216 477.572C830.034 477.572 829.81 477.544 829.81 477.544L829.866 478.972C829.866 478.972 830.006 479.084 830.482 479.084ZM838.79 479H842.416C844.586 479 845.636 478.132 845.636 476.662C845.636 475.22 844.544 474.422 842.444 474.422H841.52V473.008H842.346V472H838.776V473.008H839.658V477.992H838.79V479ZM841.52 478.02V475.402H842.276C843.228 475.402 843.676 475.906 843.676 476.718C843.676 477.502 843.228 478.02 842.262 478.02H841.52ZM850.317 479.14C851.871 479.14 852.627 478.65 852.627 478.65V477.572C852.627 477.572 851.857 477.908 851.017 477.908C849.253 477.908 848.595 476.928 848.511 475.626H852.991C853.103 473.064 851.927 471.86 850.023 471.86C848.105 471.86 846.635 473.302 846.635 475.626C846.635 477.67 847.937 479.14 850.317 479.14ZM848.553 474.562C848.637 473.456 849.169 472.882 849.897 472.882C850.527 472.882 851.017 473.47 851.017 474.45L848.553 474.562Z" fill="#3D496A"/>
<rect width="10" height="20" fill="black" fill-opacity="0" transform="translate(801 464) scale(-1 1)"/>
<path d="M800.11 467.334H791.928C791.921 467.334 791.915 467.334 791.909 467.334C791.658 467.334 791.454 467.147 791.454 466.917C791.454 466.742 791.573 466.591 791.741 466.53L795.764 464.07C795.917 463.977 796.116 463.977 796.269 464.07L800.36 466.57C800.529 466.673 800.604 466.863 800.544 467.038C800.487 467.214 800.31 467.334 800.11 467.334Z" fill="#985483"/>
<path d="M791.455 483.167H792.364V468.167H799.636V483.167H800.545C800.796 483.167 801 483.354 801 483.583C801 483.813 800.796 484 800.545 484H791.455C791.205 484 791 483.813 791 483.583C791 483.354 791.205 483.167 791.455 483.167ZM796.909 480.667C796.909 480.897 797.113 481.083 797.364 481.083C797.615 481.083 797.818 480.897 797.818 480.667V479.834C797.818 479.604 797.615 479.417 797.364 479.417C797.113 479.417 796.909 479.604 796.909 479.834V480.667ZM796.909 478.167C796.909 478.397 797.113 478.584 797.364 478.584C797.615 478.584 797.818 478.397 797.818 478.167V477.334C797.818 477.104 797.615 476.917 797.364 476.917C797.113 476.917 796.909 477.104 796.909 477.334V478.167ZM796.909 475.667C796.909 475.897 797.113 476.084 797.364 476.084C797.615 476.084 797.818 475.897 797.818 475.667V474.834C797.818 474.605 797.615 474.417 797.364 474.417C797.113 474.417 796.909 474.605 796.909 474.834V475.667ZM796.909 473.167C796.909 473.397 797.113 473.584 797.364 473.584C797.615 473.584 797.818 473.397 797.818 473.167V472.334C797.818 472.104 797.615 471.917 797.364 471.917C797.113 471.917 796.909 472.105 796.909 472.334V473.167ZM796.909 470.667C796.909 470.897 797.113 471.084 797.364 471.084C797.615 471.084 797.818 470.897 797.818 470.667V469.834C797.818 469.604 797.615 469.417 797.364 469.417C797.113 469.417 796.909 469.605 796.909 469.834V470.667ZM794.182 480.667C794.182 480.897 794.386 481.083 794.636 481.083C794.886 481.083 795.091 480.897 795.091 480.667V479.834C795.091 479.604 794.886 479.417 794.636 479.417C794.386 479.417 794.182 479.604 794.182 479.834V480.667ZM794.182 478.167C794.182 478.397 794.386 478.584 794.636 478.584C794.886 478.584 795.091 478.397 795.091 478.167V477.334C795.091 477.104 794.886 476.917 794.636 476.917C794.386 476.917 794.182 477.104 794.182 477.334V478.167ZM794.182 475.667C794.182 475.897 794.386 476.084 794.636 476.084C794.886 476.084 795.091 475.897 795.091 475.667V474.834C795.091 474.605 794.886 474.417 794.636 474.417C794.386 474.417 794.182 474.605 794.182 474.834V475.667ZM794.182 473.167C794.182 473.397 794.386 473.584 794.636 473.584C794.886 473.584 795.091 473.397 795.091 473.167V472.334C795.091 472.104 794.886 471.917 794.636 471.917C794.386 471.917 794.182 472.105 794.182 472.334V473.167ZM794.182 470.667C794.182 470.897 794.386 471.084 794.636 471.084C794.886 471.084 795.091 470.897 795.091 470.667V469.834C795.091 469.604 794.886 469.417 794.636 469.417C794.386 469.417 794.182 469.605 794.182 469.834V470.667Z" fill="#0BC7DB"/>
<line x1="791.5" y1="483.5" x2="800.5" y2="483.5" stroke="#F6C837" stroke-linecap="round"/>
<line x1="791.375" y1="482.625" x2="800.625" y2="482.625" stroke="white" stroke-width="0.75" stroke-linecap="round"/>
<rect width="77" height="31" fill="black" fill-opacity="0" transform="translate(721 501)"/>
<path fill-rule="evenodd" clip-rule="evenodd" d="M762.965 507L759.5 501L756.035 507H724C722.343 507 721 508.343 721 510V529C721 530.657 722.343 532 724 532H795C796.657 532 798 530.657 798 529V510C798 508.343 796.657 507 795 507H762.965Z" fill="white"/>
<path d="M755.432 523.104C753.78 523.104 752.688 521.592 752.688 519.086C752.688 516.692 753.458 515.04 755.334 515.04C757 515.04 757.994 516.734 757.994 519.198C757.994 521.508 757.308 523.104 755.432 523.104ZM755.32 524.14C758.358 524.14 759.982 521.886 759.982 518.918C759.982 516.118 758.204 514.004 755.362 514.004C752.324 514.004 750.7 516.314 750.7 519.282C750.7 522.082 752.478 524.14 755.32 524.14ZM761.209 527.514H764.863V526.52H763.967V523.762C763.967 523.762 764.387 524.14 765.381 524.14C767.327 524.14 768.755 522.642 768.755 520.122C768.755 518.386 767.803 516.86 765.801 516.86C765.115 516.86 764.443 517.154 763.925 517.616L763.967 517.182L763.603 516.93L761.209 517L761.195 517.98H762.105V526.52H761.209V527.514ZM765.003 523.034C764.247 523.034 763.967 522.698 763.967 522.698V520.052C763.967 519.212 763.911 518.638 763.911 518.638C764.275 518.344 764.751 518.162 765.241 518.162C766.347 518.162 766.837 519.114 766.837 520.458C766.837 522.18 766.151 523.034 765.003 523.034ZM771.865 515.656C772.551 515.656 773.013 515.292 773.013 514.578C773.013 513.948 772.621 513.584 771.977 513.584C771.319 513.584 770.801 513.934 770.801 514.62C770.801 515.278 771.263 515.656 771.865 515.656ZM774.651 515.656C775.337 515.656 775.799 515.292 775.799 514.578C775.799 513.948 775.407 513.584 774.763 513.584C774.105 513.584 773.587 513.934 773.587 514.62C773.587 515.278 774.049 515.656 774.651 515.656ZM773.629 524.14C775.183 524.14 775.939 523.65 775.939 523.65V522.572C775.939 522.572 775.169 522.908 774.329 522.908C772.565 522.908 771.907 521.928 771.823 520.626H776.303C776.415 518.064 775.239 516.86 773.335 516.86C771.417 516.86 769.947 518.302 769.947 520.626C769.947 522.67 771.249 524.14 773.629 524.14ZM771.865 519.562C771.949 518.456 772.481 517.882 773.209 517.882C773.839 517.882 774.329 518.47 774.329 519.45L771.865 519.562ZM777.666 524.084C779.192 524.084 780.074 522.334 780.186 518.008H781.852V522.992H781.068V524H784.61V522.992H783.714V518.008H784.61V517H778.1V518.008H779.066C779.038 520.556 778.52 522.572 777.4 522.572C777.218 522.572 776.994 522.544 776.994 522.544L777.05 523.972C777.05 523.972 777.19 524.084 777.666 524.084Z" fill="#3D496A"/>
<rect width="21.3115" height="15.4453" fill="black" fill-opacity="0" transform="translate(726 510)"/>
<path fill-rule="evenodd" clip-rule="evenodd" d="M743.442 522.302L743.37 522.631L743.354 522.636L742.798 522.767L743.005 523.086L742.867 523.345L742.447 523.26L742.677 523.594L742.575 523.785L742.123 523.623L742.409 523.957L742.275 524.139L741.804 523.906L742.048 524.328L741.88 524.533L741.425 524.246L741.589 524.819L741.397 524.898L741.385 524.887L740.882 524.403L740.958 524.946L740.906 525.144L740.646 525.238L740.375 525.034L740.121 524.695L740.032 525.127L739.841 525.423L739.334 525.445L739.326 525.437L738.954 525.071L738.952 525.063L738.85 524.57L738.581 525.211L738.239 525.152L738.122 524.784L738.157 524.191L737.862 524.691L737.583 524.788L737.427 524.338L737.447 523.416L737.5 523.381L737.449 523.293L737.458 522.91L737.283 523.002L735.89 520.563L735.629 519.813L734.923 518.727L734.645 518.468L734.097 518.223L734.03 518.391L733.924 518.194M735.337 519.881L735.332 519.873L735.306 519.881H735.337ZM743.442 522.302L743.03 522.006L743.442 522.302ZM743.03 522.006L743.495 521.603L743.03 522.006ZM743.495 521.603L743.311 521.414L743.495 521.603ZM743.311 521.414L741.264 521.089L743.311 521.414ZM741.264 521.089L743.204 520.534L741.264 521.089ZM743.204 520.534L742.87 520.037L743.204 520.534ZM742.87 520.037L743.747 519.699L742.87 520.037ZM743.747 519.699L744.384 519.284L743.747 519.699ZM744.384 519.284L744.077 518.969L744.384 519.284ZM744.077 518.969L745.359 518.11L744.077 518.969ZM745.359 518.11L745.704 517.671L745.359 518.11ZM745.704 517.671L745.165 517.527L745.704 517.671ZM745.165 517.527L746.04 516.924L745.165 517.527ZM746.04 516.924L746.478 516.434L746.04 516.924ZM746.478 516.434L746.356 515.945L746.478 516.434ZM746.356 515.945L745.502 515.915L746.356 515.945ZM745.502 515.915L746.859 515.039L745.502 515.915ZM746.859 515.039L747.312 514.229L746.859 515.039ZM747.312 514.229L744.924 515.156L747.312 514.229ZM744.924 515.156L746.104 514.137L744.924 515.156ZM746.104 514.137L746.979 513.099L746.104 514.137ZM746.979 513.099L746.983 513.094L746.979 513.099ZM746.983 513.094L747.091 512.438L746.983 513.094ZM747.091 512.438L744.483 514.539L747.091 512.438ZM744.483 514.539L746.304 512.186L744.483 514.539ZM746.304 512.186L746.668 510.994L746.304 512.186ZM746.668 510.994L743.78 514.147L746.668 510.994ZM743.78 514.147L745.541 511.378L743.78 514.147ZM745.541 511.378L745.545 511.371L745.541 511.378ZM745.545 511.371L745.551 510L745.545 511.371ZM745.551 510L743.042 513.904L745.551 510ZM743.042 513.904L744.136 511.576L743.042 513.904ZM744.136 511.576L744.225 510.085L744.136 511.576ZM744.225 510.085L742.383 513.642L744.225 510.085ZM742.383 513.642L742.943 512.281L742.383 513.642ZM742.943 512.281L742.946 512.272L742.943 512.281ZM742.946 512.272L742.761 511.626L742.946 512.272ZM742.761 511.626L740.328 516.398L742.761 511.626ZM740.328 516.398L738.399 518.243L740.328 516.398ZM738.399 518.243L737.377 518.598L738.399 518.243ZM737.377 518.598L735.566 517.701L737.377 518.598ZM735.566 517.701L735.558 517.696L735.566 517.701ZM735.558 517.696L735.093 517.804L735.558 517.696ZM735.093 517.804L734.534 517.681L735.093 517.804ZM734.534 517.681L734.523 517.681L734.534 517.681ZM734.523 517.681C734.153 517.758 734.15 517.764 734.144 517.777L734.523 517.681ZM734.144 517.777C734.137 517.788 734.042 517.905 733.981 517.98L734.144 517.777Z" fill="#24523E"/>
<path fill-rule="evenodd" clip-rule="evenodd" d="M735.535 520.652L735.048 519.89L735.037 519.873L732.909 520.542L730.214 520.577L730.148 520.578L730.875 521.283L726.078 520.738L726 520.729L727.289 522.001L727.295 522.008L728.92 522.199L728.031 522.523L728.913 522.993L730.426 522.781L730.29 523.201L730.672 523.332L731.375 523.127L731.42 523.485L731.761 523.59L732.462 523.298L732.475 523.653L732.773 523.762L733.367 523.361L733.382 523.771L733.739 523.869L733.75 523.872L734.377 523.515L734.474 523.773L735.097 523.731L735.326 523.3L735.559 523.676L735.992 523.554L736.003 523.551L736.279 523.032L736.534 523.241L736.625 523.194L735.535 520.652ZM743.926 510.153L743.93 510.085L743.88 510.182C743.896 510.173 743.91 510.163 743.926 510.153Z" fill="#D92968"/>
<defs>
<filter id="filter0_d" x="690" y="763" width="64" height="64" filterUnits="userSpaceOnUse" color-interpolation-filters="sRGB">
<feFlood flood-opacity="0" result="BackgroundImageFix"/>
<feColorMatrix in="SourceAlpha" type="matrix" values="0 0 0 0 0 0 0 0 0 0 0 0 0 0 0 0 0 0 127 0"/>
<feOffset/>
<feGaussianBlur stdDeviation="10"/>
<feColorMatrix type="matrix" values="0 0 0 0 1 0 0 0 0 1 0 0 0 0 1 0 0 0 0.75 0"/>
<feBlend mode="normal" in2="BackgroundImageFix" result="effect1_dropShadow"/>
<feBlend mode="normal" in="SourceGraphic" in2="effect1_dropShadow" result="shape"/>
</filter>
<filter id="filter1_d" x="803.588" y="915.588" width="32" height="32" filterUnits="userSpaceOnUse" color-interpolation-filters="sRGB">
<feFlood flood-opacity="0" result="BackgroundImageFix"/>
<feColorMatrix in="SourceAlpha" type="matrix" values="0 0 0 0 0 0 0 0 0 0 0 0 0 0 0 0 0 0 127 0"/>
<feOffset/>
<feGaussianBlur stdDeviation="5"/>
<feColorMatrix type="matrix" values="0 0 0 0 1 0 0 0 0 1 0 0 0 0 1 0 0 0 0.5 0"/>
<feBlend mode="normal" in2="BackgroundImageFix" result="effect1_dropShadow"/>
<feBlend mode="normal" in="SourceGraphic" in2="effect1_dropShadow" result="shape"/>
</filter>
<filter id="filter2_d" x="706.588" y="732.588" width="32" height="32" filterUnits="userSpaceOnUse" color-interpolation-filters="sRGB">
<feFlood flood-opacity="0" result="BackgroundImageFix"/>
<feColorMatrix in="SourceAlpha" type="matrix" values="0 0 0 0 0 0 0 0 0 0 0 0 0 0 0 0 0 0 127 0"/>
<feOffset/>
<feGaussianBlur stdDeviation="5"/>
<feColorMatrix type="matrix" values="0 0 0 0 1 0 0 0 0 1 0 0 0 0 1 0 0 0 0.5 0"/>
<feBlend mode="normal" in2="BackgroundImageFix" result="effect1_dropShadow"/>
<feBlend mode="normal" in="SourceGraphic" in2="effect1_dropShadow" result="shape"/>
</filter>
<filter id="filter3_d" x="760.588" y="411.588" width="32" height="32" filterUnits="userSpaceOnUse" color-interpolation-filters="sRGB">
<feFlood flood-opacity="0" result="BackgroundImageFix"/>
<feColorMatrix in="SourceAlpha" type="matrix" values="0 0 0 0 0 0 0 0 0 0 0 0 0 0 0 0 0 0 127 0"/>
<feOffset/>
<feGaussianBlur stdDeviation="5"/>
<feColorMatrix type="matrix" values="0 0 0 0 1 0 0 0 0 1 0 0 0 0 1 0 0 0 0.5 0"/>
<feBlend mode="normal" in2="BackgroundImageFix" result="effect1_dropShadow"/>
<feBlend mode="normal" in="SourceGraphic" in2="effect1_dropShadow" result="shape"/>
</filter>
<filter id="filter4_d" x="729" y="234" width="32" height="32" filterUnits="userSpaceOnUse" color-interpolation-filters="sRGB">
<feFlood flood-opacity="0" result="BackgroundImageFix"/>
<feColorMatrix in="SourceAlpha" type="matrix" values="0 0 0 0 0 0 0 0 0 0 0 0 0 0 0 0 0 0 127 0"/>
<feOffset/>
<feGaussianBlur stdDeviation="5"/>
<feColorMatrix type="matrix" values="0 0 0 0 1 0 0 0 0 1 0 0 0 0 1 0 0 0 0.5 0"/>
<feBlend mode="normal" in2="BackgroundImageFix" result="effect1_dropShadow"/>
<feBlend mode="normal" in="SourceGraphic" in2="effect1_dropShadow" result="shape"/>
</filter>
<filter id="filter5_d" x="754" y="142" width="32" height="32" filterUnits="userSpaceOnUse" color-interpolation-filters="sRGB">
<feFlood flood-opacity="0" result="BackgroundImageFix"/>
<feColorMatrix in="SourceAlpha" type="matrix" values="0 0 0 0 0 0 0 0 0 0 0 0 0 0 0 0 0 0 127 0"/>
<feOffset/>
<feGaussianBlur stdDeviation="5"/>
<feColorMatrix type="matrix" values="0 0 0 0 1 0 0 0 0 1 0 0 0 0 1 0 0 0 0.5 0"/>
<feBlend mode="normal" in2="BackgroundImageFix" result="effect1_dropShadow"/>
<feBlend mode="normal" in="SourceGraphic" in2="effect1_dropShadow" result="shape"/>
</filter>
<filter id="filter6_d" x="743" y="474" width="32" height="32" filterUnits="userSpaceOnUse" color-interpolation-filters="sRGB">
<feFlood flood-opacity="0" result="BackgroundImageFix"/>
<feColorMatrix in="SourceAlpha" type="matrix" values="0 0 0 0 0 0 0 0 0 0 0 0 0 0 0 0 0 0 127 0"/>
<feOffset/>
<feGaussianBlur stdDeviation="5"/>
<feColorMatrix type="matrix" values="0 0 0 0 1 0 0 0 0 1 0 0 0 0 1 0 0 0 0.5 0"/>
<feBlend mode="normal" in2="BackgroundImageFix" result="effect1_dropShadow"/>
<feBlend mode="normal" in="SourceGraphic" in2="effect1_dropShadow" result="shape"/>
</filter>
<filter id="filter7_d" x="749.588" y="458.588" width="32" height="32" filterUnits="userSpaceOnUse" color-interpolation-filters="sRGB">
<feFlood flood-opacity="0" result="BackgroundImageFix"/>
<feColorMatrix in="SourceAlpha" type="matrix" values="0 0 0 0 0 0 0 0 0 0 0 0 0 0 0 0 0 0 127 0"/>
<feOffset/>
<feGaussianBlur stdDeviation="5"/>
<feColorMatrix type="matrix" values="0 0 0 0 1 0 0 0 0 1 0 0 0 0 1 0 0 0 0.5 0"/>
<feBlend mode="normal" in2="BackgroundImageFix" result="effect1_dropShadow"/>
<feBlend mode="normal" in="SourceGraphic" in2="effect1_dropShadow" result="shape"/>
</filter>
<filter id="filter8_d" x="716.588" y="430.588" width="32" height="32" filterUnits="userSpaceOnUse" color-interpolation-filters="sRGB">
<feFlood flood-opacity="0" result="BackgroundImageFix"/>
<feColorMatrix in="SourceAlpha" type="matrix" values="0 0 0 0 0 0 0 0 0 0 0 0 0 0 0 0 0 0 127 0"/>
<feOffset/>
<feGaussianBlur stdDeviation="5"/>
<feColorMatrix type="matrix" values="0 0 0 0 1 0 0 0 0 1 0 0 0 0 1 0 0 0 0.5 0"/>
<feBlend mode="normal" in2="BackgroundImageFix" result="effect1_dropShadow"/>
<feBlend mode="normal" in="SourceGraphic" in2="effect1_dropShadow" result="shape"/>
</filter>
<filter id="filter9_d" x="708" y="920" width="32" height="32" filterUnits="userSpaceOnUse" color-interpolation-filters="sRGB">
<feFlood flood-opacity="0" result="BackgroundImageFix"/>
<feColorMatrix in="SourceAlpha" type="matrix" values="0 0 0 0 0 0 0 0 0 0 0 0 0 0 0 0 0 0 127 0"/>
<feOffset/>
<feGaussianBlur stdDeviation="5"/>
<feColorMatrix type="matrix" values="0 0 0 0 1 0 0 0 0 1 0 0 0 0 1 0 0 0 0.5 0"/>
<feBlend mode="normal" in2="BackgroundImageFix" result="effect1_dropShadow"/>
<feBlend mode="normal" in="SourceGraphic" in2="effect1_dropShadow" result="shape"/>
</filter>
</defs>
</svg>
