<svg width="29" height="36" viewBox="0 0 29 36" fill="none" xmlns="http://www.w3.org/2000/svg">
<rect width="29" height="36" fill="black" fill-opacity="0"/>
<path d="M26.2665 7.74943H23.5672V5.74713C23.5672 5.54898 23.49 5.35894 23.3524 5.21883C23.2148 5.07871 23.0283 5 22.8337 5H19.6357C19.4412 5 19.2546 5.07871 19.117 5.21883C18.9795 5.35894 18.9022 5.54898 18.9022 5.74713V7.74943H11.0978V5.74713C11.0978 5.54898 11.0205 5.35894 10.883 5.21883C10.7454 5.07871 10.5588 5 10.3643 5H7.16626C6.97172 5 6.78516 5.07871 6.6476 5.21883C6.51004 5.35894 6.43276 5.54898 6.43276 5.74713V7.74943H3.7335C3.53896 7.74943 3.35239 7.82814 3.21484 7.96825C3.07728 8.10837 3 8.2984 3 8.49655V30.2529C3 30.451 3.07728 30.6411 3.21484 30.7812C3.35239 30.9213 3.53896 31 3.7335 31H26.2665C26.461 31 26.6476 30.9213 26.7852 30.7812C26.9227 30.6411 27 30.451 27 30.2529V8.49655C27 8.2984 26.9227 8.10837 26.7852 7.96825C26.6476 7.82814 26.461 7.74943 26.2665 7.74943V7.74943ZM20.3692 6.49425H22.1002V9.69195H20.3692V6.49425ZM7.89975 6.49425H9.63081V9.69195H7.89975V6.49425ZM19.1956 22.423L17.6406 24.0069L18.022 26.2184C18.0418 26.3539 18.0247 26.4923 17.9725 26.6186C17.9203 26.7448 17.835 26.854 17.726 26.9342C17.6169 27.0144 17.4884 27.0626 17.3543 27.0734C17.2202 27.0841 17.0858 27.0572 16.9658 26.9954L15 25.9494L13.0636 26.9954C12.9435 27.0572 12.8091 27.0841 12.675 27.0734C12.541 27.0626 12.4124 27.0144 12.3034 26.9342C12.1943 26.854 12.109 26.7448 12.0568 26.6186C12.0046 26.4923 11.9875 26.3539 12.0073 26.2184L12.3594 24.0069L10.7751 22.4529C10.6738 22.3557 10.6018 22.2313 10.5673 22.0941C10.5329 21.9568 10.5375 21.8124 10.5805 21.6777C10.6236 21.543 10.7033 21.4236 10.8105 21.3333C10.9177 21.243 11.0478 21.1856 11.1858 21.1678L13.357 20.8391L14.3252 18.8368C14.3852 18.7105 14.479 18.6039 14.5958 18.5294C14.7125 18.4549 14.8475 18.4153 14.9853 18.4153C15.1231 18.4153 15.2581 18.4549 15.3749 18.5294C15.4916 18.6039 15.5854 18.7105 15.6455 18.8368L16.6137 20.8391L18.7848 21.1678C18.9228 21.1856 19.053 21.243 19.1601 21.3333C19.2673 21.4236 19.3471 21.543 19.3901 21.6777C19.4332 21.8124 19.4378 21.9568 19.4033 22.0941C19.3689 22.2313 19.2968 22.3557 19.1956 22.4529V22.423ZM25.533 14.1149H4.46699V9.24368H6.43276V10.4092C6.43276 10.6073 6.51004 10.7974 6.6476 10.9375C6.78516 11.0776 6.97172 11.1563 7.16626 11.1563H10.3643C10.5588 11.1563 10.7454 11.0776 10.883 10.9375C11.0205 10.7974 11.0978 10.6073 11.0978 10.4092V9.24368H18.9022V10.4092C18.9022 10.6073 18.9795 10.7974 19.117 10.9375C19.2546 11.0776 19.4412 11.1563 19.6357 11.1563H22.8337C23.0283 11.1563 23.2148 11.0776 23.3524 10.9375C23.49 10.7974 23.5672 10.6073 23.5672 10.4092V9.24368H25.533V14.1149Z" fill="white"/>
</svg>
