<svg width="29" height="36" viewBox="0 0 29 36" fill="none" xmlns="http://www.w3.org/2000/svg">
<rect width="29" height="36" fill="black" fill-opacity="0"/>
<path d="M14.4976 5C9.81229 5 6 9.08719 6 14.1104C6 18.9724 13.7749 30.3084 14.1096 30.7868C14.2017 30.922 14.3424 31 14.4976 31C14.6528 31 14.7983 30.922 14.8904 30.7868C15.2202 30.3084 23 18.9724 23 14.1104C23 9.08719 19.1877 5 14.4976 5ZM14.4976 18.52C12.2325 18.52 10.3895 16.544 10.3895 14.1104C10.3895 11.682 12.2325 9.70603 14.4976 9.70603C16.7626 9.70603 18.6105 11.682 18.6105 14.1104C18.6105 16.544 16.7626 18.52 14.4976 18.52Z" fill="white"/>
</svg>
