<svg width="1484" height="1080" viewBox="0 0 1484 1080" fill="none" xmlns="http://www.w3.org/2000/svg">
<rect width="1484" height="1080" fill="black" fill-opacity="0"/>
<rect width="325" height="350" fill="black" fill-opacity="0" transform="translate(614 694)"/>
<g filter="url(#filter0_d)">
<circle cx="748" cy="742" r="7" fill="white"/>
<circle cx="748" cy="742" r="6" stroke="url(#paint0_linear)" stroke-width="2" stroke-linecap="round"/>
</g>
<path fill-rule="evenodd" clip-rule="evenodd" d="M837 991C835.343 991 834 992.343 834 994V1018C834 1019.66 835.343 1021 837 1021H883.035L886.5 1027L889.965 1021H936C937.657 1021 939 1019.66 939 1018V994C939 992.343 937.657 991 936 991H837Z" fill="white"/>
<path d="M844.61 1003.36C843.43 1003.36 842.65 1002.28 842.65 1000.49C842.65 998.78 843.2 997.6 844.54 997.6C845.73 997.6 846.44 998.81 846.44 1000.57C846.44 1002.22 845.95 1003.36 844.61 1003.36ZM844.53 1004.1C846.7 1004.1 847.86 1002.49 847.86 1000.37C847.86 998.37 846.59 996.86 844.56 996.86C842.39 996.86 841.23 998.51 841.23 1000.63C841.23 1002.63 842.5 1004.1 844.53 1004.1ZM850.23 1004.1C851.38 1004.1 852.23 1003.46 852.23 1002.52C852.23 1001.84 851.66 1001.47 850.97 1001.41V1001.37C851.69 1001.23 852.06 1000.82 852.06 1000.22C852.06 999.38 851.29 998.9 850.18 998.9C849.48 998.9 849.07 999.01 848.55 999.08L848.75 1000.15C849.37 999.96 849.66 999.69 850.14 999.69C850.56 999.69 850.74 999.94 850.74 1000.31C850.74 1000.82 850.4 1001.06 849.83 1001.06H849.43V1001.78H849.85C850.5 1001.78 850.89 1001.98 850.89 1002.43C850.89 1003.03 850.45 1003.28 849.79 1003.28C849.11 1003.28 848.58 1002.99 848.58 1002.99V1003.74C848.58 1003.74 849.09 1004.1 850.23 1004.1ZM852.716 1005.67H853.466L853.666 1004H857.366L857.566 1005.67H858.326L858.366 1003.28H857.586L857.576 999.72H858.236V999H853.466V999.72H854.186C854.166 1001.47 853.936 1002.58 853.136 1003.28H852.696L852.716 1005.67ZM854.136 1003.28C854.736 1002.68 854.956 1001.55 855.006 999.72H856.266V1003.28H854.136ZM861.529 1003.37C860.809 1003.37 860.469 1002.64 860.469 1001.49C860.469 1000.4 860.669 999.62 861.549 999.62C862.269 999.62 862.609 1000.36 862.609 1001.51C862.609 1002.6 862.409 1003.37 861.529 1003.37ZM861.409 1004.1C863.069 1004.1 863.959 1002.93 863.959 1001.39C863.959 999.91 863.069 998.9 861.669 998.9C860.009 998.9 859.119 1000.07 859.119 1001.61C859.119 1003.09 860.009 1004.1 861.409 1004.1ZM864.704 1006.51H867.314V1005.8H866.674V1003.83C866.674 1003.83 866.974 1004.1 867.684 1004.1C869.074 1004.1 870.094 1003.03 870.094 1001.23C870.094 999.99 869.414 998.9 867.984 998.9C867.494 998.9 867.014 999.11 866.644 999.44L866.674 999.13L866.414 998.95L864.704 999L864.694 999.7H865.344V1005.8H864.704V1006.51ZM867.414 1003.31C866.874 1003.31 866.674 1003.07 866.674 1003.07V1001.18C866.674 1000.58 866.634 1000.17 866.634 1000.17C866.894 999.96 867.234 999.83 867.584 999.83C868.374 999.83 868.724 1000.51 868.724 1001.47C868.724 1002.7 868.234 1003.31 867.414 1003.31ZM873.365 1003.37C872.645 1003.37 872.305 1002.64 872.305 1001.49C872.305 1000.4 872.505 999.62 873.385 999.62C874.105 999.62 874.445 1000.36 874.445 1001.51C874.445 1002.6 874.245 1003.37 873.365 1003.37ZM873.245 1004.1C874.905 1004.1 875.795 1002.93 875.795 1001.39C875.795 999.91 874.905 998.9 873.505 998.9C871.845 998.9 870.955 1000.07 870.955 1001.61C870.955 1003.09 871.845 1004.1 873.245 1004.1ZM876.65 1004H879.47C880.63 1004 881.45 1003.54 881.45 1002.56C881.45 1001.86 880.97 1001.46 880.16 1001.38V1001.34C880.81 1001.24 881.18 1000.81 881.18 1000.23C881.18 999.48 880.57 999 879.44 999H876.65V999.72H877.28V1003.28H876.65V1004ZM878.6 1003.3V1001.76H879.2C879.83 1001.76 880.11 1002.03 880.11 1002.53C880.11 1003.06 879.76 1003.3 879.17 1003.3H878.6ZM878.6 1001.08V999.7H879.02C879.56 999.7 879.85 999.92 879.85 1000.41C879.85 1000.73 879.68 1000.98 879.44 1001.08H878.6ZM882.324 1004H884.234L885.954 1001.05C886.224 1000.59 886.364 1000.18 886.364 1000.18H886.404C886.404 1000.18 886.364 1000.59 886.364 1000.91V1003.28H885.884V1004H888.314V1003.28H887.674V999.72H888.314V999H886.374L884.664 1001.92C884.374 1002.44 884.234 1002.85 884.234 1002.85H884.194C884.194 1002.85 884.244 1002.26 884.244 1001.86V999.72H884.754V999H882.324V999.72H882.954V1003.28H882.324V1004ZM890.167 1004H892.697V1003.28H892.097V999.72H893.027L893.147 1000.62H893.787L893.747 999H889.117L889.077 1000.62H889.717L889.837 999.72H890.747V1003.28H890.167V1004ZM897.12 1004.1C898.23 1004.1 898.77 1003.75 898.77 1003.75V1002.98C898.77 1002.98 898.22 1003.22 897.62 1003.22C896.36 1003.22 895.89 1002.52 895.83 1001.59H899.03C899.11 999.76 898.27 998.9 896.91 998.9C895.54 998.9 894.49 999.93 894.49 1001.59C894.49 1003.05 895.42 1004.1 897.12 1004.1ZM895.86 1000.83C895.92 1000.04 896.3 999.63 896.82 999.63C897.27 999.63 897.62 1000.05 897.62 1000.75L895.86 1000.83ZM900.003 1004.06C901.093 1004.06 901.723 1002.81 901.803 999.72H902.993V1003.28H902.433V1004H904.963V1003.28H904.323V999.72H904.963V999H900.313V999.72H901.003C900.983 1001.54 900.613 1002.98 899.813 1002.98C899.683 1002.98 899.523 1002.96 899.523 1002.96L899.563 1003.98C899.563 1003.98 899.663 1004.06 900.003 1004.06ZM905.937 1004H908.527C910.077 1004 910.827 1003.38 910.827 1002.33C910.827 1001.3 910.047 1000.73 908.547 1000.73H907.887V999.72H908.477V999H905.927V999.72H906.557V1003.28H905.937V1004ZM907.887 1003.3V1001.43H908.427C909.107 1001.43 909.427 1001.79 909.427 1002.37C909.427 1002.93 909.107 1003.3 908.417 1003.3H907.887ZM911.601 1004H914.031V1003.28H913.561V1001.82H915.521V1003.28H915.061V1004H917.491V1003.28H916.851V999.72H917.491V999H915.061V999.72H915.521V1001.09H913.561V999.72H914.031V999H911.601V999.72H912.231V1003.28H911.601V1004ZM923.407 1004H925.837V1003.28H925.207V999.72H925.837V999H923.407V999.72H923.877V1003.28H923.407V1004ZM918.457 1004H921.047C922.597 1004 923.347 1003.38 923.347 1002.33C923.347 1001.3 922.567 1000.73 921.067 1000.73H920.407V999.72H920.997V999H918.447V999.72H919.077V1003.28H918.457V1004ZM920.407 1003.3V1001.43H920.947C921.627 1001.43 921.947 1001.79 921.947 1002.37C921.947 1002.93 921.627 1003.3 920.937 1003.3H920.407ZM929.906 998.09C930.816 998.09 931.446 997.66 931.856 997.28L931.166 996.44C930.746 996.79 930.476 997.41 929.906 997.41C929.366 997.41 929.156 996.75 928.766 996.4L927.906 997.28C928.276 997.6 929.006 998.09 929.906 998.09ZM926.796 1004H928.706L930.426 1001.05C930.696 1000.59 930.836 1000.18 930.836 1000.18H930.876C930.876 1000.18 930.836 1000.59 930.836 1000.91V1003.28H930.356V1004H932.786V1003.28H932.146V999.72H932.786V999H930.846L929.136 1001.92C928.846 1002.44 928.706 1002.85 928.706 1002.85H928.666C928.666 1002.85 928.716 1002.26 928.716 1001.86V999.72H929.226V999H926.796V999.72H927.426V1003.28H926.796V1004ZM840.171 1015H842.601V1014.28H842.121V1012.8H842.521L844.091 1015H845.521V1014.28H845.141L843.511 1012.1L844.891 1010.72H845.371V1010H843.321V1010.72H843.831L842.711 1012.11H842.121V1010.72H842.591V1010H840.161V1010.72H840.791V1014.28H840.171V1015ZM848.527 1014.37C847.807 1014.37 847.467 1013.64 847.467 1012.49C847.467 1011.4 847.667 1010.62 848.547 1010.62C849.267 1010.62 849.607 1011.36 849.607 1012.51C849.607 1013.6 849.407 1014.37 848.527 1014.37ZM848.407 1015.1C850.067 1015.1 850.957 1013.93 850.957 1012.39C850.957 1010.91 850.067 1009.9 848.667 1009.9C847.007 1009.9 846.117 1011.07 846.117 1012.61C846.117 1014.09 847.007 1015.1 848.407 1015.1ZM851.731 1015H853.781V1014.28H853.061L853.171 1011.81C853.191 1011.44 853.171 1011.1 853.171 1011.1H853.231C853.231 1011.1 853.331 1011.45 853.481 1011.76L854.831 1014.7H855.421L856.821 1011.75C856.991 1011.38 857.081 1011.1 857.081 1011.1H857.131C857.131 1011.1 857.121 1011.3 857.141 1011.71L857.241 1014.28H856.511V1015H859.011V1014.28H858.391L858.231 1010.72H858.881V1010H856.851L855.371 1013.11L854.021 1010H851.891V1010.72H852.521L852.361 1014.28H851.731V1015ZM859.897 1015H862.327V1014.28H861.857V1010.72H863.687V1014.28H863.227V1015H865.657V1014.28H865.017V1010.72H865.657V1010H859.897V1010.72H860.527V1014.28H859.897V1015ZM866.776 1015.06C867.866 1015.06 868.496 1013.81 868.576 1010.72H869.766V1014.28H869.206V1015H871.736V1014.28H871.096V1010.72H871.736V1010H867.086V1010.72H867.776C867.756 1012.54 867.386 1013.98 866.586 1013.98C866.456 1013.98 866.296 1013.96 866.296 1013.96L866.336 1014.98C866.336 1014.98 866.436 1015.06 866.776 1015.06ZM875.221 1015.1C876.331 1015.1 876.871 1014.75 876.871 1014.75V1013.98C876.871 1013.98 876.321 1014.22 875.721 1014.22C874.461 1014.22 873.991 1013.52 873.931 1012.59H877.131C877.211 1010.76 876.371 1009.9 875.011 1009.9C873.641 1009.9 872.591 1010.93 872.591 1012.59C872.591 1014.05 873.521 1015.1 875.221 1015.1ZM873.961 1011.83C874.021 1011.04 874.401 1010.63 874.921 1010.63C875.371 1010.63 875.721 1011.05 875.721 1011.75L873.961 1011.83ZM878.012 1015H880.442V1014.28H879.962V1012.8H880.362L881.932 1015H883.362V1014.28H882.982L881.352 1012.1L882.732 1010.72H883.212V1010H881.162V1010.72H881.672L880.552 1012.11H879.962V1010.72H880.432V1010H878.002V1010.72H878.632V1014.28H878.012V1015ZM886.458 1015.1C887.388 1015.1 887.888 1014.75 887.888 1014.75V1013.98C887.888 1013.98 887.468 1014.21 886.728 1014.21C885.848 1014.21 885.298 1013.5 885.298 1012.38C885.298 1011.41 885.688 1010.76 886.338 1010.76C886.898 1010.76 887.028 1011.03 887.658 1011.17L887.928 1010.05C887.458 1010 887.088 1009.9 886.478 1009.9C885.018 1009.9 883.948 1010.88 883.948 1012.59C883.948 1014.14 885.008 1015.1 886.458 1015.1ZM892.199 1007.5C891.469 1008.06 891.039 1009.07 891.039 1009.85C891.039 1010.45 891.329 1010.66 891.749 1010.66C892.289 1010.66 892.519 1010.3 892.519 1009.93C892.519 1009.53 892.249 1009.22 891.909 1009.2C892.089 1008.69 892.389 1008.24 892.719 1007.9L892.199 1007.5ZM894.239 1007.5C893.509 1008.06 893.079 1009.07 893.079 1009.85C893.079 1010.45 893.369 1010.66 893.789 1010.66C894.329 1010.66 894.559 1010.3 894.559 1009.93C894.559 1009.53 894.289 1009.22 893.949 1009.2C894.129 1008.69 894.429 1008.24 894.759 1007.9L894.239 1007.5ZM895.712 1015H898.292V1014.28H897.682V1011.74H898.102L900.382 1015H901.852V1014.28H901.482L899.192 1011.05L901.072 1008.72H901.632V1008H899.442V1008.72H899.882L898.342 1011.05H897.682V1008.72H898.292V1008H895.712V1008.72H896.302V1014.28H895.712V1015ZM902.674 1015.06C903.764 1015.06 904.394 1013.81 904.474 1010.72H905.664V1014.28H905.104V1015H907.634V1014.28H906.994V1010.72H907.634V1010H902.984V1010.72H903.674C903.654 1012.54 903.284 1013.98 902.484 1013.98C902.354 1013.98 902.194 1013.96 902.194 1013.96L902.234 1014.98C902.234 1014.98 902.334 1015.06 902.674 1015.06ZM913.698 1015.1C915.358 1015.1 916.248 1013.93 916.248 1012.39C916.248 1010.91 915.358 1009.9 913.958 1009.9C912.478 1009.9 911.608 1010.83 911.438 1012.12H910.558V1010.72H911.028V1010H908.598V1010.72H909.228V1014.28H908.598V1015H911.028V1014.28H910.558V1012.82H911.408C911.488 1014.19 912.358 1015.1 913.698 1015.1ZM913.818 1014.37C913.098 1014.37 912.758 1013.64 912.758 1012.49C912.758 1011.4 912.958 1010.62 913.838 1010.62C914.558 1010.62 914.898 1011.36 914.898 1012.51C914.898 1013.6 914.698 1014.37 913.818 1014.37ZM919.823 1015H922.453V1014.28H921.833V1010.72H922.453V1010H920.023V1010.72H920.503V1012.45C920.503 1012.45 920.183 1012.58 919.643 1012.58C919.153 1012.58 918.713 1012.39 918.713 1011.66V1010.72H919.253V1010H916.823V1010.72H917.383V1011.7C917.383 1012.91 918.373 1013.38 919.203 1013.38C919.973 1013.38 920.503 1013.18 920.503 1013.18V1014.28H919.823V1015ZM923.422 1015H925.332L927.052 1012.05C927.322 1011.59 927.462 1011.18 927.462 1011.18H927.502C927.502 1011.18 927.462 1011.59 927.462 1011.91V1014.28H926.982V1015H929.412V1014.28H928.772V1010.72H929.412V1010H927.472L925.762 1012.92C925.472 1013.44 925.332 1013.85 925.332 1013.85H925.292C925.292 1013.85 925.342 1013.26 925.342 1012.86V1010.72H925.852V1010H923.422V1010.72H924.052V1014.28H923.422V1015ZM932.816 1010.65C933.546 1010.09 933.976 1009.08 933.976 1008.3C933.976 1007.7 933.686 1007.49 933.266 1007.49C932.726 1007.49 932.496 1007.85 932.496 1008.22C932.496 1008.62 932.766 1008.93 933.106 1008.95C932.926 1009.46 932.626 1009.91 932.296 1010.25L932.816 1010.65ZM930.776 1010.65C931.506 1010.09 931.936 1009.08 931.936 1008.3C931.936 1007.7 931.646 1007.49 931.226 1007.49C930.686 1007.49 930.456 1007.85 930.456 1008.22C930.456 1008.62 930.726 1008.93 931.066 1008.95C930.886 1009.46 930.586 1009.91 930.256 1010.25L930.776 1010.65Z" fill="#3D496A"/>
<path fill-rule="evenodd" clip-rule="evenodd" d="M617 771C615.343 771 614 772.343 614 774V798C614 799.657 615.343 801 617 801H651.035L654.5 807L657.965 801H692C693.657 801 695 799.657 695 798V774C695 772.343 693.657 771 692 771H617Z" fill="white"/>
<path d="M637.896 784H640.476V783.28H639.866V780.74H640.286L642.566 784H644.036V783.28H643.666L641.376 780.05L643.256 777.72H643.816V777H641.626V777.72H642.066L640.526 780.05H639.866V777.72H640.476V777H637.896V777.72H638.486V783.28H637.896V784ZM646.381 786.58C646.511 785.8 646.781 784.91 647.141 784L648.831 779.7H649.361V779H647.361V779.7H647.841L647.101 781.82C646.961 782.22 646.821 782.85 646.821 782.85H646.781C646.781 782.85 646.661 782.35 646.471 781.85L645.641 779.7H646.091V779H643.791V779.7H644.321L646.201 784.17C645.801 784.79 645.361 785.64 645.161 786.5L646.381 786.58ZM649.833 786.51H652.443V785.8H651.803V783.83C651.803 783.83 652.103 784.1 652.813 784.1C654.203 784.1 655.223 783.03 655.223 781.23C655.223 779.99 654.543 778.9 653.113 778.9C652.623 778.9 652.143 779.11 651.773 779.44L651.803 779.13L651.543 778.95L649.833 779L649.823 779.7H650.473V785.8H649.833V786.51ZM652.543 783.31C652.003 783.31 651.803 783.07 651.803 783.07V781.18C651.803 780.58 651.763 780.17 651.763 780.17C652.023 779.96 652.363 779.83 652.713 779.83C653.503 779.83 653.853 780.51 653.853 781.47C653.853 782.7 653.363 783.31 652.543 783.31ZM658.494 783.37C657.774 783.37 657.434 782.64 657.434 781.49C657.434 780.4 657.634 779.62 658.514 779.62C659.234 779.62 659.574 780.36 659.574 781.51C659.574 782.6 659.374 783.37 658.494 783.37ZM658.374 784.1C660.034 784.1 660.924 782.93 660.924 781.39C660.924 779.91 660.034 778.9 658.634 778.9C656.974 778.9 656.084 780.07 656.084 781.61C656.084 783.09 656.974 784.1 658.374 784.1ZM661.669 786.51H664.279V785.8H663.639V783.83C663.639 783.83 663.939 784.1 664.649 784.1C666.039 784.1 667.059 783.03 667.059 781.23C667.059 779.99 666.379 778.9 664.949 778.9C664.459 778.9 663.979 779.11 663.609 779.44L663.639 779.13L663.379 778.95L661.669 779L661.659 779.7H662.309V785.8H661.669V786.51ZM664.379 783.31C663.839 783.31 663.639 783.07 663.639 783.07V781.18C663.639 780.58 663.599 780.17 663.599 780.17C663.859 779.96 664.199 779.83 664.549 779.83C665.339 779.83 665.689 780.51 665.689 781.47C665.689 782.7 665.199 783.31 664.379 783.31ZM668.86 784H671.39V783.28H670.79V779.72H671.72L671.84 780.62H672.48L672.44 779H667.81L667.77 780.62H668.41L668.53 779.72H669.44V783.28H668.86V784ZM624.51 787.5C623.78 788.06 623.35 789.07 623.35 789.85C623.35 790.45 623.64 790.66 624.06 790.66C624.6 790.66 624.83 790.3 624.83 789.93C624.83 789.53 624.56 789.22 624.22 789.2C624.4 788.69 624.7 788.24 625.03 787.9L624.51 787.5ZM626.55 787.5C625.82 788.06 625.39 789.07 625.39 789.85C625.39 790.45 625.68 790.66 626.1 790.66C626.64 790.66 626.87 790.3 626.87 789.93C626.87 789.53 626.6 789.22 626.26 789.2C626.44 788.69 626.74 788.24 627.07 787.9L626.55 787.5ZM629.463 795.1C630.453 795.1 630.853 794.38 631.233 793.51L633.313 788.72H633.893V788H631.643V788.72H632.373L631.213 791.64C631.093 791.96 631.013 792.28 631.013 792.28H631.003C631.003 792.28 630.903 791.99 630.743 791.64L629.363 788.72H629.963V788H627.433V788.72H627.993L630.323 793.56C630.103 793.93 629.783 794.1 629.393 794.1C629.093 794.1 628.753 794.02 628.753 794.02L628.783 794.96C628.783 794.96 629.023 795.1 629.463 795.1ZM636.133 795.1C637.063 795.1 637.563 794.75 637.563 794.75V793.98C637.563 793.98 637.143 794.21 636.403 794.21C635.523 794.21 634.973 793.5 634.973 792.38C634.973 791.41 635.363 790.76 636.013 790.76C636.573 790.76 636.703 791.03 637.333 791.17L637.603 790.05C637.133 790 636.763 789.9 636.153 789.9C634.693 789.9 633.623 790.88 633.623 792.59C633.623 794.14 634.683 795.1 636.133 795.1ZM639.29 795H641.82V794.28H641.22V790.72H642.15L642.27 791.62H642.91L642.87 790H638.24L638.2 791.62H638.84L638.96 790.72H639.87V794.28H639.29V795ZM643.683 795H646.273C647.823 795 648.573 794.38 648.573 793.33C648.573 792.3 647.793 791.73 646.293 791.73H645.633V790.72H646.223V790H643.673V790.72H644.303V794.28H643.683V795ZM645.633 794.3V792.43H646.173C646.853 792.43 647.173 792.79 647.173 793.37C647.173 793.93 646.853 794.3 646.163 794.3H645.633ZM649.527 792.68L652.437 792.58V791.49L649.527 791.59V792.68ZM653.629 795H656.209V794.28H655.599V791.74H656.019L658.299 795H659.769V794.28H659.399L657.109 791.05L658.989 788.72H659.549V788H657.359V788.72H657.799L656.259 791.05H655.599V788.72H656.209V788H653.629V788.72H654.219V794.28H653.629V795ZM662.291 794.23C661.831 794.23 661.581 793.99 661.581 793.63C661.581 793.19 661.891 792.97 662.291 792.89C662.771 792.8 663.031 792.83 663.031 792.83V793.15C663.031 793.73 663.061 794.01 663.061 794.01C663.061 794.01 662.781 794.23 662.291 794.23ZM663.231 794.55C663.351 794.86 663.691 795.1 664.151 795.1C664.671 795.1 664.991 794.88 664.991 794.88V794.1C664.581 794.36 664.371 794.28 664.371 793.94L664.361 791.73C664.361 790.43 663.721 789.9 662.451 789.9C661.511 789.9 660.731 790.18 660.731 790.18V790.95C660.731 790.95 661.351 790.82 661.811 790.82C662.711 790.82 663.051 791.04 663.051 791.87V792.13C662.761 792.13 662.401 792.14 662.021 792.19C660.841 792.33 660.271 792.88 660.271 793.77C660.271 794.5 660.731 795.12 661.731 795.12C662.311 795.12 662.811 794.9 663.231 794.55ZM668.316 795H670.946V794.28H670.326V790.72H670.946V790H668.516V790.72H668.996V792.45C668.996 792.45 668.676 792.58 668.136 792.58C667.646 792.58 667.206 792.39 667.206 791.66V790.72H667.746V790H665.316V790.72H665.876V791.7C665.876 792.91 666.866 793.38 667.696 793.38C668.466 793.38 668.996 793.18 668.996 793.18V794.28H668.316V795ZM671.926 795H674.356V794.28H673.876V792.8H674.276L675.846 795H677.276V794.28H676.896L675.266 792.1L676.646 790.72H677.126V790H675.076V790.72H675.586L674.466 792.11H673.876V790.72H674.346V790H671.916V790.72H672.546V794.28H671.926V795ZM679.899 794.23C679.439 794.23 679.189 793.99 679.189 793.63C679.189 793.19 679.499 792.97 679.899 792.89C680.379 792.8 680.639 792.83 680.639 792.83V793.15C680.639 793.73 680.669 794.01 680.669 794.01C680.669 794.01 680.389 794.23 679.899 794.23ZM680.839 794.55C680.959 794.86 681.299 795.1 681.759 795.1C682.279 795.1 682.599 794.88 682.599 794.88V794.1C682.189 794.36 681.979 794.28 681.979 793.94L681.969 791.73C681.969 790.43 681.329 789.9 680.059 789.9C679.119 789.9 678.339 790.18 678.339 790.18V790.95C678.339 790.95 678.959 790.82 679.419 790.82C680.319 790.82 680.659 791.04 680.659 791.87V792.13C680.369 792.13 680.009 792.14 679.629 792.19C678.449 792.33 677.879 792.88 677.879 793.77C677.879 794.5 678.339 795.12 679.339 795.12C679.919 795.12 680.419 794.9 680.839 794.55ZM685.586 790.65C686.316 790.09 686.746 789.08 686.746 788.3C686.746 787.7 686.456 787.49 686.036 787.49C685.496 787.49 685.266 787.85 685.266 788.22C685.266 788.62 685.536 788.93 685.876 788.95C685.696 789.46 685.396 789.91 685.066 790.25L685.586 790.65ZM683.546 790.65C684.276 790.09 684.706 789.08 684.706 788.3C684.706 787.7 684.416 787.49 683.996 787.49C683.456 787.49 683.226 787.85 683.226 788.22C683.226 788.62 683.496 788.93 683.836 788.95C683.656 789.46 683.356 789.91 683.026 790.25L683.546 790.65Z" fill="#3D496A"/>
<path fill-rule="evenodd" clip-rule="evenodd" d="M710 694C708.343 694 707 695.343 707 697V721C707 722.657 708.343 724 710 724H744.035L747.5 730L750.965 724H785C786.657 724 788 722.657 788 721V697C788 695.343 786.657 694 785 694H710Z" fill="white"/>
<path d="M724.486 707.14C725.686 707.14 726.466 706.75 726.466 706.75V704.97H725.826L725.636 706.23C725.426 706.3 725.146 706.36 724.806 706.36C723.226 706.36 722.376 705.22 722.376 703.41C722.376 701.73 723.126 700.6 724.756 700.6C725.086 700.6 725.386 700.67 725.606 700.74L725.766 701.96H726.416L726.496 700.26C726.496 700.26 725.756 699.86 724.556 699.86C722.186 699.86 720.956 701.59 720.956 703.62C720.956 705.85 722.386 707.14 724.486 707.14ZM729.398 706.23C728.938 706.23 728.688 705.99 728.688 705.63C728.688 705.19 728.998 704.97 729.398 704.89C729.878 704.8 730.138 704.83 730.138 704.83V705.15C730.138 705.73 730.168 706.01 730.168 706.01C730.168 706.01 729.888 706.23 729.398 706.23ZM730.338 706.55C730.458 706.86 730.798 707.1 731.258 707.1C731.778 707.1 732.098 706.88 732.098 706.88V706.1C731.688 706.36 731.478 706.28 731.478 705.94L731.468 703.73C731.468 702.43 730.828 701.9 729.558 701.9C728.618 701.9 727.838 702.18 727.838 702.18V702.95C727.838 702.95 728.458 702.82 728.918 702.82C729.818 702.82 730.158 703.04 730.158 703.87V704.13C729.868 704.13 729.508 704.14 729.128 704.19C727.948 704.33 727.378 704.88 727.378 705.77C727.378 706.5 727.838 707.12 728.838 707.12C729.418 707.12 729.918 706.9 730.338 706.55ZM732.909 707H735.339V706.28H734.869V704.82H736.829V706.28H736.369V707H738.799V706.28H738.159V702.72H738.799V702H736.369V702.72H736.829V704.09H734.869V702.72H735.339V702H732.909V702.72H733.539V706.28H732.909V707ZM741.614 706.23C741.154 706.23 740.904 705.99 740.904 705.63C740.904 705.19 741.214 704.97 741.614 704.89C742.094 704.8 742.354 704.83 742.354 704.83V705.15C742.354 705.73 742.384 706.01 742.384 706.01C742.384 706.01 742.104 706.23 741.614 706.23ZM742.554 706.55C742.674 706.86 743.014 707.1 743.474 707.1C743.994 707.1 744.314 706.88 744.314 706.88V706.1C743.904 706.36 743.694 706.28 743.694 705.94L743.684 703.73C743.684 702.43 743.044 701.9 741.774 701.9C740.834 701.9 740.054 702.18 740.054 702.18V702.95C740.054 702.95 740.674 702.82 741.134 702.82C742.034 702.82 742.374 703.04 742.374 703.87V704.13C742.084 704.13 741.724 704.14 741.344 704.19C740.164 704.33 739.594 704.88 739.594 705.77C739.594 706.5 740.054 707.12 741.054 707.12C741.634 707.12 742.134 706.9 742.554 706.55ZM745.937 707H748.467V706.28H747.867V702.72H748.797L748.917 703.62H749.557L749.517 702H744.887L744.847 703.62H745.487L745.607 702.72H746.517V706.28H745.937V707ZM752.681 706.37C751.961 706.37 751.621 705.64 751.621 704.49C751.621 703.4 751.821 702.62 752.701 702.62C753.421 702.62 753.761 703.36 753.761 704.51C753.761 705.6 753.561 706.37 752.681 706.37ZM752.561 707.1C754.221 707.1 755.111 705.93 755.111 704.39C755.111 702.91 754.221 701.9 752.821 701.9C751.161 701.9 750.271 703.07 750.271 704.61C750.271 706.09 751.161 707.1 752.561 707.1ZM755.855 709.51H758.465V708.8H757.825V706.83C757.825 706.83 758.125 707.1 758.835 707.1C760.225 707.1 761.245 706.03 761.245 704.23C761.245 702.99 760.565 701.9 759.135 701.9C758.645 701.9 758.165 702.11 757.795 702.44L757.825 702.13L757.565 701.95L755.855 702L755.845 702.7H756.495V708.8H755.855V709.51ZM758.565 706.31C758.025 706.31 757.825 706.07 757.825 706.07V704.18C757.825 703.58 757.785 703.17 757.785 703.17C758.045 702.96 758.385 702.83 758.735 702.83C759.525 702.83 759.875 703.51 759.875 704.47C759.875 705.7 759.385 706.31 758.565 706.31ZM762.108 707H764.018L765.738 704.05C766.008 703.59 766.148 703.18 766.148 703.18H766.188C766.188 703.18 766.148 703.59 766.148 703.91V706.28H765.668V707H768.098V706.28H767.458V702.72H768.098V702H766.158L764.448 704.92C764.158 705.44 764.018 705.85 764.018 705.85H763.978C763.978 705.85 764.028 705.26 764.028 704.86V702.72H764.538V702H762.108V702.72H762.738V706.28H762.108V707ZM772.171 701.09C773.081 701.09 773.711 700.66 774.121 700.28L773.431 699.44C773.011 699.79 772.741 700.41 772.171 700.41C771.631 700.41 771.421 699.75 771.031 699.4L770.171 700.28C770.541 700.6 771.271 701.09 772.171 701.09ZM769.061 707H770.971L772.691 704.05C772.961 703.59 773.101 703.18 773.101 703.18H773.141C773.141 703.18 773.101 703.59 773.101 703.91V706.28H772.621V707H775.051V706.28H774.411V702.72H775.051V702H773.111L771.401 704.92C771.111 705.44 770.971 705.85 770.971 705.85H770.931C770.931 705.85 770.981 705.26 770.981 704.86V702.72H771.491V702H769.061V702.72H769.691V706.28H769.061V707ZM717.041 710.5C716.311 711.06 715.881 712.07 715.881 712.85C715.881 713.45 716.171 713.66 716.591 713.66C717.131 713.66 717.361 713.3 717.361 712.93C717.361 712.53 717.091 712.22 716.751 712.2C716.931 711.69 717.231 711.24 717.561 710.9L717.041 710.5ZM719.081 710.5C718.351 711.06 717.921 712.07 717.921 712.85C717.921 713.45 718.211 713.66 718.631 713.66C719.171 713.66 719.401 713.3 719.401 712.93C719.401 712.53 719.131 712.22 718.791 712.2C718.971 711.69 719.271 711.24 719.601 710.9L719.081 710.5ZM719.641 719.99H720.411L720.681 718H725.391L725.671 719.99H726.441L726.461 717.28H725.591V711.73H726.231V711H720.781V711.73H721.561C721.551 714.33 721.021 716.16 720.161 717.28H719.621L719.641 719.99ZM721.151 717.28C721.901 716.14 722.361 714.5 722.391 711.73H724.211V717.28H721.151ZM729.79 718.1C730.9 718.1 731.44 717.75 731.44 717.75V716.98C731.44 716.98 730.89 717.22 730.29 717.22C729.03 717.22 728.56 716.52 728.5 715.59H731.7C731.78 713.76 730.94 712.9 729.58 712.9C728.21 712.9 727.16 713.93 727.16 715.59C727.16 717.05 728.09 718.1 729.79 718.1ZM728.53 714.83C728.59 714.04 728.97 713.63 729.49 713.63C729.94 713.63 730.29 714.05 730.29 714.75L728.53 714.83ZM732.492 718H734.542V717.28H733.822L733.932 714.81C733.952 714.44 733.932 714.1 733.932 714.1H733.992C733.992 714.1 734.092 714.45 734.242 714.76L735.592 717.7H736.182L737.582 714.75C737.752 714.38 737.842 714.1 737.842 714.1H737.892C737.892 714.1 737.882 714.3 737.902 714.71L738.002 717.28H737.272V718H739.772V717.28H739.152L738.992 713.72H739.642V713H737.612L736.132 716.11L734.782 713H732.652V713.72H733.282L733.122 717.28H732.492V718ZM740.658 718H742.568L744.288 715.05C744.558 714.59 744.698 714.18 744.698 714.18H744.738C744.738 714.18 744.698 714.59 744.698 714.91V717.28H744.218V718H746.648V717.28H746.008V713.72H746.648V713H744.708L742.998 715.92C742.708 716.44 742.568 716.85 742.568 716.85H742.528C742.528 716.85 742.578 716.26 742.578 715.86V713.72H743.088V713H740.658V713.72H741.288V717.28H740.658V718ZM747.271 719.67H748.021L748.221 718H751.921L752.121 719.67H752.881L752.921 717.28H752.141L752.131 713.72H752.791V713H748.021V713.72H748.741C748.721 715.47 748.491 716.58 747.691 717.28H747.251L747.271 719.67ZM748.691 717.28C749.291 716.68 749.511 715.55 749.561 713.72H750.821V717.28H748.691ZM753.773 718H756.203V717.28H755.723V715.8H756.123L757.693 718H759.123V717.28H758.743L757.113 715.1L758.493 713.72H758.973V713H756.923V713.72H757.433L756.313 715.11H755.723V713.72H756.193V713H753.763V713.72H754.393V717.28H753.773V718ZM762.129 717.37C761.409 717.37 761.069 716.64 761.069 715.49C761.069 714.4 761.269 713.62 762.149 713.62C762.869 713.62 763.209 714.36 763.209 715.51C763.209 716.6 763.009 717.37 762.129 717.37ZM762.009 718.1C763.669 718.1 764.559 716.93 764.559 715.39C764.559 713.91 763.669 712.9 762.269 712.9C760.609 712.9 759.719 714.07 759.719 715.61C759.719 717.09 760.609 718.1 762.009 718.1ZM765.414 718H768.234C769.394 718 770.214 717.54 770.214 716.56C770.214 715.86 769.734 715.46 768.924 715.38V715.34C769.574 715.24 769.944 714.81 769.944 714.23C769.944 713.48 769.334 713 768.204 713H765.414V713.72H766.044V717.28H765.414V718ZM767.364 717.3V715.76H767.964C768.594 715.76 768.874 716.03 768.874 716.53C768.874 717.06 768.524 717.3 767.934 717.3H767.364ZM767.364 715.08V713.7H767.784C768.324 713.7 768.614 713.92 768.614 714.41C768.614 714.73 768.444 714.98 768.204 715.08H767.364ZM773.447 717.37C772.727 717.37 772.387 716.64 772.387 715.49C772.387 714.4 772.587 713.62 773.467 713.62C774.187 713.62 774.527 714.36 774.527 715.51C774.527 716.6 774.327 717.37 773.447 717.37ZM773.327 718.1C774.987 718.1 775.877 716.93 775.877 715.39C775.877 713.91 774.987 712.9 773.587 712.9C771.927 712.9 771.037 714.07 771.037 715.61C771.037 717.09 771.927 718.1 773.327 718.1ZM779.055 713.65C779.785 713.09 780.215 712.08 780.215 711.3C780.215 710.7 779.925 710.49 779.505 710.49C778.965 710.49 778.735 710.85 778.735 711.22C778.735 711.62 779.005 711.93 779.345 711.95C779.165 712.46 778.865 712.91 778.535 713.25L779.055 713.65ZM777.015 713.65C777.745 713.09 778.175 712.08 778.175 711.3C778.175 710.7 777.885 710.49 777.465 710.49C776.925 710.49 776.695 710.85 776.695 711.22C776.695 711.62 776.965 711.93 777.305 711.95C777.125 712.46 776.825 712.91 776.495 713.25L777.015 713.65Z" fill="#3D496A"/>
<g filter="url(#filter1_d)">
<circle cx="886" cy="1037" r="7" fill="white"/>
<circle cx="886" cy="1037" r="6" stroke="url(#paint1_linear)" stroke-width="2" stroke-linecap="round"/>
</g>
<g filter="url(#filter2_d)">
<circle cx="655" cy="817" r="7" fill="white"/>
<circle cx="655" cy="817" r="6" stroke="url(#paint2_linear)" stroke-width="2" stroke-linecap="round"/>
</g>
<defs>
<filter id="filter0_d" x="731" y="725" width="34" height="34" filterUnits="userSpaceOnUse" color-interpolation-filters="sRGB">
<feFlood flood-opacity="0" result="BackgroundImageFix"/>
<feColorMatrix in="SourceAlpha" type="matrix" values="0 0 0 0 0 0 0 0 0 0 0 0 0 0 0 0 0 0 127 0"/>
<feOffset/>
<feGaussianBlur stdDeviation="5"/>
<feColorMatrix type="matrix" values="0 0 0 0 1 0 0 0 0 1 0 0 0 0 1 0 0 0 0.5 0"/>
<feBlend mode="normal" in2="BackgroundImageFix" result="effect1_dropShadow"/>
<feBlend mode="normal" in="SourceGraphic" in2="effect1_dropShadow" result="shape"/>
</filter>
<filter id="filter1_d" x="869" y="1020" width="34" height="34" filterUnits="userSpaceOnUse" color-interpolation-filters="sRGB">
<feFlood flood-opacity="0" result="BackgroundImageFix"/>
<feColorMatrix in="SourceAlpha" type="matrix" values="0 0 0 0 0 0 0 0 0 0 0 0 0 0 0 0 0 0 127 0"/>
<feOffset/>
<feGaussianBlur stdDeviation="5"/>
<feColorMatrix type="matrix" values="0 0 0 0 1 0 0 0 0 1 0 0 0 0 1 0 0 0 0.5 0"/>
<feBlend mode="normal" in2="BackgroundImageFix" result="effect1_dropShadow"/>
<feBlend mode="normal" in="SourceGraphic" in2="effect1_dropShadow" result="shape"/>
</filter>
<filter id="filter2_d" x="638" y="800" width="34" height="34" filterUnits="userSpaceOnUse" color-interpolation-filters="sRGB">
<feFlood flood-opacity="0" result="BackgroundImageFix"/>
<feColorMatrix in="SourceAlpha" type="matrix" values="0 0 0 0 0 0 0 0 0 0 0 0 0 0 0 0 0 0 127 0"/>
<feOffset/>
<feGaussianBlur stdDeviation="5"/>
<feColorMatrix type="matrix" values="0 0 0 0 1 0 0 0 0 1 0 0 0 0 1 0 0 0 0.5 0"/>
<feBlend mode="normal" in2="BackgroundImageFix" result="effect1_dropShadow"/>
<feBlend mode="normal" in="SourceGraphic" in2="effect1_dropShadow" result="shape"/>
</filter>
<linearGradient id="paint0_linear" x1="743.758" y1="748.642" x2="747.481" y2="733.175" gradientUnits="userSpaceOnUse">
<stop stop-color="#76FF68"/>
<stop offset="1" stop-color="#00FFF6"/>
</linearGradient>
<linearGradient id="paint1_linear" x1="881.758" y1="1043.64" x2="885.481" y2="1028.17" gradientUnits="userSpaceOnUse">
<stop stop-color="#76FF68"/>
<stop offset="1" stop-color="#00FFF6"/>
</linearGradient>
<linearGradient id="paint2_linear" x1="650.758" y1="823.642" x2="654.481" y2="808.175" gradientUnits="userSpaceOnUse">
<stop stop-color="#76FF68"/>
<stop offset="1" stop-color="#00FFF6"/>
</linearGradient>
</defs>
</svg>
