<svg width="1484" height="1080" viewBox="0 0 1484 1080" fill="none" xmlns="http://www.w3.org/2000/svg">
<rect width="1484" height="1080" fill="black" fill-opacity="0"/>
<rect width="168" height="81" fill="black" fill-opacity="0" transform="translate(661 286)"/>
<rect width="168" height="81" fill="black" fill-opacity="0" transform="translate(661 286)"/>
<path fill-rule="evenodd" clip-rule="evenodd" d="M664 286C662.344 286 661 287.343 661 289V323C661 324.657 662.344 326 664 326H739.125L745 336L750.871 326H826C827.656 326 829 324.657 829 323V289C829 287.854 828.355 286.859 827.414 286.354C826.992 286.128 826.512 286 826 286H664Z" fill="white"/>
<path d="M678.557 312H684.437V310.56H682.597V299.44H686.677L686.937 301.6H688.277L688.397 298H678.557V299.44H679.837V310.56H678.557V312ZM692.782 310.74C691.342 310.74 690.662 309.28 690.662 306.98C690.662 304.8 691.062 303.24 692.822 303.24C694.262 303.24 694.942 304.72 694.942 307.02C694.942 309.2 694.542 310.74 692.782 310.74ZM692.542 312.2C695.862 312.2 697.642 309.86 697.642 306.78C697.642 303.82 695.862 301.8 693.062 301.8C689.742 301.8 687.962 304.14 687.962 307.22C687.962 310.18 689.742 312.2 692.542 312.2ZM699.131 317.02H704.351V315.6H703.071V311.66C703.071 311.66 703.671 312.2 705.091 312.2C707.871 312.2 709.911 310.06 709.911 306.46C709.911 303.98 708.551 301.8 705.691 301.8C704.711 301.8 703.751 302.22 703.011 302.88L703.071 302.26L702.551 301.9L699.131 302L699.111 303.4H700.411V315.6H699.131V317.02ZM704.551 310.62C703.471 310.62 703.071 310.14 703.071 310.14V306.36C703.071 305.16 702.991 304.34 702.991 304.34C703.511 303.92 704.191 303.66 704.891 303.66C706.471 303.66 707.171 305.02 707.171 306.94C707.171 309.4 706.191 310.62 704.551 310.62ZM715.453 310.46C714.533 310.46 714.033 309.98 714.033 309.26C714.033 308.38 714.653 307.94 715.453 307.78C716.413 307.6 716.933 307.66 716.933 307.66V308.3C716.933 309.46 716.993 310.02 716.993 310.02C716.993 310.02 716.433 310.46 715.453 310.46ZM717.333 311.1C717.573 311.72 718.253 312.2 719.173 312.2C720.213 312.2 720.853 311.76 720.853 311.76V310.2C720.033 310.72 719.613 310.56 719.613 309.88L719.593 305.46C719.593 302.86 718.313 301.8 715.773 301.8C713.893 301.8 712.333 302.36 712.333 302.36V303.9C712.333 303.9 713.573 303.64 714.493 303.64C716.293 303.64 716.973 304.08 716.973 305.74V306.26C716.393 306.26 715.673 306.28 714.913 306.38C712.553 306.66 711.413 307.76 711.413 309.54C711.413 311 712.333 312.24 714.333 312.24C715.493 312.24 716.493 311.8 717.333 311.1ZM727.543 312H732.703V310.56H731.483V305.48H732.323L736.883 312H739.823V310.56H739.083L734.503 304.1L738.263 299.44H739.383V298H735.003V299.44H735.883L732.803 304.1H731.483V299.44H732.703V298H727.543V299.44H728.723V310.56H727.543V312ZM745.633 310.74C744.193 310.74 743.513 309.28 743.513 306.98C743.513 304.8 743.913 303.24 745.673 303.24C747.113 303.24 747.793 304.72 747.793 307.02C747.793 309.2 747.393 310.74 745.633 310.74ZM745.393 312.2C748.713 312.2 750.493 309.86 750.493 306.78C750.493 303.82 748.713 301.8 745.913 301.8C742.593 301.8 740.813 304.14 740.813 307.22C740.813 310.18 742.593 312.2 745.393 312.2ZM752.483 312.12C754.663 312.12 755.923 309.62 756.083 303.44H758.463V310.56H757.343V312H762.403V310.56H761.123V303.44H762.403V302H753.103V303.44H754.483C754.443 307.08 753.703 309.96 752.103 309.96C751.843 309.96 751.523 309.92 751.523 309.92L751.603 311.96C751.603 311.96 751.803 312.12 752.483 312.12ZM764.331 312H769.191V310.56H768.251V303.44H771.911V310.56H770.991V312H775.851V310.56H774.571V303.44H775.851V302H764.331V303.44H765.591V310.56H764.331V312ZM781.489 310.46C780.569 310.46 780.069 309.98 780.069 309.26C780.069 308.38 780.689 307.94 781.489 307.78C782.449 307.6 782.969 307.66 782.969 307.66V308.3C782.969 309.46 783.029 310.02 783.029 310.02C783.029 310.02 782.469 310.46 781.489 310.46ZM783.369 311.1C783.609 311.72 784.289 312.2 785.209 312.2C786.249 312.2 786.889 311.76 786.889 311.76V310.2C786.069 310.72 785.649 310.56 785.649 309.88L785.629 305.46C785.629 302.86 784.349 301.8 781.809 301.8C779.929 301.8 778.369 302.36 778.369 302.36V303.9C778.369 303.9 779.609 303.64 780.529 303.64C782.329 303.64 783.009 304.08 783.009 305.74V306.26C782.429 306.26 781.709 306.28 780.949 306.38C778.589 306.66 777.449 307.76 777.449 309.54C777.449 311 778.369 312.24 780.369 312.24C781.529 312.24 782.529 311.8 783.369 311.1ZM788.531 312H793.391V310.56H792.431V307.6H793.231L796.371 312H799.231V310.56H798.471L795.211 306.2L797.971 303.44H798.931V302H794.831V303.44H795.851L793.611 306.22H792.431V303.44H793.371V302H788.511V303.44H789.771V310.56H788.531V312ZM800.757 312H804.577L808.017 306.1C808.557 305.18 808.837 304.36 808.837 304.36H808.917C808.917 304.36 808.837 305.18 808.837 305.82V310.56H807.877V312H812.737V310.56H811.457V303.44H812.737V302H808.857L805.437 307.84C804.857 308.88 804.577 309.7 804.577 309.7H804.497C804.497 309.7 804.597 308.52 804.597 307.72V303.44H805.617V302H800.757V303.44H802.017V310.56H800.757V312Z" fill="#3D496A"/>
<g filter="url(#filter0_d)">
<circle cx="745" cy="354" r="13" fill="white"/>
<circle cx="745" cy="354" r="11.5" stroke="url(#paint0_linear)" stroke-width="3" stroke-linecap="round"/>
</g>
<path fill-rule="evenodd" clip-rule="evenodd" d="M706 867C704.344 867 703 868.343 703 870V904C703 905.657 704.344 907 706 907H778.125L784 917L789.871 907H862C863.656 907 865 905.657 865 904V870C865 868.343 863.656 867 862 867H706Z" fill="white"/>
<path d="M711.96 894H716.82V892.56H715.88V885.44H719.54V892.56H718.62V894H723.48V892.56H722.2V885.44H723.48V884H711.96V885.44H713.22V892.56H711.96V894ZM730.02 892.74C728.58 892.74 727.9 891.28 727.9 888.98C727.9 886.8 728.3 885.24 730.06 885.24C731.5 885.24 732.18 886.72 732.18 889.02C732.18 891.2 731.78 892.74 730.02 892.74ZM729.78 894.2C733.1 894.2 734.88 891.86 734.88 888.78C734.88 885.82 733.1 883.8 730.3 883.8C726.98 883.8 725.2 886.14 725.2 889.22C725.2 892.18 726.98 894.2 729.78 894.2ZM741.587 894.2C743.447 894.2 744.447 893.5 744.447 893.5V891.96C744.447 891.96 743.607 892.42 742.127 892.42C740.367 892.42 739.267 891 739.267 888.76C739.267 886.82 740.047 885.52 741.347 885.52C742.467 885.52 742.727 886.06 743.987 886.34L744.527 884.1C743.587 884 742.847 883.8 741.627 883.8C738.707 883.8 736.567 885.76 736.567 889.18C736.567 892.28 738.687 894.2 741.587 894.2ZM747.68 894.3C748.64 894.3 749.26 893.76 749.26 892.8C749.26 891.96 748.72 891.44 747.8 891.44C746.92 891.44 746.2 891.96 746.2 892.88C746.2 893.74 746.84 894.3 747.68 894.3ZM756.283 894H761.443V892.56H760.323V881.46H766.243V892.56H765.123V894H770.283V892.56H769.003V881.46H770.283V880H756.283V881.46H757.563V892.56H756.283V894ZM771.896 899.02H777.116V897.6H775.836V893.66C775.836 893.66 776.436 894.2 777.856 894.2C780.636 894.2 782.676 892.06 782.676 888.46C782.676 885.98 781.316 883.8 778.456 883.8C777.476 883.8 776.516 884.22 775.776 884.88L775.836 884.26L775.316 883.9L771.896 884L771.876 885.4H773.176V897.6H771.896V899.02ZM777.316 892.62C776.236 892.62 775.836 892.14 775.836 892.14V888.36C775.836 887.16 775.756 886.34 775.756 886.34C776.276 885.92 776.956 885.66 777.656 885.66C779.236 885.66 779.936 887.02 779.936 888.94C779.936 891.4 778.956 892.62 777.316 892.62ZM789.219 892.74C787.779 892.74 787.099 891.28 787.099 888.98C787.099 886.8 787.499 885.24 789.259 885.24C790.699 885.24 791.379 886.72 791.379 889.02C791.379 891.2 790.979 892.74 789.219 892.74ZM788.979 894.2C792.299 894.2 794.079 891.86 794.079 888.78C794.079 885.82 792.299 883.8 789.499 883.8C786.179 883.8 784.399 886.14 784.399 889.22C784.399 892.18 786.179 894.2 788.979 894.2ZM795.628 894H799.728V892.56H798.288L798.508 887.62C798.548 886.88 798.508 886.2 798.508 886.2H798.628C798.628 886.2 798.828 886.9 799.128 887.52L801.828 893.4H803.008L805.808 887.5C806.148 886.76 806.328 886.2 806.328 886.2H806.428C806.428 886.2 806.408 886.6 806.448 887.42L806.648 892.56H805.188V894H810.188V892.56H808.948L808.628 885.44H809.928V884H805.868L802.908 890.22L800.208 884H795.948V885.44H797.208L796.888 892.56H795.628V894ZM821.88 894H826.74V892.56H825.48V885.44H826.74V884H821.88V885.44H822.82V892.56H821.88V894ZM811.98 894H817.16C820.26 894 821.76 892.76 821.76 890.66C821.76 888.6 820.2 887.46 817.2 887.46H815.88V885.44H817.06V884H811.96V885.44H813.22V892.56H811.98V894ZM815.88 892.6V888.86H816.96C818.32 888.86 818.96 889.58 818.96 890.74C818.96 891.86 818.32 892.6 816.94 892.6H815.88ZM833.462 894.2C835.322 894.2 836.322 893.5 836.322 893.5V891.96C836.322 891.96 835.482 892.42 834.002 892.42C832.242 892.42 831.142 891 831.142 888.76C831.142 886.82 831.922 885.52 833.222 885.52C834.342 885.52 834.602 886.06 835.862 886.34L836.402 884.1C835.462 884 834.722 883.8 833.502 883.8C830.582 883.8 828.442 885.76 828.442 889.18C828.442 892.28 830.562 894.2 833.462 894.2ZM838.315 894.12C840.495 894.12 841.755 891.62 841.915 885.44H844.295V892.56H843.175V894H848.235V892.56H846.955V885.44H848.235V884H838.935V885.44H840.315C840.275 889.08 839.535 891.96 837.935 891.96C837.675 891.96 837.355 891.92 837.355 891.92L837.435 893.96C837.435 893.96 837.635 894.12 838.315 894.12ZM853.883 892.46C852.963 892.46 852.463 891.98 852.463 891.26C852.463 890.38 853.083 889.94 853.883 889.78C854.843 889.6 855.363 889.66 855.363 889.66V890.3C855.363 891.46 855.423 892.02 855.423 892.02C855.423 892.02 854.863 892.46 853.883 892.46ZM855.763 893.1C856.003 893.72 856.683 894.2 857.603 894.2C858.643 894.2 859.283 893.76 859.283 893.76V892.2C858.463 892.72 858.043 892.56 858.043 891.88L858.023 887.46C858.023 884.86 856.743 883.8 854.203 883.8C852.323 883.8 850.763 884.36 850.763 884.36V885.9C850.763 885.9 852.003 885.64 852.923 885.64C854.723 885.64 855.403 886.08 855.403 887.74V888.26C854.823 888.26 854.103 888.28 853.343 888.38C850.983 888.66 849.843 889.76 849.843 891.54C849.843 893 850.763 894.24 852.763 894.24C853.923 894.24 854.923 893.8 855.763 893.1Z" fill="#3C5079"/>
<path fill-rule="evenodd" clip-rule="evenodd" d="M98 916C96.3438 916 95 917.343 95 919V953C95 954.657 96.3438 956 98 956H176.125L182 966L187.871 956H266C267.656 956 269 954.657 269 953V919C269 917.343 267.656 916 266 916H98Z" fill="white"/>
<path d="M100.96 943H105.82V941.56H104.88V934.44H108.54V941.56H107.62V943H112.48V941.56H111.2V934.44H112.48V933H100.96V934.44H102.22V941.56H100.96V943ZM119.02 941.74C117.58 941.74 116.9 940.28 116.9 937.98C116.9 935.8 117.3 934.24 119.06 934.24C120.5 934.24 121.18 935.72 121.18 938.02C121.18 940.2 120.78 941.74 119.02 941.74ZM118.78 943.2C122.1 943.2 123.88 940.86 123.88 937.78C123.88 934.82 122.1 932.8 119.3 932.8C115.98 932.8 114.2 935.14 114.2 938.22C114.2 941.18 115.98 943.2 118.78 943.2ZM130.587 943.2C132.447 943.2 133.447 942.5 133.447 942.5V940.96C133.447 940.96 132.607 941.42 131.127 941.42C129.367 941.42 128.267 940 128.267 937.76C128.267 935.82 129.047 934.52 130.347 934.52C131.467 934.52 131.727 935.06 132.987 935.34L133.527 933.1C132.587 933 131.847 932.8 130.627 932.8C127.707 932.8 125.567 934.76 125.567 938.18C125.567 941.28 127.687 943.2 130.587 943.2ZM136.68 943.3C137.64 943.3 138.26 942.76 138.26 941.8C138.26 940.96 137.72 940.44 136.8 940.44C135.92 940.44 135.2 940.96 135.2 941.88C135.2 942.74 135.84 943.3 136.68 943.3ZM147.483 943H153.283V941.56H151.783V930.44H154.623L154.743 932.68H156.003L156.223 929H144.543L144.563 932.68H145.823L146.143 930.44H148.983V941.56H147.483V943ZM161.413 943.2C163.633 943.2 164.713 942.5 164.713 942.5V940.96C164.713 940.96 163.613 941.44 162.413 941.44C159.893 941.44 158.953 940.04 158.833 938.18H165.233C165.393 934.52 163.713 932.8 160.993 932.8C158.252 932.8 156.153 934.86 156.153 938.18C156.153 941.1 158.013 943.2 161.413 943.2ZM158.893 936.66C159.013 935.08 159.773 934.26 160.813 934.26C161.713 934.26 162.413 935.1 162.413 936.5L158.893 936.66ZM166.976 943H171.836V941.56H170.896V934.44H174.556V941.56H173.636V943H178.496V941.56H177.216V934.44H178.496V933H166.976V934.44H168.236V941.56H166.976V943ZM180.733 943.12C182.913 943.12 184.173 940.62 184.333 934.44H186.713V941.56H185.593V943H190.653V941.56H189.373V934.44H190.653V933H181.353V934.44H182.733C182.693 938.08 181.953 940.96 180.353 940.96C180.093 940.96 179.773 940.92 179.773 940.92L179.853 942.96C179.853 942.96 180.053 943.12 180.733 943.12ZM196.301 941.46C195.381 941.46 194.881 940.98 194.881 940.26C194.881 939.38 195.501 938.94 196.301 938.78C197.261 938.6 197.781 938.66 197.781 938.66V939.3C197.781 940.46 197.841 941.02 197.841 941.02C197.841 941.02 197.281 941.46 196.301 941.46ZM198.181 942.1C198.421 942.72 199.101 943.2 200.021 943.2C201.061 943.2 201.701 942.76 201.701 942.76V941.2C200.881 941.72 200.461 941.56 200.461 940.88L200.441 936.46C200.441 933.86 199.161 932.8 196.621 932.8C194.741 932.8 193.181 933.36 193.181 933.36V934.9C193.181 934.9 194.421 934.64 195.341 934.64C197.141 934.64 197.821 935.08 197.821 936.74V937.26C197.241 937.26 196.521 937.28 195.761 937.38C193.401 937.66 192.261 938.76 192.261 940.54C192.261 942 193.181 943.24 195.181 943.24C196.341 943.24 197.341 942.8 198.181 942.1ZM205.943 943L208.203 939.4H209.423V941.56H208.503V943H213.363V941.56H212.083V934.44H213.363V933H207.963C205.463 933 203.723 934.16 203.723 936.2C203.723 937.52 204.363 938.6 205.823 938.92L203.903 941.56H202.903V943H205.943ZM208.463 938C207.083 938 206.503 937.16 206.503 936.2C206.503 935.14 207.103 934.44 208.443 934.44H209.423V938H208.463ZM219.983 943H225.423V941.56H223.923V934.44H226.363L226.643 936.4H228.003L227.983 933H219.983V934.44H221.243V941.56H219.983V943ZM234.274 941.74C232.834 941.74 232.154 940.28 232.154 937.98C232.154 935.8 232.554 934.24 234.314 934.24C235.754 934.24 236.434 935.72 236.434 938.02C236.434 940.2 236.034 941.74 234.274 941.74ZM234.034 943.2C237.354 943.2 239.134 940.86 239.134 937.78C239.134 934.82 237.354 932.8 234.554 932.8C231.234 932.8 229.454 935.14 229.454 938.22C229.454 941.18 231.234 943.2 234.034 943.2ZM240.623 948.02H245.843V946.6H244.563V942.66C244.563 942.66 245.163 943.2 246.583 943.2C249.363 943.2 251.403 941.06 251.403 937.46C251.403 934.98 250.043 932.8 247.183 932.8C246.203 932.8 245.243 933.22 244.503 933.88L244.563 933.26L244.043 932.9L240.623 933L240.603 934.4H241.903V946.6H240.623V948.02ZM246.043 941.62C244.963 941.62 244.563 941.14 244.563 941.14V937.36C244.563 936.16 244.483 935.34 244.483 935.34C245.003 934.92 245.683 934.66 246.383 934.66C247.963 934.66 248.663 936.02 248.663 937.94C248.663 940.4 247.683 941.62 246.043 941.62ZM256.946 941.46C256.026 941.46 255.526 940.98 255.526 940.26C255.526 939.38 256.146 938.94 256.946 938.78C257.906 938.6 258.426 938.66 258.426 938.66V939.3C258.426 940.46 258.486 941.02 258.486 941.02C258.486 941.02 257.926 941.46 256.946 941.46ZM258.826 942.1C259.066 942.72 259.746 943.2 260.666 943.2C261.706 943.2 262.346 942.76 262.346 942.76V941.2C261.526 941.72 261.106 941.56 261.106 940.88L261.086 936.46C261.086 933.86 259.806 932.8 257.266 932.8C255.386 932.8 253.826 933.36 253.826 933.36V934.9C253.826 934.9 255.066 934.64 255.986 934.64C257.786 934.64 258.466 935.08 258.466 936.74V937.26C257.886 937.26 257.166 937.28 256.406 937.38C254.046 937.66 252.906 938.76 252.906 940.54C252.906 942 253.826 943.24 255.826 943.24C256.986 943.24 257.986 942.8 258.826 942.1Z" fill="#3C5079"/>
<defs>
<filter id="filter0_d" x="712" y="321" width="66" height="66" filterUnits="userSpaceOnUse" color-interpolation-filters="sRGB">
<feFlood flood-opacity="0" result="BackgroundImageFix"/>
<feColorMatrix in="SourceAlpha" type="matrix" values="0 0 0 0 0 0 0 0 0 0 0 0 0 0 0 0 0 0 127 0"/>
<feOffset/>
<feGaussianBlur stdDeviation="10"/>
<feColorMatrix type="matrix" values="0 0 0 0 1 0 0 0 0 1 0 0 0 0 1 0 0 0 0.7 0"/>
<feBlend mode="normal" in2="BackgroundImageFix" result="effect1_dropShadow"/>
<feBlend mode="normal" in="SourceGraphic" in2="effect1_dropShadow" result="shape"/>
</filter>
<linearGradient id="paint0_linear" x1="737.121" y1="366.336" x2="744.036" y2="337.61" gradientUnits="userSpaceOnUse">
<stop stop-color="#FF6E41"/>
<stop offset="1" stop-color="#FFB800"/>
</linearGradient>
</defs>
</svg>
