<svg width="179" height="26" viewBox="0 0 179 26" fill="none" xmlns="http://www.w3.org/2000/svg">
<path d="M0.000347828 13.3052C-0.0120893 11.6225 0.309125 9.9544 0.944987 8.39952C1.58085 6.84464 2.51844 5.43461 3.7023 4.25284C4.88615 3.07107 6.29221 2.14157 7.8373 1.51934C9.38239 0.897105 11.0351 0.594775 12.6977 0.630236C17.0655 0.630236 19.6916 1.81738 22.2185 3.99076L18.8614 8.09096C17.1619 6.4522 14.8913 5.55941 12.5443 5.60709C8.67282 5.60709 5.59549 9.06806 5.59549 13.3052C5.59549 17.789 8.63672 21.0856 12.9233 21.0856C14.7068 21.1399 16.462 20.6256 17.9409 19.6154V16.1087H12.5623V11.4515H23.0848V22.0992C20.2124 24.6191 16.5353 26.001 12.7338 25.9894C5.18939 25.9894 0.000347828 20.629 0.000347828 13.3052Z" fill="#1BC4CC"/>
<path d="M25.0254 16.2183C25.0342 14.902 25.3039 13.6009 25.8184 12.3919C26.3329 11.1828 27.0818 10.0905 28.0208 9.17951C28.9598 8.2685 30.0698 7.55731 31.2852 7.088C32.5005 6.6187 33.7966 6.40082 35.0966 6.44726C36.3999 6.39538 37.7001 6.61096 38.9188 7.081C40.1376 7.55105 41.2497 8.26584 42.1882 9.18233C43.1267 10.0988 43.8722 11.198 44.3798 12.4138C44.8874 13.6296 45.1465 14.9367 45.1416 16.2565C45.1368 17.5763 44.868 18.8814 44.3514 20.0933C43.8349 21.3052 43.0813 22.3987 42.136 23.3081C41.1908 24.2174 40.0734 24.9238 38.8512 25.3846C37.629 25.8454 36.3273 26.0512 35.0245 25.9894C33.7278 26.036 32.4352 25.8178 31.2238 25.3477C30.0124 24.8775 28.907 24.1652 27.9738 23.2532C27.0405 22.3412 26.2984 21.2482 25.7918 20.0395C25.2852 18.8308 25.0246 17.5312 25.0254 16.2183ZM39.9067 16.2183C39.932 15.551 39.8249 14.8853 39.5916 14.2606C39.3583 13.6359 39.0036 13.0648 38.5484 12.5812C38.0932 12.0977 37.5468 11.7113 36.9416 11.4451C36.3363 11.179 35.6844 11.0383 35.0245 11.0314C32.0193 11.0314 30.2144 13.3783 30.2144 16.2183C30.189 16.8852 30.2962 17.5505 30.5296 18.1747C30.763 18.7989 31.1179 19.3694 31.5732 19.8522C32.0285 20.3351 32.575 20.7205 33.1802 20.9857C33.7854 21.2509 34.4371 21.3905 35.0966 21.3961C38.1018 21.3961 39.9067 19.0492 39.9067 16.2183Z" fill="#1BC4CC"/>
<path d="M46.0703 21.9894L49.2108 18.1723C51.1825 20.0153 53.7473 21.0729 56.4304 21.1493C58.6143 21.1493 59.9228 20.2361 59.9228 18.775C59.9228 17.3139 59.0926 16.7021 55.0496 15.6519C50.1674 14.3917 47.0179 13.0311 47.0179 8.09077C47.0359 3.65269 50.5374 0.7031 55.5189 0.7031C58.7942 0.64193 61.9873 1.74372 64.5433 3.81706L61.7457 7.88073C59.9306 6.44573 57.7278 5.60191 55.4286 5.46079C53.4072 5.47906 52.3423 6.39224 52.3423 7.6707C52.3423 9.27791 53.3801 9.80756 57.5674 10.8942C62.4767 12.191 65.2472 13.9717 65.2472 18.3184C65.2472 23.1857 61.5833 25.9161 56.3582 25.9161C52.5681 25.9333 48.905 24.5351 46.0703 21.9894Z" fill="#231F20"/>
<path d="M66.4834 20.0902C66.4834 15.9991 69.5698 14.1088 73.9646 14.1088C75.5015 14.0957 77.0286 14.3553 78.4769 14.8759V14.6111C78.4769 12.4103 77.1232 11.1866 74.4971 11.1866C72.74 11.1885 70.9997 11.5327 69.3712 12.2003L68.0807 8.09095C70.3418 7.03705 72.8116 6.5216 75.3003 6.58419C78.1791 6.58419 80.2547 7.35127 81.6174 8.68452C82.98 10.0178 83.6208 12.1546 83.6208 14.675V25.5693H78.4588V23.5329C77.756 24.3236 76.8892 24.9473 75.9204 25.3593C74.9515 25.7714 73.9046 25.9616 72.8546 25.9163C69.3622 25.9163 66.4834 23.889 66.4834 20.0902ZM78.5671 18.9396V18.0264C77.5103 17.553 76.3657 17.3133 75.21 17.3232C72.9539 17.3232 71.6002 18.2364 71.6002 19.9897C71.6002 21.4234 72.7734 22.2636 74.47 22.2636C76.9066 22.2362 78.5671 20.8755 78.5671 18.9487V18.9396Z" fill="#231F20"/>
<path d="M86.3555 0H91.6167V13.6247L97.7714 6.7941H104.088L97.0314 14.1818L104.314 25.5692H98.2948L93.4487 17.8984L91.6438 19.8526V25.5692H86.3555V0Z" fill="#231F20"/>
<path d="M105.108 0H110.37V9.45146C110.96 8.54001 111.762 7.78929 112.706 7.2654C113.651 6.74151 114.708 6.46049 115.784 6.44709C119.773 6.44709 122.101 9.10445 122.101 13.4147V25.5692H116.84V15.0949C116.84 12.5746 115.667 11.2778 113.655 11.2778C111.642 11.2778 110.37 12.5746 110.37 15.0949V25.5692H105.108V0Z" fill="#231F20"/>
<path d="M123.834 20.0901C123.834 15.999 126.911 14.1087 131.306 14.1087C132.843 14.0959 134.37 14.3556 135.818 14.8758V14.6109C135.818 12.4102 134.465 11.1865 131.839 11.1865C130.081 11.1875 128.341 11.5316 126.713 12.2001L125.44 8.0908C127.702 7.03937 130.171 6.52404 132.66 6.58404C135.53 6.58404 137.605 7.35112 138.923 8.68437C140.24 10.0176 140.935 12.1545 140.935 14.6749V25.5692H135.845V23.5328C135.143 24.3235 134.276 24.9471 133.307 25.3592C132.338 25.7712 131.291 25.9614 130.241 25.9162C126.704 25.9162 123.834 23.8889 123.834 20.0901ZM135.909 18.9394V18.0263C134.852 17.5528 133.707 17.3131 132.552 17.3231C130.304 17.3231 128.942 18.2363 128.942 19.9896C128.942 21.4233 130.115 22.2634 131.812 22.2634C134.248 22.236 135.909 20.8754 135.909 18.9486V18.9394Z" fill="#231F20"/>
<path d="M143.939 0H149.201V25.5692H143.939V0Z" fill="#231F20"/>
<path d="M152.513 0H158.054V4.7303H152.513V0ZM152.657 6.7941H157.927V25.5692H152.675L152.657 6.7941Z" fill="#231F20"/>
<path d="M162.007 6.79428H167.268V9.45164C167.858 8.54019 168.661 7.78947 169.605 7.26558C170.549 6.74169 171.606 6.46067 172.683 6.44727C176.662 6.44727 179 9.10463 179 13.4149V25.5694H173.739V15.0951C173.739 12.5747 172.565 11.278 170.553 11.278C168.541 11.278 167.268 12.5747 167.268 15.0951V25.5694H162.007V6.79428Z" fill="#231F20"/>
</svg>
