<svg width="97" height="24" viewBox="0 0 97 24" fill="none" xmlns="http://www.w3.org/2000/svg">
<path fill-rule="evenodd" clip-rule="evenodd" d="M10.4852 22.6066L0.939297 13.0606C0.35351 12.4748 0.35351 11.5251 0.939297 10.9393L10.4852 1.39335C11.071 0.807568 12.0208 0.807568 12.6066 1.39335C13.1923 1.97914 13.1923 2.92889 12.6066 3.51468L4.12128 12L12.6066 20.4852C13.1923 21.071 13.1923 22.0208 12.6066 22.6066C12.0208 23.1923 11.071 23.1923 10.4852 22.6066Z" fill="white"/>
<path d="M23.68 19V5H26.76V10.54H32.44V5H35.52V19H32.44V13.38H26.76V19H23.68ZM37.2753 19L43.2753 4.9H46.1153L52.1153 19H48.8953L47.6153 15.86H41.6953L40.4153 19H37.2753ZM42.7953 13.14H46.5153L44.6553 8.6L42.7953 13.14ZM58.8561 4.76C60.3494 4.76 61.5628 5.11333 62.4961 5.82C63.4428 6.52667 63.9161 7.42667 63.9161 8.52C63.9161 10.0133 63.1628 11.0867 61.6561 11.74C63.4028 12.3 64.2761 13.4 64.2761 15.04C64.2761 16.2667 63.7894 17.2733 62.8161 18.06C61.8561 18.8467 60.5694 19.24 58.9561 19.24C57.5294 19.24 56.3294 19.0467 55.3561 18.66C54.3961 18.2733 53.5228 17.6867 52.7361 16.9L54.3761 14.76C55.5894 15.9467 57.0761 16.54 58.8361 16.54C59.5161 16.54 60.0761 16.3933 60.5161 16.1C60.9694 15.7933 61.1961 15.38 61.1961 14.86C61.1961 14.3 60.9428 13.8867 60.4361 13.62C59.9428 13.3533 59.2694 13.22 58.4161 13.22H56.7961V10.66H58.3761C60.0428 10.66 60.8761 10.12 60.8761 9.04C60.8761 8.56 60.6694 8.18 60.2561 7.9C59.8428 7.62 59.2961 7.48 58.6161 7.48C57.0961 7.48 55.8361 7.99333 54.8361 9.02L53.2161 7.06C54.6828 5.52667 56.5628 4.76 58.8561 4.76ZM65.362 19L71.362 4.9H74.202L80.202 19H76.982L75.702 15.86H69.782L68.502 19H65.362ZM70.882 13.14H74.602L72.742 8.6L70.882 13.14ZM80.4828 21.92V16.22H81.8028C82.3495 14.9533 82.7428 13.6133 82.9828 12.2C83.2228 10.7867 83.3428 8.93333 83.3428 6.64V5H93.5228V16.22H95.2028L94.8028 21.92H92.2228V19H83.4628L83.2628 21.92H80.4828ZM90.4428 7.78H86.3028V9.2C86.3028 11.84 85.8828 14.18 85.0428 16.22H90.4428V7.78Z" fill="white"/>
</svg>
