<svg width="420" height="420" viewBox="0 0 420 420" fill="none" xmlns="http://www.w3.org/2000/svg">
<mask id="mask0" mask-type="alpha" maskUnits="userSpaceOnUse" x="0" y="0" width="420" height="420">
<rect width="420" height="420" fill="#C4C4C4"/>
</mask>
<g mask="url(#mask0)">
<path d="M122.227 334.6C121.16 334.6 120.31 334.283 119.677 333.65C119.06 333.017 118.752 332.083 118.752 330.85V327.925C118.752 327.125 118.552 326.458 118.152 325.925C117.769 325.375 117.169 325.1 116.352 325.1H114.802V332.6C114.802 332.817 114.844 332.975 114.927 333.075C115.027 333.158 115.185 333.2 115.402 333.2H117.152V334H108.752V333.2H110.502C110.735 333.2 110.894 333.158 110.977 333.075C111.06 332.975 111.102 332.817 111.102 332.6V317.6C111.102 317.367 111.06 317.208 110.977 317.125C110.894 317.042 110.735 317 110.502 317H108.752V316.2H117.152V317H115.402C115.185 317 115.027 317.042 114.927 317.125C114.844 317.208 114.802 317.367 114.802 317.6V324.2H116.527C117.444 324.2 118.06 323.85 118.377 323.15C118.71 322.433 118.877 321.283 118.877 319.7C118.877 318.567 119.102 317.7 119.552 317.1C120.152 316.3 120.935 315.9 121.902 315.9C122.419 315.9 122.86 316.042 123.227 316.325C123.61 316.592 123.902 316.933 124.102 317.35C124.302 317.75 124.402 318.15 124.402 318.55C124.402 319.15 124.277 319.658 124.027 320.075C123.794 320.475 123.494 320.775 123.127 320.975C122.777 321.175 122.435 321.275 122.102 321.275C121.602 321.275 121.185 321.133 120.852 320.85C120.535 320.55 120.377 320.183 120.377 319.75C120.377 319.167 120.644 318.65 121.177 318.2C121.46 317.967 121.602 317.725 121.602 317.475C121.602 317.225 121.452 317.1 121.152 317.1C120.735 317.1 120.385 317.342 120.102 317.825C119.819 318.308 119.677 319.083 119.677 320.15V320.95C119.677 322.6 119.269 323.767 118.452 324.45V324.575C119.752 324.892 120.744 325.408 121.427 326.125C122.11 326.825 122.452 327.908 122.452 329.375V332.15C122.452 332.85 122.685 333.2 123.152 333.2C123.585 333.2 123.902 332.842 124.102 332.125C124.302 331.408 124.402 330.533 124.402 329.5H125.202C125.202 331.117 124.985 332.375 124.552 333.275C124.119 334.158 123.344 334.6 122.227 334.6ZM131.91 334.3C131.01 334.3 130.169 334.033 129.385 333.5C128.602 332.95 127.977 332.2 127.51 331.25C127.044 330.3 126.81 329.242 126.81 328.075C126.81 326.908 127.044 325.85 127.51 324.9C127.977 323.95 128.602 323.208 129.385 322.675C130.169 322.125 131.01 321.85 131.91 321.85C132.81 321.85 133.652 322.125 134.435 322.675C135.219 323.208 135.844 323.95 136.31 324.9C136.777 325.85 137.01 326.908 137.01 328.075C137.01 329.242 136.777 330.3 136.31 331.25C135.844 332.2 135.219 332.95 134.435 333.5C133.652 334.033 132.81 334.3 131.91 334.3ZM131.91 333.7C132.627 333.7 133.119 333.258 133.385 332.375C133.669 331.492 133.81 330.058 133.81 328.075C133.81 326.092 133.669 324.658 133.385 323.775C133.119 322.892 132.627 322.45 131.91 322.45C131.194 322.45 130.694 322.892 130.41 323.775C130.144 324.658 130.01 326.092 130.01 328.075C130.01 330.058 130.144 331.492 130.41 332.375C130.694 333.258 131.194 333.7 131.91 333.7ZM144.733 334.3C143.7 334.3 142.775 334.025 141.958 333.475C141.158 332.908 140.533 332.15 140.083 331.2C139.633 330.25 139.408 329.208 139.408 328.075C139.408 326.942 139.625 325.9 140.058 324.95C140.508 324 141.133 323.25 141.933 322.7C142.75 322.133 143.666 321.85 144.683 321.85C145.483 321.85 146.15 322.017 146.683 322.35C147.233 322.683 147.641 323.108 147.908 323.625C148.175 324.142 148.308 324.675 148.308 325.225C148.308 325.825 148.125 326.35 147.758 326.8C147.391 327.233 146.95 327.45 146.433 327.45C146.05 327.45 145.733 327.342 145.483 327.125C145.233 326.892 145.108 326.583 145.108 326.2C145.108 325.75 145.375 325.308 145.908 324.875C146.308 324.542 146.508 324.2 146.508 323.85C146.508 323.5 146.375 323.183 146.108 322.9C145.858 322.6 145.45 322.45 144.883 322.45C144.1 322.45 143.525 322.95 143.158 323.95C142.791 324.933 142.608 326.308 142.608 328.075C142.608 328.958 142.625 329.65 142.658 330.15C142.691 330.633 142.766 331.092 142.883 331.525C143.033 332.142 143.316 332.633 143.733 333C144.166 333.367 144.666 333.55 145.233 333.55C146.05 333.55 146.708 333.192 147.208 332.475C147.708 331.758 148.008 330.917 148.108 329.95H148.758C148.658 331.1 148.283 332.117 147.633 333C146.983 333.867 146.016 334.3 144.733 334.3ZM150.902 333.4H151.852C152.002 333.4 152.102 333.375 152.152 333.325C152.219 333.258 152.252 333.15 152.252 333V323.15C152.252 323 152.219 322.9 152.152 322.85C152.102 322.783 152.002 322.75 151.852 322.75H150.902V322.15H156.352V322.75H155.552C155.402 322.75 155.294 322.783 155.227 322.85C155.177 322.9 155.152 323 155.152 323.15V327.45H158.802V323.15C158.802 323 158.769 322.9 158.702 322.85C158.652 322.783 158.552 322.75 158.402 322.75H157.602V322.15H163.052V322.75H162.102C161.952 322.75 161.844 322.783 161.777 322.85C161.727 322.9 161.702 323 161.702 323.15V333C161.702 333.15 161.727 333.258 161.777 333.325C161.844 333.375 161.952 333.4 162.102 333.4H163.052V334H157.602V333.4H158.402C158.552 333.4 158.652 333.375 158.702 333.325C158.769 333.258 158.802 333.15 158.802 333V328.15H155.152V333C155.152 333.15 155.177 333.258 155.227 333.325C155.294 333.375 155.402 333.4 155.552 333.4H156.352V334H150.902V333.4ZM165.063 333.4H166.013C166.163 333.4 166.263 333.375 166.313 333.325C166.379 333.258 166.413 333.15 166.413 333V323.15C166.413 323 166.379 322.9 166.313 322.85C166.263 322.783 166.163 322.75 166.013 322.75H165.063V322.15H170.513V322.75H169.713C169.563 322.75 169.454 322.783 169.388 322.85C169.338 322.9 169.313 323 169.313 323.15V331.05L173.113 323.6V323.15C173.113 323 173.079 322.9 173.013 322.85C172.963 322.783 172.863 322.75 172.713 322.75H171.913V322.15H177.363V322.75H176.413C176.263 322.75 176.154 322.783 176.088 322.85C176.038 322.9 176.013 323 176.013 323.15V333C176.013 333.15 176.038 333.258 176.088 333.325C176.154 333.375 176.263 333.4 176.413 333.4H177.363V334H171.913V333.4H172.713C172.863 333.4 172.963 333.375 173.013 333.325C173.079 333.258 173.113 333.15 173.113 333V325.1L169.313 332.55V333C169.313 333.15 169.338 333.258 169.388 333.325C169.454 333.375 169.563 333.4 169.713 333.4H170.513V334H165.063V333.4ZM181.169 333.4H182.569C182.719 333.4 182.819 333.375 182.869 333.325C182.936 333.258 182.969 333.15 182.969 333V323.15C182.969 322.983 182.936 322.875 182.869 322.825C182.819 322.775 182.719 322.75 182.569 322.75C182.202 322.75 181.844 322.958 181.494 323.375C181.161 323.775 180.886 324.242 180.669 324.775C180.436 325.342 180.261 325.842 180.144 326.275C180.044 326.708 179.986 326.983 179.969 327.1H179.269L179.419 322.15H189.419L189.569 327.1H188.869C188.852 326.983 188.786 326.708 188.669 326.275C188.569 325.842 188.402 325.342 188.169 324.775C187.952 324.242 187.669 323.775 187.319 323.375C186.986 322.958 186.636 322.75 186.269 322.75C186.119 322.75 186.011 322.775 185.944 322.825C185.894 322.875 185.869 322.983 185.869 323.15V333C185.869 333.15 185.894 333.258 185.944 333.325C186.011 333.375 186.119 333.4 186.269 333.4H187.669V334H181.169V333.4ZM197.004 334.3C195.97 334.3 195.045 334.025 194.229 333.475C193.429 332.908 192.804 332.15 192.354 331.2C191.904 330.25 191.679 329.208 191.679 328.075C191.679 326.908 191.904 325.85 192.354 324.9C192.804 323.95 193.412 323.208 194.179 322.675C194.962 322.125 195.812 321.85 196.729 321.85C197.745 321.85 198.62 322.217 199.354 322.95C200.087 323.667 200.57 324.617 200.804 325.8C200.92 326.333 200.979 327.167 200.979 328.3H194.879C194.879 329.1 194.895 329.733 194.929 330.2C194.962 330.65 195.037 331.092 195.154 331.525C195.304 332.142 195.587 332.633 196.004 333C196.437 333.367 196.937 333.55 197.504 333.55C198.32 333.55 198.979 333.192 199.479 332.475C199.979 331.758 200.279 330.917 200.379 329.95H201.029C200.929 331.1 200.554 332.117 199.904 333C199.254 333.867 198.287 334.3 197.004 334.3ZM198.079 327.6C198.079 325.85 197.962 324.558 197.729 323.725C197.512 322.875 197.095 322.45 196.479 322.45C195.862 322.45 195.437 322.875 195.204 323.725C194.987 324.558 194.879 325.85 194.879 327.6H198.079ZM208.796 334.3C207.762 334.3 206.837 334.025 206.021 333.475C205.221 332.908 204.596 332.15 204.146 331.2C203.696 330.25 203.471 329.208 203.471 328.075C203.471 326.942 203.687 325.9 204.121 324.95C204.571 324 205.196 323.25 205.996 322.7C206.812 322.133 207.729 321.85 208.746 321.85C209.546 321.85 210.212 322.017 210.746 322.35C211.296 322.683 211.704 323.108 211.971 323.625C212.237 324.142 212.371 324.675 212.371 325.225C212.371 325.825 212.187 326.35 211.821 326.8C211.454 327.233 211.012 327.45 210.496 327.45C210.112 327.45 209.796 327.342 209.546 327.125C209.296 326.892 209.171 326.583 209.171 326.2C209.171 325.75 209.437 325.308 209.971 324.875C210.371 324.542 210.571 324.2 210.571 323.85C210.571 323.5 210.437 323.183 210.171 322.9C209.921 322.6 209.512 322.45 208.946 322.45C208.162 322.45 207.587 322.95 207.221 323.95C206.854 324.933 206.671 326.308 206.671 328.075C206.671 328.958 206.687 329.65 206.721 330.15C206.754 330.633 206.829 331.092 206.946 331.525C207.096 332.142 207.379 332.633 207.796 333C208.229 333.367 208.729 333.55 209.296 333.55C210.112 333.55 210.771 333.192 211.271 332.475C211.771 331.758 212.071 330.917 212.171 329.95H212.821C212.721 331.1 212.346 332.117 211.696 333C211.046 333.867 210.079 334.3 208.796 334.3ZM214.965 333.4H215.915C216.065 333.4 216.165 333.375 216.215 333.325C216.282 333.258 216.315 333.15 216.315 333V323.15C216.315 323 216.282 322.9 216.215 322.85C216.165 322.783 216.065 322.75 215.915 322.75H214.965V322.15H220.515V322.75H219.665C219.498 322.75 219.382 322.792 219.315 322.875C219.248 322.958 219.215 323.108 219.215 323.325V327.55H221.615C222.648 327.55 223.507 327.858 224.19 328.475C224.873 329.092 225.215 329.85 225.215 330.75C225.215 331.35 225.057 331.9 224.74 332.4C224.44 332.883 224.015 333.275 223.465 333.575C222.915 333.858 222.298 334 221.615 334H214.965V333.4ZM220.565 333.4C221.082 333.4 221.473 333.15 221.74 332.65C222.023 332.15 222.165 331.517 222.165 330.75C222.165 329.983 222.032 329.358 221.765 328.875C221.498 328.392 221.098 328.15 220.565 328.15H219.215V333C219.215 333.15 219.24 333.258 219.29 333.325C219.357 333.375 219.465 333.4 219.615 333.4H220.565ZM238.03 334.3C237.047 334.3 236.188 334.05 235.455 333.55C234.738 333.033 234.38 332.3 234.38 331.35C234.38 330.85 234.538 330.425 234.855 330.075C235.188 329.725 235.58 329.55 236.03 329.55C236.413 329.55 236.73 329.667 236.98 329.9C237.247 330.133 237.38 330.408 237.38 330.725C237.38 330.975 237.33 331.192 237.23 331.375C237.13 331.542 236.955 331.7 236.705 331.85C236.355 332.083 236.18 332.317 236.18 332.55C236.18 333.317 236.763 333.7 237.93 333.7C238.547 333.7 239.013 333.483 239.33 333.05C239.647 332.6 239.847 331.992 239.93 331.225C240.03 330.458 240.08 329.433 240.08 328.15H236.38V327.45H240.08C240.08 325.683 239.963 324.408 239.73 323.625C239.513 322.842 239.055 322.45 238.355 322.45C237.638 322.45 236.988 322.875 236.405 323.725C235.838 324.575 235.463 325.542 235.28 326.625H234.68V322H235.28L235.48 322.6C235.547 322.783 235.647 322.875 235.78 322.875C235.88 322.875 236.038 322.792 236.255 322.625C236.972 322.108 237.763 321.85 238.63 321.85C240.163 321.85 241.322 322.408 242.105 323.525C242.888 324.642 243.28 326.117 243.28 327.95C243.28 329.25 243.063 330.375 242.63 331.325C242.213 332.275 241.605 333.008 240.805 333.525C240.022 334.042 239.097 334.3 238.03 334.3ZM254.857 334.3C254.041 334.3 253.391 334.092 252.907 333.675C252.424 333.242 252.182 332.617 252.182 331.8V329.825C252.182 329.358 252.074 328.992 251.857 328.725C251.641 328.442 251.366 328.3 251.032 328.3H249.732V333C249.732 333.15 249.757 333.258 249.807 333.325C249.874 333.375 249.982 333.4 250.132 333.4H250.932V334H245.482V333.4H246.432C246.582 333.4 246.682 333.375 246.732 333.325C246.799 333.258 246.832 333.15 246.832 333V323.15C246.832 323 246.799 322.9 246.732 322.85C246.682 322.783 246.582 322.75 246.432 322.75H245.482V322.15H250.932V322.75H250.132C249.982 322.75 249.874 322.783 249.807 322.85C249.757 322.9 249.732 323 249.732 323.15V327.6H251.307C251.657 327.6 251.916 327.467 252.082 327.2C252.249 326.933 252.332 326.583 252.332 326.15V324.45C252.332 323.617 252.549 322.975 252.982 322.525C253.432 322.075 253.966 321.85 254.582 321.85C255.182 321.85 255.657 322.025 256.007 322.375C256.357 322.725 256.532 323.192 256.532 323.775C256.532 324.242 256.366 324.633 256.032 324.95C255.716 325.25 255.366 325.4 254.982 325.4C254.616 325.4 254.307 325.3 254.057 325.1C253.807 324.883 253.682 324.592 253.682 324.225C253.682 324.008 253.766 323.775 253.932 323.525C254.066 323.342 254.132 323.192 254.132 323.075C254.132 322.925 254.049 322.85 253.882 322.85C253.649 322.85 253.449 322.983 253.282 323.25C253.116 323.5 253.032 323.892 253.032 324.425V326.15C253.032 326.533 252.982 326.85 252.882 327.1C252.782 327.333 252.607 327.533 252.357 327.7V327.825C253.224 327.942 253.891 328.242 254.357 328.725C254.841 329.208 255.082 329.95 255.082 330.95V332.575C255.082 333.025 255.266 333.25 255.632 333.25C255.932 333.25 256.149 333.025 256.282 332.575C256.416 332.108 256.482 331.533 256.482 330.85H257.132C257.132 331.95 256.966 332.8 256.632 333.4C256.316 334 255.724 334.3 254.857 334.3ZM258.342 339.1H259.742C259.892 339.1 259.992 339.067 260.042 339C260.108 338.95 260.142 338.85 260.142 338.7V323.15C260.142 323 260.108 322.9 260.042 322.85C259.992 322.783 259.892 322.75 259.742 322.75H258.342V322.15H263.042V323.6H263.192C263.408 323.133 263.717 322.725 264.117 322.375C264.533 322.025 265.008 321.85 265.542 321.85C266.408 321.85 267.183 322.15 267.867 322.75C268.55 323.333 269.083 324.108 269.467 325.075C269.85 326.025 270.042 327.025 270.042 328.075C270.042 329.142 269.858 330.15 269.492 331.1C269.125 332.05 268.608 332.825 267.942 333.425C267.275 334.008 266.508 334.3 265.642 334.3C265.108 334.3 264.633 334.142 264.217 333.825C263.8 333.508 263.458 333.075 263.192 332.525L263.042 332.575V338.7C263.042 338.85 263.067 338.95 263.117 339C263.183 339.067 263.292 339.1 263.442 339.1H264.842V339.7H258.342V339.1ZM265.192 333.5C266.292 333.5 266.842 331.692 266.842 328.075C266.842 324.458 266.292 322.65 265.192 322.65C264.808 322.65 264.45 322.892 264.117 323.375C263.8 323.842 263.542 324.483 263.342 325.3C263.142 326.117 263.042 327.017 263.042 328C263.042 329.2 263.158 330.217 263.392 331.05C263.625 331.883 263.908 332.5 264.242 332.9C264.575 333.3 264.892 333.5 265.192 333.5ZM275.69 334.3C274.774 334.3 273.99 334.075 273.34 333.625C272.707 333.175 272.39 332.417 272.39 331.35C272.39 330.267 272.782 329.417 273.565 328.8C274.365 328.167 275.374 327.642 276.59 327.225L278.44 326.575V324.875C278.44 324.025 278.265 323.408 277.915 323.025C277.565 322.642 277.115 322.45 276.565 322.45C276.099 322.45 275.69 322.558 275.34 322.775C275.007 322.975 274.84 323.258 274.84 323.625C274.84 323.725 274.865 323.85 274.915 324C274.982 324.133 275.09 324.25 275.24 324.35C275.49 324.5 275.665 324.658 275.765 324.825C275.882 324.992 275.94 325.208 275.94 325.475C275.94 325.875 275.79 326.192 275.49 326.425C275.207 326.642 274.89 326.75 274.54 326.75C274.107 326.75 273.732 326.608 273.415 326.325C273.115 326.025 272.965 325.6 272.965 325.05C272.965 324.417 273.157 323.858 273.54 323.375C273.924 322.875 274.415 322.5 275.015 322.25C275.615 321.983 276.224 321.85 276.84 321.85C278.04 321.85 279.09 322.175 279.99 322.825C280.89 323.458 281.34 324.475 281.34 325.875V332.2C281.34 332.8 281.507 333.1 281.84 333.1C282.14 333.1 282.365 332.85 282.515 332.35C282.665 331.85 282.74 331.275 282.74 330.625H283.44C283.44 331.842 283.257 332.733 282.89 333.3C282.707 333.6 282.449 333.842 282.115 334.025C281.782 334.208 281.399 334.3 280.965 334.3C280.282 334.3 279.765 334.2 279.415 334C279.065 333.783 278.774 333.433 278.54 332.95H278.49C277.824 333.85 276.89 334.3 275.69 334.3ZM276.915 333.3C277.565 333.3 278.074 332.933 278.44 332.2V327.25L277.04 327.75C276.49 327.95 276.082 328.333 275.815 328.9C275.565 329.45 275.44 330.192 275.44 331.125C275.44 331.942 275.59 332.508 275.89 332.825C276.19 333.142 276.532 333.3 276.915 333.3ZM284.936 333.4H285.886C286.036 333.4 286.136 333.375 286.186 333.325C286.252 333.258 286.286 333.15 286.286 333V323.15C286.286 323 286.252 322.9 286.186 322.85C286.136 322.783 286.036 322.75 285.886 322.75H284.936V322.15H290.386V322.75H289.586C289.436 322.75 289.327 322.783 289.261 322.85C289.211 322.9 289.186 323 289.186 323.15V327.45H292.836V323.15C292.836 323 292.802 322.9 292.736 322.85C292.686 322.783 292.586 322.75 292.436 322.75H291.636V322.15H297.086V322.75H296.136C295.986 322.75 295.877 322.783 295.811 322.85C295.761 322.9 295.736 323 295.736 323.15V333C295.736 333.15 295.761 333.258 295.811 333.325C295.877 333.375 295.986 333.4 296.136 333.4H297.086V334H291.636V333.4H292.436C292.586 333.4 292.686 333.375 292.736 333.325C292.802 333.258 292.836 333.15 292.836 333V328.15H289.186V333C289.186 333.15 289.211 333.258 289.261 333.325C289.327 333.375 289.436 333.4 289.586 333.4H290.386V334H284.936V333.4ZM302.546 334.3C301.629 334.3 300.846 334.075 300.196 333.625C299.562 333.175 299.246 332.417 299.246 331.35C299.246 330.267 299.637 329.417 300.421 328.8C301.221 328.167 302.229 327.642 303.446 327.225L305.296 326.575V324.875C305.296 324.025 305.121 323.408 304.771 323.025C304.421 322.642 303.971 322.45 303.421 322.45C302.954 322.45 302.546 322.558 302.196 322.775C301.862 322.975 301.696 323.258 301.696 323.625C301.696 323.725 301.721 323.85 301.771 324C301.837 324.133 301.946 324.25 302.096 324.35C302.346 324.5 302.521 324.658 302.621 324.825C302.737 324.992 302.796 325.208 302.796 325.475C302.796 325.875 302.646 326.192 302.346 326.425C302.062 326.642 301.746 326.75 301.396 326.75C300.962 326.75 300.587 326.608 300.271 326.325C299.971 326.025 299.821 325.6 299.821 325.05C299.821 324.417 300.012 323.858 300.396 323.375C300.779 322.875 301.271 322.5 301.871 322.25C302.471 321.983 303.079 321.85 303.696 321.85C304.896 321.85 305.946 322.175 306.846 322.825C307.746 323.458 308.196 324.475 308.196 325.875V332.2C308.196 332.8 308.362 333.1 308.696 333.1C308.996 333.1 309.221 332.85 309.371 332.35C309.521 331.85 309.596 331.275 309.596 330.625H310.296C310.296 331.842 310.112 332.733 309.746 333.3C309.562 333.6 309.304 333.842 308.971 334.025C308.637 334.208 308.254 334.3 307.821 334.3C307.137 334.3 306.621 334.2 306.271 334C305.921 333.783 305.629 333.433 305.396 332.95H305.346C304.679 333.85 303.746 334.3 302.546 334.3ZM303.771 333.3C304.421 333.3 304.929 332.933 305.296 332.2V327.25L303.896 327.75C303.346 327.95 302.937 328.333 302.671 328.9C302.421 329.45 302.296 330.192 302.296 331.125C302.296 331.942 302.446 332.508 302.746 332.825C303.046 333.142 303.387 333.3 303.771 333.3ZM312.091 338.2C313.141 337.817 313.983 337.258 314.616 336.525C315.266 335.808 315.591 335.05 315.591 334.25C315.591 334.133 315.549 334.033 315.466 333.95C315.399 333.85 315.299 333.8 315.166 333.8C315.033 333.8 314.833 333.867 314.566 334C314.266 334.15 313.983 334.225 313.716 334.225C313.249 334.225 312.833 334.067 312.466 333.75C312.116 333.433 311.941 332.992 311.941 332.425C311.941 331.758 312.158 331.242 312.591 330.875C313.024 330.492 313.524 330.3 314.091 330.3C314.908 330.3 315.549 330.575 316.016 331.125C316.499 331.658 316.741 332.35 316.741 333.2C316.741 334.567 316.341 335.742 315.541 336.725C314.758 337.708 313.724 338.433 312.441 338.9L312.091 338.2ZM97.8196 367.4H98.7696C98.9196 367.4 99.0196 367.375 99.0696 367.325C99.1363 367.258 99.1696 367.15 99.1696 367V362.875C98.0196 363.225 96.9863 363.4 96.0696 363.4C95.2363 363.4 94.553 363.183 94.0196 362.75C93.4863 362.3 93.2196 361.65 93.2196 360.8V357.15C93.2196 357 93.1863 356.9 93.1196 356.85C93.0696 356.783 92.9696 356.75 92.8196 356.75H91.8696V356.15H97.3196V356.75H96.5196C96.3696 356.75 96.2613 356.783 96.1946 356.85C96.1446 356.9 96.1196 357 96.1196 357.15V361.525C96.1196 361.942 96.1946 362.242 96.3446 362.425C96.4946 362.608 96.7363 362.7 97.0696 362.7C97.353 362.7 97.703 362.658 98.1196 362.575C98.5363 362.475 98.8863 362.375 99.1696 362.275V357.15C99.1696 357 99.1363 356.9 99.0696 356.85C99.0196 356.783 98.9196 356.75 98.7696 356.75H97.9696V356.15H103.42V356.75H102.47C102.32 356.75 102.211 356.783 102.145 356.85C102.095 356.9 102.07 357 102.07 357.15V367C102.07 367.15 102.095 367.258 102.145 367.325C102.211 367.375 102.32 367.4 102.47 367.4H103.42V368H97.8196V367.4ZM107.231 367.4H108.631C108.781 367.4 108.881 367.375 108.931 367.325C108.998 367.258 109.031 367.15 109.031 367V357.15C109.031 356.983 108.998 356.875 108.931 356.825C108.881 356.775 108.781 356.75 108.631 356.75C108.264 356.75 107.906 356.958 107.556 357.375C107.223 357.775 106.948 358.242 106.731 358.775C106.498 359.342 106.323 359.842 106.206 360.275C106.106 360.708 106.048 360.983 106.031 361.1H105.331L105.481 356.15H115.481L115.631 361.1H114.931C114.914 360.983 114.848 360.708 114.731 360.275C114.631 359.842 114.464 359.342 114.231 358.775C114.014 358.242 113.731 357.775 113.381 357.375C113.048 356.958 112.698 356.75 112.331 356.75C112.181 356.75 112.073 356.775 112.006 356.825C111.956 356.875 111.931 356.983 111.931 357.15V367C111.931 367.15 111.956 367.258 112.006 367.325C112.073 367.375 112.181 367.4 112.331 367.4H113.731V368H107.231V367.4ZM122.841 368.3C121.941 368.3 121.099 368.033 120.316 367.5C119.532 366.95 118.907 366.2 118.441 365.25C117.974 364.3 117.741 363.242 117.741 362.075C117.741 360.908 117.974 359.85 118.441 358.9C118.907 357.95 119.532 357.208 120.316 356.675C121.099 356.125 121.941 355.85 122.841 355.85C123.741 355.85 124.582 356.125 125.366 356.675C126.149 357.208 126.774 357.95 127.241 358.9C127.707 359.85 127.941 360.908 127.941 362.075C127.941 363.242 127.707 364.3 127.241 365.25C126.774 366.2 126.149 366.95 125.366 367.5C124.582 368.033 123.741 368.3 122.841 368.3ZM122.841 367.7C123.557 367.7 124.049 367.258 124.316 366.375C124.599 365.492 124.741 364.058 124.741 362.075C124.741 360.092 124.599 358.658 124.316 357.775C124.049 356.892 123.557 356.45 122.841 356.45C122.124 356.45 121.624 356.892 121.341 357.775C121.074 358.658 120.941 360.092 120.941 362.075C120.941 364.058 121.074 365.492 121.341 366.375C121.624 367.258 122.124 367.7 122.841 367.7ZM135.538 368.3C134.638 368.3 133.797 368.033 133.013 367.5C132.23 366.95 131.605 366.2 131.138 365.25C130.672 364.3 130.438 363.242 130.438 362.075C130.438 360.408 130.472 359.117 130.538 358.2C130.605 357.283 130.772 356.458 131.038 355.725C131.322 354.992 131.755 354.3 132.338 353.65C132.938 353 133.688 352.5 134.588 352.15C135.505 351.8 136.622 351.467 137.938 351.15C138.555 351 138.98 350.85 139.213 350.7C139.447 350.533 139.597 350.3 139.663 350H140.263C140.263 351 140.122 351.775 139.838 352.325C139.555 352.858 139.18 353.233 138.713 353.45C138.263 353.667 137.672 353.842 136.938 353.975C135.872 354.175 135.022 354.375 134.388 354.575C133.755 354.758 133.163 355.05 132.613 355.45C132.113 355.817 131.747 356.325 131.513 356.975C131.28 357.608 131.138 358.292 131.088 359.025L131.213 359.05C132.213 356.917 133.655 355.85 135.538 355.85C136.438 355.85 137.28 356.125 138.063 356.675C138.847 357.208 139.472 357.95 139.938 358.9C140.405 359.85 140.638 360.908 140.638 362.075C140.638 363.242 140.405 364.3 139.938 365.25C139.472 366.2 138.847 366.95 138.063 367.5C137.28 368.033 136.438 368.3 135.538 368.3ZM135.538 367.7C136.255 367.7 136.747 367.258 137.013 366.375C137.297 365.492 137.438 364.058 137.438 362.075C137.438 360.092 137.297 358.658 137.013 357.775C136.747 356.892 136.255 356.45 135.538 356.45C134.805 356.45 134.305 356.892 134.038 357.775C133.772 358.642 133.638 360.075 133.638 362.075C133.638 364.075 133.772 365.517 134.038 366.4C134.305 367.267 134.805 367.7 135.538 367.7ZM142.833 367.4H143.783C143.933 367.4 144.033 367.375 144.083 367.325C144.15 367.258 144.183 367.15 144.183 367V357.15C144.183 357 144.15 356.9 144.083 356.85C144.033 356.783 143.933 356.75 143.783 356.75H142.833V356.15H148.383V356.75H147.533C147.367 356.75 147.25 356.792 147.183 356.875C147.117 356.958 147.083 357.108 147.083 357.325V361.55H149.233C150.267 361.55 151.125 361.858 151.808 362.475C152.492 363.092 152.833 363.85 152.833 364.75C152.833 365.35 152.675 365.9 152.358 366.4C152.058 366.883 151.633 367.275 151.083 367.575C150.533 367.858 149.917 368 149.233 368H142.833V367.4ZM152.483 367.4H153.283C153.433 367.4 153.533 367.375 153.583 367.325C153.65 367.258 153.683 367.15 153.683 367V357.15C153.683 357 153.65 356.9 153.583 356.85C153.533 356.783 153.433 356.75 153.283 356.75H152.483V356.15H157.933V356.75H156.983C156.833 356.75 156.725 356.783 156.658 356.85C156.608 356.9 156.583 357 156.583 357.15V367C156.583 367.15 156.608 367.258 156.658 367.325C156.725 367.375 156.833 367.4 156.983 367.4H157.933V368H152.483V367.4ZM148.183 367.4C148.7 367.4 149.092 367.15 149.358 366.65C149.642 366.15 149.783 365.517 149.783 364.75C149.783 363.983 149.65 363.358 149.383 362.875C149.117 362.392 148.717 362.15 148.183 362.15H147.083V367C147.083 367.15 147.108 367.258 147.158 367.325C147.225 367.375 147.333 367.4 147.483 367.4H148.183ZM166.93 367.4H167.88C168.03 367.4 168.13 367.375 168.18 367.325C168.247 367.258 168.28 367.15 168.28 367V357.15C168.28 357 168.247 356.9 168.18 356.85C168.13 356.783 168.03 356.75 167.88 356.75H166.93V356.15H172.38V356.75H171.58C171.43 356.75 171.322 356.783 171.255 356.85C171.205 356.9 171.18 357 171.18 357.15V361.45H174.83V357.15C174.83 357 174.797 356.9 174.73 356.85C174.68 356.783 174.58 356.75 174.43 356.75H173.63V356.15H179.08V356.75H178.13C177.98 356.75 177.872 356.783 177.805 356.85C177.755 356.9 177.73 357 177.73 357.15V367C177.73 367.15 177.755 367.258 177.805 367.325C177.872 367.375 177.98 367.4 178.13 367.4H179.08V368H173.63V367.4H174.43C174.58 367.4 174.68 367.375 174.73 367.325C174.797 367.258 174.83 367.15 174.83 367V362.15H171.18V367C171.18 367.15 171.205 367.258 171.255 367.325C171.322 367.375 171.43 367.4 171.58 367.4H172.38V368H166.93V367.4ZM184.54 368.3C183.624 368.3 182.84 368.075 182.19 367.625C181.557 367.175 181.24 366.417 181.24 365.35C181.24 364.267 181.632 363.417 182.415 362.8C183.215 362.167 184.224 361.642 185.44 361.225L187.29 360.575V358.875C187.29 358.025 187.115 357.408 186.765 357.025C186.415 356.642 185.965 356.45 185.415 356.45C184.949 356.45 184.54 356.558 184.19 356.775C183.857 356.975 183.69 357.258 183.69 357.625C183.69 357.725 183.715 357.85 183.765 358C183.832 358.133 183.94 358.25 184.09 358.35C184.34 358.5 184.515 358.658 184.615 358.825C184.732 358.992 184.79 359.208 184.79 359.475C184.79 359.875 184.64 360.192 184.34 360.425C184.057 360.642 183.74 360.75 183.39 360.75C182.957 360.75 182.582 360.608 182.265 360.325C181.965 360.025 181.815 359.6 181.815 359.05C181.815 358.417 182.007 357.858 182.39 357.375C182.774 356.875 183.265 356.5 183.865 356.25C184.465 355.983 185.074 355.85 185.69 355.85C186.89 355.85 187.94 356.175 188.84 356.825C189.74 357.458 190.19 358.475 190.19 359.875V366.2C190.19 366.8 190.357 367.1 190.69 367.1C190.99 367.1 191.215 366.85 191.365 366.35C191.515 365.85 191.59 365.275 191.59 364.625H192.29C192.29 365.842 192.107 366.733 191.74 367.3C191.557 367.6 191.299 367.842 190.965 368.025C190.632 368.208 190.249 368.3 189.815 368.3C189.132 368.3 188.615 368.2 188.265 368C187.915 367.783 187.624 367.433 187.39 366.95H187.34C186.674 367.85 185.74 368.3 184.54 368.3ZM185.765 367.3C186.415 367.3 186.924 366.933 187.29 366.2V361.25L185.89 361.75C185.34 361.95 184.932 362.333 184.665 362.9C184.415 363.45 184.29 364.192 184.29 365.125C184.29 365.942 184.44 366.508 184.74 366.825C185.04 367.142 185.382 367.3 185.765 367.3ZM199.236 367.4H200.186C200.336 367.4 200.436 367.375 200.486 367.325C200.552 367.258 200.586 367.15 200.586 367V362.875C199.436 363.225 198.402 363.4 197.486 363.4C196.652 363.4 195.969 363.183 195.436 362.75C194.902 362.3 194.636 361.65 194.636 360.8V357.15C194.636 357 194.602 356.9 194.536 356.85C194.486 356.783 194.386 356.75 194.236 356.75H193.286V356.15H198.736V356.75H197.936C197.786 356.75 197.677 356.783 197.611 356.85C197.561 356.9 197.536 357 197.536 357.15V361.525C197.536 361.942 197.611 362.242 197.761 362.425C197.911 362.608 198.152 362.7 198.486 362.7C198.769 362.7 199.119 362.658 199.536 362.575C199.952 362.475 200.302 362.375 200.586 362.275V357.15C200.586 357 200.552 356.9 200.486 356.85C200.436 356.783 200.336 356.75 200.186 356.75H199.386V356.15H204.836V356.75H203.886C203.736 356.75 203.627 356.783 203.561 356.85C203.511 356.9 203.486 357 203.486 357.15V367C203.486 367.15 203.511 367.258 203.561 367.325C203.627 367.375 203.736 367.4 203.886 367.4H204.836V368H199.236V367.4ZM210.297 368.3C209.381 368.3 208.597 368.075 207.947 367.625C207.314 367.175 206.997 366.417 206.997 365.35C206.997 364.267 207.389 363.417 208.172 362.8C208.972 362.167 209.981 361.642 211.197 361.225L213.047 360.575V358.875C213.047 358.025 212.872 357.408 212.522 357.025C212.172 356.642 211.722 356.45 211.172 356.45C210.706 356.45 210.297 356.558 209.947 356.775C209.614 356.975 209.447 357.258 209.447 357.625C209.447 357.725 209.472 357.85 209.522 358C209.589 358.133 209.697 358.25 209.847 358.35C210.097 358.5 210.272 358.658 210.372 358.825C210.489 358.992 210.547 359.208 210.547 359.475C210.547 359.875 210.397 360.192 210.097 360.425C209.814 360.642 209.497 360.75 209.147 360.75C208.714 360.75 208.339 360.608 208.022 360.325C207.722 360.025 207.572 359.6 207.572 359.05C207.572 358.417 207.764 357.858 208.147 357.375C208.531 356.875 209.022 356.5 209.622 356.25C210.222 355.983 210.831 355.85 211.447 355.85C212.647 355.85 213.697 356.175 214.597 356.825C215.497 357.458 215.947 358.475 215.947 359.875V366.2C215.947 366.8 216.114 367.1 216.447 367.1C216.747 367.1 216.972 366.85 217.122 366.35C217.272 365.85 217.347 365.275 217.347 364.625H218.047C218.047 365.842 217.864 366.733 217.497 367.3C217.314 367.6 217.056 367.842 216.722 368.025C216.389 368.208 216.006 368.3 215.572 368.3C214.889 368.3 214.372 368.2 214.022 368C213.672 367.783 213.381 367.433 213.147 366.95H213.097C212.431 367.85 211.497 368.3 210.297 368.3ZM211.522 367.3C212.172 367.3 212.681 366.933 213.047 366.2V361.25L211.647 361.75C211.097 361.95 210.689 362.333 210.422 362.9C210.172 363.45 210.047 364.192 210.047 365.125C210.047 365.942 210.197 366.508 210.497 366.825C210.797 367.142 211.139 367.3 211.522 367.3ZM221.342 367.4H222.742C222.892 367.4 222.992 367.375 223.042 367.325C223.109 367.258 223.142 367.15 223.142 367V357.15C223.142 356.983 223.109 356.875 223.042 356.825C222.992 356.775 222.892 356.75 222.742 356.75C222.376 356.75 222.017 356.958 221.667 357.375C221.334 357.775 221.059 358.242 220.842 358.775C220.609 359.342 220.434 359.842 220.317 360.275C220.217 360.708 220.159 360.983 220.142 361.1H219.442L219.592 356.15H229.592L229.742 361.1H229.042C229.026 360.983 228.959 360.708 228.842 360.275C228.742 359.842 228.576 359.342 228.342 358.775C228.126 358.242 227.842 357.775 227.492 357.375C227.159 356.958 226.809 356.75 226.442 356.75C226.292 356.75 226.184 356.775 226.117 356.825C226.067 356.875 226.042 356.983 226.042 357.15V367C226.042 367.15 226.067 367.258 226.117 367.325C226.184 367.375 226.292 367.4 226.442 367.4H227.842V368H221.342V367.4ZM231.652 367.4H232.602C232.752 367.4 232.852 367.375 232.902 367.325C232.969 367.258 233.002 367.15 233.002 367V357.15C233.002 357 232.969 356.9 232.902 356.85C232.852 356.783 232.752 356.75 232.602 356.75H231.652V356.15H237.202V356.75H236.352C236.185 356.75 236.069 356.792 236.002 356.875C235.935 356.958 235.902 357.108 235.902 357.325V361.55H238.302C239.335 361.55 240.194 361.858 240.877 362.475C241.56 363.092 241.902 363.85 241.902 364.75C241.902 365.35 241.744 365.9 241.427 366.4C241.127 366.883 240.702 367.275 240.152 367.575C239.602 367.858 238.985 368 238.302 368H231.652V367.4ZM237.252 367.4C237.769 367.4 238.16 367.15 238.427 366.65C238.71 366.15 238.852 365.517 238.852 364.75C238.852 363.983 238.719 363.358 238.452 362.875C238.185 362.392 237.785 362.15 237.252 362.15H235.902V367C235.902 367.15 235.927 367.258 235.977 367.325C236.044 367.375 236.152 367.4 236.302 367.4H237.252ZM250.517 373.1H251.917C252.067 373.1 252.167 373.067 252.217 373C252.284 372.95 252.317 372.85 252.317 372.7V357.15C252.317 357 252.284 356.9 252.217 356.85C252.167 356.783 252.067 356.75 251.917 356.75H250.517V356.15H255.217V357.6H255.367C255.584 357.133 255.892 356.725 256.292 356.375C256.709 356.025 257.184 355.85 257.717 355.85C258.584 355.85 259.359 356.15 260.042 356.75C260.725 357.333 261.259 358.108 261.642 359.075C262.025 360.025 262.217 361.025 262.217 362.075C262.217 363.142 262.034 364.15 261.667 365.1C261.3 366.05 260.784 366.825 260.117 367.425C259.45 368.008 258.684 368.3 257.817 368.3C257.284 368.3 256.809 368.142 256.392 367.825C255.975 367.508 255.634 367.075 255.367 366.525L255.217 366.575V372.7C255.217 372.85 255.242 372.95 255.292 373C255.359 373.067 255.467 373.1 255.617 373.1H257.017V373.7H250.517V373.1ZM257.367 367.5C258.467 367.5 259.017 365.692 259.017 362.075C259.017 358.458 258.467 356.65 257.367 356.65C256.984 356.65 256.625 356.892 256.292 357.375C255.975 357.842 255.717 358.483 255.517 359.3C255.317 360.117 255.217 361.017 255.217 362C255.217 363.2 255.334 364.217 255.567 365.05C255.8 365.883 256.084 366.5 256.417 366.9C256.75 367.3 257.067 367.5 257.367 367.5ZM267.866 368.3C266.949 368.3 266.166 368.075 265.516 367.625C264.882 367.175 264.566 366.417 264.566 365.35C264.566 364.267 264.957 363.417 265.741 362.8C266.541 362.167 267.549 361.642 268.766 361.225L270.616 360.575V358.875C270.616 358.025 270.441 357.408 270.091 357.025C269.741 356.642 269.291 356.45 268.741 356.45C268.274 356.45 267.866 356.558 267.516 356.775C267.182 356.975 267.016 357.258 267.016 357.625C267.016 357.725 267.041 357.85 267.091 358C267.157 358.133 267.266 358.25 267.416 358.35C267.666 358.5 267.841 358.658 267.941 358.825C268.057 358.992 268.116 359.208 268.116 359.475C268.116 359.875 267.966 360.192 267.666 360.425C267.382 360.642 267.066 360.75 266.716 360.75C266.282 360.75 265.907 360.608 265.591 360.325C265.291 360.025 265.141 359.6 265.141 359.05C265.141 358.417 265.332 357.858 265.716 357.375C266.099 356.875 266.591 356.5 267.191 356.25C267.791 355.983 268.399 355.85 269.016 355.85C270.216 355.85 271.266 356.175 272.166 356.825C273.066 357.458 273.516 358.475 273.516 359.875V366.2C273.516 366.8 273.682 367.1 274.016 367.1C274.316 367.1 274.541 366.85 274.691 366.35C274.841 365.85 274.916 365.275 274.916 364.625H275.616C275.616 365.842 275.432 366.733 275.066 367.3C274.882 367.6 274.624 367.842 274.291 368.025C273.957 368.208 273.574 368.3 273.141 368.3C272.457 368.3 271.941 368.2 271.591 368C271.241 367.783 270.949 367.433 270.716 366.95H270.666C269.999 367.85 269.066 368.3 267.866 368.3ZM269.091 367.3C269.741 367.3 270.249 366.933 270.616 366.2V361.25L269.216 361.75C268.666 361.95 268.257 362.333 267.991 362.9C267.741 363.45 267.616 364.192 267.616 365.125C267.616 365.942 267.766 366.508 268.066 366.825C268.366 367.142 268.707 367.3 269.091 367.3ZM282.511 368.3C281.611 368.3 280.769 368.033 279.986 367.5C279.203 366.95 278.578 366.2 278.111 365.25C277.644 364.3 277.411 363.242 277.411 362.075C277.411 360.408 277.444 359.117 277.511 358.2C277.578 357.283 277.744 356.458 278.011 355.725C278.294 354.992 278.728 354.3 279.311 353.65C279.911 353 280.661 352.5 281.561 352.15C282.478 351.8 283.594 351.467 284.911 351.15C285.528 351 285.953 350.85 286.186 350.7C286.419 350.533 286.569 350.3 286.636 350H287.236C287.236 351 287.094 351.775 286.811 352.325C286.528 352.858 286.153 353.233 285.686 353.45C285.236 353.667 284.644 353.842 283.911 353.975C282.844 354.175 281.994 354.375 281.361 354.575C280.728 354.758 280.136 355.05 279.586 355.45C279.086 355.817 278.719 356.325 278.486 356.975C278.253 357.608 278.111 358.292 278.061 359.025L278.186 359.05C279.186 356.917 280.628 355.85 282.511 355.85C283.411 355.85 284.253 356.125 285.036 356.675C285.819 357.208 286.444 357.95 286.911 358.9C287.378 359.85 287.611 360.908 287.611 362.075C287.611 363.242 287.378 364.3 286.911 365.25C286.444 366.2 285.819 366.95 285.036 367.5C284.253 368.033 283.411 368.3 282.511 368.3ZM282.511 367.7C283.228 367.7 283.719 367.258 283.986 366.375C284.269 365.492 284.411 364.058 284.411 362.075C284.411 360.092 284.269 358.658 283.986 357.775C283.719 356.892 283.228 356.45 282.511 356.45C281.778 356.45 281.278 356.892 281.011 357.775C280.744 358.642 280.611 360.075 280.611 362.075C280.611 364.075 280.744 365.517 281.011 366.4C281.278 367.267 281.778 367.7 282.511 367.7ZM295.106 368.3C294.206 368.3 293.364 368.033 292.581 367.5C291.798 366.95 291.173 366.2 290.706 365.25C290.239 364.3 290.006 363.242 290.006 362.075C290.006 360.908 290.239 359.85 290.706 358.9C291.173 357.95 291.798 357.208 292.581 356.675C293.364 356.125 294.206 355.85 295.106 355.85C296.006 355.85 296.848 356.125 297.631 356.675C298.414 357.208 299.039 357.95 299.506 358.9C299.973 359.85 300.206 360.908 300.206 362.075C300.206 363.242 299.973 364.3 299.506 365.25C299.039 366.2 298.414 366.95 297.631 367.5C296.848 368.033 296.006 368.3 295.106 368.3ZM295.106 367.7C295.823 367.7 296.314 367.258 296.581 366.375C296.864 365.492 297.006 364.058 297.006 362.075C297.006 360.092 296.864 358.658 296.581 357.775C296.314 356.892 295.823 356.45 295.106 356.45C294.389 356.45 293.889 356.892 293.606 357.775C293.339 358.658 293.206 360.092 293.206 362.075C293.206 364.058 293.339 365.492 293.606 366.375C293.889 367.258 294.389 367.7 295.106 367.7ZM304.204 367.4H305.604C305.754 367.4 305.854 367.375 305.904 367.325C305.97 367.258 306.004 367.15 306.004 367V357.15C306.004 356.983 305.97 356.875 305.904 356.825C305.854 356.775 305.754 356.75 305.604 356.75C305.237 356.75 304.879 356.958 304.529 357.375C304.195 357.775 303.92 358.242 303.704 358.775C303.47 359.342 303.295 359.842 303.179 360.275C303.079 360.708 303.02 360.983 303.004 361.1H302.304L302.454 356.15H312.454L312.604 361.1H311.904C311.887 360.983 311.82 360.708 311.704 360.275C311.604 359.842 311.437 359.342 311.204 358.775C310.987 358.242 310.704 357.775 310.354 357.375C310.02 356.958 309.67 356.75 309.304 356.75C309.154 356.75 309.045 356.775 308.979 356.825C308.929 356.875 308.904 356.983 308.904 357.15V367C308.904 367.15 308.929 367.258 308.979 367.325C309.045 367.375 309.154 367.4 309.304 367.4H310.704V368H304.204V367.4ZM317.288 373.95C316.605 373.95 316.055 373.733 315.638 373.3C315.222 372.883 315.013 372.342 315.013 371.675C315.013 371.125 315.188 370.642 315.538 370.225C315.888 369.808 316.33 369.6 316.863 369.6C317.263 369.6 317.588 369.717 317.838 369.95C318.105 370.2 318.238 370.5 318.238 370.85C318.238 371.067 318.188 371.267 318.088 371.45C318.005 371.633 317.897 371.783 317.763 371.9C317.53 372.1 317.413 372.317 317.413 372.55C317.413 372.7 317.455 372.833 317.538 372.95C317.638 373.083 317.788 373.15 317.988 373.15C318.272 373.15 318.505 372.975 318.688 372.625C318.888 372.275 319.072 371.833 319.238 371.3L320.063 368.55L315.738 358.2C315.505 357.65 315.288 357.275 315.088 357.075C314.905 356.858 314.605 356.75 314.188 356.75H313.813V356.15H319.938V356.75H319.213C319.063 356.75 318.922 356.808 318.788 356.925C318.672 357.042 318.613 357.2 318.613 357.4C318.613 357.583 318.672 357.817 318.788 358.1L321.363 364.275L322.988 358.8C323.105 358.333 323.163 357.967 323.163 357.7C323.163 357.45 323.097 357.233 322.963 357.05C322.83 356.85 322.638 356.75 322.388 356.75H321.738V356.15H325.863V356.75H325.313C325.013 356.75 324.722 356.883 324.438 357.15C324.172 357.4 323.963 357.783 323.813 358.3L320.013 370.925C319.43 372.942 318.522 373.95 317.288 373.95ZM329.424 359.25C329.374 358.683 329.149 357.625 328.749 356.075C328.532 355.258 328.365 354.55 328.249 353.95C328.132 353.333 328.074 352.75 328.074 352.2C328.074 351.433 328.265 350.833 328.649 350.4C329.032 349.967 329.524 349.75 330.124 349.75C330.724 349.75 331.215 349.967 331.599 350.4C331.982 350.833 332.174 351.433 332.174 352.2C332.174 352.75 332.115 353.333 331.999 353.95C331.882 354.55 331.715 355.258 331.499 356.075C331.132 357.492 330.907 358.55 330.824 359.25L330.424 362.875H329.824L329.424 359.25ZM330.124 368.3C329.557 368.3 329.09 368.117 328.724 367.75C328.357 367.383 328.174 366.917 328.174 366.35C328.174 365.783 328.357 365.317 328.724 364.95C329.09 364.583 329.557 364.4 330.124 364.4C330.69 364.4 331.157 364.583 331.524 364.95C331.89 365.317 332.074 365.783 332.074 366.35C332.074 366.917 331.89 367.383 331.524 367.75C331.157 368.117 330.69 368.3 330.124 368.3Z" fill="black"/>
<path d="M78.8769 203.531H82.6574L79.298 209.142L82.6574 214.744H78.8769L75 209.151L78.8769 203.531ZM85.1572 203.531H88.964L85.5958 209.151L88.964 214.771H85.1572L81.2978 209.142L85.1572 203.531ZM91.3498 202.003C92.8234 199.006 95.5572 197.51 99.5511 197.516C102.525 197.516 104.814 198.306 106.41 199.895C108.007 201.485 108.805 203.724 108.805 206.604C108.805 209.484 108.015 211.917 106.437 213.524C104.858 215.131 102.639 215.939 99.7879 215.939C97.2091 215.939 95.2356 215.429 93.8497 214.411C92.4912 213.432 91.4753 212.049 90.9464 210.459L96.1215 209.063C96.2599 209.862 96.6865 210.582 97.3203 211.087C97.9541 211.592 98.751 211.847 99.5598 211.803C101.665 211.803 102.867 210.667 103.165 208.396H97.8056V205.085H103.2C102.849 202.793 101.639 201.643 99.5423 201.643C98.8267 201.592 98.1151 201.786 97.5239 202.192C96.9327 202.599 96.497 203.195 96.2881 203.882L91.3498 202.003ZM110.296 197.814H127.014V202.205H121.401V215.622H115.901V202.214H110.296V197.814ZM140.189 212.698H133.952L133.075 215.631H127.462L134.145 197.814H140.145L146.846 215.622H141.084L140.189 212.698ZM139.031 208.843L137.084 202.451L135.145 208.861L139.031 208.843ZM165.345 215.631H159.898V202.196H153.855V215.622H148.364V197.814H165.389L165.345 215.631ZM168.854 197.814H174.353V204.049H180.362V197.814H185.888V215.622H180.362V208.422H174.353V215.622H168.854V197.814ZM194.808 204.681H197.747C200.439 204.681 202.439 205.164 203.746 206.112C204.411 206.635 204.937 207.314 205.277 208.089C205.617 208.865 205.76 209.712 205.693 210.556C205.736 211.281 205.598 212.006 205.292 212.665C204.986 213.324 204.521 213.897 203.939 214.332C202.404 215.293 200.606 215.748 198.799 215.631H189.291V197.814H194.782L194.808 204.681ZM194.808 211.803H197.624C199.378 211.803 200.211 211.179 200.211 209.932C200.211 208.843 199.334 208.29 197.624 208.29H194.808V211.803ZM207.044 197.814H212.553V215.622H207.044V197.814ZM232.981 197.814V215.622H227.806V205.849L221.122 215.622H215.938V197.814H221.122V207.719L227.815 197.858L232.981 197.814ZM228.955 193.424C228.802 194.409 228.27 195.295 227.473 195.891C226.63 196.508 225.613 196.84 224.569 196.84C223.526 196.84 222.509 196.508 221.666 195.891C220.871 195.295 220.344 194.408 220.201 193.424H222.315C222.448 193.894 222.741 194.303 223.143 194.58C223.545 194.858 224.031 194.986 224.517 194.943C225.02 195 225.528 194.88 225.953 194.603C226.377 194.325 226.691 193.908 226.841 193.424H228.955ZM261.471 215.622H255.988V202.187H249.945V215.622H244.454V197.814H261.471V215.622ZM263.225 197.806H269.198L271.663 205.147L274.093 197.806H279.689L273.847 211.566C273.499 212.426 273.083 213.257 272.601 214.051C272.204 214.637 271.655 215.104 271.014 215.403C270.104 215.796 269.117 215.976 268.128 215.93C267.488 215.93 266.374 215.833 264.795 215.649V211.969C265.725 212.066 266.4 212.11 266.83 212.11C268.102 212.11 268.874 211.636 269.146 210.696L263.225 197.806ZM281.373 197.806H286.872V204.04H292.881V197.806H298.407V215.622H292.881V208.422H286.872V215.622H281.373V197.806ZM317.967 215.622H311.827L309.687 211.03C309.394 210.292 308.992 209.602 308.494 208.984C308.336 208.842 308.152 208.734 307.951 208.665C307.751 208.595 307.539 208.566 307.327 208.58V215.605H301.836V197.814H307.327V204.664C307.538 204.663 307.747 204.617 307.939 204.529C308.131 204.441 308.302 204.313 308.441 204.154C308.969 203.299 309.391 202.382 309.696 201.423C309.974 200.563 310.395 199.755 310.941 199.035C311.501 198.484 312.218 198.122 312.994 197.999C314.465 197.746 315.957 197.64 317.45 197.683V201.45H317.169C316.433 201.397 315.701 201.585 315.081 201.985C314.555 202.457 314.17 203.065 313.967 203.742C313.755 204.375 313.438 204.969 313.029 205.498C312.652 205.917 312.179 206.239 311.652 206.437C312.444 206.702 313.157 207.164 313.722 207.781C314.486 208.677 315.12 209.676 315.608 210.749L317.967 215.622ZM318.441 197.806H335.159V202.196H329.545V215.622H324.107V202.214H318.502L318.441 197.806ZM344.702 209.133L340.843 214.762H337.045L340.404 209.142L337.045 203.522H340.843L344.702 209.133ZM351 209.133L347.132 214.753H343.404L346.763 209.124L343.404 203.531H347.193L351 209.133Z" fill="#800000"/>
<path d="M156.06 227.189H157.446L155.691 235.408L163.016 227.189H164.358L162.068 237.885H160.7L162.454 229.727L155.156 237.885H153.762L156.06 227.189ZM166.375 232.063L165.173 231.975C165.379 231.359 165.781 230.828 166.319 230.464C166.857 230.101 167.499 229.925 168.147 229.964C168.899 229.911 169.646 230.129 170.252 230.579C170.478 230.76 170.66 230.99 170.784 231.252C170.909 231.513 170.973 231.799 170.971 232.089C170.982 232.487 170.851 232.876 170.603 233.187C170.375 233.49 170.073 233.729 169.726 233.881C169.158 234.114 168.571 234.296 167.971 234.425C167.314 234.549 166.678 234.771 166.085 235.084C165.937 235.175 165.816 235.305 165.734 235.46C165.652 235.614 165.613 235.787 165.621 235.962C165.616 236.144 165.664 236.324 165.759 236.48C165.854 236.635 165.992 236.76 166.156 236.84C166.547 237.058 166.989 237.167 167.436 237.156C167.947 237.179 168.448 237.017 168.848 236.699C169.197 236.37 169.459 235.96 169.612 235.505L170.726 235.593C170.568 236.345 170.141 237.013 169.526 237.473C168.91 237.932 168.149 238.15 167.384 238.087C166.573 238.149 165.765 237.932 165.094 237.472C164.861 237.299 164.671 237.074 164.54 236.815C164.409 236.556 164.341 236.27 164.34 235.979C164.338 235.568 164.464 235.166 164.7 234.829C164.921 234.493 165.222 234.219 165.577 234.03C166.141 233.787 166.729 233.602 167.331 233.477C168.023 233.382 168.687 233.139 169.278 232.765C169.472 232.585 169.588 232.336 169.603 232.072C169.598 231.93 169.561 231.791 169.494 231.666C169.427 231.542 169.332 231.434 169.217 231.352C168.876 231.123 168.468 231.015 168.059 231.044C167.687 231.017 167.315 231.099 166.989 231.281C166.732 231.496 166.523 231.763 166.375 232.063ZM171.006 240.844L173.243 230.131H174.453L174.234 231.211C174.581 230.819 174.99 230.486 175.445 230.228C175.794 230.047 176.183 229.954 176.576 229.955C176.922 229.948 177.265 230.016 177.582 230.156C177.899 230.295 178.181 230.503 178.409 230.763C178.935 231.413 179.196 232.238 179.137 233.073C179.147 233.826 179.013 234.574 178.743 235.277C178.516 235.866 178.183 236.407 177.76 236.875C177.421 237.236 177.02 237.533 176.576 237.753C176.197 237.942 175.78 238.041 175.357 238.043C174.899 238.041 174.452 237.907 174.069 237.656C173.686 237.405 173.384 237.048 173.199 236.629L172.322 240.835L171.006 240.844ZM173.638 234.697C173.618 235.102 173.66 235.508 173.76 235.9C173.878 236.211 174.086 236.48 174.357 236.673C174.64 236.868 174.978 236.969 175.322 236.963C175.718 236.946 176.1 236.817 176.425 236.589C176.75 236.362 177.003 236.047 177.155 235.681C177.61 234.877 177.852 233.97 177.857 233.046C177.891 232.499 177.722 231.958 177.383 231.527C177.24 231.357 177.062 231.221 176.86 231.128C176.658 231.036 176.438 230.989 176.216 230.992C175.886 230.988 175.563 231.083 175.287 231.264C174.969 231.469 174.697 231.738 174.488 232.054C174.222 232.452 174.015 232.887 173.874 233.345C173.719 233.786 173.63 234.248 173.611 234.715L173.638 234.697ZM185.26 236.453C184.927 236.907 184.5 237.284 184.007 237.557C183.515 237.829 182.97 237.992 182.409 238.034C181.878 238.056 181.358 237.871 180.962 237.516C180.785 237.359 180.644 237.165 180.549 236.948C180.454 236.732 180.406 236.497 180.409 236.26C180.445 235.695 180.53 235.134 180.664 234.583L181.593 230.113H182.883L181.848 235.066C181.773 235.38 181.729 235.701 181.716 236.023C181.709 236.15 181.73 236.277 181.777 236.396C181.824 236.514 181.896 236.62 181.988 236.708C182.207 236.888 182.486 236.976 182.769 236.954C183.145 236.953 183.516 236.86 183.848 236.682C184.186 236.501 184.485 236.253 184.725 235.953C184.992 235.627 185.202 235.259 185.347 234.864C185.506 234.406 185.629 233.936 185.716 233.459L186.418 230.113H187.733L186.119 237.858H184.9L185.26 236.453ZM189.891 230.113H191.189L190.496 233.345H194.084L194.768 230.113H196.04L194.408 237.858H193.101L193.838 234.39H190.268L189.523 237.858H188.216L189.891 230.113ZM201.82 235.031L203.136 235.171C202.89 236.014 202.402 236.765 201.732 237.332C201.137 237.792 200.405 238.039 199.654 238.034C199.275 238.05 198.897 237.985 198.545 237.844C198.192 237.703 197.874 237.49 197.61 237.217C197.335 236.907 197.123 236.546 196.988 236.155C196.852 235.763 196.796 235.348 196.82 234.934C196.826 234.078 196.999 233.231 197.329 232.44C197.612 231.69 198.113 231.041 198.768 230.579C199.394 230.149 200.139 229.925 200.899 229.938C201.627 229.901 202.339 230.154 202.881 230.64C203.125 230.883 203.315 231.174 203.441 231.495C203.566 231.815 203.623 232.158 203.609 232.502L202.311 232.59C202.319 232.379 202.286 232.169 202.212 231.971C202.138 231.774 202.026 231.593 201.881 231.439C201.734 231.301 201.56 231.193 201.37 231.122C201.181 231.051 200.979 231.019 200.776 231.027C200.271 231.019 199.781 231.197 199.399 231.527C198.974 231.948 198.671 232.476 198.522 233.055C198.309 233.692 198.197 234.359 198.189 235.031C198.151 235.562 198.307 236.09 198.627 236.515C198.758 236.674 198.923 236.802 199.11 236.889C199.296 236.975 199.5 237.019 199.706 237.015C200.161 237.003 200.596 236.829 200.934 236.524C201.349 236.123 201.647 235.616 201.794 235.057L201.82 235.031ZM205.601 230.113H206.89L206.153 233.424H206.39C206.706 233.434 207.016 233.335 207.267 233.143C207.652 232.749 207.98 232.303 208.241 231.817C208.526 231.289 208.904 230.816 209.355 230.421C209.722 230.193 210.151 230.082 210.583 230.105H211.197L210.951 231.158H210.644C210.411 231.138 210.177 231.184 209.969 231.29C209.744 231.513 209.557 231.771 209.416 232.054C209.176 232.499 208.882 232.912 208.539 233.283C208.27 233.544 207.946 233.742 207.592 233.863C207.894 233.974 208.163 234.162 208.372 234.407C208.618 234.738 208.81 235.106 208.942 235.496L209.82 237.85H208.46L207.732 235.909C207.581 235.396 207.321 234.923 206.969 234.522C206.679 234.298 206.317 234.189 205.951 234.214L205.162 237.85H203.864L205.601 230.113ZM216.214 236.48C215.881 236.934 215.454 237.31 214.962 237.583C214.47 237.856 213.924 238.019 213.363 238.06C212.832 238.083 212.313 237.897 211.916 237.542C211.74 237.384 211.601 237.191 211.507 236.974C211.413 236.757 211.367 236.523 211.372 236.287C211.403 235.721 211.485 235.16 211.618 234.609L212.547 230.14H213.863L212.837 235.092C212.762 235.406 212.718 235.727 212.705 236.049C212.697 236.176 212.717 236.303 212.762 236.421C212.807 236.539 212.878 236.646 212.968 236.734C213.187 236.914 213.467 237.002 213.749 236.98C214.128 236.979 214.501 236.885 214.837 236.708C215.176 236.528 215.475 236.28 215.714 235.979C215.981 235.654 216.192 235.286 216.337 234.89C216.503 234.434 216.63 233.964 216.714 233.485L217.407 230.14H218.731L217.109 237.885H215.951L216.214 236.48ZM224.512 236.48C224.179 236.934 223.751 237.31 223.259 237.583C222.767 237.856 222.222 238.019 221.661 238.06C221.13 238.083 220.61 237.897 220.214 237.542C220.038 237.384 219.899 237.191 219.805 236.974C219.711 236.757 219.665 236.523 219.67 236.287C219.701 235.721 219.783 235.16 219.915 234.609L220.845 230.14H222.161L221.126 235.092C221.057 235.407 221.016 235.727 221.003 236.049C220.995 236.176 221.014 236.303 221.06 236.421C221.105 236.539 221.176 236.646 221.266 236.734C221.485 236.914 221.765 237.002 222.047 236.98C222.423 236.98 222.794 236.886 223.126 236.708C223.466 236.53 223.765 236.281 224.003 235.979C224.27 235.654 224.48 235.286 224.626 234.89C224.784 234.431 224.91 233.962 225.003 233.485L225.696 230.14H227.02L225.398 237.885H224.187L224.512 236.48ZM222.117 227.11H222.994C223.018 227.405 223.146 227.682 223.354 227.892C223.576 228.065 223.853 228.152 224.134 228.138C224.448 228.138 224.753 228.043 225.012 227.866C225.276 227.675 225.479 227.413 225.599 227.11H226.476C226.339 227.655 226.032 228.141 225.599 228.498C225.171 228.837 224.637 229.017 224.091 229.007C223.839 229.018 223.587 228.979 223.351 228.891C223.114 228.804 222.898 228.67 222.713 228.498C222.354 228.125 222.15 227.629 222.143 227.11H222.117ZM231.02 240.853L233.257 230.14H234.476L234.248 231.22C234.598 230.831 235.006 230.5 235.458 230.236C235.811 230.055 236.202 229.961 236.599 229.964C236.944 229.958 237.287 230.027 237.604 230.166C237.92 230.306 238.203 230.512 238.432 230.772C238.954 231.424 239.214 232.248 239.16 233.081C239.171 233.836 239.034 234.584 238.756 235.286C238.534 235.876 238.2 236.419 237.774 236.884C237.439 237.246 237.041 237.544 236.599 237.762C236.217 237.951 235.797 238.05 235.371 238.052C234.913 238.05 234.466 237.915 234.083 237.664C233.7 237.414 233.398 237.057 233.213 236.638L232.336 240.844L231.02 240.853ZM233.651 234.706C233.627 235.111 233.669 235.517 233.774 235.909C233.891 236.226 234.103 236.498 234.381 236.688C234.659 236.879 234.99 236.978 235.327 236.971C235.724 236.955 236.108 236.826 236.434 236.599C236.761 236.372 237.015 236.057 237.169 235.689C237.621 234.885 237.86 233.978 237.862 233.055C237.898 232.509 237.733 231.968 237.397 231.536C237.254 231.366 237.075 231.23 236.873 231.138C236.672 231.045 236.452 230.998 236.23 231C235.897 230.997 235.571 231.092 235.292 231.273C234.975 231.48 234.704 231.749 234.493 232.063C233.971 232.847 233.668 233.756 233.616 234.697L233.651 234.706ZM245.203 236.91C244.809 237.269 244.363 237.565 243.879 237.788C243.451 237.967 242.992 238.06 242.528 238.06C242.208 238.078 241.888 238.031 241.587 237.922C241.286 237.814 241.009 237.646 240.774 237.428C240.557 237.22 240.386 236.969 240.272 236.691C240.159 236.412 240.106 236.113 240.116 235.812C240.11 235.421 240.207 235.036 240.396 234.694C240.585 234.352 240.861 234.065 241.195 233.863C241.562 233.645 241.967 233.496 242.388 233.424C242.949 233.349 243.514 233.305 244.081 233.292C244.675 233.29 245.266 233.201 245.835 233.029C245.92 232.743 245.97 232.448 245.984 232.151C245.99 232.011 245.963 231.873 245.905 231.746C245.847 231.619 245.76 231.508 245.651 231.422C245.255 231.158 244.783 231.031 244.309 231.062C243.828 231.041 243.353 231.17 242.949 231.431C242.59 231.689 242.323 232.055 242.186 232.476L240.853 232.361C241.082 231.652 241.534 231.036 242.142 230.605C242.806 230.172 243.587 229.958 244.379 229.991C245.193 229.948 245.996 230.19 246.651 230.675C246.854 230.831 247.017 231.032 247.128 231.262C247.24 231.492 247.295 231.746 247.291 232.001C247.282 232.487 247.22 232.97 247.107 233.441L246.677 235.365C246.56 235.854 246.493 236.354 246.475 236.857C246.491 237.213 246.544 237.566 246.633 237.911H245.3C245.237 237.584 245.207 237.252 245.212 236.919L245.203 236.91ZM245.686 233.951C245.496 234.026 245.299 234.082 245.098 234.118C244.888 234.162 244.528 234.197 244.037 234.241C243.488 234.273 242.944 234.361 242.414 234.504C242.127 234.59 241.875 234.765 241.695 235.005C241.538 235.225 241.455 235.489 241.458 235.76C241.457 235.924 241.49 236.087 241.555 236.238C241.62 236.389 241.715 236.525 241.835 236.638C242.141 236.894 242.534 237.022 242.932 236.998C243.382 236.986 243.821 236.859 244.208 236.628C244.595 236.397 244.917 236.071 245.142 235.681C245.419 235.141 245.606 234.56 245.694 233.96L245.686 233.951ZM253.58 236.471C253.247 236.925 252.82 237.301 252.328 237.574C251.836 237.847 251.29 238.01 250.729 238.052C250.2 238.075 249.683 237.889 249.291 237.533C249.114 237.376 248.973 237.183 248.878 236.966C248.783 236.749 248.735 236.515 248.738 236.278C248.769 235.712 248.852 235.151 248.984 234.601L249.914 230.131H251.238L250.203 235.084C250.128 235.398 250.084 235.718 250.071 236.041C250.063 236.167 250.083 236.294 250.128 236.412C250.173 236.53 250.244 236.637 250.335 236.726C250.553 236.905 250.833 236.993 251.115 236.971C251.486 236.967 251.849 236.873 252.177 236.699C252.516 236.52 252.815 236.271 253.054 235.97C253.324 235.647 253.535 235.279 253.676 234.882C253.843 234.425 253.969 233.955 254.054 233.477L254.755 230.131H256.071L254.457 237.876H253.238L253.58 236.471ZM251.194 227.102H252.071C252.093 227.395 252.217 227.672 252.422 227.883C252.645 228.056 252.922 228.143 253.203 228.129C253.516 228.127 253.821 228.032 254.08 227.857C254.341 227.666 254.542 227.404 254.659 227.102H255.536C255.399 227.646 255.091 228.132 254.659 228.489C254.227 228.829 253.691 229.008 253.141 228.998C252.89 229.008 252.638 228.969 252.402 228.881C252.166 228.794 251.949 228.66 251.764 228.489C251.4 228.122 251.192 227.628 251.185 227.11L251.194 227.102ZM256.825 234.934C256.777 233.56 257.254 232.219 258.159 231.185C258.521 230.781 258.967 230.462 259.465 230.25C259.964 230.037 260.503 229.937 261.044 229.955C261.461 229.936 261.876 230.004 262.264 230.155C262.653 230.307 263.005 230.538 263.299 230.834C263.596 231.148 263.827 231.519 263.977 231.925C264.128 232.331 264.196 232.763 264.176 233.196C264.181 234.051 263.996 234.897 263.632 235.672C263.31 236.397 262.778 237.008 262.106 237.428C261.479 237.827 260.752 238.04 260.009 238.043C259.439 238.049 258.876 237.917 258.369 237.656C257.89 237.413 257.496 237.03 257.238 236.559C256.959 236.066 256.814 235.509 256.817 234.943L256.825 234.934ZM258.15 234.803C258.107 235.403 258.295 235.997 258.676 236.462C258.845 236.647 259.051 236.793 259.281 236.892C259.511 236.99 259.759 237.038 260.009 237.033C260.311 237.036 260.609 236.976 260.886 236.857C261.175 236.736 261.437 236.56 261.658 236.339C261.896 236.102 262.1 235.833 262.264 235.54C262.435 235.234 262.573 234.91 262.676 234.574C262.818 234.125 262.892 233.658 262.895 233.187C262.932 232.595 262.744 232.012 262.369 231.554C262.201 231.367 261.995 231.219 261.765 231.119C261.535 231.019 261.286 230.97 261.036 230.974C260.641 230.968 260.252 231.071 259.913 231.273C259.561 231.499 259.262 231.799 259.036 232.151C258.747 232.548 258.542 232.999 258.431 233.477C258.277 233.907 258.18 234.356 258.141 234.811L258.15 234.803ZM266.509 230.131H267.816L267.114 233.362H270.702L271.395 230.131H272.684L271.044 237.876H269.719L270.465 234.407H266.886L266.141 237.876H264.842L266.509 230.131ZM175.866 246.077L176.111 244.936H177.067C177.564 244.897 178.063 244.961 178.534 245.124C179.005 245.288 179.437 245.546 179.804 245.884C180.468 246.74 180.782 247.817 180.681 248.896C180.772 250.696 180.391 252.488 179.576 254.095C179.273 254.676 178.813 255.162 178.249 255.495C177.685 255.829 177.038 255.998 176.383 255.983C175.558 256.008 174.754 255.716 174.138 255.166C173.828 254.849 173.589 254.47 173.438 254.053C173.287 253.637 173.226 253.193 173.26 252.751C173.226 251.488 173.664 250.257 174.488 249.3C174.84 248.86 175.285 248.504 175.792 248.259C176.3 248.014 176.855 247.887 177.418 247.886C177.865 247.875 178.306 247.991 178.69 248.22C179.075 248.46 179.38 248.808 179.567 249.221C179.578 248.719 179.546 248.216 179.471 247.72C179.398 247.395 179.248 247.094 179.032 246.841C178.806 246.563 178.5 246.361 178.155 246.262C177.684 246.129 177.196 246.07 176.708 246.086L175.866 246.077ZM174.594 252.813C174.567 253.361 174.738 253.9 175.076 254.332C175.244 254.528 175.455 254.683 175.692 254.785C175.929 254.887 176.187 254.933 176.444 254.92C176.865 254.918 177.278 254.802 177.639 254.586C178 254.37 178.296 254.061 178.497 253.691C178.997 252.903 179.265 251.99 179.269 251.056C179.286 250.512 179.116 249.979 178.786 249.546C178.626 249.347 178.421 249.188 178.188 249.083C177.954 248.978 177.7 248.929 177.444 248.94C177.021 248.936 176.604 249.046 176.238 249.26C175.873 249.473 175.571 249.781 175.366 250.152C174.85 250.943 174.579 251.868 174.585 252.813H174.594ZM181.611 255.807L181.927 254.314H183.418L183.102 255.807H181.611ZM191.952 245.112H198.847L198.583 246.332H193.101L192.4 249.669H194.566C195.328 249.632 196.091 249.712 196.829 249.906C197.283 250.074 197.673 250.382 197.943 250.784C198.252 251.219 198.409 251.744 198.39 252.277C198.378 252.962 198.169 253.628 197.788 254.197C197.407 254.765 196.87 255.212 196.241 255.482C195.3 255.776 194.314 255.901 193.329 255.851H189.68L191.952 245.112ZM191.356 254.595H192.61C193.513 254.63 194.417 254.556 195.303 254.376C195.772 254.264 196.19 253.998 196.49 253.621C196.791 253.244 196.956 252.777 196.961 252.294C196.978 251.977 196.878 251.665 196.68 251.416C196.488 251.177 196.218 251.012 195.917 250.951C195.407 250.862 194.89 250.824 194.373 250.837H192.136L191.356 254.595ZM204.46 254.841C204.068 255.198 203.625 255.494 203.145 255.719C202.717 255.898 202.258 255.991 201.794 255.991C201.474 256.01 201.154 255.963 200.852 255.855C200.551 255.746 200.274 255.577 200.039 255.359C199.822 255.151 199.651 254.9 199.538 254.622C199.425 254.343 199.371 254.044 199.382 253.743C199.373 253.34 199.476 252.941 199.68 252.593C199.87 252.266 200.138 251.991 200.46 251.794C200.828 251.576 201.232 251.427 201.653 251.355C202.212 251.28 202.774 251.236 203.338 251.223C203.932 251.221 204.523 251.132 205.092 250.96C205.177 250.674 205.227 250.379 205.241 250.082C205.247 249.942 205.22 249.804 205.162 249.677C205.104 249.55 205.017 249.439 204.908 249.353C204.512 249.089 204.04 248.962 203.566 248.993C203.085 248.972 202.61 249.101 202.206 249.362C201.847 249.622 201.577 249.987 201.434 250.407L200.11 250.292C200.336 249.581 200.789 248.964 201.399 248.536C202.06 248.104 202.839 247.889 203.627 247.922C204.444 247.877 205.25 248.119 205.908 248.606C206.111 248.762 206.274 248.963 206.385 249.193C206.497 249.423 206.552 249.677 206.548 249.932C206.539 250.418 206.477 250.901 206.364 251.372L205.934 253.296C205.813 253.784 205.745 254.285 205.732 254.788C205.748 255.144 205.801 255.497 205.89 255.842H204.557C204.503 255.511 204.48 255.176 204.487 254.841H204.46ZM204.951 251.882C204.759 251.957 204.559 252.013 204.355 252.049C204.144 252.093 203.794 252.128 203.302 252.172C202.751 252.204 202.204 252.292 201.671 252.435C201.386 252.519 201.136 252.695 200.96 252.936C200.804 253.156 200.721 253.42 200.724 253.691C200.723 253.855 200.756 254.018 200.821 254.169C200.886 254.32 200.981 254.456 201.101 254.569C201.404 254.823 201.793 254.952 202.188 254.929C202.64 254.918 203.082 254.792 203.47 254.561C203.859 254.33 204.182 254.003 204.408 253.612C204.688 253.069 204.881 252.485 204.978 251.882H204.951ZM207.714 248.062H209.013L208.732 249.362C208.591 249.938 208.502 250.526 208.469 251.118C208.463 251.268 208.495 251.416 208.562 251.55C208.63 251.684 208.731 251.798 208.855 251.882C209.207 252.079 209.609 252.171 210.013 252.145C210.614 252.153 211.21 252.04 211.767 251.812L212.556 248.088H213.872L212.223 255.833H210.951L211.583 252.865C210.993 253.072 210.374 253.182 209.749 253.19C209.092 253.228 208.44 253.052 207.89 252.69C207.669 252.525 207.492 252.308 207.374 252.058C207.256 251.809 207.201 251.534 207.214 251.258C207.283 250.534 207.401 249.815 207.565 249.107L207.714 248.062ZM215.933 248.062H217.223L216.486 251.372H216.714C217.03 251.382 217.339 251.283 217.591 251.091C217.974 250.696 218.302 250.25 218.565 249.766C218.864 249.237 219.256 248.767 219.722 248.378C220.087 248.15 220.512 248.04 220.942 248.062H221.556L221.319 249.116H221.003C220.77 249.095 220.536 249.141 220.328 249.247C220.104 249.469 219.92 249.727 219.784 250.011C219.541 250.455 219.247 250.867 218.907 251.241C218.633 251.5 218.307 251.698 217.951 251.82C218.255 251.929 218.524 252.117 218.731 252.365C218.98 252.694 219.173 253.062 219.301 253.454L220.179 255.807H218.845L218.117 253.866C217.965 253.356 217.708 252.884 217.363 252.479C217.068 252.257 216.704 252.148 216.337 252.172L215.556 255.807H214.249L215.933 248.062ZM226.994 253.173L228.275 253.304C228.037 254.021 227.595 254.653 227.003 255.122C226.35 255.699 225.505 256.012 224.634 256C224.083 256.005 223.54 255.869 223.056 255.605C222.582 255.34 222.203 254.935 221.968 254.446C221.704 253.899 221.574 253.297 221.591 252.69C221.591 251.835 221.793 250.993 222.178 250.231C222.506 249.512 223.033 248.903 223.696 248.475C224.299 248.093 224.999 247.892 225.713 247.895C226.123 247.879 226.531 247.949 226.911 248.1C227.292 248.252 227.637 248.481 227.924 248.773C228.209 249.09 228.429 249.46 228.571 249.863C228.712 250.265 228.773 250.692 228.748 251.118C228.746 251.509 228.714 251.9 228.652 252.286H222.95C222.942 252.423 222.942 252.561 222.95 252.698C222.911 253.294 223.089 253.884 223.45 254.358C223.599 254.538 223.785 254.682 223.996 254.781C224.207 254.88 224.437 254.93 224.669 254.929C225.149 254.919 225.614 254.762 226.003 254.481C226.462 254.154 226.816 253.699 227.02 253.173H226.994ZM223.231 251.258H227.617C227.617 251.118 227.617 251.021 227.617 250.96C227.652 250.409 227.476 249.866 227.125 249.441C226.961 249.267 226.762 249.131 226.541 249.04C226.321 248.949 226.083 248.906 225.845 248.914C225.28 248.914 224.734 249.12 224.31 249.493C223.781 249.96 223.405 250.575 223.231 251.258ZM235.362 253.173L236.642 253.304C236.405 254.021 235.963 254.653 235.371 255.122C234.717 255.699 233.873 256.012 233.002 256C232.451 256.005 231.908 255.869 231.423 255.605C230.951 255.336 230.569 254.933 230.327 254.446C230.07 253.897 229.944 253.296 229.959 252.69C229.959 251.835 230.16 250.993 230.546 250.231C230.874 249.512 231.4 248.903 232.064 248.475C232.667 248.093 233.367 247.892 234.081 247.895C234.49 247.879 234.898 247.949 235.279 248.1C235.66 248.252 236.005 248.481 236.292 248.773C236.577 249.09 236.797 249.46 236.939 249.863C237.08 250.265 237.141 250.692 237.116 251.118C237.114 251.509 237.082 251.9 237.02 252.286H231.318C231.31 252.423 231.31 252.561 231.318 252.698C231.279 253.294 231.456 253.884 231.818 254.358C231.966 254.539 232.152 254.684 232.363 254.783C232.574 254.881 232.804 254.931 233.037 254.929C233.517 254.919 233.982 254.762 234.371 254.481C234.804 254.144 235.133 253.69 235.318 253.173H235.362ZM231.529 251.258H235.914C235.914 251.118 235.914 251.021 235.914 250.96C235.952 250.408 235.772 249.863 235.414 249.441C235.252 249.267 235.055 249.13 234.836 249.039C234.616 248.948 234.38 248.905 234.143 248.914C233.575 248.916 233.027 249.121 232.599 249.493C232.062 249.959 231.674 250.573 231.485 251.258H231.529ZM243.133 251.75C243.557 251.878 243.937 252.121 244.23 252.453C244.477 252.76 244.608 253.146 244.598 253.541C244.588 253.859 244.512 254.171 244.376 254.458C244.241 254.745 244.047 255.001 243.809 255.21C243.169 255.764 242.337 256.042 241.493 255.983C240.865 256.011 240.24 255.878 239.677 255.596C239.227 255.331 238.857 254.949 238.607 254.49C238.341 254 238.206 253.449 238.212 252.892C238.187 251.619 238.606 250.376 239.397 249.379C239.779 248.901 240.267 248.52 240.823 248.265C241.379 248.01 241.987 247.89 242.598 247.913C243.261 247.865 243.917 248.065 244.44 248.475C244.639 248.641 244.799 248.849 244.908 249.084C245.018 249.32 245.073 249.576 245.072 249.836C245.079 250.061 245.04 250.286 244.957 250.496C244.874 250.706 244.749 250.897 244.589 251.056C244.163 251.422 243.644 251.663 243.089 251.75H243.133ZM239.625 252.233C239.59 252.439 239.572 252.648 239.572 252.856C239.552 253.406 239.74 253.942 240.098 254.358C240.291 254.561 240.526 254.719 240.787 254.821C241.048 254.923 241.328 254.965 241.607 254.946C242.05 254.971 242.485 254.827 242.826 254.542C242.972 254.422 243.088 254.27 243.167 254.098C243.246 253.926 243.285 253.739 243.282 253.55C243.305 253.329 243.256 253.106 243.142 252.914C243.028 252.723 242.856 252.573 242.651 252.488C241.897 252.268 241.111 252.179 240.326 252.224L239.625 252.233ZM239.835 251.206C240.195 251.206 240.502 251.206 240.756 251.206C241.519 251.243 242.282 251.129 243.002 250.872C243.213 250.806 243.398 250.676 243.532 250.5C243.665 250.323 243.741 250.11 243.747 249.888C243.753 249.751 243.727 249.615 243.67 249.49C243.614 249.365 243.529 249.255 243.423 249.168C243.177 248.965 242.863 248.865 242.546 248.887C241.934 248.888 241.341 249.103 240.87 249.493C240.328 249.931 239.94 250.531 239.765 251.206H239.835ZM245.694 252.865C245.647 251.489 246.124 250.145 247.028 249.107C247.39 248.704 247.836 248.386 248.335 248.175C248.834 247.964 249.373 247.866 249.914 247.886C250.33 247.868 250.745 247.937 251.133 248.088C251.521 248.239 251.873 248.47 252.168 248.765C252.465 249.079 252.696 249.45 252.847 249.856C252.997 250.262 253.065 250.694 253.045 251.127C253.053 251.982 252.87 252.828 252.51 253.603C252.187 254.33 251.652 254.943 250.975 255.359C250.349 255.76 249.622 255.974 248.878 255.974C248.309 255.98 247.746 255.848 247.238 255.587C246.761 255.341 246.368 254.959 246.107 254.49C245.81 253.998 245.644 253.439 245.624 252.865H245.694ZM247.01 252.734C246.967 253.334 247.156 253.928 247.536 254.393C247.705 254.578 247.911 254.724 248.141 254.823C248.371 254.921 248.62 254.969 248.87 254.964C249.171 254.965 249.469 254.906 249.747 254.788C250 254.652 250.229 254.474 250.422 254.261C250.66 254.025 250.864 253.756 251.027 253.462C251.196 253.156 251.331 252.832 251.431 252.496C251.576 252.048 251.653 251.58 251.659 251.109C251.696 250.518 251.508 249.934 251.133 249.476C250.965 249.289 250.759 249.141 250.529 249.041C250.299 248.941 250.05 248.892 249.799 248.896C249.402 248.891 249.011 248.994 248.668 249.195C248.304 249.421 247.991 249.72 247.747 250.073C247.466 250.474 247.26 250.923 247.142 251.399C247.013 251.833 246.937 252.281 246.914 252.734H247.01Z" fill="black"/>
<path d="M114.244 147.357H128.708L134.287 169.082L139.821 147.392H154.285V183.035H145.277V155.822L138.33 183H130.182L123.235 155.822V183H114.244V147.357ZM160.461 147.357H172.407L177.319 162.048L182.187 147.357H193.406L181.696 174.877C180.996 176.598 180.16 178.26 179.196 179.847C178.403 181.016 177.309 181.947 176.03 182.543C174.215 183.334 172.244 183.698 170.267 183.606C168.034 183.533 165.806 183.346 163.592 183.044V175.676C165.451 175.878 166.811 175.975 167.671 175.975C170.208 175.975 171.752 175.026 172.302 173.13L160.461 147.357ZM222 163.62C226.275 164.791 228.409 167.481 228.404 171.69C228.442 173.332 228.099 174.961 227.402 176.448C226.705 177.935 225.673 179.24 224.386 180.26C221.714 182.49 217.931 183.606 213.036 183.606C204.686 183.606 199.499 180.093 197.476 173.068L207.87 172.296C208.455 174.772 210.112 176.01 212.843 176.01C214.101 176.102 215.343 175.692 216.299 174.868C216.707 174.449 217.023 173.948 217.227 173.4C217.43 172.851 217.518 172.265 217.483 171.681C217.497 171.07 217.371 170.464 217.114 169.91C216.857 169.356 216.476 168.868 216.001 168.485C214.835 167.614 213.401 167.182 211.948 167.264H208.957V160.889H211.317C212.52 160.959 213.704 160.563 214.624 159.782C215.034 159.388 215.354 158.908 215.561 158.378C215.769 157.847 215.859 157.278 215.825 156.709C215.825 154.789 214.621 153.826 212.212 153.82C209.802 153.814 208.355 154.924 207.87 157.148L198.028 156.007C199.631 149.831 204.423 146.743 212.405 146.743C216.825 146.743 220.29 147.603 222.799 149.324C223.971 150.054 224.935 151.076 225.594 152.291C226.254 153.505 226.587 154.87 226.562 156.252C226.562 159.753 225.041 162.209 222 163.62ZM236.385 147.357H265.857V154.97H247.437V160.634H264.55V167.905H247.385V174.93H266.366V183H236.385V147.357ZM308.872 147.357V183H298.504V163.427L285.181 183H274.804V147.357H285.172V167.08L298.557 147.357H308.872ZM300.811 138.576C300.515 140.547 299.456 142.323 297.864 143.52C296.176 144.75 294.141 145.412 292.053 145.412C289.965 145.412 287.93 144.75 286.242 143.52C284.651 142.327 283.594 140.554 283.304 138.585H287.531C287.798 139.521 288.381 140.336 289.181 140.89C289.981 141.444 290.948 141.703 291.917 141.623C294.338 141.623 295.89 140.613 296.548 138.585L300.811 138.576Z" fill="url(#paint0_linear)"/>
<path d="M206.829 114.367H190.672V100.677H206.829V114.367ZM226.688 100.677H210.522V114.367H226.688V100.677ZM206.829 83.361H190.672V97.0771H206.829V83.361ZM226.688 83.361H210.522V97.0771H226.688V83.361ZM206.829 117.994H190.672V131.683H206.829V117.994ZM226.688 117.994H210.522V131.683H226.688V117.994ZM97.959 144.144L106.511 137.997V113.41L97.959 119.557V144.144ZM322.506 144.354L313.928 138.348V113.761L322.48 119.75L322.506 144.354ZM296.683 101.696L305.376 107.79V132.377L296.683 126.283V101.696ZM123.764 125.598L115.063 131.85V107.263L123.764 101.011V125.598ZM89.4069 150.299L81.0039 156.341V131.754L89.4069 125.712V150.299ZM339.584 131.754V156.341L331.032 150.352V125.765L339.584 131.754ZM288.14 120.294L208.61 64.587L132.299 119.443V94.8555L208.61 40L288.14 95.7072V120.294Z" fill="black"/>
<path d="M227.855 90.8522V89.5702H219.242V81.9219H217.97V89.5702H199.392V81.9219H198.112V89.5702H189.498V90.8522H198.112V106.887H189.498V108.16H198.112V124.194H189.498V125.476H198.112V133.124H199.392V125.476H217.97V133.124H219.242V125.476H227.855V124.194H219.242V108.16H227.855V106.887H219.242V90.8522H227.855ZM217.97 124.194H199.392V108.16H217.97V124.194ZM217.97 106.887H199.392V90.8522H217.97V106.887Z" fill="#C15634"/>
</g>
<defs>
<linearGradient id="paint0_linear" x1="211.545" y1="187.285" x2="211.545" y2="148.35" gradientUnits="userSpaceOnUse">
<stop offset="0.364641" stop-color="#800000"/>
<stop offset="0.972376"/>
</linearGradient>
</defs>
</svg>
