<svg fill="none" height="16" viewBox="0 0 12 16" width="12" xmlns="http://www.w3.org/2000/svg"><path d="m3.1774 15.979c.18753.0831.38534-.0969.27053-.2458-.62318-.8083-1.2133-2.1685-.2731-3.9203 1.5679-2.92123 2.52197-4.43422 2.52197-4.43422s.50746 1.76565 1.88307 3.33552c1.32394 1.511 2.04861 3.4112.88035 4.9943-.10964.1485.08369.3238.26999.2444 1.44609-.6165 3.06809-1.8532 3.25109-4.3142.0675-.752-.0337-1.8048-.5397-3.13335-.6506-1.68382-1.45049-2.46952-1.91329-2.80693-.13843-.10094-.35372-.01148-.34236.14152.13485 1.81683-.68527 2.27788-1.15207 1.23885-.18643-.41501-.29516-1.13281-.29516-2.00696 0-1.45529-.50661-2.95338-1.62352-4.170741-.29045-.316576-.6303-.612393-1.02022-.8646539-.14116-.0913464-.34579.0004706-.33286.1490199.08576.986565.00806 3.813985-2.96829 7.191865-2.698676 3.13338-1.652948 5.53978-1.28188 6.19158.70945 1.2486 1.69903 1.9818 2.66545 2.4101z" fill="#f1e9dd"/></svg>