<svg width="18" height="18" viewBox="0 0 18 18" fill="none" xmlns="http://www.w3.org/2000/svg">
<path d="M7.58414 0L6.32812 2.51202V6.32812H9.49219V0H7.58414Z" fill="#F1E9DD"/>
<path d="M0 4.21875H2.10938V5.27344H0V4.21875Z" fill="#F1E9DD"/>
<path d="M2.87265 7.32733L0.763412 8.38202L0.291687 7.43857L2.40092 6.38402L2.87265 7.32733Z" fill="#F1E9DD"/>
<path d="M5.27344 2.26332L5.35048 2.10938H3.16406V4.21875H5.27344V2.26332Z" fill="#F1E9DD"/>
<path d="M10.5469 2.10938H18V4.21875H10.5469V2.10938Z" fill="#F1E9DD"/>
<path d="M2.63672 12.6914H3.16406V9.49219H0V10.0195C0 11.4758 1.18048 12.6914 2.63672 12.6914Z" fill="#F1E9DD"/>
<path d="M2.10938 18H16.9453V16.9453H15.5816L14.3869 15.7505C14.1301 15.4937 13.9585 15.1777 13.8674 14.8359H4.47569C4.72604 15.2106 4.70366 15.7147 4.37325 16.0451L3.47305 16.9453H2.10938V18Z" fill="#F1E9DD"/>
<path d="M4.21875 13.7812H13.8674C14.053 13.0857 14.4767 12.7679 14.6264 12.5843C14.8325 12.3668 14.7498 12.2304 18 11.4791V8.4375H4.21875V13.7812Z" fill="#F1E9DD"/>
</svg>
