<svg fill="none" height="18" viewBox="0 0 18 18" width="18" xmlns="http://www.w3.org/2000/svg"><g fill="#f1e9dd"><path d="m7.58414 0-1.25602 2.51202v3.8161h3.16407v-6.32812z"/><path d="m0 4.21875h2.10938v1.05469h-2.10938z"/><path d="m2.87265 7.32733-2.109238 1.05469-.471725-.94345 2.109233-1.05455z"/><path d="m5.27344 2.26332.07704-.15394h-2.18642v2.10937h2.10938z"/><path d="m10.5469 2.10938h7.4531v2.10937h-7.4531z"/><path d="m2.63672 12.6914h.52734v-3.19921h-3.16406v.52731c0 1.4563 1.18048 2.6719 2.63672 2.6719z"/><path d="m2.10938 18h14.83592v-1.0547h-1.3637l-1.1947-1.1948c-.2568-.2568-.4284-.5728-.5195-.9146h-9.39171c.25035.3747.22797.8788-.10244 1.2092l-.9002.9002h-1.36367z"/><path d="m4.21875 13.7812h9.64865c.1856-.6955.6093-1.0133.759-1.1969.2061-.2175.1234-.3539 3.3736-1.1052v-3.0416h-13.78125z"/></g></svg>