<svg width="26" height="24" viewBox="0 0 26 24" fill="none" xmlns="http://www.w3.org/2000/svg">
<path d="M10 5H0V19H10V5Z" fill="black"/>
<path d="M5.52136e-08 12L17 24V0L5.52136e-08 12Z" fill="black"/>
<path d="M23.3042 19.1404C24.9789 17.3076 26 14.7607 26 12.0009C26 9.24103 24.9789 6.69411 23.3042 4.86133L21.5771 5.95217C23.0478 7.40058 24 9.54435 24 12.0009C24 14.4573 23.0478 16.6011 21.5771 18.0495L23.3042 19.1404Z" fill="black"/>
<path d="M19.8407 16.9529C21.1858 15.8335 22 13.9546 22 12.0009C22 10.0471 21.1858 8.16824 19.8407 7.0488L17.973 8.2284C19.0716 8.74611 20 10.1149 20 12.0009C20 13.8868 19.0716 15.2556 17.973 15.7733L19.8407 16.9529Z" fill="black"/>
<path d="M14.1793 13.3773C14.0644 12.9584 14 12.4976 14 12.0009C14 11.5041 14.0644 11.0433 14.1793 10.6244L12 12.0009L14.1793 13.3773Z" fill="black"/>
</svg>
