<svg fill="none" height="24" viewBox="0 0 26 24" width="26" xmlns="http://www.w3.org/2000/svg"><g fill="#000"><path d="m10 5h-10v14h10z"/><path d="m.00000006 12 16.99999994 12v-24z"/><path d="m23.3042 19.1404c1.6747-1.8328 2.6958-4.3797 2.6958-7.1395 0-2.75987-1.0211-5.30679-2.6958-7.13957l-1.7271 1.09084c1.4707 1.44841 2.4229 3.59218 2.4229 6.04873 0 2.4564-.9522 4.6002-2.4229 6.0486z"/><path d="m19.8407 16.9529c1.3451-1.1194 2.1593-2.9983 2.1593-4.952 0-1.9538-.8142-3.83266-2.1593-4.9521l-1.8677 1.1796c1.0986.51771 2.027 1.8865 2.027 3.7725 0 1.8859-.9284 3.2547-2.027 3.7724z"/><path d="m14.1793 13.3773c-.1149-.4189-.1793-.8797-.1793-1.3764 0-.4968.0644-.9576.1793-1.3765l-2.1793 1.3765z"/></g></svg>