<svg fill="none" height="16" viewBox="0 0 16 16" width="16" xmlns="http://www.w3.org/2000/svg"><g fill="#f1e9dd"><path d="m5.18582 4.49239c.47716.18901.98093-.10827 1.01911-.67413.04372-.63446-.27575-1.04429-.59946-1.45957-.44718-.57367-.90245-1.15773-.41965-2.35869-.97456.205979-1.84388 1.66306-.22614 3.29336.63968.64896.73916.80988.22614 1.19903z"/><path d="m9.0706 3.81826c-.03816.56586-.54237.86314-1.01941.67413.51347-.38915.41343-.55007-.22609-1.19903-1.61729-1.6303-.74822-3.087381.22609-3.29336-.48262 1.20084-.02741 1.78471.41976 2.35826.32379.4153.64336.8252.59965 1.46z"/><path d="m11.9363 3.81826c-.0388.56586-.5424.86314-1.0194.67413.5134-.38915.414-.55007-.2261-1.19903-1.61732-1.6303-.74825-3.087381.2261-3.29336-.4823 1.2008-.0272 1.78467.4198 2.3582.3238.41532.6433.82523.5996 1.46006z"/><path clip-rule="evenodd" d="m1.80413 13.3135c1.13228 1.0323 3.53056 1.7453 6.19587 1.7453 2.6648 0 5.0627-.7127 6.1952-1.7447.1757-.2728.2996-.6476.457-1.1239l.0001-.0003c.0359-.1087.0736-.2226.114-.3419 0 0 1.2337-4.65428 1.2337-4.66215 0-1.77241-5.4508-2.09538-7.53342-2.15416-.00238-.00484-.93078-.00484-.93316 0-2.0826.05939-7.53342.38236-7.53342 2.15477 0 .00787 1.23366 4.66214 1.23366 4.66214.03966.1172.07668.2293.11201.3363.15802.4784.28234.8548.45846 1.1286zm6.19647-4.29707c-3.93817-.02485-7.098506-.74654-7.098506-1.63486 0-2.13537 14.197606-2.13416 14.197606 0-.0006.88832-3.1615 1.61001-7.0991 1.63486z" fill-rule="evenodd"/></g></svg>