<svg fill="none" height="14" viewBox="0 0 14 14" width="14" xmlns="http://www.w3.org/2000/svg"><path d="m5.07089 11.3618-2.3031 2.3048c-.21339.2133-.50246.3334-.80462.3334-.30159 0-.59122-.1195-.80461-.3329l-.825105-.825c-.213388-.2134-.33345459-.503-.33345457-.8052.00000001-.3016.12006657-.5912.33345557-.8046l2.304244-2.30356-.26284-.26283c-.21339-.21337-.33346-.50357-.33346-.80515 0-.30214.12064-.59177.33403-.80515.70227-.69769 1.30803-.54871 2.59223-.01622l5.22654-5.22917c.4438-.4444 3.2893-2.18255 3.7337-1.7381516.4444.4449676-1.2938 3.2897516-1.7382 3.7341516l-5.2271 5.22973c.52909 1.28585.67695 1.89045-.0185 2.58875-.21338.2139-.50303.334-.80461.334-.30216 0-.5918-.1201-.80519-.3335z" fill="#f1e9dd"/></svg>