<svg fill="none" height="18" viewBox="0 0 17 18" width="17" xmlns="http://www.w3.org/2000/svg"><path clip-rule="evenodd" d="m7.71626 3.67555c.06474.02342.13112.04346.19892.05991v10.26454h-4.74887zm2.09264-.53623c.2924-.33291.4694-.76821.4694-1.24456 0-1.046447-.85448-1.89476-1.90857-1.89476-1.0541 0-1.90861.848313-1.90861 1.89476 0 .45053.15839.86433.42291 1.18952l-4.81052 10.91572h-1.181906c-.748053 0-1.191049.7786-.655661 1.3011 1.659887 1.6197 4.630157 2.6989 8.018147 2.6989 3.38801 0 6.35831-1.0792 8.01811-2.6989.5354-.5225.0924-1.3011-.6556-1.3011h-1.366zm-.89372.57169c.01402-.00414.02798-.00844.04186-.01289l4.21316 10.30188h-4.25502z" fill="#f1e9dd" fill-rule="evenodd"/></svg>