<svg width="17" height="18" viewBox="0 0 17 18" fill="none" xmlns="http://www.w3.org/2000/svg">
<path fill-rule="evenodd" clip-rule="evenodd" d="M7.71626 3.67555C7.781 3.69897 7.84738 3.71901 7.91518 3.73546L7.91518 14H3.16631L7.71626 3.67555ZM9.8089 3.13932C10.1013 2.80641 10.2783 2.37111 10.2783 1.89476C10.2783 0.848313 9.42382 0 8.36973 0C7.31563 0 6.46112 0.848313 6.46112 1.89476C6.46112 2.34529 6.61951 2.75909 6.88403 3.08428L2.07351 14H0.891604C0.143551 14 -0.299445 14.7786 0.235943 15.3011C1.89583 16.9208 4.8661 18 8.25409 18C11.6421 18 14.6124 16.9208 16.2722 15.3011C16.8076 14.7786 16.3646 14 15.6166 14H14.2506L9.8089 3.13932ZM8.91518 3.71101C8.9292 3.70687 8.94316 3.70257 8.95704 3.69812L13.1702 14H8.91518L8.91518 3.71101Z" fill="#F1E9DD"/>
</svg>
