<svg width="16" height="16" viewBox="0 0 16 16" fill="none" xmlns="http://www.w3.org/2000/svg">
<path d="M8 1V15" stroke="#F1E9DD" stroke-miterlimit="10"/>
<path d="M15 1H1V15H15V1Z" stroke="#F1E9DD" stroke-miterlimit="10"/>
<path d="M15 14.668V15H13.2205L8 9.332V7.06801L15 14.668ZM15 2.93199V1H13.2205L15 2.93199ZM9.16789 15H11.2532L8 11.468V13.732L9.16789 15ZM15 7.33199V5.06801L11.2532 1H9.16789L15 7.33199ZM8 2.26801V4.53199L15 12.132V9.86801L8 2.26801Z" fill="#F1E9DD"/>
<path d="M8 7.06801V9.332L2.77947 15H1V14.668L8 7.06801ZM2.77947 1H1V2.93199L2.77947 1ZM8 13.732V11.468L4.74684 15H6.83211L8 13.732ZM6.83211 1H4.74684L1 5.06801V7.33199L6.83211 1ZM1 9.86801V12.132L8 4.53199V2.26801L1 9.86801Z" fill="#F1E9DD"/>
</svg>
