<svg fill="none" height="16" viewBox="0 0 16 16" width="16" xmlns="http://www.w3.org/2000/svg"><path d="m8 1v14" stroke="#f1e9dd" stroke-miterlimit="10"/><path d="m15 1h-14v14h14z" stroke="#f1e9dd" stroke-miterlimit="10"/><g fill="#f1e9dd"><path d="m15 14.668v.332h-1.7795l-5.2205-5.668v-2.26399zm0-11.73601v-1.93199h-1.7795zm-5.83211 12.06801h2.08531l-3.2532-3.532v2.264zm5.83211-7.66801v-2.26398l-3.7468-4.06801h-2.08531zm-7-5.06398v2.26398l7 7.60001v-2.26399z"/><path d="m8 7.06801v2.26399l-5.22053 5.668h-1.77947v-.332zm-5.22053-6.06801h-1.77947v1.93199zm5.22053 12.732v-2.264l-3.25316 3.532h2.08527zm-1.16789-12.732h-2.08527l-3.74684 4.06801v2.26398zm-5.83211 8.86801v2.26399l7-7.60001v-2.26398z"/></g></svg>