<svg fill="none" height="16" viewBox="0 0 16 16" width="16" xmlns="http://www.w3.org/2000/svg"><path d="m9.16582 0c-4.29976 0-7.00779 1.48084-6.82589 2.67032.0517.33934.1968 1.26441.37975 2.42867-2.10712.81738-2.8049375 2.14325-2.71153304 3.22346.11075404 1.27948 1.26245304 2.64915 3.79226304 2.88555 1.44435.1348 3.18206-.6563 4.30782-2.00863-.10708-.18193-.16946-.39311-.16946-.61934 0-.67677.54886-1.22572 1.2267-1.22572.67731 0 1.22673.54895 1.22673 1.22572 0 .66714-.53435 1.20908-1.19869 1.22449-1.34096 1.72718-3.38132 2.76908-5.31442 2.64808.04486.2849.06186.3926.08412.5367.07956.5062 2.05682 2.0667 5.20226 2.0695 3.14583-.0028 5.12343-1.5633 5.20243-2.0695.0783-.5038 1.4389-9.11113 1.6235-10.31898.182-1.18948-2.526-2.67032-6.82558-2.67032zm-7.93553 8.21704c-.04854-.56208.39815-1.31082 1.68549-1.8729.18523 1.17372.38641 2.44899.56288 3.56859-1.40527-.27631-2.18896-1.00806-2.24837-1.69569zm7.93518-4.45233c-3.14579-.0021-5.87135-.97646-5.87135-1.41177 0-.6065 2.72609-1.715332 5.87135-1.713406 3.14543-.001926 5.89473 1.280026 5.89333 1.713406 0 .43531-2.7472 1.40967-5.89333 1.41177z" fill="#f1e9dd"/></svg>