<svg fill="none" height="20" viewBox="0 0 14 20" width="14" xmlns="http://www.w3.org/2000/svg"><path d="m5 18.2h1.5c0-.5455-.29609-1.0479-.77325-1.3122zm4 .0692-.74958-1.2992c-.46434.2678-.75042.7632-.75042 1.2992zm-2-17.7692c-.72464 0-2.42177.103404-3.9315 1.43523-1.53667 1.35559-2.5685 3.70151-2.5685 7.50708h3c0-3.29059.88258-4.66582 1.55312-5.25735.69748-.61529 1.50035-.68496 1.94688-.68496zm-6.5 8.94231c0 3.76309.79711 6.22029 1.70012 7.78849.44964.7808.91594 1.324 1.29911 1.6873.19095.181.35965.3158.49316.4123.06672.0483.12457.0868.17192.1168.02368.015.04473.0278.06295.0386.00911.0054.01752.0103.02519.0147.00384.0022.00749.0042.01096.0062.00173.001.00342.0019.00506.0028.00082.0005.00202.0012.00243.0014.00118.0006.00235.0013.7291-1.3109s.7279-1.3116.72904-1.3109c.00036.0002.00149.0008.00222.0012.00145.0008.00287.0016.00424.0024.00274.0015.00531.003.0077.0044.00479.0027.00889.0051.01233.0071.00687.0041.01107.0067.01278.0078.0034.0022-.0032-.0019-.01852-.0129-.03055-.0221-.09622-.0725-.18652-.1581-.17933-.1701-.46303-.4857-.76339-1.0073-.59699-1.0367-1.29988-2.9584-1.29988-6.29139zm3 8.75769v1.7308h3v-1.7308zm3.5-14.7c.44653 0 1.2494.06967 1.94688.68496.67054.59153 1.55312 1.96676 1.55312 5.25735h3c0-3.80557-1.0318-6.15149-2.5685-7.50708-1.50973-1.331826-3.20686-1.43523-3.9315-1.43523zm3.5 5.94231c0 3.33239-.7027 5.27509-1.30412 6.33339-.3026.5325-.58928.8586-.77216 1.0362-.09201.0893-.15941.1427-.19164.1667-.01615.0121-.02357.0168-.02095.0151.00131-.0008.00513-.0033.01162-.0073.00324-.002.00716-.0044.01176-.0071.00231-.0014.00478-.0029.00743-.0044.00132-.0008.00269-.0016.00411-.0024.0007-.0004.0018-.0011.00215-.0013.0011-.0006.00222-.0012.7518 1.298.74958 1.2993.75072 1.2987.75187 1.298.0004-.0002.00156-.0009.00236-.0014.00159-.0009.00323-.0019.00492-.0029.00338-.0019.00694-.004.01069-.0063.00748-.0044.0157-.0094.02462-.0149.01785-.011.03851-.024.06179-.0393.04657-.0305.1036-.0699.16945-.119.1319-.0984.2988-.2356.4881-.4194.3796-.3687.8429-.9188 1.2903-1.706.8986-1.5812 1.6959-4.052 1.6959-7.81569zm-3 8.82689v1.7308h3v-1.7308z" fill="#f1e9dd"/></svg>