<svg fill="none" height="10" viewBox="0 0 24 10" width="24" xmlns="http://www.w3.org/2000/svg"><path d="m.0798111 3.49587c.1453969-.216.4391389-.27422.6570419-.13009l1.242017.82082c.03884.02583.08434.03943.13123.03943h2.01809c.10707 0 .19801-.0728.22641-.17513.07817-.28269.18429-.55316.3169-.80903.0474-.0911.03267-.20053-.04028-.27284l-1.30886-1.29693c-.0445-.04412-.06917-.10376-.06917-.16622v-1.2711c0-.129589.10612-.23478.23685-.23478h7.34046.0014.0019 5.5856.0019.0014 7.3405c.1307 0 .2368.105191.2368.23478v1.2711c0 .06246-.0251.1221-.0692.16622l-1.3083 1.29693c-.073.07231-.0876.18174-.0403.27284.7243 1.39507.6973 3.232-.6793 5.00417-.0156.02021-.035.03899-.0554.05397-3.405 2.53519-7.1453.27421-7.3154-2.90895-.0071-.12584-.1065-.22585-.2335-.22585h-1.3439c-.127 0-.2269.10051-.2335.22585-.1189 2.22576-1.9829 4.00024-4.25719 4.00024-2.27425 0-4.13825-1.77448-4.25715-4.00024-.00711-.12534-.10656-.22585-.23351-.22585h-2.14976c-.0469 0-.0924-.01361-.13124-.03944l-1.48081-.97855c-.21840073-.14379-.277128-.43536-.1317289-.65135zm21.9301889.90199c-.0825-.33947-.2174-.65835-.3974-.9476-.082-.13195-.2639-.15822-.3743-.04885l-.9014.89358c-.1492.14743-.0436.40055.1677.40055h1.2761c.1568.00005.2657-.14694.2293-.29768zm-.3979 2.48212c.1795-.28974.315-.60856.3974-.94759.0369-.15074-.0725-.29773-.2288-.29773h-1.2761c-.2108 0-.3169.25312-.1677.40099l.9014.89313c.1104.10949.2923.08316.3738-.0488zm-2.3491 1.25095c0 .15448.1483.26298.3003.22679.3425-.08172.6642-.2155.9564-.39394.1331-.08123.1592-.26154.0493-.37048l-.9014-.89357c-.1493-.14793-.4046-.04318-.4046.16621zm-.0005-4.66563c.0005.20851.2553.31321.4045.16528l.9015-.89308c.1104-.10943.0838-.28974-.0493-.37048-.2923-.17795-.6139-.31227-.9564-.39394-.152-.03613-.3003.07187-.3003.22728zm-.9474-1.26593c.0005-.15448-.1478-.26297-.3004-.22679-.3424.08173-.6641.21556-.9563.39394-.1332.08124-.1592.26155-.0493.37048l.9014.89358c.1492.14793.4045.04317.4045-.16622zm-1.2562 5.76392c.2922.17794.6139.31226.9563.39394.1521.03662.3004-.07182.3004-.22679v-1.26499c0-.20895-.2554-.31414-.4045-.16622l-.9015.89358c-.1104.10937-.0839.28968.0493.37048zm-1.4903-2.03085c.0824.33948.2175.65835.3974.94804.0815.13146.2634.15779.3738.04836l.9014-.89358c.1492-.14743.0436-.40055-.1672-.40055h-1.2762c-.1567 0-.2657.14699-.2292.29773zm.2293-1.23685h1.2761c.2108 0 .3164-.25312.1673-.40099l-.9015-.89357c-.1104-.10943-.2923-.08311-.3737.04885-.1795.28974-.3151.60856-.3975.94804-.0365.15068.0725.29767.2293.29767zm-4.1132-.29773c-.0825-.33947-.2174-.65835-.3975-.9476-.0819-.13195-.2638-.15822-.3742-.04885l-.9014.89358c-.14928.14743-.0436.40055.1676.40055h1.2762c.1568.00005.2657-.14694.2293-.29768zm-.398 2.48262c.1796-.28974.3151-.60856.3975-.9476.0369-.15118-.0725-.29817-.2288-.29817h-1.2762c-.21076 0-.31688.25312-.1676.40099l.9014.89358c.1103.10943.2922.08316.3737-.0488zm-2.34905 1.25045c0 .15448.14829.26298.30036.22679.34246-.08172.66415-.2155.95639-.39394.1331-.08123.1592-.26154.0493-.37048l-.90146-.89357c-.14924-.14793-.40453-.04318-.40453.16621zm-.00049-4.66607c.0005.20895.25534.31364.40452.16577l.90142-.89357c.1104-.10943.0839-.28975-.0493-.37048-.29225-.17795-.61388-.31227-.95635-.39395-.15206-.03612-.30035.07188-.30035.22729zm-.9474-1.26549c.0005-.15448-.14778-.26297-.30035-.22679-.34247.08173-.66415.21556-.95639.39394-.13312.08124-.15918.26155-.04928.37048l.90144.89358c.14924.14793.40453.04317.40453-.16622zm-1.25624 5.76392c.29229.17794.61393.31226.95639.39394.15207.03662.30035-.07182.30035-.22679v-1.26499c0-.20895-.25535-.31414-.40452-.16622l-.90145.89358c-.11039.10937-.08389.28968.04923.37048zm-1.49026-2.03085c.08245.33948.2174.65835.39742.94804.08144.13146.2634.15779.37374.04836l.90144-.89358c.14924-.14743.04356-.40055-.16723-.40055h-1.27613c-.15679 0-.26574.14699-.22924.29773zm.22929-1.23685h1.27614c.21079 0 .31641-.25312.16723-.40099l-.90145-.89357c-.11039-.10943-.29229-.08311-.37374.04885-.17951.28974-.31502.60856-.39742.94804-.03655.15068.0724.29767.22924.29767z" fill="#f1e9dd"/></svg>