<svg width="13" height="18" viewBox="0 0 13 18" fill="none" xmlns="http://www.w3.org/2000/svg">
<path d="M12.7058 11.1217C12.7058 7.25116 11.7343 4.07911 11.1176 2.50497L9 5.08747L6.67198 5.90644L5.63183 8.70301H9.66617V9.73598H5.19561L5.1765 17.967C5.39126 17.9785 5.60938 17.9875 5.82945 17.9931L5.83167 18H6.35299C8.74828 18 11.0984 17.5523 11.1973 17.5333L11.9132 17.3953L10.6214 11.802H12.7059L12.7058 11.1217Z" fill="#F1E9DD"/>
<path d="M4.55257 8.70298L5.71719 5.90644L3.21379 5.0786L1.44296 2.80319C0.826262 4.37733 0 7.25116 0 11.1217V11.802H2.08451L0.792799 17.3953L1.50871 17.5333C1.57002 17.5451 3.0158 17.8675 4.28295 18V9.73594H3.07797V8.70298H4.55257Z" fill="#F1E9DD"/>
<path d="M8.09896 0H4.6907L4.23529 0.438922L6.39483 4.60131L8.55441 0.438922L8.09896 0Z" fill="#F1E9DD"/>
<path d="M3.21379 0.998912L1.77811 1.69071L3.70588 4.52122L5.82945 5.0786L3.21379 0.998912Z" fill="#F1E9DD"/>
<path d="M9.49215 0.998912L6.67198 5.12836L8.51253 4.52122L10.9278 1.69071L9.49215 0.998912Z" fill="#F1E9DD"/>
</svg>
