<svg fill="none" height="18" viewBox="0 0 13 18" width="13" xmlns="http://www.w3.org/2000/svg"><g fill="#f1e9dd"><path d="m12.7058 11.1217c0-3.87054-.9715-7.04259-1.5882-8.61673l-2.1176 2.5825-2.32802.81897-1.04015 2.79657h4.03434v1.03297h-4.47056l-.01911 8.23102c.21476.0115.43288.0205.65295.0261l.00222.0069h.52132c2.39529 0 4.74541-.4477 4.84431-.4667l.7159-.138-1.2918-5.5933h2.0845z"/><path d="m4.55257 8.70298 1.16462-2.79654-2.5034-.82784-1.77083-2.27541c-.616698 1.57414-1.44296 4.44797-1.44296 8.31851v.6803h2.08451l-1.291711 5.5933.715911.138c.06131.0118 1.50709.3342 2.77424.4667v-8.26406h-1.20498v-1.03296z"/><path d="m8.09896 0h-3.40826l-.45541.438922 2.15954 4.162388 2.15958-4.162388z"/><path d="m3.21379.998912-1.43568.691798 1.92777 2.83051 2.12357.55738z"/><path d="m9.49215.998912-2.82017 4.129448 1.84055-.60714 2.41527-2.83051z"/></g></svg>