<svg fill="none" height="16" viewBox="0 0 17 16" width="17" xmlns="http://www.w3.org/2000/svg"><g fill="#f1e9dd"><path d="m10.4308 10.0483-3.05351.2936c-.3494.0335-.61572.3192-.61572.6605v.552h-1.15865c-.48232 0-.87335.3801-.87335.8489s.39103.8488.87335.8488h1.15865v.552c0 .3413.26626.627.61572.6605l3.05361.2936c.679.7599 1.6792 1.2418 2.7935 1.2418 2.0405 0 3.7006-1.6135 3.7006-3.5967 0-1.9833-1.6601-3.59685-3.7006-3.59685-1.1144 0-2.1146.48193-2.7936 1.24185zm4.7719 2.3549c0 1.0603-.8874 1.9228-1.9783 1.9228-1.0908 0-1.9783-.8625-1.9783-1.9228 0-1.0602.8875-1.9228 1.9783-1.9228 1.0909 0 1.9783.8626 1.9783 1.9228z"/><path d="m11.2572.560729c-.8347.514641-1.41331 1.314391-1.62914 2.251881-.01939.0841-.03447.16836-.04763.25274l-2.41482 1.83599c-.27656.2103-.34399.59014-.15593.87836l.31074.47616-.97844.6032c-.40157.24754-.52064.76478-.26591 1.15509.25473.39037.78683.50604 1.1884.25845l.97845-.6032.31074.47616c.18806.28822.57036.39082.88395.23728l2.73809-1.3407c.0841.02439.169.04708.2555.06587.9646.20978 1.9555.04193 2.7902-.47265.8347-.51459 1.4133-1.31433 1.6291-2.25183.0607-.26349.0907-.5289.0907-.7925 0-.67429-.1963-1.33618-.5769-1.91953-.5294-.811289-1.3522-1.373581-2.3168-1.5834221-.9647-.2097849-1.9556-.0419349-2.7903.4726511zm2.414 1.160861c.5156.11216.9555.41283 1.2386.84655.283.43371.3755.94858.2599 1.44981-.1154.50118-.4247.92872-.8709 1.20381-.4463.27509-.976.36479-1.4916.25268-.5156-.11216-.9555-.41283-1.2385-.84655-.208-.31872-.3072-.67468-.3072-1.02679 0-.63705.3249-1.26114.9181-1.62689.4463-.27503.976-.36473 1.4916-.25262z"/><path d="m4.02315 12.4509c.03278-.092.04827-.1857.04827-.2778 0-.3517-.22666-.6805-.58783-.8021l-1.32452-.4458c-.45578-.1534-.95324.0814-1.11109.5244-.157839.4432.08373.9265.53956 1.08l1.32453.4457c.45578.1534.95324-.0814 1.11108-.5244z"/><path d="m1.44722 7.63604c-.464736-.12546-.946187.13905-1.075269.59076l-.339909 1.18944c-.1289653.45165.142939.91966.607738 1.04516.46474.1254.94619-.1391 1.07527-.59073l.33991-1.1895c.02172-.07606.03208-.1524.03208-.22761 0-.37186-.25327-.71316-.63982-.81752z"/><path d="m5.32789 7.74521c0-.46881-.39103-.84887-.87336-.84887h-1.10625c-.48232 0-.87335.38006-.87335.84887 0 .4688.39103.84887.87335.84887h1.10625c.48233 0 .87336-.38007.87336-.84887z"/></g></svg>