<svg fill="none" height="16" viewBox="0 0 16 16" width="16" xmlns="http://www.w3.org/2000/svg"><g fill="#f1e9dd"><path d="m9.34856 2.82706s.35664-.90466.35664-1.11904c0-.52183-.52189-.950602-1.1888-.996542v-.240301h.23776v-.235588h-.23776v-.235589h-.23776v.235589h-.23776v.235588h.23776v.235589c-.66573.04594-1.1888.471174-1.1888.996544 0 .21438.35664 1.11904.35664 1.11904z"/><path d="m14.8599 2.35571c-.9343 1.04955-2.0863 2.04609-2.9589 3.07915-.2615.31097-.1902.70676-.3566 1.08959s-.5801.61136-.8322.44173c-.5528-.36987-.6966-1.48774-.2805-2.01899.4363-.5607 1.0366-.66436 1.7642-.70677-.1094-.25915-.9119-.85047-1.1187-.99654-.3709-.2615-.6217-.16255-.8964.15902-.54442.63845-1.12099 1.25098-1.78315 1.9813-.66216-.73032-1.23753-1.34285-1.78319-1.9813-.27461-.32157-.52545-.42052-.89754-.15902-.20685.14607-1.0081.73739-1.11747.99654.72754.04123 1.32789.14489 1.76417.70677.41608.53243.27224 1.64912-.28412 2.02253-.25559.16962-.67642-.08128-.83216-.44173-.15573-.36045-.09391-.77862-.35663-1.0896-.87258-1.03423-2.02571-2.03077-2.95892-3.08268-1.078235 1.32283-1.262498 2.78584-1.069913 4.32777.275803 2.1415 1.485993 3.45372 3.612753 3.80002.41013.0672 1.14243-1.04482 1.35285-1.31692.35664.88582.28055 1.11082-.41133 1.42882-.28518.1213-.52608.3261-.69035.587s-.24403.5654-.22859.8725c0 .2815.38399.556.60986.8564-.18189.0612-1.22565.3675-1.47768.4535-.01545-.0106-.03209-.0189-.04755-.0283l-3.145552-3.65163-.436288.36403 2.94465 3.4231c-.11888.2685.00951.6667.49691.5783l.71923.8399.43628-.3687-.54209-.6314c.54685-.1625 1.08656-.3604 1.63578-.5218.48979-.1437.8916-.2686.84762-.9494-.01902-.2992.33524-.622.55754-.9966.65503.8917.61104 1.2816-.07251 1.8412-.53021.4323-1.05922.8658-1.67145 1.3676 1.02117.4782 1.95676.9223 2.89947 1.3499.04542.0172.09446.0229.14266.0165.04858.0065.09803.0008.14384-.0165.94272-.4276 1.87827-.8717 2.89947-1.3499-.6122-.5018-1.1412-.9353-1.67144-1.3676-.68475-.5596-.72755-.9495-.07252-1.8412.2223.3746.57656.6974.55756.9966-.0452.6808.3566.8057.8476.9494.7382.2167 1.4598.4994 2.2088.6738.5872.1366 1.1067-.2733 1.2209-.8481.0488-.2629-.0055-.5343-.1517-.7589-.1463-.2246-.3735-.3854-.6353-.4497-.5944-.1461-1.1282.1437-1.3077.7174-.0392.1248-.063.2544-.1034.4264l-.6455-.2179c.2258-.3004.6039-.5749.6098-.8564.0146-.3056-.065-.6084-.2283-.868-.1633-.2597-.4025-.4639-.6859-.5856-.6918-.318-.7667-.543-.4113-1.42883.2057.26621.9427 1.37823 1.3517 1.31103 2.1279-.3463 3.3381-1.65852 3.6104-3.79767.1961-1.54193.0118-3.00493-1.0712-4.33012z"/></g></svg>