<svg fill="none" height="348" viewBox="0 0 634 348" width="634" xmlns="http://www.w3.org/2000/svg"><g stroke="#000" stroke-miterlimit="10"><g stroke-width="8"><path d="m387.203 11.2798v117.7202"/><path d="m552.562 189v118"/><path d="m162.891 189v118"/><path d="m162.891 7v122"/><path d="m627.999 129h-112.405"/><path d="m628.001 189h-24.48"/><path d="m573.545 189h-57.951"/><path d="m485.621 189h-202.83"/><path d="m252.815 189h-136.885"/><path d="m485.621 129h-202.83"/><path d="m252.815 129h-136.885"/><path d="m38.9941 189h46.9606"/><path d="m38.9941 129h46.9606"/></g><path d="m187.871 7h-67.943" stroke-width="14"/><path d="m248.068 7h-20.982" stroke-width="14"/><path d="m308.018 7h-20.483" stroke-width="14"/><path d="m420.925 7h-73.189" stroke-width="14"/><path d="m480.623 7h-20.482" stroke-width="14"/><path d="m541.072 7h-20.982" stroke-width="14"/><path d="m520.59 307h53.955" stroke-width="14"/><path d="m403.689 307h76.936" stroke-width="14"/><path d="m287.785 307h76.436" stroke-width="14"/><path d="m119.928 307h127.892" stroke-width="14"/><path d="m80.4957 7h-43.4996v135" stroke-width="14"/><path d="m602.512 307h24.488v-300h-46.508" stroke-width="14"/><path d="m36.9961 175.5v131.5h43.4996" stroke-width="14"/></g><g fill="#000"><path d="m286.788 1v12h-37.969v-12zm.999-1h-39.967v14h39.967z"/><path d="m286.788 6v2h-37.969v-2zm.999-1h-39.967v4h39.967z"/><path d="m226.836 1v12h-37.968v-12zm1-1h-39.967v14h39.967z"/><path d="m226.836 6v2h-37.968v-2zm1-1h-39.967v4h39.967z"/><path d="m346.737 1v12h-37.968v-12zm.999-1h-39.966v14h39.966z"/><path d="m346.737 6v2h-37.968v-2zm.999-1h-39.966v4h39.966z"/><path d="m286.788 301v12h-37.969v-12zm.999-1h-39.967v14h39.967z"/><path d="m286.788 306v2h-37.969v-2zm.999-1h-39.967v4h39.967z"/><path d="m403.188 301v12h-37.968v-12zm.999-1h-39.966v14h39.966z"/><path d="m403.188 306v2h-37.968v-2zm.999-1h-39.966v4h39.966z"/><path d="m519.59 1v12h-37.968v-12zm.999-1h-39.966v14h39.966z"/><path d="m519.59 6v2h-37.968v-2zm.999-1h-39.966v4h39.966z"/><path d="m459.641 1v12h-37.968v-12zm.999-1h-39.966v14h39.966z"/><path d="m459.641 6v2h-37.968v-2zm.999-1h-39.966v4h39.966z"/><path d="m579.541 1v12h-37.968v-12zm1-1h-39.967v14h39.967z"/><path d="m579.541 6v2h-37.968v-2zm1-1h-39.967v4h39.967z"/><path d="m118.928 1v12h-37.9679v-12zm.999-1h-39.9661v14h39.9661z"/><path d="m118.928 6v2h-37.9679v-2zm.999-1h-39.9661v4h39.9661z"/><path d="m118.928 301v12h-37.9679v-12zm.999-1h-39.9661v14h39.9661z"/><path d="m118.928 306v2h-37.9679v-2zm.999-1h-39.9661v4h39.9661z"/><path d="m519.59 301v12h-37.968v-12zm.999-1h-39.966v14h39.966z"/><path d="m519.59 306v2h-37.968v-2zm.999-1h-39.966v4h39.966z"/></g><path d="m626.5 305v30h-73.938v-30" stroke="#000" stroke-miterlimit="10"/><path d="m626.5 334v5h-73.938v-5" stroke="#000" stroke-miterlimit="10"/><path d="m626.5 338v5h-73.938v-5" stroke="#000" stroke-miterlimit="10"/><path d="m626.5 342v5h-73.938v-5" stroke="#000" stroke-miterlimit="10"/><path d="m287.785 186v6h-42.964v-6zm.999-1h-44.962v8h44.962z" fill="#000"/><path d="m522.588 186v6h-42.964v-6zm.999-1h-44.962v8h44.962z" fill="#000"/><path d="m522.588 126v6h-42.964v-6zm.999-1h-44.962v8h44.962z" fill="#000"/><path d="m287.785 126v6h-42.964v-6zm.999-1h-44.962v8h44.962z" fill="#000"/><path d="m123.924 126v6h-42.9639v-6zm.999-1h-44.9621v8h44.9621z" fill="#000"/><path d="m607.518 186v6h-42.964v-6zm.999-1h-44.962v8h44.962z" fill="#000"/><path d="m607.518 304v6h-42.964v-6zm.999-1h-44.962v8h44.962z" fill="#000"/><path d="m120.926 186v6h-42.9639v-6zm.999-1h-44.9621v8h44.9621z" fill="#000"/><path d="m39.9941 138v43h-5.9949v-43zm.9992-1h-7.9933v45h7.9933z" fill="#000"/><path d="m89.9323 68.12c-.34 0-.6-.0767-.78-.23s-.3-.3467-.36-.58c-.06-.24-.0966-.5367-.11-.89-.0333-.6333-.11-1.1233-.23-1.47-.1133-.3533-.3366-.53-.67-.53h-1.1v2.99c0 .18.09.27.27.27h.72v.32h-2.9v-.32h.72c.18 0 .27-.09.27-.27v-5.94c0-.0933-.0233-.16-.07-.2-.04-.0467-.1066-.07-.2-.07h-.72v-.32h2.9v.32h-.72c-.0933 0-.1633.0233-.21.07-.04.04-.06.1067-.06.2v2.63h.86c.3734 0 .6334-.1367.78-.41.1467-.28.2367-.7367.27-1.37.02-.44.0867-.7667.2-.98.0934-.18.2167-.32.37-.42.16-.1067.3234-.16.49-.16.3 0 .54.0733.72.22.2267.2067.34.4733.34.8 0 .24-.0533.4433-.16.61-.0666.1-.1533.18-.26.24-.1.06-.2066.09-.32.09-.18 0-.32-.05-.42-.15-.1066-.1067-.16-.2333-.16-.38 0-.1267.0234-.23.07-.31.0534-.08.13-.1533.23-.22.1467-.1133.22-.2133.22-.3 0-.0733-.0333-.1233-.1-.15-.0666-.0333-.1333-.05-.2-.05-.2533 0-.43.1133-.53.34-.0933.2267-.1566.6-.19 1.12-.0266.4067-.0833.7467-.17 1.02-.0866.2733-.2533.4667-.5.58v.05c.4334.2.7534.3933.96.58.2067.1867.35.42.43.7.08.2733.1367.6733.17 1.2.02.3067.06.5367.12.69.0667.1467.1867.22.36.22.2 0 .35-.1367.45-.41.1-.28.15-.5633.15-.85h.25c0 .3933-.0833.78-.25 1.16-.1666.3733-.4766.56-.93.56zm3.2554 0c-.3533 0-.66-.0867-.92-.26-.2533-.1733-.38-.48-.38-.92 0-.34.0867-.6067.26-.8.1734-.1933.3734-.33.6-.41.2334-.0867.5134-.16.84-.22l.92-.17v-.85c0-.62-.31-.93-.93-.93-.2266 0-.4333.06-.62.18-.1866.1133-.28.2433-.28.39 0 .0667.01.1167.03.15.0134.02.0334.04.06.06.0334.02.0634.0333.09.04.12.0333.21.08.27.14.0667.06.1.1433.1.25 0 .14-.0433.24-.13.3-.08.06-.1833.09-.31.09-.1466 0-.28-.0567-.4-.17s-.18-.2767-.18-.49c0-.2467.0667-.46.2-.64.14-.18.3167-.3133.53-.4.22-.0933.4434-.14.67-.14.44 0 .82.1167 1.14.35.32.2267.48.5833.48 1.07v2.46c0 .3333.1034.5.31.5.1667 0 .2867-.0967.36-.29.0734-.1933.11-.43.11-.71h.18c0 .4-.06.7367-.18 1.01-.1133.2733-.32.41-.62.41-.2866 0-.5033-.0833-.65-.25-.14-.1733-.2166-.41-.23-.71l-.05-.02c-.1.2333-.2633.4567-.49.67-.22.2067-.48.31-.78.31zm.16-.36c.3 0 .5334-.1167.7-.35.1734-.24.3267-.5433.46-.91v-.95l-.87.19c-.32.0667-.5533.2-.7.4-.14.1933-.21.47-.21.83 0 .3067.0634.5167.19.63.1267.1067.27.16.43.16zm4.2614-3.58v3.04c0 .18.0267.3167.08.41.0534.0867.1534.13.3.13h.2v.24h-1.44v-.24h.2c.1467 0 .2467-.0433.3-.13.0534-.0933.08-.23.08-.41v-3.32c0-.08-.0166-.1367-.05-.17-.0333-.0333-.09-.05-.17-.05h-.36v-.24h1.38l1.12 3.32 1.0699-3.32h1.43v.24h-.36c-.08 0-.137.0167-.17.05s-.05.09-.05.17v3.64c0 .08.017.1367.05.17s.09.05.17.05h.36v.24h-1.8799v-.24h.3599c.08 0 .137-.0167.17-.05s.05-.09.05-.17v-3.44l-1.2999 3.98h-.18zm7.0619 3.94c-.62 0-1.12-.21-1.5-.63-.373-.42-.56-1.0033-.56-1.75 0-.4267.083-.8233.25-1.19.167-.3733.397-.67.69-.89.3-.2267.633-.34 1-.34.407 0 .74.11 1 .33s.447.5.56.84c.12.3333.18.6767.18 1.03 0 .0733-.023.1233-.07.15-.047.02-.127.03-.24.03h-2.49c0 .6667.093 1.1967.28 1.59.193.3933.507.59.94.59.307 0 .593-.1167.86-.35.273-.2333.447-.5967.52-1.09h.24c-.04.4867-.21.89-.51 1.21-.293.3133-.677.47-1.15.47zm.76-2.66c0-.5333-.07-.9833-.21-1.35s-.37-.55-.69-.55c-.34 0-.6.1867-.78.56-.173.3667-.26.8133-.26 1.34zm1.579 4.6h.52c.08 0 .137-.0167.17-.05.034-.0333.05-.09.05-.17v-5.94c0-.08-.016-.1367-.05-.17-.033-.0333-.09-.05-.17-.05h-.52v-.24h1.46v.74l.04.01c.127-.2667.287-.4767.48-.63.2-.16.427-.24.68-.24.314 0 .604.1067.87.32.274.2067.49.4933.65.86s.24.7733.24 1.22-.08.8533-.24 1.22-.376.6567-.65.87c-.266.2067-.556.31-.87.31-.26 0-.493-.0833-.7-.25-.206-.1733-.36-.38-.46-.62l-.04.01v2.58c0 .08.017.1367.05.17.034.0333.09.05.17.05h.52v.24h-2.2zm2.55-2.22c.327 0 .574-.1833.74-.55.167-.3667.25-.89.25-1.57s-.083-1.2033-.25-1.57c-.166-.3667-.413-.55-.74-.55-.2 0-.383.0733-.55.22-.166.1467-.3.35-.4.61-.093.2533-.14.53-.14.83v.92c0 .3.047.58.14.84.1.2533.234.4533.4.6.167.1467.35.22.55.22zm4.106.28c-.353 0-.66-.0867-.92-.26-.253-.1733-.38-.48-.38-.92 0-.34.087-.6067.26-.8.174-.1933.374-.33.6-.41.234-.0867.514-.16.84-.22l.92-.17v-.85c0-.62-.31-.93-.93-.93-.226 0-.433.06-.62.18-.186.1133-.28.2433-.28.39 0 .0667.01.1167.03.15.014.02.034.04.06.06.034.02.064.0333.09.04.12.0333.21.08.27.14.067.06.1.1433.1.25 0 .14-.043.24-.13.3-.08.06-.183.09-.31.09-.146 0-.28-.0567-.4-.17s-.18-.2767-.18-.49c0-.2467.067-.46.2-.64.14-.18.317-.3133.53-.4.22-.0933.444-.14.67-.14.44 0 .82.1167 1.14.35.32.2267.48.5833.48 1.07v2.46c0 .3333.104.5.31.5.167 0 .287-.0967.36-.29.074-.1933.11-.43.11-.71h.18c0 .4-.06.7367-.18 1.01-.113.2733-.32.41-.62.41-.286 0-.503-.0833-.65-.25-.14-.1733-.216-.41-.23-.71l-.05-.02c-.1.2333-.263.4567-.49.67-.22.2067-.48.31-.78.31zm.16-.36c.3 0 .534-.1167.7-.35.174-.24.327-.5433.46-.91v-.95l-.87.19c-.32.0667-.553.2-.7.4-.14.1933-.21.47-.21.83 0 .3067.064.5167.19.63.127.1067.27.16.43.16zm-38.1704 12.04h.34c.1533 0 .2633-.0267.33-.08.0733-.06.1333-.1533.18-.28.1867-.5533.32-1.0933.4-1.62.0867-.5267.13-1.1067.13-1.74 0-.2667-.0733-.4-.22-.4h-.42v-.24h3.6v.24h-.42c-.08 0-.1367.0167-.17.05s-.05.09-.05.17v3.54c.0067.1267.0333.22.08.28.0467.0533.1267.08.24.08h.54l.06 1.76h-.2c0-.0467-.0267-.18-.08-.4-.0467-.2133-.12-.42-.22-.62-.1867-.36-.4767-.54-.87-.54h-1.92c-.24 0-.4267.0467-.56.14s-.2433.2267-.33.4c-.1.2-.1767.4067-.23.62-.0467.22-.07.3533-.07.4h-.2zm2.76-.04c.08 0 .1367-.0167.17-.05s.05-.09.05-.17v-3.64c0-.08-.0167-.1367-.05-.17s-.09-.05-.17-.05h-.49c-.4067 0-.61.3067-.61.92 0 .3133-.0333.69-.1 1.13s-.1333.78-.2 1.02c-.12.4333-.18.71-.18.83 0 .06.02.1067.06.14.0467.0267.1.04.16.04zm2.9323.36c-.3 0-.5166-.0867-.65-.26-.1333-.1733-.2-.35-.2-.53 0-.1933.0467-.35.14-.47.1-.12.24-.18.42-.18.14 0 .2467.0467.32.14.08.0867.12.1933.12.32 0 .08-.02.1567-.06.23s-.09.1233-.15.15c-.08.0333-.12.1033-.12.21 0 .04.0167.0767.05.11.04.0267.08.04.12.04.2667 0 .47-.1367.61-.41s.24-.7267.3-1.36l.09-1.07c.04-.4933.06-.8533.06-1.08 0-.1-.0166-.17-.05-.21-.0333-.0467-.11-.07-.23-.07h-.38v-.24h3.3v.24h-.42c-.08 0-.1366.0167-.17.05-.0333.0333-.05.09-.05.17v3.64c0 .08.0167.1367.05.17.0334.0333.09.05.17.05h.41v.24h-2v-.24h.43c.08 0 .1367-.0167.17-.05.0334-.0333.05-.09.05-.17v-3.64c0-.08-.0166-.1367-.05-.17-.0333-.0333-.09-.05-.17-.05h-.33c-.16 0-.2766.06-.35.18-.0666.1133-.11.2933-.13.54l-.15 1.79c-.0466.6133-.16 1.09-.34 1.43-.18.3333-.45.5-.81.5zm5.1291 0c-.2533 0-.44-.0567-.56-.17-.12-.12-.1933-.2533-.22-.4-.0267-.1533-.04-.3333-.04-.54h.2c0 .24.0233.4333.07.58.0467.14.1467.21.3.21.1133 0 .19-.0467.23-.14.0467-.1.08-.2567.1-.47.02-.3267.1033-.6033.25-.83s.4-.42.76-.58v-.02c-.1533-.0133-.3267-.0633-.52-.15-.1867-.0867-.3533-.21-.5-.37-.14-.16-.21-.3533-.21-.58 0-.4067.1567-.71.47-.91.3133-.2067.69-.31 1.13-.31h2.26v.24h-.42c-.08 0-.1367.0167-.17.05s-.05.09-.05.17v3.64c0 .08.0167.1367.05.17s.09.05.17.05h.42v.24h-2.02v-.24h.44c.08 0 .1367-.0167.17-.05s.05-.09.05-.17v-1.72h-.86c-.22 0-.3767.0967-.47.29-.0933.1867-.1467.47-.16.85-.0133.3867-.0767.6767-.19.87s-.34.29-.68.29zm2.36-2.54v-1.68c0-.08-.0167-.1367-.05-.17s-.09-.05-.17-.05h-.49c-.2933 0-.52.0867-.68.26-.1533.1667-.23.4067-.23.72 0 .28.0667.5033.2.67s.31.25.53.25zm7.058 2.54c-.3666 0-.7033-.1067-1.01-.32-.3066-.22-.55-.5133-.73-.88-.1733-.3667-.26-.7667-.26-1.2s.0867-.8333.26-1.2c.18-.3667.4234-.6567.73-.87.3067-.22.6434-.33 1.01-.33.3667 0 .7034.11 1.01.33.3067.2133.5467.5033.72.87.18.3667.27.7667.27 1.2s-.09.8333-.27 1.2c-.1733.3667-.4133.66-.72.88-.3066.2133-.6433.32-1.01.32zm0-.24c.4 0 .6867-.1867.86-.56.1734-.38.26-.9133.26-1.6s-.0866-1.2167-.26-1.59c-.1733-.38-.46-.57-.86-.57s-.6866.19-.86.57c-.1733.3733-.26.9033-.26 1.59s.0867 1.22.26 1.6c.1734.3733.46.56.86.56zm2.5768-.12h.26c.16 0 .2934-.0467.4-.14.1067-.1.2167-.2367.33-.41l.9102-1.36-1.2202-1.95c-.0533-.08-.1066-.1367-.16-.17-.0466-.0333-.1266-.05-.24-.05h-.24v-.24h1.9802v.24h-.24c-.133 0-.2.0667-.2.2 0 .0733.02.1433.06.21l.69 1.12.66-.98c.06-.0867.09-.1933.09-.32 0-.0733-.027-.13-.08-.17-.047-.04-.1-.06-.16-.06h-.24v-.24h1.74v.24h-.25c-.14 0-.263.0333-.37.1s-.213.18-.32.34l-.91 1.34 1.27 2.04c.06.0933.12.16.18.2s.163.06.31.06h.23v.24h-2.08v-.24h.3c.073 0 .13-.0133.17-.04.04-.0333.06-.0767.06-.13 0-.0333-.007-.0667-.02-.1-.013-.04-.03-.0767-.05-.11l-.8-1.28-.6802 1.01c-.1.16-.15.2767-.15.35 0 .2.0834.3.25.3h.1802v.24h-1.6602zm5.1352 2.3h.52c.08 0 .137-.0167.17-.05s.05-.09.05-.17v-5.94c0-.08-.017-.1367-.05-.17s-.09-.05-.17-.05h-.52v-.24h1.46v.74l.04.01c.127-.2667.287-.4767.48-.63.2-.16.427-.24.68-.24.313 0 .603.1067.87.32.273.2067.49.4933.65.86s.24.7733.24 1.22-.08.8533-.24 1.22-.377.6567-.65.87c-.267.2067-.557.31-.87.31-.26 0-.493-.0833-.7-.25-.207-.1733-.36-.38-.46-.62l-.04.01v2.58c0 .08.017.1367.05.17s.09.05.17.05h.52v.24h-2.2zm2.55-2.22c.327 0 .573-.1833.74-.55s.25-.89.25-1.57-.083-1.2033-.25-1.57-.413-.55-.74-.55c-.2 0-.383.0733-.55.22s-.3.35-.4.61c-.093.2533-.14.53-.14.83v.92c0 .3.047.58.14.84.1.2533.233.4533.4.6s.35.22.55.22zm4.106.28c-.353 0-.66-.0867-.92-.26-.253-.1733-.38-.48-.38-.92 0-.34.087-.6067.26-.8s.373-.33.6-.41c.233-.0867.513-.16.84-.22l.92-.17v-.85c0-.62-.31-.93-.93-.93-.227 0-.433.06-.62.18-.187.1133-.28.2433-.28.39 0 .0667.01.1167.03.15.013.02.033.04.06.06.033.02.063.0333.09.04.12.0333.21.08.27.14.067.06.1.1433.1.25 0 .14-.043.24-.13.3-.08.06-.183.09-.31.09-.147 0-.28-.0567-.4-.17s-.18-.2767-.18-.49c0-.2467.067-.46.2-.64.14-.18.317-.3133.53-.4.22-.0933.443-.14.67-.14.44 0 .82.1167 1.14.35.32.2267.48.5833.48 1.07v2.46c0 .3333.103.5.31.5.167 0 .287-.0967.36-.29s.11-.43.11-.71h.18c0 .4-.06.7367-.18 1.01-.113.2733-.32.41-.62.41-.287 0-.503-.0833-.65-.25-.14-.1733-.217-.41-.23-.71l-.05-.02c-.1.2333-.263.4567-.49.67-.22.2067-.48.31-.78.31zm.16-.36c.3 0 .533-.1167.7-.35.173-.24.327-.5433.46-.91v-.95l-.87.19c-.32.0667-.553.2-.7.4-.14.1933-.21.47-.21.83 0 .3067.063.5167.19.63.127.1067.27.16.43.16zm3.401 0h.42c.08 0 .137-.0167.17-.05.034-.0333.05-.09.05-.17v-3.64c0-.08-.016-.1367-.05-.17-.033-.0333-.09-.05-.17-.05h-.42v-.24h2v.24h-.42c-.08 0-.136.0167-.17.05-.033.0333-.05.09-.05.17v1.6h2v-1.6c0-.08-.016-.1367-.05-.17-.033-.0333-.09-.05-.17-.05h-.42v-.24h2v.24h-.42c-.08 0-.136.0167-.17.05-.033.0333-.05.09-.05.17v3.64c0 .08.017.1367.05.17.034.0333.09.05.17.05h.42v.24h-2v-.24h.42c.08 0 .137-.0167.17-.05.034-.0333.05-.09.05-.17v-1.8h-2v1.8c0 .08.017.1367.05.17.034.0333.09.05.17.05h.42v.24h-2zm5.479 0h.42c.08 0 .137-.0167.17-.05s.05-.09.05-.17v-3.64c0-.08-.017-.1367-.05-.17s-.09-.05-.17-.05h-.42v-.24h2v.24h-.42c-.08 0-.137.0167-.17.05s-.05.09-.05.17v1.62h1.16c.28 0 .53.0567.75.17.22.1067.393.2567.52.45.127.1867.19.3933.19.62 0 .22-.07.4267-.21.62-.133.1867-.313.3367-.54.45-.22.1133-.457.17-.71.17h-2.52zm3.84 0h.42c.08 0 .137-.0167.17-.05s.05-.09.05-.17v-3.64c0-.08-.017-.1367-.05-.17s-.09-.05-.17-.05h-.42v-.24h2v.24h-.42c-.08 0-.137.0167-.17.05s-.05.09-.05.17v3.64c0 .08.017.1367.05.17s.09.05.17.05h.42v.24h-2zm-1.6 0c.28 0 .493-.0933.64-.28s.22-.4267.22-.72-.077-.5333-.23-.72c-.147-.1867-.357-.28-.63-.28h-.88v1.78c0 .08.017.1367.05.17s.09.05.17.05z" fill="#000"/><path d="m370.821 163.312c-.555 0-.997-.165-1.326-.494-.321-.329-.481-.815-.481-1.456v-1.521c0-.416-.104-.763-.312-1.04-.2-.286-.512-.429-.936-.429h-.806v3.9c0 .113.021.195.065.247.052.043.134.065.247.065h.91v.416h-4.368v-.416h.91c.121 0 .203-.022.247-.065.043-.052.065-.134.065-.247v-7.8c0-.121-.022-.204-.065-.247-.044-.043-.126-.065-.247-.065h-.91v-.416h4.368v.416h-.91c-.113 0-.195.022-.247.065-.044.043-.065.126-.065.247v3.432h.897c.476 0 .797-.182.962-.546.173-.373.26-.971.26-1.794 0-.589.117-1.04.351-1.352.312-.416.719-.624 1.222-.624.268 0 .498.074.689.221.199.139.351.316.455.533.104.208.156.416.156.624 0 .312-.065.576-.195.793-.122.208-.278.364-.468.468-.182.104-.36.156-.533.156-.26 0-.477-.074-.65-.221-.165-.156-.247-.347-.247-.572 0-.303.138-.572.416-.806.147-.121.221-.247.221-.377s-.078-.195-.234-.195c-.217 0-.399.126-.546.377-.148.251-.221.654-.221 1.209v.416c0 .858-.213 1.465-.637 1.82v.065c.676.165 1.191.433 1.547.806.355.364.533.927.533 1.69v1.443c0 .364.121.546.364.546.225 0 .39-.186.494-.559s.156-.828.156-1.365h.416c0 .841-.113 1.495-.338 1.963-.226.459-.629.689-1.209.689zm5.035-.156c-.468 0-.906-.139-1.313-.416-.407-.286-.732-.676-.975-1.17s-.364-1.044-.364-1.651.121-1.157.364-1.651.568-.88.975-1.157c.407-.286.845-.429 1.313-.429s.906.143 1.313.429c.407.277.732.663.975 1.157s.364 1.044.364 1.651-.121 1.157-.364 1.651-.568.884-.975 1.17c-.407.277-.845.416-1.313.416zm0-.312c.373 0 .628-.23.767-.689.147-.459.221-1.205.221-2.236s-.074-1.777-.221-2.236c-.139-.459-.394-.689-.767-.689s-.633.23-.78.689c-.139.459-.208 1.205-.208 2.236s.069 1.777.208 2.236c.147.459.407.689.78.689zm3.639 2.808h.728c.078 0 .13-.017.156-.052.035-.026.052-.078.052-.156v-8.086c0-.078-.017-.13-.052-.156-.026-.035-.078-.052-.156-.052h-.728v-.312h2.444v.754h.078c.113-.243.273-.455.481-.637.217-.182.464-.273.741-.273.451 0 .854.156 1.209.468.355.303.633.706.832 1.209.199.494.299 1.014.299 1.56 0 .555-.095 1.079-.286 1.573s-.459.897-.806 1.209c-.347.303-.745.455-1.196.455-.277 0-.524-.082-.741-.247s-.394-.39-.533-.676l-.078.026v3.185c0 .078.013.13.039.156.035.035.091.052.169.052h.728v.312h-3.38zm3.562-2.912c.572 0 .858-.94.858-2.821s-.286-2.821-.858-2.821c-.199 0-.386.126-.559.377-.165.243-.299.576-.403 1.001s-.156.893-.156 1.404c0 .624.061 1.153.182 1.586s.269.754.442.962.338.312.494.312zm3.665-.052h.494c.078 0 .13-.013.156-.039.035-.035.052-.091.052-.169v-5.122c0-.078-.017-.13-.052-.156-.026-.035-.078-.052-.156-.052h-.494v-.312h2.834v.312h-.416c-.078 0-.134.017-.169.052-.026.026-.039.078-.039.156v4.108l1.976-3.874v-.234c0-.078-.017-.13-.052-.156-.026-.035-.078-.052-.156-.052h-.416v-.312h2.834v.312h-.494c-.078 0-.134.017-.169.052-.026.026-.039.078-.039.156v5.122c0 .078.013.134.039.169.035.026.091.039.169.039h.494v.312h-2.834v-.312h.416c.078 0 .13-.013.156-.039.035-.035.052-.091.052-.169v-4.108l-1.976 3.874v.234c0 .078.013.134.039.169.035.026.091.039.169.039h.416v.312h-2.834zm7.232.052h.442c.199 0 .342-.035.429-.104.086-.078.16-.199.221-.364.225-.659.398-1.387.52-2.184.121-.797.182-1.603.182-2.418 0-.139-.035-.26-.104-.364-.061-.104-.156-.156-.286-.156h-.442v-.312h4.81v.312h-.624c-.078 0-.135.017-.169.052-.026.026-.039.078-.039.156v4.914c0 .156.03.273.091.351.069.078.177.117.325.117h.702l.078 2.288h-.364c-.009-.061-.044-.204-.104-.429-.061-.217-.139-.42-.234-.611-.139-.286-.299-.524-.481-.715-.182-.182-.425-.273-.728-.273h-2.392c-.304 0-.546.091-.728.273-.182.191-.343.429-.481.715-.096.199-.174.407-.234.624-.061.217-.096.355-.104.416h-.364zm3.224-.052c.138 0 .208-.078.208-.234v-5.096c0-.078-.018-.13-.052-.156-.026-.035-.078-.052-.156-.052h-.273c-.295 0-.499.108-.611.325-.104.217-.165.507-.182.871-.018.529-.078 1.118-.182 1.768-.096.65-.2 1.187-.312 1.612-.087.312-.13.546-.13.702 0 .078.03.143.091.195.06.043.125.065.195.065zm6.468.468c-.468 0-.906-.139-1.313-.416-.407-.286-.732-.676-.975-1.17s-.364-1.044-.364-1.651.121-1.157.364-1.651.568-.88.975-1.157c.407-.286.845-.429 1.313-.429s.906.143 1.313.429c.407.277.732.663.975 1.157s.364 1.044.364 1.651-.121 1.157-.364 1.651-.568.884-.975 1.17c-.407.277-.845.416-1.313.416zm0-.312c.373 0 .628-.23.767-.689.147-.459.221-1.205.221-2.236s-.074-1.777-.221-2.236c-.139-.459-.394-.689-.767-.689s-.633.23-.78.689c-.139.459-.208 1.205-.208 2.236s.069 1.777.208 2.236c.147.459.407.689.78.689zm3.639 2.808h.728c.078 0 .13-.017.156-.052.035-.026.052-.078.052-.156v-8.086c0-.078-.017-.13-.052-.156-.026-.035-.078-.052-.156-.052h-.728v-.312h2.444v.754h.078c.113-.243.273-.455.481-.637.217-.182.464-.273.741-.273.451 0 .854.156 1.209.468.355.303.633.706.832 1.209.199.494.299 1.014.299 1.56 0 .555-.095 1.079-.286 1.573s-.459.897-.806 1.209c-.347.303-.745.455-1.196.455-.277 0-.524-.082-.741-.247s-.394-.39-.533-.676l-.078.026v3.185c0 .078.013.13.039.156.035.035.091.052.169.052h.728v.312h-3.38zm3.562-2.912c.572 0 .858-.94.858-2.821s-.286-2.821-.858-2.821c-.199 0-.386.126-.559.377-.165.243-.299.576-.403 1.001s-.156.893-.156 1.404c0 .624.061 1.153.182 1.586s.269.754.442.962.338.312.494.312z" fill="#c60000"/><path d="m364.08 242.68h.72c.18 0 .27-.09.27-.27v-5.94c0-.093-.023-.16-.07-.2-.04-.047-.107-.07-.2-.07h-.72v-.32h5.4l.12 2.62h-.25c-.007-.04-.027-.137-.06-.29-.027-.16-.073-.35-.14-.57-.067-.227-.153-.437-.26-.63-.133-.247-.313-.443-.54-.59s-.507-.22-.84-.22h-1.25c-.093 0-.163.023-.21.07-.04.04-.06.107-.06.2v2.65h1.79c.42 0 .8.083 1.14.25.347.16.62.387.82.68s.3.63.3 1.01-.1.717-.3 1.01-.473.523-.82.69c-.34.16-.72.24-1.14.24h-3.7zm3.53 0c.453 0 .793-.14 1.02-.42.233-.287.35-.687.35-1.2s-.117-.91-.35-1.19c-.227-.287-.567-.43-1.02-.43h-1.62v2.97c0 .18.09.27.27.27zm3.31.08h.42c.08 0 .137-.017.17-.05s.05-.09.05-.17v-3.64c0-.08-.017-.137-.05-.17s-.09-.05-.17-.05h-.42v-.24h2v.24h-.42c-.08 0-.137.017-.17.05s-.05.09-.05.17v2.94l1.9-2.68v-.26c0-.08-.017-.137-.05-.17s-.09-.05-.17-.05h-.42v-.24h2v.24h-.42c-.08 0-.137.017-.17.05s-.05.09-.05.17v3.64c0 .08.017.137.05.17s.09.05.17.05h.42v.24h-2v-.24h.42c.08 0 .137-.017.17-.05s.05-.09.05-.17v-2.94l-1.9 2.68v.26c0 .08.017.137.05.17s.09.05.17.05h.42v.24h-2zm7.481.36c-.367 0-.703-.107-1.01-.32-.307-.22-.55-.513-.73-.88-.173-.367-.26-.767-.26-1.2 0-.367.01-.693.03-.98s.067-.57.14-.85c.107-.413.3-.797.58-1.15.247-.32.523-.567.83-.74.307-.18.667-.343 1.08-.49.227-.087.407-.167.54-.24.14-.08.233-.17.28-.27.027-.047.047-.13.06-.25h.22v.14c0 .467-.13.813-.39 1.04-.26.22-.577.377-.95.47-.32.08-.607.173-.86.28-.247.1-.46.233-.64.4-.173.16-.31.343-.41.55-.093.207-.15.41-.17.61l.07.02c.187-.293.42-.523.7-.69s.577-.25.89-.25c.367 0 .703.11 1.01.33.307.213.547.503.72.87.18.367.27.767.27 1.2s-.09.833-.27 1.2c-.173.367-.413.66-.72.88-.307.213-.643.32-1.01.32zm0-.24c.4 0 .687-.187.86-.56.173-.38.26-.913.26-1.6s-.087-1.217-.26-1.59c-.173-.38-.46-.57-.86-.57s-.687.19-.86.57c-.173.373-.26.903-.26 1.59s.087 1.22.26 1.6c.173.373.46.56.86.56zm3.451.24c-.3 0-.517-.087-.65-.26s-.2-.35-.2-.53c0-.193.047-.35.14-.47.1-.12.24-.18.42-.18.14 0 .247.047.32.14.08.087.12.193.12.32 0 .08-.02.157-.06.23s-.09.123-.15.15c-.08.033-.12.103-.12.21 0 .04.017.077.05.11.04.027.08.04.12.04.267 0 .47-.137.61-.41s.24-.727.3-1.36l.09-1.07c.04-.493.06-.853.06-1.08 0-.1-.017-.17-.05-.21-.033-.047-.11-.07-.23-.07h-.38v-.24h3.3v.24h-.42c-.08 0-.137.017-.17.05s-.05.09-.05.17v3.64c0 .08.017.137.05.17s.09.05.17.05h.41v.24h-2v-.24h.43c.08 0 .137-.017.17-.05s.05-.09.05-.17v-3.64c0-.08-.017-.137-.05-.17s-.09-.05-.17-.05h-.33c-.16 0-.277.06-.35.18-.067.113-.11.293-.13.54l-.15 1.79c-.047.613-.16 1.09-.34 1.43-.18.333-.45.5-.81.5zm4.449-.36h.42c.08 0 .137-.017.17-.05s.05-.09.05-.17v-3.64c0-.08-.017-.137-.05-.17s-.09-.05-.17-.05h-.42v-.24h2v.24h-.42c-.08 0-.137.017-.17.05s-.05.09-.05.17v2.94l1.9-2.68v-.26c0-.08-.017-.137-.05-.17s-.09-.05-.17-.05h-.42v-.24h2v.24h-.42c-.08 0-.137.017-.17.05s-.05.09-.05.17v3.64c0 .08.017.137.05.17s.09.05.17.05h.42v.24h-2v-.24h.42c.08 0 .137-.017.17-.05s.05-.09.05-.17v-2.94l-1.9 2.68v.26c0 .08.017.137.05.17s.09.05.17.05h.42v.24h-2zm7.481.36c-.367 0-.704-.107-1.01-.32-.307-.22-.55-.513-.73-.88-.174-.367-.26-.767-.26-1.2s.086-.833.26-1.2c.18-.367.423-.657.73-.87.306-.22.643-.33 1.01-.33.366 0 .703.11 1.01.33.306.213.546.503.72.87.18.367.27.767.27 1.2s-.09.833-.27 1.2c-.174.367-.414.66-.72.88-.307.213-.644.32-1.01.32zm0-.24c.4 0 .686-.187.86-.56.173-.38.26-.913.26-1.6s-.087-1.217-.26-1.59c-.174-.38-.46-.57-.86-.57s-.687.19-.86.57c-.174.373-.26.903-.26 1.59s.086 1.22.26 1.6c.173.373.46.56.86.56zm3.841-.12h.42c.08 0 .136-.017.17-.05.033-.033.05-.09.05-.17v-3.64c0-.08-.017-.137-.05-.17-.034-.033-.09-.05-.17-.05-.214 0-.394.047-.54.14-.147.087-.26.207-.34.36-.1.2-.177.41-.23.63-.047.213-.07.343-.07.39h-.2l.07-1.76h3.79l.06 1.76h-.2c0-.047-.027-.177-.08-.39-.047-.22-.12-.43-.22-.63-.08-.153-.194-.273-.34-.36-.147-.093-.327-.14-.54-.14-.08 0-.137.017-.17.05-.034.033-.05.09-.05.17v3.64c0 .08.016.137.05.17.033.033.09.05.17.05h.42v.24h-2zm5.896.36c-.62 0-1.12-.21-1.5-.63-.373-.42-.56-1.003-.56-1.75 0-.427.084-.823.25-1.19.167-.373.397-.67.69-.89.3-.227.634-.34 1-.34.407 0 .74.11 1 .33s.447.5.56.84c.12.333.18.677.18 1.03 0 .073-.023.123-.07.15-.046.02-.126.03-.24.03h-2.49c0 .667.094 1.197.28 1.59.194.393.507.59.94.59.307 0 .594-.117.86-.35.274-.233.447-.597.52-1.09h.24c-.04.487-.21.89-.51 1.21-.293.313-.676.47-1.15.47zm.76-2.66c0-.533-.07-.983-.21-1.35s-.37-.55-.69-.55c-.34 0-.6.187-.78.56-.173.367-.26.813-.26 1.34zm5.23 2.66c-.32 0-.547-.087-.68-.26-.127-.18-.197-.46-.21-.84-.013-.467-.067-.797-.16-.99-.087-.193-.253-.29-.5-.29h-.64v1.8c0 .08.017.137.05.17s.09.05.17.05h.42v.24h-2v-.24h.42c.08 0 .137-.017.17-.05s.05-.09.05-.17v-3.63c0-.08-.017-.137-.05-.17s-.09-.05-.17-.05h-.42v-.24h2v.24h-.42c-.08 0-.137.017-.17.05s-.05.09-.05.17v1.59h.65c.22 0 .373-.127.46-.38.093-.26.153-.577.18-.95.02-.287.097-.5.23-.64.14-.14.303-.21.49-.21.22 0 .383.073.49.22.113.147.17.31.17.49s-.053.327-.16.44-.233.17-.38.17c-.133 0-.237-.037-.31-.11s-.11-.163-.11-.27c0-.06.017-.117.05-.17.033-.06.07-.103.11-.13.073-.053.11-.11.11-.17 0-.093-.053-.14-.16-.14-.08 0-.15.047-.21.14-.053.087-.083.21-.09.37-.02.34-.073.65-.16.93s-.227.453-.42.52v.03c.42.12.727.303.92.55.093.113.16.25.2.41s.07.347.09.56c.02.187.05.333.09.44.047.107.12.16.22.16.16 0 .267-.097.32-.29s.08-.397.08-.61h.18c0 .313-.06.603-.18.87-.113.26-.337.39-.67.39zm2.85 0c-.354 0-.66-.087-.92-.26-.254-.173-.38-.48-.38-.92 0-.34.086-.607.26-.8.173-.193.373-.33.6-.41.233-.087.513-.16.84-.22l.92-.17v-.85c0-.62-.31-.93-.93-.93-.227 0-.434.06-.62.18-.187.113-.28.243-.28.39 0 .067.01.117.03.15.013.02.033.04.06.06.033.02.063.033.09.04.12.033.21.08.27.14.066.06.1.143.1.25 0 .14-.044.24-.13.3-.08.06-.184.09-.31.09-.147 0-.28-.057-.4-.17s-.18-.277-.18-.49c0-.247.066-.46.2-.64.14-.18.316-.313.53-.4.22-.093.443-.14.67-.14.44 0 .82.117 1.14.35.32.227.48.583.48 1.07v2.46c0 .333.103.5.31.5.166 0 .286-.097.36-.29.073-.193.11-.43.11-.71h.18c0 .4-.06.737-.18 1.01-.114.273-.32.41-.62.41-.287 0-.504-.083-.65-.25-.14-.173-.217-.41-.23-.71l-.05-.02c-.1.233-.264.457-.49.67-.22.207-.48.31-.78.31zm.16-.36c.3 0 .533-.117.7-.35.173-.24.326-.543.46-.91v-.95l-.87.19c-.32.067-.554.2-.7.4-.14.193-.21.47-.21.83 0 .307.063.517.19.63.126.107.27.16.43.16z" fill="#000"/><path d="m569.971 243.18c-.4 0-.773-.08-1.12-.24-.34-.16-.613-.383-.82-.67-.2-.293-.3-.633-.3-1.02 0-.253.077-.463.23-.63.16-.173.347-.26.56-.26.227 0 .4.067.52.2.127.127.19.29.19.49 0 .167-.046.3-.14.4-.086.093-.196.153-.33.18-.1.02-.183.047-.25.08-.066.033-.1.09-.1.17 0 .187.084.357.25.51.167.147.374.263.62.35.247.08.477.12.69.12.594 0 1.044-.163 1.35-.49.314-.327.47-.77.47-1.33 0-.46-.106-.86-.32-1.2-.206-.347-.54-.52-1-.52h-1.02v-.36h1c.427 0 .744-.143.95-.43.207-.293.31-.643.31-1.05 0-.413-.113-.76-.34-1.04-.22-.28-.546-.42-.98-.42-.54 0-.996.207-1.37.62-.373.407-.613.983-.72 1.73h-.25v-2.59h.25l.07.36c.02.08.044.137.07.17.034.033.077.05.13.05.08 0 .21-.06.39-.18.467-.32.944-.48 1.43-.48.534 0 .97.09 1.31.27s.587.407.74.68c.154.267.23.54.23.82 0 .287-.083.55-.25.79-.16.233-.35.423-.57.57-.22.14-.413.223-.58.25v.1c.227.02.464.117.71.29.247.167.454.387.62.66.167.267.25.547.25.84 0 .487-.136.897-.41 1.23-.273.327-.63.573-1.07.74-.433.16-.9.24-1.4.24zm5.141-.06c-.354 0-.66-.087-.92-.26-.254-.173-.38-.48-.38-.92 0-.34.086-.607.26-.8.173-.193.373-.33.6-.41.233-.087.513-.16.84-.22l.92-.17v-.85c0-.62-.31-.93-.93-.93-.227 0-.434.06-.62.18-.187.113-.28.243-.28.39 0 .067.01.117.03.15.013.02.033.04.06.06.033.02.063.033.09.04.12.033.21.08.27.14.066.06.1.143.1.25 0 .14-.044.24-.13.3-.08.06-.184.09-.31.09-.147 0-.28-.057-.4-.17s-.18-.277-.18-.49c0-.247.066-.46.2-.64.14-.18.316-.313.53-.4.22-.093.443-.14.67-.14.44 0 .82.117 1.14.35.32.227.48.583.48 1.07v2.46c0 .333.103.5.31.5.166 0 .286-.097.36-.29.073-.193.11-.43.11-.71h.18c0 .4-.06.737-.18 1.01-.114.273-.32.41-.62.41-.287 0-.504-.083-.65-.25-.14-.173-.217-.41-.23-.71l-.05-.02c-.1.233-.264.457-.49.67-.22.207-.48.31-.78.31zm.16-.36c.3 0 .533-.117.7-.35.173-.24.326-.543.46-.91v-.95l-.87.19c-.32.067-.554.2-.7.4-.14.193-.21.47-.21.83 0 .307.063.517.19.63.126.107.27.16.43.16zm3.401 0h.42c.08 0 .137-.017.17-.05s.05-.09.05-.17v-3.64c0-.08-.017-.137-.05-.17s-.09-.05-.17-.05h-.42v-.24h4.72v.24h-.42c-.08 0-.137.017-.17.05s-.05.09-.05.17v3.64c0 .08.017.137.05.17s.09.05.17.05h.42v.24h-2v-.24h.42c.08 0 .137-.017.17-.05s.05-.09.05-.17v-3.64c0-.08-.017-.137-.05-.17s-.09-.05-.17-.05h-1.56c-.08 0-.137.017-.17.05s-.05.09-.05.17v3.64c0 .08.017.137.05.17s.09.05.17.05h.42v.24h-2zm6.858.36c-.353 0-.66-.087-.92-.26-.253-.173-.38-.48-.38-.92 0-.34.087-.607.26-.8.174-.193.374-.33.6-.41.234-.087.514-.16.84-.22l.92-.17v-.85c0-.62-.31-.93-.93-.93-.226 0-.433.06-.62.18-.186.113-.28.243-.28.39 0 .067.01.117.03.15.014.02.034.04.06.06.034.02.064.033.09.04.12.033.21.08.27.14.067.06.1.143.1.25 0 .14-.043.24-.13.3-.08.06-.183.09-.31.09-.146 0-.28-.057-.4-.17s-.18-.277-.18-.49c0-.247.067-.46.2-.64.14-.18.317-.313.53-.4.22-.093.444-.14.67-.14.44 0 .82.117 1.14.35.32.227.48.583.48 1.07v2.46c0 .333.104.5.31.5.167 0 .287-.097.36-.29.074-.193.11-.43.11-.71h.18c0 .4-.06.737-.18 1.01-.113.273-.32.41-.62.41-.286 0-.503-.083-.65-.25-.14-.173-.216-.41-.23-.71l-.05-.02c-.1.233-.263.457-.49.67-.22.207-.48.31-.78.31zm.16-.36c.3 0 .534-.117.7-.35.174-.24.327-.543.46-.91v-.95l-.87.19c-.32.067-.553.2-.7.4-.14.193-.21.47-.21.83 0 .307.064.517.19.63.127.107.27.16.43.16zm5.462.36c-.387 0-.73-.107-1.03-.32-.293-.213-.523-.503-.69-.87-.16-.367-.24-.77-.24-1.21s.083-.843.25-1.21.397-.657.69-.87c.3-.213.64-.32 1.02-.32.307 0 .573.067.8.2.227.127.4.293.52.5.12.2.18.403.18.61s-.053.37-.16.49c-.107.113-.237.17-.39.17-.133 0-.247-.043-.34-.13-.087-.087-.13-.19-.13-.31s.033-.22.1-.3.147-.133.24-.16c.107-.033.16-.093.16-.18 0-.08-.037-.17-.11-.27-.067-.1-.173-.187-.32-.26-.147-.08-.33-.12-.55-.12-.42 0-.707.18-.86.54-.147.36-.22.9-.22 1.62s.073 1.26.22 1.62.433.54.86.54c.407 0 .72-.143.94-.43s.353-.623.4-1.01h.24c-.02.273-.09.54-.21.8-.12.253-.297.463-.53.63s-.513.25-.84.25zm2.295-.36h.42c.08 0 .137-.017.17-.05.034-.033.05-.09.05-.17v-3.64c0-.08-.016-.137-.05-.17-.033-.033-.09-.05-.17-.05h-.42v-.24h2v.24h-.42c-.08 0-.136.017-.17.05-.033.033-.05.09-.05.17v1.6h2v-1.6c0-.08-.016-.137-.05-.17-.033-.033-.09-.05-.17-.05h-.42v-.24h2v.24h-.42c-.08 0-.136.017-.17.05-.033.033-.05.09-.05.17v3.64c0 .08.017.137.05.17.034.033.09.05.17.05h.42v.24h-2v-.24h.42c.08 0 .137-.017.17-.05.034-.033.05-.09.05-.17v-1.8h-2v1.8c0 .08.017.137.05.17.034.033.09.05.17.05h.42v.24h-2zm7.579.36c-.367 0-.703-.107-1.01-.32-.307-.22-.55-.513-.73-.88-.173-.367-.26-.767-.26-1.2s.087-.833.26-1.2c.18-.367.423-.657.73-.87.307-.22.643-.33 1.01-.33s.703.11 1.01.33c.307.213.547.503.72.87.18.367.27.767.27 1.2s-.09.833-.27 1.2c-.173.367-.413.66-.72.88-.307.213-.643.32-1.01.32zm0-.24c.4 0 .687-.187.86-.56.173-.38.26-.913.26-1.6s-.087-1.217-.26-1.59c-.173-.38-.46-.57-.86-.57s-.687.19-.86.57c-.173.373-.26.903-.26 1.59s.087 1.22.26 1.6c.173.373.46.56.86.56zm5.161-4.82c-.187 0-.387-.037-.6-.11-.207-.073-.384-.18-.53-.32-.14-.14-.21-.303-.21-.49 0-.193.046-.343.14-.45.093-.113.223-.17.39-.17.133 0 .236.033.31.1.08.067.12.157.12.27s-.037.2-.11.26c-.074.053-.147.08-.22.08-.067 0-.117.017-.15.05-.034.027-.05.077-.05.15 0 .127.09.217.27.27.186.053.4.08.64.08s.45-.027.63-.08c.186-.053.28-.143.28-.27 0-.073-.017-.123-.05-.15-.034-.033-.084-.05-.15-.05-.074 0-.147-.027-.22-.08-.074-.06-.11-.147-.11-.26s.036-.203.11-.27c.08-.067.186-.1.32-.1.166 0 .296.057.39.17.093.107.14.257.14.45 0 .187-.074.35-.22.49-.14.14-.317.247-.53.32-.207.073-.404.11-.59.11zm-2.3 4.7h.42c.08 0 .136-.017.17-.05.033-.033.05-.09.05-.17v-3.64c0-.08-.017-.137-.05-.17-.034-.033-.09-.05-.17-.05h-.42v-.24h2v.24h-.42c-.08 0-.137.017-.17.05-.034.033-.05.09-.05.17v2.94l1.9-2.68v-.26c0-.08-.017-.137-.05-.17-.034-.033-.09-.05-.17-.05h-.42v-.24h2v.24h-.42c-.08 0-.137.017-.17.05-.034.033-.05.09-.05.17v3.64c0 .08.016.137.05.17.033.033.09.05.17.05h.42v.24h-2v-.24h.42c.08 0 .136-.017.17-.05.033-.033.05-.09.05-.17v-2.94l-1.9 2.68v.26c0 .08.016.137.05.17.033.033.09.05.17.05h.42v.24h-2zm-28.477 12h.42c.08 0 .137-.017.17-.05.034-.033.05-.09.05-.17v-3.64c0-.08-.016-.137-.05-.17-.033-.033-.09-.05-.17-.05h-.42v-.24h2.34c.42 0 .76.1 1.02.3.267.2.4.467.4.8 0 .3-.1.537-.3.71-.193.167-.413.277-.66.33v.02c.134.013.294.063.48.15.187.08.35.203.49.37s.21.373.21.62c0 .38-.156.687-.47.92-.306.227-.67.34-1.09.34h-2.42zm2.2-2.26c.274 0 .474-.087.6-.26.134-.173.2-.393.2-.66 0-.26-.073-.473-.22-.64-.146-.173-.333-.26-.56-.26h-.64c-.08 0-.136.017-.17.05-.033.033-.05.09-.05.17v1.6zm.1 2.26c.267 0 .467-.1.6-.3.134-.207.2-.447.2-.72 0-.293-.066-.533-.2-.72-.133-.187-.34-.28-.62-.28h-.92v1.8c0 .08.017.137.05.17.034.033.09.05.17.05zm2.505 0h.42c.08 0 .137-.017.17-.05s.05-.09.05-.17v-3.64c0-.08-.017-.137-.05-.17s-.09-.05-.17-.05h-.42v-.24h2v.24h-.42c-.08 0-.137.017-.17.05s-.05.09-.05.17v1.62h1.16c.28 0 .53.057.75.17.22.107.393.257.52.45.127.187.19.393.19.62 0 .22-.07.427-.21.62-.133.187-.313.337-.54.45-.22.113-.457.17-.71.17h-2.52zm3.84 0h.42c.08 0 .137-.017.17-.05s.05-.09.05-.17v-3.64c0-.08-.017-.137-.05-.17s-.09-.05-.17-.05h-.42v-.24h2v.24h-.42c-.08 0-.137.017-.17.05s-.05.09-.05.17v3.64c0 .08.017.137.05.17s.09.05.17.05h.42v.24h-2zm-1.6 0c.28 0 .493-.093.64-.28s.22-.427.22-.72-.077-.533-.23-.72c-.147-.187-.357-.28-.63-.28h-.88v1.78c0 .08.017.137.05.17s.09.05.17.05zm4.322 0h.26c.16 0 .293-.047.4-.14.106-.1.216-.237.33-.41l.91-1.36-1.22-1.95c-.054-.08-.107-.137-.16-.17-.047-.033-.127-.05-.24-.05h-.24v-.24h1.98v.24h-.24c-.134 0-.2.067-.2.2 0 .073.02.143.06.21l.69 1.12.66-.98c.06-.087.09-.193.09-.32 0-.073-.027-.13-.08-.17-.047-.04-.1-.06-.16-.06h-.241v-.24h1.741v.24h-.25c-.14 0-.264.033-.37.1-.107.067-.214.18-.32.34l-.91 1.34 1.27 2.04c.06.093.12.16.18.2s.163.06.31.06h.23v.24h-2.08v-.24h.3c.073 0 .13-.013.17-.04.04-.033.06-.077.06-.13 0-.033-.007-.067-.02-.1-.014-.04-.03-.077-.05-.11l-.8-1.28-.68 1.01c-.1.16-.15.277-.15.35 0 .2.083.3.25.3h.18v.24h-1.66zm7.091.36c-.367 0-.704-.107-1.01-.32-.307-.22-.55-.513-.73-.88-.174-.367-.26-.767-.26-1.2s.086-.833.26-1.2c.18-.367.423-.657.73-.87.306-.22.643-.33 1.01-.33.366 0 .703.11 1.01.33.306.213.546.503.72.87.18.367.27.767.27 1.2s-.09.833-.27 1.2c-.174.367-.414.66-.72.88-.307.213-.644.32-1.01.32zm0-.24c.4 0 .686-.187.86-.56.173-.38.26-.913.26-1.6s-.087-1.217-.26-1.59c-.174-.38-.46-.57-.86-.57s-.687.19-.86.57c-.174.373-.26.903-.26 1.59s.086 1.22.26 1.6c.173.373.46.56.86.56zm2.377-.08h.34c.154 0 .264-.027.33-.08.074-.06.134-.153.18-.28.187-.553.32-1.093.4-1.62.087-.527.13-1.107.13-1.74 0-.267-.073-.4-.22-.4h-.42v-.24h3.6v.24h-.42c-.08 0-.136.017-.17.05-.033.033-.05.09-.05.17v3.54c.007.127.034.22.08.28.047.053.127.08.24.08h.54l.06 1.76h-.2c0-.047-.026-.18-.08-.4-.046-.213-.12-.42-.22-.62-.186-.36-.476-.54-.87-.54h-1.92c-.24 0-.426.047-.56.14-.133.093-.243.227-.33.4-.1.2-.176.407-.23.62-.046.22-.07.353-.07.4h-.2zm2.76-.04c.08 0 .137-.017.17-.05.034-.033.05-.09.05-.17v-3.64c0-.08-.016-.137-.05-.17-.033-.033-.09-.05-.17-.05h-.49c-.406 0-.61.307-.61.92 0 .313-.033.69-.1 1.13-.066.44-.133.78-.2 1.02-.12.433-.18.71-.18.83 0 .06.02.107.06.14.047.027.1.04.16.04z" fill="#000"/><path d="m87.2419 243.12c-.34 0-.6-.077-.78-.23s-.3-.347-.36-.58c-.06-.24-.0967-.537-.11-.89-.0333-.633-.11-1.123-.23-1.47-.1133-.353-.3367-.53-.67-.53h-1.1v2.99c0 .18.09.27.27.27h.72v.32h-2.9v-.32h.72c.18 0 .27-.09.27-.27v-5.94c0-.093-.0233-.16-.07-.2-.04-.047-.1067-.07-.2-.07h-.72v-.32h2.9v.32h-.72c-.0933 0-.1633.023-.21.07-.04.04-.06.107-.06.2v2.63h.86c.3733 0 .6333-.137.78-.41.1467-.28.2367-.737.27-1.37.02-.44.0867-.767.2-.98.0933-.18.2167-.32.37-.42.16-.107.3233-.16.49-.16.3 0 .54.073.72.22.2267.207.34.473.34.8 0 .24-.0533.443-.16.61-.0667.1-.1533.18-.26.24-.1.06-.2067.09-.32.09-.18 0-.32-.05-.42-.15-.1067-.107-.16-.233-.16-.38 0-.127.0233-.23.07-.31.0533-.08.13-.153.23-.22.1467-.113.22-.213.22-.3 0-.073-.0333-.123-.1-.15-.0667-.033-.1333-.05-.2-.05-.2533 0-.43.113-.53.34-.0933.227-.1567.6-.19 1.12-.0267.407-.0833.747-.17 1.02s-.2533.467-.5.58v.05c.4333.2.7533.393.96.58s.35.42.43.7c.08.273.1367.673.17 1.2.02.307.06.537.12.69.0667.147.1867.22.36.22.2 0 .35-.137.45-.41.1-.28.15-.563.15-.85h.25c0 .393-.0833.78-.25 1.16-.1667.373-.4767.56-.93.56zm3.9754 0c-.3667 0-.7033-.107-1.01-.32-.3067-.22-.55-.513-.73-.88-.1733-.367-.26-.767-.26-1.2s.0867-.833.26-1.2c.18-.367.4233-.657.73-.87.3067-.22.6433-.33 1.01-.33s.7033.11 1.01.33c.3067.213.5467.503.72.87.18.367.27.767.27 1.2s-.09.833-.27 1.2c-.1733.367-.4133.66-.72.88-.3067.213-.6433.32-1.01.32zm0-.24c.4 0 .6867-.187.86-.56.1733-.38.26-.913.26-1.6s-.0867-1.217-.26-1.59c-.1733-.38-.46-.57-.86-.57s-.6867.19-.86.57c-.1733.373-.26.903-.26 1.59s.0867 1.22.26 1.6c.1733.373.46.56.86.56zm3.7209-3.7v3.04c0 .18.0267.317.08.41.0534.087.1534.13.3.13h.2v.24h-1.44v-.24h.2c.1467 0 .2467-.043.3-.13.0534-.093.08-.23.08-.41v-3.32c0-.08-.0166-.137-.05-.17-.0333-.033-.09-.05-.17-.05h-.36v-.24h1.38l1.12 3.32 1.07-3.32h1.43v.24h-.36c-.08 0-.1366.017-.17.05-.0333.033-.05.09-.05.17v3.64c0 .08.0167.137.05.17.0334.033.09.05.17.05h.36v.24h-1.88v-.24h.36c.08 0 .1367-.017.17-.05.0334-.033.05-.09.05-.17v-3.44l-1.3 3.98h-.18zm4.9018 3.58h.42c.08 0 .137-.017.17-.05s.05-.09.05-.17v-3.64c0-.08-.017-.137-.05-.17s-.09-.05-.17-.05h-.42v-.24h2v.24h-.42c-.08 0-.137.017-.17.05s-.05.09-.05.17v1.6h2v-1.6c0-.08-.017-.137-.05-.17s-.09-.05-.17-.05h-.42v-.24h2v.24h-.42c-.08 0-.137.017-.17.05s-.05.09-.05.17v3.64c0 .08.017.137.05.17s.09.05.17.05h.42v.24h-2v-.24h.42c.08 0 .137-.017.17-.05s.05-.09.05-.17v-1.8h-2v1.8c0 .08.017.137.05.17s.09.05.17.05h.42v.24h-2zm6.858.36c-.353 0-.66-.087-.92-.26-.253-.173-.38-.48-.38-.92 0-.34.087-.607.26-.8.174-.193.374-.33.6-.41.234-.087.514-.16.84-.22l.92-.17v-.85c0-.62-.31-.93-.93-.93-.226 0-.433.06-.62.18-.186.113-.28.243-.28.39 0 .067.01.117.03.15.014.02.034.04.06.06.034.02.064.033.09.04.12.033.21.08.27.14.067.06.1.143.1.25 0 .14-.043.24-.13.3-.08.06-.183.09-.31.09-.146 0-.28-.057-.4-.17s-.18-.277-.18-.49c0-.247.067-.46.2-.64.14-.18.317-.313.53-.4.22-.093.444-.14.67-.14.44 0 .82.117 1.14.35.32.227.48.583.48 1.07v2.46c0 .333.104.5.31.5.167 0 .287-.097.36-.29.074-.193.11-.43.11-.71h.18c0 .4-.06.737-.18 1.01-.113.273-.32.41-.62.41-.286 0-.503-.083-.65-.25-.14-.173-.216-.41-.23-.71l-.05-.02c-.1.233-.263.457-.49.67-.22.207-.48.31-.78.31zm.16-.36c.3 0 .534-.117.7-.35.174-.24.327-.543.46-.91v-.95l-.87.19c-.32.067-.553.2-.7.4-.14.193-.21.47-.21.83 0 .307.064.517.19.63.127.107.27.16.43.16zm4.382 0h.42c.08 0 .137-.017.17-.05s.05-.09.05-.17v-3.64c0-.08-.017-.137-.05-.17s-.09-.05-.17-.05c-.213 0-.393.047-.54.14-.147.087-.26.207-.34.36-.1.2-.177.41-.23.63-.047.213-.07.343-.07.39h-.2l.07-1.76h3.79l.06 1.76h-.2c0-.047-.027-.177-.08-.39-.047-.22-.12-.43-.22-.63-.08-.153-.193-.273-.34-.36-.147-.093-.327-.14-.54-.14-.08 0-.137.017-.17.05s-.05.09-.05.17v3.64c0 .08.017.137.05.17s.09.05.17.05h.42v.24h-2zm5.117.36c-.354 0-.66-.087-.92-.26-.254-.173-.38-.48-.38-.92 0-.34.086-.607.26-.8.173-.193.373-.33.6-.41.233-.087.513-.16.84-.22l.92-.17v-.85c0-.62-.31-.93-.93-.93-.227 0-.434.06-.62.18-.187.113-.28.243-.28.39 0 .067.01.117.03.15.013.02.033.04.06.06.033.02.063.033.09.04.12.033.21.08.27.14.066.06.1.143.1.25 0 .14-.044.24-.13.3-.08.06-.184.09-.31.09-.147 0-.28-.057-.4-.17s-.18-.277-.18-.49c0-.247.066-.46.2-.64.14-.18.316-.313.53-.4.22-.093.443-.14.67-.14.44 0 .82.117 1.14.35.32.227.48.583.48 1.07v2.46c0 .333.103.5.31.5.166 0 .286-.097.36-.29.073-.193.11-.43.11-.71h.18c0 .4-.06.737-.18 1.01-.114.273-.32.41-.62.41-.287 0-.504-.083-.65-.25-.14-.173-.217-.41-.23-.71l-.05-.02c-.1.233-.264.457-.49.67-.22.207-.48.31-.78.31zm.16-.36c.3 0 .533-.117.7-.35.173-.24.326-.543.46-.91v-.95l-.87.19c-.32.067-.554.2-.7.4-.14.193-.21.47-.21.83 0 .307.063.517.19.63.126.107.27.16.43.16zm-30.9007 12h.42c.08 0 .1367-.017.17-.05.0334-.033.05-.09.05-.17v-3.64c0-.08-.0166-.137-.05-.17-.0333-.033-.09-.05-.17-.05h-.42v-.24h4.72v.24h-.42c-.08 0-.1366.017-.17.05-.0333.033-.05.09-.05.17v3.64c0 .08.0167.137.05.17.0334.033.09.05.17.05h.42v.24h-2v-.24h.42c.08 0 .1367-.017.17-.05.0334-.033.05-.09.05-.17v-3.64c0-.08-.0166-.137-.05-.17-.0333-.033-.09-.05-.17-.05h-1.56c-.08 0-.1366.017-.17.05-.0333.033-.05.09-.05.17v3.64c0 .08.0167.137.05.17.0334.033.09.05.17.05h.42v.24h-2zm5.4785 0h.42c.08 0 .1367-.017.17-.05.0334-.033.05-.09.05-.17v-3.64c0-.08-.0166-.137-.05-.17-.0333-.033-.09-.05-.17-.05h-.42v-.24h2v.24h-.42c-.08 0-.1366.017-.17.05-.0333.033-.05.09-.05.17v2.94l1.9-2.68v-.26c0-.08-.0166-.137-.05-.17-.0333-.033-.09-.05-.17-.05h-.42v-.24h2v.24h-.42c-.08 0-.1366.017-.17.05-.0333.033-.05.09-.05.17v3.64c0 .08.0167.137.05.17.0334.033.09.05.17.05h.42v.24h-2v-.24h.42c.08 0 .1367-.017.17-.05.0334-.033.05-.09.05-.17v-2.94l-1.9 2.68v.26c0 .08.0167.137.05.17.0334.033.09.05.17.05h.42v.24h-2zm7.4409.36c-.3867 0-.73-.107-1.03-.32-.2933-.213-.5233-.503-.69-.87-.16-.367-.24-.77-.24-1.21s.0833-.843.25-1.21.3967-.657.69-.87c.3-.213.64-.32 1.02-.32.3067 0 .5733.067.8.2.2267.127.4.293.52.5.12.2.1803.403.1803.61s-.0536.37-.1603.49c-.1067.113-.2367.17-.39.17-.1333 0-.2467-.043-.34-.13-.0867-.087-.13-.19-.13-.31s.0333-.22.1-.3.1467-.133.24-.16c.1067-.033.16-.093.16-.18 0-.08-.0367-.17-.11-.27-.0667-.1-.1733-.187-.32-.26-.1467-.08-.33-.12-.55-.12-.42 0-.7067.18-.86.54-.1467.36-.22.9-.22 1.62s.0733 1.26.22 1.62.4333.54.86.54c.4067 0 .72-.143.94-.43s.3533-.623.4-1.01h.2403c-.02.273-.09.54-.2103.8-.12.253-.2967.463-.53.63s-.5133.25-.84.25zm3.6753 0c-.353 0-.66-.087-.92-.26-.253-.173-.38-.48-.38-.92 0-.34.087-.607.26-.8.174-.193.374-.33.6-.41.234-.087.514-.16.84-.22l.92-.17v-.85c0-.62-.31-.93-.93-.93-.226 0-.433.06-.62.18-.186.113-.28.243-.28.39 0 .067.01.117.03.15.014.02.034.04.06.06.034.02.064.033.09.04.12.033.21.08.27.14.067.06.1.143.1.25 0 .14-.043.24-.13.3-.08.06-.183.09-.31.09-.146 0-.28-.057-.4-.17s-.18-.277-.18-.49c0-.247.067-.46.2-.64.14-.18.317-.313.53-.4.22-.093.444-.14.67-.14.44 0 .82.117 1.14.35.32.227.48.583.48 1.07v2.46c0 .333.104.5.31.5.167 0 .287-.097.36-.29.074-.193.11-.43.11-.71h.18c0 .4-.06.737-.18 1.01-.113.273-.32.41-.62.41-.286 0-.503-.083-.65-.25-.14-.173-.216-.41-.23-.71l-.05-.02c-.1.233-.263.457-.49.67-.22.207-.48.31-.78.31zm.16-.36c.3 0 .534-.117.7-.35.174-.24.327-.543.46-.91v-.95l-.87.19c-.32.067-.553.2-.7.4-.14.193-.21.47-.21.83 0 .307.064.517.19.63.127.107.27.16.43.16zm3.302 2.3h.52c.08 0 .136-.017.17-.05.033-.033.05-.09.05-.17v-5.94c0-.08-.017-.137-.05-.17-.034-.033-.09-.05-.17-.05h-.52v-.24h1.46v.74l.04.01c.126-.267.286-.477.48-.63.2-.16.426-.24.68-.24.313 0 .603.107.87.32.273.207.49.493.65.86s.24.773.24 1.22-.08.853-.24 1.22-.377.657-.65.87c-.267.207-.557.31-.87.31-.26 0-.494-.083-.7-.25-.207-.173-.36-.38-.46-.62l-.04.01v2.58c0 .08.016.137.05.17.033.033.09.05.17.05h.52v.24h-2.2zm2.55-2.22c.326 0 .573-.183.74-.55.166-.367.25-.89.25-1.57s-.084-1.203-.25-1.57c-.167-.367-.414-.55-.74-.55-.2 0-.384.073-.55.22-.167.147-.3.35-.4.61-.094.253-.14.53-.14.83v.92c0 .3.046.58.14.84.1.253.233.453.4.6.166.147.35.22.55.22zm3.405.28c-.253 0-.44-.057-.56-.17-.12-.12-.193-.253-.22-.4-.026-.153-.04-.333-.04-.54h.2c0 .24.024.433.07.58.047.14.147.21.3.21.114 0 .19-.047.23-.14.047-.1.08-.257.1-.47.02-.327.104-.603.25-.83.147-.227.4-.42.76-.58v-.02c-.153-.013-.326-.063-.52-.15-.186-.087-.353-.21-.5-.37-.14-.16-.21-.353-.21-.58 0-.407.157-.71.47-.91.314-.207.69-.31 1.13-.31h2.26v.24h-.42c-.08 0-.136.017-.17.05-.033.033-.05.09-.05.17v3.64c0 .08.017.137.05.17.034.033.09.05.17.05h.42v.24h-2.02v-.24h.44c.08 0 .137-.017.17-.05.034-.033.05-.09.05-.17v-1.72h-.86c-.22 0-.376.097-.47.29-.093.187-.146.47-.16.85-.013.387-.076.677-.19.87-.113.193-.34.29-.68.29zm2.36-2.54v-1.68c0-.08-.016-.137-.05-.17-.033-.033-.09-.05-.17-.05h-.49c-.293 0-.52.087-.68.26-.153.167-.23.407-.23.72 0 .28.067.503.2.67.134.167.31.25.53.25z" fill="#000"/><path d="m26 160.743-19 12.257v-24z" fill="#000"/><path d="m0 156h7v10h-7z" fill="#0c0c0c"/><path d="m268.339 138 7.661 11h-15z" fill="#000"/><path d="m271 149h5v5h-5z" fill="#0c0c0c" transform="matrix(0 1 -1 0 420 -122)"/><path d="m502.339 138 7.661 11h-15z" fill="#000"/><path d="m505 149h5v5h-5z" fill="#0c0c0c" transform="matrix(0 1 -1 0 654 -356)"/><path d="m269 149v11h-228" stroke="#000" stroke-dasharray="5 5"/><path d="m359 160c-27.641 0-55.634 0-90 0" stroke="#000" stroke-dasharray="5 5"/><path d="m503 149v11c-75.727 0 9.152 0-85 0" stroke="#000" stroke-dasharray="5 5"/></svg>