<svg width="634" height="348" viewBox="0 0 634 348" fill="none" xmlns="http://www.w3.org/2000/svg">
<path d="M387.203 11.2798V129" stroke="black" stroke-width="8" stroke-miterlimit="10"/>
<path d="M552.562 189V307" stroke="black" stroke-width="8" stroke-miterlimit="10"/>
<path d="M162.891 189V307" stroke="black" stroke-width="8" stroke-miterlimit="10"/>
<path d="M162.891 7V129" stroke="black" stroke-width="8" stroke-miterlimit="10"/>
<path d="M627.999 129H515.594" stroke="black" stroke-width="8" stroke-miterlimit="10"/>
<path d="M628.001 189H603.521" stroke="black" stroke-width="8" stroke-miterlimit="10"/>
<path d="M573.545 189H515.594" stroke="black" stroke-width="8" stroke-miterlimit="10"/>
<path d="M485.621 189H282.791" stroke="black" stroke-width="8" stroke-miterlimit="10"/>
<path d="M252.815 189H115.93" stroke="black" stroke-width="8" stroke-miterlimit="10"/>
<path d="M485.621 129H282.791" stroke="black" stroke-width="8" stroke-miterlimit="10"/>
<path d="M252.815 129H115.93" stroke="black" stroke-width="8" stroke-miterlimit="10"/>
<path d="M38.9941 189H85.9547" stroke="black" stroke-width="8" stroke-miterlimit="10"/>
<path d="M38.9941 129H85.9547" stroke="black" stroke-width="8" stroke-miterlimit="10"/>
<path d="M187.871 7H119.928" stroke="black" stroke-width="14" stroke-miterlimit="10"/>
<path d="M248.068 7H227.086" stroke="black" stroke-width="14" stroke-miterlimit="10"/>
<path d="M308.018 7H287.535" stroke="black" stroke-width="14" stroke-miterlimit="10"/>
<path d="M420.925 7H347.736" stroke="black" stroke-width="14" stroke-miterlimit="10"/>
<path d="M480.623 7H460.141" stroke="black" stroke-width="14" stroke-miterlimit="10"/>
<path d="M541.072 7H520.09" stroke="black" stroke-width="14" stroke-miterlimit="10"/>
<path d="M520.59 307H574.545" stroke="black" stroke-width="14" stroke-miterlimit="10"/>
<path d="M403.689 307H480.625" stroke="black" stroke-width="14" stroke-miterlimit="10"/>
<path d="M287.785 307H364.221" stroke="black" stroke-width="14" stroke-miterlimit="10"/>
<path d="M119.928 307H247.82" stroke="black" stroke-width="14" stroke-miterlimit="10"/>
<path d="M80.4957 7H36.9961V142" stroke="black" stroke-width="14" stroke-miterlimit="10"/>
<path d="M602.512 307H627V7H580.492" stroke="black" stroke-width="14" stroke-miterlimit="10"/>
<path d="M36.9961 175.5V307H80.4957" stroke="black" stroke-width="14" stroke-miterlimit="10"/>
<path d="M286.788 1V13H248.819V1H286.788ZM287.787 0H247.82V14H287.787V0Z" fill="black"/>
<path d="M286.788 6V8H248.819V6H286.788ZM287.787 5H247.82V9H287.787V5Z" fill="black"/>
<path d="M226.836 1V13H188.868V1H226.836ZM227.836 0H187.869V14H227.836V0Z" fill="black"/>
<path d="M226.836 6V8H188.868V6H226.836ZM227.836 5H187.869V9H227.836V5Z" fill="black"/>
<path d="M346.737 1V13H308.769V1H346.737ZM347.736 0H307.77V14H347.736V0Z" fill="black"/>
<path d="M346.737 6V8H308.769V6H346.737ZM347.736 5H307.77V9H347.736V5Z" fill="black"/>
<path d="M286.788 301V313H248.819V301H286.788ZM287.787 300H247.82V314H287.787V300Z" fill="black"/>
<path d="M286.788 306V308H248.819V306H286.788ZM287.787 305H247.82V309H287.787V305Z" fill="black"/>
<path d="M403.188 301V313H365.22V301H403.188ZM404.187 300H364.221V314H404.187V300Z" fill="black"/>
<path d="M403.188 306V308H365.22V306H403.188ZM404.187 305H364.221V309H404.187V305Z" fill="black"/>
<path d="M519.59 1V13H481.622V1H519.59ZM520.589 0H480.623V14H520.589V0Z" fill="black"/>
<path d="M519.59 6V8H481.622V6H519.59ZM520.589 5H480.623V9H520.589V5Z" fill="black"/>
<path d="M459.641 1V13H421.673V1H459.641ZM460.64 0H420.674V14H460.64V0Z" fill="black"/>
<path d="M459.641 6V8H421.673V6H459.641ZM460.64 5H420.674V9H460.64V5Z" fill="black"/>
<path d="M579.541 1V13H541.573V1H579.541ZM580.541 0H540.574V14H580.541V0Z" fill="black"/>
<path d="M579.541 6V8H541.573V6H579.541ZM580.541 5H540.574V9H580.541V5Z" fill="black"/>
<path d="M118.928 1V13H80.9601V1H118.928ZM119.927 0H79.9609V14H119.927V0Z" fill="black"/>
<path d="M118.928 6V8H80.9601V6H118.928ZM119.927 5H79.9609V9H119.927V5Z" fill="black"/>
<path d="M118.928 301V313H80.9601V301H118.928ZM119.927 300H79.9609V314H119.927V300Z" fill="black"/>
<path d="M118.928 306V308H80.9601V306H118.928ZM119.927 305H79.9609V309H119.927V305Z" fill="black"/>
<path d="M519.59 301V313H481.622V301H519.59ZM520.589 300H480.623V314H520.589V300Z" fill="black"/>
<path d="M519.59 306V308H481.622V306H519.59ZM520.589 305H480.623V309H520.589V305Z" fill="black"/>
<path d="M626.5 305V335H552.562V305" stroke="black" stroke-miterlimit="10"/>
<path d="M626.5 334V339H552.562V334" stroke="black" stroke-miterlimit="10"/>
<path d="M626.5 338V343H552.562V338" stroke="black" stroke-miterlimit="10"/>
<path d="M626.5 342V347H552.562V342" stroke="black" stroke-miterlimit="10"/>
<path d="M287.785 186V192H244.821V186H287.785ZM288.784 185H243.822V193H288.784V185Z" fill="black"/>
<path d="M522.588 186V192H479.624V186H522.588ZM523.587 185H478.625V193H523.587V185Z" fill="black"/>
<path d="M522.588 126V132H479.624V126H522.588ZM523.587 125H478.625V133H523.587V125Z" fill="black"/>
<path d="M287.785 126V132H244.821V126H287.785ZM288.784 125H243.822V133H288.784V125Z" fill="black"/>
<path d="M123.924 126V132H80.9601V126H123.924ZM124.923 125H79.9609V133H124.923V125Z" fill="black"/>
<path d="M607.518 186V192H564.554V186H607.518ZM608.517 185H563.555V193H608.517V185Z" fill="black"/>
<path d="M607.518 304V310H564.554V304H607.518ZM608.517 303H563.555V311H608.517V303Z" fill="black"/>
<path d="M120.926 186V192H77.9621V186H120.926ZM121.925 185H76.9629V193H121.925V185Z" fill="black"/>
<path d="M39.9941 138V181H33.9992V138H39.9941ZM40.9933 137H33V182H40.9933V137Z" fill="black"/>
<path d="M89.9323 68.12C89.5923 68.12 89.3323 68.0433 89.1523 67.89C88.9723 67.7367 88.8523 67.5433 88.7923 67.31C88.7323 67.07 88.6957 66.7733 88.6823 66.42C88.649 65.7867 88.5723 65.2967 88.4523 64.95C88.339 64.5967 88.1157 64.42 87.7823 64.42H86.6823V67.41C86.6823 67.59 86.7723 67.68 86.9523 67.68H87.6723V68H84.7723V67.68H85.4923C85.6723 67.68 85.7623 67.59 85.7623 67.41V61.47C85.7623 61.3767 85.739 61.31 85.6923 61.27C85.6523 61.2233 85.5857 61.2 85.4923 61.2H84.7723V60.88H87.6723V61.2H86.9523C86.859 61.2 86.789 61.2233 86.7423 61.27C86.7023 61.31 86.6823 61.3767 86.6823 61.47V64.1H87.5423C87.9157 64.1 88.1757 63.9633 88.3223 63.69C88.469 63.41 88.559 62.9533 88.5923 62.32C88.6123 61.88 88.679 61.5533 88.7923 61.34C88.8857 61.16 89.009 61.02 89.1623 60.92C89.3223 60.8133 89.4857 60.76 89.6523 60.76C89.9523 60.76 90.1923 60.8333 90.3723 60.98C90.599 61.1867 90.7123 61.4533 90.7123 61.78C90.7123 62.02 90.659 62.2233 90.5523 62.39C90.4857 62.49 90.399 62.57 90.2923 62.63C90.1923 62.69 90.0857 62.72 89.9723 62.72C89.7923 62.72 89.6523 62.67 89.5523 62.57C89.4457 62.4633 89.3923 62.3367 89.3923 62.19C89.3923 62.0633 89.4157 61.96 89.4623 61.88C89.5157 61.8 89.5923 61.7267 89.6923 61.66C89.839 61.5467 89.9123 61.4467 89.9123 61.36C89.9123 61.2867 89.879 61.2367 89.8123 61.21C89.7457 61.1767 89.679 61.16 89.6123 61.16C89.359 61.16 89.1823 61.2733 89.0823 61.5C88.989 61.7267 88.9257 62.1 88.8923 62.62C88.8657 63.0267 88.809 63.3667 88.7223 63.64C88.6357 63.9133 88.469 64.1067 88.2223 64.22V64.27C88.6557 64.47 88.9757 64.6633 89.1823 64.85C89.389 65.0367 89.5323 65.27 89.6123 65.55C89.6923 65.8233 89.749 66.2233 89.7823 66.75C89.8023 67.0567 89.8423 67.2867 89.9023 67.44C89.969 67.5867 90.089 67.66 90.2623 67.66C90.4623 67.66 90.6123 67.5233 90.7123 67.25C90.8123 66.97 90.8623 66.6867 90.8623 66.4H91.1123C91.1123 66.7933 91.029 67.18 90.8623 67.56C90.6957 67.9333 90.3857 68.12 89.9323 68.12ZM93.1877 68.12C92.8344 68.12 92.5277 68.0333 92.2677 67.86C92.0144 67.6867 91.8877 67.38 91.8877 66.94C91.8877 66.6 91.9744 66.3333 92.1477 66.14C92.3211 65.9467 92.5211 65.81 92.7477 65.73C92.9811 65.6433 93.2611 65.57 93.5877 65.51L94.5077 65.34V64.49C94.5077 63.87 94.1977 63.56 93.5777 63.56C93.3511 63.56 93.1444 63.62 92.9577 63.74C92.7711 63.8533 92.6777 63.9833 92.6777 64.13C92.6777 64.1967 92.6877 64.2467 92.7077 64.28C92.7211 64.3 92.7411 64.32 92.7677 64.34C92.8011 64.36 92.8311 64.3733 92.8577 64.38C92.9777 64.4133 93.0677 64.46 93.1277 64.52C93.1944 64.58 93.2277 64.6633 93.2277 64.77C93.2277 64.91 93.1844 65.01 93.0977 65.07C93.0177 65.13 92.9144 65.16 92.7877 65.16C92.6411 65.16 92.5077 65.1033 92.3877 64.99C92.2677 64.8767 92.2077 64.7133 92.2077 64.5C92.2077 64.2533 92.2744 64.04 92.4077 63.86C92.5477 63.68 92.7244 63.5467 92.9377 63.46C93.1577 63.3667 93.3811 63.32 93.6077 63.32C94.0477 63.32 94.4277 63.4367 94.7477 63.67C95.0677 63.8967 95.2277 64.2533 95.2277 64.74V67.2C95.2277 67.5333 95.3311 67.7 95.5377 67.7C95.7044 67.7 95.8244 67.6033 95.8977 67.41C95.9711 67.2167 96.0077 66.98 96.0077 66.7H96.1877C96.1877 67.1 96.1277 67.4367 96.0077 67.71C95.8944 67.9833 95.6877 68.12 95.3877 68.12C95.1011 68.12 94.8844 68.0367 94.7377 67.87C94.5977 67.6967 94.5211 67.46 94.5077 67.16L94.4577 67.14C94.3577 67.3733 94.1944 67.5967 93.9677 67.81C93.7477 68.0167 93.4877 68.12 93.1877 68.12ZM93.3477 67.76C93.6477 67.76 93.8811 67.6433 94.0477 67.41C94.2211 67.17 94.3744 66.8667 94.5077 66.5V65.55L93.6377 65.74C93.3177 65.8067 93.0844 65.94 92.9377 66.14C92.7977 66.3333 92.7277 66.61 92.7277 66.97C92.7277 67.2767 92.7911 67.4867 92.9177 67.6C93.0444 67.7067 93.1877 67.76 93.3477 67.76ZM97.6091 64.18V67.22C97.6091 67.4 97.6358 67.5367 97.6891 67.63C97.7425 67.7167 97.8425 67.76 97.9891 67.76H98.1891V68H96.7491V67.76H96.9491C97.0958 67.76 97.1958 67.7167 97.2491 67.63C97.3025 67.5367 97.3291 67.4 97.3291 67.22V63.9C97.3291 63.82 97.3125 63.7633 97.2791 63.73C97.2458 63.6967 97.1891 63.68 97.1091 63.68H96.7491V63.44H98.1291L99.2491 66.76L100.319 63.44H101.749V63.68H101.389C101.309 63.68 101.252 63.6967 101.219 63.73C101.186 63.7633 101.169 63.82 101.169 63.9V67.54C101.169 67.62 101.186 67.6767 101.219 67.71C101.252 67.7433 101.309 67.76 101.389 67.76H101.749V68H99.8691V67.76H100.229C100.309 67.76 100.366 67.7433 100.399 67.71C100.432 67.6767 100.449 67.62 100.449 67.54V64.1L99.1491 68.08H98.9691L97.6091 64.18ZM104.671 68.12C104.051 68.12 103.551 67.91 103.171 67.49C102.798 67.07 102.611 66.4867 102.611 65.74C102.611 65.3133 102.694 64.9167 102.861 64.55C103.028 64.1767 103.258 63.88 103.551 63.66C103.851 63.4333 104.184 63.32 104.551 63.32C104.958 63.32 105.291 63.43 105.551 63.65C105.811 63.87 105.998 64.15 106.111 64.49C106.231 64.8233 106.291 65.1667 106.291 65.52C106.291 65.5933 106.268 65.6433 106.221 65.67C106.174 65.69 106.094 65.7 105.981 65.7H103.491C103.491 66.3667 103.584 66.8967 103.771 67.29C103.964 67.6833 104.278 67.88 104.711 67.88C105.018 67.88 105.304 67.7633 105.571 67.53C105.844 67.2967 106.018 66.9333 106.091 66.44H106.331C106.291 66.9267 106.121 67.33 105.821 67.65C105.528 67.9633 105.144 68.12 104.671 68.12ZM105.431 65.46C105.431 64.9267 105.361 64.4767 105.221 64.11C105.081 63.7433 104.851 63.56 104.531 63.56C104.191 63.56 103.931 63.7467 103.751 64.12C103.578 64.4867 103.491 64.9333 103.491 65.46H105.431ZM107.01 70.06H107.53C107.61 70.06 107.667 70.0433 107.7 70.01C107.734 69.9767 107.75 69.92 107.75 69.84V63.9C107.75 63.82 107.734 63.7633 107.7 63.73C107.667 63.6967 107.61 63.68 107.53 63.68H107.01V63.44H108.47V64.18L108.51 64.19C108.637 63.9233 108.797 63.7133 108.99 63.56C109.19 63.4 109.417 63.32 109.67 63.32C109.984 63.32 110.274 63.4267 110.54 63.64C110.814 63.8467 111.03 64.1333 111.19 64.5C111.35 64.8667 111.43 65.2733 111.43 65.72C111.43 66.1667 111.35 66.5733 111.19 66.94C111.03 67.3067 110.814 67.5967 110.54 67.81C110.274 68.0167 109.984 68.12 109.67 68.12C109.41 68.12 109.177 68.0367 108.97 67.87C108.764 67.6967 108.61 67.49 108.51 67.25L108.47 67.26V69.84C108.47 69.92 108.487 69.9767 108.52 70.01C108.554 70.0433 108.61 70.06 108.69 70.06H109.21V70.3H107.01V70.06ZM109.56 67.84C109.887 67.84 110.134 67.6567 110.3 67.29C110.467 66.9233 110.55 66.4 110.55 65.72C110.55 65.04 110.467 64.5167 110.3 64.15C110.134 63.7833 109.887 63.6 109.56 63.6C109.36 63.6 109.177 63.6733 109.01 63.82C108.844 63.9667 108.71 64.17 108.61 64.43C108.517 64.6833 108.47 64.96 108.47 65.26V66.18C108.47 66.48 108.517 66.76 108.61 67.02C108.71 67.2733 108.844 67.4733 109.01 67.62C109.177 67.7667 109.36 67.84 109.56 67.84ZM113.666 68.12C113.313 68.12 113.006 68.0333 112.746 67.86C112.493 67.6867 112.366 67.38 112.366 66.94C112.366 66.6 112.453 66.3333 112.626 66.14C112.8 65.9467 113 65.81 113.226 65.73C113.46 65.6433 113.74 65.57 114.066 65.51L114.986 65.34V64.49C114.986 63.87 114.676 63.56 114.056 63.56C113.83 63.56 113.623 63.62 113.436 63.74C113.25 63.8533 113.156 63.9833 113.156 64.13C113.156 64.1967 113.166 64.2467 113.186 64.28C113.2 64.3 113.22 64.32 113.246 64.34C113.28 64.36 113.31 64.3733 113.336 64.38C113.456 64.4133 113.546 64.46 113.606 64.52C113.673 64.58 113.706 64.6633 113.706 64.77C113.706 64.91 113.663 65.01 113.576 65.07C113.496 65.13 113.393 65.16 113.266 65.16C113.12 65.16 112.986 65.1033 112.866 64.99C112.746 64.8767 112.686 64.7133 112.686 64.5C112.686 64.2533 112.753 64.04 112.886 63.86C113.026 63.68 113.203 63.5467 113.416 63.46C113.636 63.3667 113.86 63.32 114.086 63.32C114.526 63.32 114.906 63.4367 115.226 63.67C115.546 63.8967 115.706 64.2533 115.706 64.74V67.2C115.706 67.5333 115.81 67.7 116.016 67.7C116.183 67.7 116.303 67.6033 116.376 67.41C116.45 67.2167 116.486 66.98 116.486 66.7H116.666C116.666 67.1 116.606 67.4367 116.486 67.71C116.373 67.9833 116.166 68.12 115.866 68.12C115.58 68.12 115.363 68.0367 115.216 67.87C115.076 67.6967 115 67.46 114.986 67.16L114.936 67.14C114.836 67.3733 114.673 67.5967 114.446 67.81C114.226 68.0167 113.966 68.12 113.666 68.12ZM113.826 67.76C114.126 67.76 114.36 67.6433 114.526 67.41C114.7 67.17 114.853 66.8667 114.986 66.5V65.55L114.116 65.74C113.796 65.8067 113.563 65.94 113.416 66.14C113.276 66.3333 113.206 66.61 113.206 66.97C113.206 67.2767 113.27 67.4867 113.396 67.6C113.523 67.7067 113.666 67.76 113.826 67.76ZM75.6556 79.8H75.9956C76.1489 79.8 76.2589 79.7733 76.3256 79.72C76.3989 79.66 76.4589 79.5667 76.5056 79.44C76.6923 78.8867 76.8256 78.3467 76.9056 77.82C76.9923 77.2933 77.0356 76.7133 77.0356 76.08C77.0356 75.8133 76.9623 75.68 76.8156 75.68H76.3956V75.44H79.9956V75.68H79.5756C79.4956 75.68 79.4389 75.6967 79.4056 75.73C79.3723 75.7633 79.3556 75.82 79.3556 75.9V79.44C79.3623 79.5667 79.3889 79.66 79.4356 79.72C79.4823 79.7733 79.5623 79.8 79.6756 79.8H80.2156L80.2756 81.56H80.0756C80.0756 81.5133 80.0489 81.38 79.9956 81.16C79.9489 80.9467 79.8756 80.74 79.7756 80.54C79.5889 80.18 79.2989 80 78.9056 80H76.9856C76.7456 80 76.5589 80.0467 76.4256 80.14C76.2923 80.2333 76.1823 80.3667 76.0956 80.54C75.9956 80.74 75.9189 80.9467 75.8656 81.16C75.8189 81.38 75.7956 81.5133 75.7956 81.56H75.5956L75.6556 79.8ZM78.4156 79.76C78.4956 79.76 78.5523 79.7433 78.5856 79.71C78.6189 79.6767 78.6356 79.62 78.6356 79.54V75.9C78.6356 75.82 78.6189 75.7633 78.5856 75.73C78.5523 75.6967 78.4956 75.68 78.4156 75.68H77.9256C77.5189 75.68 77.3156 75.9867 77.3156 76.6C77.3156 76.9133 77.2823 77.29 77.2156 77.73C77.1489 78.17 77.0823 78.51 77.0156 78.75C76.8956 79.1833 76.8356 79.46 76.8356 79.58C76.8356 79.64 76.8556 79.6867 76.8956 79.72C76.9423 79.7467 76.9956 79.76 77.0556 79.76H78.4156ZM81.3479 80.12C81.0479 80.12 80.8313 80.0333 80.6979 79.86C80.5646 79.6867 80.4979 79.51 80.4979 79.33C80.4979 79.1367 80.5446 78.98 80.6379 78.86C80.7379 78.74 80.8779 78.68 81.0579 78.68C81.1979 78.68 81.3046 78.7267 81.3779 78.82C81.4579 78.9067 81.4979 79.0133 81.4979 79.14C81.4979 79.22 81.4779 79.2967 81.4379 79.37C81.3979 79.4433 81.3479 79.4933 81.2879 79.52C81.2079 79.5533 81.1679 79.6233 81.1679 79.73C81.1679 79.77 81.1846 79.8067 81.2179 79.84C81.2579 79.8667 81.2979 79.88 81.3379 79.88C81.6046 79.88 81.8079 79.7433 81.9479 79.47C82.0879 79.1967 82.1879 78.7433 82.2479 78.11L82.3379 77.04C82.3779 76.5467 82.3979 76.1867 82.3979 75.96C82.3979 75.86 82.3813 75.79 82.3479 75.75C82.3146 75.7033 82.2379 75.68 82.1179 75.68H81.7379V75.44H85.0379V75.68H84.6179C84.5379 75.68 84.4813 75.6967 84.4479 75.73C84.4146 75.7633 84.3979 75.82 84.3979 75.9V79.54C84.3979 79.62 84.4146 79.6767 84.4479 79.71C84.4813 79.7433 84.5379 79.76 84.6179 79.76H85.0279V80H83.0279V79.76H83.4579C83.5379 79.76 83.5946 79.7433 83.6279 79.71C83.6613 79.6767 83.6779 79.62 83.6779 79.54V75.9C83.6779 75.82 83.6613 75.7633 83.6279 75.73C83.5946 75.6967 83.5379 75.68 83.4579 75.68H83.1279C82.9679 75.68 82.8513 75.74 82.7779 75.86C82.7113 75.9733 82.6679 76.1533 82.6479 76.4L82.4979 78.19C82.4513 78.8033 82.3379 79.28 82.1579 79.62C81.9779 79.9533 81.7079 80.12 81.3479 80.12ZM86.477 80.12C86.2237 80.12 86.037 80.0633 85.917 79.95C85.797 79.83 85.7237 79.6967 85.697 79.55C85.6703 79.3967 85.657 79.2167 85.657 79.01H85.857C85.857 79.25 85.8803 79.4433 85.927 79.59C85.9737 79.73 86.0737 79.8 86.227 79.8C86.3403 79.8 86.417 79.7533 86.457 79.66C86.5037 79.56 86.537 79.4033 86.557 79.19C86.577 78.8633 86.6603 78.5867 86.807 78.36C86.9537 78.1333 87.207 77.94 87.567 77.78V77.76C87.4137 77.7467 87.2403 77.6967 87.047 77.61C86.8603 77.5233 86.6937 77.4 86.547 77.24C86.407 77.08 86.337 76.8867 86.337 76.66C86.337 76.2533 86.4937 75.95 86.807 75.75C87.1203 75.5433 87.497 75.44 87.937 75.44H90.197V75.68H89.777C89.697 75.68 89.6403 75.6967 89.607 75.73C89.5737 75.7633 89.557 75.82 89.557 75.9V79.54C89.557 79.62 89.5737 79.6767 89.607 79.71C89.6403 79.7433 89.697 79.76 89.777 79.76H90.197V80H88.177V79.76H88.617C88.697 79.76 88.7537 79.7433 88.787 79.71C88.8203 79.6767 88.837 79.62 88.837 79.54V77.82H87.977C87.757 77.82 87.6003 77.9167 87.507 78.11C87.4137 78.2967 87.3603 78.58 87.347 78.96C87.3337 79.3467 87.2703 79.6367 87.157 79.83C87.0437 80.0233 86.817 80.12 86.477 80.12ZM88.837 77.58V75.9C88.837 75.82 88.8203 75.7633 88.787 75.73C88.7537 75.6967 88.697 75.68 88.617 75.68H88.127C87.8337 75.68 87.607 75.7667 87.447 75.94C87.2937 76.1067 87.217 76.3467 87.217 76.66C87.217 76.94 87.2837 77.1633 87.417 77.33C87.5503 77.4967 87.727 77.58 87.947 77.58H88.837ZM95.895 80.12C95.5284 80.12 95.1917 80.0133 94.885 79.8C94.5784 79.58 94.335 79.2867 94.155 78.92C93.9817 78.5533 93.895 78.1533 93.895 77.72C93.895 77.2867 93.9817 76.8867 94.155 76.52C94.335 76.1533 94.5784 75.8633 94.885 75.65C95.1917 75.43 95.5284 75.32 95.895 75.32C96.2617 75.32 96.5984 75.43 96.905 75.65C97.2117 75.8633 97.4517 76.1533 97.625 76.52C97.805 76.8867 97.895 77.2867 97.895 77.72C97.895 78.1533 97.805 78.5533 97.625 78.92C97.4517 79.2867 97.2117 79.58 96.905 79.8C96.5984 80.0133 96.2617 80.12 95.895 80.12ZM95.895 79.88C96.295 79.88 96.5817 79.6933 96.755 79.32C96.9284 78.94 97.015 78.4067 97.015 77.72C97.015 77.0333 96.9284 76.5033 96.755 76.13C96.5817 75.75 96.295 75.56 95.895 75.56C95.495 75.56 95.2084 75.75 95.035 76.13C94.8617 76.5033 94.775 77.0333 94.775 77.72C94.775 78.4067 94.8617 78.94 95.035 79.32C95.2084 79.6933 95.495 79.88 95.895 79.88ZM98.4718 79.76H98.7318C98.8918 79.76 99.0252 79.7133 99.1318 79.62C99.2385 79.52 99.3485 79.3833 99.4618 79.21L100.372 77.85L99.1518 75.9C99.0985 75.82 99.0452 75.7633 98.9918 75.73C98.9452 75.6967 98.8652 75.68 98.7518 75.68H98.5118V75.44H100.492V75.68H100.252C100.119 75.68 100.052 75.7467 100.052 75.88C100.052 75.9533 100.072 76.0233 100.112 76.09L100.802 77.21L101.462 76.23C101.522 76.1433 101.552 76.0367 101.552 75.91C101.552 75.8367 101.525 75.78 101.472 75.74C101.425 75.7 101.372 75.68 101.312 75.68H101.072V75.44H102.812V75.68H102.562C102.422 75.68 102.299 75.7133 102.192 75.78C102.085 75.8467 101.979 75.96 101.872 76.12L100.962 77.46L102.232 79.5C102.292 79.5933 102.352 79.66 102.412 79.7C102.472 79.74 102.575 79.76 102.722 79.76H102.952V80H100.872V79.76H101.172C101.245 79.76 101.302 79.7467 101.342 79.72C101.382 79.6867 101.402 79.6433 101.402 79.59C101.402 79.5567 101.395 79.5233 101.382 79.49C101.369 79.45 101.352 79.4133 101.332 79.38L100.532 78.1L99.8518 79.11C99.7518 79.27 99.7018 79.3867 99.7018 79.46C99.7018 79.66 99.7852 79.76 99.9518 79.76H100.132V80H98.4718V79.76ZM103.607 82.06H104.127C104.207 82.06 104.264 82.0433 104.297 82.01C104.33 81.9767 104.347 81.92 104.347 81.84V75.9C104.347 75.82 104.33 75.7633 104.297 75.73C104.264 75.6967 104.207 75.68 104.127 75.68H103.607V75.44H105.067V76.18L105.107 76.19C105.234 75.9233 105.394 75.7133 105.587 75.56C105.787 75.4 106.014 75.32 106.267 75.32C106.58 75.32 106.87 75.4267 107.137 75.64C107.41 75.8467 107.627 76.1333 107.787 76.5C107.947 76.8667 108.027 77.2733 108.027 77.72C108.027 78.1667 107.947 78.5733 107.787 78.94C107.627 79.3067 107.41 79.5967 107.137 79.81C106.87 80.0167 106.58 80.12 106.267 80.12C106.007 80.12 105.774 80.0367 105.567 79.87C105.36 79.6967 105.207 79.49 105.107 79.25L105.067 79.26V81.84C105.067 81.92 105.084 81.9767 105.117 82.01C105.15 82.0433 105.207 82.06 105.287 82.06H105.807V82.3H103.607V82.06ZM106.157 79.84C106.484 79.84 106.73 79.6567 106.897 79.29C107.064 78.9233 107.147 78.4 107.147 77.72C107.147 77.04 107.064 76.5167 106.897 76.15C106.73 75.7833 106.484 75.6 106.157 75.6C105.957 75.6 105.774 75.6733 105.607 75.82C105.44 75.9667 105.307 76.17 105.207 76.43C105.114 76.6833 105.067 76.96 105.067 77.26V78.18C105.067 78.48 105.114 78.76 105.207 79.02C105.307 79.2733 105.44 79.4733 105.607 79.62C105.774 79.7667 105.957 79.84 106.157 79.84ZM110.263 80.12C109.91 80.12 109.603 80.0333 109.343 79.86C109.09 79.6867 108.963 79.38 108.963 78.94C108.963 78.6 109.05 78.3333 109.223 78.14C109.396 77.9467 109.596 77.81 109.823 77.73C110.056 77.6433 110.336 77.57 110.663 77.51L111.583 77.34V76.49C111.583 75.87 111.273 75.56 110.653 75.56C110.426 75.56 110.22 75.62 110.033 75.74C109.846 75.8533 109.753 75.9833 109.753 76.13C109.753 76.1967 109.763 76.2467 109.783 76.28C109.796 76.3 109.816 76.32 109.843 76.34C109.876 76.36 109.906 76.3733 109.933 76.38C110.053 76.4133 110.143 76.46 110.203 76.52C110.27 76.58 110.303 76.6633 110.303 76.77C110.303 76.91 110.26 77.01 110.173 77.07C110.093 77.13 109.99 77.16 109.863 77.16C109.716 77.16 109.583 77.1033 109.463 76.99C109.343 76.8767 109.283 76.7133 109.283 76.5C109.283 76.2533 109.35 76.04 109.483 75.86C109.623 75.68 109.8 75.5467 110.013 75.46C110.233 75.3667 110.456 75.32 110.683 75.32C111.123 75.32 111.503 75.4367 111.823 75.67C112.143 75.8967 112.303 76.2533 112.303 76.74V79.2C112.303 79.5333 112.406 79.7 112.613 79.7C112.78 79.7 112.9 79.6033 112.973 79.41C113.046 79.2167 113.083 78.98 113.083 78.7H113.263C113.263 79.1 113.203 79.4367 113.083 79.71C112.97 79.9833 112.763 80.12 112.463 80.12C112.176 80.12 111.96 80.0367 111.813 79.87C111.673 79.6967 111.596 79.46 111.583 79.16L111.533 79.14C111.433 79.3733 111.27 79.5967 111.043 79.81C110.823 80.0167 110.563 80.12 110.263 80.12ZM110.423 79.76C110.723 79.76 110.956 79.6433 111.123 79.41C111.296 79.17 111.45 78.8667 111.583 78.5V77.55L110.713 77.74C110.393 77.8067 110.16 77.94 110.013 78.14C109.873 78.3333 109.803 78.61 109.803 78.97C109.803 79.2767 109.866 79.4867 109.993 79.6C110.12 79.7067 110.263 79.76 110.423 79.76ZM113.824 79.76H114.244C114.324 79.76 114.381 79.7433 114.414 79.71C114.448 79.6767 114.464 79.62 114.464 79.54V75.9C114.464 75.82 114.448 75.7633 114.414 75.73C114.381 75.6967 114.324 75.68 114.244 75.68H113.824V75.44H115.824V75.68H115.404C115.324 75.68 115.268 75.6967 115.234 75.73C115.201 75.7633 115.184 75.82 115.184 75.9V77.5H117.184V75.9C117.184 75.82 117.168 75.7633 117.134 75.73C117.101 75.6967 117.044 75.68 116.964 75.68H116.544V75.44H118.544V75.68H118.124C118.044 75.68 117.988 75.6967 117.954 75.73C117.921 75.7633 117.904 75.82 117.904 75.9V79.54C117.904 79.62 117.921 79.6767 117.954 79.71C117.988 79.7433 118.044 79.76 118.124 79.76H118.544V80H116.544V79.76H116.964C117.044 79.76 117.101 79.7433 117.134 79.71C117.168 79.6767 117.184 79.62 117.184 79.54V77.74H115.184V79.54C115.184 79.62 115.201 79.6767 115.234 79.71C115.268 79.7433 115.324 79.76 115.404 79.76H115.824V80H113.824V79.76ZM119.303 79.76H119.723C119.803 79.76 119.86 79.7433 119.893 79.71C119.926 79.6767 119.943 79.62 119.943 79.54V75.9C119.943 75.82 119.926 75.7633 119.893 75.73C119.86 75.6967 119.803 75.68 119.723 75.68H119.303V75.44H121.303V75.68H120.883C120.803 75.68 120.746 75.6967 120.713 75.73C120.68 75.7633 120.663 75.82 120.663 75.9V77.52H121.823C122.103 77.52 122.353 77.5767 122.573 77.69C122.793 77.7967 122.966 77.9467 123.093 78.14C123.22 78.3267 123.283 78.5333 123.283 78.76C123.283 78.98 123.213 79.1867 123.073 79.38C122.94 79.5667 122.76 79.7167 122.533 79.83C122.313 79.9433 122.076 80 121.823 80H119.303V79.76ZM123.143 79.76H123.563C123.643 79.76 123.7 79.7433 123.733 79.71C123.766 79.6767 123.783 79.62 123.783 79.54V75.9C123.783 75.82 123.766 75.7633 123.733 75.73C123.7 75.6967 123.643 75.68 123.563 75.68H123.143V75.44H125.143V75.68H124.723C124.643 75.68 124.586 75.6967 124.553 75.73C124.52 75.7633 124.503 75.82 124.503 75.9V79.54C124.503 79.62 124.52 79.6767 124.553 79.71C124.586 79.7433 124.643 79.76 124.723 79.76H125.143V80H123.143V79.76ZM121.543 79.76C121.823 79.76 122.036 79.6667 122.183 79.48C122.33 79.2933 122.403 79.0533 122.403 78.76C122.403 78.4667 122.326 78.2267 122.173 78.04C122.026 77.8533 121.816 77.76 121.543 77.76H120.663V79.54C120.663 79.62 120.68 79.6767 120.713 79.71C120.746 79.7433 120.803 79.76 120.883 79.76H121.543Z" fill="black"/>
<path d="M370.821 163.312C370.266 163.312 369.824 163.147 369.495 162.818C369.174 162.489 369.014 162.003 369.014 161.362V159.841C369.014 159.425 368.91 159.078 368.702 158.801C368.502 158.515 368.19 158.372 367.766 158.372H366.96V162.272C366.96 162.385 366.981 162.467 367.025 162.519C367.077 162.562 367.159 162.584 367.272 162.584H368.182V163H363.814V162.584H364.724C364.845 162.584 364.927 162.562 364.971 162.519C365.014 162.467 365.036 162.385 365.036 162.272V154.472C365.036 154.351 365.014 154.268 364.971 154.225C364.927 154.182 364.845 154.16 364.724 154.16H363.814V153.744H368.182V154.16H367.272C367.159 154.16 367.077 154.182 367.025 154.225C366.981 154.268 366.96 154.351 366.96 154.472V157.904H367.857C368.333 157.904 368.654 157.722 368.819 157.358C368.992 156.985 369.079 156.387 369.079 155.564C369.079 154.975 369.196 154.524 369.43 154.212C369.742 153.796 370.149 153.588 370.652 153.588C370.92 153.588 371.15 153.662 371.341 153.809C371.54 153.948 371.692 154.125 371.796 154.342C371.9 154.55 371.952 154.758 371.952 154.966C371.952 155.278 371.887 155.542 371.757 155.759C371.635 155.967 371.479 156.123 371.289 156.227C371.107 156.331 370.929 156.383 370.756 156.383C370.496 156.383 370.279 156.309 370.106 156.162C369.941 156.006 369.859 155.815 369.859 155.59C369.859 155.287 369.997 155.018 370.275 154.784C370.422 154.663 370.496 154.537 370.496 154.407C370.496 154.277 370.418 154.212 370.262 154.212C370.045 154.212 369.863 154.338 369.716 154.589C369.568 154.84 369.495 155.243 369.495 155.798V156.214C369.495 157.072 369.282 157.679 368.858 158.034V158.099C369.534 158.264 370.049 158.532 370.405 158.905C370.76 159.269 370.938 159.832 370.938 160.595V162.038C370.938 162.402 371.059 162.584 371.302 162.584C371.527 162.584 371.692 162.398 371.796 162.025C371.9 161.652 371.952 161.197 371.952 160.66H372.368C372.368 161.501 372.255 162.155 372.03 162.623C371.804 163.082 371.401 163.312 370.821 163.312ZM375.856 163.156C375.388 163.156 374.95 163.017 374.543 162.74C374.136 162.454 373.811 162.064 373.568 161.57C373.325 161.076 373.204 160.526 373.204 159.919C373.204 159.312 373.325 158.762 373.568 158.268C373.811 157.774 374.136 157.388 374.543 157.111C374.95 156.825 375.388 156.682 375.856 156.682C376.324 156.682 376.762 156.825 377.169 157.111C377.576 157.388 377.901 157.774 378.144 158.268C378.387 158.762 378.508 159.312 378.508 159.919C378.508 160.526 378.387 161.076 378.144 161.57C377.901 162.064 377.576 162.454 377.169 162.74C376.762 163.017 376.324 163.156 375.856 163.156ZM375.856 162.844C376.229 162.844 376.484 162.614 376.623 162.155C376.77 161.696 376.844 160.95 376.844 159.919C376.844 158.888 376.77 158.142 376.623 157.683C376.484 157.224 376.229 156.994 375.856 156.994C375.483 156.994 375.223 157.224 375.076 157.683C374.937 158.142 374.868 158.888 374.868 159.919C374.868 160.95 374.937 161.696 375.076 162.155C375.223 162.614 375.483 162.844 375.856 162.844ZM379.495 165.652H380.223C380.301 165.652 380.353 165.635 380.379 165.6C380.414 165.574 380.431 165.522 380.431 165.444V157.358C380.431 157.28 380.414 157.228 380.379 157.202C380.353 157.167 380.301 157.15 380.223 157.15H379.495V156.838H381.939V157.592H382.017C382.13 157.349 382.29 157.137 382.498 156.955C382.715 156.773 382.962 156.682 383.239 156.682C383.69 156.682 384.093 156.838 384.448 157.15C384.803 157.453 385.081 157.856 385.28 158.359C385.479 158.853 385.579 159.373 385.579 159.919C385.579 160.474 385.484 160.998 385.293 161.492C385.102 161.986 384.834 162.389 384.487 162.701C384.14 163.004 383.742 163.156 383.291 163.156C383.014 163.156 382.767 163.074 382.55 162.909C382.333 162.744 382.156 162.519 382.017 162.233L381.939 162.259V165.444C381.939 165.522 381.952 165.574 381.978 165.6C382.013 165.635 382.069 165.652 382.147 165.652H382.875V165.964H379.495V165.652ZM383.057 162.74C383.629 162.74 383.915 161.8 383.915 159.919C383.915 158.038 383.629 157.098 383.057 157.098C382.858 157.098 382.671 157.224 382.498 157.475C382.333 157.718 382.199 158.051 382.095 158.476C381.991 158.901 381.939 159.369 381.939 159.88C381.939 160.504 382 161.033 382.121 161.466C382.242 161.899 382.39 162.22 382.563 162.428C382.736 162.636 382.901 162.74 383.057 162.74ZM386.722 162.688H387.216C387.294 162.688 387.346 162.675 387.372 162.649C387.407 162.614 387.424 162.558 387.424 162.48V157.358C387.424 157.28 387.407 157.228 387.372 157.202C387.346 157.167 387.294 157.15 387.216 157.15H386.722V156.838H389.556V157.15H389.14C389.062 157.15 389.006 157.167 388.971 157.202C388.945 157.228 388.932 157.28 388.932 157.358V161.466L390.908 157.592V157.358C390.908 157.28 390.891 157.228 390.856 157.202C390.83 157.167 390.778 157.15 390.7 157.15H390.284V156.838H393.118V157.15H392.624C392.546 157.15 392.49 157.167 392.455 157.202C392.429 157.228 392.416 157.28 392.416 157.358V162.48C392.416 162.558 392.429 162.614 392.455 162.649C392.49 162.675 392.546 162.688 392.624 162.688H393.118V163H390.284V162.688H390.7C390.778 162.688 390.83 162.675 390.856 162.649C390.891 162.614 390.908 162.558 390.908 162.48V158.372L388.932 162.246V162.48C388.932 162.558 388.945 162.614 388.971 162.649C389.006 162.675 389.062 162.688 389.14 162.688H389.556V163H386.722V162.688ZM393.954 162.74H394.396C394.595 162.74 394.738 162.705 394.825 162.636C394.911 162.558 394.985 162.437 395.046 162.272C395.271 161.613 395.444 160.885 395.566 160.088C395.687 159.291 395.748 158.485 395.748 157.67C395.748 157.531 395.713 157.41 395.644 157.306C395.583 157.202 395.488 157.15 395.358 157.15H394.916V156.838H399.726V157.15H399.102C399.024 157.15 398.967 157.167 398.933 157.202C398.907 157.228 398.894 157.28 398.894 157.358V162.272C398.894 162.428 398.924 162.545 398.985 162.623C399.054 162.701 399.162 162.74 399.31 162.74H400.012L400.09 165.028H399.726C399.717 164.967 399.682 164.824 399.622 164.599C399.561 164.382 399.483 164.179 399.388 163.988C399.249 163.702 399.089 163.464 398.907 163.273C398.725 163.091 398.482 163 398.179 163H395.787C395.483 163 395.241 163.091 395.059 163.273C394.877 163.464 394.716 163.702 394.578 163.988C394.482 164.187 394.404 164.395 394.344 164.612C394.283 164.829 394.248 164.967 394.24 165.028H393.876L393.954 162.74ZM397.178 162.688C397.316 162.688 397.386 162.61 397.386 162.454V157.358C397.386 157.28 397.368 157.228 397.334 157.202C397.308 157.167 397.256 157.15 397.178 157.15H396.905C396.61 157.15 396.406 157.258 396.294 157.475C396.19 157.692 396.129 157.982 396.112 158.346C396.094 158.875 396.034 159.464 395.93 160.114C395.834 160.764 395.73 161.301 395.618 161.726C395.531 162.038 395.488 162.272 395.488 162.428C395.488 162.506 395.518 162.571 395.579 162.623C395.639 162.666 395.704 162.688 395.774 162.688H397.178ZM403.646 163.156C403.178 163.156 402.74 163.017 402.333 162.74C401.926 162.454 401.601 162.064 401.358 161.57C401.115 161.076 400.994 160.526 400.994 159.919C400.994 159.312 401.115 158.762 401.358 158.268C401.601 157.774 401.926 157.388 402.333 157.111C402.74 156.825 403.178 156.682 403.646 156.682C404.114 156.682 404.552 156.825 404.959 157.111C405.366 157.388 405.691 157.774 405.934 158.268C406.177 158.762 406.298 159.312 406.298 159.919C406.298 160.526 406.177 161.076 405.934 161.57C405.691 162.064 405.366 162.454 404.959 162.74C404.552 163.017 404.114 163.156 403.646 163.156ZM403.646 162.844C404.019 162.844 404.274 162.614 404.413 162.155C404.56 161.696 404.634 160.95 404.634 159.919C404.634 158.888 404.56 158.142 404.413 157.683C404.274 157.224 404.019 156.994 403.646 156.994C403.273 156.994 403.013 157.224 402.866 157.683C402.727 158.142 402.658 158.888 402.658 159.919C402.658 160.95 402.727 161.696 402.866 162.155C403.013 162.614 403.273 162.844 403.646 162.844ZM407.285 165.652H408.013C408.091 165.652 408.143 165.635 408.169 165.6C408.204 165.574 408.221 165.522 408.221 165.444V157.358C408.221 157.28 408.204 157.228 408.169 157.202C408.143 157.167 408.091 157.15 408.013 157.15H407.285V156.838H409.729V157.592H409.807C409.92 157.349 410.08 157.137 410.288 156.955C410.505 156.773 410.752 156.682 411.029 156.682C411.48 156.682 411.883 156.838 412.238 157.15C412.593 157.453 412.871 157.856 413.07 158.359C413.269 158.853 413.369 159.373 413.369 159.919C413.369 160.474 413.274 160.998 413.083 161.492C412.892 161.986 412.624 162.389 412.277 162.701C411.93 163.004 411.532 163.156 411.081 163.156C410.804 163.156 410.557 163.074 410.34 162.909C410.123 162.744 409.946 162.519 409.807 162.233L409.729 162.259V165.444C409.729 165.522 409.742 165.574 409.768 165.6C409.803 165.635 409.859 165.652 409.937 165.652H410.665V165.964H407.285V165.652ZM410.847 162.74C411.419 162.74 411.705 161.8 411.705 159.919C411.705 158.038 411.419 157.098 410.847 157.098C410.648 157.098 410.461 157.224 410.288 157.475C410.123 157.718 409.989 158.051 409.885 158.476C409.781 158.901 409.729 159.369 409.729 159.88C409.729 160.504 409.79 161.033 409.911 161.466C410.032 161.899 410.18 162.22 410.353 162.428C410.526 162.636 410.691 162.74 410.847 162.74Z" fill="#C60000"/>
<path d="M364.08 242.68H364.8C364.98 242.68 365.07 242.59 365.07 242.41V236.47C365.07 236.377 365.047 236.31 365 236.27C364.96 236.223 364.893 236.2 364.8 236.2H364.08V235.88H369.48L369.6 238.5H369.35C369.343 238.46 369.323 238.363 369.29 238.21C369.263 238.05 369.217 237.86 369.15 237.64C369.083 237.413 368.997 237.203 368.89 237.01C368.757 236.763 368.577 236.567 368.35 236.42C368.123 236.273 367.843 236.2 367.51 236.2H366.26C366.167 236.2 366.097 236.223 366.05 236.27C366.01 236.31 365.99 236.377 365.99 236.47V239.12H367.78C368.2 239.12 368.58 239.203 368.92 239.37C369.267 239.53 369.54 239.757 369.74 240.05C369.94 240.343 370.04 240.68 370.04 241.06C370.04 241.44 369.94 241.777 369.74 242.07C369.54 242.363 369.267 242.593 368.92 242.76C368.58 242.92 368.2 243 367.78 243H364.08V242.68ZM367.61 242.68C368.063 242.68 368.403 242.54 368.63 242.26C368.863 241.973 368.98 241.573 368.98 241.06C368.98 240.547 368.863 240.15 368.63 239.87C368.403 239.583 368.063 239.44 367.61 239.44H365.99V242.41C365.99 242.59 366.08 242.68 366.26 242.68H367.61ZM370.92 242.76H371.34C371.42 242.76 371.477 242.743 371.51 242.71C371.543 242.677 371.56 242.62 371.56 242.54V238.9C371.56 238.82 371.543 238.763 371.51 238.73C371.477 238.697 371.42 238.68 371.34 238.68H370.92V238.44H372.92V238.68H372.5C372.42 238.68 372.363 238.697 372.33 238.73C372.297 238.763 372.28 238.82 372.28 238.9V241.84L374.18 239.16V238.9C374.18 238.82 374.163 238.763 374.13 238.73C374.097 238.697 374.04 238.68 373.96 238.68H373.54V238.44H375.54V238.68H375.12C375.04 238.68 374.983 238.697 374.95 238.73C374.917 238.763 374.9 238.82 374.9 238.9V242.54C374.9 242.62 374.917 242.677 374.95 242.71C374.983 242.743 375.04 242.76 375.12 242.76H375.54V243H373.54V242.76H373.96C374.04 242.76 374.097 242.743 374.13 242.71C374.163 242.677 374.18 242.62 374.18 242.54V239.6L372.28 242.28V242.54C372.28 242.62 372.297 242.677 372.33 242.71C372.363 242.743 372.42 242.76 372.5 242.76H372.92V243H370.92V242.76ZM378.401 243.12C378.034 243.12 377.698 243.013 377.391 242.8C377.084 242.58 376.841 242.287 376.661 241.92C376.488 241.553 376.401 241.153 376.401 240.72C376.401 240.353 376.411 240.027 376.431 239.74C376.451 239.453 376.498 239.17 376.571 238.89C376.678 238.477 376.871 238.093 377.151 237.74C377.398 237.42 377.674 237.173 377.981 237C378.288 236.82 378.648 236.657 379.061 236.51C379.288 236.423 379.468 236.343 379.601 236.27C379.741 236.19 379.834 236.1 379.881 236C379.908 235.953 379.928 235.87 379.941 235.75H380.161V235.89C380.161 236.357 380.031 236.703 379.771 236.93C379.511 237.15 379.194 237.307 378.821 237.4C378.501 237.48 378.214 237.573 377.961 237.68C377.714 237.78 377.501 237.913 377.321 238.08C377.148 238.24 377.011 238.423 376.911 238.63C376.818 238.837 376.761 239.04 376.741 239.24L376.811 239.26C376.998 238.967 377.231 238.737 377.511 238.57C377.791 238.403 378.088 238.32 378.401 238.32C378.768 238.32 379.104 238.43 379.411 238.65C379.718 238.863 379.958 239.153 380.131 239.52C380.311 239.887 380.401 240.287 380.401 240.72C380.401 241.153 380.311 241.553 380.131 241.92C379.958 242.287 379.718 242.58 379.411 242.8C379.104 243.013 378.768 243.12 378.401 243.12ZM378.401 242.88C378.801 242.88 379.088 242.693 379.261 242.32C379.434 241.94 379.521 241.407 379.521 240.72C379.521 240.033 379.434 239.503 379.261 239.13C379.088 238.75 378.801 238.56 378.401 238.56C378.001 238.56 377.714 238.75 377.541 239.13C377.368 239.503 377.281 240.033 377.281 240.72C377.281 241.407 377.368 241.94 377.541 242.32C377.714 242.693 378.001 242.88 378.401 242.88ZM381.852 243.12C381.552 243.12 381.335 243.033 381.202 242.86C381.069 242.687 381.002 242.51 381.002 242.33C381.002 242.137 381.049 241.98 381.142 241.86C381.242 241.74 381.382 241.68 381.562 241.68C381.702 241.68 381.809 241.727 381.882 241.82C381.962 241.907 382.002 242.013 382.002 242.14C382.002 242.22 381.982 242.297 381.942 242.37C381.902 242.443 381.852 242.493 381.792 242.52C381.712 242.553 381.672 242.623 381.672 242.73C381.672 242.77 381.689 242.807 381.722 242.84C381.762 242.867 381.802 242.88 381.842 242.88C382.109 242.88 382.312 242.743 382.452 242.47C382.592 242.197 382.692 241.743 382.752 241.11L382.842 240.04C382.882 239.547 382.902 239.187 382.902 238.96C382.902 238.86 382.885 238.79 382.852 238.75C382.819 238.703 382.742 238.68 382.622 238.68H382.242V238.44H385.542V238.68H385.122C385.042 238.68 384.985 238.697 384.952 238.73C384.919 238.763 384.902 238.82 384.902 238.9V242.54C384.902 242.62 384.919 242.677 384.952 242.71C384.985 242.743 385.042 242.76 385.122 242.76H385.532V243H383.532V242.76H383.962C384.042 242.76 384.099 242.743 384.132 242.71C384.165 242.677 384.182 242.62 384.182 242.54V238.9C384.182 238.82 384.165 238.763 384.132 238.73C384.099 238.697 384.042 238.68 383.962 238.68H383.632C383.472 238.68 383.355 238.74 383.282 238.86C383.215 238.973 383.172 239.153 383.152 239.4L383.002 241.19C382.955 241.803 382.842 242.28 382.662 242.62C382.482 242.953 382.212 243.12 381.852 243.12ZM386.301 242.76H386.721C386.801 242.76 386.858 242.743 386.891 242.71C386.924 242.677 386.941 242.62 386.941 242.54V238.9C386.941 238.82 386.924 238.763 386.891 238.73C386.858 238.697 386.801 238.68 386.721 238.68H386.301V238.44H388.301V238.68H387.881C387.801 238.68 387.744 238.697 387.711 238.73C387.678 238.763 387.661 238.82 387.661 238.9V241.84L389.561 239.16V238.9C389.561 238.82 389.544 238.763 389.511 238.73C389.478 238.697 389.421 238.68 389.341 238.68H388.921V238.44H390.921V238.68H390.501C390.421 238.68 390.364 238.697 390.331 238.73C390.298 238.763 390.281 238.82 390.281 238.9V242.54C390.281 242.62 390.298 242.677 390.331 242.71C390.364 242.743 390.421 242.76 390.501 242.76H390.921V243H388.921V242.76H389.341C389.421 242.76 389.478 242.743 389.511 242.71C389.544 242.677 389.561 242.62 389.561 242.54V239.6L387.661 242.28V242.54C387.661 242.62 387.678 242.677 387.711 242.71C387.744 242.743 387.801 242.76 387.881 242.76H388.301V243H386.301V242.76ZM393.782 243.12C393.415 243.12 393.078 243.013 392.772 242.8C392.465 242.58 392.222 242.287 392.042 241.92C391.868 241.553 391.782 241.153 391.782 240.72C391.782 240.287 391.868 239.887 392.042 239.52C392.222 239.153 392.465 238.863 392.772 238.65C393.078 238.43 393.415 238.32 393.782 238.32C394.148 238.32 394.485 238.43 394.792 238.65C395.098 238.863 395.338 239.153 395.512 239.52C395.692 239.887 395.782 240.287 395.782 240.72C395.782 241.153 395.692 241.553 395.512 241.92C395.338 242.287 395.098 242.58 394.792 242.8C394.485 243.013 394.148 243.12 393.782 243.12ZM393.782 242.88C394.182 242.88 394.468 242.693 394.642 242.32C394.815 241.94 394.902 241.407 394.902 240.72C394.902 240.033 394.815 239.503 394.642 239.13C394.468 238.75 394.182 238.56 393.782 238.56C393.382 238.56 393.095 238.75 392.922 239.13C392.748 239.503 392.662 240.033 392.662 240.72C392.662 241.407 392.748 241.94 392.922 242.32C393.095 242.693 393.382 242.88 393.782 242.88ZM397.623 242.76H398.043C398.123 242.76 398.179 242.743 398.213 242.71C398.246 242.677 398.263 242.62 398.263 242.54V238.9C398.263 238.82 398.246 238.763 398.213 238.73C398.179 238.697 398.123 238.68 398.043 238.68C397.829 238.68 397.649 238.727 397.503 238.82C397.356 238.907 397.243 239.027 397.163 239.18C397.063 239.38 396.986 239.59 396.933 239.81C396.886 240.023 396.863 240.153 396.863 240.2H396.663L396.733 238.44H400.523L400.583 240.2H400.383C400.383 240.153 400.356 240.023 400.303 239.81C400.256 239.59 400.183 239.38 400.083 239.18C400.003 239.027 399.889 238.907 399.743 238.82C399.596 238.727 399.416 238.68 399.203 238.68C399.123 238.68 399.066 238.697 399.033 238.73C398.999 238.763 398.983 238.82 398.983 238.9V242.54C398.983 242.62 398.999 242.677 399.033 242.71C399.066 242.743 399.123 242.76 399.203 242.76H399.623V243H397.623V242.76ZM403.519 243.12C402.899 243.12 402.399 242.91 402.019 242.49C401.646 242.07 401.459 241.487 401.459 240.74C401.459 240.313 401.543 239.917 401.709 239.55C401.876 239.177 402.106 238.88 402.399 238.66C402.699 238.433 403.033 238.32 403.399 238.32C403.806 238.32 404.139 238.43 404.399 238.65C404.659 238.87 404.846 239.15 404.959 239.49C405.079 239.823 405.139 240.167 405.139 240.52C405.139 240.593 405.116 240.643 405.069 240.67C405.023 240.69 404.943 240.7 404.829 240.7H402.339C402.339 241.367 402.433 241.897 402.619 242.29C402.813 242.683 403.126 242.88 403.559 242.88C403.866 242.88 404.153 242.763 404.419 242.53C404.693 242.297 404.866 241.933 404.939 241.44H405.179C405.139 241.927 404.969 242.33 404.669 242.65C404.376 242.963 403.993 243.12 403.519 243.12ZM404.279 240.46C404.279 239.927 404.209 239.477 404.069 239.11C403.929 238.743 403.699 238.56 403.379 238.56C403.039 238.56 402.779 238.747 402.599 239.12C402.426 239.487 402.339 239.933 402.339 240.46H404.279ZM409.509 243.12C409.189 243.12 408.962 243.033 408.829 242.86C408.702 242.68 408.632 242.4 408.619 242.02C408.606 241.553 408.552 241.223 408.459 241.03C408.372 240.837 408.206 240.74 407.959 240.74H407.319V242.54C407.319 242.62 407.336 242.677 407.369 242.71C407.402 242.743 407.459 242.76 407.539 242.76H407.959V243H405.959V242.76H406.379C406.459 242.76 406.516 242.743 406.549 242.71C406.582 242.677 406.599 242.62 406.599 242.54V238.91C406.599 238.83 406.582 238.773 406.549 238.74C406.516 238.707 406.459 238.69 406.379 238.69H405.959V238.45H407.959V238.69H407.539C407.459 238.69 407.402 238.707 407.369 238.74C407.336 238.773 407.319 238.83 407.319 238.91V240.5H407.969C408.189 240.5 408.342 240.373 408.429 240.12C408.522 239.86 408.582 239.543 408.609 239.17C408.629 238.883 408.706 238.67 408.839 238.53C408.979 238.39 409.142 238.32 409.329 238.32C409.549 238.32 409.712 238.393 409.819 238.54C409.932 238.687 409.989 238.85 409.989 239.03C409.989 239.21 409.936 239.357 409.829 239.47C409.722 239.583 409.596 239.64 409.449 239.64C409.316 239.64 409.212 239.603 409.139 239.53C409.066 239.457 409.029 239.367 409.029 239.26C409.029 239.2 409.046 239.143 409.079 239.09C409.112 239.03 409.149 238.987 409.189 238.96C409.262 238.907 409.299 238.85 409.299 238.79C409.299 238.697 409.246 238.65 409.139 238.65C409.059 238.65 408.989 238.697 408.929 238.79C408.876 238.877 408.846 239 408.839 239.16C408.819 239.5 408.766 239.81 408.679 240.09C408.592 240.37 408.452 240.543 408.259 240.61V240.64C408.679 240.76 408.986 240.943 409.179 241.19C409.272 241.303 409.339 241.44 409.379 241.6C409.419 241.76 409.449 241.947 409.469 242.16C409.489 242.347 409.519 242.493 409.559 242.6C409.606 242.707 409.679 242.76 409.779 242.76C409.939 242.76 410.046 242.663 410.099 242.47C410.152 242.277 410.179 242.073 410.179 241.86H410.359C410.359 242.173 410.299 242.463 410.179 242.73C410.066 242.99 409.842 243.12 409.509 243.12ZM412.359 243.12C412.005 243.12 411.699 243.033 411.439 242.86C411.185 242.687 411.059 242.38 411.059 241.94C411.059 241.6 411.145 241.333 411.319 241.14C411.492 240.947 411.692 240.81 411.919 240.73C412.152 240.643 412.432 240.57 412.759 240.51L413.679 240.34V239.49C413.679 238.87 413.369 238.56 412.749 238.56C412.522 238.56 412.315 238.62 412.129 238.74C411.942 238.853 411.849 238.983 411.849 239.13C411.849 239.197 411.859 239.247 411.879 239.28C411.892 239.3 411.912 239.32 411.939 239.34C411.972 239.36 412.002 239.373 412.029 239.38C412.149 239.413 412.239 239.46 412.299 239.52C412.365 239.58 412.399 239.663 412.399 239.77C412.399 239.91 412.355 240.01 412.269 240.07C412.189 240.13 412.085 240.16 411.959 240.16C411.812 240.16 411.679 240.103 411.559 239.99C411.439 239.877 411.379 239.713 411.379 239.5C411.379 239.253 411.445 239.04 411.579 238.86C411.719 238.68 411.895 238.547 412.109 238.46C412.329 238.367 412.552 238.32 412.779 238.32C413.219 238.32 413.599 238.437 413.919 238.67C414.239 238.897 414.399 239.253 414.399 239.74V242.2C414.399 242.533 414.502 242.7 414.709 242.7C414.875 242.7 414.995 242.603 415.069 242.41C415.142 242.217 415.179 241.98 415.179 241.7H415.359C415.359 242.1 415.299 242.437 415.179 242.71C415.065 242.983 414.859 243.12 414.559 243.12C414.272 243.12 414.055 243.037 413.909 242.87C413.769 242.697 413.692 242.46 413.679 242.16L413.629 242.14C413.529 242.373 413.365 242.597 413.139 242.81C412.919 243.017 412.659 243.12 412.359 243.12ZM412.519 242.76C412.819 242.76 413.052 242.643 413.219 242.41C413.392 242.17 413.545 241.867 413.679 241.5V240.55L412.809 240.74C412.489 240.807 412.255 240.94 412.109 241.14C411.969 241.333 411.899 241.61 411.899 241.97C411.899 242.277 411.962 242.487 412.089 242.6C412.215 242.707 412.359 242.76 412.519 242.76Z" fill="black"/>
<path d="M569.971 243.18C569.571 243.18 569.198 243.1 568.851 242.94C568.511 242.78 568.238 242.557 568.031 242.27C567.831 241.977 567.731 241.637 567.731 241.25C567.731 240.997 567.808 240.787 567.961 240.62C568.121 240.447 568.308 240.36 568.521 240.36C568.748 240.36 568.921 240.427 569.041 240.56C569.168 240.687 569.231 240.85 569.231 241.05C569.231 241.217 569.185 241.35 569.091 241.45C569.005 241.543 568.895 241.603 568.761 241.63C568.661 241.65 568.578 241.677 568.511 241.71C568.445 241.743 568.411 241.8 568.411 241.88C568.411 242.067 568.495 242.237 568.661 242.39C568.828 242.537 569.035 242.653 569.281 242.74C569.528 242.82 569.758 242.86 569.971 242.86C570.565 242.86 571.015 242.697 571.321 242.37C571.635 242.043 571.791 241.6 571.791 241.04C571.791 240.58 571.685 240.18 571.471 239.84C571.265 239.493 570.931 239.32 570.471 239.32H569.451V238.96H570.451C570.878 238.96 571.195 238.817 571.401 238.53C571.608 238.237 571.711 237.887 571.711 237.48C571.711 237.067 571.598 236.72 571.371 236.44C571.151 236.16 570.825 236.02 570.391 236.02C569.851 236.02 569.395 236.227 569.021 236.64C568.648 237.047 568.408 237.623 568.301 238.37H568.051V235.78H568.301L568.371 236.14C568.391 236.22 568.415 236.277 568.441 236.31C568.475 236.343 568.518 236.36 568.571 236.36C568.651 236.36 568.781 236.3 568.961 236.18C569.428 235.86 569.905 235.7 570.391 235.7C570.925 235.7 571.361 235.79 571.701 235.97C572.041 236.15 572.288 236.377 572.441 236.65C572.595 236.917 572.671 237.19 572.671 237.47C572.671 237.757 572.588 238.02 572.421 238.26C572.261 238.493 572.071 238.683 571.851 238.83C571.631 238.97 571.438 239.053 571.271 239.08V239.18C571.498 239.2 571.735 239.297 571.981 239.47C572.228 239.637 572.435 239.857 572.601 240.13C572.768 240.397 572.851 240.677 572.851 240.97C572.851 241.457 572.715 241.867 572.441 242.2C572.168 242.527 571.811 242.773 571.371 242.94C570.938 243.1 570.471 243.18 569.971 243.18ZM575.112 243.12C574.758 243.12 574.452 243.033 574.192 242.86C573.938 242.687 573.812 242.38 573.812 241.94C573.812 241.6 573.898 241.333 574.072 241.14C574.245 240.947 574.445 240.81 574.672 240.73C574.905 240.643 575.185 240.57 575.512 240.51L576.432 240.34V239.49C576.432 238.87 576.122 238.56 575.502 238.56C575.275 238.56 575.068 238.62 574.882 238.74C574.695 238.853 574.602 238.983 574.602 239.13C574.602 239.197 574.612 239.247 574.632 239.28C574.645 239.3 574.665 239.32 574.692 239.34C574.725 239.36 574.755 239.373 574.782 239.38C574.902 239.413 574.992 239.46 575.052 239.52C575.118 239.58 575.152 239.663 575.152 239.77C575.152 239.91 575.108 240.01 575.022 240.07C574.942 240.13 574.838 240.16 574.712 240.16C574.565 240.16 574.432 240.103 574.312 239.99C574.192 239.877 574.132 239.713 574.132 239.5C574.132 239.253 574.198 239.04 574.332 238.86C574.472 238.68 574.648 238.547 574.862 238.46C575.082 238.367 575.305 238.32 575.532 238.32C575.972 238.32 576.352 238.437 576.672 238.67C576.992 238.897 577.152 239.253 577.152 239.74V242.2C577.152 242.533 577.255 242.7 577.462 242.7C577.628 242.7 577.748 242.603 577.822 242.41C577.895 242.217 577.932 241.98 577.932 241.7H578.112C578.112 242.1 578.052 242.437 577.932 242.71C577.818 242.983 577.612 243.12 577.312 243.12C577.025 243.12 576.808 243.037 576.662 242.87C576.522 242.697 576.445 242.46 576.432 242.16L576.382 242.14C576.282 242.373 576.118 242.597 575.892 242.81C575.672 243.017 575.412 243.12 575.112 243.12ZM575.272 242.76C575.572 242.76 575.805 242.643 575.972 242.41C576.145 242.17 576.298 241.867 576.432 241.5V240.55L575.562 240.74C575.242 240.807 575.008 240.94 574.862 241.14C574.722 241.333 574.652 241.61 574.652 241.97C574.652 242.277 574.715 242.487 574.842 242.6C574.968 242.707 575.112 242.76 575.272 242.76ZM578.673 242.76H579.093C579.173 242.76 579.23 242.743 579.263 242.71C579.296 242.677 579.313 242.62 579.313 242.54V238.9C579.313 238.82 579.296 238.763 579.263 238.73C579.23 238.697 579.173 238.68 579.093 238.68H578.673V238.44H583.393V238.68H582.973C582.893 238.68 582.836 238.697 582.803 238.73C582.77 238.763 582.753 238.82 582.753 238.9V242.54C582.753 242.62 582.77 242.677 582.803 242.71C582.836 242.743 582.893 242.76 582.973 242.76H583.393V243H581.393V242.76H581.813C581.893 242.76 581.95 242.743 581.983 242.71C582.016 242.677 582.033 242.62 582.033 242.54V238.9C582.033 238.82 582.016 238.763 581.983 238.73C581.95 238.697 581.893 238.68 581.813 238.68H580.253C580.173 238.68 580.116 238.697 580.083 238.73C580.05 238.763 580.033 238.82 580.033 238.9V242.54C580.033 242.62 580.05 242.677 580.083 242.71C580.116 242.743 580.173 242.76 580.253 242.76H580.673V243H578.673V242.76ZM585.531 243.12C585.178 243.12 584.871 243.033 584.611 242.86C584.358 242.687 584.231 242.38 584.231 241.94C584.231 241.6 584.318 241.333 584.491 241.14C584.665 240.947 584.865 240.81 585.091 240.73C585.325 240.643 585.605 240.57 585.931 240.51L586.851 240.34V239.49C586.851 238.87 586.541 238.56 585.921 238.56C585.695 238.56 585.488 238.62 585.301 238.74C585.115 238.853 585.021 238.983 585.021 239.13C585.021 239.197 585.031 239.247 585.051 239.28C585.065 239.3 585.085 239.32 585.111 239.34C585.145 239.36 585.175 239.373 585.201 239.38C585.321 239.413 585.411 239.46 585.471 239.52C585.538 239.58 585.571 239.663 585.571 239.77C585.571 239.91 585.528 240.01 585.441 240.07C585.361 240.13 585.258 240.16 585.131 240.16C584.985 240.16 584.851 240.103 584.731 239.99C584.611 239.877 584.551 239.713 584.551 239.5C584.551 239.253 584.618 239.04 584.751 238.86C584.891 238.68 585.068 238.547 585.281 238.46C585.501 238.367 585.725 238.32 585.951 238.32C586.391 238.32 586.771 238.437 587.091 238.67C587.411 238.897 587.571 239.253 587.571 239.74V242.2C587.571 242.533 587.675 242.7 587.881 242.7C588.048 242.7 588.168 242.603 588.241 242.41C588.315 242.217 588.351 241.98 588.351 241.7H588.531C588.531 242.1 588.471 242.437 588.351 242.71C588.238 242.983 588.031 243.12 587.731 243.12C587.445 243.12 587.228 243.037 587.081 242.87C586.941 242.697 586.865 242.46 586.851 242.16L586.801 242.14C586.701 242.373 586.538 242.597 586.311 242.81C586.091 243.017 585.831 243.12 585.531 243.12ZM585.691 242.76C585.991 242.76 586.225 242.643 586.391 242.41C586.565 242.17 586.718 241.867 586.851 241.5V240.55L585.981 240.74C585.661 240.807 585.428 240.94 585.281 241.14C585.141 241.333 585.071 241.61 585.071 241.97C585.071 242.277 585.135 242.487 585.261 242.6C585.388 242.707 585.531 242.76 585.691 242.76ZM591.153 243.12C590.766 243.12 590.423 243.013 590.123 242.8C589.83 242.587 589.6 242.297 589.433 241.93C589.273 241.563 589.193 241.16 589.193 240.72C589.193 240.28 589.276 239.877 589.443 239.51C589.61 239.143 589.84 238.853 590.133 238.64C590.433 238.427 590.773 238.32 591.153 238.32C591.46 238.32 591.726 238.387 591.953 238.52C592.18 238.647 592.353 238.813 592.473 239.02C592.593 239.22 592.653 239.423 592.653 239.63C592.653 239.837 592.6 240 592.493 240.12C592.386 240.233 592.256 240.29 592.103 240.29C591.97 240.29 591.856 240.247 591.763 240.16C591.676 240.073 591.633 239.97 591.633 239.85C591.633 239.73 591.666 239.63 591.733 239.55C591.8 239.47 591.88 239.417 591.973 239.39C592.08 239.357 592.133 239.297 592.133 239.21C592.133 239.13 592.096 239.04 592.023 238.94C591.956 238.84 591.85 238.753 591.703 238.68C591.556 238.6 591.373 238.56 591.153 238.56C590.733 238.56 590.446 238.74 590.293 239.1C590.146 239.46 590.073 240 590.073 240.72C590.073 241.44 590.146 241.98 590.293 242.34C590.44 242.7 590.726 242.88 591.153 242.88C591.56 242.88 591.873 242.737 592.093 242.45C592.313 242.163 592.446 241.827 592.493 241.44H592.733C592.713 241.713 592.643 241.98 592.523 242.24C592.403 242.493 592.226 242.703 591.993 242.87C591.76 243.037 591.48 243.12 591.153 243.12ZM593.448 242.76H593.868C593.948 242.76 594.005 242.743 594.038 242.71C594.072 242.677 594.088 242.62 594.088 242.54V238.9C594.088 238.82 594.072 238.763 594.038 238.73C594.005 238.697 593.948 238.68 593.868 238.68H593.448V238.44H595.448V238.68H595.028C594.948 238.68 594.892 238.697 594.858 238.73C594.825 238.763 594.808 238.82 594.808 238.9V240.5H596.808V238.9C596.808 238.82 596.792 238.763 596.758 238.73C596.725 238.697 596.668 238.68 596.588 238.68H596.168V238.44H598.168V238.68H597.748C597.668 238.68 597.612 238.697 597.578 238.73C597.545 238.763 597.528 238.82 597.528 238.9V242.54C597.528 242.62 597.545 242.677 597.578 242.71C597.612 242.743 597.668 242.76 597.748 242.76H598.168V243H596.168V242.76H596.588C596.668 242.76 596.725 242.743 596.758 242.71C596.792 242.677 596.808 242.62 596.808 242.54V240.74H594.808V242.54C594.808 242.62 594.825 242.677 594.858 242.71C594.892 242.743 594.948 242.76 595.028 242.76H595.448V243H593.448V242.76ZM601.027 243.12C600.66 243.12 600.324 243.013 600.017 242.8C599.71 242.58 599.467 242.287 599.287 241.92C599.114 241.553 599.027 241.153 599.027 240.72C599.027 240.287 599.114 239.887 599.287 239.52C599.467 239.153 599.71 238.863 600.017 238.65C600.324 238.43 600.66 238.32 601.027 238.32C601.394 238.32 601.73 238.43 602.037 238.65C602.344 238.863 602.584 239.153 602.757 239.52C602.937 239.887 603.027 240.287 603.027 240.72C603.027 241.153 602.937 241.553 602.757 241.92C602.584 242.287 602.344 242.58 602.037 242.8C601.73 243.013 601.394 243.12 601.027 243.12ZM601.027 242.88C601.427 242.88 601.714 242.693 601.887 242.32C602.06 241.94 602.147 241.407 602.147 240.72C602.147 240.033 602.06 239.503 601.887 239.13C601.714 238.75 601.427 238.56 601.027 238.56C600.627 238.56 600.34 238.75 600.167 239.13C599.994 239.503 599.907 240.033 599.907 240.72C599.907 241.407 599.994 241.94 600.167 242.32C600.34 242.693 600.627 242.88 601.027 242.88ZM606.188 238.06C606.001 238.06 605.801 238.023 605.588 237.95C605.381 237.877 605.204 237.77 605.058 237.63C604.918 237.49 604.848 237.327 604.848 237.14C604.848 236.947 604.894 236.797 604.988 236.69C605.081 236.577 605.211 236.52 605.378 236.52C605.511 236.52 605.614 236.553 605.688 236.62C605.768 236.687 605.808 236.777 605.808 236.89C605.808 237.003 605.771 237.09 605.698 237.15C605.624 237.203 605.551 237.23 605.478 237.23C605.411 237.23 605.361 237.247 605.328 237.28C605.294 237.307 605.278 237.357 605.278 237.43C605.278 237.557 605.368 237.647 605.548 237.7C605.734 237.753 605.948 237.78 606.188 237.78C606.428 237.78 606.638 237.753 606.818 237.7C607.004 237.647 607.098 237.557 607.098 237.43C607.098 237.357 607.081 237.307 607.048 237.28C607.014 237.247 606.964 237.23 606.898 237.23C606.824 237.23 606.751 237.203 606.678 237.15C606.604 237.09 606.568 237.003 606.568 236.89C606.568 236.777 606.604 236.687 606.678 236.62C606.758 236.553 606.864 236.52 606.998 236.52C607.164 236.52 607.294 236.577 607.388 236.69C607.481 236.797 607.528 236.947 607.528 237.14C607.528 237.327 607.454 237.49 607.308 237.63C607.168 237.77 606.991 237.877 606.778 237.95C606.571 238.023 606.374 238.06 606.188 238.06ZM603.888 242.76H604.308C604.388 242.76 604.444 242.743 604.478 242.71C604.511 242.677 604.528 242.62 604.528 242.54V238.9C604.528 238.82 604.511 238.763 604.478 238.73C604.444 238.697 604.388 238.68 604.308 238.68H603.888V238.44H605.888V238.68H605.468C605.388 238.68 605.331 238.697 605.298 238.73C605.264 238.763 605.248 238.82 605.248 238.9V241.84L607.148 239.16V238.9C607.148 238.82 607.131 238.763 607.098 238.73C607.064 238.697 607.008 238.68 606.928 238.68H606.508V238.44H608.508V238.68H608.088C608.008 238.68 607.951 238.697 607.918 238.73C607.884 238.763 607.868 238.82 607.868 238.9V242.54C607.868 242.62 607.884 242.677 607.918 242.71C607.951 242.743 608.008 242.76 608.088 242.76H608.508V243H606.508V242.76H606.928C607.008 242.76 607.064 242.743 607.098 242.71C607.131 242.677 607.148 242.62 607.148 242.54V239.6L605.248 242.28V242.54C605.248 242.62 605.264 242.677 605.298 242.71C605.331 242.743 605.388 242.76 605.468 242.76H605.888V243H603.888V242.76ZM575.411 254.76H575.831C575.911 254.76 575.968 254.743 576.001 254.71C576.035 254.677 576.051 254.62 576.051 254.54V250.9C576.051 250.82 576.035 250.763 576.001 250.73C575.968 250.697 575.911 250.68 575.831 250.68H575.411V250.44H577.751C578.171 250.44 578.511 250.54 578.771 250.74C579.038 250.94 579.171 251.207 579.171 251.54C579.171 251.84 579.071 252.077 578.871 252.25C578.678 252.417 578.458 252.527 578.211 252.58V252.6C578.345 252.613 578.505 252.663 578.691 252.75C578.878 252.83 579.041 252.953 579.181 253.12C579.321 253.287 579.391 253.493 579.391 253.74C579.391 254.12 579.235 254.427 578.921 254.66C578.615 254.887 578.251 255 577.831 255H575.411V254.76ZM577.611 252.5C577.885 252.5 578.085 252.413 578.211 252.24C578.345 252.067 578.411 251.847 578.411 251.58C578.411 251.32 578.338 251.107 578.191 250.94C578.045 250.767 577.858 250.68 577.631 250.68H576.991C576.911 250.68 576.855 250.697 576.821 250.73C576.788 250.763 576.771 250.82 576.771 250.9V252.5H577.611ZM577.711 254.76C577.978 254.76 578.178 254.66 578.311 254.46C578.445 254.253 578.511 254.013 578.511 253.74C578.511 253.447 578.445 253.207 578.311 253.02C578.178 252.833 577.971 252.74 577.691 252.74H576.771V254.54C576.771 254.62 576.788 254.677 576.821 254.71C576.855 254.743 576.911 254.76 576.991 254.76H577.711ZM580.216 254.76H580.636C580.716 254.76 580.773 254.743 580.806 254.71C580.839 254.677 580.856 254.62 580.856 254.54V250.9C580.856 250.82 580.839 250.763 580.806 250.73C580.773 250.697 580.716 250.68 580.636 250.68H580.216V250.44H582.216V250.68H581.796C581.716 250.68 581.659 250.697 581.626 250.73C581.593 250.763 581.576 250.82 581.576 250.9V252.52H582.736C583.016 252.52 583.266 252.577 583.486 252.69C583.706 252.797 583.879 252.947 584.006 253.14C584.133 253.327 584.196 253.533 584.196 253.76C584.196 253.98 584.126 254.187 583.986 254.38C583.853 254.567 583.673 254.717 583.446 254.83C583.226 254.943 582.989 255 582.736 255H580.216V254.76ZM584.056 254.76H584.476C584.556 254.76 584.613 254.743 584.646 254.71C584.679 254.677 584.696 254.62 584.696 254.54V250.9C584.696 250.82 584.679 250.763 584.646 250.73C584.613 250.697 584.556 250.68 584.476 250.68H584.056V250.44H586.056V250.68H585.636C585.556 250.68 585.499 250.697 585.466 250.73C585.433 250.763 585.416 250.82 585.416 250.9V254.54C585.416 254.62 585.433 254.677 585.466 254.71C585.499 254.743 585.556 254.76 585.636 254.76H586.056V255H584.056V254.76ZM582.456 254.76C582.736 254.76 582.949 254.667 583.096 254.48C583.243 254.293 583.316 254.053 583.316 253.76C583.316 253.467 583.239 253.227 583.086 253.04C582.939 252.853 582.729 252.76 582.456 252.76H581.576V254.54C581.576 254.62 581.593 254.677 581.626 254.71C581.659 254.743 581.716 254.76 581.796 254.76H582.456ZM586.778 254.76H587.038C587.198 254.76 587.331 254.713 587.438 254.62C587.544 254.52 587.654 254.383 587.768 254.21L588.678 252.85L587.458 250.9C587.404 250.82 587.351 250.763 587.298 250.73C587.251 250.697 587.171 250.68 587.058 250.68H586.818V250.44H588.798V250.68H588.558C588.424 250.68 588.358 250.747 588.358 250.88C588.358 250.953 588.378 251.023 588.418 251.09L589.108 252.21L589.768 251.23C589.828 251.143 589.858 251.037 589.858 250.91C589.858 250.837 589.831 250.78 589.778 250.74C589.731 250.7 589.678 250.68 589.618 250.68H589.377V250.44H591.118V250.68H590.868C590.728 250.68 590.604 250.713 590.498 250.78C590.391 250.847 590.284 250.96 590.178 251.12L589.268 252.46L590.538 254.5C590.598 254.593 590.658 254.66 590.718 254.7C590.778 254.74 590.881 254.76 591.028 254.76H591.258V255H589.178V254.76H589.478C589.551 254.76 589.608 254.747 589.648 254.72C589.688 254.687 589.708 254.643 589.708 254.59C589.708 254.557 589.701 254.523 589.688 254.49C589.674 254.45 589.658 254.413 589.638 254.38L588.838 253.1L588.158 254.11C588.058 254.27 588.008 254.387 588.008 254.46C588.008 254.66 588.091 254.76 588.258 254.76H588.438V255H586.778V254.76ZM593.869 255.12C593.502 255.12 593.165 255.013 592.859 254.8C592.552 254.58 592.309 254.287 592.129 253.92C591.955 253.553 591.869 253.153 591.869 252.72C591.869 252.287 591.955 251.887 592.129 251.52C592.309 251.153 592.552 250.863 592.859 250.65C593.165 250.43 593.502 250.32 593.869 250.32C594.235 250.32 594.572 250.43 594.879 250.65C595.185 250.863 595.425 251.153 595.599 251.52C595.779 251.887 595.869 252.287 595.869 252.72C595.869 253.153 595.779 253.553 595.599 253.92C595.425 254.287 595.185 254.58 594.879 254.8C594.572 255.013 594.235 255.12 593.869 255.12ZM593.869 254.88C594.269 254.88 594.555 254.693 594.729 254.32C594.902 253.94 594.989 253.407 594.989 252.72C594.989 252.033 594.902 251.503 594.729 251.13C594.555 250.75 594.269 250.56 593.869 250.56C593.469 250.56 593.182 250.75 593.009 251.13C592.835 251.503 592.749 252.033 592.749 252.72C592.749 253.407 592.835 253.94 593.009 254.32C593.182 254.693 593.469 254.88 593.869 254.88ZM596.246 254.8H596.586C596.74 254.8 596.85 254.773 596.916 254.72C596.99 254.66 597.05 254.567 597.096 254.44C597.283 253.887 597.416 253.347 597.496 252.82C597.583 252.293 597.626 251.713 597.626 251.08C597.626 250.813 597.553 250.68 597.406 250.68H596.986V250.44H600.586V250.68H600.166C600.086 250.68 600.03 250.697 599.996 250.73C599.963 250.763 599.946 250.82 599.946 250.9V254.44C599.953 254.567 599.98 254.66 600.026 254.72C600.073 254.773 600.153 254.8 600.266 254.8H600.806L600.866 256.56H600.666C600.666 256.513 600.64 256.38 600.586 256.16C600.54 255.947 600.466 255.74 600.366 255.54C600.18 255.18 599.89 255 599.496 255H597.576C597.336 255 597.15 255.047 597.016 255.14C596.883 255.233 596.773 255.367 596.686 255.54C596.586 255.74 596.51 255.947 596.456 256.16C596.41 256.38 596.386 256.513 596.386 256.56H596.186L596.246 254.8ZM599.006 254.76C599.086 254.76 599.143 254.743 599.176 254.71C599.21 254.677 599.226 254.62 599.226 254.54V250.9C599.226 250.82 599.21 250.763 599.176 250.73C599.143 250.697 599.086 250.68 599.006 250.68H598.516C598.11 250.68 597.906 250.987 597.906 251.6C597.906 251.913 597.873 252.29 597.806 252.73C597.74 253.17 597.673 253.51 597.606 253.75C597.486 254.183 597.426 254.46 597.426 254.58C597.426 254.64 597.446 254.687 597.486 254.72C597.533 254.747 597.586 254.76 597.646 254.76H599.006Z" fill="black"/>
<path d="M87.2419 243.12C86.9019 243.12 86.6419 243.043 86.4619 242.89C86.2819 242.737 86.1619 242.543 86.1019 242.31C86.0419 242.07 86.0052 241.773 85.9919 241.42C85.9586 240.787 85.8819 240.297 85.7619 239.95C85.6486 239.597 85.4252 239.42 85.0919 239.42H83.9919V242.41C83.9919 242.59 84.0819 242.68 84.2619 242.68H84.9819V243H82.0819V242.68H82.8019C82.9819 242.68 83.0719 242.59 83.0719 242.41V236.47C83.0719 236.377 83.0486 236.31 83.0019 236.27C82.9619 236.223 82.8952 236.2 82.8019 236.2H82.0819V235.88H84.9819V236.2H84.2619C84.1686 236.2 84.0986 236.223 84.0519 236.27C84.0119 236.31 83.9919 236.377 83.9919 236.47V239.1H84.8519C85.2252 239.1 85.4852 238.963 85.6319 238.69C85.7786 238.41 85.8686 237.953 85.9019 237.32C85.9219 236.88 85.9886 236.553 86.1019 236.34C86.1952 236.16 86.3186 236.02 86.4719 235.92C86.6319 235.813 86.7952 235.76 86.9619 235.76C87.2619 235.76 87.5019 235.833 87.6819 235.98C87.9086 236.187 88.0219 236.453 88.0219 236.78C88.0219 237.02 87.9686 237.223 87.8619 237.39C87.7952 237.49 87.7086 237.57 87.6019 237.63C87.5019 237.69 87.3952 237.72 87.2819 237.72C87.1019 237.72 86.9619 237.67 86.8619 237.57C86.7552 237.463 86.7019 237.337 86.7019 237.19C86.7019 237.063 86.7252 236.96 86.7719 236.88C86.8252 236.8 86.9019 236.727 87.0019 236.66C87.1486 236.547 87.2219 236.447 87.2219 236.36C87.2219 236.287 87.1886 236.237 87.1219 236.21C87.0552 236.177 86.9886 236.16 86.9219 236.16C86.6686 236.16 86.4919 236.273 86.3919 236.5C86.2986 236.727 86.2352 237.1 86.2019 237.62C86.1752 238.027 86.1186 238.367 86.0319 238.64C85.9452 238.913 85.7786 239.107 85.5319 239.22V239.27C85.9652 239.47 86.2852 239.663 86.4919 239.85C86.6986 240.037 86.8419 240.27 86.9219 240.55C87.0019 240.823 87.0586 241.223 87.0919 241.75C87.1119 242.057 87.1519 242.287 87.2119 242.44C87.2786 242.587 87.3986 242.66 87.5719 242.66C87.7719 242.66 87.9219 242.523 88.0219 242.25C88.1219 241.97 88.1719 241.687 88.1719 241.4H88.4219C88.4219 241.793 88.3386 242.18 88.1719 242.56C88.0052 242.933 87.6952 243.12 87.2419 243.12ZM91.2173 243.12C90.8506 243.12 90.514 243.013 90.2073 242.8C89.9006 242.58 89.6573 242.287 89.4773 241.92C89.304 241.553 89.2173 241.153 89.2173 240.72C89.2173 240.287 89.304 239.887 89.4773 239.52C89.6573 239.153 89.9006 238.863 90.2073 238.65C90.514 238.43 90.8506 238.32 91.2173 238.32C91.584 238.32 91.9206 238.43 92.2273 238.65C92.534 238.863 92.774 239.153 92.9473 239.52C93.1273 239.887 93.2173 240.287 93.2173 240.72C93.2173 241.153 93.1273 241.553 92.9473 241.92C92.774 242.287 92.534 242.58 92.2273 242.8C91.9206 243.013 91.584 243.12 91.2173 243.12ZM91.2173 242.88C91.6173 242.88 91.904 242.693 92.0773 242.32C92.2506 241.94 92.3373 241.407 92.3373 240.72C92.3373 240.033 92.2506 239.503 92.0773 239.13C91.904 238.75 91.6173 238.56 91.2173 238.56C90.8173 238.56 90.5306 238.75 90.3573 239.13C90.184 239.503 90.0973 240.033 90.0973 240.72C90.0973 241.407 90.184 241.94 90.3573 242.32C90.5306 242.693 90.8173 242.88 91.2173 242.88ZM94.9382 239.18V242.22C94.9382 242.4 94.9649 242.537 95.0182 242.63C95.0716 242.717 95.1716 242.76 95.3182 242.76H95.5182V243H94.0782V242.76H94.2782C94.4249 242.76 94.5249 242.717 94.5782 242.63C94.6316 242.537 94.6582 242.4 94.6582 242.22V238.9C94.6582 238.82 94.6416 238.763 94.6082 238.73C94.5749 238.697 94.5182 238.68 94.4382 238.68H94.0782V238.44H95.4582L96.5782 241.76L97.6482 238.44H99.0782V238.68H98.7182C98.6382 238.68 98.5816 238.697 98.5482 238.73C98.5149 238.763 98.4982 238.82 98.4982 238.9V242.54C98.4982 242.62 98.5149 242.677 98.5482 242.71C98.5816 242.743 98.6382 242.76 98.7182 242.76H99.0782V243H97.1982V242.76H97.5582C97.6382 242.76 97.6949 242.743 97.7282 242.71C97.7616 242.677 97.7782 242.62 97.7782 242.54V239.1L96.4782 243.08H96.2982L94.9382 239.18ZM99.84 242.76H100.26C100.34 242.76 100.397 242.743 100.43 242.71C100.463 242.677 100.48 242.62 100.48 242.54V238.9C100.48 238.82 100.463 238.763 100.43 238.73C100.397 238.697 100.34 238.68 100.26 238.68H99.84V238.44H101.84V238.68H101.42C101.34 238.68 101.283 238.697 101.25 238.73C101.217 238.763 101.2 238.82 101.2 238.9V240.5H103.2V238.9C103.2 238.82 103.183 238.763 103.15 238.73C103.117 238.697 103.06 238.68 102.98 238.68H102.56V238.44H104.56V238.68H104.14C104.06 238.68 104.003 238.697 103.97 238.73C103.937 238.763 103.92 238.82 103.92 238.9V242.54C103.92 242.62 103.937 242.677 103.97 242.71C104.003 242.743 104.06 242.76 104.14 242.76H104.56V243H102.56V242.76H102.98C103.06 242.76 103.117 242.743 103.15 242.71C103.183 242.677 103.2 242.62 103.2 242.54V240.74H101.2V242.54C101.2 242.62 101.217 242.677 101.25 242.71C101.283 242.743 101.34 242.76 101.42 242.76H101.84V243H99.84V242.76ZM106.698 243.12C106.345 243.12 106.038 243.033 105.778 242.86C105.525 242.687 105.398 242.38 105.398 241.94C105.398 241.6 105.485 241.333 105.658 241.14C105.832 240.947 106.032 240.81 106.258 240.73C106.492 240.643 106.772 240.57 107.098 240.51L108.018 240.34V239.49C108.018 238.87 107.708 238.56 107.088 238.56C106.862 238.56 106.655 238.62 106.468 238.74C106.282 238.853 106.188 238.983 106.188 239.13C106.188 239.197 106.198 239.247 106.218 239.28C106.232 239.3 106.252 239.32 106.278 239.34C106.312 239.36 106.342 239.373 106.368 239.38C106.488 239.413 106.578 239.46 106.638 239.52C106.705 239.58 106.738 239.663 106.738 239.77C106.738 239.91 106.695 240.01 106.608 240.07C106.528 240.13 106.425 240.16 106.298 240.16C106.152 240.16 106.018 240.103 105.898 239.99C105.778 239.877 105.718 239.713 105.718 239.5C105.718 239.253 105.785 239.04 105.918 238.86C106.058 238.68 106.235 238.547 106.448 238.46C106.668 238.367 106.892 238.32 107.118 238.32C107.558 238.32 107.938 238.437 108.258 238.67C108.578 238.897 108.738 239.253 108.738 239.74V242.2C108.738 242.533 108.842 242.7 109.048 242.7C109.215 242.7 109.335 242.603 109.408 242.41C109.482 242.217 109.518 241.98 109.518 241.7H109.698C109.698 242.1 109.638 242.437 109.518 242.71C109.405 242.983 109.198 243.12 108.898 243.12C108.612 243.12 108.395 243.037 108.248 242.87C108.108 242.697 108.032 242.46 108.018 242.16L107.968 242.14C107.868 242.373 107.705 242.597 107.478 242.81C107.258 243.017 106.998 243.12 106.698 243.12ZM106.858 242.76C107.158 242.76 107.392 242.643 107.558 242.41C107.732 242.17 107.885 241.867 108.018 241.5V240.55L107.148 240.74C106.828 240.807 106.595 240.94 106.448 241.14C106.308 241.333 106.238 241.61 106.238 241.97C106.238 242.277 106.302 242.487 106.428 242.6C106.555 242.707 106.698 242.76 106.858 242.76ZM111.24 242.76H111.66C111.74 242.76 111.797 242.743 111.83 242.71C111.863 242.677 111.88 242.62 111.88 242.54V238.9C111.88 238.82 111.863 238.763 111.83 238.73C111.797 238.697 111.74 238.68 111.66 238.68C111.447 238.68 111.267 238.727 111.12 238.82C110.973 238.907 110.86 239.027 110.78 239.18C110.68 239.38 110.603 239.59 110.55 239.81C110.503 240.023 110.48 240.153 110.48 240.2H110.28L110.35 238.44H114.14L114.2 240.2H114C114 240.153 113.973 240.023 113.92 239.81C113.873 239.59 113.8 239.38 113.7 239.18C113.62 239.027 113.507 238.907 113.36 238.82C113.213 238.727 113.033 238.68 112.82 238.68C112.74 238.68 112.683 238.697 112.65 238.73C112.617 238.763 112.6 238.82 112.6 238.9V242.54C112.6 242.62 112.617 242.677 112.65 242.71C112.683 242.743 112.74 242.76 112.82 242.76H113.24V243H111.24V242.76ZM116.357 243.12C116.003 243.12 115.697 243.033 115.437 242.86C115.183 242.687 115.057 242.38 115.057 241.94C115.057 241.6 115.143 241.333 115.317 241.14C115.49 240.947 115.69 240.81 115.917 240.73C116.15 240.643 116.43 240.57 116.757 240.51L117.677 240.34V239.49C117.677 238.87 117.367 238.56 116.747 238.56C116.52 238.56 116.313 238.62 116.127 238.74C115.94 238.853 115.847 238.983 115.847 239.13C115.847 239.197 115.857 239.247 115.877 239.28C115.89 239.3 115.91 239.32 115.937 239.34C115.97 239.36 116 239.373 116.027 239.38C116.147 239.413 116.237 239.46 116.297 239.52C116.363 239.58 116.397 239.663 116.397 239.77C116.397 239.91 116.353 240.01 116.267 240.07C116.187 240.13 116.083 240.16 115.957 240.16C115.81 240.16 115.677 240.103 115.557 239.99C115.437 239.877 115.377 239.713 115.377 239.5C115.377 239.253 115.443 239.04 115.577 238.86C115.717 238.68 115.893 238.547 116.107 238.46C116.327 238.367 116.55 238.32 116.777 238.32C117.217 238.32 117.597 238.437 117.917 238.67C118.237 238.897 118.397 239.253 118.397 239.74V242.2C118.397 242.533 118.5 242.7 118.707 242.7C118.873 242.7 118.993 242.603 119.067 242.41C119.14 242.217 119.177 241.98 119.177 241.7H119.357C119.357 242.1 119.297 242.437 119.177 242.71C119.063 242.983 118.857 243.12 118.557 243.12C118.27 243.12 118.053 243.037 117.907 242.87C117.767 242.697 117.69 242.46 117.677 242.16L117.627 242.14C117.527 242.373 117.363 242.597 117.137 242.81C116.917 243.017 116.657 243.12 116.357 243.12ZM116.517 242.76C116.817 242.76 117.05 242.643 117.217 242.41C117.39 242.17 117.543 241.867 117.677 241.5V240.55L116.807 240.74C116.487 240.807 116.253 240.94 116.107 241.14C115.967 241.333 115.897 241.61 115.897 241.97C115.897 242.277 115.96 242.487 116.087 242.6C116.213 242.707 116.357 242.76 116.517 242.76ZM85.6163 254.76H86.0363C86.1163 254.76 86.173 254.743 86.2063 254.71C86.2397 254.677 86.2563 254.62 86.2563 254.54V250.9C86.2563 250.82 86.2397 250.763 86.2063 250.73C86.173 250.697 86.1163 250.68 86.0363 250.68H85.6163V250.44H90.3363V250.68H89.9163C89.8363 250.68 89.7797 250.697 89.7463 250.73C89.713 250.763 89.6963 250.82 89.6963 250.9V254.54C89.6963 254.62 89.713 254.677 89.7463 254.71C89.7797 254.743 89.8363 254.76 89.9163 254.76H90.3363V255H88.3363V254.76H88.7563C88.8363 254.76 88.893 254.743 88.9263 254.71C88.9597 254.677 88.9763 254.62 88.9763 254.54V250.9C88.9763 250.82 88.9597 250.763 88.9263 250.73C88.893 250.697 88.8363 250.68 88.7563 250.68H87.1963C87.1163 250.68 87.0597 250.697 87.0263 250.73C86.993 250.763 86.9763 250.82 86.9763 250.9V254.54C86.9763 254.62 86.993 254.677 87.0263 254.71C87.0597 254.743 87.1163 254.76 87.1963 254.76H87.6163V255H85.6163V254.76ZM91.0948 254.76H91.5148C91.5948 254.76 91.6515 254.743 91.6848 254.71C91.7182 254.677 91.7348 254.62 91.7348 254.54V250.9C91.7348 250.82 91.7182 250.763 91.6848 250.73C91.6515 250.697 91.5948 250.68 91.5148 250.68H91.0948V250.44H93.0948V250.68H92.6748C92.5948 250.68 92.5382 250.697 92.5048 250.73C92.4715 250.763 92.4548 250.82 92.4548 250.9V253.84L94.3548 251.16V250.9C94.3548 250.82 94.3382 250.763 94.3048 250.73C94.2715 250.697 94.2148 250.68 94.1348 250.68H93.7148V250.44H95.7148V250.68H95.2948C95.2148 250.68 95.1582 250.697 95.1248 250.73C95.0915 250.763 95.0748 250.82 95.0748 250.9V254.54C95.0748 254.62 95.0915 254.677 95.1248 254.71C95.1582 254.743 95.2148 254.76 95.2948 254.76H95.7148V255H93.7148V254.76H94.1348C94.2148 254.76 94.2715 254.743 94.3048 254.71C94.3382 254.677 94.3548 254.62 94.3548 254.54V251.6L92.4548 254.28V254.54C92.4548 254.62 92.4715 254.677 92.5048 254.71C92.5382 254.743 92.5948 254.76 92.6748 254.76H93.0948V255H91.0948V254.76ZM98.5357 255.12C98.149 255.12 97.8057 255.013 97.5057 254.8C97.2124 254.587 96.9824 254.297 96.8157 253.93C96.6557 253.563 96.5757 253.16 96.5757 252.72C96.5757 252.28 96.659 251.877 96.8257 251.51C96.9924 251.143 97.2224 250.853 97.5157 250.64C97.8157 250.427 98.1557 250.32 98.5357 250.32C98.8424 250.32 99.109 250.387 99.3357 250.52C99.5624 250.647 99.7357 250.813 99.8557 251.02C99.9757 251.22 100.036 251.423 100.036 251.63C100.036 251.837 99.9824 252 99.8757 252.12C99.769 252.233 99.639 252.29 99.4857 252.29C99.3524 252.29 99.239 252.247 99.1457 252.16C99.059 252.073 99.0157 251.97 99.0157 251.85C99.0157 251.73 99.049 251.63 99.1157 251.55C99.1824 251.47 99.2624 251.417 99.3557 251.39C99.4624 251.357 99.5157 251.297 99.5157 251.21C99.5157 251.13 99.479 251.04 99.4057 250.94C99.339 250.84 99.2324 250.753 99.0857 250.68C98.939 250.6 98.7557 250.56 98.5357 250.56C98.1157 250.56 97.829 250.74 97.6757 251.1C97.529 251.46 97.4557 252 97.4557 252.72C97.4557 253.44 97.529 253.98 97.6757 254.34C97.8224 254.7 98.109 254.88 98.5357 254.88C98.9424 254.88 99.2557 254.737 99.4757 254.45C99.6957 254.163 99.829 253.827 99.8757 253.44H100.116C100.096 253.713 100.026 253.98 99.9057 254.24C99.7857 254.493 99.609 254.703 99.3757 254.87C99.1424 255.037 98.8624 255.12 98.5357 255.12ZM102.211 255.12C101.858 255.12 101.551 255.033 101.291 254.86C101.038 254.687 100.911 254.38 100.911 253.94C100.911 253.6 100.998 253.333 101.171 253.14C101.345 252.947 101.545 252.81 101.771 252.73C102.005 252.643 102.285 252.57 102.611 252.51L103.531 252.34V251.49C103.531 250.87 103.221 250.56 102.601 250.56C102.375 250.56 102.168 250.62 101.981 250.74C101.795 250.853 101.701 250.983 101.701 251.13C101.701 251.197 101.711 251.247 101.731 251.28C101.745 251.3 101.765 251.32 101.791 251.34C101.825 251.36 101.855 251.373 101.881 251.38C102.001 251.413 102.091 251.46 102.151 251.52C102.218 251.58 102.251 251.663 102.251 251.77C102.251 251.91 102.208 252.01 102.121 252.07C102.041 252.13 101.938 252.16 101.811 252.16C101.665 252.16 101.531 252.103 101.411 251.99C101.291 251.877 101.231 251.713 101.231 251.5C101.231 251.253 101.298 251.04 101.431 250.86C101.571 250.68 101.748 250.547 101.961 250.46C102.181 250.367 102.405 250.32 102.631 250.32C103.071 250.32 103.451 250.437 103.771 250.67C104.091 250.897 104.251 251.253 104.251 251.74V254.2C104.251 254.533 104.355 254.7 104.561 254.7C104.728 254.7 104.848 254.603 104.921 254.41C104.995 254.217 105.031 253.98 105.031 253.7H105.211C105.211 254.1 105.151 254.437 105.031 254.71C104.918 254.983 104.711 255.12 104.411 255.12C104.125 255.12 103.908 255.037 103.761 254.87C103.621 254.697 103.545 254.46 103.531 254.16L103.481 254.14C103.381 254.373 103.218 254.597 102.991 254.81C102.771 255.017 102.511 255.12 102.211 255.12ZM102.371 254.76C102.671 254.76 102.905 254.643 103.071 254.41C103.245 254.17 103.398 253.867 103.531 253.5V252.55L102.661 252.74C102.341 252.807 102.108 252.94 101.961 253.14C101.821 253.333 101.751 253.61 101.751 253.97C101.751 254.277 101.815 254.487 101.941 254.6C102.068 254.707 102.211 254.76 102.371 254.76ZM105.673 257.06H106.193C106.273 257.06 106.329 257.043 106.363 257.01C106.396 256.977 106.413 256.92 106.413 256.84V250.9C106.413 250.82 106.396 250.763 106.363 250.73C106.329 250.697 106.273 250.68 106.193 250.68H105.673V250.44H107.133V251.18L107.173 251.19C107.299 250.923 107.459 250.713 107.653 250.56C107.853 250.4 108.079 250.32 108.333 250.32C108.646 250.32 108.936 250.427 109.203 250.64C109.476 250.847 109.693 251.133 109.853 251.5C110.013 251.867 110.093 252.273 110.093 252.72C110.093 253.167 110.013 253.573 109.853 253.94C109.693 254.307 109.476 254.597 109.203 254.81C108.936 255.017 108.646 255.12 108.333 255.12C108.073 255.12 107.839 255.037 107.633 254.87C107.426 254.697 107.273 254.49 107.173 254.25L107.133 254.26V256.84C107.133 256.92 107.149 256.977 107.183 257.01C107.216 257.043 107.273 257.06 107.353 257.06H107.873V257.3H105.673V257.06ZM108.223 254.84C108.549 254.84 108.796 254.657 108.963 254.29C109.129 253.923 109.213 253.4 109.213 252.72C109.213 252.04 109.129 251.517 108.963 251.15C108.796 250.783 108.549 250.6 108.223 250.6C108.023 250.6 107.839 250.673 107.673 250.82C107.506 250.967 107.373 251.17 107.273 251.43C107.179 251.683 107.133 251.96 107.133 252.26V253.18C107.133 253.48 107.179 253.76 107.273 254.02C107.373 254.273 107.506 254.473 107.673 254.62C107.839 254.767 108.023 254.84 108.223 254.84ZM111.628 255.12C111.375 255.12 111.188 255.063 111.068 254.95C110.948 254.83 110.875 254.697 110.848 254.55C110.822 254.397 110.808 254.217 110.808 254.01H111.008C111.008 254.25 111.032 254.443 111.078 254.59C111.125 254.73 111.225 254.8 111.378 254.8C111.492 254.8 111.568 254.753 111.608 254.66C111.655 254.56 111.688 254.403 111.708 254.19C111.728 253.863 111.812 253.587 111.958 253.36C112.105 253.133 112.358 252.94 112.718 252.78V252.76C112.565 252.747 112.392 252.697 112.198 252.61C112.012 252.523 111.845 252.4 111.698 252.24C111.558 252.08 111.488 251.887 111.488 251.66C111.488 251.253 111.645 250.95 111.958 250.75C112.272 250.543 112.648 250.44 113.088 250.44H115.348V250.68H114.928C114.848 250.68 114.792 250.697 114.758 250.73C114.725 250.763 114.708 250.82 114.708 250.9V254.54C114.708 254.62 114.725 254.677 114.758 254.71C114.792 254.743 114.848 254.76 114.928 254.76H115.348V255H113.328V254.76H113.768C113.848 254.76 113.905 254.743 113.938 254.71C113.972 254.677 113.988 254.62 113.988 254.54V252.82H113.128C112.908 252.82 112.752 252.917 112.658 253.11C112.565 253.297 112.512 253.58 112.498 253.96C112.485 254.347 112.422 254.637 112.308 254.83C112.195 255.023 111.968 255.12 111.628 255.12ZM113.988 252.58V250.9C113.988 250.82 113.972 250.763 113.938 250.73C113.905 250.697 113.848 250.68 113.768 250.68H113.278C112.985 250.68 112.758 250.767 112.598 250.94C112.445 251.107 112.368 251.347 112.368 251.66C112.368 251.94 112.435 252.163 112.568 252.33C112.702 252.497 112.878 252.58 113.098 252.58H113.988Z" fill="black"/>
<path d="M26 160.743L7 173L7 149L26 160.743Z" fill="black"/>
<rect y="156" width="7" height="10" fill="#0C0C0C"/>
<path d="M268.339 138L276 149H261L268.339 138Z" fill="black"/>
<rect x="271" y="149" width="5" height="5" transform="rotate(90 271 149)" fill="#0C0C0C"/>
<path d="M502.339 138L510 149H495L502.339 138Z" fill="black"/>
<rect x="505" y="149" width="5" height="5" transform="rotate(90 505 149)" fill="#0C0C0C"/>
<path d="M269 149V160H41" stroke="black" stroke-dasharray="5 5"/>
<path d="M359 160C331.359 160 303.366 160 269 160" stroke="black" stroke-dasharray="5 5"/>
<path d="M503 149V160C427.273 160 512.152 160 418 160" stroke="black" stroke-dasharray="5 5"/>
</svg>
