<svg width="16" height="18" viewBox="0 0 16 18" fill="none" xmlns="http://www.w3.org/2000/svg">
<path d="M7.29426 6.73265V5.83686C7.29426 5.56837 7.51229 5.35072 7.78122 5.35072C8.05015 5.35072 8.26817 5.56837 8.26817 5.83686V6.73265C9.40699 6.506 10.268 5.50081 10.268 4.29833C10.268 3.71424 9.85161 2.65337 9.1813 1.52976C8.55772 0.48441 8.3204 0.23774 8.3204 0.23774C8.01823 -0.0763013 7.52037 -0.0796566 7.21397 0.230275C7.21397 0.230275 6.98289 0.464052 6.36357 1.51588C5.7041 2.63584 5.29442 3.70199 5.29442 4.29829C5.29442 5.50081 6.15544 6.506 7.29426 6.73265Z" fill="#F1E9DD"/>
<path d="M10.8664 8.08137C10.8664 7.75056 10.5969 7.48142 10.2654 7.48142H5.29717C4.96578 7.48142 4.69617 7.75056 4.69617 8.08137V11.0459L10.8664 11.0459V8.08137Z" fill="#F1E9DD"/>
<path d="M15.1091 12.0181H0.453435C0.0172409 12.0181 -0.130234 12.3066 0.125742 12.6592C0.125742 12.6592 4.00304 18 7.78123 18C11.5594 18 15.4368 12.6592 15.4368 12.6592C15.6927 12.3066 15.5453 12.0181 15.1091 12.0181Z" fill="#F1E9DD"/>
</svg>
