<svg fill="none" height="18" viewBox="0 0 16 18" width="16" xmlns="http://www.w3.org/2000/svg"><g fill="#f1e9dd"><path d="m7.29426 6.73265v-.89579c0-.26849.21803-.48614.48696-.48614s.48695.21765.48695.48614v.89579c1.13882-.22665 1.99983-1.23184 1.99983-2.43432 0-.58409-.41639-1.64496-1.0867-2.76857-.62358-1.04535-.8609-1.29202-.8609-1.29202-.30217-.3140413-.80003-.3173966-1.10643-.007465 0 0-.23108.233777-.8504 1.285605-.65947 1.11996-1.06915 2.18611-1.06915 2.78241 0 1.20252.86102 2.20771 1.99984 2.43436z"/><path d="m10.8664 8.08137c0-.33081-.2695-.59995-.601-.59995h-4.96823c-.33139 0-.601.26914-.601.59995v2.96453h6.17023z"/><path d="m15.1091 12.0181h-14.655665c-.4361941 0-.583669.2885-.327693.6411 0 0 3.877298 5.3408 7.655488 5.3408 3.77817 0 7.65557-5.3408 7.65557-5.3408.2559-.3526.1085-.6411-.3277-.6411z"/></g></svg>