<svg fill="none" height="16" viewBox="0 0 16 16" width="16" xmlns="http://www.w3.org/2000/svg"><g fill="#f1e9dd"><path d="m15.4749.474942-7.66127 3.948998-.46166.46166c.42914.24745.84827.56565 1.23437.95175l1.52616 1.52619c.3861.3861.7043.8053.9518 1.23437l.4616-.46166z"/><path d="m7.57039 12.0917.41465-.4147c.13369-.1337.33219-.2003.55882-.1875.52884.0297.99192-.1258 1.30385-.4377.63259-.6326.37929-1.91513-.56458-2.85899l-1.52619-1.52619c-.94386-.94387-2.22642-1.19714-2.85897-.56459-.31193.31193-.46739.77502-.43768 1.30385.0127.2266-.05387.42514-.18756.55883l-.41465.41465c-.13369.13369-.33219.2003-.55883.18756-.52883-.02971-.99192.12575-1.30385.43768l-1.478927 1.4789c-.914543.9146-.5484019 2.7688.816267 4.1335 1.36467 1.3647 3.21894 1.7308 4.13348.8163l1.47893-1.479c.31193-.3119.46739-.775.43768-1.3038-.01271-.2267.05387-.4251.18756-.5588z"/></g></svg>