<svg fill="none" height="14" viewBox="0 0 18 14" width="18" xmlns="http://www.w3.org/2000/svg"><g fill="#f1e9dd"><path d="m1.01436 8.19872c.16003 1.18738 1.13239 2.08288 2.26202 2.08288h9.59942c1.2599 0 2.285-1.0886 2.285-2.42692v-4.21355c0-.34544-.2639-.62557-.5891-.62557h-.291c-.9291 0-1.8157.30978-2.5634.89574-.6282.49254-1.11 1.14189-1.4104 1.89629h-3.71914c-.28157-3.25211-2.86437-5.80759-5.998752-5.80759-.170744 0-.333185.0787245-.445089.215853-.1119035.137001-.1620793.31886-.13801403.498418z"/><path d="m.857141 12.463v1.2513h12.310459c2.6646 0 4.8324-2.3024 4.8324-5.13269 0-.0034 0-.0068-.0001-.01018h-1.1779c-.0001.00338-.0001.00678-.0001.01018 0 2.14009-1.6393 3.88139-3.6543 3.88139h-1.8602v-.93h-1.1781v.93h-4.3002v-.93h-1.17812v.93z"/></g></svg>