<svg width="18" height="14" viewBox="0 0 18 14" fill="none" xmlns="http://www.w3.org/2000/svg">
<path d="M1.01436 8.19872C1.17439 9.3861 2.14675 10.2816 3.27638 10.2816H12.8758C14.1357 10.2816 15.1608 9.193 15.1608 7.85468V3.64113C15.1608 3.29569 14.8969 3.01556 14.5717 3.01556H14.2807C13.3516 3.01556 12.465 3.32534 11.7173 3.9113C11.0891 4.40384 10.6073 5.05319 10.3069 5.80759H6.58776C6.30619 2.55548 3.72339 0 0.589008 0C0.418264 0 0.255823 0.0787245 0.143919 0.215853C0.0320155 0.352854 -0.0181603 0.534713 0.00590497 0.714271L1.01436 8.19872Z" fill="#F1E9DD"/>
<path d="M0.857141 12.463V13.7143H13.1676C15.8322 13.7143 18 11.4119 18 8.58161C18 8.57821 18 8.57481 17.9999 8.57143H16.822C16.8219 8.57481 16.8219 8.57821 16.8219 8.58161C16.8219 10.7217 15.1826 12.463 13.1676 12.463H11.3074V11.533H10.1293V12.463H5.8291V11.533H4.65098V12.463H0.857141Z" fill="#F1E9DD"/>
</svg>
