<svg fill="none" height="13" viewBox="0 0 16 13" width="16" xmlns="http://www.w3.org/2000/svg"><g fill="#f1e9dd"><path d="m15.6825 2.53169-2.6327-2.410459c-.1058-.0787695-.2344-.121231-.3667-.121231h-9.37233c-.13231 0-.26092.0424615-.36739.121231l-2.69538 2.461539s-.248.15754-.248.49415v1.23077c0 .33908.276308.61539.615385.61539l.000601 6.76932c0 .3391.276307.6154.615384.6154h.61538c.33908 0 .61539-.2763.61539-.6154v-6.76932h11.07756v6.76932c0 .3391.2763.6154.6153.6154h.6154c.3391 0 .6154-.2763.6154-.6154v-6.76932c.3385-.00066.6142-.27671.6142-.61539v-1.23077c0-.32677-.3175-.54523-.3175-.54523z"/><path d="m12.3071 9.23092c-.3391 0-.6154-.27631-.6154-.61539v-3.07692h1.2308v3.07692c0 .33908-.2763.61539-.6154.61539z"/><path d="m3.07692 8.61553c0 .33908.27631.61539.61539.61539.33907 0 .61538-.27631.61538-.61539v-3.07692h-1.23077z"/></g></svg>