<svg fill="none" height="20" viewBox="0 0 20 20" width="20" xmlns="http://www.w3.org/2000/svg"><path clip-rule="evenodd" d="m9.94336 3.50004c.86304-.00493 1.77484.54588 2.72234 1.97115.9318 1.40175 1.6875 3.35483 2.2766 5.42551.5831 2.0497.9757 4.1145 1.2226 5.6762.123.7783.209 1.4259.2641 1.8768.0275.2254.0472.4013.0599.5195.0064.059.011.1037.0139.1328l.0032.0319.0007.007.0001.0013c0-.0001 0-.0004 1.4933-.1422 1.4932-.1418 1.4932-.1422 1.4932-.1426l-.0001-.0011-.0004-.0035-.0011-.0114-.0041-.0411c-.0036-.0354-.0088-.0864-.0159-.1521-.0141-.1314-.0355-.3215-.0648-.5619-.0587-.4806-.1495-1.1637-.2788-1.982-.0055-.0346-.0111-.0695-.0167-.1046-.0121.0002-.0242.0003-.0364.0003-1.0631 0-1.925-.8773-1.925-1.9596 0-.8314.5087-1.542 1.2266-1.8266-.1615-.6985-.3438-1.4176-.5488-2.138-.6213-2.18391-1.479-4.48312-2.6638-6.26542-1.1692-1.75877-2.8773-3.323758-5.23775-3.310294-2.35512.013434-4.04909 1.585564-5.20548 3.349264-1.17134 1.7865-2.01161 4.08368-2.61636 6.26345-.18783.677-.35557 1.3526-.50495 2.0109.73049.2782 1.25054.9952 1.25054 1.8359 0 1.0822-.86185 1.9596-1.925 1.9596-.01451 0-.028982-.0002-.043415-.0005-.010774.0697-.021278.1385-.031517.2063-.123138.8155-.208711 1.4961-.263697 1.9749-.027506.2395-.047396.4289-.060532.5598-.006569.0654-.011452.1163-.014756.1515l-.003787.041-.001031.0114-.000305.0035-.0001.0011c-.000036.0004-.000065.0007 1.4942.1318 1.49426.1311 1.49424.1313 1.49423.1314l.00011-.0012.00063-.007.00293-.0317c.00272-.029.00698-.0734.01288-.1322.01181-.1176.03018-.2927.05594-.5171.05156-.449.13259-1.094.24966-1.8693.2349-1.5557.61151-3.6134 1.17878-5.6581.57307-2.06557 1.31354-4.01608 2.23437-5.42052.93578-1.42723 1.8454-1.98929 2.71377-1.99424z" fill="#f1e9dd" fill-rule="evenodd"/></svg>