<svg fill="none" height="16" viewBox="0 0 12 16" width="12" xmlns="http://www.w3.org/2000/svg"><path clip-rule="evenodd" d="m1.3475 6.47651v-1.67063c0-2.64811 2.10436-4.80262479 4.69082-4.80588 2.58652 0 4.69078 2.15446 4.69078 4.80263v1.67062h.0319c.6834 0 1.239.56885 1.239 1.26845v8.2583h-12v-8.25499c0-.69965.555632-1.2685 1.23896-1.2685zm5.26561 5.32569c0-.1144.02554-.1831.12134-.255.31612-.2354.47259-.5623.47259-.9645-.00641-.5786-.39917-1.04288-.96432-1.16055-.50776-.1046-1.04742.18961-1.26774.68985-.22671.5133-.07664 1.0984.37679 1.4418.08945.0686.11177.1372.11177.2419-.00317.5133-.00317 1.0265-.00317 1.5398v.0033c0 .425.43746.7454.87492.5166.18519-.0949.29056-.3041.28099-.5166 0-.5133 0-1.0233-.00317-1.5366zm-.57479-9.69679c-1.45287 0-2.63756 1.20969-2.63756 2.70047v1.67063h5.27513v-1.67063c0-1.48752-1.18146-2.70047-2.63757-2.70047z" fill="#f1e9dd" fill-rule="evenodd"/></svg>