<svg width="154" height="120" viewBox="0 0 154 120" fill="none" xmlns="http://www.w3.org/2000/svg">
<path d="M2.15218 90.8504H4.2508L2.3859 93.9677L4.2508 97.0801H2.15218L0 93.9726L2.15218 90.8504ZM5.63852 90.8504H7.75175L5.88198 93.9726L7.75175 97.0947H5.63852L3.49608 93.9677L5.63852 90.8504ZM9.07617 90.0015C9.89419 88.3364 11.4118 87.5054 13.6289 87.5087C15.2795 87.5087 16.5504 87.9477 17.4366 88.8307C18.3228 89.7137 18.7659 90.9577 18.7659 92.5578C18.7659 94.1579 18.3276 95.5092 17.4512 96.402C16.5747 97.2947 15.3428 97.7436 13.7603 97.7436C12.3288 97.7436 11.2332 97.4606 10.4639 96.8947C9.70974 96.3508 9.14581 95.5827 8.85218 94.6994L11.725 93.9238C11.8019 94.3677 12.0387 94.7678 12.3905 95.0484C12.7423 95.329 13.1847 95.4704 13.6337 95.4458C14.8023 95.4458 15.4694 94.8149 15.635 93.553H12.6599V91.7139H15.6544C15.4597 90.4406 14.7877 89.8015 13.624 89.8015C13.2268 89.7732 12.8317 89.8808 12.5035 90.1068C12.1753 90.3328 11.9334 90.6638 11.8175 91.0455L9.07617 90.0015ZM19.5936 87.6745H28.8743V90.1137H25.758V97.5679H22.705V90.1186H19.5936V87.6745ZM36.1878 95.9434H32.7258L32.2389 97.5728H29.1226L32.8329 87.6745H36.1635L39.8835 97.5679H36.6845L36.1878 95.9434ZM35.5451 93.8018L34.4641 90.2503L33.388 93.8116L35.5451 93.8018ZM50.1526 97.5728H47.1289V90.1089H43.774V97.5679H40.7259V87.6745H50.177L50.1526 97.5728ZM52.1003 87.6745H55.1533V91.1382H58.4887V87.6745H61.5563V97.5679H58.4887V93.5676H55.1533V97.5679H52.1003V87.6745ZM66.5082 91.4894H68.1394C69.6343 91.4894 70.7444 91.7578 71.4699 92.2846C71.8392 92.575 72.1311 92.9523 72.3197 93.3829C72.5082 93.8136 72.5877 94.2843 72.5509 94.7531C72.5746 95.1562 72.498 95.5589 72.328 95.925C72.158 96.2911 71.9 96.6092 71.5771 96.8508C70.725 97.3851 69.7269 97.6377 68.7237 97.5728H63.4455V87.6745H66.4936L66.5082 91.4894ZM66.5082 95.4458H68.0713C69.0451 95.4458 69.5077 95.0995 69.5077 94.4067C69.5077 93.8018 69.0207 93.4945 68.0713 93.4945H66.5082V95.4458ZM73.3008 87.6745H76.3586V97.5679H73.3008V87.6745ZM87.699 87.6745V97.5679H84.8261V92.1383L81.1158 97.5679H78.2381V87.6745H81.1158V93.1774L84.831 87.6989L87.699 87.6745ZM85.464 85.2354C85.3792 85.7825 85.0838 86.2746 84.6411 86.6062C84.1733 86.9487 83.6088 87.1333 83.0294 87.1333C82.45 87.1333 81.8855 86.9487 81.4177 86.6062C80.9763 86.275 80.6839 85.7821 80.6045 85.2354H81.778C81.8518 85.4966 82.0143 85.7238 82.2374 85.8779C82.4605 86.032 82.7303 86.1032 83.0002 86.0793C83.2797 86.1113 83.5616 86.0444 83.7972 85.8903C84.0328 85.7363 84.2073 85.5046 84.2905 85.2354H85.464ZM103.514 97.5679H100.471V90.104H97.116V97.5679H94.0678V87.6745H103.514V97.5679ZM104.488 87.6697H107.804L109.172 91.748L110.521 87.6697H113.627L110.384 95.3141C110.191 95.7922 109.96 96.2539 109.693 96.6947C109.472 97.0202 109.168 97.2798 108.812 97.446C108.307 97.6642 107.759 97.7643 107.21 97.7387C106.854 97.7387 106.236 97.685 105.359 97.5826V95.5385C105.876 95.5922 106.251 95.6166 106.489 95.6166C107.195 95.6166 107.624 95.3531 107.775 94.8312L104.488 87.6697ZM114.562 87.6697H117.615V91.1333H120.951V87.6697H124.018V97.5679H120.951V93.5676H117.615V97.5679H114.562V87.6697ZM134.877 97.5679H131.468L130.28 95.0165C130.118 94.6065 129.894 94.2233 129.618 93.8799C129.53 93.8013 129.428 93.7409 129.317 93.7024C129.205 93.6639 129.088 93.6479 128.97 93.6555V97.5582H125.922V87.6745H128.97V91.4797C129.087 91.4791 129.203 91.4535 129.31 91.4048C129.416 91.356 129.511 91.2851 129.589 91.1967C129.882 90.7215 130.116 90.2119 130.285 89.6796C130.439 89.2014 130.673 88.7528 130.976 88.3526C131.287 88.0467 131.685 87.8454 132.116 87.777C132.932 87.6366 133.761 87.5778 134.589 87.6014V89.6942H134.433C134.025 89.6646 133.618 89.7691 133.275 89.9918C132.983 90.2538 132.769 90.5914 132.656 90.9675C132.538 91.3196 132.362 91.6494 132.135 91.9431C131.926 92.1761 131.664 92.3552 131.371 92.4651C131.811 92.6121 132.206 92.869 132.52 93.2115C132.944 93.7095 133.296 94.2645 133.567 94.8604L134.877 97.5679ZM135.139 87.6697H144.42V90.1089H141.304V97.5679H138.285V90.1186H135.174L135.139 87.6697ZM149.718 93.9628L147.575 97.0898H145.467L147.332 93.9677L145.467 90.8455H147.575L149.718 93.9628ZM153.214 93.9628L151.067 97.085H148.997L150.862 93.9579L148.997 90.8504H151.101L153.214 93.9628Z" fill="#800000"/>
<path d="M44.9984 103.994H45.7677L44.7939 108.56L48.8596 103.994H49.6046L48.3338 109.936H47.5742L48.548 105.404L44.4969 109.936H43.7227L44.9984 103.994ZM50.7245 106.702L50.0575 106.653C50.1715 106.311 50.3951 106.016 50.6935 105.814C50.992 105.612 51.3486 105.514 51.7081 105.536C52.1259 105.506 52.5404 105.627 52.8767 105.877C53.0021 105.978 53.1031 106.106 53.1722 106.251C53.2414 106.396 53.2768 106.555 53.276 106.716C53.2818 106.937 53.2094 107.153 53.0715 107.326C52.9451 107.494 52.7774 107.627 52.5846 107.711C52.2696 107.841 51.9437 107.942 51.6107 108.014C51.2456 108.083 50.8927 108.206 50.5639 108.38C50.4815 108.431 50.4142 108.503 50.3688 108.589C50.3234 108.674 50.3017 108.771 50.3058 108.868C50.3032 108.969 50.3299 109.069 50.3826 109.155C50.4352 109.242 50.5117 109.311 50.6028 109.355C50.8198 109.477 51.0653 109.537 51.3137 109.531C51.597 109.544 51.8753 109.454 52.0977 109.277C52.291 109.094 52.4365 108.867 52.5213 108.614L53.1397 108.663C53.0521 109.081 52.8153 109.452 52.4736 109.707C52.132 109.962 51.7091 110.083 51.2845 110.048C50.8344 110.083 50.3861 109.962 50.0136 109.707C49.8841 109.611 49.7788 109.486 49.7061 109.342C49.6333 109.198 49.5953 109.039 49.5949 108.877C49.5937 108.649 49.6635 108.425 49.7945 108.238C49.9173 108.052 50.0847 107.899 50.2815 107.794C50.5949 107.659 50.9212 107.556 51.2553 107.487C51.6397 107.434 52.0083 107.3 52.3362 107.092C52.4436 106.991 52.5082 106.853 52.5164 106.706C52.5138 106.628 52.4931 106.551 52.4559 106.481C52.4188 106.412 52.3662 106.352 52.3022 106.306C52.1129 106.179 51.8867 106.119 51.6594 106.136C51.4528 106.121 51.2463 106.166 51.0654 106.267C50.9229 106.387 50.8069 106.535 50.7245 106.702ZM53.2955 111.58L54.5371 105.628H55.2091L55.0873 106.228C55.2797 106.01 55.5068 105.826 55.7593 105.682C55.9535 105.582 56.1689 105.53 56.3874 105.531C56.5795 105.527 56.7701 105.565 56.9459 105.642C57.1218 105.72 57.2785 105.835 57.4051 105.98C57.6971 106.341 57.8416 106.799 57.8092 107.263C57.8145 107.681 57.7401 108.097 57.5901 108.487C57.4646 108.814 57.2797 109.115 57.0448 109.375C56.8563 109.575 56.6337 109.741 56.3874 109.863C56.1771 109.968 55.9455 110.023 55.7106 110.024C55.4565 110.023 55.2082 109.948 54.9956 109.809C54.7831 109.669 54.6153 109.471 54.5128 109.238L54.0259 111.575L53.2955 111.58ZM54.7562 108.165C54.7455 108.39 54.7685 108.615 54.8244 108.833C54.8898 109.006 55.0051 109.156 55.1555 109.263C55.3129 109.371 55.5002 109.427 55.6911 109.424C55.9109 109.415 56.1234 109.343 56.3037 109.216C56.484 109.09 56.6245 108.915 56.7088 108.711C56.9616 108.265 57.0958 107.761 57.0983 107.248C57.1172 106.944 57.0236 106.643 56.8354 106.404C56.7561 106.31 56.6569 106.234 56.545 106.182C56.433 106.131 56.311 106.105 56.1878 106.106C56.0046 106.105 55.8249 106.157 55.6716 106.258C55.4951 106.372 55.3442 106.521 55.2285 106.697C55.0805 106.918 54.9657 107.159 54.8877 107.414C54.8012 107.659 54.752 107.915 54.7416 108.175L54.7562 108.165ZM61.2079 109.141C61.0231 109.393 60.7859 109.602 60.5127 109.754C60.2396 109.905 59.9368 109.996 59.6254 110.019C59.3304 110.031 59.0422 109.928 58.822 109.731C58.7239 109.644 58.6458 109.536 58.5929 109.416C58.5399 109.295 58.5135 109.165 58.5153 109.033C58.535 108.719 58.5822 108.408 58.6565 108.102L59.1726 105.619H59.8884L59.3138 108.37C59.2721 108.544 59.2477 108.723 59.2408 108.902C59.2369 108.972 59.2484 109.043 59.2745 109.109C59.3005 109.174 59.3405 109.234 59.3917 109.282C59.5131 109.382 59.6684 109.431 59.8251 109.419C60.0341 109.419 60.2398 109.367 60.424 109.268C60.6121 109.167 60.7778 109.03 60.9109 108.863C61.0591 108.682 61.176 108.477 61.2566 108.258C61.3445 108.003 61.4129 107.742 61.4611 107.477L61.8506 105.619H62.581L61.6851 109.921H61.0083L61.2079 109.141ZM63.7788 105.619H64.4995L64.1148 107.414H66.1063L66.4861 105.619H67.1921L66.2865 109.921H65.561L65.97 107.994H63.9882L63.5743 109.921H62.8488L63.7788 105.619ZM70.4009 108.351L71.1313 108.429C70.9951 108.897 70.7241 109.314 70.3523 109.629C70.022 109.884 69.6157 110.022 69.1982 110.019C68.9879 110.028 68.7781 109.992 68.5826 109.913C68.3871 109.835 68.2103 109.717 68.0637 109.565C67.911 109.393 67.7937 109.192 67.7185 108.975C67.6433 108.757 67.6117 108.527 67.6255 108.297C67.6284 107.821 67.7244 107.35 67.9079 106.911C68.0647 106.494 68.3429 106.134 68.7065 105.877C69.0544 105.638 69.4679 105.514 69.8897 105.521C70.2935 105.501 70.689 105.641 70.9901 105.911C71.1253 106.046 71.231 106.208 71.3006 106.386C71.3701 106.564 71.402 106.754 71.3943 106.946L70.6736 106.994C70.6781 106.877 70.6594 106.76 70.6184 106.651C70.5775 106.541 70.5151 106.441 70.435 106.355C70.3531 106.278 70.2566 106.218 70.1513 106.179C70.0459 106.139 69.9338 106.121 69.8215 106.126C69.5413 106.122 69.2693 106.221 69.057 106.404C68.821 106.638 68.6527 106.931 68.5701 107.253C68.4519 107.607 68.3895 107.977 68.3851 108.351C68.3641 108.646 68.4506 108.939 68.6286 109.175C68.7011 109.263 68.7926 109.334 68.8963 109.383C69 109.431 69.1132 109.455 69.2275 109.453C69.4799 109.446 69.7216 109.349 69.9092 109.18C70.1397 108.957 70.3048 108.675 70.3863 108.365L70.4009 108.351ZM72.4996 105.619H73.2153L72.8063 107.458H72.9378C73.1132 107.463 73.2851 107.408 73.4247 107.302C73.6386 107.083 73.8205 106.835 73.9652 106.565C74.1237 106.272 74.3331 106.009 74.5836 105.789C74.7876 105.663 75.0255 105.601 75.2653 105.614H75.6061L75.4698 106.199H75.2993C75.17 106.188 75.0401 106.213 74.9244 106.272C74.7996 106.396 74.6959 106.539 74.6177 106.697C74.4846 106.944 74.3211 107.173 74.1307 107.38C73.9812 107.525 73.8017 107.634 73.6049 107.702C73.7729 107.763 73.9222 107.868 74.0382 108.004C74.1746 108.188 74.2814 108.392 74.3547 108.609L74.8416 109.916H74.0869L73.6828 108.838C73.5992 108.554 73.4547 108.291 73.2592 108.068C73.098 107.943 72.8971 107.883 72.6943 107.897L72.2561 109.916H71.5355L72.4996 105.619ZM78.3913 109.155C78.2065 109.408 77.9693 109.617 77.6961 109.768C77.4229 109.92 77.1202 110.01 76.8088 110.034C76.5138 110.046 76.2256 109.943 76.0054 109.746C75.9079 109.658 75.8305 109.55 75.7784 109.43C75.7263 109.31 75.7008 109.179 75.7035 109.048C75.7208 108.734 75.7664 108.422 75.8398 108.116L76.356 105.633H77.0863L76.5166 108.385C76.475 108.559 76.4505 108.737 76.4436 108.916C76.4391 108.987 76.4498 109.057 76.4751 109.123C76.5003 109.188 76.5394 109.248 76.5897 109.297C76.7111 109.397 76.8664 109.446 77.023 109.434C77.2335 109.433 77.4407 109.381 77.6268 109.282C77.8153 109.182 77.9811 109.045 78.1137 108.877C78.262 108.697 78.3789 108.492 78.4594 108.272C78.552 108.019 78.622 107.758 78.6688 107.492L79.0535 105.633H79.7887L78.8879 109.936H78.2452L78.3913 109.155ZM82.9975 109.155C82.8127 109.408 82.5756 109.617 82.3024 109.768C82.0292 109.92 81.7265 110.01 81.4151 110.034C81.1201 110.046 80.8319 109.943 80.6116 109.746C80.5142 109.658 80.4368 109.55 80.3847 109.43C80.3326 109.31 80.307 109.179 80.3097 109.048C80.327 108.734 80.3727 108.422 80.4461 108.116L80.9622 105.633H81.6926L81.118 108.385C81.0799 108.56 81.0571 108.737 81.0499 108.916C81.0454 108.987 81.0561 109.057 81.0813 109.123C81.1065 109.188 81.1456 109.248 81.1959 109.297C81.3174 109.397 81.4727 109.446 81.6293 109.434C81.8383 109.433 82.044 109.381 82.2282 109.282C82.4172 109.183 82.5831 109.045 82.7151 108.877C82.8634 108.697 82.9802 108.492 83.0608 108.272C83.1487 108.017 83.2186 107.757 83.2702 107.492L83.6549 105.633H84.3901L83.4893 109.936H82.8174L82.9975 109.155ZM81.6682 103.95H82.1552C82.1686 104.114 82.2393 104.268 82.3548 104.384C82.4783 104.48 82.632 104.529 82.7882 104.521C82.962 104.521 83.1317 104.468 83.2751 104.37C83.4216 104.264 83.5348 104.118 83.6013 103.95H84.0882C84.012 104.253 83.8414 104.523 83.6013 104.721C83.3633 104.91 83.0673 105.01 82.7638 105.004C82.624 105.01 82.4844 104.988 82.3531 104.94C82.2218 104.891 82.1016 104.817 81.9994 104.721C81.7998 104.514 81.6866 104.238 81.6828 103.95H81.6682ZM86.6105 111.585L87.8521 105.633H88.5289L88.4023 106.233C88.5968 106.017 88.8235 105.833 89.0743 105.687C89.27 105.586 89.4872 105.534 89.7073 105.536C89.8992 105.532 90.0897 105.57 90.2654 105.648C90.4411 105.725 90.5979 105.84 90.7249 105.984C91.0148 106.347 91.159 106.804 91.1291 107.267C91.1351 107.686 91.059 108.102 90.9051 108.492C90.7814 108.82 90.5963 109.121 90.3597 109.38C90.174 109.581 89.9528 109.747 89.7073 109.868C89.4952 109.973 89.2621 110.028 89.0256 110.029C88.7715 110.028 88.5232 109.953 88.3106 109.814C88.098 109.674 87.9303 109.476 87.8278 109.243L87.3409 111.58L86.6105 111.585ZM88.0712 108.17C88.058 108.395 88.081 108.621 88.1394 108.838C88.2041 109.014 88.3218 109.166 88.4763 109.271C88.6307 109.377 88.8142 109.432 89.0012 109.429C89.2217 109.42 89.435 109.348 89.6161 109.222C89.7972 109.096 89.9387 108.92 90.0238 108.716C90.2751 108.27 90.4076 107.766 90.4084 107.253C90.4287 106.949 90.3369 106.649 90.1504 106.409C90.0709 106.315 89.9717 106.239 89.8597 106.188C89.7478 106.136 89.6259 106.11 89.5028 106.111C89.3181 106.11 89.1369 106.162 88.9818 106.263C88.8062 106.378 88.6556 106.527 88.5387 106.702C88.2487 107.137 88.0805 107.642 88.0518 108.165L88.0712 108.17ZM94.484 109.394C94.2653 109.594 94.0173 109.759 93.7487 109.882C93.5112 109.982 93.2563 110.033 92.9988 110.034C92.8213 110.043 92.6437 110.017 92.4764 109.957C92.3091 109.896 92.1556 109.803 92.025 109.682C91.9044 109.567 91.8096 109.427 91.7467 109.273C91.6837 109.118 91.6541 108.952 91.6598 108.785C91.6566 108.567 91.7102 108.353 91.8152 108.163C91.9203 107.973 92.0732 107.814 92.2587 107.702C92.4628 107.581 92.6872 107.498 92.9209 107.458C93.2326 107.416 93.5463 107.392 93.8607 107.385C94.1907 107.383 94.5187 107.334 94.8345 107.238C94.882 107.08 94.9098 106.916 94.9173 106.75C94.9208 106.673 94.9058 106.596 94.8736 106.526C94.8414 106.455 94.793 106.393 94.7323 106.345C94.5126 106.199 94.2508 106.128 93.9873 106.145C93.7206 106.134 93.4569 106.205 93.2326 106.35C93.0334 106.494 92.885 106.697 92.8089 106.931L92.0688 106.867C92.196 106.473 92.4471 106.131 92.7846 105.892C93.153 105.651 93.587 105.532 94.0262 105.55C94.478 105.527 94.9238 105.661 95.2874 105.931C95.4001 106.017 95.4909 106.129 95.5527 106.257C95.6144 106.385 95.6453 106.525 95.6428 106.667C95.6379 106.937 95.6037 107.205 95.5406 107.468L95.302 108.536C95.2372 108.808 95.1997 109.086 95.19 109.365C95.1986 109.563 95.228 109.759 95.2776 109.951H94.5375C94.5025 109.769 94.4862 109.584 94.4888 109.399L94.484 109.394ZM94.7518 107.75C94.6464 107.792 94.5371 107.823 94.4255 107.843C94.3087 107.868 94.109 107.887 93.8363 107.911C93.5319 107.929 93.23 107.978 92.9355 108.058C92.7763 108.105 92.6363 108.203 92.5363 108.336C92.4494 108.458 92.4034 108.605 92.4048 108.755C92.4043 108.847 92.4226 108.937 92.4587 109.021C92.4947 109.105 92.5476 109.181 92.6142 109.243C92.7841 109.385 93.0019 109.457 93.2228 109.443C93.4728 109.437 93.7168 109.366 93.9317 109.238C94.1465 109.11 94.3249 108.928 94.4499 108.711C94.6038 108.412 94.7075 108.089 94.7566 107.755L94.7518 107.75ZM99.134 109.151C98.9492 109.403 98.712 109.612 98.4389 109.763C98.1657 109.915 97.863 110.005 97.5515 110.029C97.2579 110.042 96.9709 109.938 96.753 109.741C96.6549 109.653 96.5768 109.546 96.5238 109.425C96.4709 109.305 96.4444 109.175 96.4462 109.043C96.4635 108.729 96.5092 108.417 96.5826 108.111L97.0987 105.628H97.834L97.2594 108.38C97.2177 108.554 97.1932 108.732 97.1864 108.912C97.1819 108.982 97.1926 109.052 97.2178 109.118C97.243 109.183 97.2821 109.243 97.3324 109.292C97.4539 109.392 97.6091 109.441 97.7658 109.429C97.9714 109.426 98.1734 109.374 98.355 109.277C98.5434 109.178 98.7092 109.04 98.8419 108.872C98.9919 108.693 99.109 108.488 99.1876 108.268C99.2801 108.014 99.3502 107.753 99.397 107.487L99.7865 105.628H100.517L99.6209 109.931H98.9441L99.134 109.151ZM97.8096 103.945H98.2965C98.3086 104.108 98.3776 104.262 98.4913 104.379C98.6147 104.476 98.7685 104.524 98.9246 104.516C99.0983 104.515 99.2678 104.462 99.4116 104.365C99.5567 104.259 99.6683 104.113 99.7329 103.945H100.22C100.144 104.248 99.9731 104.518 99.7329 104.716C99.493 104.905 99.1955 105.005 98.8906 104.999C98.7508 105.005 98.6113 104.983 98.4802 104.934C98.349 104.885 98.2286 104.811 98.1261 104.716C97.9238 104.512 97.8086 104.238 97.8047 103.95L97.8096 103.945ZM100.936 108.297C100.909 107.533 101.173 106.788 101.676 106.214C101.877 105.99 102.124 105.812 102.401 105.694C102.678 105.576 102.977 105.521 103.278 105.531C103.509 105.52 103.739 105.558 103.955 105.642C104.171 105.726 104.366 105.854 104.529 106.019C104.694 106.193 104.822 106.4 104.906 106.625C104.99 106.851 105.027 107.091 105.016 107.331C105.019 107.806 104.916 108.276 104.714 108.707C104.535 109.109 104.24 109.449 103.867 109.682C103.519 109.904 103.115 110.022 102.703 110.024C102.387 110.027 102.074 109.954 101.793 109.809C101.527 109.674 101.308 109.461 101.164 109.199C101.01 108.926 100.93 108.616 100.931 108.302L100.936 108.297ZM101.671 108.224C101.647 108.557 101.752 108.887 101.963 109.146C102.057 109.248 102.171 109.33 102.299 109.384C102.427 109.439 102.564 109.466 102.703 109.463C102.87 109.464 103.036 109.431 103.19 109.365C103.35 109.298 103.495 109.2 103.619 109.077C103.751 108.946 103.864 108.796 103.955 108.633C104.049 108.463 104.126 108.283 104.183 108.097C104.262 107.847 104.303 107.588 104.305 107.326C104.326 106.997 104.221 106.673 104.013 106.419C103.92 106.315 103.805 106.233 103.678 106.177C103.55 106.122 103.412 106.094 103.273 106.097C103.054 106.093 102.838 106.151 102.65 106.263C102.454 106.388 102.288 106.555 102.163 106.75C102.003 106.971 101.888 107.221 101.827 107.487C101.742 107.726 101.688 107.975 101.666 108.229L101.671 108.224ZM106.311 105.628H107.037L106.647 107.424H108.639L109.023 105.628H109.739L108.829 109.931H108.093L108.507 108.004H106.521L106.107 109.931H105.386L106.311 105.628ZM55.993 114.488L56.1293 113.853H56.6601C56.9359 113.832 57.2131 113.867 57.4745 113.958C57.7359 114.049 57.9758 114.192 58.1793 114.38C58.5482 114.856 58.7223 115.454 58.6662 116.053C58.7167 117.053 58.5052 118.049 58.0527 118.941C57.8845 119.265 57.6293 119.534 57.3161 119.72C57.0028 119.905 56.644 119.999 56.2803 119.99C55.8222 120.004 55.3761 119.842 55.0338 119.537C54.8619 119.361 54.7295 119.15 54.6455 118.919C54.5615 118.687 54.5279 118.441 54.5469 118.195C54.5279 117.493 54.771 116.81 55.2285 116.278C55.4235 116.033 55.6709 115.836 55.9524 115.7C56.2339 115.564 56.5423 115.493 56.8549 115.492C57.1029 115.486 57.3477 115.551 57.5609 115.678C57.7744 115.811 57.9438 116.005 58.0478 116.234C58.0538 115.955 58.0359 115.676 57.9942 115.4C57.954 115.22 57.8704 115.052 57.7508 114.912C57.6251 114.757 57.4552 114.645 57.2639 114.59C57.0026 114.516 56.7317 114.483 56.4605 114.492L55.993 114.488ZM55.287 118.229C55.2721 118.534 55.3672 118.833 55.5548 119.073C55.6481 119.182 55.7651 119.268 55.8968 119.325C56.0284 119.381 56.1713 119.407 56.3144 119.4C56.5479 119.399 56.7768 119.335 56.9773 119.215C57.1777 119.094 57.3422 118.923 57.4538 118.717C57.7314 118.279 57.8799 117.772 57.8823 117.254C57.8918 116.951 57.7972 116.655 57.6145 116.414C57.5253 116.304 57.4114 116.216 57.282 116.157C57.1526 116.099 57.0113 116.072 56.8695 116.078C56.6344 116.076 56.4031 116.137 56.2 116.255C55.9969 116.374 55.8295 116.545 55.7155 116.751C55.4294 117.191 55.2787 117.705 55.2821 118.229H55.287ZM59.1823 119.893L59.3576 119.063H60.1854L60.0101 119.893H59.1823ZM64.9231 113.951H68.7503L68.6042 114.629H65.561L65.1714 116.483H66.3741C66.7971 116.462 67.2208 116.507 67.6304 116.614C67.8825 116.708 68.0989 116.879 68.2488 117.102C68.4201 117.344 68.5073 117.635 68.4971 117.932C68.4904 118.312 68.3743 118.682 68.1627 118.998C67.9511 119.314 67.653 119.562 67.3041 119.712C66.7815 119.875 66.2343 119.945 65.6876 119.917H63.662L64.9231 113.951ZM64.592 119.22H65.2883C65.7896 119.239 66.2915 119.198 66.7831 119.098C67.0434 119.036 67.2754 118.888 67.4421 118.678C67.6089 118.469 67.7009 118.209 67.7034 117.941C67.7127 117.765 67.6573 117.592 67.5476 117.454C67.4408 117.321 67.291 117.229 67.124 117.195C66.8411 117.146 66.554 117.125 66.267 117.132H65.0254L64.592 119.22ZM71.8666 119.356C71.649 119.555 71.4028 119.719 71.1362 119.844C70.8987 119.944 70.6438 119.995 70.3863 119.995C70.2088 120.005 70.031 119.98 69.8636 119.919C69.6963 119.859 69.5428 119.765 69.4125 119.644C69.2919 119.529 69.1971 119.389 69.1341 119.234C69.0712 119.08 69.0416 118.913 69.0473 118.746C69.0423 118.522 69.0996 118.301 69.2129 118.107C69.3182 117.925 69.4672 117.773 69.6462 117.663C69.8503 117.542 70.0747 117.46 70.3084 117.419C70.6185 117.378 70.9306 117.353 71.2433 117.346C71.5733 117.345 71.9013 117.296 72.2172 117.2C72.2646 117.041 72.2924 116.877 72.2999 116.712C72.3034 116.635 72.2884 116.558 72.2562 116.487C72.224 116.417 72.1756 116.355 72.1149 116.307C71.8952 116.16 71.6334 116.09 71.3699 116.107C71.1032 116.096 70.8396 116.167 70.6152 116.312C70.4158 116.456 70.2661 116.659 70.1867 116.893L69.4514 116.829C69.577 116.434 69.8284 116.091 70.1672 115.853C70.5339 115.613 70.9663 115.494 71.404 115.512C71.8574 115.487 72.3052 115.622 72.67 115.892C72.7827 115.979 72.8735 116.09 72.9353 116.218C72.997 116.346 73.0279 116.487 73.0254 116.629C73.0206 116.899 72.9863 117.167 72.9232 117.429L72.6846 118.498C72.6174 118.769 72.5798 119.047 72.5726 119.327C72.5812 119.525 72.6106 119.721 72.6602 119.912H71.9201C71.8903 119.728 71.8773 119.542 71.8812 119.356H71.8666ZM72.1392 117.712C72.0322 117.754 71.9213 117.785 71.8081 117.805C71.6913 117.829 71.4965 117.849 71.2238 117.873C70.9178 117.891 70.6143 117.94 70.3182 118.019C70.1597 118.066 70.0211 118.164 69.9238 118.298C69.8369 118.42 69.7908 118.567 69.7923 118.717C69.7918 118.808 69.8101 118.899 69.8461 118.983C69.8822 119.067 69.9351 119.142 70.0017 119.205C70.1701 119.346 70.3861 119.418 70.6054 119.405C70.8562 119.399 71.1013 119.329 71.317 119.201C71.5328 119.073 71.712 118.891 71.8373 118.673C71.9931 118.372 72.1 118.047 72.1539 117.712H72.1392ZM73.673 115.59H74.3937L74.2379 116.312C74.1594 116.632 74.1105 116.959 74.0918 117.288C74.0884 117.371 74.1063 117.454 74.1438 117.528C74.1813 117.602 74.2371 117.666 74.306 117.712C74.5017 117.822 74.7249 117.873 74.9488 117.858C75.2825 117.863 75.6137 117.8 75.9226 117.673L76.3608 115.605H77.0912L76.1758 119.907H75.4698L75.8204 118.259C75.4931 118.373 75.1494 118.434 74.8027 118.439C74.4377 118.46 74.0757 118.362 73.7704 118.161C73.6477 118.069 73.5494 117.949 73.484 117.81C73.4186 117.672 73.3883 117.519 73.3955 117.366C73.4338 116.963 73.4989 116.564 73.5903 116.171L73.673 115.59ZM78.2355 115.59H78.9512L78.5422 117.429H78.6688C78.8442 117.434 79.0159 117.379 79.1557 117.273C79.3684 117.053 79.5502 116.805 79.6962 116.536C79.8625 116.243 80.0802 115.982 80.339 115.766C80.5413 115.639 80.7775 115.578 81.0158 115.59H81.3566L81.2252 116.175H81.0499C80.9205 116.164 80.7906 116.189 80.6749 116.249C80.5505 116.372 80.4484 116.515 80.373 116.673C80.2383 116.919 80.0748 117.148 79.8861 117.356C79.7343 117.5 79.5533 117.61 79.3554 117.678C79.5241 117.738 79.6737 117.843 79.7887 117.98C79.927 118.163 80.0339 118.368 80.1052 118.585L80.5922 119.893H79.852L79.4479 118.815C79.3634 118.531 79.2208 118.269 79.0291 118.044C78.8657 117.921 78.6636 117.86 78.4594 117.873L78.0261 119.893H77.3006L78.2355 115.59ZM84.3755 118.429L85.0864 118.502C84.9544 118.901 84.709 119.252 84.3804 119.512C84.0178 119.833 83.5492 120.007 83.0657 120C82.7597 120.003 82.458 119.927 82.1893 119.781C81.9266 119.633 81.7157 119.408 81.5855 119.137C81.4387 118.833 81.3669 118.498 81.3761 118.161C81.3764 117.686 81.4881 117.218 81.7023 116.795C81.8841 116.396 82.1765 116.057 82.5447 115.819C82.8797 115.607 83.2683 115.496 83.6646 115.497C83.8918 115.489 84.1183 115.527 84.3296 115.611C84.5409 115.695 84.7323 115.823 84.8917 115.985C85.0502 116.161 85.1723 116.367 85.2509 116.59C85.3295 116.814 85.3629 117.051 85.3493 117.288C85.3483 117.505 85.3303 117.722 85.2958 117.937H82.1308C82.1264 118.013 82.1264 118.089 82.1308 118.166C82.109 118.497 82.2076 118.824 82.4084 119.088C82.4907 119.188 82.5941 119.268 82.7111 119.323C82.8282 119.378 82.956 119.406 83.0852 119.405C83.3514 119.399 83.6096 119.313 83.8253 119.156C84.0804 118.974 84.2768 118.722 84.3901 118.429H84.3755ZM82.2866 117.366H84.7212C84.7212 117.288 84.7212 117.234 84.7212 117.2C84.7408 116.894 84.6433 116.592 84.4486 116.356C84.3573 116.26 84.2468 116.184 84.1243 116.133C84.0018 116.083 83.87 116.059 83.7376 116.063C83.424 116.063 83.1211 116.178 82.8855 116.385C82.5922 116.644 82.3835 116.986 82.2866 117.366ZM89.0207 118.429L89.7316 118.502C89.5996 118.901 89.3542 119.252 89.0256 119.512C88.663 119.833 88.1944 120.007 87.7109 120C87.4049 120.003 87.1033 119.927 86.8345 119.781C86.5723 119.631 86.3604 119.407 86.2258 119.137C86.083 118.832 86.013 118.498 86.0213 118.161C86.0216 117.686 86.1333 117.218 86.3475 116.795C86.5293 116.396 86.8217 116.057 87.1899 115.819C87.525 115.607 87.9135 115.496 88.3098 115.497C88.537 115.489 88.7635 115.527 88.9748 115.611C89.1861 115.695 89.3775 115.823 89.5369 115.985C89.6954 116.161 89.8175 116.367 89.8961 116.59C89.9747 116.814 90.0081 117.051 89.9946 117.288C89.9935 117.505 89.9756 117.722 89.941 117.937H86.776C86.7716 118.013 86.7716 118.089 86.776 118.166C86.7542 118.497 86.8528 118.824 87.0536 119.088C87.1354 119.188 87.2387 119.269 87.3559 119.324C87.4731 119.379 87.601 119.406 87.7304 119.405C87.9966 119.399 88.2548 119.313 88.4705 119.156C88.7112 118.969 88.8937 118.717 88.9964 118.429H89.0207ZM86.8929 117.366H89.3275C89.3275 117.288 89.3275 117.234 89.3275 117.2C89.3482 116.893 89.2486 116.59 89.0499 116.356C88.96 116.259 88.8505 116.183 88.7287 116.133C88.6069 116.082 88.4756 116.059 88.3439 116.063C88.029 116.064 87.7249 116.179 87.4869 116.385C87.1889 116.644 86.9737 116.985 86.8685 117.366H86.8929ZM93.3348 117.639C93.57 117.71 93.7808 117.845 93.9435 118.029C94.081 118.2 94.1535 118.415 94.148 118.634C94.1422 118.81 94.1003 118.984 94.0249 119.143C93.9495 119.303 93.8423 119.445 93.7098 119.561C93.3549 119.869 92.8926 120.023 92.4243 119.99C92.0755 120.006 91.7285 119.932 91.4164 119.776C91.1665 119.628 90.9612 119.416 90.8223 119.161C90.6748 118.889 90.5994 118.583 90.6032 118.273C90.589 117.566 90.8214 116.876 91.2605 116.322C91.4726 116.056 91.7439 115.844 92.0525 115.703C92.3612 115.561 92.6986 115.494 93.0378 115.507C93.4055 115.48 93.77 115.592 94.0603 115.819C94.1709 115.912 94.2597 116.027 94.3203 116.158C94.3809 116.289 94.4119 116.431 94.4109 116.575C94.4149 116.701 94.3932 116.826 94.3472 116.942C94.3011 117.059 94.2317 117.165 94.1431 117.254C93.9066 117.457 93.6183 117.59 93.3105 117.639H93.3348ZM91.3871 117.907C91.3677 118.022 91.358 118.138 91.3579 118.254C91.3468 118.559 91.4511 118.857 91.6501 119.088C91.7571 119.201 91.8877 119.288 92.0324 119.345C92.1772 119.401 92.3326 119.425 92.4876 119.415C92.7334 119.428 92.9752 119.348 93.1644 119.19C93.245 119.123 93.3097 119.039 93.3535 118.943C93.3973 118.848 93.4192 118.744 93.4176 118.639C93.4302 118.516 93.403 118.392 93.3398 118.286C93.2767 118.179 93.181 118.096 93.067 118.049C92.6483 117.927 92.212 117.877 91.7767 117.902L91.3871 117.907ZM91.504 117.336C91.7036 117.336 91.8741 117.336 92.0153 117.336C92.4389 117.357 92.8624 117.294 93.2618 117.151C93.379 117.115 93.4819 117.042 93.5561 116.944C93.6303 116.846 93.6721 116.728 93.6757 116.605C93.6789 116.529 93.6643 116.453 93.633 116.383C93.6017 116.314 93.5546 116.253 93.4955 116.205C93.3593 116.092 93.1849 116.036 93.0086 116.049C92.669 116.049 92.3401 116.168 92.0786 116.385C91.7775 116.628 91.5624 116.962 91.4651 117.336H91.504ZM94.7566 118.259C94.7304 117.494 94.9949 116.747 95.4967 116.171C95.6978 115.947 95.9456 115.77 96.2224 115.653C96.4992 115.536 96.7984 115.481 97.0987 115.492C97.3297 115.482 97.5602 115.52 97.7756 115.604C97.9911 115.688 98.1867 115.816 98.3501 115.98C98.5151 116.155 98.6432 116.361 98.7269 116.587C98.8105 116.812 98.848 117.052 98.837 117.293C98.8416 117.768 98.7401 118.238 98.54 118.668C98.361 119.072 98.0639 119.413 97.6879 119.644C97.3405 119.867 96.9367 119.985 96.5241 119.985C96.2077 119.989 95.8952 119.915 95.6136 119.771C95.3489 119.634 95.1304 119.422 94.9855 119.161C94.821 118.888 94.7288 118.577 94.7177 118.259H94.7566ZM95.487 118.185C95.4631 118.519 95.5677 118.849 95.7792 119.107C95.8728 119.21 95.9873 119.291 96.115 119.346C96.2426 119.401 96.3805 119.428 96.5193 119.424C96.6865 119.425 96.8521 119.392 97.0062 119.327C97.1468 119.251 97.2736 119.152 97.3811 119.034C97.5131 118.903 97.6262 118.753 97.7171 118.59C97.8104 118.42 97.8855 118.24 97.9411 118.054C98.0214 117.804 98.0641 117.545 98.0677 117.283C98.0882 116.954 97.9839 116.63 97.7755 116.375C97.6823 116.272 97.568 116.19 97.4403 116.134C97.3126 116.079 97.1746 116.051 97.0354 116.053C96.8149 116.05 96.5977 116.108 96.4073 116.219C96.2053 116.345 96.0312 116.511 95.896 116.707C95.7398 116.93 95.6259 117.18 95.56 117.444C95.4888 117.685 95.4464 117.934 95.4334 118.185H95.487Z" fill="black"/>
<path d="M21.7852 59.643H29.8144L32.9113 71.7122L35.9837 59.6626H44.013V79.464H39.0123V64.3458L35.1559 79.4444H30.6325L26.7761 64.3458V79.4444H21.7852V59.643ZM47.4409 59.643H54.0727L56.7995 67.8046L59.5019 59.643H65.7296L59.2292 74.9319C58.8408 75.8879 58.3768 76.8112 57.8415 77.6931C57.4014 78.3423 56.794 78.8599 56.0837 79.1908C55.0766 79.6304 53.9821 79.8323 52.8847 79.781C51.645 79.7408 50.4082 79.6366 49.1792 79.4688V75.3759C50.2115 75.4881 50.9662 75.5417 51.4434 75.5417C52.8522 75.5417 53.7092 75.0149 54.0143 73.9611L47.4409 59.643ZM81.6031 68.6778C83.9761 69.3283 85.1609 70.8227 85.1576 73.1611C85.179 74.0735 84.9886 74.9784 84.6017 75.8046C84.2147 76.6308 83.6416 77.3557 82.9276 77.9224C81.4441 79.1615 79.3438 79.781 76.6268 79.781C71.9914 79.781 69.112 77.8297 67.9889 73.927L73.7589 73.4977C74.0835 74.8734 75.0038 75.5612 76.5197 75.5612C77.2178 75.6126 77.9077 75.3845 78.4382 74.927C78.6645 74.6938 78.8398 74.4159 78.953 74.111C79.0662 73.8061 79.1147 73.4809 79.0955 73.1562C79.1033 72.8168 79.0332 72.4802 78.8905 72.1723C78.7478 71.8644 78.5364 71.5935 78.2726 71.3805C77.6255 70.8968 76.8291 70.6567 76.023 70.7024H74.3627V67.1606H75.6725C76.3404 67.1996 76.9978 66.9795 77.5082 66.546C77.7359 66.3266 77.9134 66.0603 78.0286 65.7655C78.1438 65.4708 78.1938 65.1545 78.1752 64.8385C78.1752 63.7718 77.5065 63.2368 76.1691 63.2335C74.8317 63.2303 74.0283 63.8466 73.7589 65.0825L68.2956 64.4483C69.1851 61.0171 71.8453 59.3016 76.2762 59.3016C78.7303 59.3016 80.6536 59.7796 82.0462 60.7358C82.6973 61.1412 83.2321 61.7091 83.5983 62.3838C83.9644 63.0585 84.1494 63.817 84.1351 64.5849C84.1351 66.5297 83.2911 67.894 81.6031 68.6778ZM89.5886 59.643H105.949V63.8726H95.7238V67.0192H105.224V71.0585H95.6946V74.9612H106.231V79.4444H89.5886V59.643ZM129.828 59.643V79.4444H124.072V68.5705L116.676 79.4444H110.916V59.643H116.671V70.5999L124.101 59.643H129.828ZM125.353 54.7646C125.188 55.8598 124.601 56.8462 123.717 57.5112C122.779 58.1945 121.65 58.5626 120.491 58.5626C119.332 58.5626 118.202 58.1945 117.265 57.5112C116.382 56.8487 115.795 55.8632 115.634 54.7695H117.981C118.129 55.2897 118.453 55.7423 118.897 56.0501C119.341 56.358 119.877 56.5019 120.415 56.4575C121.759 56.4575 122.621 55.8964 122.986 54.7695L125.353 54.7646Z" fill="url(#paint0_linear)"/>
<path d="M73.1825 41.3151H64.2135V33.7097H73.1825V41.3151ZM84.2064 33.7097H75.2324V41.3151H84.2064V33.7097ZM73.1825 24.0895H64.2135V31.7096H73.1825V24.0895ZM84.2064 24.0895H75.2324V31.7096H84.2064V24.0895ZM73.1825 43.3299H64.2135V50.9353H73.1825V43.3299ZM84.2064 43.3299H75.2324V50.9353H84.2064V43.3299ZM12.7461 57.8577L17.4936 54.4429V40.7834L12.7461 44.1982V57.8577ZM137.397 57.9748L132.635 54.638V40.9785L137.383 44.3056L137.397 57.9748ZM123.062 34.2756L127.888 37.6612V51.3207L123.062 47.9351V34.2756ZM27.0713 47.5546L22.241 51.028V37.3685L27.0713 33.8951V47.5546ZM7.99867 61.2775L3.33398 64.6338V50.9743L7.99867 47.618V61.2775ZM146.878 50.9743V64.6338L142.13 61.3068V47.6473L146.878 50.9743ZM118.32 44.608L74.171 13.6595L31.809 44.1348V30.4753L74.171 0L118.32 30.9485V44.608Z" fill="black"/>
<path d="M84.8535 28.2514V27.5391H80.072V23.29H79.3659V27.5391H69.053V23.29H68.3421V27.5391H63.5605V28.2514H68.3421V37.1593H63.5605V37.8667H68.3421V46.7746H63.5605V47.4869H68.3421V51.7359H69.053V47.4869H79.3659V51.7359H80.072V47.4869H84.8535V46.7746H80.072V37.8667H84.8535V37.1593H80.072V28.2514H84.8535ZM79.3659 46.7746H69.053V37.8667H79.3659V46.7746ZM79.3659 37.1593H69.053V28.2514H79.3659V37.1593Z" fill="#C15634"/>
<defs>
<linearGradient id="paint0_linear" x1="75.7991" y1="81.8251" x2="75.7991" y2="60.1943" gradientUnits="userSpaceOnUse">
<stop offset="0.364641" stop-color="#800000"/>
<stop offset="0.972376"/>
</linearGradient>
</defs>
</svg>
