<svg fill="none" height="18" viewBox="0 0 18 18" width="18" xmlns="http://www.w3.org/2000/svg"><path d="m15.8974 3.16687-1.0643-1.06444c-1.4375-1.219374-3.1992-1.948424-5.08034-2.10243h-1.50552c-1.88115.154006-3.64304.883056-5.08037 2.10243l-1.06444 1.06444c-1.219374 1.43733-1.948424 3.19922-2.10243 5.08037v1.50552c.154006 1.88114.883056 3.64284 2.10243 5.08034l1.06444 1.0643c1.43733 1.2195 3.19922 1.9486 5.08037 2.1026h1.50552c1.88114-.154 3.64284-.8831 5.08034-2.1026l1.0643-1.0643c1.2195-1.4375 1.9486-3.1992 2.1026-5.08034v-1.50552c-.154-1.88115-.8831-3.64304-2.1026-5.08037zm-6.14464-1.65768c1.47904.14574 2.86524.71931 4.01294 1.66062l-2.6896 2.6896c-.4032-.26685-.851-.45191-1.32334-.54766zm-1.50552 0v3.80256c-.47157.09575-.91944.28081-1.32302.54803l-2.68996-2.68997c1.14751-.94131 2.53375-1.51488 4.01298-1.66062zm-5.07743 2.72507 2.6896 2.68959c-.26685.40303-.45191.85108-.54766 1.32339h-3.80256c.14574-1.47923.71931-2.86547 1.66062-4.01298zm-1.66062 5.5185h3.80256c.09575.47154.28081.91944.54803 1.32284l-2.68997 2.6901c-.94131-1.1477-1.51488-2.5339-1.66062-4.01294zm6.73805 6.73784c-1.47923-.1457-2.86547-.7193-4.01298-1.6606l2.68959-2.6896c.40303.2669.85108.4521 1.32339.5477zm.75276-5.2323c-.60187 0-1.16975-.2353-1.59593-.6583-.4271-.4303-.66234-.99813-.66234-1.6s.23524-1.16975.65829-1.59593c.43023-.4271.99811-.66234 1.59998-.66234s1.1697.23524 1.5957.65829c.4273.43023.6626.99811.6626 1.59998s-.2353 1.1697-.6583 1.5957c-.4303.4273-.99813.6626-1.6.6626zm.75276 5.2323v-3.8025c.47154-.0956.91944-.2808 1.32284-.5481l2.6901 2.69c-1.1477.9413-2.5339 1.5149-4.01294 1.6606zm5.07724-2.7249-2.6896-2.6896c.2669-.4032.4521-.851.5477-1.32334h3.8025c-.1457 1.47904-.7193 2.86524-1.6606 4.01294zm-2.1419-5.51846c-.0956-.47157-.2808-.91944-.5481-1.32302l2.69-2.68996c.9413 1.14751 1.5149 2.53375 1.6606 4.01298z" fill="#f1e9dd"/></svg>