<svg width="10" height="16" viewBox="0 0 10 16" fill="none" xmlns="http://www.w3.org/2000/svg">
<path d="M9.42685 4.70312H0.573145V5.63867H1.37058L0.794927 11.5583H4.5183V11.076C3.68951 10.8674 3.07547 10.1335 3.07547 9.2627C3.07547 8.83167 3.34278 8.27405 3.89272 7.55786C4.26554 7.07227 4.63383 6.69043 4.64926 6.67432L5 6.31177L5.35074 6.67432C5.36629 6.69043 5.73446 7.07227 6.10728 7.55786C6.65722 8.27405 6.92453 8.83179 6.92453 9.2627C6.92453 10.1335 6.31049 10.8674 5.4817 11.076V11.5583H9.20507L8.62942 5.63867H9.42673V4.70312H9.42685Z" fill="#F1E9DD"/>
<path d="M5.96114 9.26257C5.96114 8.9751 5.51017 8.29834 5.00013 7.70312C4.49008 8.29883 4.03886 8.97595 4.03886 9.26257C4.03886 9.77832 4.47001 10.1979 5 10.1979C5.52999 10.1979 5.96114 9.77832 5.96114 9.26257Z" fill="#F1E9DD"/>
<path d="M9.54088 12.4958H0.459118C0.179382 12.7184 0 13.0562 0 13.4343V16H10V13.4343C10 13.0562 9.82062 12.7184 9.54088 12.4958Z" fill="#F1E9DD"/>
<path d="M8.67433 3.76562C8.55064 2.7821 7.6876 2.01758 6.64392 2.01758H6.41286C6.48072 1.85022 6.51835 1.66809 6.51835 1.47754C6.51835 0.662842 5.8372 0 5 0C4.1628 0 3.48165 0.662842 3.48165 1.47754C3.48165 1.66821 3.51928 1.85022 3.58714 2.01758H3.35608C2.3124 2.01758 1.44936 2.7821 1.32567 3.76562H8.67433Z" fill="#F1E9DD"/>
</svg>
