<svg fill="none" height="16" viewBox="0 0 10 16" width="10" xmlns="http://www.w3.org/2000/svg"><g fill="#f1e9dd"><path d="m9.42685 4.70312h-8.853705v.93555h.797435l-.575653 5.91963h3.723373v-.4823c-.82879-.2086-1.44283-.9425-1.44283-1.8133 0-.43103.26731-.98865.81725-1.70484.37282-.48559.74111-.86743.75654-.88354l.35074-.36255.35074.36255c.01555.01611.38372.39795.75654.88354.54994.71619.81725 1.27393.81725 1.70484 0 .8708-.61404 1.6047-1.44283 1.8133v.4823h3.72337l-.57565-5.91963h.79731v-.93555z"/><path d="m5.96114 9.26257c0-.28747-.45097-.96423-.96101-1.55945-.51005.59571-.96127 1.27283-.96127 1.55945 0 .51575.43115.93533.96114.93533s.96114-.41958.96114-.93533z"/><path d="m9.54088 12.4958h-9.081762c-.279736.2226-.459118.5604-.459118.9385v2.5657h10v-2.5657c0-.3781-.17938-.7159-.45912-.9385z"/><path d="m8.67433 3.76562c-.12369-.98352-.98673-1.74804-2.03041-1.74804h-.23106c.06786-.16736.10549-.34949.10549-.54004 0-.814698-.68115-1.47754-1.51835-1.47754s-1.51835.662842-1.51835 1.47754c0 .19067.03763.37268.10549.54004h-.23106c-1.04368 0-1.90672.76452-2.03041 1.74804z"/></g></svg>