<svg fill="none" height="20" viewBox="0 0 9 20" width="9" xmlns="http://www.w3.org/2000/svg"><g fill="#f1e9dd"><path d="m7.00315 18.4677h-1.76212v-5.4395h-1.5323v5.4395h-1.76212c-.42308 0-.76615.343-.76615.7661s.343.7662.76615.7662h5.05646c.42308 0 .76615-.343.76615-.7662 0-.4231-.343-.7661-.76607-.7661z"/><path d="m7.34364 13.6531c.37106 0 .71421-.1889.94175-.5181.29436-.426.35985-1.0308.16711-1.5407l-.64527-1.70555c-.06909-.18263-.07546-.42637-.01619-.62094l1.12548-3.69772c.02198-.07231.03319-.14755.03319-.22308v-2.61764c0-.34791-.2345-.65216-.57091-.74081l-1.91267-.50395v-.718386c0-.423222-.34307-.766224-.76615-.766224h-2.45025c-.42307 0-.76615.343002-.76615.766151v.718389l-1.912666.50395c-.336483.08865-.570914.39297-.570914.7408v2.61765c0 .0756.011209.15077.0331869.22308l1.1254931 3.69771c.05926.19458.05289.43832-.01634.62095l-.645125 1.70552c-.19282.5099-.127253 1.1147.167105 1.5408.227545.3292.57069.518.94176.518h5.73756z"/></g></svg>