<svg width="13" height="20" viewBox="0 0 13 20" fill="none" xmlns="http://www.w3.org/2000/svg">
<path fill-rule="evenodd" clip-rule="evenodd" d="M11.1072 13.3304L10.8352 5.61405C10.7445 3.0399 8.6314 1 6.05566 1C3.47991 1 1.36683 3.0399 1.27609 5.61405L1.00409 13.3303C0.907899 16.0591 2.45877 18.4702 4.82689 18.879C5.279 18.9571 5.69503 19 6.05566 19C6.41628 19 6.83231 18.9571 7.28442 18.879C9.65254 18.4702 11.2034 16.0591 11.1072 13.3304ZM6.05566 0C2.94133 0 0.386426 2.46643 0.276713 5.57882L0.00470966 13.2951C-0.103023 16.3513 1.64324 19.3442 4.65678 19.8644C5.14534 19.9488 5.62099 20 6.05566 20C6.49032 20 6.96597 19.9488 7.45453 19.8644C10.4681 19.3442 12.2143 16.3513 12.1066 13.2951L11.8346 5.57882C11.7249 2.46643 9.16998 0 6.05566 0ZM9.22664 10.778L9.06418 5.71679C9.01206 4.0928 7.68048 2.80328 6.05566 2.80328C4.43083 2.80328 3.09926 4.0928 3.04713 5.71679L2.88467 10.778C2.85256 11.7783 3.6547 12.6066 4.65547 12.6066H7.45584C8.45661 12.6066 9.25875 11.7783 9.22664 10.778ZM6.05566 1.80328C3.89104 1.80328 2.11709 3.5212 2.04764 5.6847L1.88518 10.7459C1.83495 12.3107 3.08984 13.6066 4.65547 13.6066H7.45584C9.02146 13.6066 10.2764 12.3107 10.2261 10.7459L10.0637 5.6847C9.99422 3.5212 8.22027 1.80328 6.05566 1.80328Z" fill="#F1E9DD"/>
<mask id="mask0" mask-type="alpha" maskUnits="userSpaceOnUse" x="0" y="0" width="13" height="20">
<path fill-rule="evenodd" clip-rule="evenodd" d="M6.05566 0C2.94133 0 0.386426 2.46643 0.276713 5.57882L0.00470966 13.2951C-0.103023 16.3513 1.64324 19.3442 4.65679 19.8644C5.14534 19.9488 5.62099 20 6.05566 20C6.49032 20 6.96597 19.9488 7.45453 19.8644C10.4681 19.3442 12.2143 16.3513 12.1066 13.2951L11.8346 5.57882C11.7249 2.46643 9.16998 0 6.05566 0ZM6.05566 1.80328C3.89104 1.80328 2.11709 3.5212 2.04764 5.6847L1.88518 10.7459C1.83495 12.3107 3.08984 13.6066 4.65547 13.6066H7.45584C9.02146 13.6066 10.2764 12.3107 10.2261 10.7459L10.0637 5.6847C9.99422 3.5212 8.22027 1.80328 6.05566 1.80328Z" fill="#F1E9DD"/>
</mask>
<g mask="url(#mask0)">
<line x1="3.1191" y1="26.1357" x2="19.1918" y2="10.063" stroke="#F1E9DD"/>
<line x1="0.706993" y1="23.7248" x2="16.7797" y2="7.65215" stroke="#F1E9DD"/>
<line x1="-1.70316" y1="21.3139" x2="14.3695" y2="5.24127" stroke="#F1E9DD"/>
<line x1="-4.11332" y1="18.9028" x2="11.9593" y2="2.83013" stroke="#F1E9DD"/>
<line x1="-6.52543" y1="16.4919" x2="9.54723" y2="0.419245" stroke="#F1E9DD"/>
<line x1="-8.93558" y1="14.081" x2="7.13708" y2="-1.99164" stroke="#F1E9DD"/>
<line x1="-7.0234" y1="10.0627" x2="9.04926" y2="26.1354" stroke="#F1E9DD"/>
<line x1="-4.61324" y1="7.65206" x2="11.4594" y2="23.7247" stroke="#F1E9DD"/>
<line x1="-2.20113" y1="5.24117" x2="13.8715" y2="21.3138" stroke="#F1E9DD"/>
<line x1="0.209022" y1="2.83028" x2="16.2817" y2="18.9029" stroke="#F1E9DD"/>
<line x1="2.62113" y1="0.419396" x2="18.6938" y2="16.4921" stroke="#F1E9DD"/>
<line x1="5.03129" y1="-1.99149" x2="21.1039" y2="14.0812" stroke="#F1E9DD"/>
</g>
</svg>
