<svg fill="none" height="20" viewBox="0 0 13 20" width="13" xmlns="http://www.w3.org/2000/svg" xmlns:xlink="http://www.w3.org/1999/xlink"><mask id="a" height="20" maskUnits="userSpaceOnUse" width="13" x="0" y="0"><path clip-rule="evenodd" d="m6.05566 0c-3.11433 0-5.669234 2.46643-5.778947 5.57882l-.27200334 7.71628c-.10773266 3.0562 1.63853034 6.0491 4.65208034 6.5693.48855.0844.9642.1356 1.39887.1356.43466 0 .91031-.0512 1.39887-.1356 3.01357-.5202 4.75977-3.5131 4.65207-6.5693l-.272-7.71628c-.1097-3.11239-2.66462-5.57882-5.77894-5.57882zm0 1.80328c-2.16462 0-3.93857 1.71792-4.00802 3.88142l-.16246 5.0612c-.05023 1.5648 1.20466 2.8607 2.77029 2.8607h2.80037c1.56562 0 2.82056-1.2959 2.77026-2.8607l-.1624-5.0612c-.06948-2.1635-1.84343-3.88142-4.00804-3.88142z" fill="#f1e9dd" fill-rule="evenodd"/></mask><path clip-rule="evenodd" d="m11.1072 13.3304-.272-7.71635c-.0907-2.57415-2.2038-4.61405-4.77954-4.61405-2.57575 0-4.68883 2.0399-4.77957 4.61405l-.272 7.71625c-.096191 2.7288 1.45468 5.1399 3.8228 5.5487.45211.0781.86814.121 1.22877.121.36062 0 .77665-.0429 1.22876-.121 2.36812-.4088 3.91898-2.8199 3.82278-5.5486zm-5.05154-13.3304c-3.11433 0-5.669234 2.46643-5.778947 5.57882l-.27200334 7.71628c-.10773266 3.0562 1.63853034 6.0491 4.65207034 6.5693.48856.0844.96421.1356 1.39888.1356.43466 0 .91031-.0512 1.39887-.1356 3.01357-.5202 4.75977-3.5131 4.65207-6.5693l-.272-7.71628c-.1097-3.11239-2.66462-5.57882-5.77894-5.57882zm3.17098 10.778-.16246-5.06121c-.05212-1.62399-1.3837-2.91351-3.00852-2.91351-1.62483 0-2.9564 1.28952-3.00853 2.91351l-.16246 5.06121c-.03211 1.0003.77003 1.8286 1.7708 1.8286h2.80037c1.00077 0 1.80291-.8283 1.7708-1.8286zm-3.17098-8.97472c-2.16462 0-3.93857 1.71792-4.00802 3.88142l-.16246 5.0612c-.05023 1.5648 1.20466 2.8607 2.77029 2.8607h2.80037c1.56562 0 2.82056-1.2959 2.77026-2.8607l-.1624-5.0612c-.06948-2.1635-1.84343-3.88142-4.00804-3.88142z" fill="#f1e9dd" fill-rule="evenodd"/><g mask="url(#a)" stroke="#f1e9dd"><path d="m3.1191 26.1357 16.0727-16.0727"/><path d="m.706993 23.7248 16.072707-16.07265"/><path d="m-1.70316 21.3139 16.07266-16.07263"/><path d="m-4.11332 18.9028 16.07262-16.07267"/><path d="m-6.52543 16.4919 16.07266-16.072655"/><path d="m-8.93558 14.081 16.07266-16.07264"/><path d="m-7.0234 10.0627 16.07266 16.0727"/><path d="m-4.61324 7.65206 16.07264 16.07264"/><path d="m-2.20113 5.24117 16.07263 16.07263"/><path d="m.209022 2.83028 16.072678 16.07262"/><path d="m2.62113.419396 16.07267 16.072704"/><path d="m5.03129-1.99149 16.07261 16.07269"/></g></svg>