<svg fill="none" height="14" viewBox="0 0 14 14" width="14" xmlns="http://www.w3.org/2000/svg"><path d="m9.5926 0c-2.43703 0-4.40741 1.97037-4.40741 4.40739 0 .51852.10371 1.03704.25925 1.55556l-5.44444 5.44445v2.5926h2.5926v-1.5556h1.55556v-1.5555h1.55555l2.33333-2.33333c.46668.15554.9852.25924 1.55556.25924 2.4371 0 4.4074-1.97037 4.4074-4.40739s-1.9703-4.40742-4.4074-4.40742zm1.2963 4.66667c-.8815 0-1.55555-.67406-1.55555-1.55556 0-.88149.67405-1.55555 1.55555-1.55555s1.5556.67406 1.5556 1.55555c0 .8815-.6741 1.55556-1.5556 1.55556z" fill="#f1e9dd"/></svg>