<svg width="14" height="14" viewBox="0 0 14 14" fill="none" xmlns="http://www.w3.org/2000/svg">
<path d="M9.5926 0C7.15557 0 5.18519 1.97037 5.18519 4.40739C5.18519 4.92591 5.2889 5.44443 5.44444 5.96295L0 11.4074V14H2.5926V12.4444H4.14816V10.8889H5.70371L8.03704 8.55557C8.50372 8.71111 9.02224 8.81481 9.5926 8.81481C12.0297 8.81481 14 6.84444 14 4.40742C14 1.9704 12.0297 0 9.5926 0ZM10.8889 4.66667C10.0074 4.66667 9.33335 3.99261 9.33335 3.11111C9.33335 2.22962 10.0074 1.55556 10.8889 1.55556C11.7704 1.55556 12.4445 2.22962 12.4445 3.11111C12.4445 3.99261 11.7704 4.66667 10.8889 4.66667Z" fill="#F1E9DD"/>
</svg>
