<svg fill="none" height="16" viewBox="0 0 16 16" width="16" xmlns="http://www.w3.org/2000/svg"><g fill="#f1e9dd"><path clip-rule="evenodd" d="m4.71529 1.63201c-.89485 0-1.42946.76647-1.42946 2.26786 0 .10429.0485.20254.1308.26587.03201.02463.06771.04292.10525.0545.03191.00987.06511.01491.09847.01491.02876 0 .05751-.00368.086-.01104.55164-.14686 1.15212-.26453 1.78379-.34969.16623-.02213.29004-.1643.29004-.33228-.00033-1.78938-.35829-1.91013-1.06489-1.91013zm-.74468 1.83568c.08621-1.16513.50488-1.16513.74387-1.16513.00537 0 .0121-.00109.01839-.00295.01172-.00346.02485-.00956.03901-.01613.11773-.05453.30702-.14225.3355.96863-.39274.05998-.77311.13176-1.13677.21558z" fill-rule="evenodd"/><path clip-rule="evenodd" d="m12.0899 3.48178c2.484.58405 3.9088 1.61165 3.9088 2.81965 0 .01516.0002.03677.0005.06249.0011.1207.0031.33171-.0112.38746l-.916 3.54152c-.0134.052-.0498.0942-.0994.1144-1.9182.7772-4.4015 1.3468-6.84331 1.2854-2.5549.0614-5.18005-.5743-7.138427-1.4159-.021213-.009-.039822-.0221-.055121-.0384-.019477-.0206-.033583-.0462-.040907-.0745l-.8828087-3.41216c-.01437707-.05587-.0123697-.26709-.01123038-.38765l.00037977-.04126.00010851-.02104c0-.76609.5687368-1.42157 1.7359358-1.9996.05453-.02717.09131-.08214.09299-.14316.06929-2.53403.97857-4.15903 2.88508-4.15903 1.3208 0 2.37461.683521 2.50949 2.89269.00564.08987.07926.15923.16894.15658 1.63953-.04796 3.29488.1029 4.69618.43251zm-2.63011 6.02859c.49913 0 1.47761-.11096 1.97751-.35004.1137-.05429.1816-.17267.1816-.29873 0-1.43163-.1268-2.10861-1.0645-2.10861-.89458 0-1.42913 1.00299-1.42913 2.42211 0 .18539.14952.33527.33452.33527zm3.59031-1.59023c.0097.11132.1221.18575.2265.14618 1.2819-.4875 2.0533-1.1396 2.0533-1.76456 0-.83182-1.3318-1.68242-3.3925-2.1669-1.1806-.27728-2.5419-.42414-3.93762-.42414-.36056 0-.72292.00976-1.07616.02919-.04552.00283-.09066-.00406-.13282-.01949-.04248-.01556-.08186-.03976-.11545-.0714-.06689-.06368-.10471-.15187-.10471-.24371v-.02986c0-1.99925-.84971-2.704901-1.85535-2.704901-1.46429 0-2.24407 1.559271-2.21966 3.909571.00065.0684-.04112.1301-.10368.15724-1.14214.4962-1.721886 1.02291-1.721886 1.5644 0 1.17784 2.782706 2.48542 6.835636 2.58499.09033.00235.16829-.07175.17296-.16193.13921-2.21657 1.35226-3.80043 2.87604-3.80043 1.2616 0 2.3094 1.05327 2.4954 2.99575z" fill-rule="evenodd"/><path d="m14.549 11.2796c-1.8918.6743-4.1841 1.1373-6.42015 1.0833-2.34781.0563-4.75953-.461-6.70288-1.1939-.12711-.048-.2539.066-.21978.1978l.45079 1.7422c1.13173 1.1509 3.59808 1.9498 6.34302 1.9498 2.7454 0 5.2121-.7992 6.3436-1.9504l.4216-1.63c.0337-.1304-.0898-.2437-.2162-.1988z"/></g></svg>