<svg fill="none" height="14" viewBox="0 0 16 14" width="16" xmlns="http://www.w3.org/2000/svg"><path d="m14.8426 2.30716c.6219-.04234 1.1146-.54266 1.1146-1.15195 0-.636973-.5384-1.15521-1.2-1.15521h-2.4286c-.6617 0-1.2.518237-1.2 1.15521 0 .34563.1587.65607.4094.86796l.0107.01224c.6964.79975 1.0799 1.81563 1.0799 2.86046 0 2.45696-2.0763 4.4558-4.62855 4.4558-2.55223 0-4.62858-1.99884-4.62858-4.4558 0-1.04483.38355-2.06071 1.07996-2.86046l.01065-.01224c.2507-.21189.40942-.52233.40942-.86796 0-.636973-.53833-1.15521-1.2-1.15521h-2.42867c-.661664 0-1.1999957.518237-1.1999957 1.15521 0 .60929.4926627 1.10961 1.1146057 1.15195-.753737 1.19371-1.15744 2.56728-1.15744 3.99146 0 4.24658 3.5888 7.70138 8 7.70138s8-3.4548 8-7.70138c0-1.42418-.4037-2.79775-1.1574-3.99146zm-10.27117 9.09364c-.50496 0-.91429-.3941-.91429-.8802s.40933-.88015.91429-.88015.91428.39405.91428.88015-.40932.8802-.91428.8802zm3.42857.8801c-.50496 0-.91429-.394-.91429-.8801s.40933-.8802.91429-.8802.91429.3941.91429.8802-.40933.8801-.91429.8801zm3.4286-.8801c-.505 0-.9143-.3941-.9143-.8802s.4093-.88015.9143-.88015c.5049 0 .9143.39405.9143.88015s-.4094.8802-.9143.8802z" fill="#f1e9dd"/></svg>