<svg width="48" height="48" viewBox="0 0 48 48" fill="none" xmlns="http://www.w3.org/2000/svg">
<mask id="mask0" mask-type="alpha" maskUnits="userSpaceOnUse" x="0" y="0" width="48" height="48">
<rect width="48" height="48" fill="#C4C4C4"/>
</mask>
<g mask="url(#mask0)">
<path d="M3.08828 9.39413C19.1399 -7.09703 40.4587 0.0876798 46.9485 15.8056C52.0206 28.0902 37.4842 48 21.1159 48C5.69669 47.9999 -5.81417 18.5403 3.08828 9.39413Z" fill="#00ADE8"/>
<path d="M24 6.5C15.163 6.5 8 13.663 8 22.5C8 31.337 15.163 38.5 24 38.5C32.837 38.5 40 31.337 40 22.5C40 13.664 32.837 6.5 24 6.5ZM24 6.5V22.5M24 22.5L37.016 31.783M24 22.5L30.379 37.17M24.953 22.711C28.536 19.128 32.12 15.544 35.703 11.961M29.722 7.588C27.889 9.421 26.056 11.254 24.222 13.087L29.722 7.588ZM24.149 18.338C27.143 15.344 30.136 12.351 33.13 9.357L24.149 18.338ZM27.765 25.076C31.115 21.726 34.464 18.377 37.814 15.027L27.765 25.076ZM39.503 18.516C36.718 21.301 33.932 24.087 31.147 26.872L39.503 18.516ZM39.946 23.25C37.911 25.285 35.877 27.319 33.842 29.354L39.946 23.25Z" stroke="white" stroke-miterlimit="10" stroke-linecap="round" stroke-linejoin="round"/>
</g>
</svg>
