<svg width="370" height="320" viewBox="0 0 370 320" fill="none" xmlns="http://www.w3.org/2000/svg">
<mask id="mask0" mask-type="alpha" maskUnits="userSpaceOnUse" x="0" y="0" width="370" height="320">
<rect width="370" height="320" fill="#C4C4C4"/>
</mask>
<g mask="url(#mask0)">
<path d="M271.061 201.451C270.12 201.451 269.09 201.422 267.933 201.357C267.372 201.326 266.845 201.074 266.47 200.655C266.095 200.237 265.901 199.686 265.932 199.125C265.962 198.564 266.215 198.038 266.633 197.662C267.052 197.287 267.602 197.093 268.164 197.124C269.542 197.195 270.986 197.204 272.232 197.157C271.136 196.842 269.918 196.536 268.719 196.292C268.171 196.177 267.692 195.85 267.385 195.384C267.078 194.917 266.968 194.347 267.079 193.8C267.19 193.252 267.513 192.77 267.978 192.46C268.443 192.15 269.012 192.036 269.56 192.144C275.247 193.301 278.605 194.721 279.546 196.376C279.742 196.712 279.864 197.086 279.903 197.473C279.942 197.86 279.897 198.251 279.771 198.62C279.461 199.499 278.788 201.451 271.061 201.451Z" fill="#F57E1F"/>
<path d="M166.18 295C159.595 295 153.669 294.779 150.701 294.111C146.976 293.279 144.507 291.694 143.369 289.408C142.965 288.584 142.742 287.683 142.715 286.766C142.687 285.849 142.855 284.936 143.209 284.089C143.351 283.773 143.569 283.497 143.843 283.285C144.117 283.073 144.439 282.932 144.78 282.874C145.122 282.816 145.473 282.843 145.801 282.952C146.13 283.062 146.427 283.25 146.666 283.501C148.284 285.199 152.277 285.251 154.845 285.237C154.638 284.696 154.384 284.173 154.088 283.675C153.821 283.198 153.749 282.635 153.888 282.105C154.027 281.576 154.366 281.121 154.834 280.836C155.301 280.551 155.861 280.458 156.396 280.578C156.93 280.697 157.397 281.018 157.7 281.475C158.64 282.989 160.014 285.834 158.88 287.856C158.575 288.37 158.136 288.791 157.61 289.075C157.084 289.358 156.491 289.493 155.894 289.465H155.216C153.097 289.538 150.976 289.398 148.886 289.046C149.757 289.473 150.678 289.789 151.628 289.987C158.504 291.529 184.49 290.401 191.931 290.043V287.734L186.042 287.264C185.551 287.225 185.088 287.016 184.734 286.672C184.381 286.329 184.158 285.873 184.105 285.383L183.691 281.456L182.28 281.592L182.068 286.121C182.043 286.665 181.808 287.178 181.414 287.554C181.02 287.93 180.496 288.139 179.952 288.138H163.65C163.242 288.138 162.843 288.02 162.5 287.799C162.157 287.578 161.885 287.263 161.716 286.892L159.835 282.707C159.721 282.453 159.658 282.18 159.65 281.902C159.642 281.624 159.688 281.347 159.787 281.087C159.886 280.828 160.035 280.59 160.225 280.388C160.416 280.185 160.645 280.022 160.898 279.908C161.152 279.795 161.425 279.732 161.703 279.723C161.981 279.715 162.258 279.762 162.518 279.86C162.777 279.959 163.015 280.108 163.218 280.299C163.42 280.489 163.583 280.718 163.697 280.971L165.018 283.906H177.934L178.136 279.556C178.156 279.042 178.363 278.552 178.718 278.18C179.073 277.808 179.552 277.578 180.064 277.534L185.379 277.063C185.934 277.011 186.486 277.179 186.918 277.531C187.349 277.883 187.624 278.391 187.684 278.944L188.154 283.177L194.24 283.647C194.771 283.69 195.266 283.931 195.627 284.322C195.988 284.714 196.188 285.227 196.188 285.759V292.028C196.187 292.569 195.98 293.089 195.609 293.483C195.237 293.876 194.729 294.113 194.189 294.144C193.234 294.21 178.597 295 166.18 295Z" fill="#F57E1F"/>
<path d="M138.247 126.572C138.031 126.571 137.817 126.538 137.612 126.473C116.672 119.936 97.8821 111.894 97.694 111.819C97.1824 111.595 96.7802 111.177 96.575 110.658C96.3698 110.139 96.3783 109.559 96.5986 109.046C96.8189 108.533 97.2332 108.127 97.7512 107.918C98.2692 107.709 98.8488 107.713 99.3637 107.93C99.5519 108.01 118.149 115.962 138.872 122.433C139.357 122.583 139.772 122.901 140.041 123.331C140.311 123.761 140.417 124.273 140.341 124.774C140.264 125.275 140.01 125.733 139.625 126.063C139.24 126.393 138.749 126.573 138.242 126.572H138.247Z" fill="#F57E1F"/>
<path d="M155.833 284.682C155.26 284.686 154.688 284.653 154.121 284.583C152.385 284.367 151.007 284.254 149.887 284.16C146.346 283.868 143.773 283.657 143.773 279.194C143.773 274.909 150.466 272.074 152.926 271.199C155.602 269.374 161.961 264.046 162.29 259.098C162.422 257.071 161.528 255.256 159.553 253.54C148.702 244.106 129.508 219.481 128.699 218.437C128.682 218.418 128.666 218.398 128.652 218.376C128.652 218.376 120.186 206.619 109.368 191.57C98.4088 176.323 91.429 141.884 91.1374 140.426C91.0485 139.982 91.1043 139.521 91.2968 139.111C91.4892 138.701 91.8081 138.364 92.2066 138.149C92.6051 137.934 93.0622 137.852 93.5106 137.915C93.959 137.979 94.3752 138.185 94.6979 138.503C95.0506 138.851 102.327 145.722 116.479 145.722C119.536 145.711 122.584 145.413 125.585 144.833C126.118 144.731 126.669 144.837 127.125 145.131C127.582 145.424 127.907 145.881 128.035 146.408C128.125 146.78 137.132 183.679 140.49 192.224C142.691 197.82 146.821 202.231 151.195 206.901C153.349 209.201 155.574 211.581 157.728 214.242C163.64 221.565 171.979 240.752 174.138 245.836L177.849 246.067C178.199 246.088 178.538 246.196 178.835 246.382C179.133 246.567 179.379 246.825 179.552 247.13L183.263 253.619C183.733 254.278 186.532 258.238 188.309 261.196C190.388 264.662 190.492 276.555 190.492 278.902C190.494 279.43 190.298 279.939 189.943 280.329C189.587 280.719 189.098 280.962 188.573 281.009L178.54 281.95C178.247 281.978 177.951 281.944 177.671 281.851C177.392 281.758 177.134 281.607 176.916 281.409C176.698 281.21 176.524 280.969 176.406 280.699C176.287 280.429 176.226 280.137 176.226 279.843V279.532C171.49 281.357 162.05 284.682 155.833 284.682ZM148.048 279.716C148.542 279.8 149.408 279.876 150.254 279.946C151.397 280.04 152.822 280.158 154.647 280.383C160.348 281.098 173.103 276.325 177.539 274.425C177.861 274.287 178.212 274.231 178.561 274.263C178.91 274.294 179.245 274.412 179.537 274.605C179.83 274.798 180.069 275.06 180.235 275.368C180.401 275.677 180.488 276.022 180.488 276.372V277.496L186.268 276.955C186.16 271.18 185.586 264.812 184.707 263.35C182.891 260.326 179.815 256.013 179.782 255.966L179.669 255.788L176.471 250.196L172.595 249.951C172.2 249.928 171.819 249.794 171.497 249.564C171.174 249.335 170.922 249.019 170.77 248.653C170.672 248.413 160.781 224.702 154.464 216.876C152.408 214.337 150.231 212.013 148.133 209.77C143.472 204.799 139.074 200.101 136.577 193.747C133.529 185.988 126.347 157.136 124.423 149.305C111.009 151.379 101.664 147.866 96.4945 144.903C98.9168 155.25 104.885 178.021 112.829 189.073C123.318 203.652 131.596 215.16 132.113 215.846C132.899 216.853 152.009 241.303 162.38 250.318C165.385 252.928 166.791 255.962 166.566 259.362C166.011 267.578 155.546 274.557 155.099 274.848C154.952 274.943 154.794 275.019 154.628 275.074C151.186 276.297 148.128 278.366 148.044 279.198C148.034 279.415 148.039 279.589 148.048 279.716Z" fill="#00ADE8"/>
<path d="M263.441 202.758C261.115 202.714 258.796 202.49 256.504 202.09C251.443 201.281 246.697 200.026 246.495 199.974C246.412 199.95 246.33 199.922 246.25 199.889L224.864 191.278C213.016 189.741 193.789 187.394 191.78 187.558C191.049 187.715 190.334 187.94 189.645 188.231C187.237 189.129 183.945 190.361 180.168 189.016C175.982 187.521 142.818 173.704 127.551 160.287C127.337 160.105 127.162 159.882 127.035 159.631C126.909 159.381 126.833 159.108 126.813 158.828C126.793 158.548 126.828 158.267 126.918 158.001C127.007 157.735 127.149 157.49 127.334 157.279C127.519 157.068 127.744 156.896 127.997 156.773C128.249 156.65 128.523 156.579 128.803 156.563C129.084 156.547 129.364 156.587 129.629 156.68C129.893 156.774 130.137 156.919 130.345 157.107C144.892 169.89 177.694 183.636 181.612 185.028C183.931 185.856 186.089 185.028 188.197 184.266C189.196 183.845 190.241 183.539 191.31 183.354C193.892 183.034 218.294 186.152 225.711 187.116C225.888 187.14 226.062 187.186 226.228 187.253L247.741 195.915C256.095 198.121 264.617 199.151 266.254 198.163C267.623 195.257 267.482 190.027 264.114 187.859C261.391 186.11 241.768 183.697 228.707 182.545C228.426 182.522 228.152 182.442 227.903 182.31C227.794 182.254 217.202 176.667 212.264 174.179C209.366 172.73 206.333 172.73 200.294 172.73C197.18 172.73 193.304 172.73 188.347 172.519C177.412 172.048 175.813 170.873 171.951 166.847C170.227 165.007 168.378 163.29 166.415 161.707C158.622 155.424 148.326 146.244 144.568 142.867C142.014 145.115 136.431 149.428 129.489 151.139C129.219 151.206 128.939 151.219 128.664 151.177C128.389 151.136 128.125 151.04 127.887 150.897C127.649 150.753 127.441 150.564 127.276 150.34C127.111 150.116 126.992 149.862 126.926 149.592C126.859 149.322 126.846 149.042 126.888 148.767C126.929 148.492 127.025 148.228 127.168 147.99C127.312 147.752 127.501 147.545 127.725 147.38C127.949 147.215 128.203 147.096 128.473 147.029C136.647 145.016 142.955 138.564 143.021 138.522C143.403 138.128 143.923 137.898 144.471 137.881C145.02 137.863 145.554 138.059 145.96 138.428C146.097 138.55 159.511 150.702 169.073 158.41C171.175 160.106 173.157 161.946 175.004 163.917C178.075 167.115 178.804 167.877 188.526 168.291C193.394 168.498 197.222 168.498 200.284 168.498C206.78 168.498 210.354 168.498 214.145 170.379C218.595 172.603 227.55 177.325 229.497 178.374C235.79 178.933 261.908 181.421 266.395 184.304C271.611 187.657 272.453 195.229 269.965 200.2C269.081 201.916 267.044 202.758 263.441 202.758Z" fill="#00ADE8"/>
<path d="M161.754 256.841C161.295 256.841 160.848 256.693 160.48 256.417C160.113 256.141 159.846 255.753 159.718 255.312C159.591 254.871 159.61 254.4 159.774 253.971C159.938 253.542 160.236 253.177 160.625 252.933L171.598 246.048C172.073 245.771 172.636 245.69 173.17 245.822C173.703 245.953 174.165 246.287 174.456 246.752C174.748 247.217 174.848 247.778 174.734 248.315C174.62 248.852 174.302 249.324 173.847 249.631L162.873 256.531C162.537 256.738 162.149 256.845 161.754 256.841Z" fill="#00ADE8"/>
<path d="M227.098 192.003C226.651 192.004 226.216 191.863 225.854 191.602C225.492 191.34 225.222 190.971 225.082 190.547C224.943 190.122 224.941 189.665 225.078 189.24C225.214 188.814 225.482 188.443 225.842 188.179C227.061 187.286 227.169 183.227 226.783 180.763C226.737 180.487 226.746 180.205 226.809 179.932C226.873 179.66 226.99 179.403 227.153 179.176C227.317 178.949 227.523 178.757 227.762 178.61C228 178.464 228.265 178.366 228.541 178.323C228.818 178.279 229.1 178.291 229.371 178.357C229.643 178.423 229.899 178.542 230.124 178.708C230.35 178.874 230.54 179.083 230.684 179.322C230.828 179.562 230.924 179.828 230.964 180.104C231.19 181.539 232.121 188.824 228.345 191.594C227.984 191.86 227.547 192.003 227.098 192.003Z" fill="#00ADE8"/>
<path d="M93.2398 142.091C92.6991 142.091 92.179 141.884 91.7863 141.512C91.3936 141.14 91.158 140.632 91.128 140.092C89.8769 117.933 97.8162 99.8501 114.085 87.7967C132.123 74.4359 152.568 74.2619 158.401 74.5299C165.695 74.8591 182.68 86.4376 184.589 87.7544C185.051 88.073 185.368 88.5622 185.469 89.1144C185.571 89.6665 185.449 90.2362 185.13 90.6984C184.811 91.1605 184.322 91.4771 183.77 91.5785C183.218 91.6799 182.648 91.5579 182.186 91.2392C177.266 87.8484 163.372 79.0118 158.198 78.7578C152.714 78.5085 133.515 78.6684 116.597 91.1969C97.5576 105.305 94.5285 125.443 95.3422 139.857C95.3581 140.135 95.3191 140.413 95.2274 140.675C95.1357 140.937 94.9931 141.179 94.8079 141.386C94.6226 141.593 94.3983 141.761 94.1478 141.882C93.8973 142.002 93.6255 142.071 93.348 142.087L93.2398 142.091Z" fill="#00ADE8"/>
<path d="M209.103 96.3324C208.665 96.3326 208.238 96.197 207.881 95.9444C207.523 95.6918 207.253 95.3345 207.107 94.9219C206.961 94.5093 206.947 94.0615 207.066 93.6403C207.185 93.2191 207.432 92.8452 207.772 92.5701L223.585 79.7972C226.148 71.8023 232.263 52.6664 232.747 50.489C233.025 49.2286 231.397 44.695 223.505 35.7314C222.182 34.1967 220.747 32.7631 219.211 31.4424C220.469 33.8716 221.865 36.2269 223.392 38.4967C223.604 38.8146 223.727 39.1841 223.746 39.566C223.765 39.9479 223.681 40.3279 223.501 40.6655C223.322 41.0032 223.054 41.2859 222.727 41.4837C222.4 41.6814 222.025 41.7868 221.642 41.7887H220.41C220.8 42.132 221.191 42.4941 221.572 42.875C223.51 44.8173 227.804 46.0636 229.299 46.3787C229.775 46.4802 230.201 46.7422 230.506 47.1208C230.811 47.4993 230.976 47.9713 230.974 48.4573C230.974 48.9041 230.833 50.7711 229.092 56.0148C227.268 61.4936 215.316 78.2076 213.957 80.0982C213.659 80.5126 213.222 80.8051 212.725 80.9212C212.569 80.9588 196.964 84.6834 187.975 90.3692C177.459 97.0284 168.55 90.5573 168.179 90.2751C167.755 89.9316 167.479 89.4375 167.411 88.8958C167.342 88.3542 167.486 87.8071 167.811 87.3687C168.137 86.9304 168.619 86.6348 169.157 86.5436C169.696 86.4525 170.248 86.5729 170.7 86.8797C170.992 87.0913 177.713 91.86 185.708 86.7903C194.217 81.4055 207.589 77.8549 210.975 76.9896C214.855 71.5578 223.759 58.6484 225.085 54.6792C225.814 52.4924 226.223 50.9922 226.459 50.0093C224.253 49.3509 220.763 48.0388 218.594 45.8707C216.848 44.1904 214.902 42.731 212.8 41.5253C212.389 41.2988 212.066 40.9424 211.88 40.5121C211.694 40.0818 211.656 39.6018 211.772 39.1477C211.888 38.6935 212.152 38.2908 212.522 38.0027C212.892 37.7146 213.347 37.5575 213.816 37.5561H217.786C215.904 34.4522 213.505 30.0315 213.275 27.3039C213.232 26.7941 213.376 26.2861 213.68 25.8744C213.983 25.4627 214.426 25.1752 214.926 25.0653C216.144 24.7925 219.723 25.023 226.684 32.9426C234.262 41.5535 237.695 47.766 236.881 51.4154C236.251 54.2371 228.326 78.9036 227.423 81.7018C227.3 82.0959 227.062 82.4446 226.741 82.7035L210.434 95.8715C210.056 96.1733 209.586 96.336 209.103 96.3324Z" fill="#00ADE8"/>
<path d="M148.617 145.797C148.215 145.796 147.821 145.681 147.482 145.464C147.143 145.248 146.873 144.939 146.703 144.574C146.533 144.209 146.471 143.804 146.523 143.405C146.576 143.006 146.741 142.63 146.999 142.322C148.622 140.365 150.565 136.777 149.568 135.267C148.9 134.266 146.614 132.874 144.596 131.651C140.481 129.149 135.815 126.313 136.13 122.165C136.6 116.381 141.68 109.326 146.741 109.642C150.503 109.877 177.219 112.816 178.352 112.934C178.649 112.966 178.936 113.061 179.194 113.212C179.451 113.363 179.674 113.567 179.847 113.811C180.02 114.054 180.139 114.332 180.197 114.625C180.255 114.918 180.25 115.22 180.182 115.511C180.182 115.609 177.99 125.556 184.415 129.182C184.723 129.355 184.983 129.603 185.17 129.903C185.358 130.203 185.467 130.545 185.487 130.898C185.591 132.512 186.428 137.271 188.921 137.91C191.955 138.691 195.2 134.515 195.233 134.468C195.454 134.169 195.75 133.935 196.091 133.787C196.432 133.639 196.806 133.584 197.175 133.626C197.269 133.626 206.704 134.623 212.029 130.113C216.417 126.403 216.563 121.262 216.501 119.739C215.561 118.412 212.151 114.622 206.215 117.919C205.152 118.934 201.253 122.405 197.537 122.405C196.459 122.421 195.404 122.092 194.527 121.465C191.489 119.297 191.508 115.821 192.152 113.446L188.587 109.74C188.228 109.33 188.04 108.796 188.064 108.251C188.088 107.706 188.321 107.191 188.714 106.813C189.108 106.436 189.632 106.224 190.178 106.223C190.723 106.221 191.248 106.43 191.644 106.806L196.112 111.457C196.423 111.768 196.629 112.167 196.703 112.6C196.777 113.033 196.715 113.478 196.526 113.874C196.474 113.978 195.223 116.78 197.02 118.064C198.144 118.869 201.531 116.682 203.464 114.772C203.595 114.644 203.742 114.534 203.901 114.443C212.405 109.515 218.43 114.631 220.424 118.022C220.57 118.27 220.663 118.545 220.697 118.831C220.744 119.184 221.703 127.559 214.794 133.41C209.263 138.089 200.938 138.146 197.885 137.986C196.291 139.745 192.439 143.253 187.891 142.077C183.056 140.826 181.748 134.915 181.405 132.338C175.446 128.265 175.337 120.773 175.723 116.964C169.096 116.24 149.558 114.114 146.506 113.921C144.422 113.794 140.702 118.483 140.391 122.56C140.269 124.108 144.215 126.501 146.826 128.091C149.436 129.68 151.929 131.19 153.114 132.972C156.256 137.675 150.894 144.335 150.292 145.073C150.085 145.311 149.827 145.5 149.537 145.625C149.247 145.75 148.933 145.809 148.617 145.797Z" fill="#00ADE8"/>
<path d="M218.585 121.178H218.416C217.856 121.132 217.337 120.866 216.973 120.439C216.609 120.011 216.429 119.457 216.473 118.897C216.633 116.889 216.389 113.385 215.368 112.252C213.487 110.145 213.726 106.307 214.248 103.547H212.941C212.555 103.549 212.175 103.445 211.843 103.247C211.512 103.049 211.241 102.764 211.06 102.423C209.522 99.5491 206.878 96.3371 205.637 96.3371C204.179 96.3371 200.228 99.7466 197.599 102.808C197.226 103.206 196.713 103.445 196.168 103.475C195.623 103.504 195.088 103.322 194.674 102.967C194.26 102.611 194 102.11 193.947 101.566C193.894 101.023 194.053 100.481 194.391 100.052C195.99 98.1712 201.535 92.1045 205.637 92.1045C209.371 92.1045 212.635 96.7368 214.164 99.314H216.925C217.255 99.3141 217.58 99.3912 217.874 99.5392C218.169 99.6873 218.425 99.9021 218.622 100.167C218.819 100.431 218.951 100.738 219.009 101.063C219.066 101.387 219.046 101.721 218.952 102.037C218.011 105.136 217.809 108.659 218.482 109.42C221.078 112.303 220.758 118.102 220.669 119.235C220.624 119.76 220.386 120.249 220.001 120.608C219.616 120.967 219.111 121.17 218.585 121.178Z" fill="#00ADE8"/>
<path d="M200.383 99.1922C200.317 99.1969 200.251 99.1969 200.186 99.1922L191.353 98.355C191.075 98.3291 190.804 98.2487 190.558 98.1183C190.311 97.988 190.092 97.8103 189.914 97.5954C189.736 97.3806 189.601 97.1327 189.519 96.866C189.437 96.5993 189.408 96.3189 189.434 96.041C189.459 95.763 189.54 95.4929 189.67 95.2461C189.801 94.9992 189.978 94.7804 190.193 94.6022C190.408 94.424 190.656 94.2899 190.923 94.2075C191.189 94.1251 191.47 94.0961 191.748 94.122L200.585 94.9451C201.147 94.9707 201.675 95.2182 202.054 95.6332C202.433 96.0482 202.631 96.5967 202.605 97.158C202.58 97.7194 202.332 98.2476 201.917 98.6264C201.502 99.0052 200.954 99.2037 200.392 99.1781L200.383 99.1922Z" fill="#00ADE8"/>
<path d="M211.53 111.994C211.008 111.993 210.504 111.8 210.115 111.45C209.727 111.1 209.482 110.619 209.427 110.099C209.372 109.58 209.511 109.058 209.818 108.635C210.125 108.212 210.577 107.917 211.088 107.808C211.14 107.808 216.116 106.735 218.12 106.227C218.664 106.09 219.241 106.175 219.723 106.463C220.205 106.751 220.553 107.218 220.69 107.763C220.827 108.307 220.742 108.884 220.454 109.366C220.166 109.848 219.699 110.196 219.154 110.333C217.075 110.86 212.179 111.904 211.972 111.947C211.827 111.978 211.679 111.994 211.53 111.994Z" fill="#00ADE8"/>
<path d="M179.194 118.727C178.724 118.727 178.254 118.727 177.731 118.671C177.17 118.63 176.648 118.367 176.28 117.941C175.912 117.515 175.729 116.961 175.77 116.4C175.811 115.838 176.074 115.316 176.5 114.949C176.926 114.581 177.48 114.397 178.042 114.438C180.92 114.65 183.079 114.095 184.457 112.792C184.648 112.614 184.824 112.42 184.984 112.214C181.974 112.444 177.764 111.819 172.285 110.333C156.51 106.058 150.268 93.9199 150.875 86.6681C150.935 86.0346 151.121 85.4196 151.423 84.8597C151.725 84.2997 152.137 83.8064 152.634 83.409C157.14 79.5997 170.404 80.512 173.019 80.7378C173.297 80.7612 173.567 80.8392 173.815 80.9672C174.063 81.0953 174.283 81.2709 174.463 81.484C174.643 81.6971 174.779 81.9435 174.864 82.2093C174.948 82.475 174.98 82.7548 174.956 83.0328C174.933 83.3107 174.855 83.5812 174.727 83.829C174.599 84.0768 174.423 84.2969 174.21 84.4769C173.997 84.6568 173.75 84.793 173.485 84.8776C173.219 84.9623 172.939 84.9938 172.661 84.9703C166.885 84.5001 157.704 84.6835 155.367 86.6634C155.103 86.8797 155.094 86.9973 155.089 87.0349C154.727 91.4086 158.829 102.319 173.39 106.265C183.197 108.927 185.901 107.911 186.409 107.629C186.552 107.211 186.822 106.848 187.181 106.591C187.54 106.334 187.971 106.195 188.413 106.194C188.962 106.195 189.489 106.41 189.882 106.793C190.275 107.175 190.504 107.696 190.52 108.245C190.52 108.428 190.623 112.769 187.416 115.845C185.412 117.754 182.651 118.727 179.194 118.727Z" fill="#00ADE8"/>
</g>
</svg>
