<svg width="48" height="48" viewBox="0 0 48 48" fill="none" xmlns="http://www.w3.org/2000/svg">
<mask id="mask0" mask-type="alpha" maskUnits="userSpaceOnUse" x="0" y="0" width="48" height="48">
<rect width="48" height="48" fill="#C4C4C4"/>
</mask>
<g mask="url(#mask0)">
<path d="M3.32978 3.6823C12.2147 -5.34529 43.1571 3.86409 47.2834 13.712C51.4096 23.5599 37.0768 48 20.7289 48C4.38097 48 -5.55079 12.7099 3.32978 3.6823Z" fill="#00ADE8"/>
<path d="M26.3606 22.622C25.1686 23.818 23.6046 24.417 22.0396 24.417C20.4816 24.417 18.9246 23.824 17.7346 22.638L17.6556 22.559C15.2686 20.181 15.2616 16.319 17.6396 13.933C20.0176 11.547 23.8796 11.54 26.2656 13.917L26.3446 13.996C28.7306 16.374 28.7376 20.236 26.3606 22.622ZM34.5136 18.519C34.5136 19.56 34.3856 20.592 34.1346 21.588C33.7436 23.14 32.7946 24.887 32.0996 25.911C32.0956 25.917 32.0916 25.923 32.0876 25.929L22.9536 39.493C22.7396 39.81 22.3826 40.001 22.0006 40.001C21.6186 40.001 21.2606 39.811 21.0476 39.493L11.9166 25.933C10.9516 24.622 10.2616 23.159 9.86557 21.587C9.61357 20.592 9.48657 19.56 9.48657 18.519C9.48657 11.616 15.1006 6 22.0006 6C28.9006 6 34.5136 11.616 34.5136 18.519Z" stroke="white" stroke-miterlimit="10" stroke-linecap="round" stroke-linejoin="round"/>
</g>
</svg>
