<svg width="60" height="61" viewBox="0 0 60 61" fill="none" xmlns="http://www.w3.org/2000/svg">
<mask id="mask0" mask-type="alpha" maskUnits="userSpaceOnUse" x="0" y="0" width="60" height="61">
<rect y="0.328125" width="60" height="60" fill="#C4C4C4"/>
</mask>
<g mask="url(#mask0)">
<path d="M4.16222 4.93101C15.2684 -6.35349 53.9464 5.15825 59.1042 17.4681C64.262 29.778 46.346 60.3281 25.9111 60.3281C5.4762 60.3281 -6.93849 16.2155 4.16222 4.93101Z" fill="white"/>
<ellipse cx="29.3263" cy="30.2591" rx="2.37513" ry="2.42703" stroke="#00ADE8"/>
<path d="M33.6012 40.4508V30.1639C33.6012 27.8028 31.6871 25.8887 29.326 25.8887V25.8887C26.9649 25.8887 25.0508 27.8028 25.0508 30.1639V40.4508" stroke="#00ADE8" stroke-linecap="round" stroke-linejoin="round"/>
<path d="M35.5015 40.453V30.1245C35.5015 26.714 32.7367 23.9492 29.3262 23.9492V23.9492C25.9157 23.9492 23.1509 26.714 23.1509 30.1245V40.453" stroke="#00ADE8" stroke-linecap="round" stroke-linejoin="round"/>
<path d="M37.4018 40.4532V30.0832C37.4018 25.6233 33.7863 22.0078 29.3264 22.0078V22.0078C24.8665 22.0078 21.251 25.6233 21.251 30.0832V40.4532" stroke="#00ADE8" stroke-linecap="round" stroke-linejoin="round"/>
<path d="M14 29.8107L7 23.6183L14.785 13.5785L22.438 11.3281C22.8031 13.238 23.8984 14.922 25.4832 16.01C27.068 17.098 29.0125 17.5007 30.889 17.1297C32.2986 16.8502 33.5942 16.1487 34.6097 15.1151C35.6252 14.0815 36.3144 12.7629 36.589 11.3281L44.239 13.5785L52 23.6183L45 29.8107" stroke="#00ADE8" stroke-linecap="round" stroke-linejoin="round"/>
<path d="M45 24.3281V46.3281H14V24.3281" stroke="#00ADE8" stroke-linecap="round" stroke-linejoin="round"/>
<path d="M20.3008 39.1236C21.7096 38.7471 22.6199 38.6575 23.6552 38.7226C24.57 38.7793 26.9943 39.3419 28.7096 39.3419C30.1657 39.3419 32.8644 38.7497 34.3327 38.7497C36.3911 38.7497 38.1582 39.193 39.3018 39.4798" stroke="#00ADE8" stroke-linecap="round" stroke-linejoin="round"/>
<path d="M19.3506 37.5709C20.7594 37.1944 21.6697 37.1047 22.705 37.1699C23.6198 37.2265 26.0441 37.7891 27.7594 37.7891C29.2155 37.7891 31.9142 37.1969 33.3825 37.1969C35.4409 37.1969 37.2081 37.6402 38.3516 37.927" stroke="#00ADE8" stroke-linecap="round" stroke-linejoin="round"/>
<path d="M38.3516 36.0181C36.9427 35.6417 36.0325 35.552 34.9972 35.6171C34.0824 35.6738 31.6581 36.2364 29.9428 36.2364C28.4867 36.2364 25.7879 35.6442 24.3196 35.6442C22.2612 35.6442 20.4941 36.0875 19.3506 36.3743" stroke="#00ADE8" stroke-linecap="round" stroke-linejoin="round"/>
</g>
</svg>
