<svg width="48" height="48" viewBox="0 0 48 48" fill="none" xmlns="http://www.w3.org/2000/svg">
<mask id="mask0" mask-type="alpha" maskUnits="userSpaceOnUse" x="0" y="0" width="48" height="48">
<rect width="48" height="48" fill="#C4C4C4"/>
</mask>
<g mask="url(#mask0)">
<path d="M9.39413 44.5853C-7.09702 30.8661 0.0876843 12.6501 15.8057 7.10716C28.0902 2.77505 48 15.2001 48 29.1871C47.9999 42.363 18.5403 52.1942 9.39413 44.5853Z" fill="#00ADE8"/>
<path d="M10.914 33.0324V35.8894H15.844M20.175 35.8894H29.445V17.3574H10.914V22.8674M18.659 24.9944H9.814M7 30.7924H15.844M8.407 27.8934H17.251M37.299 35.8894H41V25.1964L36.474 20.6704H29.446V35.8904H33.015M19.845 39.3334C19.332 39.8484 18.659 40.1054 17.986 40.1054C17.316 40.1054 16.645 39.8504 16.134 39.3404L16.1 39.3064C15.073 38.2834 15.07 36.6214 16.093 35.5944C17.116 34.5674 18.778 34.5644 19.805 35.5874L19.839 35.6214C20.865 36.6444 20.868 38.3064 19.845 39.3334ZM37.009 35.6214L36.975 35.5874C35.948 34.5644 34.287 34.5674 33.263 35.5944C32.24 36.6214 32.243 38.2834 33.27 39.3064L33.304 39.3404C33.816 39.8504 34.486 40.1054 35.156 40.1054C35.829 40.1054 36.502 39.8484 37.015 39.3334C38.04 38.3064 38.036 36.6444 37.009 35.6214ZM35.512 24.0184H31.988V29.8164H37.782V26.2874L35.512 24.0184Z" stroke="white" stroke-miterlimit="10" stroke-linecap="round" stroke-linejoin="round"/>
</g>
</svg>
