<svg width="40" height="40" viewBox="0 0 40 40" fill="none" xmlns="http://www.w3.org/2000/svg">
<mask id="mask0" mask-type="alpha" maskUnits="userSpaceOnUse" x="0" y="0" width="40" height="40">
<rect width="40" height="40" fill="#C4C4C4"/>
</mask>
<g mask="url(#mask0)">
<path d="M26.5293 2.9599C29.6601 3.5255 32.0713 4.57057 33.1839 5.88578C34.2516 7.14828 35.2931 9.33583 36.0876 12.0368C36.8787 14.726 37.4111 17.8777 37.4899 21.0339C37.6485 27.3932 35.9695 33.5563 31.1387 36.1953C25.9356 39.0374 18.7124 36.9938 12.7387 32.3629C6.78187 27.7451 2.30102 20.7235 2.50683 13.9904C2.60752 10.6964 4.22674 8.20271 6.72024 6.38133C9.22771 4.54975 12.6125 3.40732 16.175 2.86833C19.7333 2.33 23.4291 2.39982 26.5293 2.9599Z" stroke="#00ADE8"/>
<mask id="mask1" mask-type="alpha" maskUnits="userSpaceOnUse" x="5" y="3" width="29" height="29">
<rect x="6.40271" y="4.23047" width="27" height="27" fill="#C4C4C4" stroke="#00ADE8"/>
</mask>
<g mask="url(#mask1)">
<path d="M23.3255 29.615L23.2525 29.542C21.0495 27.347 21.0425 23.782 23.2375 21.58C24.7235 20.089 26.8355 19.605 28.7295 20.127M27.1855 16.327C24.8305 16.331 22.4765 17.234 20.6825 19.034C17.6315 22.096 17.1835 26.77 19.3335 30.306M20.0005 30.334C24.8715 30.334 28.8335 26.37 28.8335 21.497C28.8335 20.763 28.7435 20.034 28.5655 19.332C28.2865 18.222 27.7995 17.19 27.1185 16.264L20.6735 6.69199C20.5225 6.46799 20.2705 6.33398 20.0005 6.33398C19.7305 6.33398 19.4785 6.46799 19.3275 6.69199L12.8795 16.267C12.8765 16.271 12.8735 16.275 12.8705 16.28C12.3805 17.003 11.7095 18.236 11.4345 19.331C11.2565 20.034 11.1665 20.763 11.1665 21.497C11.1675 26.37 15.1295 30.334 20.0005 30.334Z" stroke="#00ADE8" stroke-miterlimit="10" stroke-linecap="round" stroke-linejoin="round"/>
</g>
</g>
</svg>
