<svg width="60" height="61" viewBox="0 0 60 61" fill="none" xmlns="http://www.w3.org/2000/svg">
<mask id="mask0" mask-type="alpha" maskUnits="userSpaceOnUse" x="0" y="0" width="60" height="61">
<rect y="0.328125" width="60" height="60" fill="#C4C4C4"/>
</mask>
<g mask="url(#mask0)">
<path d="M23.8906 0.746146C9.03153 3.70357 -8.43796 40.1618 4.54511 54.3529C17.5282 68.5441 60 55.8344 60 33.2778C60 10.7212 38.7612 -2.21128 23.8906 0.746146Z" fill="white"/>
<path d="M21.8149 10.3253C22.1184 10.0112 22.4797 9.76192 22.8778 9.59176C23.2759 9.4216 23.7029 9.33398 24.1343 9.33398C24.5656 9.33398 24.9926 9.4216 25.3907 9.59176C25.7888 9.76192 26.1501 10.0112 26.4537 10.3253C28.5187 12.4549 30.5696 17.8922 29.8556 18.6494C29.8556 18.6494 29.7275 18.7519 29.2889 18.7519C27.173 18.7519 23.1342 16.4982 21.8149 15.1349C21.1967 14.495 20.8499 13.6308 20.8499 12.7301C20.8499 11.8295 21.1967 10.9653 21.8149 10.3253V10.3253Z" stroke="#00ADE8" stroke-linecap="round" stroke-linejoin="round"/>
<path d="M38.1874 10.3249C38.8056 10.9648 39.1524 11.829 39.1524 12.7296C39.1524 13.6303 38.8056 14.4945 38.1874 15.1344C36.8681 16.4978 32.8276 18.7461 30.7117 18.7461C30.2748 18.7461 30.145 18.6435 30.145 18.6435C29.4327 17.8863 31.4836 12.4491 33.5486 10.3195C33.8522 10.0054 34.2135 9.75604 34.6116 9.58589C35.0097 9.41573 35.4367 9.32812 35.868 9.32812C36.2994 9.32812 36.7264 9.41573 37.1245 9.58589C37.5226 9.75604 37.8839 10.0054 38.1874 10.3195V10.3249Z" stroke="#00ADE8" stroke-linecap="round" stroke-linejoin="round"/>
<path d="M47.5458 27.3867V44.3282C47.5458 47.0896 45.3072 49.3282 42.5458 49.3282H17.4565C14.6951 49.3282 12.4565 47.0896 12.4565 44.3282V27.3867" stroke="#00ADE8" stroke-linecap="round" stroke-linejoin="round"/>
<path d="M47 18.75H13C11.3431 18.75 10 20.0931 10 21.75V27.3834H50V21.75C50 20.0931 48.6569 18.75 47 18.75Z" stroke="#00ADE8" stroke-linecap="round" stroke-linejoin="round"/>
<path d="M30.0012 18.75V49.3267" stroke="#00ADE8" stroke-linecap="round" stroke-linejoin="round"/>
</g>
</svg>
