<svg width="44" height="44" viewBox="0 0 44 44" fill="none" xmlns="http://www.w3.org/2000/svg">
<rect width="44" height="44" fill="black" fill-opacity="0"/>
<mask id="mask0" mask-type="alpha" maskUnits="userSpaceOnUse" x="0" y="0" width="44" height="44">
<rect width="44" height="44" fill="#C4C4C4"/>
</mask>
<g mask="url(#mask0)">
<rect width="44.0017" height="44.004" fill="black" fill-opacity="0" transform="translate(0 -0.00402832)"/>
<path d="M43.8307 24.6174C42.3507 34.7274 35.0007 48.2274 14.3307 42.7274C2.60067 39.1174 -4.60933 33.5574 3.37067 18.3974C11.3507 3.23744 18.5507 -2.24256 27.7507 0.807438C36.9507 3.85744 45.3107 14.5174 43.8307 24.6174Z" fill="#F57E1F"/>
<rect width="21" height="26" fill="black" fill-opacity="0" transform="translate(12.2807 10.2474)"/>
<path d="M29.3407 18.9074L33.2807 10.2474H16.2207L12.2807 18.9074H29.3407Z" stroke="white" stroke-linecap="round" stroke-linejoin="round"/>
<path d="M29.3407 36.2474L33.2807 27.5774H16.2207L12.2807 36.2474H29.3407Z" stroke="white" stroke-linecap="round" stroke-linejoin="round"/>
<path d="M29.3407 18.9075L33.2807 27.5775H16.2207L12.2807 18.9075H29.3407Z" stroke="white" stroke-linecap="round" stroke-linejoin="round"/>
</g>
</svg>
