<svg width="100" height="101" viewBox="0 0 100 101" fill="none" xmlns="http://www.w3.org/2000/svg">
<mask id="mask0" mask-type="alpha" maskUnits="userSpaceOnUse" x="0" y="0" width="100" height="101">
<rect y="0.835938" width="100" height="100" fill="#C4C4C4"/>
</mask>
<g mask="url(#mask0)">
<path d="M42.4688 69.1858L28.3884 88.121L20.5703 91.4993C29.0439 96.3741 40.5788 96.717 51.6988 94.2318L52.3001 90.5491L50.1585 88.7282C50.1585 88.7282 50.8088 80.1098 50.1585 75.8615C49.5082 71.6132 49.63 68.9431 49.63 68.9431L52.0574 66.1512L50.1585 59.232L48.6583 61.2957C48.6583 61.2957 48.78 66.2722 47.93 67.2431C47.0808 68.2141 42.9535 70.6415 42.9535 70.6415L42.4688 69.1858ZM48.7807 50.7502L46.1106 53.1635L47.446 59.4755L50.16 56.3199L48.7807 50.7502ZM60.9185 31.1938L59.462 49.037L63.8313 43.4532L62.7386 40.6621L66.3805 30.3445C66.3812 30.3438 62.7394 29.3728 60.9185 31.1938ZM13.9436 85.9356C14.6161 84.7293 15.8721 83.1444 17.8281 83.1444C20.9838 83.1444 26.3248 83.1444 26.3248 83.1444L41.9826 66.1512L40.8899 58.99L38.8262 63.1166C38.8262 63.1166 32.5142 65.423 31.1795 68.0931C29.8441 70.7632 27.6595 76.8325 27.6595 76.8325L23.2902 77.3179L20.9838 80.717C20.9838 80.717 20.741 78.1679 21.8337 75.7405C21.8337 75.7405 20.741 72.9486 22.5619 71.0067C24.3828 69.0648 29.2376 64.452 29.2376 64.452C29.2376 64.452 28.5094 62.1456 30.6941 60.2037C32.8787 58.2618 35.3069 55.1062 35.3069 55.1062C35.3069 55.1062 38.4625 28.0381 40.0407 26.0962C41.6181 24.1543 46.4736 21.3624 46.4736 21.3624C46.4736 21.3624 46.8032 14.8077 50.1585 13.3513C53.5138 11.8949 55.5775 10.6812 56.7912 13.3513C58.0049 16.0214 58.2476 18.6923 55.8202 24.5181L59.3403 20.027L63.7096 19.6625C63.7096 19.6625 74.6336 25.1245 74.5126 27.7954C74.3909 30.4655 71.8425 34.3501 71.8425 34.3501C71.8425 34.3501 74.0271 38.7194 73.5417 40.2976C73.0562 41.8758 66.3805 47.7015 66.3805 47.7015L64.4386 46.1233L59.341 52.0708C59.341 52.0708 60.312 57.4118 58.9766 63.8448C57.6411 70.2778 55.5782 82.1735 55.5782 82.1735C55.5782 82.1735 57.0346 83.7516 56.5491 85.8146C56.0637 87.8782 54.971 89.5774 54.971 89.5774L54.7193 93.4865C65.4652 90.5751 75.5125 85.122 81.627 78.712C96.6145 63 95.7222 46.9199 88.0162 31.6948C80.3101 16.472 55.9701 0.918148 39.6866 7.1633C23.4022 13.4085 12.2919 44.8094 7.96565 59.8459C3.63939 74.8816 13.4061 85.2645 13.4061 85.2645C13.5806 85.4946 13.7624 85.7151 13.9436 85.9356Z" fill="#00ADE8"/>
</g>
</svg>
