<svg width="48" height="48" viewBox="0 0 48 48" fill="none" xmlns="http://www.w3.org/2000/svg">
<mask id="mask0" mask-type="alpha" maskUnits="userSpaceOnUse" x="0" y="0" width="48" height="48">
<rect width="48" height="48" fill="#C4C4C4"/>
</mask>
<g mask="url(#mask0)">
<path d="M5.35617 41.5009C14.5634 52 42.3612 48.173 46.9999 33.5016C51.6387 18.8301 29.6276 -7.02231 14 2.00034C-1.62773 11.023 -2.64102 32.3812 5.35617 41.5009Z" fill="#00ADE8"/>
<path d="M39.1223 36.8751H9.07229C8.25729 36.8751 7.59729 36.215 7.59729 35.4V17.9681C7.59729 17.1531 8.25729 16.493 9.07229 16.493H39.1223C39.9373 16.493 40.5973 17.1531 40.5973 17.9681V35.4C40.5973 36.214 39.9373 36.8751 39.1223 36.8751ZM14.3913 31.3071V22.0601C14.3913 21.3971 13.8543 20.86 13.1913 20.86H7.59729V32.5071H13.1913C13.8543 32.5071 14.3913 31.9701 14.3913 31.3071ZM15.6073 14.9451C15.6073 14.2821 15.0703 13.7451 14.4073 13.7451H11.3813C10.7183 13.7451 10.1813 14.2821 10.1813 14.9451V16.4921H15.6073V14.9451ZM35.5603 16.4921L34.0343 12.2701C33.7853 11.5811 33.1313 11.123 32.3993 11.123H22.7263C21.9943 11.123 21.3403 11.5821 21.0913 12.2701L19.5653 16.4921H35.5603ZM38.1873 19.259H34.8873H38.1873ZM31.9423 13.8091H23.1823H31.9423ZM7.59729 24.6011H10.1803H7.59729ZM7.59729 28.7661H10.1803H7.59729ZM27.5623 18.9191C23.2743 18.9191 19.7973 22.3951 19.7973 26.6841C19.7973 30.9721 23.2733 34.449 27.5623 34.449C31.8503 34.449 35.3273 30.9731 35.3273 26.6841C35.3273 22.3951 31.8513 18.9191 27.5623 18.9191ZM27.5623 21.5881C24.7483 21.5881 22.4663 23.8691 22.4663 26.6841C22.4663 29.4991 24.7473 31.78 27.5623 31.78C30.3763 31.78 32.6583 29.4991 32.6583 26.6841C32.6583 23.8691 30.3773 21.5881 27.5623 21.5881Z" stroke="white" stroke-miterlimit="10" stroke-linecap="round" stroke-linejoin="round"/>
</g>
</svg>
