<svg width="100" height="101" viewBox="0 0 100 101" fill="none" xmlns="http://www.w3.org/2000/svg">
<mask id="mask0" mask-type="alpha" maskUnits="userSpaceOnUse" x="0" y="0" width="100" height="101">
<rect y="0.835938" width="100" height="100" fill="#C4C4C4"/>
</mask>
<g mask="url(#mask0)">
<path d="M64.8263 31.8783C64.8263 31.8783 63.9754 52.6567 69.3222 67.3602C74.669 82.0629 73.94 84.9796 73.94 84.9796L82.9147 91.4441C84.6506 90.5724 86.3204 89.5714 87.9025 88.427C104.813 76.1885 94.8767 39.5599 84.6863 21.0383C81.4507 22.5907 75.4961 25.5275 71.996 27.7472C67.0141 30.9063 64.8263 31.8783 64.8263 31.8783ZM48.9688 50.8487C48.4226 55.0875 47.0865 60.1913 47.0865 60.1913L62.1541 76.3527C62.1541 76.3527 58.6302 66.241 57.9012 56.3508C57.9004 56.3501 49.515 46.6099 48.9688 50.8487ZM26.2381 81.698C35.6669 90.4245 49.0231 95.5424 61.9935 95.8359C57.5073 92.2838 43.729 81.1087 32.5042 69.1823C18.8946 54.7226 13.4267 45.609 21.6895 40.7482C29.9523 35.8874 40.6406 52.413 40.6406 52.413L43.926 41.3553C43.926 41.3553 45.5059 38.6823 48.4219 40.9912C51.3379 43.3001 56.0768 46.5802 56.0768 46.5802L51.5809 41.4772L50.973 35.4014L39.5512 32.3635L31.2884 23.9789L26.3065 23.371C26.3065 23.371 25.3345 21.0621 27.7645 20.455C30.1945 19.8471 32.5034 20.455 32.5034 20.455L43.6822 26.7737L51.8231 27.9888C51.8231 27.9888 49.6317 23.857 49.998 21.3058C50.3644 18.754 51.2153 16.3239 55.59 15.7161C59.9648 15.1082 59.4781 25.4369 59.4781 25.4369C59.4781 25.4369 71.9938 22.0348 73.5736 21.184C74.6727 20.5917 79.3001 18.1647 82.0148 16.7423C70.8293 1.59969 48.4092 4.12333 25.819 12.8365C6.68879 20.2149 3.32021 34.9979 3.32021 34.9979C1.10124 47.9216 9.989 66.6587 26.2381 81.698Z" fill="#00ADE8"/>
</g>
</svg>
