<svg width="45" height="44" viewBox="0 0 45 44" fill="none" xmlns="http://www.w3.org/2000/svg">
<rect width="44" height="44" fill="black" fill-opacity="0" transform="translate(0.833496)"/>
<mask id="mask0" mask-type="alpha" maskUnits="userSpaceOnUse" x="0" y="0" width="45" height="44">
<rect x="0.833496" width="44" height="44" fill="#C4C4C4"/>
</mask>
<g mask="url(#mask0)">
<rect width="43.9987" height="44.0024" fill="black" fill-opacity="0" transform="translate(0.833496 -0.0012207)"/>
<path d="M44.4624 16.1837C41.2724 26.4937 39.6924 42.1837 30.7624 43.7637C23.2624 45.1237 12.1624 40.6637 3.61243 29.8537C-3.98757 20.2437 5.13243 9.32365 17.3124 2.27365C29.4924 -4.77635 47.6524 5.88365 44.4624 16.1837Z" fill="#00ADE8"/>
<path d="M16.899 19.7134C17.1529 19.8219 17.4467 19.704 17.5552 19.4501C17.6637 19.1961 17.5458 18.9023 17.2919 18.7938L16.899 19.7134ZM12.6955 11.6536H13.1955L13.1954 11.6446L12.6955 11.6536ZM13.3255 11.0436L13.3004 11.543C13.3087 11.5434 13.3171 11.5436 13.3255 11.5436V11.0436ZM15.3255 11.5436C15.6016 11.5436 15.8255 11.3197 15.8255 11.0436C15.8255 10.7675 15.6016 10.5436 15.3255 10.5436V11.5436ZM28.0155 30.8237V31.3237C28.169 31.3237 28.3141 31.2531 28.4089 31.1322C28.5037 31.0114 28.5376 30.8537 28.5011 30.7046L28.0155 30.8237ZM19.4155 30.8237L18.9298 30.7046C18.8933 30.8537 18.9273 31.0114 19.022 31.1322C19.1168 31.2531 19.2619 31.3237 19.4155 31.3237V30.8237ZM24.8355 24.6136L25.3272 24.5229C25.2803 24.2689 25.0477 24.0924 24.7904 24.1157C24.5332 24.1389 24.336 24.3543 24.3355 24.6126L24.8355 24.6136ZM25.6455 29.0036L25.1788 29.1831C25.2715 29.4242 25.5325 29.555 25.7811 29.4849C26.0297 29.4148 26.184 29.1669 26.1372 28.9129L25.6455 29.0036ZM21.4173 28.8279C21.3203 29.0865 21.4512 29.3747 21.7097 29.4718C21.9683 29.5688 22.2565 29.4379 22.3536 29.1794L21.4173 28.8279ZM23.1454 24.6055C23.1409 24.3294 22.9134 24.1092 22.6373 24.1137C22.3612 24.1182 22.141 24.3457 22.1455 24.6218L23.1454 24.6055ZM29.4854 20.7736L29.053 20.5227C29.048 20.5312 29.0433 20.5399 29.0389 20.5488L29.4854 20.7736ZM23.7154 24.3287V23.8287V24.3287ZM17.9454 20.7736L18.392 20.5488C18.3876 20.5399 18.3829 20.5312 18.3779 20.5227L17.9454 20.7736ZM15.6454 11.1336H15.1454C15.1454 11.1424 15.1457 11.1512 15.1461 11.16L15.6454 11.1336ZM15.5654 8.84363V8.34363C15.4317 8.34363 15.3036 8.39718 15.2097 8.49232C15.1157 8.58746 15.0638 8.71626 15.0655 8.84996L15.5654 8.84363ZM31.8954 8.84363H32.3954C32.3954 8.56749 32.1716 8.34363 31.8954 8.34363V8.84363ZM31.8154 11.1336L31.3184 11.0792C31.3175 11.0873 31.3168 11.0955 31.3163 11.1036L31.8154 11.1336ZM32.0955 10.5037C31.8193 10.5037 31.5955 10.7275 31.5955 11.0037C31.5955 11.2798 31.8193 11.5037 32.0955 11.5037V10.5037ZM34.0955 11.0037V11.5037C34.1038 11.5037 34.1122 11.5035 34.1205 11.5031L34.0955 11.0037ZM34.7255 11.6137L34.2255 11.6047V11.6137H34.7255ZM30.1302 18.7434C29.876 18.8512 29.7573 19.1447 29.8652 19.399C29.973 19.6532 30.2665 19.7718 30.5207 19.664L30.1302 18.7434ZM17.2919 18.7938C15.6962 18.112 14.6983 17.3423 14.0845 16.3389C13.4663 15.3284 13.1955 14.0131 13.1955 12.1536H12.1955C12.1955 14.0941 12.4746 15.6238 13.2314 16.8608C13.9926 18.1049 15.1947 18.9852 16.899 19.7134L17.2919 18.7938ZM13.1955 12.1536V11.6536H12.1955V12.1536H13.1955ZM13.1954 11.6446C13.1951 11.6309 13.1977 11.6173 13.2029 11.6047L12.2787 11.2228C12.2211 11.3621 12.1928 11.5118 12.1955 11.6626L13.1954 11.6446ZM13.2029 11.6047C13.2082 11.592 13.216 11.5805 13.2258 11.571L12.5302 10.8526C12.4219 10.9575 12.3363 11.0835 12.2787 11.2228L13.2029 11.6047ZM13.2258 11.571C13.2356 11.5615 13.2473 11.5541 13.2602 11.5492L12.9083 10.6132C12.7672 10.6662 12.6385 10.7477 12.5302 10.8526L13.2258 11.571ZM13.2602 11.5492C13.273 11.5444 13.2867 11.5423 13.3004 11.543L13.3505 10.5442C13.2 10.5367 13.0494 10.5601 12.9083 10.6132L13.2602 11.5492ZM13.3255 11.5436H15.3255V10.5436H13.3255V11.5436ZM18.9855 31.2937H28.4555V30.2937H18.9855V31.2937ZM28.4555 31.2937C28.6929 31.2937 28.8855 31.4862 28.8855 31.7237H29.8855C29.8855 30.9339 29.2452 30.2937 28.4555 30.2937V31.2937ZM28.8855 31.7237V35.9137H29.8855V31.7237H28.8855ZM28.8855 35.9137C28.8855 36.1512 28.6929 36.3437 28.4555 36.3437V37.3437C29.2452 37.3437 29.8855 36.7035 29.8855 35.9137H28.8855ZM28.4555 36.3437H18.9855V37.3437H28.4555V36.3437ZM18.9855 36.3437C18.748 36.3437 18.5555 36.1512 18.5555 35.9137H17.5555C17.5555 36.7035 18.1957 37.3437 18.9855 37.3437V36.3437ZM18.5555 35.9137V31.7237H17.5555V35.9137H18.5555ZM18.5555 31.7237C18.5555 31.4862 18.748 31.2937 18.9855 31.2937V30.2937C18.1957 30.2937 17.5555 30.9339 17.5555 31.7237H18.5555ZM26.2355 29.5037C26.7175 29.5037 27.294 29.9813 27.5298 30.9428L28.5011 30.7046C28.2169 29.546 27.3934 28.5037 26.2355 28.5037V29.5037ZM28.0155 30.3237H19.4155V31.3237H28.0155V30.3237ZM19.9011 30.9428C20.135 29.9889 20.7479 29.5037 21.1954 29.5037V28.5037C20.083 28.5037 19.2159 29.5384 18.9298 30.7046L19.9011 30.9428ZM24.3355 24.6126C24.3321 26.1751 24.618 27.7247 25.1788 29.1831L26.1121 28.8242C25.5957 27.481 25.3324 26.0538 25.3355 24.6147L24.3355 24.6126ZM26.1372 28.9129L25.3272 24.5229L24.3438 24.7044L25.1538 29.0944L26.1372 28.9129ZM22.3536 29.1794C22.9021 27.7179 23.1707 26.1663 23.1454 24.6055L22.1455 24.6218C22.1688 26.0571 21.9218 27.484 21.4173 28.8279L22.3536 29.1794ZM29.0389 20.5488C28.5424 21.5349 27.7818 22.3637 26.8418 22.9429L27.3664 23.7943C28.464 23.118 29.3523 22.15 29.932 20.9985L29.0389 20.5488ZM26.8418 22.9429C25.9018 23.522 24.8195 23.8287 23.7154 23.8287V24.8287C25.0047 24.8287 26.2687 24.4706 27.3664 23.7943L26.8418 22.9429ZM23.7154 23.8287C22.6114 23.8287 21.529 23.522 20.5891 22.9429L20.0645 23.7943C21.1622 24.4706 22.4262 24.8287 23.7154 24.8287V23.8287ZM20.5891 22.9429C19.6491 22.3637 18.8885 21.5349 18.392 20.5488L17.4988 20.9985C18.0786 22.15 18.9669 23.118 20.0645 23.7943L20.5891 22.9429ZM18.3779 20.5227C17.1343 18.3799 16.3628 15.2298 16.1447 11.1072L15.1461 11.16C15.3681 15.3575 16.1566 18.6874 17.513 21.0246L18.3779 20.5227ZM16.1454 11.1336C16.1454 10.7546 16.1273 10.368 16.1086 9.98665C16.0897 9.60161 16.0703 9.22139 16.0654 8.8373L15.0655 8.84996C15.0706 9.25587 15.0912 9.65565 15.1098 10.0356C15.1286 10.4193 15.1454 10.7826 15.1454 11.1336H16.1454ZM15.5654 9.34363H31.8954V8.34363H15.5654V9.34363ZM31.3954 8.84363C31.3954 9.63936 31.3949 10.3812 31.3184 11.0792L32.3125 11.1881C32.396 10.426 32.3954 9.6279 32.3954 8.84363H31.3954ZM31.3163 11.1036C31.0685 15.2286 30.2969 18.3794 29.053 20.5227L29.9179 21.0246C31.274 18.6879 32.0624 15.3587 32.3145 11.1636L31.3163 11.1036ZM32.0955 11.5037H34.0955V10.5037H32.0955V11.5037ZM34.1205 11.5031C34.1342 11.5024 34.1479 11.5045 34.1607 11.5093L34.5126 10.5733C34.3715 10.5202 34.2209 10.4968 34.0704 10.5043L34.1205 11.5031ZM34.1607 11.5093C34.1736 11.5141 34.1853 11.5216 34.1951 11.5311L34.8907 10.8127C34.7824 10.7078 34.6537 10.6263 34.5126 10.5733L34.1607 11.5093ZM34.1951 11.5311C34.205 11.5406 34.2127 11.5521 34.218 11.5647L35.1422 11.1829C35.0846 11.0436 34.999 10.9175 34.8907 10.8127L34.1951 11.5311ZM34.218 11.5647C34.2232 11.5774 34.2258 11.591 34.2255 11.6047L35.2254 11.6226C35.2281 11.4719 35.1998 11.3222 35.1422 11.1829L34.218 11.5647ZM34.2255 11.6137V12.1037H35.2255V11.6137H34.2255ZM34.2255 12.1037C34.2255 13.9685 33.9546 15.2862 33.3364 16.2965C32.7229 17.2994 31.7255 18.0666 30.1302 18.7434L30.5207 19.664C32.2254 18.9408 33.4281 18.0629 34.1895 16.8184C34.9464 15.5812 35.2255 14.0488 35.2255 12.1037H34.2255ZM21.1954 29.5037H26.2355V28.5037H21.1954V29.5037Z" fill="white"/>
</g>
</svg>
