<svg width="182" height="179" viewBox="0 0 182 179" fill="none" xmlns="http://www.w3.org/2000/svg">
<path d="M160.323 78.8771C151.237 139.534 93.1518 165.009 54.0639 147.14C23.5143 133.174 23.872 68.8204 59.7415 38.8141C93.5315 10.5476 165.362 45.2362 160.323 78.8771Z" fill="white"/>
<path d="M70.2764 89.3703L72.9952 83.3366L62.3132 91.1986L70.2764 89.3703ZM74.5123 71.5636C74.5363 71.5011 74.5497 71.4646 74.5497 71.4646C74.5354 71.4976 74.5256 71.5297 74.5123 71.5636ZM125.651 128.168C136.061 118.222 143.894 107.03 148.488 96.3664L89.5442 145.381C102.938 143.403 116.043 137.348 125.651 128.168ZM94.1658 112.531C78.2395 105.719 81.736 100.075 88.5331 96.279C95.3311 92.4841 101.741 85.6719 101.741 85.6719C101.741 85.6719 98.0508 80.6121 87.3688 81.9734L88.3398 77.8866L78.823 93.4571C78.823 93.4571 70.4715 96.5709 57.6533 96.279C57.6533 96.279 50.4669 95.4032 51.4379 93.4571C52.4089 91.511 54.3509 86.9949 57.6533 91.1995L72.6077 81.0013L74.5497 76.5244C74.5497 76.5244 73.4165 74.2453 74.5123 71.5636C74.1871 72.4001 71.7017 78.3758 67.3633 77.1082C62.7025 75.7459 62.1199 66.793 66.101 61.3431C70.0822 55.8941 76.1033 64.2622 76.1033 64.2622C76.1033 64.2622 88.5883 59.3961 96.2326 62.7054L87.5621 70.8798L126.406 48.6926L127.255 45.195C126.496 44.8781 125.721 44.5675 124.918 44.2711C95.9074 33.5489 67.2431 31.1421 54.7625 53.0285C42.2837 74.913 29.3051 122.365 50.8072 137.476C58.2243 142.689 67.1112 145.41 76.3715 145.977L98.8276 130.24C98.8267 130.242 110.091 119.342 94.1658 112.531ZM134.726 49.0167C133.718 51.9108 132.328 54.7478 130.679 55.1156C127.184 55.894 127.378 51.2225 127.378 51.2225L100.187 66.3449C100.187 66.3449 116.89 71.269 118.638 78.2758C120.386 85.2826 120.386 89.3694 112.617 93.4571C104.848 97.5439 94.5543 102.605 94.5543 102.605C94.5543 102.605 98.4392 103.578 101.352 108.833C104.265 114.087 102.907 114.867 107.568 117.007C112.228 119.148 113.977 118.759 113.977 118.759L150.378 91.4744C152.944 83.9722 153.795 76.8832 152.671 70.8655C152.67 70.8646 149.586 58.1936 134.726 49.0167Z" fill="#00ADE8"/>
</svg>
