<svg width="40" height="40" viewBox="0 0 40 40" fill="none" xmlns="http://www.w3.org/2000/svg">
<mask id="mask0" mask-type="alpha" maskUnits="userSpaceOnUse" x="0" y="0" width="40" height="40">
<rect width="40" height="40" fill="#C4C4C4"/>
</mask>
<g mask="url(#mask0)">
<path d="M5.09597 34.0774C3.26231 32.0731 2.47472 29.25 2.50062 26.0507C2.52649 22.8537 3.36595 19.3292 4.72906 15.9944C6.0917 12.6609 7.96718 9.54253 10.0415 7.15564C12.1266 4.75634 14.3622 3.15315 16.4319 2.74121C20.7233 1.88774 25.994 3.32508 30.2025 6.66146C34.3978 9.98745 37.5 15.1724 37.5 21.7698C37.5 24.9851 35.9886 27.8784 33.5448 30.2973C31.0988 32.7183 27.74 34.6396 24.1217 35.8879C20.504 37.136 16.6572 37.7009 13.2511 37.436C9.83747 37.1705 6.9264 36.0781 5.09597 34.0774Z" stroke="#00ADE8"/>
<mask id="mask1" mask-type="alpha" maskUnits="userSpaceOnUse" x="5" y="7" width="29" height="29">
<rect x="6.40271" y="8.23047" width="27" height="27" fill="#C4C4C4" stroke="#00ADE8"/>
</mask>
<g mask="url(#mask1)">
<path d="M26.0634 23.0219C27.4654 22.5679 28.5275 21.822 29.2215 20.799C29.8385 19.89 29.9695 19.025 29.9975 18.696C30.0295 18.315 29.7975 17.967 29.4325 17.851C28.2295 17.468 25.9215 17.339 24.1385 18.399M15.8615 18.399C14.0775 17.338 11.7705 17.468 10.5675 17.851C10.2025 17.967 9.97045 18.315 10.0025 18.696C10.0305 19.026 10.1615 19.891 10.7785 20.799C11.4725 21.822 12.5334 22.5679 13.9364 23.0219M16.2885 35.1589L16.2458 27.6763M23.6678 27.6763L23.7105 35.1589M17.6975 17.2419L12.5245 13.5889L10.4784 9.08594M16.3404 9.08694L15.8844 12.3229L12.5234 13.5899M29.5204 9.08694L27.4745 13.5899L22.3014 17.243M27.4755 13.5889L24.1145 12.3219L23.6584 9.08594M25.0685 19.7169C26.1295 21.5699 25.9925 23.9029 24.6935 26.1199C24.5035 26.4439 23.3295 28.1279 23.0265 28.7239C21.7365 31.2599 22.0695 32.485 19.9995 32.485C17.9305 32.485 18.2625 31.2599 16.9725 28.7239C16.6695 28.1279 15.4955 26.4439 15.3055 26.1199C14.0055 23.9039 13.8685 21.57 14.9305 19.718C15.9315 17.971 17.8265 16.9279 19.9995 16.9279C22.1735 16.9269 24.0675 17.9699 25.0685 19.7169Z" stroke="#00ADE8" stroke-miterlimit="10" stroke-linecap="round" stroke-linejoin="round"/>
</g>
</g>
</svg>
