<svg width="58" height="58" viewBox="0 0 58 58" fill="none" xmlns="http://www.w3.org/2000/svg">
<path d="M30.295 18.4883C45.1525 18.745 57 23.4 57 28.9883C57 34.7458 44.3592 39.4883 29 39.4883C13.6408 39.4883 1 34.7458 1 28.9883C1 24.2633 9.49917 20.0925 21.6558 18.8558M36.9217 47.3575C38.5783 42.265 39.4883 35.7433 39.4883 29C39.4883 13.6408 34.7517 1 28.9883 1C23.225 1 18.4883 13.6408 18.4883 29C18.4883 44.3592 23.2308 57 28.9883 57C30.2128 56.9554 31.3779 56.4611 32.2608 55.6117M34.25 14.2533L29.9975 18.5058L34.25 22.7408M33.7483 42.23L36.9275 47.3575L42.0317 44.1842" stroke="#00ADE8" stroke-width="2" stroke-linecap="round" stroke-linejoin="round"/>
</svg>
