<svg width="60" height="61" viewBox="0 0 60 61" fill="none" xmlns="http://www.w3.org/2000/svg">
<mask id="mask0" mask-type="alpha" maskUnits="userSpaceOnUse" x="0" y="0" width="60" height="61">
<rect y="0.328125" width="60" height="60" fill="#C4C4C4"/>
</mask>
<g mask="url(#mask0)">
<path d="M1.67635 41.9067C-8.29387 18.8645 28.7428 -8.76856 45.9884 3.22915C60.2198 13.0903 66.6863 46.1689 50.4403 56.5888C36.8375 65.3269 8.67354 58.068 1.67635 41.9067Z" fill="white"/>
<path d="M47.2339 13.3298C45.265 13.3657 43.5634 15.0862 42.9688 17.4553H51.6464C51.6464 15.1886 49.6604 13.3503 47.2013 13.3281L47.2339 13.3298Z" stroke="#00ADE8" stroke-linecap="round" stroke-linejoin="round"/>
<path d="M33.8883 45.2012H9C9 47.4798 11.0118 49.3283 13.4913 49.3283H38.3231C35.8658 49.2959 33.8883 47.461 33.8883 45.2012Z" stroke="#00ADE8" stroke-linecap="round" stroke-linejoin="round"/>
<path d="M47.172 13.3281H17.9826C15.5013 13.3281 13.4912 16.0027 13.4912 19.3021V45.2008H33.883C33.883 47.4572 35.8554 49.2972 38.3024 49.3262C40.7563 49.2869 42.7389 46.6294 42.7389 43.3523V19.3021C42.7389 16.0301 44.7781 13.3742 47.2303 13.3281H47.172Z" stroke="#00ADE8" stroke-linecap="round" stroke-linejoin="round"/>
<path d="M34.1239 30.5215C33.3444 30.5215 32.5824 30.7517 31.9342 31.1831C31.2861 31.6145 30.7809 32.2276 30.4826 32.9449C30.1843 33.6622 30.1063 34.4516 30.2583 35.2131C30.4104 35.9746 30.7858 36.6741 31.337 37.2231C31.8882 37.7721 32.5905 38.146 33.355 38.2975C34.1195 38.449 34.912 38.3712 35.6322 38.0741C36.3523 37.777 36.9679 37.2738 37.4009 36.6282C37.834 35.9826 38.0652 35.2237 38.0652 34.4472C38.0652 33.406 37.6499 32.4075 36.9108 31.6713C36.1717 30.9351 35.1692 30.5215 34.1239 30.5215V30.5215Z" stroke="#00ADE8" stroke-linecap="round" stroke-linejoin="round"/>
<path d="M31.4971 37.416V41.3417C31.4966 41.4611 31.5289 41.5784 31.5904 41.6808C31.6519 41.7832 31.7404 41.867 31.8462 41.923C31.952 41.9791 32.0712 42.0053 32.1909 41.9988C32.3105 41.9923 32.4261 41.9534 32.5252 41.8862L34.1309 40.8194L35.7348 41.8862C35.834 41.9516 35.9491 41.9891 36.0679 41.9948C36.1867 42.0005 36.3049 41.9742 36.41 41.9187C36.5138 41.862 36.6004 41.7785 36.6607 41.677C36.721 41.5755 36.7528 41.4597 36.7527 41.3417V37.416" stroke="#00ADE8" stroke-linecap="round" stroke-linejoin="round"/>
<path d="M32.2328 17.5117H23.3547M17.208 22.0775H39.0615M32.2328 26.645H17.208M39.0615 26.645H34.9643M25.411 31.2108H17.208M17.208 35.7766H25.4042M20.6232 39.5812H17.208M23.3547 39.5812H25.411" stroke="#00ADE8" stroke-linecap="round" stroke-linejoin="round"/>
</g>
</svg>
