<svg width="181" height="179" viewBox="0 0 181 179" fill="none" xmlns="http://www.w3.org/2000/svg">
<path d="M159.371 78.8773C150.284 139.534 92.1996 165.009 53.1117 147.14C22.5621 133.174 22.9198 68.8205 58.7894 38.8142C92.5793 10.5477 164.41 45.2363 159.371 78.8773Z" fill="white"/>
<path d="M69.324 89.3703L72.0429 83.3366L61.3609 91.1986L69.324 89.3703ZM73.5599 71.5636C73.584 71.5011 73.5974 71.4646 73.5974 71.4646C73.5831 71.4976 73.5733 71.5297 73.5599 71.5636ZM124.698 128.168C135.109 118.222 142.942 107.03 147.536 96.3664L88.5919 145.381C101.986 143.403 115.091 137.348 124.698 128.168ZM93.2135 112.531C77.2872 105.719 80.7837 100.075 87.5808 96.279C94.3787 92.4841 100.788 85.6719 100.788 85.6719C100.788 85.6719 97.0984 80.6121 86.4164 81.9734L87.3875 77.8866L77.8707 93.4571C77.8707 93.4571 69.5191 96.5709 56.7009 96.279C56.7009 96.279 49.5146 95.4032 50.4856 93.4571C51.4566 91.511 53.3986 86.9949 56.7009 91.1995L71.6553 81.0013L73.5974 76.5244C73.5974 76.5244 72.4642 74.2453 73.5599 71.5636C73.2348 72.4001 70.7494 78.3758 66.411 77.1082C61.7502 75.7459 61.1676 66.793 65.1487 61.3431C69.1298 55.8941 75.151 64.2622 75.151 64.2622C75.151 64.2622 87.636 59.3961 95.2803 62.7054L86.6098 70.8798L125.454 48.6926L126.303 45.195C125.544 44.8781 124.769 44.5675 123.966 44.2711C94.9551 33.5489 66.2907 31.1421 53.8102 53.0285C41.3314 74.913 28.3528 122.365 49.8549 137.476C57.2719 142.689 66.1589 145.41 75.4191 145.977L97.8753 130.24C97.8744 130.242 109.139 119.342 93.2135 112.531ZM133.774 49.0167C132.766 51.9108 131.376 54.7478 129.727 55.1156C126.231 55.894 126.426 51.2225 126.426 51.2225L99.2347 66.3449C99.2347 66.3449 115.938 71.269 117.686 78.2758C119.433 85.2826 119.433 89.3694 111.664 93.4571C103.896 97.5439 93.6019 102.605 93.6019 102.605C93.6019 102.605 97.4869 103.578 100.4 108.833C103.313 114.087 101.954 114.867 106.615 117.007C111.276 119.148 113.025 118.759 113.025 118.759L149.426 91.4744C151.992 83.9722 152.842 76.8832 151.719 70.8655C151.718 70.8646 148.634 58.1936 133.774 49.0167Z" fill="#00ADE8"/>
</svg>
