<svg width="100" height="101" viewBox="0 0 100 101" fill="none" xmlns="http://www.w3.org/2000/svg">
<mask id="mask0" mask-type="alpha" maskUnits="userSpaceOnUse" x="0" y="0" width="100" height="101">
<rect y="0.835938" width="100" height="100" fill="#F57E1F"/>
</mask>
<g mask="url(#mask0)">
<path d="M39.3885 45.4757L33.1648 58.2422C33.1648 58.2422 41.7819 54.4829 47.3674 48.2241C52.9528 41.9653 58.5382 32.5504 58.5382 32.5504C58.5382 32.5504 44.0166 38.9336 39.3885 45.4757ZM81.1002 92.8153C90.5686 87.4194 95.4572 70.8051 96.1218 55.269C89.6486 61.1238 70.1102 77.9869 44.5802 92.5408C57.8758 96.1083 72.2445 97.862 81.1002 92.8153ZM48.4843 77.2316C50.0799 72.6035 55.5058 58.401 54.5484 52.8163L53.2719 51.1014C53.2719 51.1014 39.5481 63.5077 29.1758 69.891L21.4048 84.4785C26.4025 86.5858 33.0997 89.1607 40.3525 91.3375L48.0056 83.295C48.0056 83.2957 46.8887 81.8596 48.4843 77.2316ZM95.7339 43.0844C95.201 38.4278 94.2159 34.2565 92.7886 31.0213C86.0386 15.7275 74.5121 4.96871 53.7243 6.02343C52.3006 12.4447 49.0706 25.403 44.3357 35.1034C44.3357 35.1034 57.261 23.4538 59.9743 24.0921C62.6868 24.7303 64.2825 24.8899 64.2825 24.8899C64.2825 24.8899 67.634 17.2302 70.0275 17.8684C72.4209 18.5067 74.496 19.464 73.5386 24.4112C72.5812 29.3584 70.5062 31.2731 70.5062 31.2731C70.5062 31.2731 74.6555 34.3048 74.6555 38.1351C74.6555 41.9646 73.8577 54.731 65.4002 62.7099L62.8464 61.4334L63.8038 56.3267H66.3575C66.3575 56.3267 70.187 46.7522 68.9105 42.1249C68.9105 42.1249 62.6869 46.7522 61.5699 52.178C60.453 57.6039 58.5375 67.1784 56.4632 72.2851C54.3889 77.3919 53.5911 79.3066 53.5911 79.3066C53.5911 79.3066 84.0214 57.3199 95.7339 43.0844ZM3.87924 54.8138C3.87924 54.8138 5.50707 75.0489 17.6507 82.6347C22.3717 71.8057 41.7417 26.7329 45.7352 7.15062C25.4707 11.969 3.31418 31.4612 3.87924 54.8138Z" fill="#F57E1F"/>
</g>
</svg>
