<svg width="40" height="40" viewBox="0 0 40 40" fill="none" xmlns="http://www.w3.org/2000/svg">
<mask id="mask0" mask-type="alpha" maskUnits="userSpaceOnUse" x="0" y="0" width="40" height="40">
<rect width="40" height="40" fill="#C4C4C4"/>
</mask>
<g mask="url(#mask0)">
<path d="M14.611 19.5348L14.58 19.5038C13.644 18.5718 12.13 18.5748 11.197 19.5098C10.265 20.4458 10.268 21.9598 11.203 22.8928L11.234 22.9238C11.701 23.3888 12.311 23.6218 12.922 23.6218C13.535 23.6218 14.149 23.3868 14.616 22.9178C15.55 21.9818 15.547 20.4668 14.611 19.5348Z" stroke="#00ADE8" stroke-miterlimit="10" stroke-linecap="round" stroke-linejoin="round"/>
<path d="M12.907 16.3984C10.201 16.3984 8 18.6004 8 21.3074C8 21.7154 8.05 22.1204 8.149 22.5104C8.304 23.1274 8.575 23.7004 8.953 24.2144L12.534 29.5324C12.618 29.6564 12.758 29.7314 12.908 29.7314C13.058 29.7314 13.198 29.6564 13.282 29.5324L16.864 24.2134C16.866 24.2114 16.867 24.2085 16.869 24.2065C17.141 23.8055 17.514 23.1204 17.667 22.5114C17.766 22.1214 17.816 21.7164 17.816 21.3084C17.815 18.6014 15.613 16.3984 12.907 16.3984Z" stroke="#00ADE8" stroke-miterlimit="10" stroke-linecap="round" stroke-linejoin="round"/>
<path d="M28.7959 8.86719L28.7649 8.83618C27.8289 7.90418 26.3149 7.90617 25.3819 8.84217C24.4499 9.77817 24.4529 11.2922 25.3879 12.2252L25.4189 12.2562C25.8859 12.7212 26.4959 12.9542 27.1069 12.9542C27.7199 12.9542 28.3339 12.7192 28.8009 12.2502C29.7349 11.3142 29.7319 9.80019 28.7959 8.86719Z" stroke="#00ADE8" stroke-miterlimit="10" stroke-linecap="round" stroke-linejoin="round"/>
<path d="M27.093 5.73242C24.387 5.73242 22.186 7.93442 22.186 10.6414C22.186 11.0494 22.236 11.4544 22.335 11.8444C22.49 12.4614 22.761 13.0344 23.139 13.5484L26.72 18.8664C26.804 18.9904 26.944 19.0654 27.094 19.0654C27.244 19.0654 27.384 18.9904 27.468 18.8664L31.05 13.5474C31.052 13.5454 31.053 13.5424 31.055 13.5404C31.327 13.1394 31.7 12.4544 31.853 11.8454C31.95 11.4544 32 11.0494 32 10.6414C32 7.93442 29.799 5.73242 27.093 5.73242Z" stroke="#00ADE8" stroke-miterlimit="10" stroke-linecap="round" stroke-linejoin="round"/>
<path d="M13.6705 29.2376L25.8579 20.0625" stroke="#00ADE8" stroke-linecap="round" stroke-linejoin="round" stroke-dasharray="1.8 1.8"/>
<path d="M30.9158 3.15101L30.9166 3.15154C35.3391 6.1841 37.6237 11.8638 37.4949 17.6503C37.3661 23.4302 34.8306 29.2075 29.7544 32.4294L29.7541 32.4296C25.4363 35.1744 19.9409 36.7884 14.9958 36.4571C10.0688 36.1271 5.7296 33.8769 3.56118 28.9208C0.472599 21.857 4.51027 13.565 10.8894 7.90314C14.0608 5.0883 17.7605 2.97635 21.3302 2.03717C24.9013 1.09764 28.2886 1.34233 30.9158 3.15101Z" stroke="#00ADE8"/>
</g>
</svg>
