<svg width="45" height="44" viewBox="0 0 45 44" fill="none" xmlns="http://www.w3.org/2000/svg">
<rect width="44" height="44" fill="black" fill-opacity="0" transform="translate(0.833496)"/>
<mask id="mask0" mask-type="alpha" maskUnits="userSpaceOnUse" x="0" y="0" width="45" height="44">
<rect x="0.833496" width="44" height="44" fill="#C4C4C4"/>
</mask>
<g mask="url(#mask0)">
<rect width="43.9989" height="43.9837" fill="black" fill-opacity="0" transform="translate(0.833496)"/>
<path d="M2.15092 26.9199C3.15092 32.0499 3.67092 35.1199 4.05092 36.1699C5.54092 40.3399 8.35092 43.8699 14.2709 43.9799C24.6009 44.1499 39.6809 38.5799 43.8909 27.6399C46.1709 21.7199 44.3209 15.2699 38.2209 11.2399C32.1209 7.20988 29.2209 5.32988 26.5309 3.79988C23.8409 2.26988 13.0709 -4.20012 5.74092 4.28988C-1.58908 12.7799 1.20092 21.7999 2.15092 26.9199Z" fill="#00ADE8"/>
<rect width="25.54" height="28.0073" fill="black" fill-opacity="0" transform="translate(7.74384 6.56812)"/>
<path d="M28.0838 33.698C30.4838 32.608 32.5338 29.768 33.2838 26.758C26.7899 28.4681 20.1252 29.4475 13.4138 29.678C18.2138 22.158 17.8838 16.008 12.7838 10.368L26.2038 12.988C32.2038 14.278 33.3438 22.788 27.9938 27.888" stroke="white" stroke-linecap="round" stroke-linejoin="round"/>
<path d="M14.3038 27.988C12.6229 27.7759 10.9762 27.349 9.40384 26.718C9.72348 29.0951 10.3976 31.4108 11.4038 33.588" stroke="white" stroke-linecap="round" stroke-linejoin="round"/>
<path d="M18.3638 6.56812V11.4281" stroke="white" stroke-linecap="round" stroke-linejoin="round"/>
<path d="M18.3638 7.48812C18.9457 7.27955 19.5497 7.13863 20.1638 7.06812C21.0938 7.06812 21.5438 8.06812 22.0438 8.11812C22.5438 8.16812 23.3538 7.36812 23.9738 7.36812C24.5938 7.36812 26.4738 7.93812 26.0438 8.56812C25.7538 8.99812 24.5338 9.07812 24.0438 9.07812C23.5538 9.07812 22.6738 10.0781 21.9738 10.0781C21.2738 10.0781 20.5338 9.18812 20.0338 9.18812C19.4491 9.32409 18.8913 9.55733 18.3838 9.87812" stroke="white" stroke-linecap="round" stroke-linejoin="round"/>
<path d="M7.74384 32.8281C7.92106 33.3352 8.25159 33.7747 8.68965 34.0857C9.12772 34.3966 9.65163 34.5637 10.1888 34.5637C10.726 34.5637 11.25 34.3966 11.688 34.0857C12.1261 33.7747 12.4566 33.3352 12.6338 32.8281C12.8111 33.3352 13.1416 33.7747 13.5797 34.0857C14.0177 34.3966 14.5416 34.5637 15.0788 34.5637C15.616 34.5637 16.14 34.3966 16.578 34.0857C17.0161 33.7747 17.3466 33.3352 17.5238 32.8281M32.2338 32.6781C32.0878 33.2103 31.775 33.6817 31.3413 34.023C30.9076 34.3643 30.3759 34.5575 29.8242 34.5743C29.2726 34.5911 28.7301 34.4305 28.2765 34.1162C27.8229 33.8019 27.4819 33.3505 27.3038 32.8281C27.1266 33.3352 26.7961 33.7747 26.358 34.0857C25.92 34.3966 25.396 34.5637 24.8588 34.5637C24.3216 34.5637 23.7977 34.3966 23.3597 34.0857C22.9216 33.7747 22.5911 33.3352 22.4138 32.8281C22.2366 33.3352 21.9061 33.7747 21.468 34.0857C21.03 34.3966 20.506 34.5637 19.9688 34.5637C19.4316 34.5637 18.9077 34.3966 18.4697 34.0857C18.0316 33.7747 17.7011 33.3352 17.5238 32.8281L32.2338 32.6781Z" stroke="white" stroke-linecap="round" stroke-linejoin="round"/>
</g>
</svg>
