<svg width="40" height="40" viewBox="0 0 40 40" fill="none" xmlns="http://www.w3.org/2000/svg">
<mask id="mask0" mask-type="alpha" maskUnits="userSpaceOnUse" x="0" y="0" width="40" height="40">
<rect width="40" height="40" fill="#C4C4C4"/>
</mask>
<g mask="url(#mask0)">
<path d="M1.94503 13.7199C2.76397 11.1297 4.81501 9.03614 7.59868 7.45889C10.3803 5.88279 13.8523 4.84754 17.4219 4.36066C20.9902 3.87395 24.6284 3.93899 27.7327 4.54195C30.8531 5.14804 33.3593 6.28254 34.7509 7.86901C37.6358 11.1588 39.0263 16.4419 38.2412 21.7548C37.4585 27.0511 34.5193 32.3301 28.8057 35.6288C26.0212 37.2364 22.7598 37.3742 19.4431 36.4672C16.1235 35.5594 12.7801 33.6113 9.88988 31.1019C7.00017 28.593 4.58764 25.544 3.11397 22.4617C1.63708 19.3727 1.12755 16.3055 1.94503 13.7199Z" stroke="#00ADE8"/>
<mask id="mask1" mask-type="alpha" maskUnits="userSpaceOnUse" x="6" y="5" width="28" height="29">
<rect x="6.5" y="6.23047" width="27" height="27" fill="#C4C4C4" stroke="#00ADE8"/>
</mask>
<g mask="url(#mask1)">
<path d="M28.073 11.3C21.736 10.795 17.517 9.82103 15.522 8.70703M30.142 13.524C20.174 13.144 14.635 12.05 12.249 10.785M12.952 29.485C13.708 25.743 15.082 23.004 17.141 21.074C20.043 18.352 24.425 17.052 31.616 16.917M17.605 31.705C19.133 25.825 23.942 22.166 31.97 20.775M23.883 31.301C25.267 28.284 27.907 26.018 31.039 24.655M8.03003 21.086C9.78203 20.076 11.683 18.809 12.321 18.196C13.037 17.508 10.724 16.873 8.55403 16.364M9.61303 25.958C13.154 18.282 22.371 16.277 21.183 16.186C19.986 16.094 13.761 15.704 9.83303 13.566" stroke="#00ADE8" stroke-miterlimit="10" stroke-linecap="round" stroke-linejoin="round"/>
</g>
</g>
</svg>
