<svg width="132" height="125" viewBox="0 0 132 125" fill="none" xmlns="http://www.w3.org/2000/svg">
<path d="M3.68724 86.0037C-18.2399 38.3418 63.2136 -18.8162 101.141 6.00066C132.44 26.398 146.662 94.8199 110.932 116.373C81.016 134.447 19.0759 119.433 3.68724 86.0037Z" fill="white"/>
<path d="M58.4087 9.80801C53.6153 33.3176 30.3623 87.418 24.6963 100.447C10.1122 91.3835 8.16316 67.0581 8.16316 67.0581C7.48325 38.9939 34.0791 15.5976 58.4087 9.80801ZM75.4972 30.2019C77.2029 30.6249 78.9321 30.9465 80.6758 31.1649C80.6758 31.1649 84.6986 21.965 87.5656 22.7355C90.4325 23.5059 92.937 24.6502 91.7811 30.5871C90.6253 36.524 88.1435 38.824 88.1435 38.824C88.1435 38.824 93.1296 42.4609 93.1296 47.0608C93.1296 51.6608 92.1664 66.9788 82.0131 76.5186L78.9534 74.9891L80.0866 68.8596H83.1576C83.1576 68.8596 87.6903 57.371 86.2171 51.8647C86.2171 51.8647 78.7494 57.4277 77.4009 63.9311C76.0524 70.4344 73.7635 81.9457 71.2705 88.0751C68.7774 94.2046 67.8709 96.4933 67.8709 96.4933C67.8709 96.4933 104.405 70.1059 118.468 53.0203C117.997 48.048 116.806 43.1704 114.932 38.5407C106.818 20.1862 92.9822 7.27011 68.0294 8.53906C66.3183 16.2434 62.4429 31.7994 56.7656 43.4466C56.7316 43.3673 72.245 29.3861 75.4972 30.1452V30.2019ZM61.7063 93.9894C63.6214 88.4264 70.1373 71.3295 68.9927 64.6788L67.4515 62.6168C67.4515 62.6168 50.975 77.5157 38.5326 85.1747L29.1952 102.577C36.6249 105.737 44.2165 108.502 51.9382 110.86L61.117 101.207C61.117 101.207 59.7912 99.4844 61.7063 93.9327V93.9894ZM57.0149 112.355C72.9815 116.638 90.2287 118.745 100.858 112.695C112.19 106.214 118.094 86.2737 118.898 67.6246C99.8617 84.6038 79.1242 99.5744 57.0149 112.299V112.355ZM50.805 55.8075L43.3374 71.1369C43.3374 71.1369 53.6834 66.6049 60.3352 59.1158C66.987 51.6268 73.7748 40.2629 73.7748 40.2629C73.7748 40.2629 56.3463 47.9559 50.805 55.8075Z" fill="#00ADE8"/>
</svg>
