<svg width="45" height="44" viewBox="0 0 45 44" fill="none" xmlns="http://www.w3.org/2000/svg">
<rect width="44" height="44" fill="black" fill-opacity="0" transform="translate(0.833496)"/>
<mask id="mask0" mask-type="alpha" maskUnits="userSpaceOnUse" x="0" y="0" width="45" height="44">
<rect x="0.833496" width="44" height="44" fill="#C4C4C4"/>
</mask>
<g mask="url(#mask0)">
<rect width="43.9989" height="43.9837" fill="black" fill-opacity="0" transform="translate(0.833496)"/>
<path d="M2.15092 26.9199C3.15092 32.0499 3.67092 35.1199 4.05092 36.1699C5.54092 40.3399 8.35092 43.8699 14.2709 43.9799C24.6009 44.1499 39.6809 38.5799 43.8909 27.6399C46.1709 21.7199 44.3209 15.2699 38.2209 11.2399C32.1209 7.20988 29.2209 5.32988 26.5309 3.79988C23.8409 2.26988 13.0709 -4.20012 5.74092 4.28988C-1.58908 12.7799 1.20092 21.7999 2.15092 26.9199Z" fill="#F57E1F"/>
<rect width="25.54" height="28.0073" fill="black" fill-opacity="0" transform="translate(7.7439 6.56836)"/>
<path d="M28.0839 33.6982C30.4839 32.6082 32.5339 29.7682 33.2839 26.7582C26.79 28.4682 20.1253 29.4476 13.4139 29.6782C18.2139 22.1582 17.8839 16.0082 12.7839 10.3682L26.2039 12.9882C32.2039 14.2782 33.3439 22.7882 27.9939 27.8882" stroke="white" stroke-linecap="round" stroke-linejoin="round"/>
<path d="M14.3038 27.9888C12.6229 27.7766 10.9761 27.3498 9.40381 26.7188C9.72345 29.0958 10.3976 31.4115 11.4038 33.5887" stroke="white" stroke-linecap="round" stroke-linejoin="round"/>
<path d="M18.3638 6.56836V11.4284" stroke="white" stroke-linecap="round" stroke-linejoin="round"/>
<path d="M18.3638 7.48836C18.9457 7.2798 19.5497 7.13887 20.1638 7.06836C21.0938 7.06836 21.5438 8.06836 22.0438 8.11836C22.5438 8.16836 23.3538 7.36836 23.9738 7.36836C24.5938 7.36836 26.4738 7.93836 26.0438 8.56836C25.7538 8.99836 24.5338 9.07836 24.0438 9.07836C23.5538 9.07836 22.6738 10.0784 21.9738 10.0784C21.2738 10.0784 20.5338 9.18836 20.0338 9.18836C19.449 9.32433 18.8912 9.55758 18.3838 9.87836" stroke="white" stroke-linecap="round" stroke-linejoin="round"/>
<path d="M7.7439 32.8287C7.92112 33.3358 8.25165 33.7753 8.68971 34.0863C9.12778 34.3972 9.65169 34.5643 10.1889 34.5643C10.7261 34.5643 11.25 34.3972 11.6881 34.0863C12.1261 33.7753 12.4567 33.3358 12.6339 32.8287C12.8111 33.3358 13.1417 33.7753 13.5797 34.0863C14.0178 34.3972 14.5417 34.5643 15.0789 34.5643C15.6161 34.5643 16.14 34.3972 16.5781 34.0863C17.0161 33.7753 17.3467 33.3358 17.5239 32.8287M32.2339 32.6787C32.0879 33.2109 31.775 33.6823 31.3413 34.0236C30.9076 34.3649 30.3759 34.5581 29.8243 34.5749C29.2727 34.5917 28.7302 34.4311 28.2766 34.1168C27.8229 33.8025 27.482 33.3511 27.3039 32.8287C27.1267 33.3358 26.7961 33.7753 26.3581 34.0863C25.92 34.3972 25.3961 34.5643 24.8589 34.5643C24.3217 34.5643 23.7978 34.3972 23.3597 34.0863C22.9217 33.7753 22.5911 33.3358 22.4139 32.8287C22.2367 33.3358 21.9061 33.7753 21.4681 34.0863C21.03 34.3972 20.5061 34.5643 19.9689 34.5643C19.4317 34.5643 18.9078 34.3972 18.4697 34.0863C18.0317 33.7753 17.7011 33.3358 17.5239 32.8287L32.2339 32.6787Z" stroke="white" stroke-linecap="round" stroke-linejoin="round"/>
</g>
</svg>
