<svg width="40" height="40" viewBox="0 0 40 40" fill="none" xmlns="http://www.w3.org/2000/svg">
<mask id="mask0" mask-type="alpha" maskUnits="userSpaceOnUse" x="0" y="0" width="40" height="40">
<rect width="40" height="40" fill="#C4C4C4"/>
</mask>
<g mask="url(#mask0)">
<path d="M13.4707 37.0401C10.3399 36.4745 7.92866 35.4294 6.81612 34.1142C5.74845 32.8517 4.70688 30.6642 3.91239 27.9632C3.12135 25.274 2.58887 22.1223 2.51013 18.9661C2.35146 12.6068 4.03053 6.44367 8.86128 3.80472C14.0644 0.962605 21.2876 3.00624 27.2613 7.63712C33.2181 12.2549 37.699 19.2765 37.4932 26.0096C37.3925 29.3036 35.7733 31.7973 33.2798 33.6187C30.7723 35.4502 27.3875 36.5927 23.825 37.1317C20.2667 37.67 16.5709 37.6002 13.4707 37.0401Z" stroke="#00ADE8"/>
<mask id="mask1" mask-type="alpha" maskUnits="userSpaceOnUse" x="6" y="7" width="28" height="29">
<rect x="6.5" y="8.41406" width="27" height="27" fill="#C4C4C4" stroke="#00ADE8"/>
</mask>
<g mask="url(#mask1)">
<path d="M18.196 16.801H14.2V24.1801H25.8V16.801H21.803M19.865 13.242V11.7711M23.628 11.7711C23.628 10.7461 22.797 9.91406 21.771 9.91406H17.959C16.934 9.91406 16.102 10.7451 16.102 11.7711M26.009 32.386H13.991M24.566 30.5681H15.433C13.702 30.5681 12.299 29.165 12.299 27.434V16.376C12.299 14.645 13.702 13.242 15.433 13.242H24.566C26.297 13.242 27.7 14.645 27.7 16.376V27.434C27.701 29.165 26.297 30.5681 24.566 30.5681ZM20 14.998C19.004 14.998 18.196 15.8051 18.196 16.8021C18.196 17.7991 19.004 18.606 20 18.606C20.996 18.606 21.804 17.7991 21.804 16.8021C21.804 15.8051 20.996 14.998 20 14.998ZM17.354 25.533H14.2V27.2531H17.355L17.354 25.533ZM22.53 30.5681V30.299C22.53 29.495 21.878 28.843 21.074 28.843H18.657C17.853 28.843 17.201 29.495 17.201 30.299V30.5681H22.53ZM25.8 25.533H22.645V27.2531H25.8V25.533ZM18.79 9.91504V10.911C18.79 11.386 19.175 11.7711 19.65 11.7711H20.08C20.555 11.7711 20.94 11.386 20.94 10.911V9.91504H18.79ZM26.435 30.162C27.406 31.404 28.377 32.645 29.348 33.887L26.435 30.162ZM13.565 30.162C12.594 31.404 11.623 32.645 10.652 33.887L13.565 30.162ZM25.022 30.548C25.675 31.668 26.328 32.7891 26.981 33.9091L25.022 30.548ZM14.966 30.5681C14.316 31.6831 13.665 32.7991 13.015 33.9141L14.966 30.5681Z" stroke="#00ADE8" stroke-miterlimit="10" stroke-linecap="round" stroke-linejoin="round"/>
</g>
</g>
</svg>
