<svg width="48" height="48" viewBox="0 0 48 48" fill="none" xmlns="http://www.w3.org/2000/svg">
<mask id="mask0" mask-type="alpha" maskUnits="userSpaceOnUse" x="0" y="0" width="48" height="48">
<rect width="48" height="48" fill="#C4C4C4"/>
</mask>
<g mask="url(#mask0)">
<path d="M44.8586 38.5352C28.826 54.9961 7.53234 47.8246 1.05024 32.1354C-4.01592 19.8733 10.5034 -3.3409e-06 26.8522 -1.91164e-06C42.2532 6.75008e-05 53.7505 29.4057 44.8586 38.5352Z" fill="#00ADE8"/>
<path d="M26.425 19.4591H21.576V17.5201H26.425V19.4591ZM25.361 19.4591H22.639L22.154 30.8431H25.846L25.361 19.4591ZM15.302 19.4591H12.58L12.095 30.8431H15.787L15.302 19.4591ZM35.42 19.4591H32.698L32.213 30.8431H35.905L35.42 19.4591ZM16.365 17.5201H11.516V19.4591H16.365V17.5201ZM36.484 17.5201H31.635V19.4591H36.484V17.5201ZM38.786 15.0961H9.214V17.5201H38.787L38.786 15.0961ZM26.425 30.8431H21.576V32.7821H26.425V30.8431ZM16.365 30.8431H11.516V32.7821H16.365V30.8431ZM36.484 30.8431H31.635V32.7821H36.484V30.8431ZM38.545 32.7831H9.455V35.2071H38.546V32.7831H38.545ZM39.515 35.2071H8.485V37.6311H39.515V35.2071ZM40 15.0961L24 6.36914L8 15.0961H40ZM30.604 12.7971L24 9.19513L17.396 12.7971H30.604Z" stroke="white" stroke-miterlimit="10" stroke-linecap="round" stroke-linejoin="round"/>
</g>
</svg>
