<svg width="370" height="320" viewBox="0 0 370 320" fill="none" xmlns="http://www.w3.org/2000/svg">
<mask id="mask0" mask-type="alpha" maskUnits="userSpaceOnUse" x="0" y="0" width="370" height="320">
<rect width="370" height="320" fill="#C4C4C4"/>
</mask>
<g mask="url(#mask0)">
<path d="M291.654 147.95H291.439C291.179 147.923 290.926 147.845 290.697 147.719C290.467 147.594 290.264 147.424 290.101 147.22C289.937 147.016 289.816 146.781 289.745 146.529C289.673 146.278 289.652 146.014 289.683 145.754C290.091 142.009 287.791 132.38 286.868 128.986C286.75 128.487 286.831 127.962 287.093 127.521C287.355 127.081 287.778 126.759 288.273 126.625C288.768 126.49 289.295 126.553 289.744 126.801C290.193 127.048 290.529 127.46 290.68 127.95C291.04 129.267 294.17 141.021 293.613 146.176C293.563 146.661 293.335 147.111 292.974 147.438C292.612 147.766 292.142 147.948 291.654 147.95Z" fill="#F57E1F"/>
<path d="M238.769 145.473C235.237 145.485 231.733 144.845 228.433 143.585C227.96 143.375 227.588 142.988 227.397 142.507C227.207 142.025 227.213 141.488 227.414 141.011C227.616 140.534 227.996 140.155 228.474 139.955C228.952 139.756 229.49 139.753 229.97 139.946C230.458 140.148 242.102 144.876 252.139 136.951C262.32 128.912 261.359 113.773 261.359 113.624C261.34 113.364 261.373 113.103 261.455 112.857C261.537 112.61 261.667 112.381 261.837 112.185C262.007 111.988 262.214 111.827 262.447 111.71C262.679 111.593 262.933 111.524 263.192 111.505C263.452 111.486 263.712 111.519 263.959 111.601C264.206 111.683 264.434 111.813 264.631 111.983C264.828 112.153 264.989 112.36 265.106 112.593C265.222 112.826 265.292 113.079 265.311 113.338C265.363 114.045 266.421 130.73 254.61 140.051C250.109 143.624 244.515 145.538 238.769 145.473Z" fill="#F57E1F"/>
<path d="M255.115 258.146C254.629 258.147 254.16 257.968 253.798 257.644C253.436 257.32 253.206 256.873 253.153 256.39L252.09 246.414L243.248 254.155C243.053 254.328 242.825 254.46 242.579 254.545C242.333 254.629 242.072 254.664 241.813 254.648C241.553 254.631 241.299 254.563 241.065 254.448C240.832 254.333 240.623 254.173 240.452 253.978C240.28 253.782 240.149 253.554 240.066 253.307C239.983 253.061 239.949 252.8 239.967 252.54C239.985 252.281 240.054 252.027 240.17 251.794C240.286 251.561 240.447 251.353 240.644 251.183L252.354 240.935C252.627 240.698 252.959 240.54 253.315 240.479C253.671 240.417 254.037 240.454 254.373 240.586C254.71 240.717 255.004 240.939 255.224 241.225C255.444 241.512 255.581 241.854 255.62 242.213L257.082 255.973C257.112 256.233 257.091 256.496 257.018 256.747C256.946 256.998 256.825 257.232 256.662 257.436C256.498 257.64 256.296 257.81 256.067 257.936C255.838 258.061 255.586 258.14 255.326 258.168L255.115 258.146Z" fill="#F57E1F"/>
<path d="M175.5 237.66H159.399C159.061 237.659 158.729 237.572 158.434 237.406C158.139 237.241 157.892 237.002 157.715 236.714C157.539 236.425 157.44 236.096 157.427 235.758C157.415 235.42 157.489 235.085 157.643 234.784L163.491 223.368C163.601 223.124 163.76 222.906 163.958 222.725C164.155 222.544 164.387 222.406 164.64 222.318C164.892 222.229 165.16 222.193 165.427 222.212C165.694 222.23 165.954 222.303 166.192 222.425C166.43 222.547 166.641 222.716 166.812 222.922C166.983 223.128 167.11 223.366 167.186 223.623C167.262 223.879 167.285 224.148 167.253 224.414C167.222 224.68 167.137 224.936 167.004 225.168L162.613 233.726H175.482C176.006 233.726 176.509 233.934 176.879 234.304C177.25 234.675 177.458 235.177 177.458 235.701C177.458 236.225 177.25 236.728 176.879 237.098C176.509 237.469 176.006 237.677 175.482 237.677L175.5 237.66Z" fill="#F57E1F"/>
<path d="M248.433 279.81C247.924 279.81 247.435 279.613 247.067 279.261C242.703 275.099 234.295 277.039 234.211 277.066C233.702 277.189 233.165 277.104 232.717 276.831C232.27 276.557 231.95 276.117 231.827 275.608C231.704 275.099 231.789 274.561 232.062 274.114C232.336 273.667 232.776 273.347 233.285 273.224C233.724 273.123 243.862 270.756 249.794 276.412C250.08 276.684 250.278 277.035 250.362 277.421C250.446 277.807 250.413 278.209 250.267 278.576C250.12 278.943 249.867 279.257 249.54 279.478C249.213 279.7 248.828 279.818 248.433 279.819V279.81Z" fill="#F57E1F"/>
<path d="M147.11 260.689H147.066C142.131 260.579 137.2 252.785 136.26 251.244C136.116 251.022 136.018 250.773 135.972 250.512C135.925 250.251 135.932 249.984 135.992 249.726C136.051 249.467 136.161 249.224 136.317 249.009C136.472 248.795 136.669 248.613 136.896 248.476C137.123 248.34 137.375 248.25 137.637 248.212C137.899 248.174 138.166 248.19 138.422 248.258C138.679 248.325 138.918 248.444 139.128 248.606C139.337 248.769 139.512 248.971 139.641 249.203C141.463 252.215 145.108 256.693 147.154 256.737C147.678 256.743 148.178 256.957 148.544 257.331C148.911 257.706 149.113 258.211 149.107 258.735C149.102 259.259 148.888 259.759 148.513 260.125C148.139 260.492 147.634 260.694 147.11 260.689Z" fill="#F57E1F"/>
<path d="M64.28 290.975C63.9473 290.981 63.6148 290.953 63.2877 290.892C59.5645 290.15 56.0081 285.272 55.1958 282.242C54.6645 280.258 55.3143 279.169 55.9554 278.607C56.5964 278.045 57.7775 277.535 59.7445 278.348C62.818 279.388 88.0642 274.348 110.676 268.873C111.177 268.771 111.697 268.868 112.129 269.142C112.56 269.416 112.868 269.847 112.988 270.343C113.109 270.84 113.032 271.364 112.775 271.805C112.517 272.246 112.098 272.571 111.607 272.71C111.488 272.741 99.6424 275.608 87.3441 278.185C67.5862 282.321 61.6412 282.607 59.4459 282.317C60.3811 284.126 62.4711 286.707 64.0737 287.019C65.3118 287.221 71.7792 285.838 78.0315 284.508C91.7128 281.601 111.967 277.294 126.851 277.751L125.973 274.765C125.823 274.262 125.878 273.721 126.128 273.259C126.377 272.798 126.799 272.454 127.301 272.304C127.804 272.154 128.345 272.209 128.807 272.458C129.268 272.707 129.612 273.13 129.762 273.632L131.457 279.296C131.549 279.604 131.564 279.929 131.502 280.244C131.439 280.559 131.301 280.853 131.099 281.103C130.897 281.352 130.638 281.549 130.343 281.676C130.048 281.802 129.727 281.855 129.407 281.83C114.917 280.697 93.2232 285.307 78.8702 288.363C70.8001 290.088 66.5149 290.975 64.28 290.975Z" fill="#F57E1F"/>
<path d="M294.078 310C286.465 310 277.617 308.349 269.653 306.861L268.805 306.703C253.478 303.844 208.974 300.942 200.197 300.389C199.622 300.389 199.082 300.341 198.594 300.288C198.07 300.244 197.585 299.994 197.246 299.593C196.906 299.191 196.74 298.671 196.783 298.147C196.827 297.623 197.077 297.138 197.478 296.799C197.88 296.459 198.4 296.293 198.924 296.336L200.513 296.433C209.18 296.63 228.565 292.328 228.771 292.284C229.025 292.226 229.287 292.219 229.542 292.262C229.798 292.306 230.043 292.4 230.263 292.538C230.483 292.676 230.673 292.856 230.823 293.068C230.973 293.28 231.08 293.519 231.138 293.772C231.196 294.025 231.203 294.287 231.159 294.543C231.116 294.799 231.022 295.044 230.884 295.264C230.746 295.483 230.566 295.674 230.354 295.824C230.142 295.974 229.903 296.081 229.65 296.139C229.294 296.218 225.817 296.99 221.206 297.851C237.891 299.094 259.519 300.925 269.547 302.808L270.399 302.966C277.534 304.283 285.49 305.781 292.265 306.04C282.004 304.626 254.944 297.605 253.759 297.298C253.508 297.232 253.272 297.118 253.065 296.962C252.858 296.805 252.684 296.609 252.553 296.385C252.421 296.162 252.335 295.914 252.3 295.657C252.264 295.4 252.279 295.138 252.345 294.887C252.41 294.636 252.525 294.4 252.681 294.194C252.838 293.987 253.033 293.812 253.257 293.681C253.481 293.55 253.729 293.464 253.986 293.428C254.243 293.393 254.504 293.408 254.755 293.474C255.045 293.548 284.006 301.065 293.424 302.207C302.179 303.265 309.182 297.97 309.252 297.917C309.578 297.667 309.974 297.525 310.384 297.51C310.794 297.495 311.199 297.609 311.542 297.835C311.885 298.061 312.149 298.388 312.297 298.771C312.445 299.154 312.471 299.574 312.37 299.972C310.385 307.673 303.105 310 294.078 310Z" fill="#F57E1F"/>
<path d="M282.632 94.5242C282.508 94.5234 282.384 94.5117 282.263 94.4891C281.884 94.4164 281.535 94.2348 281.258 93.9665C280.981 93.6982 280.789 93.3549 280.704 92.9787L264.165 19.2157C264.143 19.1114 264.129 19.0058 264.121 18.8996C264.011 17.0028 263.993 12.4058 266.154 10.6979C266.569 10.3675 267.06 10.1453 267.583 10.051C268.105 9.95679 268.643 9.99348 269.148 10.1578C269.757 10.3026 270.319 10.6009 270.78 11.0244C271.241 11.4479 271.586 11.9824 271.782 12.5771C272.45 14.7724 270.755 16.9897 270.408 17.4068C270.131 17.7481 269.747 17.9874 269.319 18.0867C268.89 18.1861 268.441 18.14 268.041 17.9556C268.041 18.14 268.041 18.3244 268.041 18.5088L283.545 87.6573L304.69 56.5934C304.849 56.3598 305.055 56.1629 305.296 56.0161C305.537 55.8692 305.807 55.7758 306.087 55.7421C306.367 55.7083 306.651 55.7351 306.92 55.8207C307.189 55.9062 307.436 56.0484 307.645 56.2377L310.574 58.8721C310.923 59.1869 311.148 59.6154 311.21 60.0811C311.272 60.5468 311.166 61.0193 310.912 61.4143L307.689 66.3889C307.552 66.6158 307.371 66.8129 307.157 66.9684C306.943 67.124 306.699 67.2348 306.441 67.2944C306.183 67.354 305.916 67.3611 305.655 67.3152C305.394 67.2694 305.145 67.1716 304.923 67.0276C304.7 66.8836 304.509 66.6964 304.361 66.4771C304.212 66.2578 304.109 66.0108 304.058 65.751C304.007 65.4911 304.009 65.2236 304.063 64.9643C304.117 64.7051 304.223 64.4594 304.374 64.2419L306.447 61.0367L284.252 93.6593C284.071 93.9233 283.83 94.1398 283.548 94.2904C283.266 94.441 282.951 94.5212 282.632 94.5242Z" fill="#F57E1F"/>
<path d="M182.507 160.968H182.459C182.001 160.957 181.562 160.788 181.215 160.49C180.868 160.191 180.636 159.781 180.558 159.33C179.679 155.932 154.793 79.8858 145.23 50.7187C145.204 50.6265 145.178 50.5343 145.16 50.4421C144.721 47.8823 144.282 43.3336 146.477 41.6081C146.961 41.2313 147.54 40.9984 148.15 40.9363C148.76 40.8742 149.375 40.9852 149.924 41.2568C151.768 42.0208 152.374 43.2853 152.558 44.2117C153.068 46.789 150.741 49.2741 150.271 49.7439C149.995 50.0227 149.642 50.211 149.257 50.284C150.789 54.96 158.793 79.3808 166.701 103.604C184.509 158.154 184.5 158.487 184.487 159.04C184.475 159.557 184.26 160.048 183.89 160.408C183.52 160.768 183.024 160.969 182.507 160.968Z" fill="#F57E1F"/>
<path d="M186.34 182.627C186.036 182.632 185.736 182.566 185.462 182.434C185.093 182.254 176.439 177.947 176.439 165.433C176.438 165.153 176.497 164.875 176.612 164.619C176.728 164.363 176.896 164.135 177.107 163.949L183.917 157.956C184.795 153.403 190.064 128.539 199.468 121.413C199.68 121.255 199.92 121.14 200.175 121.075C201.053 120.851 220.855 115.854 228.561 115.735C230.361 114.085 235.393 110.072 239.902 112.021C243.441 112.763 249.829 116.609 250.347 126.396C250.988 138.655 245.144 141.021 244.477 141.25C244.363 141.288 244.245 141.316 244.126 141.333C243.954 141.359 239.862 141.948 233.549 141.333C230.942 141.168 228.329 141.14 225.72 141.25C220.794 141.351 215.279 141.46 210.484 140.472C208.889 143.493 207.13 146.424 205.216 149.254C202.472 153.245 198.731 162.158 197.954 164.037V174.799C197.953 175.138 197.865 175.472 197.698 175.768C197.532 176.065 197.291 176.313 197.001 176.489L187.341 182.342C187.039 182.525 186.693 182.623 186.34 182.627ZM180.43 166.311C180.72 173.587 184.571 177.104 186.34 178.342L194.024 173.683V163.677C194.023 163.423 194.072 163.17 194.169 162.935C194.349 162.496 198.678 151.849 201.98 147.041C204.073 143.918 205.979 140.673 207.688 137.324C207.892 136.918 208.23 136.594 208.645 136.408C209.06 136.222 209.527 136.184 209.966 136.301C214.55 137.535 220.447 137.417 225.654 137.311C228.414 137.199 231.178 137.233 233.935 137.412C237.042 137.736 240.173 137.752 243.283 137.46C243.95 137.052 246.843 134.826 246.413 126.607C245.921 117.285 239.243 115.911 238.949 115.858C238.772 115.827 238.601 115.771 238.44 115.692C236.214 114.616 232.293 117.522 230.761 119.103C230.566 119.301 230.333 119.456 230.075 119.558C229.817 119.66 229.54 119.707 229.263 119.696C223.389 119.432 204.562 124.056 201.554 124.802C194.296 130.765 189.089 151.686 187.679 159.348C187.601 159.785 187.377 160.183 187.043 160.476L180.43 166.311Z" fill="#00ADE8"/>
<path d="M250.883 181.907C247.526 181.878 244.197 181.295 241.03 180.181C226.752 175.321 216.126 157.824 215.683 157.082C215.492 156.762 215.394 156.395 215.402 156.022C215.41 155.649 215.522 155.286 215.727 154.975L226.844 138.15C226.988 137.933 227.174 137.747 227.39 137.602C227.606 137.457 227.848 137.357 228.103 137.305C228.358 137.254 228.621 137.254 228.876 137.304C229.131 137.354 229.374 137.455 229.59 137.599C229.807 137.743 229.993 137.928 230.138 138.144C230.283 138.36 230.384 138.603 230.435 138.858C230.486 139.113 230.486 139.375 230.436 139.631C230.386 139.886 230.286 140.129 230.141 140.345L219.709 156.086C222.172 159.84 231.252 172.687 242.282 176.441C254.136 180.476 261.161 175.18 261.921 174.553L271.194 164.12C271.363 163.939 271.564 163.79 271.787 163.681C278.333 160.41 287.988 147.976 288.085 147.849C288.191 147.714 288.313 147.593 288.449 147.489C288.484 147.458 292.954 143.91 295.066 136.512C297.147 129.232 293.56 123.217 293.521 123.156C293.248 122.708 293.165 122.17 293.289 121.661C293.412 121.152 293.734 120.713 294.181 120.44C294.629 120.168 295.167 120.084 295.676 120.208C296.185 120.332 296.624 120.653 296.897 121.101C297.081 121.404 301.415 128.675 298.864 137.601C296.629 145.429 292.133 149.561 291.071 150.448C289.784 152.09 280.818 163.352 273.903 167.036L264.779 177.301C264.729 177.359 264.674 177.413 264.617 177.464C264.358 177.683 259.475 181.907 250.883 181.907Z" fill="#00ADE8"/>
<path d="M259.506 167.993C258.982 168.005 258.475 167.808 258.096 167.445C257.717 167.083 257.498 166.585 257.486 166.061C257.475 165.537 257.672 165.03 258.034 164.651C258.396 164.272 258.894 164.053 259.418 164.042L272.59 163.458C272.85 163.446 273.109 163.486 273.353 163.574C273.597 163.663 273.821 163.799 274.013 163.974C274.205 164.149 274.36 164.361 274.47 164.596C274.58 164.831 274.642 165.086 274.654 165.346C274.665 165.605 274.626 165.864 274.537 166.108C274.448 166.352 274.313 166.577 274.137 166.768C273.962 166.96 273.751 167.115 273.515 167.225C273.28 167.335 273.025 167.398 272.766 167.409L259.594 167.993H259.506Z" fill="#00ADE8"/>
<path d="M233.759 167.993C233.354 167.993 232.958 167.867 232.626 167.633C224.06 161.605 222.748 145.847 222.699 145.179C222.658 144.655 222.827 144.137 223.169 143.737C223.511 143.338 223.997 143.091 224.521 143.05C225.045 143.009 225.564 143.178 225.963 143.52C226.363 143.862 226.61 144.348 226.651 144.872C226.651 145.021 227.871 159.444 234.914 164.402C235.258 164.643 235.515 164.988 235.649 165.387C235.783 165.785 235.787 166.215 235.66 166.616C235.533 167.016 235.281 167.366 234.942 167.613C234.602 167.861 234.193 167.994 233.772 167.993H233.759Z" fill="#00ADE8"/>
<path d="M254.237 297.373H231.406C231.077 297.372 230.753 297.289 230.464 297.132C230.175 296.975 229.93 296.748 229.751 296.472C224.807 288.89 230.554 276.89 230.804 276.381C230.804 276.332 230.853 276.289 230.879 276.24C230.954 276.117 238.312 263.547 239.99 252.364C241.799 240.334 246.65 232.391 249.86 227.135L249.917 227.043C252.551 222.745 248.925 218.262 245.851 216.268C242.255 213.959 234.031 203.325 230.778 199.013C226.743 202.385 215.775 211.746 206.77 220.966C196.083 231.943 182.152 236.61 179.421 237.453C165.41 250.068 152.137 257.387 149.384 258.845C148.216 260.706 143.839 267.288 137.999 271.402C131.321 276.109 118.812 279.055 118.285 279.178C117.841 279.276 117.376 279.22 116.968 279.02C107.423 274.243 107.361 265.602 108.661 261.698C108.764 261.39 108.942 261.111 109.179 260.888C109.416 260.664 109.704 260.502 110.017 260.416C115.286 258.981 129.89 254.507 134.192 251.113C136.133 249.58 139.075 246.028 142.188 242.265C147.852 235.42 154.271 227.658 160.269 224.562C161.946 223.684 163.961 222.696 166.095 221.638C174.845 217.287 188.048 210.714 190.327 207.118C190.606 206.675 191.051 206.36 191.562 206.244C192.073 206.128 192.61 206.22 193.054 206.499C193.497 206.779 193.812 207.223 193.928 207.734C194.044 208.246 193.952 208.782 193.673 209.226C191.038 213.414 180.417 218.929 167.851 225.177C165.735 226.231 163.733 227.223 162.082 228.075C156.813 230.801 150.385 238.551 145.231 244.781C141.841 248.882 138.912 252.421 136.642 254.212C131.571 258.217 116.494 262.691 112.191 263.911C111.813 266.107 111.655 271.591 118.109 275.156C120.801 274.471 130.539 271.836 135.742 268.17C141.744 263.942 146.28 256.416 146.28 256.315C146.473 255.995 146.751 255.735 147.083 255.565C147.228 255.49 161.976 247.894 177.098 234.2C177.322 233.993 177.591 233.843 177.884 233.761C178.033 233.717 193.045 229.37 203.938 218.183C215.301 206.525 229.715 194.732 229.843 194.614C230.05 194.444 230.289 194.319 230.546 194.244C230.803 194.17 231.072 194.149 231.337 194.183C231.603 194.216 231.858 194.303 232.089 194.438C232.32 194.573 232.521 194.754 232.679 194.969C237.303 201.204 245.184 211.136 247.967 212.923C253.381 216.404 256.942 223.069 253.267 229.08L253.21 229.172C249.983 234.441 245.566 241.686 243.875 252.93C242.119 264.53 235.015 276.934 234.304 278.15C233.922 278.967 229.913 287.81 232.547 293.399H252.384C252.305 291.37 251.506 287.63 247.146 284.012C246.886 283.794 246.687 283.512 246.567 283.195C246.447 282.877 246.411 282.534 246.461 282.198C246.562 281.522 249.034 265.575 255.831 254.537C262.562 243.591 270.448 222.112 270.693 219.39C270.733 218.951 270.83 218.415 270.966 217.665C271.91 212.426 274.777 196.488 261.658 177.064C261.406 176.63 261.329 176.117 261.443 175.628C261.556 175.139 261.851 174.712 262.267 174.433C262.684 174.154 263.191 174.043 263.686 174.124C264.181 174.205 264.627 174.471 264.933 174.869C278.948 195.623 275.87 212.751 274.856 218.385C274.746 218.982 274.654 219.504 274.632 219.768C274.276 223.667 265.653 246.112 259.194 256.627C253.785 265.409 251.212 278.062 250.549 281.764C257.763 288.407 256.217 295.533 256.147 295.845C256.047 296.277 255.804 296.662 255.457 296.94C255.111 297.217 254.681 297.369 254.237 297.373Z" fill="#00ADE8"/>
<path d="M182.507 217.269C182.371 217.268 182.236 217.253 182.103 217.225C181.849 217.173 181.608 217.071 181.393 216.925C181.178 216.78 180.994 216.593 180.852 216.376C180.71 216.159 180.611 215.916 180.563 215.661C180.515 215.406 180.518 215.144 180.571 214.89C183.895 198.811 205.554 174.302 209.255 170.206C209.694 161.574 216.842 156.204 217.158 155.976C217.581 155.683 218.101 155.566 218.608 155.65C219.115 155.734 219.57 156.012 219.875 156.426C220.18 156.84 220.312 157.356 220.243 157.866C220.173 158.375 219.908 158.838 219.503 159.155C219.441 159.203 213.189 163.932 213.189 171.009C213.19 171.505 213.005 171.983 212.671 172.349C212.421 172.616 187.785 199.571 184.444 215.711C184.347 216.153 184.103 216.548 183.75 216.832C183.398 217.115 182.959 217.27 182.507 217.269Z" fill="#00ADE8"/>
<path d="M205.431 147.006C194.243 147.006 190.384 139.713 190.221 139.401C189.981 138.935 189.935 138.393 190.095 137.894C190.254 137.394 190.605 136.979 191.071 136.738C191.537 136.498 192.079 136.452 192.578 136.612C193.078 136.771 193.494 137.122 193.734 137.588C193.874 137.847 196.807 143.054 205.431 143.054H205.628C206.152 143.054 206.655 143.262 207.025 143.633C207.396 144.003 207.604 144.506 207.604 145.03C207.604 145.554 207.396 146.057 207.025 146.427C206.655 146.798 206.152 147.006 205.628 147.006H205.431Z" fill="#00ADE8"/>
<path d="M301.63 186.504C300.525 186.522 299.437 186.237 298.483 185.68C297.529 185.123 296.747 184.314 296.221 183.343L294.157 182.465C293.905 182.359 293.678 182.201 293.491 182.002C293.303 181.803 293.159 181.568 293.068 181.31C292.932 180.941 289.995 172.463 295.703 166.382L294.825 149.017H291.676C291.152 149.017 290.65 148.808 290.279 148.438C289.909 148.067 289.701 147.565 289.701 147.041C289.701 146.517 289.909 146.014 290.279 145.644C290.65 145.273 291.152 145.065 291.676 145.065H296.704C297.21 145.065 297.698 145.26 298.065 145.609C298.433 145.958 298.653 146.434 298.68 146.94L299.694 167.062C299.709 167.352 299.659 167.642 299.549 167.911C299.439 168.179 299.271 168.42 299.057 168.616C295.277 172.098 296.085 177.213 296.576 179.154L298.486 179.958C298.749 180.068 298.984 180.234 299.176 180.444C299.369 180.654 299.514 180.903 299.602 181.174C299.768 181.635 300.383 182.746 302.236 182.46C302.236 182.46 303.773 182.17 306.864 176.836C308.176 174.58 309.323 172.232 310.297 169.811C310.328 169.064 309.323 166.627 308.15 164.639C307.895 164.203 307.817 163.686 307.931 163.194C310.297 152.894 312.993 137.039 311.579 134.036C310.262 131.195 302.385 128.165 297.235 126.918C296.726 126.796 296.286 126.475 296.012 126.028C295.739 125.581 295.654 125.044 295.777 124.534C295.9 124.025 296.22 123.585 296.668 123.312C297.115 123.038 297.652 122.954 298.161 123.077C299.619 123.432 312.488 126.681 315.153 132.354C317.537 137.421 313.239 157.618 311.952 163.321C313.191 165.547 314.749 168.95 314.069 170.992C314.021 171.137 308.392 185.516 302.837 186.359C302.439 186.439 302.036 186.487 301.63 186.504Z" fill="#00ADE8"/>
<path d="M302.122 154.905C300.282 154.904 298.445 154.757 296.629 154.465C296.367 154.429 296.115 154.341 295.888 154.205C295.661 154.07 295.463 153.89 295.307 153.677C295.15 153.464 295.038 153.221 294.977 152.964C294.916 152.707 294.908 152.44 294.952 152.179C294.996 151.918 295.092 151.669 295.234 151.446C295.376 151.223 295.562 151.031 295.78 150.881C295.997 150.731 296.243 150.626 296.502 150.573C296.761 150.52 297.028 150.519 297.288 150.571C300.238 151.063 309.09 151.629 310.973 147.893C311.238 147.485 311.643 147.189 312.112 147.061C312.581 146.933 313.08 146.983 313.515 147.2C313.95 147.417 314.289 147.787 314.468 148.239C314.647 148.691 314.654 149.193 314.486 149.649C312.321 154.004 306.548 154.905 302.122 154.905Z" fill="#00ADE8"/>
<path d="M296.958 120.28C296.732 120.281 296.508 120.243 296.295 120.166C290.223 118.01 273.222 112.513 267.567 112.956C267.26 112.981 266.951 112.932 266.665 112.816C266.379 112.699 266.125 112.517 265.922 112.285C265.719 112.052 265.574 111.775 265.497 111.476C265.421 111.177 265.416 110.865 265.482 110.563C265.587 110.094 268.116 99.0159 275.945 94.0194C279.532 91.7318 283.619 91.082 288.098 92.0831C292.576 93.0841 295.795 95.3629 297.85 98.9062C302.486 106.91 298.996 118.405 298.846 118.892C298.721 119.295 298.471 119.647 298.131 119.897C297.791 120.147 297.38 120.281 296.958 120.28ZM270.022 109.075C277.459 109.755 290.504 114.01 295.562 115.731C296.265 112.412 297.187 105.633 294.425 100.878C292.928 98.3003 290.579 96.6845 287.237 95.9381C283.773 95.1653 280.774 95.6263 278.07 97.3519C273.552 100.228 271.102 105.865 270.022 109.075Z" fill="#00ADE8"/>
<path d="M276.669 137.917C274.84 137.933 273.052 137.377 271.554 136.328C265.627 132.205 265.161 119.814 265.297 113.887L261.346 115.34C261.127 115.423 260.895 115.464 260.661 115.463H241.926C241.402 115.463 240.899 115.255 240.529 114.885C240.158 114.514 239.95 114.011 239.95 113.487C239.95 112.963 240.158 112.461 240.529 112.09C240.899 111.72 241.402 111.512 241.926 111.512H260.31L266.707 109.145C267.017 109.03 267.352 108.995 267.68 109.043C268.007 109.091 268.318 109.221 268.582 109.42C268.847 109.619 269.057 109.882 269.193 110.184C269.33 110.486 269.388 110.817 269.363 111.147C268.836 118.071 269.569 130.146 273.789 133.101C275.22 134.097 277.003 134.246 279.084 133.54C284.427 131.744 290.061 125.088 292.445 117.733C292.607 117.235 292.96 116.821 293.427 116.583C293.894 116.345 294.436 116.302 294.934 116.464C295.433 116.626 295.846 116.979 296.084 117.446C296.322 117.913 296.365 118.455 296.203 118.954C293.402 127.564 286.882 135.107 280.34 137.307C279.157 137.706 277.917 137.912 276.669 137.917Z" fill="#00ADE8"/>
<path d="M255.115 115.454C254.757 115.456 254.405 115.36 254.097 115.177C253.789 114.993 253.536 114.729 253.367 114.414C253.197 114.098 253.116 113.742 253.134 113.384C253.151 113.026 253.265 112.679 253.464 112.381L261.697 99.8545C261.931 99.4953 262.276 99.2225 262.679 99.0774C263.083 98.9324 263.522 98.9231 263.932 99.051L266.671 99.8984L272.331 92.3992C272.516 92.1562 272.754 91.9593 273.027 91.8237C273.301 91.6881 273.602 91.6176 273.907 91.6176H276.485C277.009 91.6176 277.511 91.8258 277.882 92.1963C278.252 92.5669 278.46 93.0694 278.46 93.5934C278.46 94.1174 278.252 94.62 277.882 94.9905C277.511 95.3611 277.009 95.5692 276.485 95.5692H274.891L268.99 103.385C268.745 103.708 268.406 103.949 268.02 104.074C267.633 104.199 267.218 104.202 266.829 104.083L264.195 103.266L256.784 114.55C256.603 114.828 256.356 115.057 256.065 115.215C255.773 115.373 255.447 115.455 255.115 115.454Z" fill="#00ADE8"/>
<path d="M288.783 127.015C288.434 127.015 288.091 126.923 287.788 126.748C287.486 126.573 287.236 126.321 287.062 126.018L285.797 123.823L283.975 125.096C283.729 125.27 283.446 125.385 283.148 125.432C282.851 125.479 282.546 125.457 282.258 125.369C279.895 124.61 277.62 123.602 275.47 122.361C271.313 119.872 273.205 113.58 273.433 112.89C273.594 112.391 273.947 111.977 274.414 111.738C274.881 111.499 275.424 111.456 275.923 111.617C276.422 111.778 276.836 112.131 277.075 112.598C277.314 113.065 277.357 113.608 277.196 114.107C276.757 115.481 276.401 118.313 277.503 118.976C279.103 119.899 280.784 120.673 282.526 121.285L285.306 119.345C285.53 119.186 285.785 119.077 286.054 119.023C286.324 118.969 286.601 118.972 286.869 119.032C287.137 119.092 287.39 119.208 287.61 119.371C287.831 119.535 288.015 119.742 288.151 119.981L290.495 124.078C290.624 124.303 290.707 124.552 290.739 124.809C290.772 125.067 290.753 125.328 290.685 125.579C290.616 125.829 290.499 126.063 290.34 126.268C290.181 126.473 289.983 126.645 289.758 126.774C289.46 126.939 289.123 127.022 288.783 127.015Z" fill="#00ADE8"/>
</g>
</svg>
