<svg width="48" height="48" viewBox="0 0 48 48" fill="none" xmlns="http://www.w3.org/2000/svg">
<mask id="mask0" mask-type="alpha" maskUnits="userSpaceOnUse" x="0" y="0" width="48" height="48">
<rect width="48" height="48" fill="#C4C4C4"/>
</mask>
<g mask="url(#mask0)">
<path d="M46.6589 14.7371C54.6351 33.1709 25.0058 55.2773 11.2092 45.6792C-0.175866 37.7903 -5.34905 11.3274 7.64779 2.99142C18.53 -3.99902 41.0612 1.80809 46.6589 14.7371Z" fill="#00ADE8"/>
<path d="M30.9433 10.6331C30.9433 9.26806 27.2923 8.16211 22.7893 8.16211C18.2863 8.16211 14.6353 9.26806 14.6353 10.6331C14.6353 11.9981 18.2863 13.1041 22.7893 13.1041C27.2933 13.1041 30.9433 11.9981 30.9433 10.6331ZM30.9433 10.6331V22.9871M17.6313 20.4541C19.0363 20.8021 20.8323 21.0111 22.7893 21.0111C27.2923 21.0111 30.9433 19.9051 30.9433 18.5401M14.6363 14.5871C14.6363 15.9521 18.2873 17.0581 22.7903 17.0581C27.2933 17.0581 30.9443 15.9521 30.9443 14.5871M17.7173 32.3351C19.1093 32.6711 20.8723 32.8711 22.7903 32.8711M39.0973 25.4591C39.0973 24.0941 35.4463 22.9881 30.9433 22.9881C26.4403 22.9881 22.7893 24.0941 22.7893 25.4591M39.0973 25.4591C39.0973 26.8231 35.4463 27.9301 30.9433 27.9301C26.4403 27.9301 22.7893 26.8241 22.7893 25.4591M39.0973 25.4591V33.3661C39.0973 34.7311 35.4463 35.8371 30.9433 35.8371C26.4403 35.8371 22.7893 34.7311 22.7893 33.3661V25.4591M22.7893 29.4121C22.7893 30.7771 26.4403 31.8831 30.9433 31.8831C35.4463 31.8831 39.0973 30.7771 39.0973 29.4121M20.0913 28.7791C20.9363 28.8691 21.8443 28.9181 22.7903 28.9181L20.0913 28.7791ZM20.2753 24.8451C21.0673 24.9231 21.9123 24.9651 22.7893 24.9651L20.2753 24.8451ZM14.6363 10.6331V18.7931V18.9031V10.6331ZM20.4433 26.4671C20.4433 22.2291 17.0083 18.7941 12.7703 18.7941C8.53229 18.7941 5.09729 22.2291 5.09729 26.4671C5.09729 30.7051 8.53229 34.1401 12.7703 34.1401C17.0083 34.1401 20.4433 30.7051 20.4433 26.4671Z" stroke="white" stroke-miterlimit="10" stroke-linecap="round" stroke-linejoin="round"/>
</g>
</svg>
