<svg width="134" height="122" viewBox="0 0 134 122" fill="none" xmlns="http://www.w3.org/2000/svg">
<path d="M77.2585 0.15887C32.3901 -3.50318 -10.6751 68.4799 2.68187 97.0862C16.0389 125.692 115.771 130.968 129.507 103.954C143.242 76.9394 122.127 3.82092 77.2585 0.15887Z" fill="white"/>
<path d="M126.828 82.2169L102.039 92.3949L104.641 41.6701C102.965 39.0567 89.7325 46.6985 89.7325 46.6985C87.3852 44.2673 85.321 41.5779 83.5794 38.6818C82.9149 37.425 81.9882 36.3256 80.8619 35.4581C79.7356 34.5905 78.4361 33.9751 77.0513 33.6534C79.6648 32.7161 80.9659 28.989 80.0396 24.137C79.1134 19.2851 77.2388 17.9949 73.3242 19.1087C69.4095 20.2224 68.4833 32.3412 68.4833 32.3412L60.654 35.7045L67.3916 9.55919C86.4354 7.12219 101.024 17.0687 112.746 31.018C122.34 42.5192 128.57 64.4632 126.828 82.2169ZM118.844 102.716C122.124 99.0142 124.422 94.5476 125.526 89.7263L67.7334 114.714C86.9868 115.375 108.942 113.28 118.844 102.716ZM12.0244 72.6122C12.6411 72.8787 13.1991 73.2642 13.6665 73.7468C14.1339 74.2293 14.5015 74.7993 14.7481 75.4241L39.5371 62.0041C39.5371 62.0041 42.1505 45.9707 47.1789 39.8286L55.5705 36.4653L60.0475 22.1301L62.0986 21.3803L65.6493 9.83487C62.0966 10.433 58.6103 11.3747 55.2397 12.6468C35.8761 19.8695 13.9872 47.8674 12.0244 72.6122ZM80.3925 93.3212L40.0112 112.067C41.0257 112.299 42.0623 112.497 43.143 112.652C46.4511 113.115 50.498 113.589 54.9089 113.986L75.8604 104.381L80.3925 93.3212ZM59.6726 62.0041C62.0986 50.4477 61.878 45.7943 61.878 45.7943H58.5699L57.0592 55.829L55.0081 56.7663L53.332 72.2042C53.332 72.2042 49.0425 75.5124 44.5765 75.9314C44.6543 73.1538 45.3552 70.4291 46.6275 67.9588C48.8329 63.1179 50.7296 58.4534 50.5421 53.2376L53.5195 51.4181L54.2693 45.8274C54.2693 45.8274 42.4923 47.4263 43.595 63.7575L16.1927 78.0927C16.1927 78.0927 15.8619 83.5401 13.3036 86.7049C13.9817 89.0117 14.9253 91.232 16.1155 93.3212C19.5845 100.06 25.0386 105.572 31.7409 109.112L39.4599 106.102C39.4599 106.102 41.511 93.9717 48.039 86.9034C54.5671 79.835 57.2466 73.5606 59.6726 62.0041ZM66.5756 6.86857L65.6493 9.83487C66.2227 9.73562 66.752 9.65843 67.3474 9.58124L68.0642 6.82446L66.5756 6.86857ZM84.2851 101.15L100.131 93.3212L102.039 47.0955C102.039 47.0955 90.8463 51.9364 89.7325 52.3113C88.6188 52.6862 79.9845 45.7943 79.9845 45.7943C79.9845 45.7943 77.7791 55.4871 73.269 62.0041C73.269 62.0041 92.8421 69.0946 91.9159 74.8728C90.9896 80.651 84.2851 101.15 84.2851 101.15ZM57.2466 88.1053C51.0935 94.4459 46.6275 98.9229 46.0651 102.838H51.8433L80.3704 90.013C80.3704 90.013 84.4726 79.2064 82.0466 76.9679C79.6206 74.7294 67.1269 71.7411 67.1269 71.7411C67.1269 71.7411 63.4439 81.7647 57.2466 88.1053Z" fill="#00ADE8"/>
</svg>
