<svg width="40" height="40" viewBox="0 0 40 40" fill="none" xmlns="http://www.w3.org/2000/svg">
<mask id="mask0" mask-type="alpha" maskUnits="userSpaceOnUse" x="0" y="0" width="40" height="40">
<rect width="40" height="40" fill="#C4C4C4"/>
</mask>
<g mask="url(#mask0)">
<path d="M30.6059 4.71727C36.6751 10.6247 38.357 17.4606 37.1194 23.3934C35.8787 29.3415 31.6964 34.4214 25.9545 36.7921C21.5857 38.5959 15.742 36.9351 10.9238 33.2021C6.12057 29.4807 2.50002 23.8186 2.50002 17.8805C2.50004 15.1552 3.80187 12.5632 5.92503 10.2912C8.04738 8.02013 10.9624 6.1013 14.1044 4.73778C17.2464 3.37424 20.5865 2.57851 23.5454 2.52868C26.5154 2.47867 29.0259 3.17938 30.6059 4.71727L30.9544 4.35918L30.6059 4.71727Z" stroke="#00ADE8"/>
<mask id="mask1" mask-type="alpha" maskUnits="userSpaceOnUse" x="6" y="4" width="28" height="29">
<rect x="6.5" y="4.66602" width="27" height="27" fill="#C4C4C4" stroke="#00ADE8"/>
</mask>
<g mask="url(#mask1)">
<path d="M29.694 27.447C29.342 28.448 28.392 29.166 27.271 29.166C26.15 29.166 25.199 28.447 24.848 27.447C24.496 28.448 23.546 29.166 22.425 29.166C21.304 29.166 20.353 28.447 20.002 27.447M10.306 27.447C10.658 28.448 11.608 29.166 12.729 29.166C13.85 29.166 14.801 28.447 15.152 27.447C15.504 28.448 16.454 29.166 17.575 29.166C18.696 29.166 19.647 28.447 19.998 27.447M20 27.447V14.104M20 14.104L10.75 19.631L12.708 29.166M20 14.104L29.249 19.631L27.291 29.166M20 14.104H27.742V18.73L20 14.104ZM20 14.104H12.258V18.73L20 14.104ZM20.991 10.14V7.16602H19.009V10.14M26.188 14.104V12.122H13.812V14.104H26.188ZM24.625 12.122V10.14H15.375V12.122H24.625Z" stroke="#00ADE8" stroke-miterlimit="10" stroke-linecap="round" stroke-linejoin="round"/>
</g>
</g>
</svg>
