<svg width="40" height="40" viewBox="0 0 40 40" fill="none" xmlns="http://www.w3.org/2000/svg">
<mask id="mask0" mask-type="alpha" maskUnits="userSpaceOnUse" x="0" y="0" width="40" height="40">
<rect width="40" height="40" fill="#C4C4C4"/>
</mask>
<g mask="url(#mask0)">
<path d="M35.3043 9.41561C29.3969 3.34639 22.561 1.66449 16.6282 2.90205C10.6801 4.14283 5.60024 8.32507 3.22946 14.067C1.42566 18.4358 3.08649 24.2795 6.81949 29.0977C10.5409 33.9009 16.203 37.5215 22.1411 37.5215C24.8664 37.5214 27.4584 36.2196 29.7304 34.0965C32.0015 31.9741 33.9203 29.0591 35.2838 25.9171C36.6474 22.7751 37.4431 19.435 37.4929 16.4761C37.5429 13.5061 36.8422 10.9956 35.3043 9.41561L35.6624 9.06708L35.3043 9.41561Z" stroke="#00ADE8"/>
<mask id="mask1" mask-type="alpha" maskUnits="userSpaceOnUse" x="5" y="3" width="29" height="29">
<rect x="6.40271" y="4.23047" width="27" height="27" fill="#C4C4C4" stroke="#00ADE8"/>
</mask>
<g mask="url(#mask1)">
<path d="M9.1228 29.3702C11.0848 24.9422 19.3978 23.8572 24.5178 18.0482C29.6378 12.2392 29.6728 7.37018 29.6728 7.37018M23.3218 14.1822L23.9248 18.6842M18.9708 22.4152L23.3218 23.3362M30.3418 20.5212C28.8258 25.6922 23.9378 28.6792 20.8128 28.6792C20.8088 28.6792 20.8038 28.6782 20.7998 28.6782C20.5168 28.7082 20.2298 28.7262 19.9388 28.7262C15.7598 28.7262 12.3368 25.5152 11.9878 21.4262C11.9688 21.2562 11.9628 21.0762 11.9608 20.8932C11.9598 20.8422 11.9528 20.7922 11.9528 20.7412C11.9528 20.3052 11.9968 19.8812 12.0648 19.4642C12.0768 19.3862 12.0868 19.3072 12.1008 19.2292C12.1188 19.1362 12.1398 19.0452 12.1608 18.9532C12.4518 17.6022 13.0708 16.2742 14.1588 15.1702C14.5648 14.7582 15.0038 14.4172 15.4648 14.1252C16.3808 13.5042 17.4338 13.0772 18.5668 12.8802C20.8908 12.3162 23.3008 12.2722 24.9918 11.5582C27.8448 10.3542 29.6728 7.36719 29.6728 7.36719C29.6728 7.36719 31.8578 15.3492 30.3418 20.5212Z" stroke="#00ADE8" stroke-miterlimit="10" stroke-linecap="round" stroke-linejoin="round"/>
</g>
</g>
</svg>
