<svg width="48" height="48" viewBox="0 0 48 48" fill="none" xmlns="http://www.w3.org/2000/svg">
<mask id="mask0" mask-type="alpha" maskUnits="userSpaceOnUse" x="0" y="0" width="48" height="48">
<rect width="48" height="48" fill="#C4C4C4"/>
</mask>
<g mask="url(#mask0)">
<path d="M9.39413 44.8688C-7.09702 28.8172 0.0876851 7.49831 15.8057 1.00855C28.0902 -4.0636 48 10.4729 48 26.8411C47.9999 42.2603 18.5403 53.7712 9.39413 44.8688Z" fill="#00ADE8"/>
<path d="M12.8225 36.9604V31.2055C12.8225 29.2985 14.1345 27.6425 15.9915 27.2065L20.8305 26.0704C21.3495 26.0704 21.7705 25.6495 21.7705 25.1305V23.5545C19.2385 22.6405 17.4255 20.2225 17.4255 17.3755V14.5164C17.4255 10.8174 20.4795 7.83246 24.2035 7.94446C27.8025 8.05246 30.5765 11.1925 30.5765 14.7925V17.3755C30.5765 20.2225 28.7635 22.6405 26.2315 23.5545V25.1305C26.2315 25.6495 26.6525 26.0704 27.1715 26.0704L32.0105 27.2065C33.8665 27.6425 35.1795 29.2985 35.1795 31.2055V36.9604M17.3615 17.5765C16.6895 16.8885 15.7795 16.4455 14.7565 16.4155C12.5455 16.3495 10.7315 18.1215 10.7315 20.3185V22.0164C10.7315 23.7074 11.8085 25.1425 13.3115 25.6855V26.6215C13.3115 26.9295 13.0615 27.1795 12.7535 27.1795L9.88051 27.8535C8.77851 28.1115 7.99951 29.0955 7.99951 30.2275V33.6445M30.5675 17.6505C31.2455 16.9205 32.1835 16.4475 33.2425 16.4155C35.4535 16.3495 37.2675 18.1215 37.2675 20.3185V22.0164C37.2675 23.7074 36.1905 25.1425 34.6875 25.6855V26.6215C34.6875 26.9295 34.9375 27.1795 35.2455 27.1795L38.1185 27.8535C39.2205 28.1125 40.0005 29.0955 40.0005 30.2275V33.6445" stroke="white" stroke-miterlimit="10" stroke-linecap="round" stroke-linejoin="round"/>
</g>
</svg>
