<svg width="100" height="101" viewBox="0 0 100 101" fill="none" xmlns="http://www.w3.org/2000/svg">
<mask id="mask0" mask-type="alpha" maskUnits="userSpaceOnUse" x="0" y="0" width="100" height="101">
<rect y="0.835938" width="100" height="100" fill="#C4C4C4"/>
</mask>
<g mask="url(#mask0)">
<path d="M66.7186 70.4986V72.6413L70.7929 74.1892L70.4085 70.4986H66.7186ZM90.4497 29.3059L88.8624 22.9563L87.8308 22.6519C88.5304 24.8573 89.0627 27.1435 89.4864 29.4216L90.4497 29.3059ZM70.1711 77.6418C67.076 75.7372 65.8201 73.4349 65.8201 73.4349L65.6534 68.832C67.684 64.3871 65.6861 61.2126 65.21 58.6723C64.7338 56.1328 65.8449 54.3861 66.1623 52.4815C66.4797 50.5768 65.21 49.1476 65.21 49.1476C69.1787 46.3699 72.9087 46.4493 72.9087 46.4493L73.3849 50.5732C73.3849 50.5732 71.2421 58.9498 70.7929 62.2829C70.3429 65.6161 74.4566 67.8782 75.0522 69.9023C75.6478 71.9264 71.719 70.974 71.719 70.974L72.4333 74.3079L76.4814 76.0939C76.7188 77.8792 73.2662 79.5465 70.1711 77.6418ZM86.1642 26.4489L79.3384 25.4965C79.3384 25.4965 76.4814 35.4968 71.8777 38.6719L65.2107 40.1004L64.0996 34.0683C64.0996 34.0683 63.4648 40.2591 63.7822 42.0051L72.3539 40.2591L76.9568 36.926L78.8615 41.3702L75.3696 45.3382L73.9411 44.0685L61.4014 48.0365C61.4014 48.0365 59.1793 46.9255 59.0205 44.7034C58.8618 42.4813 57.4333 35.6555 57.4333 35.6555L57.1159 42.6953C57.1159 42.6953 52.1948 43.9097 50.7663 47.4016C49.3378 50.8935 48.2267 52.322 48.2267 52.322C48.2267 52.322 32.3531 61.2112 30.7658 63.5927L29.8135 67.2725L21.5214 71.2653C27.0774 75.6578 32.0546 78.2294 32.2213 78.3779L41.3019 84.6147C41.3019 84.6147 67.8347 106.55 82.9031 89.0829C97.9744 71.6162 92.7424 55.1652 91.1748 42.0218C90.7314 38.3123 90.3179 33.8848 89.4879 29.4216L86.4831 29.782L86.1642 26.4489ZM18.2829 68.5357C18.8231 66.7366 20.0215 64.0165 22.3521 63.9102C25.844 63.7514 27.9081 62.0055 27.9081 62.0055L34.099 52.4815L39.1788 50.836C39.1788 50.836 47.2744 36.7665 53.9414 31.5287C60.6085 26.2902 63.3068 24.8617 63.3068 24.8617C63.3068 24.8617 65.5289 18.1946 68.704 16.4487C71.8792 14.7027 75.2124 14.7027 74.7362 18.0359C74.26 21.3691 73.4664 25.814 73.4664 25.814L76.4829 19.3057L87.8329 22.6527C85.0473 13.8676 79.6049 6.36982 67.7604 5.88201C47.1135 5.03161 16.6949 15.955 7.74388 38.586C2.89194 50.8469 10.3555 61.3874 18.2829 68.5357Z" fill="#00ADE8"/>
</g>
</svg>
