<svg width="100" height="101" viewBox="0 0 100 101" fill="none" xmlns="http://www.w3.org/2000/svg">
<mask id="mask0" mask-type="alpha" maskUnits="userSpaceOnUse" x="0" y="0" width="100" height="101">
<rect y="0.835938" width="100" height="100" fill="#F57E1F"/>
</mask>
<g mask="url(#mask0)">
<path d="M64.8268 31.8783C64.8268 31.8783 63.9759 52.6567 69.3227 67.3602C74.6695 82.0629 73.9405 84.9796 73.9405 84.9796L82.9152 91.4441C84.6511 90.5724 86.3209 89.5714 87.903 88.427C104.814 76.1885 94.8772 39.5599 84.6868 21.0383C81.4512 22.5907 75.4966 25.5275 71.9965 27.7472C67.0146 30.9063 64.8268 31.8783 64.8268 31.8783ZM48.9693 50.8487C48.4231 55.0875 47.087 60.1913 47.087 60.1913L62.1545 76.3527C62.1545 76.3527 58.6307 66.241 57.9016 56.3508C57.9009 56.3501 49.5155 46.6099 48.9693 50.8487ZM26.2386 81.698C35.6674 90.4245 49.0235 95.5424 61.994 95.8359C57.5078 92.2838 43.7295 81.1087 32.5046 69.1823C18.8951 54.7226 13.4272 45.609 21.69 40.7482C29.9528 35.8874 40.6411 52.413 40.6411 52.413L43.9265 41.3553C43.9265 41.3553 45.5063 38.6823 48.4224 40.9912C51.3384 43.3001 56.0773 46.5802 56.0773 46.5802L51.5814 41.4772L50.9735 35.4014L39.5517 32.3635L31.2889 23.9789L26.307 23.371C26.307 23.371 25.335 21.0621 27.765 20.455C30.195 19.8471 32.5039 20.455 32.5039 20.455L43.6827 26.7737L51.8236 27.9888C51.8236 27.9888 49.6322 23.857 49.9985 21.3058C50.3649 18.754 51.2158 16.3239 55.5905 15.7161C59.9653 15.1082 59.4785 25.4369 59.4785 25.4369C59.4785 25.4369 71.9942 22.0348 73.5741 21.184C74.6732 20.5917 79.3006 18.1647 82.0153 16.7423C70.8298 1.59969 48.4097 4.12333 25.8195 12.8365C6.68927 20.2149 3.32069 34.9979 3.32069 34.9979C1.10173 47.9216 9.98948 66.6587 26.2386 81.698Z" fill="#F57E1F"/>
</g>
</svg>
