<svg width="40" height="40" viewBox="0 0 40 40" fill="none" xmlns="http://www.w3.org/2000/svg">
<mask id="mask0" mask-type="alpha" maskUnits="userSpaceOnUse" x="0" y="0" width="40" height="40">
<rect width="40" height="40" fill="#C4C4C4"/>
</mask>
<g mask="url(#mask0)">
<path d="M36.672 28.7931C34.8531 32.7726 30.6035 36.2057 25.4354 37.6663C20.2834 39.1224 14.2635 38.6042 8.9134 34.7438C6.30602 32.8625 4.84402 29.9439 4.31245 26.5468C3.78039 23.1466 4.18765 19.2986 5.29253 15.6339C6.39721 11.9699 8.19004 8.51988 10.3979 5.9127C12.6106 3.29981 15.1998 1.57828 17.8933 1.26461C20.5916 0.950397 23.3418 1.96357 25.9211 3.85661C28.4985 5.74827 30.8655 8.4913 32.7722 11.548C34.6782 14.6036 36.1095 17.9491 36.8314 21.0279C37.5571 24.1227 37.549 26.8737 36.672 28.7931ZM36.672 28.7931L37.1268 29.001L36.672 28.7931Z" stroke="#00ADE8"/>
<path d="M18.406 26.5209H21.596M21.596 26.5209V30.3349H18.406V26.5209H8.92395L14.462 19.9429H11.305L16.7459 13.3649H14.3309L20 6.33594L25.669 13.3649H23.254L28.695 19.9429H25.5379L31.076 26.5209H21.596ZM18.545 19.9429H25.54H18.545ZM18.406 13.3649H16.7469H18.406Z" stroke="#00ADE8" stroke-miterlimit="10" stroke-linecap="round" stroke-linejoin="round"/>
</g>
</svg>
