<svg width="136" height="125" viewBox="0 0 136 125" fill="none" xmlns="http://www.w3.org/2000/svg">
<path d="M5.05584 32.0944C25.2937 -1.5777 84.9348 -7.73553 109.324 8.85834C136.181 27.1243 151.46 108.029 107.018 122.225C57.6973 138.069 -18.3878 71.1978 5.05584 32.0944Z" fill="white"/>
<path d="M82.9738 115.382C67.3717 115.025 51.2968 108.884 39.9498 98.4186C20.4039 80.3286 9.66796 57.8799 12.3779 42.3775C12.3779 42.3775 16.4254 24.644 39.4539 15.7887C66.6337 5.32343 93.6521 2.29884 107.063 20.4694C103.8 22.1829 98.2302 25.0695 96.9156 25.8055C95.0013 26.8175 80.0103 30.8772 80.0103 30.8772C80.0103 30.8772 80.5868 18.4913 75.3284 19.2158C70.0701 19.9403 69.0438 22.8614 68.6056 25.9205C68.1674 28.9796 70.7966 33.9708 70.7966 33.9708L60.9948 32.5102L47.549 24.9315C45.6747 24.5008 43.7268 24.5008 41.8525 24.9315C41.4854 25.0032 41.1395 25.1573 40.8408 25.382C40.5422 25.6067 40.2987 25.8961 40.1287 26.2285C39.9588 26.5608 39.8669 26.9274 39.8598 27.3004C39.8528 27.6734 39.9309 28.0431 40.0882 28.3816L46.0845 29.1061L56.0247 39.1689L69.7703 42.8145L70.5083 50.1057L75.9166 56.2354C75.9166 56.2354 70.1508 52.2908 66.6913 49.5192C63.2319 46.7476 61.2831 49.9562 61.2831 49.9562L57.3277 63.2276C57.3277 63.2276 44.424 43.447 34.4839 49.2777C24.5437 55.1084 31.1167 66.0452 47.4915 83.3992C60.9949 97.7056 77.5771 111.115 82.9738 115.382ZM110.281 25.6215C106.383 27.4846 99.2218 31.0152 95.0128 33.6717C92.2466 35.5058 89.3656 37.1614 86.3873 38.6284C86.3873 38.6284 85.3609 63.5726 91.7955 81.1796C98.2301 98.7866 97.3076 102.352 97.3076 102.352L108.101 110.114C110.193 109.067 112.198 107.856 114.098 106.492C134.497 91.8289 122.539 47.8517 110.281 25.6215ZM67.3256 61.399C66.7591 65.1752 65.9893 68.9182 65.0193 72.6119L83.1584 92.0014C80.5476 84.2197 78.83 76.1679 78.0385 68.0002C78.0385 68.0002 67.9599 56.3159 67.3256 61.399Z" fill="#00ADE8"/>
</svg>
