<svg width="100" height="101" viewBox="0 0 100 101" fill="none" xmlns="http://www.w3.org/2000/svg">
<mask id="mask0" mask-type="alpha" maskUnits="userSpaceOnUse" x="0" y="0" width="100" height="101">
<rect y="0.835938" width="100" height="100" fill="#00ADE8"/>
</mask>
<g mask="url(#mask0)">
<path d="M39.845 73.8314C34.7175 79.1142 30.989 82.8428 30.5229 86.1059H35.339L59.1105 75.3857C59.1105 75.3857 62.5284 66.3743 60.5087 64.5093C58.4891 62.6451 48.0788 60.1594 48.0788 60.1594C48.0788 60.1594 44.9724 68.5493 39.845 73.8314ZM62.3737 84.7077L75.5804 78.1821L77.1339 39.6503C77.1339 39.6503 67.8119 43.6895 66.8797 44.0009C65.9476 44.3116 58.8005 38.5628 58.8005 38.5628C58.8005 38.5628 56.9363 46.6427 53.207 52.0802C53.207 52.0802 69.5208 57.9844 68.744 62.8004C67.9672 67.6165 62.3737 84.7077 62.3737 84.7077ZM47.6135 6.08984L46.8424 8.59551C47.3199 8.51712 47.7931 8.44728 48.2634 8.3867L48.8563 6.08984H47.6135ZM41.8653 52.0802C43.8849 42.4474 43.7296 38.5628 43.7296 38.5628H40.9332L39.6896 46.9527L37.9807 47.7295L36.5825 60.6254C36.5825 60.6254 33.0086 63.4218 29.2801 63.7333C29.2801 63.7333 29.1247 61.0915 30.989 57.0522C32.8533 53.013 34.4075 49.1284 34.2515 44.7777L36.7372 43.2242L37.3586 38.5628C37.3586 38.5628 27.5704 39.9296 28.5026 53.5404L5.66314 65.4422C5.66314 65.4422 5.38378 69.9796 3.2537 72.6206C3.82167 74.5191 4.5956 76.3506 5.59686 78.0923C5.59686 78.0923 9.37386 86.4551 18.619 91.2548C21.5935 90.111 25.0848 88.7477 25.0848 88.7477C25.0848 88.7477 26.7937 78.6489 32.2318 72.7446C37.67 66.8397 39.845 61.7129 41.8653 52.0802ZM59.1112 78.1821L25.461 93.759C26.3012 93.9514 27.1664 94.1167 28.0679 94.2415C30.8586 94.627 34.1966 95.0246 37.8731 95.3525L55.382 87.3495L59.1112 78.1821ZM2.15552 60.9226C2.90593 61.1721 3.7048 61.8355 4.42029 63.2658L25.0848 52.0794C25.0848 52.0794 27.2597 38.7174 31.4551 33.59L38.4468 30.7936L42.176 18.8297L43.8849 18.2083L46.8431 8.59479C44.0645 9.05302 41.1783 9.8141 38.1688 10.9365C22.0254 16.9598 3.79032 40.2974 2.15552 60.9226ZM91.1801 86.0119C93.8318 83.182 95.6469 79.4442 96.7473 75.1826L48.5841 96.0081C64.6264 96.5176 82.927 94.8173 91.1801 86.0119ZM48.2641 8.3867L42.6421 30.1721L49.1678 27.375C49.1678 27.375 49.9445 17.2762 53.207 16.344C56.4695 15.4119 58.0238 16.4994 58.8005 20.5394C59.5773 24.5786 58.4898 27.6865 56.3148 28.4632C56.3148 28.4632 59.5773 28.9293 61.753 32.6585C63.928 36.3871 66.8805 39.3396 66.8805 39.3396C66.8805 39.3396 77.9114 32.9693 79.3096 35.1442L77.1347 77.4053L97.8312 68.9277C99.2864 54.1254 94.0969 35.8398 86.0626 26.2747C76.2909 14.6415 64.1311 6.35425 48.2641 8.3867Z" fill="#00ADE8"/>
</g>
</svg>
