<svg width="135" height="125" viewBox="0 0 135 125" fill="none" xmlns="http://www.w3.org/2000/svg">
<path d="M4.70501 32.0944C24.9428 -1.5777 84.5839 -7.73553 108.973 8.85834C135.83 27.1243 151.109 108.029 106.667 122.225C57.3465 138.069 -18.7386 71.1978 4.70501 32.0944Z" fill="white"/>
<path d="M82.6228 115.382C67.0206 115.025 50.9457 108.884 39.5987 98.4187C20.0528 80.3286 9.31689 57.88 12.0268 42.3776C12.0268 42.3776 16.0743 24.644 39.1028 15.7888C66.2826 5.32349 93.301 2.2989 106.712 20.4694C103.449 22.183 97.8791 25.0696 96.5645 25.8056C94.6503 26.8176 79.6592 30.8772 79.6592 30.8772C79.6592 30.8772 80.2357 18.4914 74.9774 19.2159C69.719 19.9404 68.6927 22.8615 68.2545 25.9206C67.8163 28.9797 70.4456 33.9708 70.4456 33.9708L60.6438 32.5103L47.198 24.9316C45.3237 24.5008 43.3758 24.5008 41.5015 24.9316C41.1343 25.0033 40.7884 25.1573 40.4898 25.382C40.1911 25.6067 39.9476 25.8962 39.7776 26.2285C39.6077 26.5609 39.5158 26.9274 39.5088 27.3004C39.5017 27.6735 39.5798 28.0432 39.7371 28.3817L45.7334 29.1062L55.6736 39.169L69.4192 42.8146L70.1573 50.1058L75.5655 56.2355C75.5655 56.2355 69.7997 52.2908 66.3403 49.5193C62.8808 46.7477 60.932 49.9563 60.932 49.9563L56.9767 63.2276C56.9767 63.2276 44.073 43.4471 34.1328 49.2778C24.1926 55.1084 30.7656 66.0452 47.1404 83.3992C60.6438 97.7056 77.226 111.115 82.6228 115.382ZM109.929 25.6216C106.032 27.4846 98.8708 31.0152 94.6618 33.6718C91.8955 35.5058 89.0145 37.1614 86.0362 38.6284C86.0362 38.6284 85.0098 63.5727 91.4444 81.1797C97.879 98.7867 96.9565 102.352 96.9565 102.352L107.75 110.114C109.842 109.067 111.847 107.856 113.746 106.492C134.146 91.829 122.188 47.8517 109.929 25.6216ZM66.9746 61.3991C66.4081 65.1753 65.6382 68.9183 64.6682 72.6119L82.8073 92.0015C80.1965 84.2198 78.4789 76.168 77.6874 68.0003C77.6874 68.0003 67.6088 56.316 66.9746 61.3991Z" fill="#00ADE8"/>
</svg>
