<svg width="122" height="125" viewBox="0 0 122 125" fill="none" xmlns="http://www.w3.org/2000/svg">
<path d="M99.0201 4.11202C72.0159 -9.7051 0.00488281 21.6985 0.00488281 57.8053C0.00488281 93.9121 73.1411 141.304 103.667 118.891C131.639 98.3453 123.526 16.669 99.0201 4.11202Z" fill="white"/>
<path d="M107.765 29.2029L94.1535 25.248L90.5254 33.0564C90.5254 33.0564 91.4831 27.7156 92.0578 23.7156C92.6324 19.7156 88.6775 19.7156 84.8127 21.8114C80.9479 23.9071 78.3338 31.9522 78.3338 31.9522C78.3338 31.9522 75.1 33.6649 67.0662 39.9522C59.0324 46.2395 49.4437 63.0283 49.4437 63.0283L43.3479 65.0001L35.9226 76.4254C33.98 77.8374 31.653 78.6236 29.2522 78.679C26.4578 78.8029 25.0155 82.0592 24.3733 84.2339C14.8521 75.648 5.89441 63.0057 11.7198 48.2902C22.4015 21.1691 58.9085 8.05361 83.6859 9.07896C97.8944 9.66488 104.43 18.6564 107.765 29.2029ZM101.849 108.921C83.8212 129.879 51.9338 103.558 51.9338 103.558L41.0381 96.0761C36.5453 93.5601 32.2512 90.7048 28.193 87.5353L38.1761 82.7128L39.3029 78.2959C41.2071 75.4452 60.2493 64.7747 60.2493 64.7747C61.5053 62.9393 62.5308 60.9563 63.3029 58.8705C65.0155 54.679 70.9198 53.2367 70.9198 53.2367L71.3028 44.786C71.3028 44.786 73.0155 52.9776 73.2071 55.6367C73.3341 56.4836 73.6596 57.2885 74.157 57.9856C74.6543 58.6827 75.3095 59.2524 76.0691 59.648L91.1338 54.9043L92.8465 56.4254L97.038 51.6592L94.7845 46.3297L89.2634 50.3297L78.9761 52.4254C78.593 50.3297 79.3592 42.9043 79.3592 42.9043L80.6888 50.1381L88.6888 48.4254C94.2212 44.617 97.7028 32.6508 97.7028 32.6508L105.894 33.7776L106.277 37.7776L109.883 37.3494C110.875 42.7015 111.37 48.0198 111.9 52.4705C113.669 68.2226 119.945 87.9635 101.849 108.921ZM94.1535 93.3381L89.2972 91.186L88.4296 87.2198C88.4296 87.2198 93.1507 88.3466 92.4296 85.9353C91.7085 83.524 86.7958 80.7973 87.3254 76.7973C87.8549 72.7973 90.4352 62.7466 90.4352 62.7466L89.8606 57.7888C86.5298 57.9443 83.3176 59.0725 80.6212 61.0339C81.0736 61.5875 81.4072 62.2284 81.601 62.9166C81.7949 63.6048 81.8449 64.3255 81.7479 65.0339C81.3648 67.2874 80.0352 69.417 80.6212 72.4592C81.2071 75.5015 83.5958 79.3212 81.162 84.6508L81.3536 90.1719C82.6822 92.2433 84.4912 93.9633 86.6268 95.186C90.2888 97.4733 94.4352 95.479 94.1535 93.3381ZM109.004 29.5635L107.765 29.2029C108.599 31.8665 109.265 34.5798 109.759 37.3269L110.886 37.1916L109.004 29.5635ZM82.4352 86.6226V89.1916L87.3254 91.0508L86.8634 86.6226H82.4352Z" fill="#00ADE8"/>
</svg>
