<svg width="100" height="101" viewBox="0 0 100 101" fill="none" xmlns="http://www.w3.org/2000/svg">
<mask id="mask0" mask-type="alpha" maskUnits="userSpaceOnUse" x="0" y="0" width="100" height="101">
<rect y="0.835938" width="100" height="100" fill="#F57E1F"/>
</mask>
<g mask="url(#mask0)">
<path d="M42.4685 69.1858L28.3882 88.121L20.57 91.4993C29.0436 96.3741 40.5786 96.717 51.6986 94.2318L52.2999 90.5491L50.1583 88.7282C50.1583 88.7282 50.8085 80.1098 50.1583 75.8615C49.508 71.6132 49.6297 68.9431 49.6297 68.9431L52.0571 66.1512L50.1583 59.232L48.658 61.2957C48.658 61.2957 48.7798 66.2722 47.9298 67.2431C47.0806 68.2141 42.9533 70.6415 42.9533 70.6415L42.4685 69.1858ZM48.7805 50.7502L46.1104 53.1635L47.4458 59.4755L50.1597 56.3199L48.7805 50.7502ZM60.9182 31.1938L59.4618 49.037L63.8311 43.4532L62.7384 40.6621L66.3802 30.3445C66.381 30.3438 62.7391 29.3728 60.9182 31.1938ZM13.9433 85.9356C14.6159 84.7293 15.8719 83.1444 17.8279 83.1444C20.9835 83.1444 26.3245 83.1444 26.3245 83.1444L41.9823 66.1512L40.8896 58.99L38.826 63.1166C38.826 63.1166 32.514 65.423 31.1793 68.0931C29.8439 70.7632 27.6592 76.8325 27.6592 76.8325L23.2899 77.3179L20.9835 80.717C20.9835 80.717 20.7408 78.1679 21.8335 75.7405C21.8335 75.7405 20.7408 72.9486 22.5617 71.0067C24.3826 69.0648 29.2374 64.452 29.2374 64.452C29.2374 64.452 28.5092 62.1456 30.6938 60.2037C32.8785 58.2618 35.3066 55.1062 35.3066 55.1062C35.3066 55.1062 38.4622 28.0381 40.0404 26.0962C41.6178 24.1543 46.4734 21.3624 46.4734 21.3624C46.4734 21.3624 46.803 14.8077 50.1583 13.3513C53.5136 11.8949 55.5772 10.6812 56.7909 13.3513C58.0046 16.0214 58.2473 18.6923 55.8199 24.5181L59.34 20.027L63.7093 19.6625C63.7093 19.6625 74.6334 25.1245 74.5124 27.7954C74.3906 30.4655 71.8422 34.3501 71.8422 34.3501C71.8422 34.3501 74.0269 38.7194 73.5414 40.2976C73.0559 41.8758 66.3802 47.7015 66.3802 47.7015L64.4383 46.1233L59.3408 52.0708C59.3408 52.0708 60.3117 57.4118 58.9763 63.8448C57.6409 70.2778 55.578 82.1735 55.578 82.1735C55.578 82.1735 57.0344 83.7516 56.5489 85.8146C56.0634 87.8782 54.9707 89.5774 54.9707 89.5774L54.7191 93.4865C65.4649 90.5751 75.5123 85.122 81.6268 78.712C96.6142 63 95.722 46.9199 88.0159 31.6948C80.3099 16.472 55.9699 0.918148 39.6863 7.1633C23.402 13.4085 12.2917 44.8094 7.9654 59.8459C3.63915 74.8816 13.4059 85.2645 13.4059 85.2645C13.5803 85.4946 13.7622 85.7151 13.9433 85.9356Z" fill="#F57E1F"/>
</g>
</svg>
