<svg width="60" height="61" viewBox="0 0 60 61" fill="none" xmlns="http://www.w3.org/2000/svg">
<mask id="mask0" mask-type="alpha" maskUnits="userSpaceOnUse" x="0" y="0" width="60" height="61">
<rect y="0.328125" width="60" height="60" fill="#C4C4C4"/>
</mask>
<g mask="url(#mask0)">
<path d="M48.2573 5.93593C68.8713 24.3304 59.8904 48.7574 40.2429 56.1916C24.8872 62.0019 4.10351e-05 45.3431 4.18549e-05 26.5878C0.00012655 8.91997 36.8246 -4.26592 48.2573 5.93593Z" fill="white"/>
<path d="M33.9446 27.9001V17.5918M26.3057 27.9001V17.5918V27.9001Z" stroke="#00ADE8" stroke-linecap="round" stroke-linejoin="round"/>
<path d="M17.574 41.9781C20.5829 41.9781 23.0221 39.5486 23.0221 36.5516C23.0221 33.5545 20.5829 31.125 17.574 31.125C14.5652 31.125 12.126 33.5545 12.126 36.5516C12.126 39.5486 14.5652 41.9781 17.574 41.9781Z" stroke="#00ADE8" stroke-linecap="round" stroke-linejoin="round"/>
<path d="M17.5747 39.1009C18.9889 39.1009 20.1353 37.959 20.1353 36.5505C20.1353 35.1419 18.9889 34 17.5747 34C16.1606 34 15.0142 35.1419 15.0142 36.5505C15.0142 37.959 16.1606 39.1009 17.5747 39.1009Z" stroke="#00ADE8" stroke-linecap="round" stroke-linejoin="round"/>
<path d="M42.7849 39.1009C44.1991 39.1009 45.3455 37.959 45.3455 36.5505C45.3455 35.1419 44.1991 34 42.7849 34C41.3708 34 40.2244 35.1419 40.2244 36.5505C40.2244 37.959 41.3708 39.1009 42.7849 39.1009Z" stroke="#00ADE8" stroke-linecap="round" stroke-linejoin="round"/>
<path d="M42.7845 41.9781C45.7934 41.9781 48.2325 39.5486 48.2325 36.5516C48.2325 33.5545 45.7934 31.125 42.7845 31.125C39.7756 31.125 37.3364 33.5545 37.3364 36.5516C37.3364 39.5486 39.7756 41.9781 42.7845 41.9781Z" stroke="#00ADE8" stroke-linecap="round" stroke-linejoin="round"/>
<path d="M47.8964 38.4291H52V18.5459C51.998 17.3748 51.5295 16.2523 50.6974 15.4249C49.8653 14.5975 48.7376 14.1328 47.5618 14.1328H12.4306C11.2555 14.1328 10.1286 14.5978 9.29768 15.4254C8.46679 16.253 8 17.3755 8 18.5459V32.3421C7.99993 33.6562 8.42682 34.9351 9.21687 35.9875C10.0069 37.04 11.1177 37.8095 12.3832 38.1811" stroke="#00ADE8" stroke-linecap="round" stroke-linejoin="round"/>
<path d="M22.6863 38.4297H37.6707" stroke="#00ADE8" stroke-linecap="round" stroke-linejoin="round"/>
<path d="M12.8823 17.3965H42.0415V25.0753C42.0415 25.8824 41.7196 26.6566 41.1465 27.2273C40.5735 27.7981 39.7963 28.1188 38.9859 28.1188H15.9379C15.1275 28.1188 14.3503 27.7981 13.7773 27.2273C13.2042 26.6566 12.8823 25.8824 12.8823 25.0753V17.3965Z" stroke="#00ADE8" stroke-linecap="round" stroke-linejoin="round"/>
<path d="M44.4407 25.0737C44.4407 25.8809 44.7626 26.655 45.3356 27.2258C45.9087 27.7966 46.6858 28.1172 47.4962 28.1172H52.0001V18.5469C51.9995 18.1585 51.9482 17.7717 51.8473 17.3965H44.4407V25.0737Z" stroke="#00ADE8" stroke-linecap="round" stroke-linejoin="round"/>
</g>
</svg>
