<svg width="370" height="320" viewBox="0 0 370 320" fill="none" xmlns="http://www.w3.org/2000/svg">
<mask id="mask0" mask-type="alpha" maskUnits="userSpaceOnUse" x="0" y="0" width="370" height="320">
<rect width="370" height="320" fill="#C4C4C4"/>
</mask>
<g mask="url(#mask0)">
<path d="M169.772 202.822C169.296 202.82 168.837 202.648 168.479 202.336C168.12 202.024 167.886 201.593 167.819 201.122C167.752 200.651 167.857 200.172 168.115 199.773C168.373 199.373 168.766 199.08 169.223 198.947C169.434 198.881 183.506 194.615 186.023 183.377C186.139 182.865 186.454 182.421 186.898 182.142C187.343 181.862 187.879 181.771 188.391 181.887C188.902 182.004 189.347 182.319 189.626 182.763C189.905 183.207 189.997 183.744 189.88 184.255C186.84 197.822 170.989 202.562 170.321 202.756C170.142 202.803 169.957 202.825 169.772 202.822Z" fill="#00ADE8"/>
<path d="M206.575 100.786C202.353 100.786 197.191 96.1646 196.097 95.1366C195.724 94.7754 195.509 94.2823 195.497 93.7636C195.484 93.2449 195.677 92.7422 196.032 92.3639C196.387 91.9857 196.877 91.7623 197.395 91.7418C197.914 91.7213 198.419 91.9055 198.803 92.2546C201.483 94.7632 205.455 97.2454 206.869 96.7973C208.214 96.3579 211.232 90.5587 213.204 84.6365C213.285 84.3887 213.414 84.1594 213.584 83.9617C213.754 83.7639 213.961 83.6017 214.194 83.4843C214.426 83.3669 214.68 83.2967 214.94 83.2776C215.2 83.2586 215.461 83.2911 215.708 83.3734C215.955 83.4556 216.184 83.5859 216.381 83.7568C216.577 83.9277 216.738 84.1358 216.854 84.3692C216.97 84.6025 217.039 84.8565 217.057 85.1165C217.074 85.3765 217.04 85.6374 216.956 85.8842C215.638 89.8734 212.124 99.2839 208.064 100.567C207.582 100.716 207.08 100.79 206.575 100.786Z" fill="#00ADE8"/>
<path d="M77.1341 240.02H76.91C57.2718 237.823 56.7007 225.676 56.7007 225.162C56.6865 224.638 56.8806 224.129 57.2404 223.748C57.6003 223.367 58.0965 223.144 58.6206 223.128H58.6777C59.189 223.128 59.6802 223.327 60.0487 223.681C60.4171 224.036 60.6343 224.519 60.6547 225.03C60.6547 225.469 61.3576 234.282 77.3493 236.088C77.8737 236.117 78.365 236.353 78.7151 236.745C79.0653 237.136 79.2456 237.65 79.2165 238.175C79.1874 238.699 78.9511 239.19 78.5598 239.54C78.1684 239.891 77.654 240.071 77.1297 240.042L77.1341 240.02Z" fill="#F57E1F"/>
<path d="M81.8789 232.402H81.7119C66.4451 231.123 62.7855 215.685 62.7504 215.527C62.6527 215.023 62.7548 214.501 63.0349 214.072C63.3151 213.642 63.7514 213.338 64.2517 213.223C64.7519 213.109 65.277 213.194 65.7158 213.46C66.1546 213.726 66.4729 214.152 66.6033 214.648C66.7263 215.167 69.6786 227.424 82.0414 228.457C82.5658 228.478 83.0601 228.707 83.4156 229.093C83.7711 229.479 83.9587 229.991 83.9372 230.515C83.9156 231.039 83.6867 231.534 83.3007 231.889C82.9147 232.245 82.4032 232.432 81.8789 232.411V232.402Z" fill="#F57E1F"/>
<path d="M144.203 239.431H144.067C130.544 238.487 123.831 226.405 123.55 225.891C123.426 225.663 123.348 225.412 123.321 225.154C123.293 224.896 123.317 224.635 123.391 224.386C123.464 224.137 123.586 223.904 123.75 223.703C123.913 223.501 124.115 223.333 124.343 223.209C124.571 223.085 124.821 223.007 125.08 222.98C125.338 222.952 125.599 222.976 125.848 223.05C126.097 223.123 126.329 223.245 126.531 223.409C126.733 223.572 126.901 223.774 127.025 224.002C127.095 224.134 133.031 234.7 144.339 235.486C144.599 235.495 144.854 235.555 145.09 235.663C145.327 235.77 145.54 235.923 145.717 236.113C145.894 236.303 146.032 236.526 146.123 236.769C146.215 237.013 146.257 237.271 146.248 237.531C146.239 237.791 146.179 238.046 146.071 238.282C145.964 238.519 145.811 238.732 145.621 238.909C145.431 239.086 145.208 239.224 144.964 239.316C144.721 239.407 144.462 239.449 144.203 239.44V239.431Z" fill="#F57E1F"/>
<path d="M153.284 226.919C153.154 226.918 153.025 226.906 152.897 226.884C139.392 224.204 130.93 212.443 130.579 211.946C130.276 211.518 130.156 210.987 130.244 210.47C130.333 209.953 130.623 209.493 131.051 209.19C131.479 208.887 132.01 208.766 132.527 208.855C133.044 208.943 133.505 209.234 133.808 209.662C133.883 209.772 141.716 220.645 153.666 223.009C154.145 223.106 154.572 223.378 154.862 223.771C155.153 224.164 155.288 224.652 155.24 225.139C155.193 225.625 154.966 226.077 154.605 226.407C154.244 226.737 153.773 226.921 153.284 226.923V226.919Z" fill="#F57E1F"/>
<path d="M316.285 270C310.881 269.974 305.482 269.666 300.109 269.077C299.767 269.043 299.439 268.918 299.16 268.717L222.716 213.875C222.29 213.569 222.002 213.107 221.917 212.589C221.832 212.071 221.956 211.54 222.261 211.114C222.567 210.688 223.03 210.4 223.548 210.315C224.066 210.23 224.596 210.353 225.023 210.659L301.027 265.198C333.099 268.449 339.197 261.314 339.79 260.489C340.176 259.944 340.282 259.469 340.102 259.087C339.732 258.214 339.124 257.462 338.347 256.918C337.57 256.375 336.655 256.06 335.708 256.012C322.445 259.39 300.724 260.172 299.797 260.203C299.364 260.214 298.939 260.087 298.585 259.838L225.357 207.725C224.939 207.417 224.66 206.957 224.578 206.445C224.496 205.933 224.619 205.409 224.92 204.987C225.221 204.564 225.675 204.277 226.186 204.187C226.697 204.097 227.222 204.211 227.65 204.504L300.324 256.249C304.133 256.086 323.398 255.142 334.961 252.141C335.095 252.108 335.232 252.087 335.37 252.08C337.129 252.063 338.855 252.558 340.337 253.505C341.819 254.452 342.994 255.81 343.717 257.413C344.508 259.109 344.262 261.068 343.041 262.782C341.27 265.211 335.436 270 316.285 270Z" fill="#F57E1F"/>
<path d="M111.108 208.094H110.871C85.0597 205.018 82.8675 191.742 82.7884 191.179C82.7263 190.73 82.8193 190.273 83.052 189.883C83.1047 189.791 88.6403 180.578 94.8613 171.378C107.87 152.127 111.174 151.652 112.584 151.45C117.368 150.769 119.174 145.001 119.174 144.939C119.294 144.541 119.535 144.191 119.865 143.938C120.194 143.685 120.595 143.542 121.01 143.529H121.068C121.472 143.528 121.867 143.652 122.2 143.883C122.532 144.114 122.786 144.441 122.926 144.821C125.654 151.185 130.137 156.642 135.851 160.553C145.152 166.792 162.817 164.652 162.997 164.626C163.255 164.593 163.517 164.612 163.767 164.68C164.018 164.749 164.252 164.866 164.457 165.025C164.662 165.184 164.834 165.382 164.963 165.607C165.092 165.833 165.175 166.082 165.207 166.339C165.24 166.597 165.221 166.858 165.153 167.109C165.085 167.359 164.967 167.594 164.808 167.799C164.649 168.004 164.451 168.176 164.226 168.305C164 168.434 163.752 168.517 163.494 168.549C162.712 168.65 144.185 170.904 133.65 163.839C128.429 160.285 124.113 155.555 121.05 150.031C119.547 152.307 117.048 154.811 113.142 155.365C112.83 155.431 109.68 156.494 98.0421 173.729C92.915 181.307 88.2757 188.864 86.8962 191.192C87.6826 193.451 91.7904 201.613 110.589 204.056C113.423 201.974 123.414 194.769 127.82 193.393C130.966 192.409 133.531 188.306 134.239 186.803C134.354 186.567 134.514 186.355 134.711 186.18C134.907 186.005 135.137 185.87 135.385 185.784C135.634 185.699 135.896 185.664 136.158 185.681C136.42 185.699 136.675 185.768 136.91 185.885L142.182 188.521C142.625 188.769 142.955 189.178 143.105 189.663C143.255 190.148 143.212 190.671 142.986 191.126C142.76 191.58 142.369 191.93 141.892 192.104C141.415 192.277 140.89 192.261 140.425 192.058L136.835 190.265C135.478 192.436 132.776 195.977 129.011 197.159C125.434 198.274 115.752 205.141 112.316 207.703C111.967 207.962 111.543 208.1 111.108 208.094Z" fill="#00ADE8"/>
<path d="M109.034 263.964C107.087 264.008 105.153 263.647 103.353 262.904C101.553 262.162 99.927 261.053 98.5779 259.649C93.4685 254.54 95.753 251.302 97.2599 249.18C97.6124 248.711 97.9296 248.216 98.2089 247.699C99.316 245.503 103.042 243.275 109.082 239.892C111.388 238.665 113.629 237.318 115.795 235.859C119.31 233.263 125.759 219.731 129.213 212.465C129.652 211.547 130.052 210.708 130.412 209.948C132.547 205.562 135.554 201.658 139.247 198.472C139.054 192.8 140.565 189.971 142.647 186.131C143.976 183.745 145.15 181.275 146.162 178.737C147.326 175.789 149.237 173.869 151.847 173.026C157.145 171.33 163.415 175.007 164.46 175.662C170.501 178.399 179.912 187.238 175.883 196.64C172.645 204.197 164.9 211.547 162.936 213.335C162.712 214.174 162.246 215.971 161.649 218.69C160.954 221.801 152.049 232.898 146.601 239.163C140.96 245.643 130.474 256.974 123.62 260.04C117.808 262.672 113.041 263.964 109.034 263.964ZM154.861 176.563C154.247 176.555 153.637 176.644 153.051 176.826C151.61 177.287 150.564 178.395 149.848 180.209C148.776 182.892 147.533 185.504 146.127 188.029C144.115 191.768 142.898 194.03 143.245 199.272C143.267 199.603 143.206 199.934 143.066 200.235C142.926 200.536 142.713 200.797 142.445 200.994C138.879 203.897 135.988 207.544 133.975 211.678C133.615 212.43 133.215 213.269 132.784 214.183C127.57 225.166 122.144 236.149 118.133 239.071C116.375 240.349 113.779 241.812 111.015 243.363C107.791 245.173 102.387 248.196 101.746 249.514C101.378 250.209 100.958 250.876 100.489 251.508C99.1315 253.428 98.6218 254.144 101.368 256.895C105.704 261.227 111.683 261.108 122.016 256.49C126.48 254.492 134.318 247.322 143.456 236.822C151.57 227.516 157.374 219.384 157.8 217.873C158.679 213.919 159.263 211.854 159.289 211.766C159.394 211.401 159.602 211.073 159.887 210.822C159.979 210.743 168.968 202.813 172.259 195.129C175.193 188.284 167.373 181.312 162.734 179.264C162.637 179.223 162.544 179.173 162.457 179.115C161.205 178.263 157.818 176.563 154.861 176.563Z" fill="#00ADE8"/>
<path d="M43.1516 259.597C39.325 259.597 36.3595 258.753 34.299 257.075C33.4889 256.449 32.8214 255.658 32.3411 254.755C31.8608 253.851 31.5787 252.855 31.5136 251.834C31.228 242.168 47.1143 237.529 51.8679 236.351C57.777 218.339 67.2753 208.379 69.494 206.231C73.448 190.854 84.7652 190.555 85.2529 190.551C85.5125 190.548 85.7702 190.596 86.0112 190.692C86.2523 190.789 86.4721 190.932 86.6579 191.113C86.8437 191.294 86.992 191.51 87.0943 191.749C87.1966 191.988 87.2508 192.244 87.254 192.504C87.2572 192.763 87.2092 193.021 87.1128 193.262C87.0164 193.503 86.8734 193.723 86.6921 193.909C86.5107 194.095 86.2946 194.243 86.0559 194.345C85.8173 194.447 85.5608 194.502 85.3012 194.505C84.9014 194.505 76.2729 194.909 73.1975 207.733C73.1002 208.121 72.8909 208.47 72.5956 208.739C72.4858 208.84 61.4761 218.936 55.2947 238.614C55.1897 238.947 54.9988 239.246 54.7411 239.481C54.4835 239.717 54.1682 239.88 53.8273 239.954C48.9947 241.008 35.2699 245.432 35.4676 251.728V251.768C35.5359 252.228 35.6964 252.67 35.9395 253.067C36.1825 253.464 36.5032 253.808 36.8823 254.079C38.2003 255.107 41.6842 256.57 50.0623 254.834C65.764 251.583 70.3331 243.069 70.377 242.972C70.5188 242.697 70.7217 242.458 70.9701 242.274L77.8984 237.213L78.6716 231.027C78.7082 230.744 78.8057 230.473 78.9574 230.232C79.1091 229.99 79.3115 229.785 79.5503 229.63C82.0677 227.947 88.8774 222.534 90.1558 217.732C90.2792 217.273 90.5636 216.873 90.9572 216.606C91.3508 216.339 91.8274 216.223 92.2998 216.278C92.66 216.313 101.526 217.087 105.963 204.943C106.043 204.688 106.173 204.452 106.347 204.249C106.52 204.045 106.733 203.879 106.973 203.761C107.212 203.642 107.473 203.573 107.74 203.558C108.007 203.543 108.274 203.583 108.525 203.674C108.777 203.765 109.007 203.906 109.202 204.089C109.397 204.272 109.553 204.492 109.66 204.737C109.768 204.982 109.825 205.246 109.827 205.513C109.83 205.78 109.778 206.045 109.675 206.292C105.379 218.119 97.027 219.973 93.486 220.206C91.1926 225.794 84.73 230.789 82.5026 232.393L81.7338 238.544C81.6992 238.811 81.6109 239.069 81.4742 239.301C81.3376 239.534 81.1554 239.736 80.9386 239.897L73.6676 245.208C72.4375 247.26 66.6383 255.423 50.8838 258.687C48.3435 259.249 45.753 259.554 43.1516 259.597Z" fill="#00ADE8"/>
<path d="M101.394 269.025C97.607 269.025 94.58 268.194 93.5739 267.478C93.247 267.247 92.9771 266.945 92.7845 266.594C92.5919 266.243 92.4818 265.853 92.4624 265.453C92.3218 263.059 95.7574 259.416 98.6614 256.785C98.8491 256.587 99.0758 256.43 99.3272 256.324C99.5785 256.218 99.8492 256.165 100.122 256.168C100.395 256.172 100.664 256.232 100.912 256.344C101.161 256.457 101.384 256.62 101.566 256.823C101.748 257.026 101.887 257.264 101.973 257.523C102.059 257.782 102.09 258.056 102.065 258.328C102.039 258.599 101.958 258.863 101.826 259.102C101.694 259.341 101.514 259.549 101.297 259.715C99.6409 261.188 98.1367 262.823 96.8074 264.596C99.9487 265.405 109.109 266.028 114.926 259.403C115.275 259.009 115.767 258.771 116.292 258.739C116.818 258.708 117.335 258.887 117.728 259.236C118.122 259.586 118.361 260.078 118.392 260.603C118.424 261.129 118.245 261.645 117.895 262.039C113.085 267.505 106.53 269.025 101.394 269.025Z" fill="#00ADE8"/>
<path d="M31.4479 264.429C30.3133 264.491 29.1826 264.252 28.1705 263.735C26.3033 262.703 26.009 261.213 26.0002 260.418C25.965 256.978 31.0437 253.644 33.2316 252.37C33.6829 252.128 34.2104 252.071 34.703 252.21C35.1956 252.349 35.6149 252.674 35.8728 253.117C36.1306 253.559 36.2069 254.084 36.0854 254.581C35.964 255.079 35.6544 255.51 35.2218 255.783C32.7879 257.207 30.3891 259.272 30.0025 260.229L30.0859 260.278C30.288 260.387 32.3529 261.279 42.3873 258.081C47.8306 256.324 52.8302 254.263 52.8786 254.246C53.3627 254.044 53.9071 254.043 54.392 254.243C54.8769 254.443 55.2625 254.827 55.464 255.311C55.6656 255.795 55.6666 256.339 55.4668 256.824C55.267 257.309 54.8828 257.695 54.3987 257.896C54.1878 257.98 49.2145 260.04 43.6174 261.85C37.436 263.779 33.7588 264.429 31.4479 264.429Z" fill="#00ADE8"/>
<path d="M68.6902 248.064C61.6609 248.064 56.6788 246.562 53.8099 243.592C51.2837 240.956 51.4112 238.201 51.4376 237.88L55.3916 238.175V238.131C55.3916 238.188 55.3916 239.55 56.7667 240.934C58.3922 242.542 62.109 244.387 70.5881 244.062C70.8477 244.052 71.1067 244.093 71.3503 244.184C71.5939 244.274 71.8174 244.411 72.0079 244.588C72.1984 244.765 72.3523 244.977 72.4607 245.213C72.5691 245.449 72.63 245.704 72.6398 245.964C72.6496 246.224 72.6081 246.483 72.5178 246.726C72.4275 246.97 72.2902 247.193 72.1135 247.384C71.9369 247.574 71.7244 247.728 71.4883 247.837C71.2522 247.945 70.9971 248.006 70.7374 248.016C70.0301 248.051 69.3536 248.064 68.6902 248.064Z" fill="#00ADE8"/>
<path d="M133.615 252.009H133.465C124.389 251.346 115.712 239.115 115.347 238.597C115.187 238.385 115.071 238.143 115.006 237.885C114.942 237.628 114.93 237.36 114.971 237.098C115.012 236.835 115.105 236.584 115.245 236.359C115.386 236.133 115.57 235.938 115.787 235.786C116.005 235.633 116.25 235.526 116.51 235.47C116.77 235.415 117.038 235.412 117.299 235.462C117.559 235.513 117.807 235.615 118.027 235.763C118.248 235.912 118.436 236.103 118.581 236.325C120.777 239.44 127.772 247.629 133.755 248.064C134.28 248.083 134.775 248.309 135.133 248.693C135.49 249.077 135.681 249.587 135.662 250.111C135.643 250.636 135.417 251.131 135.033 251.489C134.649 251.846 134.139 252.037 133.615 252.018V252.009Z" fill="#00ADE8"/>
<path d="M219.474 220.25C219.242 220.249 219.011 220.209 218.793 220.131L214.729 218.638H212.444C212.079 218.636 211.721 218.533 211.411 218.34C211.1 218.146 210.85 217.871 210.687 217.544L209.681 215.54C207.818 215.22 204.084 214.358 201.624 212.324C198.236 209.526 200.024 198.96 200.951 194.545C201.059 194.031 201.366 193.582 201.806 193.295C202.245 193.008 202.78 192.908 203.293 193.016C203.806 193.123 204.256 193.431 204.542 193.87C204.829 194.309 204.93 194.844 204.822 195.357C203.504 201.591 203.201 208.234 204.163 209.297C206.096 210.892 209.905 211.621 211.192 211.766C211.52 211.803 211.833 211.921 212.103 212.11C212.373 212.299 212.592 212.552 212.739 212.847L213.657 214.684H215.072C215.304 214.683 215.534 214.723 215.753 214.802L218.599 215.848L222.154 209.798C222.42 209.346 222.855 209.018 223.363 208.887C223.871 208.755 224.41 208.831 224.862 209.097C225.314 209.364 225.642 209.799 225.773 210.307C225.905 210.815 225.829 211.354 225.563 211.806L221.17 219.275C220.996 219.57 220.748 219.816 220.451 219.987C220.153 220.158 219.817 220.248 219.474 220.25Z" fill="#00ADE8"/>
<path d="M199.44 186.927C198.916 186.925 198.414 186.717 198.043 186.346C197.673 185.976 197.464 185.473 197.463 184.95V179.436L194.827 173.373C194.718 173.124 194.661 172.855 194.66 172.582V162.557L193.628 159.921C193.445 159.434 193.462 158.896 193.673 158.422C193.885 157.947 194.275 157.575 194.758 157.386C195.242 157.197 195.781 157.205 196.258 157.41C196.735 157.615 197.113 157.999 197.309 158.48L198.478 161.472C198.569 161.701 198.615 161.945 198.614 162.192V172.169L201.25 178.232C201.359 178.482 201.414 178.751 201.413 179.023V184.95C201.413 185.473 201.205 185.975 200.835 186.346C200.465 186.717 199.964 186.925 199.44 186.927Z" fill="#00ADE8"/>
<path d="M113.331 128.583C113.055 128.584 112.782 128.526 112.531 128.412C112.053 128.199 111.678 127.806 111.49 127.317C111.301 126.829 111.314 126.285 111.525 125.806C111.798 125.196 118.348 110.799 133.448 109.551C133.708 109.53 133.969 109.56 134.217 109.639C134.465 109.719 134.695 109.847 134.894 110.015C135.092 110.184 135.256 110.39 135.375 110.621C135.494 110.853 135.566 111.106 135.587 111.366C135.609 111.625 135.579 111.886 135.499 112.134C135.42 112.383 135.292 112.612 135.123 112.811C134.955 113.01 134.749 113.173 134.517 113.292C134.286 113.411 134.033 113.484 133.773 113.505C121.032 114.564 115.198 127.309 115.141 127.436C114.98 127.781 114.725 128.072 114.404 128.275C114.083 128.478 113.711 128.585 113.331 128.583Z" fill="#00ADE8"/>
<path d="M201.602 181.057C200.284 181.057 199.431 181.004 199.308 180.995C199.049 180.978 198.795 180.91 198.562 180.795C198.329 180.679 198.12 180.519 197.949 180.323C197.778 180.127 197.647 179.9 197.563 179.653C197.48 179.407 197.446 179.146 197.463 178.887C197.481 178.627 197.549 178.373 197.664 178.14C197.779 177.907 197.94 177.699 198.135 177.527C198.331 177.356 198.559 177.225 198.805 177.142C199.052 177.058 199.312 177.024 199.572 177.041C199.682 177.041 210.059 177.683 216.781 174.054C217.241 173.819 217.775 173.774 218.268 173.927C218.761 174.081 219.175 174.422 219.42 174.877C219.665 175.331 219.723 175.864 219.58 176.361C219.437 176.857 219.106 177.278 218.657 177.533C212.937 180.631 205.354 181.057 201.602 181.057Z" fill="#00ADE8"/>
<path d="M133.611 111.849C133.105 111.848 132.618 111.654 132.251 111.306C131.885 110.958 131.665 110.482 131.638 109.977C130.83 94.9872 115.304 95.286 114.649 95.286C114.125 95.3035 113.615 95.1119 113.232 94.7535C112.849 94.3951 112.624 93.8992 112.606 93.3749C112.589 92.8505 112.78 92.3407 113.139 91.9576C113.497 91.5745 113.993 91.3495 114.517 91.332C117.955 91.3244 121.359 92.004 124.53 93.3309C129.279 95.3694 135.052 99.8726 135.583 109.753C135.598 110.012 135.561 110.272 135.475 110.517C135.389 110.762 135.256 110.988 135.082 111.181C134.909 111.374 134.699 111.531 134.464 111.643C134.23 111.754 133.975 111.818 133.716 111.831L133.611 111.849Z" fill="#00ADE8"/>
<path d="M134.744 111.849C134.244 111.851 133.762 111.664 133.395 111.326C133.027 110.987 132.802 110.522 132.763 110.024C132.725 109.526 132.877 109.031 133.188 108.64C133.499 108.25 133.947 107.991 134.441 107.917C134.559 107.917 146.206 106.058 152.22 102.232C157.203 99.0598 167.307 84.14 170.782 78.6572C170.92 78.4352 171.1 78.2428 171.313 78.0909C171.526 77.9391 171.766 77.8309 172.021 77.7726C172.276 77.7143 172.539 77.7071 172.797 77.7513C173.054 77.7955 173.3 77.8903 173.521 78.0302C173.742 78.1701 173.932 78.3524 174.082 78.5664C174.232 78.7805 174.338 79.0221 174.393 79.2773C174.449 79.5325 174.454 79.7962 174.407 80.0533C174.36 80.3103 174.263 80.5555 174.121 80.7747C173.594 81.6095 161.082 101.278 154.351 105.566C147.621 109.854 135.565 111.748 135.056 111.822C134.953 111.84 134.848 111.849 134.744 111.849Z" fill="#00ADE8"/>
<path d="M223.867 159.767C223.439 159.767 223.022 159.627 222.68 159.37C222.337 159.112 222.088 158.751 221.969 158.339C218.533 146.442 205.929 143.041 205.802 143.011C205.494 142.931 205.209 142.777 204.973 142.564C204.737 142.351 204.555 142.084 204.444 141.785C204.333 141.487 204.295 141.167 204.334 140.851C204.373 140.535 204.488 140.233 204.668 139.971C208.754 134.07 212.137 108.022 213.117 98.4843C213.142 98.2247 213.219 97.9727 213.343 97.7428C213.466 97.5129 213.633 97.3095 213.835 97.1442C214.037 96.979 214.27 96.8552 214.52 96.7798C214.769 96.7045 215.032 96.679 215.291 96.705C215.551 96.731 215.803 96.8078 216.033 96.9311C216.263 97.0545 216.466 97.2219 216.631 97.4238C216.796 97.6258 216.92 97.8583 216.996 98.1081C217.071 98.3579 217.096 98.6201 217.071 98.8797C216.732 102.21 213.855 129.593 209.163 139.971C213.556 141.675 222.659 146.433 225.782 157.241C225.867 157.535 225.882 157.846 225.826 158.147C225.77 158.448 225.645 158.733 225.46 158.977C225.276 159.222 225.037 159.421 224.763 159.558C224.489 159.695 224.187 159.766 223.88 159.767H223.867Z" fill="#00ADE8"/>
<path d="M169.772 162.877C169.248 162.877 168.745 162.669 168.374 162.298C168.003 161.928 167.795 161.425 167.795 160.9C167.795 160.376 168.003 159.873 168.374 159.502C168.745 159.132 169.248 158.923 169.772 158.923C169.913 158.923 183.91 158.888 191.225 157.263C194.981 156.424 197.815 154.657 199.198 152.276C200.257 150.462 200.437 148.371 199.73 146.064C199.577 145.562 199.629 145.021 199.875 144.558C200.122 144.094 200.542 143.748 201.044 143.595C201.545 143.442 202.087 143.494 202.55 143.74C203.013 143.987 203.359 144.407 203.513 144.909C204.536 148.265 204.229 151.499 202.634 154.266C200.688 157.61 196.949 160.044 192.09 161.12C184.353 162.842 170.374 162.877 169.785 162.877H169.772Z" fill="#00ADE8"/>
<path d="M163.239 155.958C162.715 155.996 162.196 155.825 161.798 155.481C161.401 155.138 161.155 154.65 161.117 154.126C161.078 153.601 161.25 153.083 161.593 152.685C161.937 152.287 162.425 152.042 162.949 152.004C175.65 150.097 209.958 143.019 216.042 133.306C216.321 132.861 216.764 132.546 217.276 132.428C217.787 132.311 218.324 132.401 218.768 132.68C219.213 132.958 219.529 133.402 219.646 133.913C219.763 134.424 219.673 134.961 219.394 135.406C215.836 141.078 205.283 146.257 188.017 150.782C175.426 154.095 163.652 155.879 163.533 155.896C163.437 155.926 163.339 155.946 163.239 155.958Z" fill="#00ADE8"/>
<path d="M188.096 177.824C187.657 177.809 187.238 177.637 186.915 177.34C186.713 177.177 186.545 176.976 186.421 176.747C186.297 176.519 186.219 176.269 186.191 176.011C186.164 175.752 186.188 175.491 186.261 175.242C186.335 174.993 186.457 174.761 186.62 174.559C186.84 174.285 187.13 174.076 187.459 173.953C187.785 173.738 188.492 173.215 189.305 172.591L184.305 168.725C183.965 168.457 183.722 168.086 183.613 167.666C183.505 167.247 183.537 166.804 183.704 166.405C183.872 166.006 184.166 165.673 184.541 165.457C184.916 165.241 185.352 165.155 185.781 165.21C186.308 165.276 191.084 165.702 192.371 160.443C192.426 160.185 192.532 159.939 192.684 159.722C192.835 159.505 193.028 159.32 193.253 159.179C193.477 159.038 193.727 158.944 193.988 158.901C194.249 158.859 194.516 158.869 194.773 158.932C195.031 158.995 195.273 159.108 195.485 159.266C195.697 159.424 195.876 159.623 196.01 159.851C196.144 160.08 196.231 160.333 196.265 160.595C196.3 160.857 196.281 161.124 196.211 161.379C195.24 165.368 192.846 167.455 190.399 168.439L193.742 171.023C193.978 171.208 194.168 171.445 194.299 171.714C194.43 171.984 194.498 172.28 194.498 172.58C194.498 172.88 194.43 173.176 194.299 173.446C194.168 173.716 193.978 173.952 193.742 174.138C193.742 174.138 192.674 174.985 191.585 175.816C189.959 177.072 188.975 177.824 188.096 177.824ZM189.094 174.058C189.199 174.117 189.299 174.185 189.393 174.261C189.299 174.185 189.199 174.117 189.094 174.058Z" fill="#00ADE8"/>
<path d="M120.553 148.792C120.235 148.792 119.921 148.715 119.639 148.567C119.357 148.42 119.114 148.206 118.932 147.944L115.343 142.813C115.193 142.597 115.087 142.353 115.032 142.096C114.977 141.839 114.974 141.574 115.023 141.315C115.071 141.057 115.171 140.811 115.316 140.591C115.46 140.371 115.647 140.183 115.866 140.036L122.895 135.349C123.331 135.057 123.866 134.951 124.38 135.054C124.895 135.157 125.347 135.459 125.639 135.896C125.93 136.332 126.036 136.866 125.933 137.381C125.831 137.895 125.528 138.348 125.092 138.639L119.741 142.202L122.175 145.682C122.38 145.979 122.501 146.326 122.524 146.686C122.547 147.047 122.47 147.406 122.303 147.727C122.137 148.047 121.885 148.315 121.577 148.503C121.268 148.691 120.915 148.791 120.553 148.792Z" fill="#00ADE8"/>
<path d="M196.18 105.167C193.62 105.22 191.094 104.57 188.879 103.286C181.19 98.6468 182.166 85.647 182.209 85.0978C182.252 84.5735 182.501 84.0875 182.902 83.7468C183.303 83.4061 183.822 83.2386 184.347 83.2812C184.871 83.3237 185.357 83.5728 185.698 83.9736C186.038 84.3744 186.206 84.8942 186.163 85.4185C185.917 88.4938 186.295 97.1004 190.935 99.9165C196.646 103.365 205.314 98.9763 205.402 98.9324C205.633 98.8081 205.887 98.731 206.148 98.7058C206.41 98.6806 206.673 98.7077 206.924 98.7855C207.175 98.8633 207.408 98.9903 207.609 99.1591C207.81 99.3279 207.976 99.535 208.096 99.7685C208.216 100.002 208.289 100.257 208.309 100.519C208.33 100.781 208.298 101.044 208.216 101.293C208.133 101.542 208.002 101.773 207.83 101.971C207.658 102.169 207.447 102.331 207.212 102.447C206.896 102.588 201.808 105.162 196.18 105.167Z" fill="#00ADE8"/>
<path d="M201.619 86.8376H201.4C201.139 86.8103 200.887 86.7316 200.657 86.6061C200.428 86.4805 200.225 86.3107 200.062 86.1064C199.899 85.902 199.777 85.6673 199.705 85.4157C199.633 85.1642 199.612 84.9008 199.642 84.6409L200.82 73.9827C200.871 73.5202 201.084 73.0907 201.421 72.7694C201.757 72.4481 202.196 72.2555 202.66 72.2253L223.748 70.8766C224.008 70.8601 224.268 70.895 224.515 70.9792C224.761 71.0633 224.988 71.1951 225.183 71.3671C225.378 71.539 225.538 71.7478 225.652 71.9813C225.767 72.2149 225.834 72.4687 225.851 72.7284C225.867 72.988 225.832 73.2483 225.748 73.4945C225.664 73.7406 225.532 73.9678 225.36 74.163C225.188 74.3582 224.98 74.5176 224.746 74.6322C224.512 74.7467 224.258 74.8141 223.999 74.8306L204.58 76.0695L203.587 85.0802C203.533 85.5641 203.303 86.011 202.939 86.3353C202.576 86.6596 202.106 86.8384 201.619 86.8376Z" fill="#F57E1F"/>
<path d="M215.08 206.042C214.655 206.042 214.24 205.905 213.899 205.651L146.826 155.567C146.406 155.253 146.127 154.785 146.052 154.266C145.977 153.747 146.112 153.219 146.426 152.799C146.74 152.379 147.208 152.101 147.727 152.026C148.246 151.951 148.774 152.085 149.194 152.399L216.267 202.483C216.598 202.732 216.844 203.079 216.967 203.475C217.091 203.871 217.087 204.296 216.956 204.69C216.825 205.084 216.573 205.426 216.236 205.669C215.9 205.911 215.495 206.042 215.08 206.042Z" fill="#F57E1F"/>
<path d="M215.08 199.601C214.628 199.603 214.188 199.448 213.837 199.162L152.036 149.078C151.628 148.748 151.368 148.269 151.314 147.747C151.259 147.225 151.414 146.702 151.744 146.295C152.074 145.887 152.553 145.627 153.075 145.572C153.597 145.517 154.119 145.672 154.527 146.002L216.328 196.087C216.646 196.344 216.877 196.693 216.988 197.087C217.099 197.481 217.085 197.9 216.949 198.286C216.812 198.671 216.558 199.005 216.224 199.241C215.889 199.476 215.49 199.602 215.08 199.601Z" fill="#F57E1F"/>
<path d="M220.792 214.244H220.656C219.201 214.143 214.505 212.641 215.45 197.506C215.482 196.981 215.721 196.491 216.114 196.143C216.507 195.795 217.023 195.617 217.547 195.649C218.072 195.682 218.562 195.921 218.91 196.314C219.258 196.707 219.436 197.223 219.404 197.747C218.881 206.288 220.282 209.17 220.924 210.022L222.185 209.42C223.191 205.436 225.207 197.119 225.418 194.813C225.418 192.998 220.546 184.066 216.043 176.853C215.839 176.526 215.735 176.148 215.744 175.763L216.038 162.438C216.044 162.149 216.114 161.864 216.242 161.604C216.371 161.345 216.554 161.116 216.781 160.936L222.009 156.753C222.669 150.972 223.023 145.161 223.068 139.342C223.068 130.969 227.171 121.725 228.467 119.006C226.754 114.173 223.801 106.682 222.316 104.846C221.113 103.339 215.946 101.05 211.9 99.5738C201.22 118.224 184.999 119.454 184.296 119.498C183.912 119.52 183.529 119.431 183.194 119.24C182.859 119.049 182.588 118.764 182.412 118.421C179.878 113.184 177.82 107.731 176.261 102.126C173.436 92.1315 179.538 80.8758 179.802 80.4013C179.923 80.166 180.09 79.9573 180.292 79.7875C180.495 79.6178 180.73 79.4905 180.983 79.4131C181.236 79.3358 181.502 79.31 181.765 79.3373C182.028 79.3646 182.283 79.4444 182.515 79.5721C182.747 79.6997 182.95 79.8725 183.114 80.0803C183.278 80.288 183.398 80.5265 183.468 80.7817C183.538 81.0368 183.556 81.3033 183.521 81.5655C183.486 81.8277 183.398 82.0802 183.264 82.308C183.211 82.4091 177.689 92.6324 180.066 101.054C181.456 105.957 183.218 110.747 185.338 115.381C189.265 114.7 201.154 111.427 209.224 96.2305C209.443 95.8172 209.802 95.495 210.236 95.3213C210.671 95.1475 211.153 95.1335 211.597 95.2816C213.451 95.901 222.826 99.1433 225.405 102.364C227.887 105.47 231.995 117.152 232.465 118.474C232.552 118.727 232.587 118.994 232.568 119.261C232.549 119.527 232.477 119.787 232.355 120.025C232.302 120.13 227.008 130.569 227.008 139.334C226.968 145.585 226.572 151.829 225.822 158.036C225.755 158.545 225.494 159.007 225.093 159.328L219.957 163.44L219.707 175.245C222.949 180.473 229.662 191.759 229.372 195.151C229.082 198.542 225.941 210.76 225.805 211.279C225.732 211.559 225.6 211.82 225.416 212.044C225.233 212.268 225.002 212.449 224.741 212.575L221.666 214.038C221.394 214.173 221.095 214.243 220.792 214.244Z" fill="#00ADE8"/>
<path d="M143.82 156.116C143.145 156.143 142.473 156.019 141.852 155.751C140.741 155.193 138.43 154.701 137.397 154.512C135.601 154.672 133.793 154.663 131.998 154.486C130.113 154.297 128.308 152.483 125.144 144.03C123.826 140.476 122.719 137.001 122.293 135.586L109.943 126.584C109.787 126.473 109.65 126.338 109.535 126.184L103.823 118.716C103.612 118.436 103.477 118.106 103.432 117.758C102.993 114.243 102.176 105.83 103.683 103.198C105.093 100.738 113.932 91.0552 114.934 89.9612C115.103 89.7775 115.306 89.6283 115.532 89.5219C116.718 88.942 144.725 75.3622 152.699 73.003C159.992 70.8415 164.645 73.5521 168.379 75.7312C169.139 76.1706 169.86 76.6099 170.545 76.935C173.62 78.4771 181.528 79.426 184.327 79.6633C184.851 79.7075 185.336 79.9583 185.676 80.3604C186.015 80.7624 186.181 81.2829 186.137 81.8072C186.093 82.3316 185.842 82.8168 185.44 83.1563C185.038 83.4957 184.517 83.6615 183.993 83.6173C182.89 83.525 173.093 82.6419 168.779 80.4848C167.979 80.085 167.206 79.6369 166.389 79.1668C162.993 77.1854 159.478 75.1337 153.82 76.812C146.61 78.9472 120.87 91.3495 117.597 92.9311C113.897 96.9818 107.988 103.655 107.114 105.184C106.543 106.318 106.745 111.976 107.299 116.769L112.483 123.57L125.136 132.796C125.486 133.054 125.742 133.42 125.865 133.837C127.969 140.95 131.137 149.214 132.653 150.594C134.166 150.729 135.688 150.721 137.2 150.572C137.389 150.545 137.581 150.545 137.771 150.572C138.153 150.638 141.54 151.217 143.522 152.18C144.295 152.316 146.896 151.74 149.527 150.835V145.489C149.526 145.08 149.652 144.68 149.888 144.346L152.853 140.146C151.79 136.61 149.83 131.259 148.275 129.532C146.692 127.801 144.941 126.232 143.047 124.849C142.824 124.691 142.635 124.489 142.494 124.256C141.07 121.932 137.964 118.048 135.693 117.543C135.366 117.471 135.063 117.317 134.813 117.095C134.562 116.874 134.372 116.593 134.26 116.277C133.061 112.921 128.988 103.791 124.498 101.911C124.25 101.817 124.024 101.673 123.833 101.489C123.641 101.306 123.489 101.085 123.385 100.841C123.28 100.597 123.226 100.335 123.225 100.069C123.225 99.8039 123.277 99.5412 123.38 99.2966C123.483 99.052 123.634 98.8307 123.825 98.6458C124.015 98.4609 124.241 98.3162 124.488 98.2203C124.735 98.1244 125 98.0793 125.265 98.0877C125.53 98.0961 125.791 98.1577 126.032 98.269C132.099 100.817 136.374 110.755 137.643 114.028C141.417 115.57 144.721 120.403 145.652 121.852C147.663 123.349 149.525 125.035 151.214 126.887C154.079 130.064 156.636 138.969 156.926 139.975C157.005 140.258 157.02 140.555 156.97 140.845C156.92 141.134 156.806 141.409 156.636 141.649L153.486 146.117V152.224C153.486 152.626 153.363 153.02 153.134 153.351C152.904 153.682 152.58 153.936 152.203 154.078C149.523 155.088 146.206 156.116 143.82 156.116Z" fill="#00ADE8"/>
<path d="M192.442 95.6681C190.682 95.7027 188.968 95.1075 187.609 93.9899C184.222 91.2045 182.456 84.8781 182.214 74.6592C181.072 72.1682 175.94 59.7219 184.947 54.4499C194.045 49.1164 207.005 48.4881 213.841 53.0484C219.702 56.9585 222.918 62.7401 223.191 69.8178L225.084 71.2895C225.321 71.4759 225.512 71.7135 225.643 71.9844C225.775 72.2552 225.844 72.5524 225.844 72.8536V83.1032C225.845 83.4833 225.736 83.8555 225.53 84.175C225.324 84.4946 225.031 84.7479 224.684 84.9045C224.306 85.0758 215.616 88.9156 202.836 87.0572C201.444 90.1809 198.829 94.9301 195.679 95.2815C195.473 95.3079 195.24 95.3474 194.977 95.3957C194.141 95.5617 193.293 95.6529 192.442 95.6681ZM201.936 53.9886C196.901 53.9886 191.295 55.3066 186.946 57.8679C180.307 61.7604 185.896 73.205 185.953 73.3236C186.083 73.5862 186.153 73.8742 186.159 74.1672C186.374 85.5151 188.435 89.5438 190.113 90.9409C191.321 91.9338 192.6 91.8196 194.278 91.5076C194.612 91.4461 194.924 91.3934 195.231 91.3583C196.18 91.1035 198.399 87.5932 199.77 84.1356C199.937 83.7092 200.248 83.3545 200.649 83.1325C201.05 82.9104 201.516 82.8348 201.966 82.9187C211.702 84.6497 219.135 82.677 221.895 81.7413V73.8333L220.023 72.3747C219.785 72.1905 219.592 71.9541 219.459 71.6837C219.327 71.4134 219.258 71.1162 219.259 70.815C219.259 64.5853 216.697 59.7175 211.649 56.3478C209.268 54.753 205.767 53.9886 201.936 53.9886Z" fill="#F57E1F"/>
</g>
</svg>
