<svg width="48" height="48" viewBox="0 0 48 48" fill="none" xmlns="http://www.w3.org/2000/svg">
<mask id="mask0" mask-type="alpha" maskUnits="userSpaceOnUse" x="0" y="0" width="48" height="48">
<rect width="48" height="48" fill="#C4C4C4"/>
</mask>
<g mask="url(#mask0)">
<path d="M3.26614 42.5324C-5.60945 33.3614 5.38208 7.38114 15.0641 3.12204C27.3536 -2.28405 48 12.709 48 29.5833C48 46.4576 12.1417 51.6989 3.26614 42.5324Z" fill="#00ADE8"/>
<path d="M15.9225 16.0078L13.5765 13.6618M15.4995 28.0798L17.8315 19.3108C18.0225 18.5928 18.6745 18.0918 19.4175 18.0918H26.2685C27.1225 18.0918 28.0285 18.7888 28.2485 19.6138L30.5005 28.0798H15.4995ZM22.9995 38.0678L25.3315 29.2988C25.5225 28.5808 26.1745 28.0798 26.9175 28.0798H33.7685C34.6225 28.0798 35.5285 28.7768 35.7485 29.6018L38.0005 38.0678H22.9995ZM7.99951 38.0678L10.3315 29.2988C10.5225 28.5808 11.1745 28.0798 11.9175 28.0798H18.7685C19.6225 28.0798 20.5285 28.7768 20.7485 29.6018L23.0005 38.0678H7.99951ZM33.0085 23.0858H36.3255H33.0085ZM9.67351 23.0858H12.9905H9.67351ZM22.9995 13.0768V9.75977V13.0768ZM32.4225 13.6628L30.0775 16.0088L32.4225 13.6628Z" stroke="white" stroke-miterlimit="10" stroke-linecap="round" stroke-linejoin="round"/>
</g>
</svg>
