<svg width="40" height="40" viewBox="0 0 40 40" fill="none" xmlns="http://www.w3.org/2000/svg">
<mask id="mask0" mask-type="alpha" maskUnits="userSpaceOnUse" x="0" y="0" width="40" height="40">
<rect width="40" height="40" fill="#C4C4C4"/>
</mask>
<g mask="url(#mask0)">
<path d="M29.3075 4.15106L29.3083 4.15159C33.419 6.99996 36.4813 13.2831 37.29 19.6855C38.0998 26.0966 36.6243 32.3659 31.9942 35.3356L31.9939 35.3357C28.0804 37.8497 21.9812 38.0977 16.2859 36.4733C10.5933 34.8497 5.4812 31.4061 3.46465 26.7485C0.608185 20.1467 4.45476 12.7685 10.4918 7.84746C13.4922 5.4017 16.9834 3.61242 20.3397 2.87385C23.698 2.13484 26.8709 2.45594 29.3075 4.15106Z" stroke="#00ADE8"/>
<mask id="mask1" mask-type="alpha" maskUnits="userSpaceOnUse" x="5" y="5" width="29" height="29">
<rect x="6.40271" y="6.23047" width="27" height="27" fill="#C4C4C4" stroke="#00ADE8"/>
</mask>
<g mask="url(#mask1)">
<path d="M12.057 20.8423C14.139 24.2353 17.929 26.5133 22.274 26.5133C25.992 26.5133 29.3031 24.8453 31.4861 22.2393C32.1711 21.4213 32.1711 20.2643 31.4861 19.4463C29.3041 16.8393 25.992 15.1713 22.274 15.1713C17.929 15.1713 14.139 17.4493 12.057 20.8423ZM12.057 20.8423C10.835 20.9633 9.57005 20.4583 8.76005 19.3913C7.95005 18.3243 7.80204 16.9693 8.24704 15.8253C9.46804 15.7043 10.735 16.2093 11.545 17.2763C12.355 18.3433 12.501 19.6983 12.057 20.8423ZM12.057 20.8423C10.836 20.7203 9.57105 21.2263 8.76005 22.2933C7.95005 23.3603 7.80204 24.7153 8.24704 25.8593C9.46804 25.9813 10.734 25.4753 11.545 24.4083C12.355 23.3413 12.501 21.9863 12.057 20.8423ZM26.3221 15.8673C24.8131 17.0043 23.8321 18.8063 23.8321 20.8423C23.8321 22.8773 24.8121 24.6793 26.3221 25.8173M28.413 20.5333V20.8423M16.315 25.2553C16.233 25.9723 16.094 27.9253 17.117 27.9253C17.92 27.9253 19.454 27.2673 20.549 26.3913M24.13 15.3183C22.967 13.7383 20.347 12.3613 19.133 12.3613C17.919 12.3613 18.0831 14.8823 18.1811 15.8083L24.13 15.3183Z" stroke="#00ADE8" stroke-miterlimit="10" stroke-linecap="round" stroke-linejoin="round"/>
</g>
</g>
</svg>
