<svg width="48" height="48" viewBox="0 0 48 48" fill="none" xmlns="http://www.w3.org/2000/svg">
<mask id="mask0" mask-type="alpha" maskUnits="userSpaceOnUse" x="0" y="0" width="48" height="48">
<rect width="48" height="48" fill="#C4C4C4"/>
</mask>
<g mask="url(#mask0)">
<path d="M3.32978 3.6823C12.2147 -5.34529 43.1571 3.8641 47.2834 13.712C51.4096 23.5599 37.0768 48 20.7289 48C4.38096 48 -5.55079 12.7099 3.32978 3.6823Z" fill="#00ADE8"/>
<path d="M32.2079 31.4553C32.1619 31.4293 32.2589 31.2763 32.2129 31.0593C32.1769 30.8883 32.3789 30.6053 32.4779 30.4823C32.5769 30.3583 32.9129 29.8583 33.0139 29.6873C33.1149 29.5163 33.1719 29.1283 33.2829 28.9683C33.3939 28.8083 33.7799 28.5523 33.8649 28.5283C33.9499 28.5043 34.0279 28.4593 34.0839 28.4763M30.6979 32.0633C30.7539 32.1233 30.8509 32.3543 30.8269 32.4803C30.8029 32.6063 30.5469 32.7803 30.4809 32.8163C30.4149 32.8523 30.2389 32.9673 30.1999 33.0563C30.1609 33.1463 30.0769 33.3063 30.0239 33.3383C29.9709 33.3713 29.3889 34.1903 29.3199 34.3003C29.2509 34.4103 29.1539 34.5403 29.0759 34.5253C28.9979 34.5103 28.6259 34.7913 28.6029 34.8373C28.5799 34.8833 28.4209 34.9273 28.3619 35.0213C28.3029 35.1153 28.2419 35.3103 28.2019 35.4803C28.1619 35.6503 28.2109 35.8523 28.1289 35.9323C28.0459 36.0123 27.9219 35.9473 27.8779 35.9913C27.8339 36.0353 27.7169 36.5573 27.5299 36.5413M26.2849 37.2593C26.2959 37.3033 26.1449 37.4933 26.1409 37.5343C26.1369 37.5753 26.0629 37.6333 26.0569 37.7483C26.0509 37.8633 25.7389 37.9233 25.7099 37.9973C25.6799 38.0713 25.7349 37.9683 25.6669 37.9973C25.5989 38.0263 25.1479 38.5743 25.1599 38.6783C25.1719 38.7823 25.2089 38.9343 25.1509 39.0883C25.0929 39.2423 24.7089 40.5633 24.6289 40.5153M37.9799 10.0573C37.9809 10.1003 37.9949 10.1433 38.0209 10.1783M39.2979 12.9813C39.4629 12.8543 39.5159 12.3433 39.7139 12.0523C39.9219 11.7463 39.9439 11.3573 39.9589 10.9893C39.9659 10.8083 39.9729 10.6203 39.9009 10.4523C39.8059 10.2293 40.1789 10.2053 39.8849 9.90234M38.9949 15.4583C39.0019 15.4783 38.9819 15.4853 38.9799 15.5013C38.9779 15.5173 38.9939 15.5423 39.0009 15.5623C39.0079 15.5833 38.9689 15.6013 38.9439 15.6173C38.9189 15.6333 38.8939 15.6263 38.8739 15.6333L38.7949 14.5093C38.9629 14.6413 38.7579 14.8733 38.7689 15.0323M38.4849 16.3193C38.4849 16.3193 38.4809 16.3053 38.4939 16.2783C38.5069 16.2513 38.5659 16.2693 38.6019 16.2653L38.6129 16.5193M37.1839 21.9173C37.2309 21.8763 37.2819 21.7853 37.3119 21.7833L37.2359 22.3373C37.2139 22.3033 37.1429 22.2443 37.1629 22.2133M36.7369 23.3053C36.6869 23.3313 36.6679 23.3753 36.6609 23.4053C36.6539 23.4353 36.6949 23.5053 36.7119 23.5553C36.7289 23.6053 36.7549 23.6063 36.7759 23.6453M34.2709 27.2343C34.2339 27.2593 34.2469 27.2573 34.2489 27.2773C34.2509 27.2973 34.2919 27.3283 34.2669 27.3543C34.2419 27.3803 34.1989 27.4343 34.1609 27.4483C34.1229 27.4633 33.9719 27.4293 33.9679 27.3893M35.5739 26.1013C35.5189 26.0143 35.5599 25.8773 35.5939 25.8493C35.6279 25.8213 35.6549 25.6703 35.7239 25.6203C35.7929 25.5703 35.8439 25.5813 35.8719 25.5003C35.8999 25.4203 35.8879 25.3163 35.9449 25.2153C36.0019 25.1153 36.1039 24.9773 36.1579 24.8913C36.2119 24.8053 36.2129 24.6353 36.2349 24.5923L35.5739 26.1013ZM27.5149 39.1323C27.4499 39.2013 27.3789 39.2713 27.3459 39.3323C27.3129 39.3933 27.4209 39.4153 27.2229 39.4413C27.0249 39.4683 27.0639 39.4583 27.0179 39.3823C26.9719 39.3063 27.0589 39.3263 27.0129 39.2503L27.5149 39.1323ZM38.0509 17.4133C38.0169 17.4583 38.0379 17.5383 38.0289 17.5903C38.0259 17.6053 38.0229 17.6213 38.0199 17.6363C37.9979 17.7353 37.9619 17.8353 37.9349 17.9323C37.9259 17.9653 37.9179 18.0023 37.9379 18.0303L38.0509 17.4133ZM9.05886 9.99234C9.02386 9.99034 8.98986 9.99734 8.95686 10.0143C8.82386 10.0843 8.88086 10.5823 8.74886 10.6543C8.63486 10.7163 8.22286 10.7493 8.10886 10.8103C8.01886 10.8583 7.98386 10.9743 8.00686 11.0723C8.02986 11.1703 8.10086 11.2513 8.17886 11.3153C8.35686 11.4613 8.58086 11.5393 8.77786 11.6573C8.96586 11.7693 9.10786 11.9313 9.15686 12.1453C9.18986 12.2863 9.10286 12.5203 9.25686 12.6143C9.32686 12.6573 9.41386 12.6613 9.49386 12.6803C9.57386 12.6993 9.65886 12.7453 9.67786 12.8243C9.70386 12.9353 9.58386 13.0253 9.47586 13.0643C9.36586 13.1023 9.23686 13.1353 9.18886 13.2383C9.13686 13.3483 9.20886 13.4773 9.29986 13.5583C9.39086 13.6393 9.50486 13.6993 9.57286 13.7993C9.77986 14.1003 9.29286 14.4283 9.02086 14.3513C8.76486 14.2783 8.67086 13.9753 8.35386 14.0903C8.12986 14.1713 8.00286 14.4213 8.00386 14.6563C8.00586 14.9943 8.21086 15.1903 8.34986 15.4673C8.51086 15.7873 8.57186 16.2033 8.64086 16.5523C8.85986 17.6653 8.74486 18.7823 8.98886 19.8903C9.03886 20.1173 9.23086 20.2113 9.35086 20.3923C9.48686 20.5963 9.50286 20.8583 9.68986 21.0353C9.79986 21.1393 9.94886 21.1903 10.0859 21.2583C10.5559 21.4913 10.8569 21.9483 11.0319 22.4233C11.2139 22.8793 11.2889 23.3663 11.3179 23.8533C11.3389 24.2093 11.2739 24.7293 11.4729 25.0523C11.5699 25.2103 11.7059 25.4163 11.7769 25.6053C11.8479 25.7953 12.0009 26.0533 12.0109 26.0863C12.0209 26.1183 12.1949 26.2533 12.2309 26.3713C12.2679 26.4893 12.2439 26.7193 12.3189 27.0723C12.3929 27.4253 12.7279 28.4963 12.7719 28.7883C12.8149 29.0803 12.9959 30.1163 12.9599 30.4203C12.9239 30.7243 12.7829 31.4943 12.8809 31.7693C12.9789 32.0443 13.8869 32.8143 13.9649 33.0253C14.0429 33.2363 14.0389 33.3783 14.0759 33.4963C14.1129 33.6143 14.4889 34.2853 14.5059 34.5273C14.5199 34.7433 14.3709 34.9373 14.3379 35.1443C14.2969 35.4063 14.3439 35.7113 14.3879 35.9703C14.4429 36.2913 14.5399 36.6043 14.6749 36.9013C14.7949 37.1643 15.0929 37.4483 15.1569 37.7203C15.3049 38.3483 14.9329 38.9373 15.0279 39.5323C15.0709 39.8023 15.1859 40.0543 15.2999 40.3033C15.4699 40.6743 15.6399 41.0463 15.8099 41.4173C15.8699 41.5473 15.9319 41.6813 16.0359 41.7803C16.1409 41.8793 16.2989 41.9383 16.4349 41.8863C16.5699 41.8353 16.6469 41.6893 16.6609 41.5473C16.6749 41.4053 16.6389 41.2643 16.6099 41.1253C16.5209 40.6853 16.5109 40.2313 16.5789 39.7883C16.6219 39.5083 16.7049 38.8113 17.0069 38.6763C17.2109 38.5853 17.2809 38.7223 17.4369 38.7813C17.6679 38.8693 17.8499 38.8753 18.0969 38.8283C18.3779 38.7753 18.7889 38.7463 19.0219 38.9653C19.2249 39.1563 19.2489 39.5573 19.3589 39.8083C19.4959 40.1203 19.7329 40.6163 19.8889 40.6823C20.0449 40.7473 20.5949 39.6193 20.5939 39.2563C20.5919 38.4773 19.7289 37.3103 19.5469 37.1913C19.3659 37.0723 19.2039 37.4023 19.0219 37.3243C18.8389 37.2463 18.7089 37.0863 18.5869 36.9313C18.3209 36.5933 17.9899 35.8993 17.6899 35.5923C17.4479 35.3443 17.1159 35.1853 16.8419 34.9613C15.8609 34.1363 15.6269 33.3463 15.8139 32.0913C15.8799 31.6493 15.9929 31.2113 16.0139 30.7643C16.0309 30.4003 15.8129 30.0743 15.8089 29.7213C15.8039 29.2473 15.8079 28.4633 16.2739 28.3043C16.5059 28.2253 16.7599 28.2573 17.0029 28.2903C17.3539 28.3383 17.7089 28.3873 18.0359 28.5193C18.5519 28.7283 18.3439 28.9853 18.8999 29.1013C19.1299 29.1493 19.5649 29.6953 19.6779 29.8253C19.8039 29.9713 19.8769 30.1363 20.1039 30.2293C21.3009 30.7203 20.6069 29.0863 20.2319 28.7613C19.7889 28.3773 19.4469 27.9973 19.1089 27.5153C17.7279 25.5473 14.6079 21.7733 14.4589 21.5273C14.3099 21.2823 14.0739 21.3633 14.0199 21.1633C13.9659 20.9633 13.9869 20.7483 13.9249 20.5503C13.8889 20.4363 13.7689 20.2373 13.6279 20.2263C13.3989 20.2083 13.5579 20.3783 13.3799 20.4583C13.1859 20.5453 13.0659 20.3043 13.0629 20.1553C13.0599 20.0183 13.1079 19.8863 13.1239 19.7503C13.1399 19.6143 13.1139 19.4593 13.0019 19.3783C12.8969 19.3033 12.7599 19.3583 12.6879 19.4483C12.0919 18.7503 12.1459 17.3073 12.1579 16.4203C12.2729 16.6133 12.4409 17.1733 12.5029 16.9993C12.5669 16.8233 12.4429 16.2893 12.3519 16.0313C12.2419 15.7193 12.0789 15.4603 11.8619 15.2123C11.4859 14.7813 11.3289 14.3083 11.4629 13.6883C11.4209 13.8833 11.9459 14.3753 12.0739 14.1163C12.2019 13.8573 11.1789 13.1493 10.8819 12.6053C10.4319 11.7793 10.0979 11.1233 9.41186 10.4463C9.33386 10.3693 9.16186 9.99734 9.05886 9.99234Z" stroke="white" stroke-miterlimit="10" stroke-linecap="round" stroke-linejoin="round"/>
</g>
</svg>
