<svg width="100" height="101" viewBox="0 0 100 101" fill="none" xmlns="http://www.w3.org/2000/svg">
<mask id="mask0" mask-type="alpha" maskUnits="userSpaceOnUse" x="0" y="0" width="100" height="101">
<rect y="0.835938" width="100" height="100" fill="#C4C4C4"/>
</mask>
<g mask="url(#mask0)">
<path d="M52.5769 94.873C74.0784 88.8545 89.8509 64.4364 93.7694 45.6781C93.8921 45.0916 93.9906 44.5182 94.0715 43.9537C84.2425 45.8053 80.3733 44.3815 75.3676 43.5472C70.3201 42.7056 65.5122 43.5472 65.5122 43.5472C64.6706 46.5521 60.8248 46.7925 60.8248 46.7925C59.1423 50.278 53.4935 53.5232 53.4935 53.5232C53.4935 53.5232 53.4935 56.4075 51.3303 60.8545C49.167 65.3015 45.8013 80.686 46.0416 86.936C46.1909 90.834 49.8462 93.4537 52.5769 94.873ZM25.6082 16.3845L24.4064 18.7881L31.2577 23.1145L33.3012 20.4706L25.6082 16.3845ZM41.4734 46.1912C46.0409 43.0665 50.9686 44.5087 50.9686 44.5087C50.9686 44.5087 53.1319 42.3454 53.1319 40.0617C53.1319 37.7779 52.1704 35.7345 52.1704 35.7345C50.7283 35.3736 44.3584 32.4893 41.5939 29.3646C38.8294 26.2399 34.503 24.6772 34.503 24.6772C31.6186 24.9176 29.8156 29.3646 29.8156 29.3646C29.8156 29.3646 29.9354 30.8068 31.2577 37.0568C32.5801 43.3069 30.8968 47.393 30.8968 47.393L41.4734 46.1912ZM14.6524 62.4334C14.8964 62.8987 21.6243 92.468 40.7574 95.8359C41.5358 93.303 42.8663 87.8438 41.7144 82.9698C40.1517 76.3588 40.6332 75.1577 43.2771 68.066C45.9211 60.9751 43.2771 54.6045 43.2771 54.6045C43.2771 54.6045 28.8542 53.0425 27.412 52.4412C25.9698 51.84 25.1282 50.0377 25.1282 50.0377C25.1282 50.0377 26.4506 40.1822 26.6902 31.8887C26.9305 23.5953 21.5221 20.8308 21.5221 20.8308C20.4806 20.1097 22.9643 18.0663 22.9643 18.0663L23.9257 15.4216L22.7239 14.5807C22.7239 14.5807 25.8486 12.7776 30.1758 14.5807C34.5022 16.3838 36.1855 19.3879 37.0263 20.8308C37.8672 22.2737 37.0264 22.8742 38.9492 24.5567C40.8721 26.2392 48.8054 28.8839 53.6126 29.2441C58.4198 29.605 58.4198 31.7682 58.4198 31.7682C58.4198 31.7682 59.0203 30.6862 59.8619 27.5615C60.7028 24.4369 63.3475 22.994 64.5493 22.994C65.7511 22.994 69.3572 27.441 68.9963 30.3253C68.6361 33.2096 65.6312 36.6952 65.6312 36.6952L68.1554 36.9355C68.1554 36.9355 68.6361 37.7772 70.6795 38.8584C72.7229 39.9404 78.6121 40.1807 83.2995 39.4597C87.9868 38.7386 93.5158 40.5417 93.5158 40.5417L94.3163 40.4218C94.1693 24.2193 75.6447 18.3897 64.4045 14.0823C52.0234 9.34058 37.3277 0.229002 16.6716 10.5872C-3.98533 20.944 10.8199 52.0862 10.8199 52.0862L14.6524 62.4334Z" fill="#00ADE8"/>
</g>
</svg>
