<svg width="48" height="48" viewBox="0 0 48 48" fill="none" xmlns="http://www.w3.org/2000/svg">
<mask id="mask0" mask-type="alpha" maskUnits="userSpaceOnUse" x="0" y="0" width="48" height="48">
<rect width="48" height="48" fill="#C4C4C4"/>
</mask>
<g mask="url(#mask0)">
<path d="M28.8875 47.6656C40.7748 45.2996 54.7504 16.1331 44.3639 4.78015C33.9775 -6.5728 3.88201e-06 3.59495 2.30444e-06 21.6402C7.26872e-07 39.6855 16.991 50.0315 28.8875 47.6656Z" fill="#00ADE8"/>
<path d="M21.096 16.7074C22.214 14.4354 24.551 12.8724 27.254 12.8724C31.042 12.8724 34.112 15.9434 34.112 19.7304C34.112 21.1504 33.68 22.4704 32.941 23.5654M28.688 16.3344C28.247 16.1474 27.762 16.0444 27.253 16.0444C25.766 16.0444 24.484 16.9254 23.902 18.1944M36.538 17.3394L40 16.5964M29.889 10.4134L30.772 6.98438M39.679 23.1174L36.307 22.0384M23.918 7.13438L24.95 10.5214M18.161 10.8124L20.801 13.1714M36.571 10.2954L34.067 12.7994M29.014 22.3064C28.166 22.3064 27.359 22.4754 26.62 22.7764C25.942 19.1394 22.721 16.3824 18.842 16.3824C14.47 16.3824 10.927 19.8824 10.927 24.1994C10.927 24.3984 10.942 24.5934 10.957 24.7894C8.206 24.8794 6 27.1224 6 29.8944C6 32.7234 8.293 35.0164 11.122 35.0164H29.014C32.524 35.0164 35.369 32.1714 35.369 28.6614C35.369 25.1514 32.523 22.3064 29.014 22.3064Z" stroke="white" stroke-miterlimit="10" stroke-linecap="round" stroke-linejoin="round"/>
</g>
</svg>
