<svg width="100" height="101" viewBox="0 0 100 101" fill="none" xmlns="http://www.w3.org/2000/svg">
<mask id="mask0" mask-type="alpha" maskUnits="userSpaceOnUse" x="0" y="0" width="100" height="101">
<rect y="0.835938" width="100" height="100" fill="#F57E1F"/>
</mask>
<g mask="url(#mask0)">
<path d="M39.3886 45.4757L33.1649 58.2422C33.1649 58.2422 41.782 54.4829 47.3674 48.2241C52.9529 41.9653 58.5383 32.5504 58.5383 32.5504C58.5383 32.5504 44.0166 38.9336 39.3886 45.4757ZM81.1003 92.8153C90.5687 87.4194 95.4573 70.8051 96.1219 55.269C89.6486 61.1238 70.1102 77.9869 44.5802 92.5408C57.8759 96.1083 72.2446 97.862 81.1003 92.8153ZM48.4844 77.2316C50.08 72.6035 55.5059 58.401 54.5485 52.8163L53.272 51.1014C53.272 51.1014 39.5481 63.5077 29.1758 69.891L21.4048 84.4785C26.4025 86.5858 33.0998 89.1607 40.3525 91.3375L48.0057 83.295C48.0057 83.2957 46.8887 81.8596 48.4844 77.2316ZM95.7339 43.0844C95.2011 38.4278 94.2159 34.2565 92.7886 31.0213C86.0387 15.7275 74.5121 4.96871 53.7243 6.02343C52.3007 12.4447 49.0707 25.403 44.3357 35.1034C44.3357 35.1034 57.261 23.4538 59.9743 24.0921C62.6869 24.7303 64.2826 24.8899 64.2826 24.8899C64.2826 24.8899 67.6341 17.2302 70.0275 17.8684C72.421 18.5067 74.496 19.464 73.5386 24.4112C72.5813 29.3584 70.5062 31.2731 70.5062 31.2731C70.5062 31.2731 74.6556 34.3048 74.6556 38.1351C74.6556 41.9646 73.8578 54.731 65.4002 62.7099L62.8465 61.4334L63.8039 56.3267H66.3576C66.3576 56.3267 70.1871 46.7522 68.9106 42.1249C68.9106 42.1249 62.6869 46.7522 61.57 52.178C60.453 57.6039 58.5376 67.1784 56.4632 72.2851C54.3889 77.3919 53.5911 79.3066 53.5911 79.3066C53.5911 79.3066 84.0215 57.3199 95.7339 43.0844ZM3.8793 54.8138C3.8793 54.8138 5.50713 75.0489 17.6507 82.6347C22.3717 71.8057 41.7418 26.7329 45.7352 7.15062C25.4708 11.969 3.31424 31.4612 3.8793 54.8138Z" fill="#00ADE8"/>
</g>
</svg>
