<svg width="184" height="134" viewBox="0 0 184 134" fill="none" xmlns="http://www.w3.org/2000/svg">
<rect width="184" height="133.099" fill="black" fill-opacity="0" transform="translate(-6.86646e-05 0.900391)"/>
<path d="M9.01465 99.7659C9.06552 99.2879 8.92667 98.8091 8.62798 98.4325C8.40865 98.1995 8.14597 98.0116 7.85466 97.8792C7.55466 97.7525 7.228 97.6325 6.88134 97.5125L5.79468 97.1392C5.12802 96.9392 4.40136 96.7125 3.7147 96.4726C3.05159 96.2387 2.42866 95.9036 1.86806 95.4792C1.30792 95.0568 0.851853 94.5117 0.534737 93.8859C0.164272 93.1222 -0.0185701 92.2812 0.00140923 91.4326C-0.0120948 90.6153 0.146919 89.8043 0.468071 89.0526C0.772847 88.3608 1.22839 87.7458 1.80139 87.2526C2.40242 86.7382 3.10396 86.3545 3.86137 86.126C4.7403 85.8573 5.65566 85.7268 6.57467 85.7393C6.988 85.7393 7.51466 85.7393 8.15466 85.8327C8.79135 85.8998 9.42061 86.0247 10.0346 86.206C10.5975 86.3652 11.1278 86.6225 11.6013 86.966C11.8076 87.1017 11.9767 87.2868 12.0931 87.5046C12.2095 87.7223 12.2696 87.9657 12.2679 88.2126C12.2688 88.4403 12.2224 88.6657 12.1318 88.8745C12.0411 89.0833 11.9082 89.2711 11.7413 89.426C11.5456 89.6046 11.3163 89.7425 11.0668 89.8318C10.8173 89.9211 10.5526 89.9599 10.288 89.946C10.0492 89.948 9.81134 89.9166 9.58131 89.8526L8.91465 89.646C8.64798 89.5526 8.34799 89.4593 8.00799 89.3726C7.60264 89.2715 7.1857 89.2244 6.768 89.2326C6.43034 89.2336 6.09344 89.2648 5.76135 89.326C5.45458 89.3835 5.16228 89.5013 4.90136 89.6726C4.65363 89.8448 4.45028 90.0733 4.30803 90.3393C4.14686 90.6473 4.06874 90.9919 4.08137 91.3393C4.05877 91.5711 4.08313 91.8051 4.153 92.0273C4.22287 92.2496 4.33682 92.4554 4.48803 92.6326C4.71593 92.8586 4.97944 93.0455 5.26802 93.1859C5.61215 93.3538 5.96612 93.5008 6.32801 93.6259L7.30133 93.9259C8.00132 94.1459 8.68798 94.3792 9.38131 94.6259C10.0426 94.8639 10.6649 95.1986 11.228 95.6192C11.781 96.0437 12.2358 96.5827 12.5613 97.1992C12.9384 97.9485 13.1195 98.781 13.0879 99.6192C13.1029 100.502 12.9183 101.377 12.5479 102.179C12.2068 102.914 11.7057 103.563 11.0813 104.079C10.4254 104.61 9.67094 105.007 8.86131 105.246C7.95139 105.52 7.00507 105.655 6.05468 105.646C5.43896 105.639 4.82432 105.592 4.2147 105.506C3.53458 105.422 2.86458 105.27 2.21472 105.052C1.65752 104.866 1.13494 104.589 0.668069 104.232C0.46714 104.098 0.301654 103.916 0.185612 103.704C0.0695698 103.492 0.00638696 103.254 0.00140923 103.012C0.00517538 102.787 0.0543401 102.564 0.14597 102.358C0.2376 102.152 0.369819 101.966 0.534737 101.812C0.70942 101.638 0.917628 101.501 1.14679 101.409C1.37595 101.318 1.62131 101.273 1.86806 101.279C2.09333 101.282 2.31733 101.313 2.53472 101.373C2.76805 101.439 3.02138 101.512 3.28137 101.606C3.54137 101.699 4.02137 101.839 4.48136 101.966C5.00375 102.101 5.5418 102.166 6.08134 102.159C6.86288 102.219 7.64075 102.004 8.28132 101.552C8.53249 101.336 8.73006 101.065 8.85847 100.76C8.98688 100.454 9.04263 100.123 9.02131 99.7925L9.01465 99.7659Z" fill="#00ADE8"/>
<path d="M23.2478 93.7126C23.1086 93.2771 23.0038 92.8312 22.9345 92.3793C22.8612 91.8926 22.7945 91.4393 22.7412 91.046C22.6834 91.4637 22.6167 91.9082 22.5412 92.3793C22.475 92.8319 22.3702 93.2779 22.2278 93.7126L20.7345 98.4192H24.6678L23.2478 93.7126ZM18.7546 104.332C18.6183 104.724 18.3526 105.058 18.0012 105.279C17.681 105.489 17.3103 105.609 16.9279 105.626C16.4098 105.637 15.9044 105.465 15.5013 105.139C15.306 104.991 15.1491 104.797 15.0436 104.576C14.9381 104.355 14.887 104.111 14.8946 103.866C14.8891 103.764 14.8891 103.661 14.8946 103.559C14.898 103.456 14.9206 103.354 14.9613 103.259L20.4679 87.606C20.6388 87.1151 20.9037 86.6622 21.2479 86.2727C21.4496 86.0841 21.6882 85.9394 21.9487 85.8476C22.2091 85.7558 22.4858 85.7189 22.7612 85.7393C23.0345 85.7181 23.3094 85.7533 23.5685 85.8428C23.8277 85.9322 24.0658 86.074 24.2678 86.2593C24.6215 86.6466 24.8956 87.0996 25.0745 87.5927L30.5811 103.246C30.6315 103.345 30.661 103.454 30.6678 103.566C30.6678 103.699 30.6678 103.799 30.6678 103.872C30.6759 104.115 30.6277 104.356 30.5271 104.577C30.4265 104.798 30.2761 104.993 30.0878 105.146C29.6788 105.48 29.162 105.653 28.6344 105.632C28.2318 105.625 27.8401 105.5 27.5078 105.272C27.1482 105.057 26.8695 104.729 26.7145 104.339L25.7078 101.566H19.7079L18.7546 104.332Z" fill="#00ADE8"/>
<path d="M40.141 94.8992L46.3276 102.899C46.454 103.04 46.5453 103.209 46.5942 103.392C46.6208 103.538 46.6342 103.685 46.6342 103.832C46.6373 104.061 46.5942 104.288 46.5076 104.499C46.4211 104.72 46.292 104.922 46.1276 105.092C45.9509 105.271 45.746 105.42 45.5209 105.532C45.2702 105.656 44.9937 105.718 44.7143 105.712C44.397 105.719 44.0829 105.649 43.7977 105.51C43.5126 105.371 43.2646 105.166 43.0743 104.912L37.5943 97.7592L37.0877 98.3125V103.926C37.0866 104.163 37.0341 104.397 36.934 104.613C36.8339 104.828 36.6885 105.019 36.5077 105.172C36.1258 105.521 35.6277 105.713 35.111 105.713C34.5943 105.713 34.0963 105.521 33.7144 105.172C33.5336 105.019 33.3881 104.828 33.288 104.613C33.1879 104.397 33.1355 104.163 33.1344 103.926V87.4993C33.1356 87.263 33.1881 87.0297 33.2882 86.8156C33.3883 86.6015 33.5337 86.4117 33.7144 86.2593C34.1022 85.9235 34.598 85.7386 35.111 85.7386C35.6241 85.7386 36.1199 85.9235 36.5077 86.2593C36.6883 86.4117 36.8337 86.6015 36.9339 86.8156C37.034 87.0297 37.0865 87.263 37.0877 87.4993V92.7259L42.6676 86.5393C42.8543 86.3159 43.0802 86.1284 43.3343 85.986C43.6139 85.8242 43.9312 85.7391 44.2543 85.7393C44.4834 85.7427 44.7098 85.7902 44.9209 85.8793C45.1635 85.9665 45.389 86.095 45.5876 86.2593C45.7714 86.4213 45.9269 86.6128 46.0476 86.826C46.1695 87.027 46.2341 87.2576 46.2342 87.4927C46.2352 87.6774 46.2105 87.8614 46.1609 88.0393C46.0722 88.2771 45.9336 88.4931 45.7543 88.6726L40.141 94.8992Z" fill="#00ADE8"/>
<path d="M62.6074 105.086C62.2277 105.433 61.7319 105.625 61.2174 105.625C60.703 105.625 60.2071 105.433 59.8274 105.086C59.6439 104.934 59.4957 104.743 59.3932 104.528C59.2907 104.313 59.2364 104.078 59.2341 103.839V97.4259H53.2342V103.839C53.2317 104.076 53.1787 104.31 53.0787 104.525C52.9787 104.74 52.834 104.931 52.6542 105.086C52.2705 105.433 51.7716 105.625 51.2542 105.625C50.7368 105.625 50.2379 105.433 49.8542 105.086C49.6734 104.932 49.528 104.741 49.4279 104.526C49.3278 104.311 49.2753 104.076 49.2742 103.839V87.4993C49.2754 87.263 49.3279 87.0297 49.428 86.8157C49.5282 86.6016 49.6736 86.4118 49.8542 86.2594C50.2437 85.9243 50.7404 85.74 51.2542 85.74C51.768 85.74 52.2647 85.9243 52.6542 86.2594C52.8338 86.4126 52.9785 86.6026 53.0785 86.8165C53.1786 87.0304 53.2317 87.2632 53.2342 87.4993V93.9059H59.2341V87.4993C59.2365 87.2619 59.2908 87.0278 59.3934 86.8136C59.4959 86.5994 59.644 86.4102 59.8274 86.2594C60.2103 85.9241 60.7019 85.7394 61.2108 85.7394C61.7196 85.7394 62.2112 85.9241 62.5941 86.2594C62.7789 86.409 62.9281 86.5979 63.0307 86.8124C63.1333 87.0269 63.1869 87.2616 63.1874 87.4993V103.839C63.1863 104.076 63.1339 104.311 63.0338 104.526C62.9336 104.741 62.7882 104.932 62.6074 105.086Z" fill="#00ADE8"/>
<path d="M74.234 93.7126C74.0916 93.2779 73.9868 92.8319 73.9206 92.3793C73.8473 91.8926 73.7806 91.4393 73.7273 91.046C73.6651 91.4637 73.5984 91.9082 73.5273 92.3793C73.4612 92.8319 73.3563 93.2779 73.214 93.7126L71.7207 98.4192H75.674L74.234 93.7126ZM69.7407 104.332C69.5959 104.73 69.3179 105.064 68.954 105.279C68.6338 105.489 68.2631 105.609 67.8807 105.626C67.3626 105.637 66.8572 105.465 66.454 105.139C66.258 104.991 66.1001 104.798 65.9934 104.577C65.8868 104.355 65.8344 104.112 65.8407 103.866C65.8407 103.792 65.8407 103.692 65.8407 103.559C65.8409 103.456 65.8636 103.353 65.9074 103.259L71.414 87.606C71.5828 87.1141 71.848 86.6609 72.194 86.2727C72.6233 85.9314 73.1555 85.7456 73.704 85.7456C74.2524 85.7456 74.7846 85.9314 75.214 86.2727C75.5676 86.6599 75.8417 87.113 76.0206 87.606L81.5272 103.259C81.5704 103.354 81.5953 103.455 81.6006 103.559C81.6006 103.692 81.6006 103.792 81.6006 103.866C81.6087 104.108 81.5605 104.35 81.4599 104.57C81.3593 104.791 81.2089 104.986 81.0206 105.139C80.6113 105.472 80.0947 105.645 79.5672 105.626C79.1627 105.617 78.7691 105.492 78.4339 105.266C78.0778 105.048 77.8018 104.72 77.6473 104.332L76.6673 101.566H70.6673L69.7407 104.332Z" fill="#00ADE8"/>
<path d="M96.127 103.619C96.1301 103.855 96.0822 104.088 95.9867 104.303C95.8912 104.518 95.7503 104.71 95.5737 104.866C95.2003 105.209 94.7076 105.394 94.2004 105.379H86.2405C85.6936 105.385 85.164 105.188 84.7538 104.826C84.5559 104.665 84.3964 104.461 84.2868 104.231C84.1773 104 84.1205 103.748 84.1205 103.492V87.4927C84.1217 87.2563 84.1742 87.0231 84.2743 86.809C84.3744 86.5949 84.5199 86.4051 84.7005 86.2527C85.0883 85.9168 85.5841 85.7319 86.0971 85.7319C86.6102 85.7319 87.106 85.9168 87.4938 86.2527C87.6744 86.4051 87.8198 86.5949 87.92 86.809C88.0201 87.0231 88.0726 87.2563 88.0738 87.4927V101.906H94.2004C94.6902 101.901 95.1647 102.077 95.5337 102.399C95.7162 102.544 95.8633 102.729 95.9638 102.939C96.0643 103.149 96.1156 103.379 96.1137 103.612L96.127 103.619Z" fill="#00ADE8"/>
<path d="M98.607 87.4993C98.6082 87.263 98.6607 87.0297 98.7608 86.8156C98.861 86.6015 99.0064 86.4117 99.187 86.2593C99.5765 85.9243 100.073 85.74 100.587 85.74C101.101 85.74 101.598 85.9243 101.987 86.2593C102.168 86.4117 102.313 86.6015 102.413 86.8156C102.513 87.0297 102.566 87.263 102.567 87.4993V103.866C102.567 104.101 102.514 104.334 102.414 104.547C102.314 104.76 102.168 104.949 101.987 105.099C101.599 105.438 101.102 105.625 100.587 105.625C100.072 105.625 99.5746 105.438 99.187 105.099C99.0059 104.949 98.86 104.76 98.7598 104.547C98.6595 104.334 98.6074 104.101 98.607 103.866V87.4993Z" fill="#00ADE8"/>
<path d="M118.833 105.626C118.455 105.626 118.082 105.535 117.747 105.359C117.419 105.203 117.141 104.961 116.94 104.659L110.387 93.5659V103.832C110.387 104.072 110.334 104.309 110.231 104.526C110.128 104.743 109.979 104.934 109.794 105.086C109.411 105.444 108.904 105.638 108.38 105.626C108.126 105.632 107.873 105.588 107.636 105.495C107.399 105.402 107.183 105.263 107 105.086C106.822 104.93 106.679 104.737 106.581 104.521C106.483 104.304 106.433 104.07 106.434 103.832V87.606C106.429 87.3552 106.479 87.1064 106.579 86.8764C106.679 86.6464 106.827 86.4405 107.014 86.2727C107.42 85.9111 107.95 85.72 108.494 85.7393C108.873 85.7406 109.246 85.8344 109.58 86.0127C109.918 86.1858 110.205 86.443 110.414 86.7593L113.654 92.2726C114.147 93.1259 114.66 94.0148 115.193 94.9392C115.72 95.8459 116.313 96.8459 116.973 97.9525V87.5527C116.975 87.3138 117.028 87.078 117.129 86.8617C117.231 86.6453 117.378 86.4535 117.56 86.2993C117.947 85.949 118.452 85.7584 118.973 85.766C119.488 85.7549 119.986 85.9465 120.36 86.2993C120.537 86.4572 120.678 86.6503 120.776 86.8661C120.873 87.082 120.925 87.3158 120.927 87.5527V103.779C120.931 104.03 120.882 104.279 120.781 104.509C120.681 104.739 120.533 104.945 120.347 105.112C119.935 105.49 119.391 105.688 118.833 105.666V105.626Z" fill="#00ADE8"/>
<path d="M137.253 103.646C137.257 103.886 137.206 104.123 137.104 104.34C137.003 104.558 136.853 104.749 136.667 104.899C136.287 105.241 135.791 105.425 135.28 105.413H126C125.465 105.435 124.943 105.246 124.547 104.886C124.366 104.719 124.223 104.514 124.129 104.286C124.034 104.058 123.99 103.813 124 103.566C124 103.343 124.014 103.121 124.04 102.899C124.064 102.669 124.125 102.444 124.22 102.233C124.502 101.636 124.839 101.067 125.227 100.533C125.612 100.002 126.03 99.4964 126.48 99.0194C126.933 98.5394 127.413 98.0794 127.907 97.6261L129.42 96.2928C129.813 95.9461 130.233 95.5861 130.68 95.2195C131.114 94.8583 131.524 94.4685 131.907 94.0528C132.27 93.6587 132.587 93.2248 132.853 92.7595C133.104 92.3212 133.235 91.8246 133.233 91.3195C133.248 90.6626 133.009 90.0253 132.567 89.5395C132.304 89.2835 131.99 89.0863 131.645 88.961C131.3 88.8357 130.933 88.7852 130.567 88.8129C130.131 88.8088 129.695 88.8468 129.267 88.9262C128.898 88.9957 128.538 89.1052 128.193 89.2529C127.87 89.3828 127.558 89.5389 127.26 89.7195C126.936 89.9122 126.564 90.0093 126.187 89.9995C125.703 90.0034 125.232 89.841 124.853 89.5395C124.663 89.3998 124.509 89.2156 124.406 89.003C124.302 88.7904 124.252 88.5558 124.26 88.3196C124.264 88.0671 124.326 87.819 124.441 87.5946C124.557 87.3702 124.723 87.1756 124.927 87.0262C125.413 86.6332 125.967 86.3307 126.56 86.1329C127.236 85.8985 127.932 85.7289 128.64 85.6262C129.284 85.5214 129.935 85.4657 130.587 85.4596C131.527 85.4442 132.464 85.5931 133.353 85.8996C134.108 86.1612 134.806 86.5664 135.407 87.0929C135.95 87.5878 136.381 88.1922 136.673 88.8662C136.968 89.5527 137.118 90.2925 137.113 91.0395C137.144 92.07 136.932 93.0932 136.493 94.0262C136.074 94.8432 135.529 95.5899 134.88 96.2395C134.407 96.7195 133.907 97.1861 133.367 97.6395C132.827 98.0928 132.307 98.5661 131.787 99.0328C131.267 99.4994 130.767 99.9661 130.273 100.433C129.8 100.885 129.367 101.378 128.98 101.906H135.333C135.841 101.894 136.335 102.069 136.72 102.399C136.899 102.546 137.043 102.732 137.141 102.942C137.239 103.152 137.289 103.381 137.287 103.613L137.253 103.646Z" fill="#F57E1F"/>
<path d="M146.18 88.8462C145.803 88.8091 145.423 88.8665 145.074 89.0131C144.724 89.1598 144.417 89.3911 144.18 89.6862C143.759 90.3255 143.551 91.0816 143.587 91.8462V99.5994C143.557 100.299 143.795 100.983 144.253 101.513C144.79 101.981 145.478 102.239 146.19 102.239C146.902 102.239 147.59 101.981 148.126 101.513C148.584 100.983 148.823 100.299 148.793 99.5994V91.8462C148.828 91.0816 148.621 90.3255 148.2 89.6862C147.963 89.3906 147.656 89.159 147.306 89.0123C146.957 88.8656 146.577 88.8085 146.2 88.8462H146.18ZM146.2 85.5129C147.201 85.4892 148.198 85.6613 149.133 86.0196C149.911 86.3238 150.607 86.8055 151.166 87.4262C151.701 88.0306 152.101 88.7419 152.34 89.5129C152.597 90.3371 152.725 91.1961 152.72 92.0595V99.6194C152.726 100.427 152.584 101.23 152.3 101.986C152.024 102.708 151.594 103.361 151.04 103.899C150.453 104.46 149.756 104.894 148.993 105.173C147.182 105.804 145.211 105.804 143.4 105.173C142.637 104.894 141.94 104.46 141.353 103.899C140.801 103.359 140.371 102.707 140.093 101.986C139.809 101.23 139.667 100.427 139.673 99.6194V92.0395C139.668 91.1761 139.796 90.3171 140.053 89.4929C140.292 88.7219 140.692 88.0106 141.227 87.4062C141.786 86.7855 142.482 86.3038 143.26 85.9996C144.197 85.6408 145.196 85.4687 146.2 85.4929V85.5129Z" fill="#F57E1F"/>
<path d="M161.46 90.4729L159.226 91.8062C158.973 91.9626 158.708 92.0986 158.433 92.2128C158.156 92.328 157.859 92.3847 157.56 92.3795C157.126 92.378 156.701 92.2557 156.333 92.0262C156.133 91.8912 155.974 91.7046 155.872 91.4863C155.77 91.2679 155.729 91.026 155.753 90.7862C155.741 90.4736 155.816 90.1639 155.97 89.8918C156.125 89.6197 156.352 89.3962 156.626 89.2462L162.22 86.0529C162.554 85.8597 162.933 85.7564 163.32 85.7529C163.867 85.7322 164.402 85.9178 164.82 86.2729C165.011 86.4375 165.163 86.6424 165.266 86.8729C165.369 87.1035 165.419 87.3539 165.413 87.6062V103.833C165.413 104.069 165.361 104.303 165.261 104.517C165.161 104.732 165.015 104.921 164.833 105.073C164.447 105.413 163.95 105.6 163.436 105.6C162.922 105.6 162.426 105.413 162.04 105.073C161.858 104.921 161.712 104.732 161.612 104.517C161.511 104.303 161.459 104.069 161.46 103.833V90.4729Z" fill="#F57E1F"/>
<path d="M180.046 93.8795C180.046 93.2955 180.009 92.712 179.933 92.1329C179.872 91.6159 179.723 91.1131 179.493 90.6462C179.287 90.2317 178.977 89.8779 178.593 89.6196C178.147 89.3443 177.629 89.2095 177.106 89.2329C176.669 89.2177 176.233 89.302 175.833 89.4796C175.511 89.6321 175.232 89.861 175.02 90.1462C174.808 90.4413 174.654 90.7738 174.566 91.1262C174.472 91.5033 174.425 91.8908 174.426 92.2795C174.368 92.6603 174.399 93.0494 174.516 93.4164C174.633 93.7834 174.833 94.1184 175.101 94.3952C175.368 94.6721 175.697 94.8833 176.06 95.0124C176.423 95.1415 176.81 95.185 177.193 95.1395C177.733 95.1385 178.271 95.0553 178.786 94.8928C179.249 94.7641 179.679 94.5367 180.046 94.2262V93.8795ZM176.573 102.293C177.135 102.334 177.699 102.226 178.206 101.979C178.619 101.757 178.963 101.425 179.199 101.019C179.457 100.567 179.633 100.073 179.719 99.5595C179.831 98.9641 179.911 98.3632 179.959 97.7595C179.479 98.0515 178.961 98.2758 178.419 98.4261C177.927 98.5478 177.421 98.6082 176.913 98.6061C176.077 98.6089 175.247 98.4784 174.453 98.2195C173.701 97.9746 173.008 97.5749 172.42 97.0462C171.814 96.5013 171.336 95.8299 171.02 95.0795C170.657 94.2102 170.479 93.2747 170.5 92.3329C170.493 91.4673 170.631 90.6067 170.906 89.7862C171.169 89.0073 171.599 88.2952 172.166 87.6996C172.761 87.0805 173.482 86.5963 174.28 86.2796C175.225 85.916 176.233 85.7394 177.246 85.7596C178.373 85.7212 179.492 85.9665 180.499 86.4729C181.349 86.9379 182.064 87.6156 182.573 88.4396C183.123 89.3573 183.497 90.3705 183.673 91.4262C183.9 92.6776 184.01 93.9476 183.999 95.2195C183.999 98.575 183.419 101.151 182.259 102.946C181.099 104.742 179.322 105.642 176.926 105.646C176.64 105.646 176.22 105.646 175.666 105.573C175.099 105.525 174.537 105.429 173.986 105.286C173.452 105.149 172.945 104.924 172.486 104.619C172.286 104.497 172.116 104.331 171.989 104.134C171.862 103.936 171.781 103.712 171.753 103.479C171.727 103.269 171.747 103.055 171.813 102.854C171.879 102.652 171.988 102.467 172.133 102.313C172.307 102.126 172.521 101.981 172.758 101.887C172.996 101.794 173.252 101.755 173.506 101.773C173.731 101.774 173.954 101.801 174.173 101.853L174.873 102.033C175.122 102.099 175.382 102.159 175.653 102.213C175.956 102.269 176.264 102.296 176.573 102.293Z" fill="#F57E1F"/>
<path d="M104.714 36.9799C104.783 39.5574 104.081 42.0968 102.699 44.2734C101.317 46.4501 99.3172 48.165 96.9552 49.1989C94.5932 50.2328 91.9765 50.5386 89.4398 50.0773C86.903 49.616 84.5615 48.4086 82.7147 46.6093C80.8679 44.8101 79.5998 42.5009 79.0725 39.977C78.5452 37.4531 78.7827 34.8294 79.7547 32.4412C80.7266 30.0531 82.3888 28.0091 84.5287 26.5708C86.6685 25.1324 89.1888 24.365 91.7671 24.3667C95.1561 24.324 98.4235 25.6286 100.851 27.9937C103.279 30.3588 104.668 33.591 104.714 36.9799Z" fill="#FEE000"/>
<path d="M108.774 77.8396H111.747V68.7863C110.827 68.8997 109.834 69.0597 108.774 69.2663V77.8396ZM120.153 77.8396H123.1V70.593C122.16 70.2663 121.167 69.9263 120.153 69.673V77.8396ZM125.987 71.673V77.8396H128.86V72.8996C128.287 72.6463 127.273 72.2329 125.987 71.6796V71.673ZM114.393 77.8462H117.373V69.013C116.39 68.8232 115.394 68.7051 114.393 68.6597V77.8462ZM54.6675 77.9862H57.5274V70.0196C56.4408 70.293 55.5275 70.5463 54.6675 70.7663V77.9862ZM120 59.8064C120.973 59.7309 121.953 59.7042 122.94 59.7264V36.98C122.94 20.1535 108.94 6.507 91.6071 6.507C74.2739 6.507 60.2741 20.1535 60.2741 36.98V60.0064C61.2141 59.6131 62.1807 59.2531 63.1674 58.9264V36.98C63.1674 21.7202 75.8872 9.35363 91.5671 9.35363C107.247 9.35363 119.973 21.7202 119.973 36.98L120 59.8064ZM114.24 60.5997C115.213 60.4131 116.207 60.2397 117.213 60.0998V36.98C117.213 23.2268 105.747 12.0736 91.6004 12.0736C77.4539 12.0736 66.0007 23.2268 66.0007 36.98V58.1331C66.954 57.9064 67.9207 57.7264 68.9073 57.5931L68.954 36.98C68.954 24.7935 79.1005 14.9136 91.6204 14.9136C104.14 14.9136 114.287 24.7935 114.287 36.98L114.24 60.5997ZM125.827 59.8531C126.794 59.9474 127.754 60.1055 128.7 60.3264V36.9933C128.727 17.0535 112.12 0.900391 91.6271 0.900391C71.134 0.900391 54.5408 17.0535 54.5408 36.98V63.2597C54.9275 63.013 55.4208 62.7264 56.0474 62.3931L57.3808 61.7264V36.98C57.3808 18.5935 72.7139 3.68036 91.6071 3.68036C110.5 3.68036 125.867 18.5935 125.867 36.98L125.827 59.8531ZM71.6273 77.9862H74.4872V70.1196C73.5206 69.9063 72.5539 69.7063 71.6073 69.5263L71.6273 77.9862ZM65.994 77.9862H68.854V69.0863C67.874 68.953 66.9073 68.8597 65.974 68.8197L65.994 77.9862ZM60.3007 62.4464H60.4607C60.8674 62.3731 61.2741 62.3064 61.6941 62.2464H61.8474C62.2807 62.1864 62.714 62.1331 63.1807 62.0864V61.1131C62.1874 61.4464 61.1807 61.8131 60.2941 62.1664L60.3007 62.4464ZM108.667 61.8531L111.64 61.1864V36.98C111.64 26.2334 102.694 17.5269 91.6404 17.5269C80.5872 17.5269 71.6406 26.2334 71.6406 36.98V57.3598C72.6098 57.3235 73.5803 57.3435 74.5472 57.4198L74.6006 36.98C74.6006 27.8268 82.2205 20.4135 91.6137 20.4135C101.007 20.4135 108.667 27.8268 108.667 36.98V61.8531ZM60.3007 69.373V77.9862H63.1607V68.893C62.794 68.9263 62.4274 68.973 62.074 69.033C61.4074 69.1463 60.8407 69.2596 60.2874 69.373H60.3007ZM71.6206 62.0397C72.5873 62.1331 73.5539 62.2464 74.5206 62.3864V60.1864C73.5606 60.0664 72.5873 59.9797 71.6206 59.9397V62.0397ZM66.0007 60.3064V61.8397C66.9473 61.8397 67.9073 61.8397 68.9006 61.8397V59.9331C68.6206 59.9331 68.3406 59.9331 68.0606 59.9864C67.3673 60.0444 66.6789 60.1513 66.0007 60.3064ZM71.6339 66.6997L74.5206 67.553V65.8197C73.5473 65.6397 72.5806 65.4797 71.6339 65.3397V66.6997Z" fill="#00ADE8"/>
<path d="M98.1537 64.6797C91.1804 64.6797 79.4872 58.2264 68.2073 59.1064C64.3141 59.4064 59.3341 61.8797 56.8075 62.6197C52.0742 63.9997 51.6742 63.4997 55.4075 61.5131C60.9808 58.5464 67.6007 55.8998 75.0406 56.5598C80.7272 57.0664 95.2271 62.1531 102.014 62.1531C107.774 62.1531 120.213 56.2131 130.68 60.2331C135.44 62.0597 131.913 63.2264 126.873 61.9731C116.807 59.4664 105.154 64.6797 98.1737 64.6797H98.1537Z" fill="#00ADE8"/>
<path d="M92.4738 67.9189C84.4739 67.9189 71.3607 62.8523 62.8607 64.2323C59.0954 64.9123 55.3952 65.9138 51.8009 67.2256C46.9409 68.8055 43.961 67.6322 48.5742 65.4922C54.9808 62.5256 61.7208 60.439 70.4273 61.039C79.1339 61.6389 87.6205 64.5322 95.4204 64.5322C102.04 64.5322 106.52 62.5323 113.194 62.1856C123.407 61.6389 129.86 62.7123 135.073 64.9722C140.287 67.2322 133.74 67.9789 128.973 66.5456C110.84 61.1123 100.494 67.9189 92.4738 67.9189Z" fill="#F57E1F"/>
<path d="M21.8343 114.399L21.4343 115.066C21.1517 114.871 20.8176 114.764 20.4743 114.759C20.1477 114.759 19.9543 114.899 19.9543 115.126C19.9543 115.352 20.301 115.546 20.7143 115.692C21.2743 115.892 21.941 116.152 21.941 117.026C21.941 117.899 21.3343 118.406 20.3077 118.406C19.7857 118.417 19.2738 118.261 18.8477 117.959L19.1476 117.292C19.5025 117.54 19.9282 117.667 20.361 117.652C20.741 117.652 20.9677 117.492 20.9677 117.226C20.9677 116.959 20.6276 116.766 20.2277 116.626C19.6677 116.432 18.981 116.186 18.981 115.292C18.981 114.399 19.5343 114.032 20.461 114.032C20.9449 114.016 21.4227 114.144 21.8343 114.399Z" fill="#221E1F"/>
<path d="M17.401 121.699H16.201V115.752L15.041 116.339L14.581 115.352L16.461 114.379H17.401V121.699Z" fill="#221E1F"/>
<path d="M24.4942 114.779H25.5742V114.046H22.4609V114.779H23.5343V118.312H24.4942V114.779Z" fill="#221E1F"/>
<path d="M38.4341 114.479L36.3341 121.699H35.0008L33.7408 117.032L33.5075 115.886L33.3342 117.032L32.1208 121.699H30.7875L28.6342 114.479C28.8157 114.346 29.0358 114.276 29.2609 114.279C29.3535 114.261 29.449 114.262 29.5409 114.284C29.6329 114.305 29.7192 114.346 29.7942 114.404C29.8692 114.461 29.9312 114.534 29.976 114.617C30.0208 114.7 30.0475 114.791 30.0542 114.886L31.3342 119.479L31.5809 120.579L31.7808 119.412L33.0542 114.492C33.2285 114.349 33.4486 114.273 33.6742 114.279C33.8621 114.28 34.0436 114.347 34.1864 114.469C34.3293 114.591 34.4242 114.76 34.4542 114.946L35.5941 119.545L35.7875 120.605L36.0208 119.479L37.3541 114.286L38.4341 114.479Z" fill="#221E1F"/>
<path d="M39.9008 114.432V121.699H41.1074V114.992C41.1138 114.901 41.1014 114.809 41.0707 114.723C41.0401 114.636 40.992 114.557 40.9295 114.49C40.8669 114.423 40.7912 114.37 40.7071 114.334C40.6231 114.297 40.5324 114.279 40.4408 114.279C40.2504 114.282 40.0642 114.335 39.9008 114.432Z" fill="#221E1F"/>
<path d="M48.1073 121.699L44.3074 116.466L44.3607 121.699H43.214V114.432C43.3511 114.331 43.5172 114.277 43.6874 114.279C43.8439 114.286 43.9957 114.335 44.1278 114.419C44.2599 114.503 44.3678 114.62 44.4407 114.759L47.9473 119.606L47.9007 114.379H49.0473V121.712L48.1073 121.699Z" fill="#221E1F"/>
<path d="M53.6806 115.326H55.6206V114.379H50.5406V115.326H52.4806V121.699H53.6806V115.326Z" fill="#221E1F"/>
<path d="M61.5539 120.752V121.699H57.1273V114.366H61.4405V115.312H58.3206V117.446H61.0872V118.392H58.3206V120.739L61.5539 120.752Z" fill="#221E1F"/>
<path fill-rule="evenodd" clip-rule="evenodd" d="M68.0005 121.799C68.2307 121.793 68.4575 121.741 68.6671 121.645C68.6008 121.44 68.5626 121.227 68.5538 121.012L68.4538 119.972C68.4361 119.587 68.3096 119.215 68.0889 118.899C67.8683 118.582 67.5625 118.335 67.2071 118.186C67.5769 118.057 67.8967 117.816 68.1207 117.495C68.3446 117.174 68.4612 116.79 68.4538 116.399C68.4538 115.066 67.3605 114.286 65.5071 114.286C64.9805 114.286 64.0472 114.326 63.3338 114.386V121.719H64.5138V118.699H65.7872C65.971 118.684 66.1559 118.708 66.3302 118.768C66.5045 118.828 66.6643 118.924 66.7997 119.05C66.935 119.175 67.0429 119.327 67.1165 119.496C67.19 119.665 67.2277 119.848 67.2271 120.032L67.3338 121.085C67.3805 121.525 67.6004 121.799 68.0005 121.799ZM64.4938 117.732V115.246L65.4671 115.226C66.5738 115.226 67.1738 115.679 67.1738 116.472C67.1738 117.266 66.5738 117.732 65.4605 117.732H64.4938Z" fill="#221E1F"/>
<path d="M75.9071 121.799C73.9071 121.799 72.7271 120.405 72.7271 118.039C72.7271 115.672 73.8737 114.279 75.8004 114.279C76.2763 114.253 76.7503 114.359 77.1693 114.586C77.5884 114.813 77.9361 115.152 78.1737 115.566L77.0604 116.026C76.9434 115.792 76.7635 115.596 76.5408 115.459C76.3181 115.322 76.0617 115.251 75.8004 115.252C74.6471 115.252 73.9604 116.292 73.9604 118.039C73.9604 119.786 74.7271 120.819 76.0071 120.819C76.6866 120.829 77.3494 120.608 77.887 120.192L78.3737 121.032C77.6603 121.556 76.7919 121.826 75.9071 121.799Z" fill="#221E1F"/>
<path d="M85.6936 121.699V114.992C85.7 114.901 85.6877 114.81 85.6575 114.724C85.6273 114.638 85.5798 114.56 85.5179 114.493C85.4561 114.426 85.3812 114.372 85.2979 114.336C85.2146 114.299 85.1247 114.28 85.0336 114.279C84.8456 114.283 84.6618 114.336 84.5003 114.432V117.512H81.0603V114.992C81.0667 114.901 81.0543 114.809 81.0236 114.723C81.0164 114.702 81.0082 114.682 80.9991 114.663C80.9845 114.632 80.9674 114.602 80.9481 114.573C80.9284 114.544 80.9065 114.516 80.8824 114.49C80.8198 114.423 80.7441 114.37 80.66 114.334C80.576 114.297 80.4853 114.279 80.3937 114.279C80.2056 114.283 80.0219 114.336 79.8603 114.432V121.699H81.0537V118.452H84.4936V121.699H85.6936Z" fill="#221E1F"/>
<path d="M87.8136 121.699V114.432C87.9778 114.336 88.1635 114.284 88.3536 114.279C88.4027 114.279 88.4516 114.284 88.4994 114.295C88.5406 114.304 88.581 114.317 88.62 114.334C88.704 114.37 88.7797 114.423 88.8423 114.49C88.9048 114.557 88.9529 114.636 88.9836 114.723C89.0142 114.809 89.0267 114.901 89.0202 114.992V121.699H87.8136Z" fill="#221E1F"/>
<path d="M95.1935 121.699V120.719H92.3335V114.992C92.3399 114.901 92.3274 114.809 92.2968 114.723C92.2662 114.636 92.2181 114.557 92.1555 114.49C92.093 114.423 92.0173 114.37 91.9332 114.334C91.8491 114.297 91.7585 114.279 91.6668 114.279C91.4768 114.284 91.291 114.336 91.1269 114.432V121.699H95.1935Z" fill="#221E1F"/>
<path fill-rule="evenodd" clip-rule="evenodd" d="M102.407 118.039C102.407 120.405 101.007 121.799 98.6401 121.799C98.0402 121.799 97.0735 121.739 96.6402 121.699V114.366C97.0468 114.326 97.8935 114.266 98.6401 114.266C101.007 114.279 102.407 115.672 102.407 118.039ZM101.16 118.039C101.16 116.272 100.22 115.226 98.6268 115.226C98.4135 115.226 98.1068 115.226 97.8735 115.266V120.819C98.1238 120.843 98.3753 120.854 98.6268 120.852C100.22 120.852 101.16 119.806 101.16 118.039Z" fill="#221E1F"/>
<path fill-rule="evenodd" clip-rule="evenodd" d="M108.867 121.799C109.097 121.792 109.323 121.74 109.533 121.645C109.443 121.445 109.385 121.231 109.36 121.012L109.26 119.972C109.241 119.586 109.113 119.214 108.891 118.898C108.67 118.582 108.363 118.335 108.007 118.186C108.377 118.058 108.698 117.816 108.923 117.495C109.148 117.174 109.266 116.791 109.26 116.399C109.26 115.066 108.16 114.286 106.307 114.286C105.78 114.286 104.847 114.326 104.133 114.386V121.719H105.333V118.699H106.653C106.838 118.683 107.023 118.706 107.198 118.766C107.374 118.826 107.534 118.922 107.67 119.047C107.806 119.172 107.915 119.325 107.989 119.494C108.063 119.664 108.101 119.847 108.1 120.032L108.2 121.085C108.247 121.525 108.473 121.799 108.867 121.799ZM105.353 117.732V115.246L106.327 115.226C107.44 115.226 108.04 115.679 108.04 116.472C108.04 117.266 107.44 117.732 106.32 117.732H105.353Z" fill="#221E1F"/>
<path d="M115.627 120.752V121.699H111.2V114.366H115.513V115.312H112.4V117.446H115.16V118.392H112.4V120.739L115.627 120.752Z" fill="#221E1F"/>
<path d="M118.487 116.466L122.287 121.699L123.22 121.712V114.379H122.073L122.12 119.606L118.62 114.759C118.546 114.621 118.438 114.505 118.306 114.421C118.174 114.336 118.023 114.288 117.867 114.279C117.694 114.276 117.526 114.33 117.387 114.432V121.699H118.533L118.487 116.466Z" fill="#221E1F"/>
<path fill-rule="evenodd" clip-rule="evenodd" d="M127.72 118.039C127.72 115.672 128.98 114.279 131.113 114.279C133.246 114.279 134.506 115.672 134.506 118.039C134.506 120.405 133.246 121.799 131.113 121.799C128.98 121.799 127.72 120.405 127.72 118.039ZM133.26 118.039C133.26 116.292 132.46 115.252 131.106 115.252C129.753 115.252 128.953 116.292 128.953 118.039C128.953 119.785 129.753 120.819 131.106 120.819C132.46 120.819 133.26 119.785 133.26 118.039Z" fill="#221E1F"/>
<path d="M137.466 117.766V115.326L140.386 115.312V114.366H136.266V121.699H137.466V118.706H139.853V117.766H137.466Z" fill="#221E1F"/>
<path fill-rule="evenodd" clip-rule="evenodd" d="M148.106 119.965H145.193L144.613 121.699H143.433L146.053 114.432C146.261 114.332 146.489 114.28 146.72 114.279C146.914 114.278 147.104 114.344 147.256 114.465C147.409 114.586 147.516 114.756 147.56 114.946L150 121.699H148.666L148.106 119.965ZM147.793 119.026L146.666 115.612L145.526 119.026H147.793Z" fill="#221E1F"/>
<path d="M155.1 115.812L155.606 114.959C154.954 114.5 154.177 114.253 153.38 114.252C151.906 114.252 151.033 114.952 151.033 116.286C151.033 117.722 152.114 118.13 153.066 118.489L153.073 118.492C153.853 118.799 154.52 119.066 154.52 119.826C154.52 120.459 154.039 120.819 153.226 120.819C152.511 120.834 151.81 120.619 151.226 120.205L150.84 121.085C151.536 121.573 152.37 121.823 153.22 121.799C154.826 121.799 155.766 121.039 155.766 119.606C155.766 118.172 154.68 117.746 153.72 117.386C152.953 117.092 152.286 116.812 152.286 116.146C152.286 115.592 152.7 115.252 153.413 115.252C154.019 115.265 154.607 115.46 155.1 115.812Z" fill="#221E1F"/>
<path d="M157.5 121.699V114.432C157.661 114.336 157.845 114.283 158.033 114.279C158.124 114.279 158.215 114.297 158.299 114.334C158.324 114.344 158.348 114.357 158.371 114.37C158.379 114.375 158.387 114.379 158.394 114.384L158.401 114.388L158.407 114.393C158.449 114.421 158.487 114.453 158.522 114.49C158.584 114.557 158.632 114.636 158.663 114.723C158.693 114.809 158.706 114.901 158.7 114.992V121.699H157.5Z" fill="#221E1F"/>
<path fill-rule="evenodd" clip-rule="evenodd" d="M161.786 119.965H164.699L165.313 121.692H166.606L164.179 114.946C164.134 114.755 164.026 114.586 163.872 114.465C163.719 114.344 163.528 114.278 163.333 114.279C163.102 114.281 162.875 114.333 162.666 114.432L160 121.699H161.206L161.786 119.965ZM163.239 115.612L164.386 119.026H162.099L163.239 115.612Z" fill="#221E1F"/>
<path d="M10.5477 133.892V126.625C10.7119 126.53 10.8977 126.477 11.0877 126.472C11.1794 126.472 11.27 126.491 11.3541 126.527C11.4382 126.563 11.5139 126.617 11.5764 126.684C11.639 126.75 11.6871 126.83 11.7177 126.916C11.7483 127.002 11.7608 127.094 11.7544 127.185V133.892H10.5477Z" fill="#221E1F"/>
<path d="M14.961 128.659L18.761 133.892L19.6943 133.905V126.572H18.5477L18.601 131.799L15.0944 126.952C15.0214 126.813 14.9136 126.696 14.7815 126.612C14.6493 126.528 14.4975 126.48 14.341 126.472C14.1688 126.471 14.0006 126.524 13.8611 126.625V133.892H15.0144L14.961 128.659Z" fill="#221E1F"/>
<path d="M26.2676 127.519H24.3276V133.892H23.1343V127.519H21.1876V126.572H26.2676V127.519Z" fill="#221E1F"/>
<path d="M32.2075 133.892V132.945L28.9742 132.932V130.585H31.7409V129.639H28.9742V127.505H32.0942V126.559H27.7742V133.892H32.2075Z" fill="#221E1F"/>
<path fill-rule="evenodd" clip-rule="evenodd" d="M39.3341 133.839C39.1242 133.933 38.8976 133.986 38.6674 133.992C38.2741 133.992 38.0474 133.719 38.0008 133.279L37.8874 132.232C37.8881 132.047 37.8502 131.864 37.7763 131.694C37.7023 131.525 37.5938 131.372 37.4577 131.247C37.3217 131.121 37.161 131.026 36.9859 130.966C36.8108 130.906 36.6252 130.883 36.4408 130.899H35.1608V133.919H34.0008V126.585C34.7075 126.525 35.6408 126.485 36.1741 126.485C38.0207 126.485 39.1208 127.272 39.1208 128.599C39.1277 128.991 39.0102 129.375 38.785 129.696C38.5598 130.017 38.2385 130.258 37.8674 130.385C38.2246 130.535 38.532 130.783 38.7538 131.101C38.9757 131.418 39.1029 131.792 39.1208 132.179L39.2208 133.212C39.2272 133.425 39.2654 133.637 39.3341 133.839ZM35.1541 127.439V129.925H36.1208C37.2408 129.925 37.8408 129.459 37.8408 128.665C37.8408 127.872 37.2408 127.419 36.1341 127.419L35.1541 127.439Z" fill="#221E1F"/>
<path d="M42.1007 128.659L45.9007 133.892L46.8407 133.905V126.572H45.694L45.7407 131.799L42.2341 126.952C42.1611 126.813 42.0533 126.696 41.9212 126.612C41.789 126.528 41.6372 126.48 41.4808 126.472C41.3105 126.471 41.1445 126.524 41.0074 126.625V133.892H42.1541L42.1007 128.659Z" fill="#221E1F"/>
<path fill-rule="evenodd" clip-rule="evenodd" d="M52.8673 132.165H49.9473L49.3673 133.892H48.1873L50.814 126.625C51.0218 126.525 51.2497 126.472 51.4806 126.472C51.676 126.473 51.8656 126.538 52.019 126.659C52.1725 126.78 52.2811 126.949 52.3273 127.139L54.7539 133.885H53.4406L52.8673 132.165ZM52.5473 131.219L51.4006 127.805L50.2606 131.219H52.5473Z" fill="#221E1F"/>
<path d="M57.9539 127.519H59.9005V126.572H54.8139V127.519H56.7606V133.892H57.9539V127.519Z" fill="#221E1F"/>
<path d="M61.4005 133.892V126.625C61.5647 126.53 61.7505 126.477 61.9405 126.472C62.0322 126.472 62.1228 126.491 62.2069 126.527C62.291 126.563 62.3667 126.617 62.4292 126.684C62.4918 126.75 62.5399 126.83 62.5705 126.916C62.6011 127.002 62.6136 127.094 62.6072 127.185V133.892H61.4005Z" fill="#221E1F"/>
<path fill-rule="evenodd" clip-rule="evenodd" d="M67.7405 126.472C65.6072 126.472 64.3472 127.865 64.3472 130.232C64.3472 132.599 65.6072 133.992 67.7405 133.992C69.8738 133.992 71.1337 132.599 71.1337 130.232C71.1337 127.865 69.8738 126.472 67.7405 126.472ZM67.7338 127.445C69.0871 127.445 69.8871 128.485 69.8871 130.232C69.8871 131.979 69.0871 133.019 67.7338 133.019C66.3805 133.019 65.5805 131.979 65.5805 130.232C65.5805 128.485 66.3805 127.445 67.7338 127.445Z" fill="#221E1F"/>
<path d="M77.7937 133.892L73.9937 128.659L74.0471 133.892H72.8937V126.625C73.0333 126.524 73.2015 126.471 73.3737 126.472C73.5302 126.48 73.682 126.528 73.8142 126.612C73.9463 126.696 74.0541 126.813 74.1271 126.952L77.6337 131.799L77.5804 126.572H78.727V133.905L77.7937 133.892Z" fill="#221E1F"/>
<path fill-rule="evenodd" clip-rule="evenodd" d="M81.8403 132.165H84.7536L85.3336 133.885H86.6403L84.207 127.139C84.1621 126.949 84.0548 126.781 83.9025 126.66C83.7501 126.539 83.5615 126.473 83.367 126.472C83.1361 126.473 82.9084 126.526 82.7003 126.625L80.0803 133.892H81.2603L81.8403 132.165ZM83.2936 127.805L84.4403 131.219H82.1536L83.2936 127.805Z" fill="#221E1F"/>
<path d="M92.0402 132.899V133.872H88.0002V126.605C88.1644 126.51 88.3502 126.457 88.5402 126.452C88.6318 126.452 88.7225 126.471 88.8066 126.507C88.8907 126.543 88.9664 126.597 89.0289 126.664C89.0915 126.731 89.1396 126.81 89.1702 126.896C89.2008 126.982 89.2133 127.074 89.2069 127.165V132.899H92.0402Z" fill="#221E1F"/>
<path d="M99.7401 128.005L100.253 127.152C99.6042 126.712 98.8377 126.478 98.0535 126.479C96.5802 126.479 95.7068 127.179 95.7068 128.479C95.7068 129.918 96.7922 130.325 97.7517 130.685L97.7535 130.685C98.5268 130.992 99.1935 131.259 99.1935 132.019C99.1935 132.652 98.7201 133.019 97.9068 133.019C97.1787 133.046 96.4627 132.827 95.8735 132.399L95.4868 133.279C96.18 133.767 97.0127 134.017 97.8601 133.992C99.4668 133.992 100.413 133.232 100.413 131.799C100.413 130.365 99.3268 129.939 98.3601 129.585C97.5935 129.285 96.9268 129.012 96.9268 128.345C96.9268 127.785 97.3468 127.445 98.0535 127.445C98.6593 127.458 99.2472 127.653 99.7401 128.005Z" fill="#221E1F"/>
<path fill-rule="evenodd" clip-rule="evenodd" d="M107.26 128.752C107.26 130.212 106.207 131.079 104.407 131.079C104.073 131.079 103.707 131.079 103.34 131.045V133.892H102.14V126.559C102.88 126.499 103.827 126.459 104.42 126.459C106.207 126.472 107.26 127.319 107.26 128.752ZM106.027 128.752C106.027 127.919 105.433 127.419 104.42 127.419H103.34V130.085H104.407C105.433 130.132 106 129.612 106 128.752H106.027Z" fill="#221E1F"/>
<path fill-rule="evenodd" clip-rule="evenodd" d="M111.847 126.472C109.713 126.472 108.453 127.865 108.453 130.232C108.453 132.599 109.713 133.992 111.847 133.992C113.98 133.992 115.24 132.599 115.24 130.232C115.24 127.865 113.98 126.472 111.847 126.472ZM111.833 127.445C113.187 127.445 113.993 128.485 113.993 130.232H114C114 131.979 113.18 133.019 111.833 133.019C110.487 133.019 109.68 131.979 109.68 130.232C109.68 128.485 110.48 127.445 111.833 127.445Z" fill="#221E1F"/>
<path fill-rule="evenodd" clip-rule="evenodd" d="M122.373 133.839C122.164 133.934 121.937 133.986 121.707 133.992C121.307 133.992 121.087 133.719 121.04 133.279L120.933 132.225C120.934 132.041 120.896 131.858 120.823 131.689C120.749 131.52 120.641 131.368 120.506 131.243C120.37 131.117 120.211 131.022 120.036 130.961C119.862 130.901 119.677 130.877 119.493 130.892H118.2V133.912H117V126.579C117.713 126.519 118.647 126.479 119.173 126.479C121.027 126.479 122.12 127.265 122.12 128.592C122.127 128.983 122.011 129.367 121.787 129.688C121.563 130.009 121.243 130.251 120.873 130.379C121.23 130.529 121.536 130.777 121.757 131.094C121.978 131.412 122.103 131.786 122.12 132.172L122.22 133.205C122.242 133.422 122.293 133.636 122.373 133.839ZM118.2 127.439V129.925H119.167C120.28 129.925 120.88 129.459 120.88 128.665C120.88 127.872 120.28 127.419 119.173 127.419L118.2 127.439Z" fill="#221E1F"/>
<path d="M126.346 127.519H128.286V126.572H123.207V127.519H125.153V133.892H126.346V127.519Z" fill="#221E1F"/>
<path d="M134 127.152L133.486 128.005C132.993 127.653 132.406 127.458 131.8 127.445C131.093 127.445 130.673 127.785 130.673 128.345C130.673 129.012 131.34 129.285 132.106 129.585C133.073 129.939 134.16 130.365 134.16 131.799C134.16 133.232 133.213 133.992 131.606 133.992C130.759 134.017 129.926 133.767 129.233 133.279L129.62 132.399C130.2 132.821 130.903 133.039 131.62 133.019C132.433 133.019 132.913 132.652 132.913 132.019C132.913 131.259 132.246 130.992 131.473 130.685L131.471 130.685C130.512 130.325 129.426 129.918 129.426 128.479C129.426 127.179 130.3 126.479 131.773 126.479C132.566 126.472 133.343 126.707 134 127.152Z" fill="#221E1F"/>
<path d="M143.379 133.926C143.459 133.964 143.545 133.987 143.633 133.992C143.821 133.981 144.002 133.921 144.16 133.819V129.819H141.366V130.765H142.96V131.559C142.972 131.762 142.939 131.966 142.864 132.156C142.789 132.345 142.673 132.516 142.526 132.657C142.378 132.797 142.201 132.903 142.007 132.968C141.814 133.033 141.609 133.055 141.406 133.032C140.186 133.032 139.466 131.992 139.466 130.245C139.466 128.499 140.173 127.459 141.373 127.459C141.638 127.459 141.899 127.53 142.127 127.667C142.354 127.803 142.541 127.998 142.666 128.232L143.786 127.765C143.551 127.352 143.205 127.011 142.787 126.783C142.369 126.554 141.895 126.447 141.42 126.472C139.426 126.472 138.24 127.865 138.24 130.232C138.24 132.599 139.306 133.992 141.113 133.992C141.472 134.022 141.832 133.963 142.163 133.82C142.493 133.677 142.783 133.454 143.006 133.172V133.279C143.003 133.322 143.004 133.365 143.01 133.408C143.015 133.452 143.025 133.496 143.039 133.539C143.068 133.623 143.112 133.7 143.17 133.766C143.229 133.833 143.3 133.887 143.379 133.926Z" fill="#221E1F"/>
<path fill-rule="evenodd" clip-rule="evenodd" d="M149.906 132.165H146.986L146.406 133.892H145.233L147.853 126.625C148.061 126.525 148.289 126.472 148.52 126.472C148.715 126.473 148.905 126.538 149.058 126.659C149.212 126.78 149.32 126.949 149.366 127.139L151.793 133.885H150.506L149.906 132.165ZM149.586 131.219L148.44 127.805L147.333 131.219H149.586Z" fill="#221E1F"/>
<path d="M159.293 128.405L159.853 133.892H161.093L160.28 127.185C160.213 126.659 159.993 126.472 159.546 126.472C159.347 126.473 159.153 126.531 158.986 126.639L156.986 132.679L155.066 127.019C154.999 126.841 154.875 126.691 154.713 126.592C154.552 126.493 154.361 126.451 154.173 126.472C153.964 126.481 153.76 126.533 153.573 126.625L152.76 133.892H153.866L154.386 128.372L156.3 133.892H157.433L159.293 128.405Z" fill="#221E1F"/>
<path d="M167.253 132.945V133.892H162.819V126.559H167.139V127.505H163.999V129.639H166.766V130.585H163.999V132.932L167.253 132.945Z" fill="#221E1F"/>
<path d="M172.779 128.005L173.286 127.152C172.64 126.711 171.875 126.477 171.093 126.479C169.619 126.479 168.746 127.179 168.746 128.479C168.746 129.915 169.827 130.323 170.779 130.683L170.786 130.685C171.566 130.992 172.233 131.259 172.233 132.019C172.233 132.652 171.753 133.019 170.939 133.019C170.212 133.043 169.496 132.825 168.906 132.399L168.519 133.279C169.215 133.766 170.05 134.016 170.899 133.992C172.506 133.992 173.453 133.232 173.453 131.799C173.453 130.365 172.366 129.939 171.399 129.585C170.633 129.285 169.966 129.012 169.966 128.345C169.966 127.785 170.379 127.445 171.093 127.445C171.698 127.458 172.286 127.653 172.779 128.005Z" fill="#221E1F"/>
<path d="M113.834 67.766C108.147 67.766 97.0005 71.846 89.2872 71.846C81.574 71.846 69.9941 66.786 62.2208 68.1527C58.3542 68.8193 56.1809 69.486 54.2209 70.006C48.6677 71.3926 48.7877 70.006 52.9343 68.006C59.0942 65.0394 63.0742 64.3327 67.6008 64.846C71.6007 65.2927 82.2006 69.726 89.7006 69.726C96.0672 69.726 107.867 65.0594 114.287 65.0594C123.287 65.0594 131.013 68.5527 136.013 70.8127C141.013 73.0726 134.14 74.2793 129.107 72.106C127.48 71.4393 119.554 67.766 113.86 67.766" fill="#00B36E"/>
</svg>
