<svg width="127" height="124" viewBox="0 0 127 124" fill="none" xmlns="http://www.w3.org/2000/svg">
<path d="M9.24707 9.48054C32.5011 -13.7621 113.485 9.94859 124.284 35.3031C135.084 60.6577 97.5714 123.582 54.7848 123.582C11.9983 123.582 -13.9956 32.7232 9.24707 9.48054Z" fill="white"/>
<path d="M51.7468 64.4552C53.6224 69.676 53.6224 75.3869 51.7468 80.6077C48.5732 89.1162 47.9931 90.5609 49.87 98.4892C51.2577 104.347 49.6538 110.899 48.7325 113.937C25.7322 109.887 17.6218 74.4083 17.3602 73.8509L12.8101 61.4294C12.8101 61.4294 -5.00314 24.0739 19.783 11.641C44.5692 -0.791945 62.2119 10.1395 77.0676 15.827C90.547 21.0026 112.785 27.9982 112.956 47.4381L112 47.586C112 47.586 105.357 45.4248 99.7381 46.2893C94.1188 47.1538 87.0094 46.8239 84.5979 45.5613C83.4121 45.0673 82.3682 44.2854 81.5608 43.2863L78.535 43.0019C78.535 43.0019 82.1409 38.8159 82.5732 35.3579C83.0054 31.8999 78.6829 26.565 77.2383 26.565C75.7936 26.565 72.62 28.2599 71.619 32.0364C71.219 33.7766 70.6356 35.4696 69.8786 37.0869C69.8786 37.0869 69.8786 34.4934 64.1115 34.0611C58.3444 33.6289 48.8235 30.4211 46.5143 28.3964C44.2052 26.3716 45.2176 25.6664 44.2393 23.926C42.4768 20.5328 39.5661 17.8761 36.0266 16.4298C34.6269 15.7764 33.1009 15.4377 31.5562 15.4377C30.0114 15.4377 28.4855 15.7764 27.0858 16.4298L28.519 17.4422L27.3815 20.6158C27.3815 20.6158 24.3558 23.0615 25.5843 23.926C25.5843 23.926 32.0681 27.2475 31.7837 37.2006C31.4993 47.1538 29.9068 58.9724 29.9068 58.9724C30.4903 60.2024 31.4505 61.2144 32.6482 61.8617C34.3999 62.5783 51.7468 64.4552 51.7468 64.4552ZM90.2172 51.1919C86.2961 50.5988 82.3082 50.5988 78.3871 51.1919C77.3861 54.7978 72.7679 55.0822 72.7679 55.0822C70.7431 59.2682 63.975 63.1584 63.975 63.1584C63.725 66.2418 62.838 69.2397 61.3701 71.9627C58.7766 77.2976 54.7385 95.7365 55.0229 103.255C55.2049 107.931 59.5729 111.07 62.8716 112.776C88.6702 105.553 107.598 76.2511 112.296 53.7399C112.444 53.046 112.569 52.3522 112.66 51.681C100.864 53.8992 96.2232 52.1929 90.2172 51.1919ZM30.5097 18.5911L29.0651 21.4803L37.2892 26.6674L39.7348 23.4937L30.5097 18.5911ZM49.5515 54.3655C51.2067 53.2648 53.071 52.5169 55.0281 52.1685C56.9852 51.8201 58.9931 51.8788 60.9265 52.3408C60.9265 52.3408 63.5314 49.7473 63.5314 47.0059C63.4954 45.2191 63.1089 43.4567 62.3939 41.8189C60.6649 41.3866 53.0208 37.9173 49.6993 34.1749C47.314 31.6787 44.4093 29.7371 41.1908 28.4874C37.7783 28.7717 35.5716 34.1749 35.5716 34.1749C35.5716 34.1749 35.7081 35.9039 37.3006 43.4C38.8931 50.8962 36.8683 55.7988 36.8683 55.7988L49.5515 54.3655Z" fill="#00ADE8"/>
</svg>
