<svg width="120" height="124" viewBox="0 0 120 124" fill="none" xmlns="http://www.w3.org/2000/svg">
<path d="M47.774 0.861064C18.0603 6.95295 -16.8734 82.0518 9.08884 111.284C35.0511 140.516 119.982 114.335 119.982 67.8718C119.982 21.4083 77.5107 -5.23082 47.774 0.861064Z" fill="white"/>
<path d="M95.9072 95.7977C88.5763 103.484 76.5416 110.033 63.658 113.526L63.9678 108.838C64.8196 107.436 65.4576 105.914 65.8608 104.323C66.0101 103.554 65.9845 102.761 65.7859 102.003C65.5873 101.245 65.2207 100.542 64.7135 99.9454C64.7135 99.9454 67.1916 85.6755 68.7862 77.9545C69.7524 73.3052 69.8999 68.5226 69.2222 63.8225L75.337 56.676L77.6315 58.5718C77.6315 58.5718 85.6622 51.5862 86.2129 49.6904C86.7636 47.7946 84.1364 42.5554 84.1364 42.5554C84.1364 42.5554 87.1881 37.8907 87.3372 34.6851C87.4864 31.4796 74.3963 24.9191 74.3963 24.9191L69.1534 25.3557L64.9429 30.7557C67.8455 23.7586 67.5587 20.553 66.0902 17.3475C64.6217 14.1419 62.1666 15.6011 58.1398 17.3475C54.1129 19.0939 53.7229 26.9642 53.7229 26.9642C53.7229 26.9642 47.9063 30.3191 46.0134 32.64C44.1204 34.9609 40.346 67.4646 40.346 67.4646C38.6597 69.6393 36.8112 71.6826 34.8163 73.577C34.0756 74.1768 33.519 74.9737 33.2105 75.8761C32.902 76.7786 32.8541 77.7499 33.0724 78.6784C33.0724 78.6784 27.2559 84.2163 25.0417 86.5487C22.8275 88.8811 24.1583 92.2245 24.1583 92.2245C23.363 94.1104 23.0173 96.156 23.1487 98.199L25.9136 94.1203L31.145 93.5343C31.145 93.5343 33.7608 86.25 35.3669 83.0444C36.9731 79.8388 44.5449 77.0813 44.5449 77.0813L47.0229 72.1179L48.3308 80.7235L29.6422 101.117H19.4546C17.1601 101.117 15.6113 103.013 14.7968 104.461C14.5788 104.197 14.3608 103.932 14.1543 103.657C10.641 99.4972 8.20786 94.5333 7.07106 89.2056C5.93425 83.878 6.129 78.3516 7.63796 73.1175C12.8235 55.0675 26.1316 17.3819 45.6463 9.92527C65.161 2.46859 94.3354 21.0931 103.571 39.3613C112.806 57.6296 113.873 76.932 95.9072 95.7977ZM58.1972 92.3509C57.7388 89.6064 57.5276 86.8263 57.5662 84.044L60.4802 80.7005L58.1857 72.3936L56.396 74.8639C56.396 74.8639 56.5336 80.8384 55.5126 82.0103C54.4915 83.1823 49.5584 86.0891 49.5584 86.0891L48.9733 84.3427L32.1087 107.08L22.7357 111.136C32.9004 116.996 46.7132 117.398 60.0442 114.422L60.767 109.999L58.1972 107.816C58.1972 107.816 58.9773 97.4752 58.1972 92.3739V92.3509ZM56.6025 62.2369L53.4016 65.1323L55.0078 72.7038L58.2545 68.9238L56.6025 62.2369ZM71.0922 38.7639L69.3484 60.1803L74.5799 53.4819L73.272 50.1385L77.643 37.7528C77.643 37.7528 73.272 36.5809 71.0922 38.7639Z" fill="#00ADE8"/>
</svg>
