<svg width="100" height="101" viewBox="0 0 100 101" fill="none" xmlns="http://www.w3.org/2000/svg">
<mask id="mask0" mask-type="alpha" maskUnits="userSpaceOnUse" x="0" y="0" width="100" height="101">
<rect y="0.835938" width="100" height="100" fill="#F57E1F"/>
</mask>
<g mask="url(#mask0)">
<path d="M70.8075 79.2365L57.7863 80.2131L58.7629 82.0034L70.8075 79.2365ZM71.6213 38.2182C71.6213 38.2182 64.6221 42.6134 62.3435 42.2879C60.0649 41.9624 54.9373 35.6141 54.9373 35.6141C53.3911 40.6603 48.996 46.8451 48.996 46.8451C60.5532 54.4953 60.8787 60.1926 60.8787 60.1926C56.8098 66.0525 57.6228 76.4697 57.6228 76.4697L68.0399 75.8186L73.4116 40.8231L71.6213 38.2182ZM44.1133 56.6119C40.5327 60.8443 41.672 64.5877 32.7196 70.6104C23.7673 76.6332 23.7673 76.6332 23.7673 76.6332L24.4183 80.8648L54.0429 76.7952C54.0429 76.7952 53.5546 70.9359 52.5781 68.0056C51.6016 65.076 54.8567 59.0533 54.8567 59.0533C54.8567 59.0533 47.6939 52.3795 44.1133 56.6119ZM19.3721 81.1896C19.3721 81.1896 19.0466 80.3758 17.7446 78.4227C16.4425 76.4697 18.3956 75.4931 18.3956 75.4931C32.0686 67.029 40.0437 45.2182 41.3465 39.3583C42.6485 33.4983 38.4168 30.0804 38.4168 30.0804L32.3941 31.8708C32.3941 31.8708 30.7666 33.8238 27.999 37.0797C25.2321 40.3348 27.999 45.9506 27.999 45.9506L2.57839 57.1271C3.35858 67.3725 5.83875 76.4308 10.7774 83L19.3721 81.1896ZM25.4882 92.8207C26.8582 93.1805 28.3237 93.5157 29.8624 93.8248L52.4146 83.6317L53.3912 80.7021L14.1109 86.7009C17.1802 89.526 20.937 91.6261 25.4882 92.8207ZM27.1852 27.4756C27.1852 27.4756 28.3245 27.3128 35.4865 23.7322C42.6485 20.1508 44.9271 24.0577 45.5781 21.7791C46.2291 19.5005 45.0898 13.9661 47.2057 12.1758C49.3215 10.3855 52.7401 11.362 54.5304 15.9192C56.3208 20.4771 52.5774 23.895 52.5774 23.895L57.9491 25.6853C57.9491 25.6853 60.2276 33.9866 62.6697 35.6141C65.1111 37.2417 76.0172 32.8473 76.0172 32.8473L77.3193 37.7307L69.5062 75.6559L82.0392 74.6793L97.3584 69.4383C99.864 50.1823 88.3867 28.6179 71.3137 18.2284C51.8039 6.35462 30.7046 2.82998 18.5121 8.68323C18.5121 8.68323 4.79726 16.2006 2.88002 37.2641C2.31336 43.4892 2.13492 49.5903 2.46118 55.3524L22.3032 45.9499C21.488 37.2417 27.1852 27.4756 27.1852 27.4756ZM95.4054 77.5052C95.6913 76.719 95.9459 75.9246 96.1773 75.1236C81.1366 79.5478 50.0285 89.7507 35.0102 94.7103C56.9009 97.896 88.8279 95.5756 95.4054 77.5052Z" fill="#F57E1F"/>
</g>
</svg>
