<svg width="100" height="101" viewBox="0 0 100 101" fill="none" xmlns="http://www.w3.org/2000/svg">
<mask id="mask0" mask-type="alpha" maskUnits="userSpaceOnUse" x="0" y="0" width="100" height="101">
<rect y="0.835938" width="100" height="100" fill="#C4C4C4"/>
</mask>
<g mask="url(#mask0)">
<path d="M28.6558 49.3081L30.8916 44.3567L22.1074 50.8084L28.6558 49.3081ZM32.1391 34.6956C32.1589 34.6443 32.1699 34.6143 32.1699 34.6143C32.1582 34.6414 32.1501 34.6678 32.1391 34.6956ZM74.192 81.1461C82.7528 72.9846 89.1942 63.7997 92.972 55.0492L44.5004 95.2714C55.5145 93.648 66.2913 88.679 74.192 81.1461ZM48.301 68.3137C35.2042 62.7243 38.0795 58.0923 43.6689 54.9774C49.2591 51.8633 54.53 46.2731 54.53 46.2731C54.53 46.2731 51.4957 42.1209 42.7115 43.2381L43.51 39.8844L35.684 52.6618C35.684 52.6618 28.8162 55.2169 18.2753 54.9774C18.2753 54.9774 12.3657 54.2587 13.1642 52.6618C13.9627 51.0648 15.5597 47.3587 18.2753 50.8091L30.5729 42.4403L32.1699 38.7665C32.1699 38.7665 31.2381 36.8962 32.1391 34.6956C31.8717 35.382 29.8279 40.2858 26.2603 39.2456C22.4275 38.1277 21.9484 30.7808 25.2222 26.3085C28.4961 21.8369 33.4475 28.7039 33.4475 28.7039C33.4475 28.7039 43.7144 24.7107 50.0005 27.4264L42.8705 34.1345L74.8132 15.9273L75.5113 13.0571C74.8872 12.7971 74.2499 12.5421 73.5898 12.2989C49.7331 3.50007 26.1614 1.52508 15.8982 19.4854C5.63639 37.4442 -5.03635 76.3837 12.6456 88.7845C18.7449 93.062 26.053 95.2948 33.668 95.7607L52.1345 82.8464C52.1337 82.8478 61.397 73.9032 48.301 68.3137ZM81.6554 16.1932C80.8261 18.5682 79.6833 20.8963 78.3273 21.1981C75.4527 21.8369 75.6124 18.0034 75.6124 18.0034L53.2524 30.413C53.2524 30.413 66.988 34.4538 68.4252 40.2038C69.8625 45.9537 69.8625 49.3073 63.4738 52.6618C57.0851 56.0154 48.6204 60.1684 48.6204 60.1684C48.6204 60.1684 51.8151 60.9668 54.2106 65.2794C56.6061 69.5913 55.4889 70.2309 59.3217 71.9876C63.1544 73.7442 64.5925 73.4248 64.5925 73.4248L94.5265 51.0347C96.6363 44.8782 97.3359 39.061 96.4122 34.1227C96.4114 34.122 93.8753 23.724 81.6554 16.1932Z" fill="#00ADE8"/>
</g>
</svg>
