<svg width="45" height="44" viewBox="0 0 45 44" fill="none" xmlns="http://www.w3.org/2000/svg">
<rect width="44" height="44" fill="black" fill-opacity="0" transform="translate(0.833496)"/>
<mask id="mask0" mask-type="alpha" maskUnits="userSpaceOnUse" x="0" y="0" width="45" height="44">
<rect x="0.833496" width="44" height="44" fill="#C4C4C4"/>
</mask>
<g mask="url(#mask0)">
<rect width="43.9987" height="44.0024" fill="black" fill-opacity="0" transform="translate(0.833496 -0.000976562)"/>
<path d="M44.4624 16.1839C41.2724 26.4939 39.6924 42.1839 30.7624 43.7639C23.2624 45.1239 12.1624 40.6639 3.61243 29.8539C-3.98757 20.2439 5.13243 9.3239 17.3124 2.2739C29.4924 -4.7761 47.6524 5.8839 44.4624 16.1839Z" fill="#F57E1F"/>
<path d="M16.899 19.7135C17.1529 19.822 17.4467 19.7041 17.5552 19.4502C17.6637 19.1962 17.5458 18.9024 17.2919 18.7939L16.899 19.7135ZM12.6955 11.6537H13.1955L13.1954 11.6448L12.6955 11.6537ZM13.3255 11.0437L13.3004 11.5431C13.3087 11.5435 13.3171 11.5437 13.3255 11.5437V11.0437ZM15.3255 11.5437C15.6016 11.5437 15.8255 11.3199 15.8255 11.0437C15.8255 10.7676 15.6016 10.5437 15.3255 10.5437V11.5437ZM28.0155 30.8238V31.3238C28.169 31.3238 28.3141 31.2532 28.4089 31.1324C28.5037 31.0115 28.5376 30.8538 28.5011 30.7047L28.0155 30.8238ZM19.4155 30.8238L18.9298 30.7047C18.8933 30.8538 18.9273 31.0115 19.022 31.1324C19.1168 31.2532 19.2619 31.3238 19.4155 31.3238V30.8238ZM24.8355 24.6138L25.3272 24.523C25.2803 24.269 25.0477 24.0925 24.7904 24.1158C24.5332 24.1391 24.336 24.3544 24.3355 24.6127L24.8355 24.6138ZM25.6455 29.0038L25.1788 29.1832C25.2715 29.4243 25.5325 29.5551 25.7811 29.485C26.0297 29.4149 26.184 29.167 26.1372 28.913L25.6455 29.0038ZM21.4173 28.8281C21.3203 29.0866 21.4512 29.3748 21.7097 29.4719C21.9683 29.5689 22.2565 29.438 22.3536 29.1795L21.4173 28.8281ZM23.1454 24.6056C23.1409 24.3295 22.9134 24.1093 22.6373 24.1138C22.3612 24.1183 22.141 24.3458 22.1455 24.6219L23.1454 24.6056ZM29.4854 20.7738L29.053 20.5228C29.048 20.5313 29.0433 20.5401 29.0389 20.5489L29.4854 20.7738ZM23.7154 24.3288V23.8288V24.3288ZM17.9454 20.7738L18.392 20.5489C18.3876 20.5401 18.3829 20.5313 18.3779 20.5228L17.9454 20.7738ZM15.6454 11.1337H15.1454C15.1454 11.1426 15.1457 11.1514 15.1461 11.1602L15.6454 11.1337ZM15.5654 8.84375V8.34375C15.4317 8.34375 15.3036 8.3973 15.2097 8.49244C15.1157 8.58758 15.0638 8.71638 15.0655 8.85008L15.5654 8.84375ZM31.8954 8.84375H32.3954C32.3954 8.56761 32.1716 8.34375 31.8954 8.34375V8.84375ZM31.8154 11.1337L31.3184 11.0793C31.3175 11.0874 31.3168 11.0956 31.3163 11.1038L31.8154 11.1337ZM32.0955 10.5038C31.8193 10.5038 31.5955 10.7277 31.5955 11.0038C31.5955 11.2799 31.8193 11.5038 32.0955 11.5038V10.5038ZM34.0955 11.0038V11.5038C34.1038 11.5038 34.1122 11.5036 34.1205 11.5032L34.0955 11.0038ZM34.7255 11.6138L34.2255 11.6048V11.6138H34.7255ZM30.1302 18.7435C29.876 18.8514 29.7573 19.1449 29.8652 19.3991C29.973 19.6533 30.2665 19.7719 30.5207 19.6641L30.1302 18.7435ZM17.2919 18.7939C15.6962 18.1121 14.6983 17.3424 14.0845 16.339C13.4663 15.3286 13.1955 14.0133 13.1955 12.1537H12.1955C12.1955 14.0942 12.4746 15.6239 13.2314 16.8609C13.9926 18.105 15.1947 18.9853 16.899 19.7135L17.2919 18.7939ZM13.1955 12.1537V11.6537H12.1955V12.1537H13.1955ZM13.1954 11.6448C13.1951 11.6311 13.1977 11.6174 13.2029 11.6048L12.2787 11.2229C12.2211 11.3623 12.1928 11.512 12.1955 11.6627L13.1954 11.6448ZM13.2029 11.6048C13.2082 11.5921 13.216 11.5807 13.2258 11.5711L12.5302 10.8527C12.4219 10.9576 12.3363 11.0836 12.2787 11.2229L13.2029 11.6048ZM13.2258 11.5711C13.2356 11.5616 13.2473 11.5542 13.2602 11.5494L12.9083 10.6133C12.7672 10.6664 12.6385 10.7478 12.5302 10.8527L13.2258 11.5711ZM13.2602 11.5494C13.273 11.5445 13.2867 11.5424 13.3004 11.5431L13.3505 10.5444C13.2 10.5368 13.0494 10.5603 12.9083 10.6133L13.2602 11.5494ZM13.3255 11.5437H15.3255V10.5437H13.3255V11.5437ZM18.9855 31.2938H28.4555V30.2938H18.9855V31.2938ZM28.4555 31.2938C28.6929 31.2938 28.8855 31.4863 28.8855 31.7238H29.8855C29.8855 30.9341 29.2452 30.2938 28.4555 30.2938V31.2938ZM28.8855 31.7238V35.9138H29.8855V31.7238H28.8855ZM28.8855 35.9138C28.8855 36.1513 28.6929 36.3438 28.4555 36.3438V37.3438C29.2452 37.3438 29.8855 36.7036 29.8855 35.9138H28.8855ZM28.4555 36.3438H18.9855V37.3438H28.4555V36.3438ZM18.9855 36.3438C18.748 36.3438 18.5555 36.1513 18.5555 35.9138H17.5555C17.5555 36.7036 18.1957 37.3438 18.9855 37.3438V36.3438ZM18.5555 35.9138V31.7238H17.5555V35.9138H18.5555ZM18.5555 31.7238C18.5555 31.4863 18.748 31.2938 18.9855 31.2938V30.2938C18.1957 30.2938 17.5555 30.9341 17.5555 31.7238H18.5555ZM26.2355 29.5038C26.7175 29.5038 27.294 29.9814 27.5298 30.9429L28.5011 30.7047C28.2169 29.5462 27.3934 28.5038 26.2355 28.5038V29.5038ZM28.0155 30.3238H19.4155V31.3238H28.0155V30.3238ZM19.9011 30.9429C20.135 29.9891 20.7479 29.5038 21.1954 29.5038V28.5038C20.083 28.5038 19.2159 29.5385 18.9298 30.7047L19.9011 30.9429ZM24.3355 24.6127C24.3321 26.1752 24.618 27.7248 25.1788 29.1832L26.1121 28.8243C25.5957 27.4811 25.3324 26.0539 25.3355 24.6148L24.3355 24.6127ZM26.1372 28.913L25.3272 24.523L24.3438 24.7045L25.1538 29.0945L26.1372 28.913ZM22.3536 29.1795C22.9021 27.7181 23.1707 26.1664 23.1454 24.6056L22.1455 24.6219C22.1688 26.0572 21.9218 27.4841 21.4173 28.8281L22.3536 29.1795ZM29.0389 20.5489C28.5424 21.535 27.7818 22.3639 26.8418 22.943L27.3664 23.7944C28.464 23.1181 29.3523 22.1502 29.932 20.9986L29.0389 20.5489ZM26.8418 22.943C25.9018 23.5221 24.8195 23.8288 23.7154 23.8288V24.8288C25.0047 24.8288 26.2687 24.4707 27.3664 23.7944L26.8418 22.943ZM23.7154 23.8288C22.6114 23.8288 21.529 23.5221 20.5891 22.943L20.0645 23.7944C21.1622 24.4707 22.4262 24.8288 23.7154 24.8288V23.8288ZM20.5891 22.943C19.6491 22.3639 18.8885 21.535 18.392 20.5489L17.4988 20.9986C18.0786 22.1502 18.9669 23.1181 20.0645 23.7944L20.5891 22.943ZM18.3779 20.5228C17.1343 18.38 16.3628 15.2299 16.1447 11.1073L15.1461 11.1602C15.3681 15.3576 16.1566 18.6875 17.513 21.0247L18.3779 20.5228ZM16.1454 11.1337C16.1454 10.7548 16.1273 10.3681 16.1086 9.98677C16.0897 9.60173 16.0703 9.22151 16.0654 8.83742L15.0655 8.85008C15.0706 9.25599 15.0912 9.65577 15.1098 10.0357C15.1286 10.4194 15.1454 10.7827 15.1454 11.1337H16.1454ZM15.5654 9.34375H31.8954V8.34375H15.5654V9.34375ZM31.3954 8.84375C31.3954 9.63948 31.3949 10.3813 31.3184 11.0793L32.3125 11.1882C32.396 10.4262 32.3954 9.62802 32.3954 8.84375H31.3954ZM31.3163 11.1038C31.0685 15.2287 30.2969 18.3795 29.053 20.5228L29.9179 21.0247C31.274 18.688 32.0624 15.3588 32.3145 11.1637L31.3163 11.1038ZM32.0955 11.5038H34.0955V10.5038H32.0955V11.5038ZM34.1205 11.5032C34.1342 11.5025 34.1479 11.5046 34.1607 11.5094L34.5126 10.5734C34.3715 10.5203 34.2209 10.4969 34.0704 10.5044L34.1205 11.5032ZM34.1607 11.5094C34.1736 11.5143 34.1853 11.5217 34.1951 11.5312L34.8907 10.8128C34.7824 10.7079 34.6537 10.6264 34.5126 10.5734L34.1607 11.5094ZM34.1951 11.5312C34.205 11.5407 34.2127 11.5522 34.218 11.5649L35.1422 11.183C35.0846 11.0437 34.999 10.9177 34.8907 10.8128L34.1951 11.5312ZM34.218 11.5649C34.2232 11.5775 34.2258 11.5912 34.2255 11.6048L35.2254 11.6228C35.2281 11.472 35.1998 11.3223 35.1422 11.183L34.218 11.5649ZM34.2255 11.6138V12.1038H35.2255V11.6138H34.2255ZM34.2255 12.1038C34.2255 13.9686 33.9546 15.2863 33.3364 16.2966C32.7229 17.2996 31.7255 18.0667 30.1302 18.7435L30.5207 19.6641C32.2254 18.9409 33.4281 18.0631 34.1895 16.8185C34.9464 15.5813 35.2255 14.049 35.2255 12.1038H34.2255ZM21.1954 29.5038H26.2355V28.5038H21.1954V29.5038Z" fill="white"/>
</g>
</svg>
