<svg width="134" height="126" viewBox="0 0 134 126" fill="none" xmlns="http://www.w3.org/2000/svg">
<path d="M24.5158 5.52454C-13.1052 24.84 -0.303213 94.8083 16.4352 113.411C34.6165 133.612 131.457 132.473 133.027 84.2015C134.597 35.93 64.9188 -15.2175 24.5158 5.52454Z" fill="white"/>
<path d="M48.6428 114.748C66.59 108.828 103.785 96.6783 121.767 91.4009C121.491 92.3531 121.192 93.3053 120.846 94.2461C112.984 115.792 74.8096 118.556 48.6428 114.748ZM92.0432 23.6094C68.7198 9.4866 43.4854 5.28763 28.8882 12.263C28.8882 12.263 12.495 21.2231 10.1926 46.3136C9.50468 53.4779 9.33924 60.6825 9.69761 67.8706L33.493 56.6619C32.5144 46.3365 39.3296 34.6575 39.3296 34.6575C39.3296 34.6575 40.688 34.4624 49.2529 30.1946C57.8179 25.9268 60.5462 30.5847 61.3175 27.9001C62.0888 25.2155 60.7304 18.5844 63.2631 16.4275C65.7957 14.2707 69.8825 15.4638 72.0237 20.8904C74.165 26.3169 69.7213 30.4011 69.7213 30.4011L76.0875 32.5236C76.0875 32.5236 78.8159 42.4129 81.7284 44.3518C84.641 46.2907 97.6956 41.0477 97.6956 41.0477L99.2497 46.8758L89.9019 92.0663L104.868 90.919L123.183 84.6779C126.176 61.7098 112.454 36.0112 92.0432 23.6323V23.6094ZM70.6193 98.0779L23.6502 105.225C27.5114 108.738 32.1868 111.241 37.2574 112.51C38.8921 112.946 40.6419 113.348 42.4839 113.658L69.445 101.508L70.6193 98.0779ZM28.0248 95.3589C27.819 95.0917 27.6748 94.7825 27.6025 94.4535C27.5301 94.1244 27.5313 93.7836 27.6061 93.455C27.6808 93.1265 27.8271 92.8184 28.0348 92.5526C28.2425 92.2868 28.5063 92.0699 28.8076 91.9171C45.1547 81.8327 54.6866 55.8359 56.2523 48.8605C56.7128 46.8775 56.6357 44.808 56.0288 42.8645C55.4219 40.921 54.3071 39.1733 52.7987 37.8009L45.6037 39.9348C45.6037 39.9348 43.6581 42.2294 40.3426 46.1415C37.0272 50.0537 40.3426 56.7078 40.3426 56.7078L9.85873 70.0045C10.7912 82.2113 13.7613 93.007 19.667 100.831L29.9357 98.686C29.3911 97.5198 28.7399 96.406 27.9902 95.3589H28.0248ZM59.5562 69.3735C55.2738 74.41 56.6322 78.8728 45.9375 86.0547L35.2313 93.225L36.0026 98.273L71.4251 93.4201C71.1511 89.8842 70.5655 86.3792 69.6753 82.9456C68.5241 79.5038 72.4036 72.2761 72.4036 72.2761C72.4036 72.2761 63.8041 64.3256 59.5217 69.3735H59.5562ZM92.4461 47.4494C92.4461 47.4494 84.0769 52.6924 81.3485 52.3023C78.6202 51.9122 72.4957 44.3518 72.4957 44.3518C70.6538 50.3634 65.3928 57.7288 65.3928 57.7288C79.2073 66.9069 79.5987 73.6413 79.5987 73.6413C74.7406 80.6166 75.7076 93.03 75.7076 93.03L88.1636 92.2498L94.5068 50.5585L92.4461 47.4494ZM91.4446 96.3915L75.8688 97.5387L77.02 99.6726L91.4446 96.3915Z" fill="#00ADE8"/>
</svg>
