<svg width="40" height="40" viewBox="0 0 40 40" fill="none" xmlns="http://www.w3.org/2000/svg">
<mask id="mask0" mask-type="alpha" maskUnits="userSpaceOnUse" x="0" y="0" width="40" height="40">
<rect width="40" height="40" fill="#C4C4C4"/>
</mask>
<g mask="url(#mask0)">
<path d="M2.54494 22.8524C1.97369 18.5144 3.75235 13.349 7.35658 9.36747C10.9496 5.39838 16.3261 2.64162 22.9095 3.07269C26.1178 3.28278 28.9063 4.97998 31.1603 7.57661C33.4163 10.1756 35.114 13.6527 36.1233 17.3449C37.1323 21.0364 37.4446 24.9119 36.9577 28.2934C36.4698 31.6824 35.1895 34.5159 33.0735 36.2116C30.9536 37.9104 28.0852 38.5119 24.8943 38.277C21.7058 38.0423 18.2437 36.9743 15.0052 35.3962C11.7678 33.8187 8.77865 31.7435 6.53239 29.5176C4.27446 27.2802 2.82076 24.9447 2.54494 22.8524ZM2.54494 22.8524L2.04922 22.9177L2.54494 22.8524Z" stroke="#00ADE8"/>
<path d="M11.7863 27.0318H28.4083M20.0973 16.7648C20.5993 17.2768 22.2233 19.0478 22.2233 20.5048C22.2233 21.6968 21.2893 22.6308 20.0973 22.6308C18.9053 22.6308 17.9713 21.6968 17.9713 20.5048C17.9713 19.0478 19.5953 17.2778 20.0973 16.7648ZM27.4303 9.43182H12.7643V29.9648H27.4313V9.43182H27.4303ZM25.8583 7.96484H22.4363V9.43182H25.8583V7.96484ZM11.7863 9.43182H28.4083H11.7863ZM28.4083 12.3648H11.7863H28.4083ZM28.4083 29.9648H11.7863H28.4083Z" stroke="#00ADE8" stroke-miterlimit="10" stroke-linecap="round" stroke-linejoin="round"/>
</g>
</svg>
