<svg width="370" height="320" viewBox="0 0 370 320" fill="none" xmlns="http://www.w3.org/2000/svg">
<mask id="mask0" mask-type="alpha" maskUnits="userSpaceOnUse" x="0" y="0" width="370" height="320">
<rect width="370" height="320" fill="#C4C4C4"/>
</mask>
<g mask="url(#mask0)">
<path d="M182.818 102.709C182.402 102.708 181.996 102.58 181.655 102.343C181.313 102.106 181.052 101.77 180.907 101.38C180.761 100.991 180.738 100.566 180.84 100.163C180.941 99.7597 181.164 99.3972 181.477 99.1237C181.904 98.7511 191.978 90.0362 199.13 89.3182C203.406 88.9474 207.705 88.9019 211.989 89.1819C212.348 86.4557 212.366 80.9304 207.581 77.5726H202.747C202.214 77.5716 201.703 77.3633 201.321 76.9918C200.939 76.6203 200.717 76.1148 200.702 75.5824C200.702 75.5188 200.42 68.7076 195.895 66.3585C195.413 66.1078 195.05 65.676 194.886 65.1579C194.723 64.6398 194.772 64.0779 195.022 63.5959C195.273 63.1138 195.705 62.7511 196.223 62.5875C196.741 62.4239 197.303 62.4728 197.785 62.7235C202.601 65.2271 204.11 70.566 204.6 73.4786H208.236C208.621 73.4789 208.999 73.5875 209.326 73.7921C216.996 78.6313 216.823 87.7506 215.656 91.8991C215.526 92.3574 215.242 92.7563 214.85 93.0274C214.459 93.2986 213.985 93.425 213.511 93.3849C213.434 93.3849 205.895 92.7261 199.584 93.3849C194.709 93.8893 186.825 99.9234 184.194 102.209C183.814 102.541 183.323 102.719 182.818 102.709Z" fill="#00ADE8"/>
<path d="M146.249 164.541C145.489 164.555 144.734 164.41 144.034 164.113C143.334 163.816 142.705 163.375 142.187 162.818C140.083 160.592 140.429 157.72 141.242 155.707L111.444 120.384C111.154 120.041 110.986 119.611 110.965 119.162C110.943 118.714 111.071 118.27 111.327 117.901C111.583 117.532 111.953 117.257 112.381 117.119C112.809 116.982 113.27 116.989 113.693 117.14C113.676 116.822 113.734 116.506 113.863 116.215C113.992 115.924 114.187 115.668 114.434 115.468C114.853 115.124 115.392 114.96 115.932 115.013C116.472 115.066 116.969 115.331 117.314 115.749L146.531 151.314C148.303 150.859 150.648 151.209 152.729 153.631C153.235 154.195 153.619 154.857 153.859 155.576C154.098 156.296 154.186 157.056 154.119 157.811C153.828 160.719 151.275 162.809 150.984 163.023L150.825 163.141C149.455 164.013 147.873 164.497 146.249 164.541ZM145.659 155.907C145.608 156.125 145.52 156.332 145.4 156.521C145.4 156.521 144.014 158.793 145.159 160.019C146.099 161.019 148.126 159.979 148.548 159.747C149.003 159.37 149.962 158.347 150.048 157.411C150.062 157.207 150.031 157.001 149.957 156.81C149.883 156.618 149.768 156.445 149.621 156.303C148.453 154.939 147.631 155.162 147.226 155.435C147.03 155.613 146.798 155.749 146.546 155.832C146.294 155.915 146.027 155.944 145.763 155.916L145.659 155.907Z" fill="#F57E1F"/>
<path d="M355.895 216.521C355.235 216.513 354.579 216.414 353.946 216.226C353.258 216.06 352.613 215.754 352.048 215.328C351.484 214.902 351.013 214.365 350.665 213.75C350.364 213.186 350.176 212.568 350.111 211.932L237.616 182.18C237.145 182.053 236.736 181.763 236.46 181.361C236.185 180.96 236.062 180.473 236.113 179.989C236.165 179.504 236.387 179.054 236.741 178.72C237.095 178.385 237.556 178.188 238.043 178.163C237.658 177.875 237.387 177.46 237.277 176.992C237.167 176.524 237.226 176.032 237.443 175.603C237.66 175.174 238.021 174.835 238.463 174.646C238.905 174.457 239.4 174.429 239.86 174.569L352.423 206.307C352.822 205.619 353.378 205.035 354.046 204.603C354.558 204.283 355.132 204.073 355.731 203.986C356.329 203.899 356.939 203.938 357.522 204.099C358.108 204.229 358.661 204.483 359.142 204.842C359.624 205.202 360.024 205.659 360.316 206.184C360.764 207.049 360.962 208.021 360.888 208.992L365.182 211.055C365.6 211.258 365.937 211.596 366.137 212.015C366.337 212.435 366.388 212.909 366.282 213.361C366.176 213.813 365.92 214.216 365.555 214.503C365.19 214.79 364.738 214.944 364.274 214.94H359.353C359.057 215.314 358.697 215.633 358.289 215.881C357.566 216.312 356.737 216.534 355.895 216.521ZM354.273 210.701C354.254 210.803 354.227 210.903 354.191 211.001C353.941 211.969 354.677 212.182 355.072 212.296C355.868 212.523 356.145 212.396 356.163 212.387C356.275 211.95 356.529 211.563 356.885 211.287C356.717 211.029 356.609 210.737 356.569 210.432C356.53 210.126 356.56 209.816 356.658 209.524C356.813 209.085 356.828 208.609 356.704 208.161C356.645 208.126 356.58 208.101 356.513 208.088C356.29 208.034 356.231 208.088 356.208 208.088C355.906 208.394 355.696 208.781 355.604 209.201C355.548 209.477 355.436 209.738 355.275 209.969C355.114 210.199 354.908 210.394 354.668 210.542C354.542 210.609 354.41 210.662 354.273 210.701Z" fill="#F57E1F"/>
<path d="M100.339 250.945C99.8755 250.945 99.4261 250.787 99.0638 250.498C98.7016 250.21 98.4479 249.806 98.3441 249.355C96.9719 243.221 99.6073 238.677 106.237 235.924C109.872 234.41 117.464 231.28 117.464 231.28L119.023 235.06C119.023 235.06 111.444 238.186 107.809 239.699C102.97 241.717 101.384 244.243 102.334 248.455C102.453 248.984 102.358 249.538 102.069 249.996C101.78 250.455 101.321 250.78 100.793 250.9C100.644 250.933 100.492 250.948 100.339 250.945Z" fill="#00ADE8"/>
<path d="M152.601 235.219C142.605 235.219 139.397 221.897 139.261 221.311C139.182 220.962 139.194 220.599 139.297 220.256C139.347 220.097 144.132 204.29 145.613 197.006C145.99 195.138 146.263 192.526 146.549 189.763C147.458 180.921 148.512 170.902 154.046 168.407C160.276 165.59 187.398 167.853 191.496 168.212C193.586 167.948 207.572 166.485 215.015 173.142C215.215 173.321 215.378 173.538 215.494 173.78C215.611 174.022 215.679 174.284 215.694 174.552C215.709 174.82 215.671 175.089 215.582 175.342C215.493 175.596 215.355 175.829 215.176 176.03C214.997 176.23 214.78 176.393 214.538 176.509C214.296 176.626 214.034 176.693 213.766 176.708C213.498 176.723 213.229 176.685 212.976 176.596C212.722 176.508 212.489 176.37 212.289 176.191C205.823 170.407 191.964 172.274 191.842 172.292C191.691 172.309 191.538 172.309 191.387 172.292C179.764 171.256 159.817 170.288 155.759 172.12C152.365 173.651 151.334 183.593 150.648 190.172C150.352 193.039 150.071 195.743 149.653 197.806C148.289 204.576 144.295 217.93 143.414 220.87C144.036 223.046 146.917 231.598 153.238 231.089C160.053 230.544 167.441 225.014 169.945 222.987C169.417 219.467 169.494 215.881 170.172 212.387C171.385 205.912 173.748 197.229 173.848 196.865C173.911 196.598 174.028 196.347 174.19 196.126C174.352 195.905 174.557 195.719 174.793 195.579C175.029 195.439 175.29 195.347 175.562 195.31C175.833 195.273 176.11 195.291 176.374 195.363C176.639 195.435 176.886 195.559 177.102 195.729C177.317 195.898 177.497 196.11 177.629 196.35C177.761 196.59 177.844 196.854 177.872 197.127C177.9 197.4 177.873 197.675 177.792 197.937C177.792 198.028 175.375 206.83 174.193 213.141C173.094 219.021 174.153 223.219 174.162 223.26C174.255 223.625 174.247 224.009 174.139 224.371C174.03 224.732 173.824 225.056 173.544 225.309C173.126 225.677 163.225 234.397 153.551 235.165C153.219 235.205 152.906 235.219 152.601 235.219Z" fill="#00ADE8"/>
<path d="M196.131 201.759C195.222 201.759 194.274 201.742 193.286 201.709C175.902 201.095 169.913 194.048 169.659 193.748C169.328 193.329 169.174 192.798 169.23 192.268C169.286 191.737 169.547 191.25 169.957 190.909C170.367 190.568 170.894 190.401 171.426 190.443C171.958 190.485 172.452 190.734 172.803 191.135C172.921 191.267 178.187 197.083 193.423 197.619C208.558 198.151 214.906 194.671 220.585 182.711C220.82 182.225 221.238 181.851 221.747 181.672C222.256 181.492 222.816 181.522 223.304 181.753C223.791 181.985 224.168 182.4 224.351 182.908C224.534 183.416 224.508 183.976 224.28 184.465C218.254 197.161 210.966 201.759 196.131 201.759Z" fill="#00ADE8"/>
<path d="M121.781 238.586C121.481 238.585 121.185 238.519 120.913 238.391C115.461 235.819 115.965 232.193 116.242 231.162C116.51 229.876 119.759 214.404 124.521 202.804C129.574 190.495 147.917 179.685 148.694 179.231C148.926 179.095 149.182 179.007 149.449 178.97C149.715 178.934 149.986 178.951 150.246 179.019C150.506 179.087 150.75 179.206 150.963 179.369C151.177 179.531 151.357 179.735 151.493 179.967C151.628 180.199 151.717 180.455 151.753 180.722C151.789 180.988 151.773 181.259 151.704 181.519C151.636 181.779 151.517 182.022 151.355 182.236C151.192 182.45 150.989 182.63 150.757 182.766C150.575 182.87 132.827 193.33 128.301 204.358C123.585 215.863 120.268 231.889 120.236 232.048C120.204 232.207 120.236 232.211 120.168 232.329C120.136 232.784 120.622 233.729 122.653 234.692C123.074 234.89 123.414 235.226 123.618 235.643C123.822 236.06 123.878 236.535 123.776 236.988C123.675 237.442 123.422 237.847 123.059 238.137C122.696 238.428 122.246 238.586 121.781 238.586Z" fill="#00ADE8"/>
<path d="M39.2386 272.887C39.0387 272.887 38.866 272.887 38.7161 272.887C25.3801 271.888 21.6269 260.742 21.4497 260.269C21.3115 259.841 21.3182 259.38 21.4688 258.956C21.6193 258.532 21.9053 258.17 22.2825 257.925C22.6597 257.681 23.107 257.567 23.5553 257.602C24.0035 257.637 24.4277 257.819 24.7621 258.12C26.1252 259.347 32.6456 259.169 37.88 258.233L120.254 243.207C120.788 243.11 121.339 243.228 121.785 243.536C122.232 243.845 122.538 244.318 122.635 244.852C122.733 245.386 122.614 245.937 122.306 246.383C121.997 246.83 121.524 247.135 120.99 247.233L38.6297 262.241C36.6895 262.586 31.8141 263.341 27.6565 262.986C29.6603 265.504 33.1817 268.352 39.0159 268.793C48.1535 269.47 162.152 245.584 224.802 232.07L221.881 229.698L164.852 240.604C164.319 240.706 163.767 240.593 163.318 240.288C162.869 239.984 162.559 239.514 162.457 238.981C162.354 238.449 162.468 237.897 162.772 237.448C163.076 236.999 163.546 236.689 164.079 236.587L222.053 225.5C222.346 225.444 222.647 225.453 222.936 225.526C223.225 225.599 223.494 225.734 223.725 225.923L230.691 231.58C230.99 231.822 231.214 232.145 231.338 232.509C231.462 232.874 231.48 233.266 231.391 233.641C231.302 234.015 231.108 234.357 230.833 234.627C230.558 234.896 230.213 235.083 229.837 235.165C222.63 236.728 55.1691 272.887 39.2386 272.887Z" fill="#F57E1F"/>
<path d="M15.9653 275C9.8176 275 5.06026 264.122 4.1515 261.909C4.00846 261.559 3.96559 261.175 4.02766 260.802C4.08974 260.428 4.25432 260.079 4.50308 259.794C4.75183 259.508 5.07497 259.297 5.4365 259.185C5.79803 259.072 6.18373 259.062 6.55062 259.156C6.6415 259.156 15.5837 261.4 22.7947 259.183C23.3102 259.033 23.8643 259.091 24.3372 259.345C24.8101 259.6 25.1639 260.03 25.322 260.544C25.4802 261.057 25.43 261.612 25.1824 262.088C24.9348 262.565 24.5096 262.925 23.9988 263.091C18.9006 264.658 13.2845 264.358 9.5995 263.863C11.5715 267.521 14.1887 271.02 16.0062 270.911C20.8953 270.62 32.4865 267.594 32.6001 267.562C32.8625 267.485 33.1376 267.461 33.4092 267.492C33.6809 267.523 33.9435 267.608 34.1817 267.743C34.4198 267.877 34.6286 268.058 34.7956 268.274C34.9626 268.491 35.0846 268.739 35.1542 269.003C35.2238 269.268 35.2396 269.543 35.2008 269.814C35.162 270.084 35.0693 270.345 34.9282 270.579C34.787 270.813 34.6004 271.017 34.3792 271.177C34.1581 271.338 33.907 271.453 33.6407 271.515C33.1499 271.647 21.536 274.696 16.2471 274.991C16.1653 275 16.0653 275 15.9653 275Z" fill="#F57E1F"/>
<path d="M141.255 242.589C140.853 242.589 140.46 242.47 140.125 242.248C139.789 242.026 139.527 241.71 139.37 241.34C136.503 234.588 130.714 233.679 130.655 233.679C130.384 233.645 130.123 233.558 129.887 233.422C129.65 233.286 129.443 233.104 129.278 232.887C129.113 232.67 128.993 232.423 128.925 232.158C128.857 231.894 128.843 231.619 128.883 231.35C128.923 231.08 129.017 230.821 129.158 230.588C129.3 230.355 129.487 230.152 129.708 229.993C129.929 229.833 130.179 229.719 130.445 229.657C130.711 229.596 130.986 229.588 131.255 229.635C131.568 229.68 138.629 230.816 142.541 238.486C146.44 238.359 158.086 237.732 164.088 234.733C164.569 234.523 165.112 234.506 165.605 234.685C166.099 234.865 166.504 235.227 166.737 235.697C166.971 236.167 167.015 236.709 166.86 237.21C166.705 237.712 166.363 238.134 165.906 238.391C157.818 242.435 141.932 242.603 141.26 242.607L141.255 242.589Z" fill="#00ADE8"/>
<path d="M129.733 113.914C125.796 113.939 121.861 113.705 117.955 113.214C117.674 113.174 117.404 113.075 117.163 112.925C116.922 112.775 116.715 112.576 116.556 112.341C116.396 112.107 116.287 111.841 116.235 111.562C116.183 111.283 116.19 110.996 116.256 110.719C118.437 101.536 113.984 100.201 113.802 100.151C113.337 100.065 112.917 99.8151 112.621 99.4465C112.324 99.078 112.169 98.6152 112.184 98.1422C112.201 97.6565 112.387 97.1919 112.709 96.8285C113.032 96.4651 113.472 96.2259 113.952 96.1521C114.061 96.1521 124.525 94.3345 128.569 92.6488C129.741 92.118 130.87 91.4966 131.945 90.7904C134.794 89.0274 138.02 87.0327 143.673 87.0327C150.37 87.0327 159.935 82.2981 160.03 82.2526C160.272 82.0962 160.544 81.9924 160.828 81.9482C161.112 81.9039 161.403 81.9201 161.68 81.9958C161.958 82.0714 162.216 82.2048 162.439 82.3872C162.661 82.5695 162.843 82.7968 162.971 83.0541C163.1 83.3114 163.173 83.593 163.185 83.8804C163.198 84.1678 163.149 84.4546 163.043 84.7221C162.937 84.9895 162.776 85.2315 162.57 85.4324C162.364 85.6332 162.118 85.7884 161.848 85.8876C161.425 86.1012 151.334 91.0994 143.673 91.0994C139.184 91.0994 136.712 92.6306 134.095 94.2482C132.842 95.066 131.526 95.7831 130.16 96.3929C127.488 97.5152 122.653 98.6102 119.086 99.3282C119.165 99.4433 119.242 99.5614 119.318 99.6826C120.845 102.132 121.299 105.39 120.681 109.384C127.447 110 134.257 109.918 141.006 109.138C144.843 108.648 148.649 107.941 152.406 107.021C157.759 105.78 161.63 104.881 164.815 107.089C165.25 107.402 165.545 107.873 165.637 108.401C165.728 108.929 165.608 109.472 165.303 109.913C164.998 110.354 164.533 110.657 164.006 110.758C163.48 110.858 162.935 110.748 162.489 110.451C160.867 109.324 158.231 109.87 153.333 111.006C149.433 111.963 145.483 112.703 141.501 113.223C137.596 113.689 133.666 113.92 129.733 113.914Z" fill="#00ADE8"/>
<path d="M177.451 171.375C177.078 171.375 176.712 171.273 176.393 171.079C176.02 170.852 167.246 165.504 162.307 161.196C156.968 156.525 161.371 147.188 162.848 144.434C162.193 140.572 159.399 122.756 161.662 113.146C163.797 104.058 159.522 99.6554 159.481 99.6145C159.291 99.4248 159.14 99.1995 159.037 98.9514C158.934 98.7034 158.881 98.4375 158.88 98.169C158.88 97.9004 158.933 97.6344 159.036 97.3862C159.138 97.138 159.289 96.9125 159.478 96.7224C159.668 96.5324 159.893 96.3816 160.141 96.2786C160.389 96.1756 160.655 96.1225 160.924 96.1223C161.192 96.1221 161.458 96.1748 161.707 96.2774C161.955 96.3799 162.18 96.5304 162.37 96.7202C162.616 96.9655 168.277 102.804 165.642 114.082C163.343 123.851 166.96 144.23 167.005 144.434C167.092 144.912 167.005 145.405 166.76 145.825C165.397 148.206 162.098 155.576 165.006 158.12C169.668 162.21 178.419 167.53 178.505 167.585C178.886 167.817 179.18 168.167 179.342 168.582C179.505 168.997 179.528 169.453 179.408 169.882C179.288 170.311 179.031 170.689 178.676 170.958C178.321 171.228 177.888 171.374 177.442 171.375H177.451Z" fill="#00ADE8"/>
<path d="M158.218 171.374C157.866 171.376 157.519 171.285 157.213 171.111C156.98 170.979 156.774 170.802 156.608 170.591C156.443 170.38 156.32 170.138 156.248 169.879C156.176 169.621 156.155 169.35 156.188 169.084C156.22 168.817 156.305 168.559 156.436 168.326L161.889 158.656C162.155 158.184 162.598 157.837 163.121 157.691C163.643 157.545 164.202 157.613 164.674 157.879C165.147 158.146 165.494 158.589 165.64 159.111C165.785 159.634 165.718 160.192 165.451 160.665L159.999 170.334C159.821 170.65 159.562 170.913 159.249 171.096C158.936 171.279 158.58 171.375 158.218 171.374Z" fill="#00ADE8"/>
<path d="M177.456 169.957C177.081 169.958 176.714 169.855 176.393 169.662C176.073 169.468 175.812 169.189 175.638 168.857C172.271 162.378 171.249 158.238 172.321 155.435C173.208 153.127 175.207 152.368 176.529 151.873C176.857 151.759 177.176 151.62 177.483 151.459C177.633 151.277 177.737 151.061 177.787 150.83C177.837 150.6 177.831 150.36 177.769 150.132C177.547 149.36 176.611 148.574 175.211 147.988C171.667 146.506 170.563 141.172 169.591 136.437C169.195 134.515 168.823 132.702 168.387 131.703C166.701 127.854 169.554 124.942 171.435 123.015C172.039 122.446 172.588 121.822 173.076 121.152C173.466 120.466 174.103 117.481 173.912 105.249C173.912 104.744 173.912 104.34 173.912 104.026C173.457 103.513 171.554 102.759 169.872 102.418C169.353 102.312 168.895 102.009 168.594 101.573C168.293 101.137 168.173 100.601 168.259 100.078L169.218 94.1846C169.307 93.6496 169.605 93.1718 170.047 92.8566C170.488 92.5413 171.037 92.4142 171.572 92.5034C172.107 92.5926 172.584 92.8907 172.9 93.3321C173.215 93.7735 173.342 94.322 173.253 94.8571L172.576 98.9102C174.97 99.6417 177.974 101.109 177.974 103.836C177.974 104.122 177.974 104.594 177.974 105.199C178.147 116.313 177.733 121.397 176.502 123.338C175.866 124.252 175.14 125.1 174.334 125.868C172.262 127.981 171.608 128.935 172.103 130.053C172.717 131.448 173.112 133.375 173.571 135.606C174.184 138.577 175.207 143.557 176.752 144.207C180.069 145.593 181.25 147.574 181.663 148.987C181.892 149.814 181.929 150.682 181.772 151.525C181.614 152.369 181.266 153.165 180.755 153.854C180.023 154.899 178.914 155.317 177.933 155.671C176.82 156.089 176.306 156.33 176.116 156.866C175.779 157.743 175.743 160.215 179.242 166.944C179.405 167.256 179.484 167.604 179.473 167.956C179.461 168.307 179.359 168.65 179.176 168.95C178.993 169.251 178.736 169.499 178.429 169.67C178.122 169.842 177.776 169.931 177.424 169.93L177.456 169.957Z" fill="#00ADE8"/>
<path d="M184.435 74.0829C183.932 74.0842 183.445 73.8996 183.069 73.5644C182.693 73.2293 182.454 72.7672 182.398 72.2668C182.342 71.7664 182.472 71.2628 182.764 70.8525C183.056 70.4422 183.489 70.1542 183.981 70.0435C191.178 68.4759 194.109 63.7413 194.786 62.4554C194.752 59.3309 193.592 56.3236 191.519 53.9858C188.584 50.8051 183.835 49.1648 177.406 49.0921C171.717 49.0421 167.291 50.5643 164.22 53.6995C159.222 58.734 159.363 66.204 159.363 66.2767C159.375 66.819 159.172 67.3441 158.797 67.7365C158.423 68.1289 157.908 68.3565 157.365 68.3691C156.823 68.3818 156.298 68.1785 155.906 67.804C155.513 67.4295 155.286 66.9144 155.273 66.3721C155.273 65.995 155.132 57.0801 161.307 50.8233C165.197 46.8884 170.645 44.9164 177.483 45.0027C185.117 45.089 190.878 47.1974 194.609 51.2686C197.503 54.5198 199.035 58.7595 198.889 63.1097C198.87 63.3318 198.816 63.5495 198.73 63.7549C198.589 64.0821 195.199 71.7929 184.88 74.0375C184.734 74.069 184.585 74.0842 184.435 74.0829Z" fill="#F57E1F"/>
<path d="M171.036 95.1615C169.283 95.1447 167.535 94.9928 165.806 94.7071C165.444 94.6423 165.106 94.4817 164.827 94.2419C164.548 94.0022 164.338 93.6921 164.22 93.344L160.131 81.0758C160.045 80.821 160.011 80.5519 160.03 80.284C160.049 80.0161 160.121 79.7545 160.241 79.5142C160.361 79.2739 160.527 79.0596 160.73 78.8836C160.933 78.7075 161.168 78.5731 161.423 78.4881C161.678 78.4031 161.947 78.369 162.215 78.388C162.483 78.4069 162.745 78.4785 162.985 78.5985C163.225 78.7185 163.439 78.8847 163.615 79.0876C163.791 79.2904 163.926 79.526 164.011 79.7808L167.7 90.8449C169.318 91.0357 172.244 91.2584 174.38 90.7131C176.238 90.236 178.846 88.7002 180.173 86.4511C180.651 85.6249 180.955 84.7104 181.068 83.7629C181.182 82.8154 181.101 81.8549 180.832 80.9395C180.756 80.6766 180.733 80.4012 180.765 80.1293C180.797 79.8575 180.883 79.5949 181.018 79.3571C181.154 79.1192 181.336 78.911 181.553 78.7447C181.77 78.5784 182.019 78.4574 182.284 78.389C182.549 78.3205 182.825 78.306 183.096 78.3462C183.367 78.3864 183.626 78.4805 183.86 78.623C184.094 78.7655 184.296 78.9535 184.456 79.1758C184.616 79.3981 184.729 79.6502 184.79 79.9171C185.197 81.3558 185.31 82.8619 185.122 84.3453C184.934 85.8287 184.448 87.2589 183.695 88.5503C181.632 92.0399 177.938 94.0437 175.393 94.6935C173.965 95.0262 172.502 95.1833 171.036 95.1615Z" fill="#00ADE8"/>
<path d="M240.006 174.728C239.522 174.728 239.053 174.556 238.684 174.243C238.314 173.931 238.068 173.497 237.988 173.019C237.943 172.783 236.562 166.54 224.811 166.54H224.784C224.35 166.54 223.927 166.402 223.576 166.145C223.226 165.889 222.966 165.527 222.835 165.113C222.38 163.627 222.121 160.515 224.198 158.27C225.107 157.171 228.037 149.392 230.455 142.19C225.457 139.872 210.462 132.966 204.746 130.744C204.486 130.654 204.247 130.513 204.043 130.329C203.839 130.145 203.674 129.922 203.558 129.673C203.442 129.424 203.377 129.154 203.368 128.879C203.359 128.604 203.405 128.33 203.504 128.074C203.603 127.818 203.753 127.584 203.944 127.387C204.136 127.189 204.365 127.033 204.618 126.926C204.872 126.819 205.144 126.765 205.419 126.766C205.694 126.767 205.966 126.823 206.218 126.932C213.247 129.658 232.999 138.859 233.835 139.254C234.29 139.465 234.651 139.834 234.85 140.293C235.05 140.753 235.073 141.269 234.917 141.744C233.235 146.856 229.119 158.974 227.192 161.046C226.842 161.451 226.636 161.961 226.606 162.496C233.549 162.855 237.398 165.268 239.51 167.621C242 161.496 246.626 152.94 247.294 151.718C247.448 151.434 247.668 151.191 247.935 151.009C247.998 150.964 255.023 145.979 255.205 137.201C255.386 128.422 243.554 120.875 243.432 120.802C239.833 118.53 227.951 110.806 226.47 106.576C225.656 104.276 221.831 101.268 219.609 99.9189C219.48 99.8382 219.36 99.7454 219.25 99.6417L212.207 92.826C211.817 92.4488 211.593 91.9322 211.584 91.3898C211.575 90.8475 211.782 90.3238 212.159 89.9339C212.536 89.5441 213.053 89.32 213.595 89.3111C214.138 89.3021 214.661 89.509 215.051 89.8862L221.935 96.5474C223.235 97.3607 228.864 101.091 230.323 105.217C231.018 107.184 238.806 113.046 245.617 117.344C246.19 117.703 259.544 126.268 259.294 137.296C259.076 146.952 252.433 152.699 250.661 154.072C247.348 160.188 242.482 169.975 242.028 172.992C241.956 173.473 241.715 173.913 241.347 174.233C240.98 174.552 240.511 174.729 240.024 174.732L240.006 174.728Z" fill="#00ADE8"/>
<path d="M110.312 121.643C106.518 121.643 102.093 119.907 100.884 118.698C99.4619 117.276 96.4221 110.851 96.4221 108.843C96.4221 108.293 96.4221 106.835 101.561 99.4917C101.856 99.0771 102.292 98.7846 102.788 98.6693L113.843 96.1702C114.372 96.0497 114.927 96.1443 115.387 96.4332C115.846 96.7221 116.172 97.1816 116.292 97.7106C116.413 98.2396 116.318 98.7949 116.029 99.2542C115.74 99.7134 115.281 100.039 114.752 100.16L104.469 102.486C102.729 105.017 100.902 107.939 100.539 108.938C100.83 110.351 103.001 114.986 103.783 115.808C104.81 116.658 110.194 118.262 112.044 117.267C112.303 117.126 112.625 116.908 112.698 116.654C112.741 116.354 112.684 116.049 112.534 115.786C112.396 115.557 112.303 115.303 112.263 115.039C112.223 114.774 112.235 114.505 112.299 114.245C112.363 113.985 112.478 113.741 112.637 113.526C112.796 113.311 112.996 113.129 113.225 112.991C113.691 112.71 114.249 112.626 114.777 112.756C115.306 112.887 115.76 113.221 116.042 113.687C116.757 114.9 116.975 116.342 116.651 117.712C116.451 118.396 116.11 119.03 115.65 119.573C115.19 120.116 114.621 120.556 113.979 120.866C112.839 121.422 111.58 121.689 110.312 121.643Z" fill="#00ADE8"/>
<path d="M106.864 119.085C106.675 119.085 106.487 119.072 106.3 119.044C105.777 118.947 105.311 118.651 105.003 118.216C104.695 117.782 104.568 117.245 104.65 116.719C104.731 116.193 105.015 115.72 105.44 115.399C105.866 115.079 106.399 114.937 106.927 115.004C108.127 115.122 112.861 112.551 117.046 109.552C117.486 109.234 118.034 109.104 118.57 109.191C119.105 109.277 119.585 109.573 119.902 110.013C120.22 110.453 120.349 111.001 120.263 111.536C120.176 112.072 119.881 112.551 119.441 112.869C116.765 114.782 110.408 119.085 106.864 119.085Z" fill="#00ADE8"/>
<path d="M103.497 114.282C101.92 114.282 100.502 113.687 99.6526 112.219C97.5579 108.616 102.165 104.858 103.483 103.886C104.028 103.345 105.555 102.041 107.513 102.191C108.195 102.255 108.851 102.479 109.43 102.846C110.008 103.212 110.491 103.71 110.839 104.299C112.825 107.271 110.876 110.797 108.222 112.819C108.145 112.876 108.064 112.929 107.981 112.978C106.617 113.777 105.076 114.225 103.497 114.282ZM103.229 110.192C103.619 110.315 104.914 109.974 105.846 109.493C106.391 109.038 108.009 107.434 107.441 106.58C107.369 106.469 107.282 106.368 107.182 106.28C106.862 106.395 106.573 106.582 106.336 106.826C106.241 106.931 106.135 107.026 106.018 107.107C104.696 108.066 103.356 109.538 103.229 110.183V110.192Z" fill="#F57E1F"/>
<path d="M232.894 187.028C227.369 187.028 218.073 183.338 216.991 182.893C216.916 182.865 216.843 182.83 216.773 182.788C215.842 182.31 215.02 181.644 214.358 180.833C213.696 180.023 213.208 179.084 212.925 178.077C211.975 174.578 213.583 170.807 215.096 168.285C217.823 163.741 224.184 162.532 224.438 162.482C224.972 162.385 225.523 162.504 225.969 162.813C226.415 163.122 226.72 163.596 226.817 164.129C226.914 164.663 226.795 165.214 226.486 165.66C226.177 166.106 225.704 166.411 225.17 166.508C223.839 166.753 220.063 167.935 218.604 170.379C217.064 172.965 216.428 175.378 216.869 177.009C217.003 177.468 217.23 177.896 217.535 178.264C217.841 178.633 218.219 178.936 218.645 179.153C221.658 180.358 229.836 183.243 233.476 182.916C235.63 182.72 237.515 176.604 237.993 172.465C238.015 172.192 238.091 171.926 238.218 171.684C238.345 171.441 238.519 171.226 238.73 171.052C238.941 170.878 239.185 170.748 239.448 170.67C239.71 170.592 239.986 170.567 240.258 170.598C240.53 170.628 240.793 170.713 241.032 170.847C241.271 170.981 241.48 171.162 241.648 171.378C241.815 171.595 241.938 171.843 242.008 172.108C242.077 172.372 242.093 172.648 242.055 172.919C241.796 175.191 240.183 186.414 233.849 187.005C233.535 187.014 233.222 187.028 232.894 187.028Z" fill="#00ADE8"/>
<path d="M219.786 180.18C219.575 180.18 219.365 180.148 219.163 180.085C218.892 179.998 218.642 179.855 218.429 179.666C218.216 179.476 218.045 179.245 217.927 178.985C217.718 178.531 215.946 174.442 217.623 171.32C218.218 170.211 219.477 168.812 222.117 168.394C222.388 168.35 222.666 168.361 222.934 168.427C223.201 168.493 223.452 168.613 223.671 168.779C223.891 168.945 224.075 169.154 224.211 169.393C224.348 169.633 224.434 169.897 224.466 170.17C224.552 170.897 225.197 177.368 220.831 179.908C220.513 180.09 220.152 180.184 219.786 180.18Z" fill="#F57E1F"/>
<path d="M139.134 249.246C127.47 249.246 119.046 249.246 118.614 240.644C118.282 234.038 124.266 231.898 128.224 230.48C128.928 230.23 129.587 229.989 130.173 229.748C133.077 228.549 137.898 224.01 139.488 222.365C139.673 222.162 139.897 221.999 140.146 221.885C140.395 221.77 140.665 221.707 140.939 221.699C141.213 221.692 141.486 221.739 141.741 221.838C141.997 221.938 142.23 222.088 142.426 222.279C142.622 222.471 142.778 222.7 142.884 222.953C142.99 223.206 143.044 223.477 143.043 223.751C143.042 224.025 142.986 224.297 142.878 224.549C142.77 224.801 142.612 225.028 142.414 225.218C141.765 225.886 135.944 231.789 131.736 233.529C131.064 233.806 130.373 234.061 129.601 234.329C125.321 235.86 122.531 237.114 122.699 240.44C122.885 244.152 124.971 245.156 139.134 245.156C149.902 245.156 159.54 240.563 162.216 239.168L164.72 229.426C164.855 228.9 165.193 228.45 165.66 228.174C166.127 227.898 166.684 227.819 167.21 227.954C167.735 228.089 168.185 228.427 168.462 228.894C168.738 229.361 168.817 229.918 168.682 230.444L165.956 241.053C165.888 241.317 165.769 241.564 165.604 241.78C165.439 241.996 165.233 242.177 164.997 242.312C164.506 242.598 152.86 249.246 139.134 249.246Z" fill="#00ADE8"/>
<path d="M174.611 85.1516C172.39 85.1516 171.067 84.2928 169.3 82.8025C168.47 82.0731 167.588 81.4064 166.66 80.8078C166.326 80.5919 165.982 80.3932 165.628 80.2125C165.333 80.9036 164.837 81.4899 164.204 81.8951C163.571 82.3002 162.831 82.5056 162.08 82.4844C158.213 82.4844 157.331 80.4715 156.118 77.6816C155.923 77.2273 155.705 76.732 155.45 76.1731C154.173 73.4414 153.813 70.3702 154.423 67.4172C154.502 67.1273 154.642 66.8582 154.836 66.6287C155.03 66.3993 155.271 66.2152 155.544 66.0895C155.817 65.9638 156.114 65.8995 156.414 65.9013C156.714 65.903 157.01 65.9707 157.281 66.0995C158.963 66.7357 171.635 67.8852 182.954 68.6304C183.288 68.6524 183.612 68.7564 183.896 68.9331C184.181 69.1098 184.417 69.3539 184.585 69.6437C184.899 70.1844 187.616 75.0508 185.948 79.3265C185.344 80.8668 183.903 82.9252 180.468 83.9839C177.887 84.7836 176.061 85.1516 174.611 85.1516ZM165.129 75.905C166.383 75.905 167.655 76.5866 168.864 77.359C169.946 78.0552 170.975 78.8297 171.944 79.6764C173.812 81.2531 174.252 81.6256 179.269 80.0808C180.796 79.6264 181.732 78.8812 182.136 77.8498C182.777 76.2367 182.136 74.0148 181.513 72.638C175.152 72.2109 163.67 71.3567 158.231 70.4479C158.273 71.8406 158.593 73.211 159.172 74.4783C159.44 75.0599 159.667 75.587 159.871 76.055C160.15 76.8233 160.522 77.5543 160.98 78.2314C161.29 78.3686 161.629 78.4264 161.966 78.3995C162.002 78.3268 162.039 78.2405 162.071 78.1769C162.247 77.681 162.533 77.2309 162.906 76.8598C163.28 76.4887 163.732 76.2059 164.229 76.0322C164.521 75.9477 164.824 75.9049 165.129 75.905Z" fill="#00ADE8"/>
</g>
</svg>
