<svg width="370" height="320" viewBox="0 0 370 320" fill="none" xmlns="http://www.w3.org/2000/svg">
<mask id="mask0" mask-type="alpha" maskUnits="userSpaceOnUse" x="0" y="0" width="370" height="320">
<rect width="370" height="320" fill="#C4C4C4"/>
</mask>
<g mask="url(#mask0)">
<path d="M172.778 91.7878C172.316 91.7865 171.868 91.6228 171.514 91.3251C171.16 91.0274 170.921 90.6148 170.84 90.1592C170.759 89.7036 170.841 89.2341 171.071 88.8326C171.301 88.4311 171.665 88.1231 172.098 87.9624C172.427 87.8396 180.227 85.0188 186.22 86.4577C191.73 87.7738 206.716 87.515 211.103 78.9999C211.343 78.5345 211.758 78.1836 212.257 78.0244C212.756 77.8652 213.298 77.9108 213.763 78.151C214.229 78.3913 214.58 78.8066 214.739 79.3055C214.898 79.8045 214.853 80.3463 214.612 80.8117C208.826 92.016 191.103 91.6738 185.299 90.2831C181.276 89.318 175.389 90.9455 173.454 91.6518C173.239 91.7368 173.01 91.7828 172.778 91.7878Z" fill="#F57E1F"/>
<path d="M210.12 224.37C210.053 224.374 209.985 224.374 209.918 224.37C209.64 224.341 209.371 224.254 209.129 224.113C208.887 223.972 208.677 223.782 208.514 223.554C208.418 223.418 206.102 220.124 203.838 212.433C202.039 206.291 194.121 205.068 194.042 205.059C193.566 204.987 193.132 204.744 192.821 204.376C192.511 204.008 192.344 203.54 192.353 203.058C192.353 202.878 192.792 185.032 192.353 175.776C191.98 167.809 190.967 159.421 190.686 157.202C188.992 155.127 182.605 146.673 181.394 135.763C180.078 124.001 179.201 108.177 179.201 108.015C179.18 107.64 179.267 107.267 179.451 106.939C179.635 106.612 179.909 106.343 180.24 106.166C180.571 105.989 180.946 105.91 181.321 105.938C181.696 105.966 182.054 106.101 182.355 106.326C182.434 106.388 190.743 112.433 203.355 111.204C215.384 110.033 223.658 104.435 226.659 95.4289C226.76 95.1184 226.936 94.8377 227.172 94.612C227.408 94.3863 227.696 94.2226 228.011 94.1357C228.326 94.0487 228.657 94.0412 228.975 94.1138C229.294 94.1864 229.589 94.3368 229.835 94.5515C230.3 94.9595 241.241 104.642 244.005 112.977C246.716 121.106 259.359 150.516 262.992 155.153C266.892 160.141 273.45 168.445 273.52 168.529C273.845 168.94 273.993 169.463 273.931 169.984C273.87 170.504 273.605 170.979 273.193 171.303C272.782 171.628 272.259 171.776 271.738 171.715C271.218 171.653 270.743 171.388 270.419 170.977C270.353 170.893 263.79 162.58 259.89 157.583C255.665 152.178 242.851 121.974 240.267 114.227C238.512 108.932 232.511 102.597 229.3 99.4737C225.123 108.406 216.139 113.924 203.724 115.126C196.728 115.844 189.672 114.58 183.36 111.481C183.702 116.859 184.408 127.098 185.321 135.319C186.549 146.37 193.98 154.977 194.055 155.061C194.312 155.353 194.477 155.715 194.529 156.1C194.529 156.201 195.845 166.19 196.284 175.583C196.643 183.308 196.415 196.851 196.319 201.51C199.39 202.334 205.689 204.782 207.611 211.306C208.353 213.922 209.304 216.474 210.453 218.939C211.866 216.969 213.625 213.675 213.397 209.788C213.235 207.015 213.52 203.304 213.836 199.005C214.397 191.766 215.095 182.773 213.472 176.855C210.782 167.081 209.901 130.546 209.866 128.998C209.86 128.735 209.906 128.473 210.003 128.228C210.1 127.983 210.244 127.76 210.428 127.572C210.612 127.384 210.831 127.234 211.074 127.131C211.316 127.029 211.577 126.976 211.84 126.975C212.936 126.975 223.171 127.914 245.062 160.316C266.813 192.508 275.367 209.055 275.45 209.218C275.481 209.271 275.508 209.327 275.529 209.384C276.459 211.687 278.771 215.526 281.004 216.039C281.257 216.097 281.496 216.204 281.708 216.354C281.92 216.504 282.1 216.694 282.238 216.914C282.376 217.133 282.469 217.378 282.513 217.633C282.556 217.889 282.549 218.151 282.491 218.404C282.434 218.657 282.327 218.896 282.177 219.107C282.027 219.319 281.837 219.499 281.617 219.637C281.398 219.775 281.153 219.869 280.897 219.912C280.642 219.956 280.38 219.949 280.127 219.891C275.301 218.799 272.371 212.095 271.897 210.946C271.257 209.722 262.641 193.398 241.785 162.527C226.79 140.334 217.723 133.709 213.888 131.748C214.152 140.667 215.13 168.024 217.275 175.815C219.083 182.396 218.385 191.38 217.771 199.316C217.459 203.3 217.17 207.064 217.332 209.564C217.824 217.86 211.699 223.602 211.436 223.852C211.077 224.182 210.608 224.367 210.12 224.37Z" fill="#00ADE8"/>
<path d="M181.166 212.043C180.834 212.043 180.506 211.959 180.215 211.798C179.923 211.638 179.677 211.407 179.499 211.126C179.321 210.845 179.217 210.523 179.196 210.191C179.175 209.859 179.239 209.527 179.381 209.226C179.565 208.836 181.272 205.366 184.329 204.401C185.055 204.173 185.82 204.099 186.575 204.184C187.331 204.27 188.06 204.512 188.716 204.896C188.895 205.018 189.099 205.098 189.313 205.131C189.527 205.164 189.746 205.148 189.953 205.085C191.164 204.695 192.243 202.892 192.528 202.277C192.749 201.802 193.149 201.434 193.641 201.254C194.133 201.074 194.677 201.096 195.152 201.317C195.627 201.537 195.995 201.937 196.176 202.429C196.356 202.921 196.333 203.465 196.113 203.94C195.928 204.335 194.235 207.84 191.182 208.836C190.457 209.068 189.692 209.145 188.936 209.06C188.179 208.976 187.45 208.732 186.795 208.345C186.611 208.222 186.402 208.142 186.184 208.11C185.965 208.078 185.742 208.095 185.531 208.16C184.281 208.564 183.175 210.446 182.947 210.929C182.786 211.264 182.533 211.546 182.218 211.744C181.903 211.941 181.538 212.045 181.166 212.043Z" fill="#00ADE8"/>
<path d="M210.12 224.37H195.705C195.181 224.37 194.679 224.162 194.309 223.792C193.938 223.422 193.73 222.92 193.73 222.396C193.73 221.872 193.938 221.37 194.309 221C194.679 220.63 195.181 220.422 195.705 220.422H210.12C210.644 220.422 211.146 220.63 211.516 221C211.886 221.37 212.094 221.872 212.094 222.396C212.094 222.92 211.886 223.422 211.516 223.792C211.146 224.162 210.644 224.37 210.12 224.37Z" fill="#00ADE8"/>
<path d="M180.227 134.705C177.534 134.705 174.156 133.758 170.019 131.845C167.352 130.617 166.417 125.931 165.386 119.452C165.226 118.237 165.001 117.032 164.711 115.841C163.798 114.126 162.079 106.111 161.311 102.312L159.332 99.3421C159.163 99.0882 159.055 98.7983 159.016 98.4955L157.744 88.5546C156.358 85.9926 151.537 76.7099 151.989 72.1694C152.484 67.2341 162.158 58.8769 164.092 57.2538C164.29 57.0849 164.52 56.9569 164.768 56.8771C165.016 56.7974 165.277 56.7674 165.536 56.789C165.796 56.8107 166.049 56.8834 166.28 57.0031C166.511 57.1227 166.716 57.287 166.884 57.4863C167.051 57.6857 167.178 57.9162 167.256 58.1646C167.334 58.413 167.362 58.6744 167.339 58.9337C167.315 59.193 167.241 59.4452 167.12 59.6756C166.998 59.906 166.833 60.1102 166.632 60.2764C161.653 64.4615 156.139 70.3664 155.919 72.5598C155.643 75.3104 159.126 82.8691 161.39 86.9885C161.507 87.2055 161.584 87.4418 161.618 87.686L162.873 97.5391L164.812 100.443C164.952 100.657 165.05 100.895 165.101 101.145C166.202 106.554 167.694 112.99 168.172 113.955C168.611 114.723 168.83 116.008 169.278 118.833C169.681 121.378 170.624 127.313 171.717 128.287C178.297 131.323 181.065 130.919 182.118 130.397C182.351 130.282 182.604 130.214 182.863 130.196C183.122 130.179 183.382 130.213 183.628 130.296C183.874 130.379 184.102 130.51 184.297 130.681C184.493 130.852 184.653 131.06 184.768 131.292C184.883 131.525 184.951 131.778 184.969 132.037C184.986 132.296 184.952 132.556 184.869 132.802C184.786 133.049 184.655 133.276 184.484 133.471C184.313 133.667 184.106 133.827 183.873 133.942C182.733 134.474 181.485 134.736 180.227 134.705Z" fill="#00ADE8"/>
<path d="M175.152 68.4098C173.811 68.4177 172.487 68.1172 171.281 67.5315C170.075 66.9457 169.021 66.0904 168.198 65.0318C164.689 60.5966 162.671 53.187 162.587 52.88C162.52 52.6296 162.502 52.3684 162.535 52.1113C162.569 51.8541 162.652 51.606 162.781 51.3812C162.91 51.1563 163.083 50.9591 163.288 50.8007C163.493 50.6424 163.728 50.5261 163.978 50.4584C164.228 50.3907 164.49 50.3729 164.747 50.4062C165.004 50.4394 165.252 50.523 165.477 50.6522C165.702 50.7813 165.899 50.9535 166.057 51.1588C166.216 51.3642 166.332 51.5987 166.4 51.849C166.4 51.9192 168.304 58.7936 171.296 62.5883C171.806 63.239 172.472 63.75 173.233 64.0737C173.994 64.3974 174.825 64.5232 175.647 64.4396C178.635 64.172 181.688 61.5178 184.018 57.1572C184.264 56.6953 184.684 56.3503 185.185 56.1981C185.686 56.0459 186.227 56.099 186.689 56.3457C187.151 56.5923 187.496 57.0124 187.648 57.5134C187.801 58.0144 187.748 58.5554 187.501 59.0173C183.434 66.6286 178.547 68.1421 175.998 68.3703C175.718 68.3966 175.432 68.4098 175.152 68.4098Z" fill="#00ADE8"/>
<path d="M260.623 111.134C260.139 111.139 259.67 110.966 259.307 110.647L254.867 106.752C254.746 106.647 254.638 106.528 254.547 106.396C254.297 106.037 229.151 70.0944 222.377 63.957C215.841 58.0346 207.396 56.3325 207.312 56.315H207.212C202.167 55.0559 193.222 54.3628 193.129 54.354C192.87 54.3341 192.617 54.2634 192.385 54.1458C192.154 54.0282 191.947 53.8661 191.778 53.6688C191.609 53.4714 191.48 53.2426 191.399 52.9955C191.318 52.7484 191.287 52.4878 191.307 52.2285C191.327 51.9693 191.397 51.7165 191.515 51.4846C191.632 51.2527 191.794 51.0462 191.992 50.8769C192.189 50.7077 192.418 50.579 192.665 50.4981C192.912 50.4173 193.173 50.3859 193.432 50.4058C193.809 50.4321 202.754 51.1252 208.124 52.4588C209.001 52.6343 217.894 54.5734 225.027 61.0397C231.936 67.2999 255.407 100.746 257.648 103.948L261.917 107.682C262.221 107.947 262.436 108.299 262.534 108.69C262.632 109.082 262.607 109.494 262.464 109.871C262.32 110.248 262.065 110.572 261.732 110.799C261.399 111.027 261.004 111.147 260.601 111.143L260.623 111.134Z" fill="#00ADE8"/>
<path d="M257.082 128.077C254.889 128.077 253.134 126.673 252.208 125.734H250.454C250.051 125.734 249.657 125.611 249.327 125.381C248.996 125.152 248.743 124.826 248.602 124.449L244.509 113.389C240.864 107.686 230.774 93.0381 226.027 90.577C225.488 90.2918 224.904 89.9979 224.272 89.6996C217.657 86.3568 206.584 80.7634 204.619 68.7519C202.702 57.03 204.307 53.7135 205.088 52.8317C205.429 52.4755 205.891 52.2599 206.384 52.2273C206.876 52.1947 207.362 52.3475 207.747 52.6556C208.132 52.9637 208.388 53.4047 208.464 53.892C208.541 54.3793 208.432 54.8774 208.159 55.2884C208.027 55.5648 206.9 58.3593 208.497 68.1159C210.138 78.1444 219.706 82.9744 226.045 86.1725L227.826 87.0806C234.406 90.5156 246.562 109.327 247.922 111.459C248 111.577 248.063 111.703 248.111 111.836L251.8 121.803H253.112C253.419 121.803 253.722 121.875 253.996 122.013C254.27 122.151 254.508 122.351 254.691 122.597C255.077 123.097 256.179 124.146 257.095 124.146C257.802 124.049 259.908 122.145 261.399 120.224C261.72 119.81 262.192 119.541 262.712 119.476C263.232 119.41 263.756 119.554 264.169 119.875C264.583 120.196 264.852 120.669 264.918 121.188C264.983 121.708 264.839 122.232 264.518 122.646C263.233 124.269 259.965 128.077 257.082 128.077Z" fill="#00ADE8"/>
<path d="M181.166 109.871C180.663 109.872 180.178 109.68 179.812 109.335C179.446 108.99 179.226 108.517 179.196 108.015C179.144 107.138 177.937 100.641 176.77 94.6744C174.722 93.4504 169.093 89.9848 164.544 86.1593C158.49 81.0749 158.942 66.0759 159.016 64.3825C159.039 63.859 159.268 63.3656 159.654 63.011C160.039 62.6564 160.55 62.4696 161.074 62.4918C161.598 62.5139 162.091 62.743 162.445 63.1289C162.8 63.5147 162.987 64.0257 162.965 64.5492C162.794 68.6159 163.206 79.8772 167.088 83.1367C172.353 87.5719 179.455 91.6693 179.525 91.7132C179.769 91.8523 179.979 92.0416 180.143 92.2686C180.308 92.4955 180.421 92.7548 180.477 93.0293C180.916 95.2228 183.048 106.151 183.14 107.769C183.17 108.292 182.992 108.806 182.644 109.197C182.296 109.588 181.807 109.826 181.285 109.858L181.166 109.871Z" fill="#00ADE8"/>
<path d="M181.166 128.081C180.774 128.08 180.39 127.962 180.064 127.743C179.739 127.523 179.485 127.212 179.337 126.848L175.314 116.978C175.218 116.741 175.169 116.488 175.169 116.232V93.6391C175.169 93.1155 175.377 92.6134 175.747 92.2432C176.118 91.873 176.62 91.665 177.143 91.665C177.667 91.665 178.169 91.873 178.539 92.2432C178.91 92.6134 179.118 93.1155 179.118 93.6391V115.841L182.996 125.357C183.192 125.841 183.189 126.384 182.986 126.866C182.783 127.348 182.396 127.73 181.912 127.927C181.676 128.027 181.422 128.079 181.166 128.081Z" fill="#00ADE8"/>
<path d="M171.098 120.013C168.598 120.013 167.334 119 167.119 118.811L169.751 115.85C169.723 115.823 169.692 115.798 169.659 115.776C169.659 115.776 171.528 116.973 176.24 114.49C176.47 114.369 176.722 114.294 176.981 114.27C177.241 114.247 177.502 114.274 177.751 114.351C178 114.428 178.231 114.554 178.431 114.72C178.631 114.887 178.797 115.091 178.918 115.322C179.039 115.552 179.114 115.804 179.138 116.063C179.162 116.323 179.134 116.584 179.057 116.833C178.98 117.082 178.854 117.313 178.688 117.513C178.521 117.713 178.317 117.879 178.087 118C175.112 119.535 172.831 120.013 171.098 120.013Z" fill="#00ADE8"/>
<path d="M246.299 114.481C245.812 114.477 245.344 114.293 244.984 113.964C244.625 113.636 244.399 113.186 244.35 112.702C244.301 112.217 244.432 111.731 244.719 111.338C245.006 110.944 245.428 110.67 245.904 110.568C245.983 110.568 252.222 109.213 254.371 104.453C254.587 103.976 254.983 103.604 255.473 103.419C255.963 103.235 256.507 103.252 256.984 103.468C257.461 103.684 257.832 104.08 258.017 104.57C258.202 105.06 258.184 105.603 257.968 106.08C254.972 112.709 247.001 114.372 246.69 114.442C246.561 114.468 246.43 114.481 246.299 114.481Z" fill="#00ADE8"/>
<path d="M186.141 77.9645C176.814 77.9645 171.809 67.7473 171.585 67.2867C171.358 66.8143 171.328 66.2712 171.502 65.7767C171.675 65.2823 172.038 64.877 172.511 64.6501C172.983 64.4233 173.526 64.3933 174.021 64.5669C174.515 64.7405 174.92 65.1034 175.147 65.5758C175.213 65.7162 179.824 75.0121 187.453 73.911C193.533 73.0336 194.305 58.2496 194.099 53.1344C194.077 52.6108 194.265 52.1002 194.62 51.7147C194.975 51.3293 195.468 51.1006 195.992 51.0791C196.515 51.0576 197.026 51.2449 197.412 51.5999C197.797 51.9549 198.026 52.4485 198.047 52.9721C198.144 55.3542 198.688 76.2931 188.019 77.8198C187.397 77.9126 186.769 77.961 186.141 77.9645Z" fill="#00ADE8"/>
<path d="M179.183 72.1781C178.245 72.215 177.308 72.0843 176.415 71.7921L177.841 68.1114L177.779 68.0895C177.801 68.0895 179.749 68.673 184.184 67.3964C187.387 66.4751 188.321 60.0219 188.391 57.8372C188.408 57.3136 188.631 56.818 189.013 56.4593C189.395 56.1006 189.903 55.9082 190.427 55.9245C190.951 55.9408 191.446 56.1644 191.805 56.5461C192.164 56.9279 192.356 57.4365 192.34 57.96C192.305 59.1182 191.8 69.309 185.277 71.191C183.301 71.8005 181.25 72.1327 179.183 72.1781Z" fill="#00ADE8"/>
<path d="M228.545 98.0304C228.11 98.0296 227.687 97.8851 227.342 97.6194C226.997 97.3537 226.749 96.9816 226.637 96.5608L225.036 90.6209C224.901 90.1147 224.973 89.5759 225.236 89.123C225.499 88.6701 225.931 88.3402 226.437 88.2058C226.943 88.0715 227.482 88.1436 227.935 88.4065C228.388 88.6693 228.718 89.1013 228.852 89.6075L230.432 95.5474C230.498 95.7977 230.515 96.0588 230.481 96.3156C230.447 96.5725 230.362 96.82 230.232 97.0442C230.102 97.2683 229.93 97.4646 229.724 97.6218C229.518 97.779 229.283 97.894 229.032 97.9602C228.874 98.0049 228.71 98.0285 228.545 98.0304Z" fill="#00ADE8"/>
<path d="M292.156 295C291.67 295.002 291.201 294.823 290.838 294.499C290.476 294.175 290.247 293.728 290.195 293.245C285.396 250.051 265.663 146.195 258.232 107.098C256.828 99.7106 255.902 94.8148 255.556 92.8933C253.064 78.9297 262.219 76.6046 262.312 76.5826H262.347C266.089 75.7667 269.203 76.2448 271.607 77.9996C274.823 80.351 275.556 84.2072 275.67 85.1416C284.409 116.828 307.602 279.685 308.572 286.612C308.633 287.043 308.55 287.482 308.335 287.862C308.121 288.241 307.788 288.539 307.387 288.709L292.91 294.851C292.671 294.95 292.415 295.001 292.156 295ZM263.202 80.4256C262.763 80.5484 257.644 82.2593 259.416 92.1958C259.758 94.1129 260.732 99.25 262.083 106.361C269.375 144.725 288.502 245.392 293.792 290.174L304.439 285.656C302.022 268.762 280.004 115.574 271.805 86.0497C271.772 85.9379 271.75 85.8233 271.739 85.7075C271.739 85.7075 271.397 82.7288 269.23 81.1626C267.8 80.1273 265.768 79.8685 263.202 80.4256Z" fill="#F57E1F"/>
<path d="M268.905 283.594H254.867C254.418 283.592 253.983 283.438 253.634 283.155C252.757 282.466 167.396 214.065 147.426 197.136C127.707 180.417 76.1207 128.485 74.0984 126.445C72.5366 125.107 65.6579 118.89 66.0132 113.635C66.0717 112.751 66.3442 111.895 66.8073 111.139C67.2705 110.384 67.9103 109.753 68.6717 109.301C75.9935 104.593 86.3248 118.048 87.9085 120.193C91.1329 123.374 160.061 191.227 201.267 224.361C243.338 258.193 269.892 279.869 270.142 280.076C270.46 280.333 270.691 280.682 270.802 281.076C270.913 281.47 270.898 281.888 270.761 282.274C270.624 282.659 270.37 282.992 270.035 283.227C269.701 283.462 269.301 283.587 268.892 283.585L268.905 283.594ZM255.56 279.646H263.36C254.231 272.219 231.09 253.416 198.793 227.441C156.648 193.552 85.7326 123.602 85.0219 122.9C84.946 122.823 84.8756 122.741 84.8113 122.654C81.0034 117.425 73.9185 110.625 70.8038 112.626C70.5621 112.745 70.3562 112.926 70.2068 113.15C70.0573 113.374 69.9697 113.634 69.9527 113.902C69.7816 116.403 73.8088 121.018 76.7217 123.501C76.7648 123.537 76.8058 123.575 76.8446 123.615C77.371 124.146 130.098 177.267 149.979 194.126C169.063 210.319 248.199 273.772 255.547 279.646H255.56Z" fill="#F57E1F"/>
<path d="M187.308 59.8772C186.742 59.8792 186.181 59.7673 185.658 59.5481C183.272 58.5435 182.074 55.5692 181.995 50.4452C181.991 50.1858 182.037 49.9281 182.133 49.6867C182.228 49.4454 182.37 49.2253 182.55 49.039C182.731 48.8527 182.947 48.7039 183.185 48.6012C183.423 48.4985 183.679 48.4438 183.939 48.4404H183.969C184.488 48.4403 184.985 48.6441 185.355 49.0077C185.724 49.3713 185.936 49.8656 185.944 50.3838C186.009 54.5075 186.86 55.7666 187.185 55.907C187.51 56.0474 188.466 55.5867 189.146 54.9901C189.611 54.3935 192.612 50.1645 190.651 43.0576C190.405 42.1539 190.177 41.2678 189.958 40.4255C188.045 32.915 186.996 28.7825 176.134 28.9492C164.224 29.1422 162.974 41.1273 162.934 41.6362C162.886 42.1598 162.631 42.6427 162.227 42.9788C161.823 43.3149 161.301 43.4766 160.778 43.4283C160.254 43.38 159.771 43.1257 159.435 42.7214C159.099 42.317 158.938 41.7957 158.986 41.2721C159.499 35.7314 163.724 25.1984 176.055 25.0053C190.032 24.7772 191.848 31.906 193.765 39.4515C193.98 40.2851 194.204 41.1493 194.441 42.0267C197.104 51.7087 192.248 57.4249 192.055 57.6662L191.923 57.8021C191.695 58.039 189.659 59.8772 187.308 59.8772Z" fill="#F57E1F"/>
<path d="M169.321 55.034H169.159C167.404 54.8892 163.215 54.4418 161.649 53.3933C161.061 53.0028 159.508 51.9675 159.017 43.084C158.999 42.7629 159.061 42.4425 159.195 42.1505C159.33 41.8585 159.533 41.6037 159.789 41.4081C160.162 41.123 169.142 34.4855 186.374 39.9999C186.772 40.1272 187.119 40.3776 187.366 40.715C187.613 41.0525 187.746 41.4595 187.747 41.8775V49.3354C187.745 49.6584 187.664 49.9761 187.511 50.2606C187.358 50.5452 187.138 50.7878 186.869 50.9673C186.654 51.1164 181.57 54.547 176.74 55.0296C176.371 55.0674 176 55.0006 175.668 54.8368C175.336 54.6731 175.056 54.4191 174.862 54.104C174.139 52.9201 173.295 51.8146 172.344 50.805C171.862 51.6944 171.479 52.6346 171.203 53.6082C171.086 54.0173 170.839 54.3773 170.5 54.6343C170.16 54.8914 169.747 55.0316 169.321 55.034ZM164.031 50.2084C165.309 50.5734 166.617 50.823 167.94 50.9541C168.817 48.6642 170.133 46.497 172.173 46.497C173.735 46.497 175.533 47.9886 177.521 50.9278C179.995 50.3926 182.517 49.0239 183.798 48.2605V43.3384C172.226 40.0043 165.325 42.7812 163.035 44.0227C163.237 46.7207 163.654 49.3222 164.018 50.1908L164.031 50.2084Z" fill="#00ADE8"/>
</g>
</svg>
