<svg width="370" height="320" viewBox="0 0 370 320" fill="none" xmlns="http://www.w3.org/2000/svg">
<mask id="mask0" mask-type="alpha" maskUnits="userSpaceOnUse" x="0" y="0" width="370" height="320">
<rect width="370" height="320" fill="#C4C4C4"/>
</mask>
<g mask="url(#mask0)">
<path d="M179.672 205.851C179.299 205.852 178.933 205.742 178.622 205.535C178.311 205.328 178.069 205.034 177.925 204.689C177.782 204.344 177.744 203.965 177.816 203.598C177.888 203.232 178.067 202.895 178.331 202.631L192.919 187.916C193.092 187.729 193.3 187.579 193.531 187.475C193.763 187.371 194.013 187.314 194.267 187.308C194.521 187.303 194.774 187.348 195.01 187.442C195.245 187.536 195.46 187.677 195.641 187.856C195.821 188.034 195.964 188.248 196.06 188.483C196.156 188.718 196.204 188.97 196.201 189.224C196.198 189.478 196.143 189.729 196.041 189.961C195.939 190.194 195.791 190.403 195.606 190.577L181.017 205.292C180.842 205.47 180.632 205.611 180.401 205.707C180.17 205.803 179.922 205.852 179.672 205.851Z" fill="#F57E1F"/>
<path d="M150.264 260C143.756 260 137.429 259.369 133.183 258.945C131.304 258.76 129.361 258.562 128.92 258.6C127.348 258.785 122.568 258.646 121.315 255.657C120.062 252.668 123.53 249.809 124.678 248.88C126.773 247.246 128.986 245.771 131.3 244.466C136.063 241.641 140.969 238.719 148.217 229.36C148.529 228.978 148.977 228.733 149.467 228.676C149.957 228.62 150.45 228.757 150.84 229.058C151.23 229.36 151.487 229.802 151.556 230.29C151.626 230.778 151.501 231.274 151.21 231.673C143.534 241.607 138.06 244.852 133.233 247.72C131.074 248.931 129.009 250.304 127.058 251.827C125.376 253.185 124.955 253.954 124.867 254.219C125.376 254.61 127.217 254.984 128.487 254.833C129.235 254.745 130.589 254.875 133.561 255.174C140.788 255.893 154.237 257.234 163.562 254.879C173.908 252.264 185.003 237.642 193.079 226.947C194.53 225.034 195.9 223.226 197.187 221.583C206.015 210.345 211.376 205.561 211.603 205.363C211.788 205.193 212.005 205.061 212.242 204.976C212.479 204.891 212.731 204.854 212.982 204.867C213.234 204.88 213.48 204.943 213.706 205.053C213.933 205.162 214.136 205.316 214.302 205.505C214.468 205.694 214.596 205.914 214.676 206.153C214.756 206.391 214.788 206.643 214.77 206.895C214.751 207.146 214.683 207.391 214.569 207.615C214.454 207.839 214.296 208.038 214.104 208.201C214.003 208.289 208.693 213.044 200.167 223.916C198.906 225.535 197.536 227.33 196.098 229.234C187.198 241.006 176.124 255.611 164.491 258.55C160.194 259.638 155.179 260 150.264 260Z" fill="#F57E1F"/>
<path d="M227.725 194.466C227.348 194.466 226.979 194.353 226.666 194.141C226.354 193.929 226.111 193.629 225.971 193.279C225.83 192.928 225.798 192.544 225.877 192.175C225.957 191.806 226.145 191.469 226.418 191.208C226.683 190.956 253.034 165.714 258.369 160.631C259.522 159.53 260.38 158.157 260.864 156.638C261.348 155.119 261.443 153.502 261.14 151.937C260.513 148.994 258.424 146.791 255.254 145.677C245.055 142.095 238.484 146.098 236.71 147.418C232.699 150.394 218.144 165.941 217.997 166.101C217.828 166.286 217.624 166.435 217.397 166.541C217.17 166.646 216.924 166.706 216.674 166.716C216.424 166.725 216.174 166.685 215.939 166.598C215.705 166.511 215.49 166.378 215.307 166.206C215.124 166.035 214.977 165.83 214.874 165.601C214.772 165.373 214.715 165.126 214.709 164.876C214.702 164.626 214.745 164.376 214.835 164.143C214.926 163.909 215.062 163.696 215.235 163.515C215.84 162.864 230.172 147.54 234.456 144.382C240.195 140.123 248.439 139.27 256.507 142.108C260.9 143.651 263.94 146.947 264.835 151.147C265.284 153.345 265.165 155.621 264.489 157.761C263.813 159.9 262.602 161.831 260.972 163.372C255.624 168.455 229.277 193.688 229.02 193.941C228.673 194.276 228.209 194.465 227.725 194.466Z" fill="#F57E1F"/>
<path d="M197.523 96.2071C197.275 96.2132 197.027 96.1703 196.795 96.0808C196.564 95.9913 196.352 95.8571 196.172 95.6857C195.808 95.3396 195.597 94.8633 195.585 94.3615C195.573 93.8598 195.76 93.3737 196.106 93.0102C196.452 92.6468 196.929 92.4357 197.43 92.4234C212.565 91.6793 233.935 79.8446 234.149 79.7227C234.453 79.5556 234.795 79.4729 235.142 79.4831C239.526 79.6513 244.676 79.7269 246.493 79.6008C246.964 77.957 247.022 73.2274 247.052 71.0959C247.052 70.1079 247.073 69.2545 247.102 68.5734C247.102 68.3296 247.102 68.1277 247.102 67.9596C244.58 68.3043 237.588 68.9518 227.852 67.4046C216.366 65.5758 194.378 68.771 194.155 68.8004C193.667 68.8573 193.175 68.7217 192.785 68.4223C192.395 68.1229 192.137 67.6833 192.065 67.1967C191.993 66.7101 192.114 66.2148 192.401 65.8156C192.689 65.4165 193.12 65.145 193.605 65.0587C194.53 64.9242 216.391 61.7501 228.444 63.6672C239.014 65.3488 246.24 64.2768 247.283 64.0876C247.634 63.9809 248.004 63.952 248.367 64.0029C248.73 64.0537 249.077 64.183 249.385 64.3819C250.827 65.311 250.915 67.2953 250.861 68.7079C250.836 69.3301 250.827 70.1583 250.815 71.1211C250.709 79.0375 250.394 82.5689 247.939 83.187C246.324 83.6074 239.064 83.3887 235.486 83.2584C232.123 85.0872 212.498 95.4504 197.578 96.1777L197.523 96.2071Z" fill="#00ADE8"/>
<path d="M168.935 89.7411C168.744 89.7424 168.554 89.714 168.371 89.6571C165.399 88.7321 164.167 86.9034 163.688 85.5328C162.162 81.3035 165.37 76.1744 165.744 75.6069C165.879 75.3984 166.054 75.2187 166.259 75.0779C166.464 74.9371 166.694 74.8381 166.937 74.7863C167.18 74.7346 167.431 74.7312 167.675 74.7765C167.919 74.8217 168.153 74.9145 168.361 75.0498C168.569 75.1851 168.749 75.3601 168.89 75.5648C169.031 75.7695 169.13 76 169.181 76.243C169.233 76.486 169.237 76.7368 169.191 76.9811C169.146 77.2254 169.053 77.4585 168.918 77.6669C168.245 78.7137 166.492 82.1653 167.236 84.2506C167.35 84.5575 167.686 85.4866 169.481 86.0415C169.914 86.1751 170.285 86.4595 170.526 86.8431C170.767 87.2268 170.862 87.6841 170.794 88.132C170.727 88.5799 170.5 88.9887 170.157 89.284C169.813 89.5793 169.375 89.7415 168.922 89.7411H168.935Z" fill="#00ADE8"/>
<path d="M208.811 185.679C208.381 185.679 207.964 185.531 207.63 185.259C207.529 185.179 197.481 177.145 193.521 174.375C189.216 171.36 184.839 164.781 184.654 164.499C184.517 164.292 184.422 164.06 184.375 163.816C184.328 163.572 184.33 163.321 184.38 163.078C184.429 162.834 184.527 162.603 184.666 162.398C184.806 162.192 184.985 162.016 185.192 161.88C185.544 161.645 185.965 161.537 186.386 161.573C185.903 160.833 185.592 160.337 185.545 160.274C185.278 159.849 185.19 159.335 185.301 158.846C185.412 158.356 185.713 157.931 186.138 157.663C186.563 157.395 187.077 157.308 187.566 157.419C188.056 157.53 188.481 157.831 188.749 158.256C188.778 158.306 191.969 163.36 194.038 165.899C195.509 167.707 205.99 175.909 212.25 180.651C212.487 180.831 212.678 181.064 212.808 181.331C212.938 181.599 213.004 181.893 212.999 182.19C212.994 182.487 212.919 182.779 212.78 183.042C212.641 183.305 212.442 183.532 212.2 183.703L209.9 185.33C209.582 185.556 209.201 185.678 208.811 185.679Z" fill="#F57E1F"/>
<path d="M167.695 134.532C167.446 134.532 167.2 134.483 166.971 134.388C166.741 134.293 166.533 134.153 166.358 133.977C166.265 133.884 157.109 124.728 152.829 120.599C148.175 116.093 145.219 104.973 145.093 104.502C145.03 104.261 145.015 104.011 145.048 103.765C145.082 103.518 145.164 103.281 145.289 103.066C145.414 102.851 145.581 102.664 145.779 102.513C145.977 102.363 146.202 102.253 146.443 102.19C146.683 102.126 146.934 102.111 147.18 102.145C147.426 102.178 147.664 102.26 147.878 102.385C148.093 102.511 148.281 102.677 148.431 102.875C148.582 103.073 148.692 103.299 148.755 103.539C149.524 106.482 152.232 114.752 155.482 117.884C159.77 122.041 168.935 131.206 169.048 131.299C169.312 131.564 169.491 131.901 169.564 132.268C169.636 132.635 169.599 133.015 169.456 133.36C169.313 133.706 169.071 134.002 168.761 134.21C168.45 134.418 168.085 134.53 167.711 134.532H167.695Z" fill="#F57E1F"/>
<path d="M163.322 135.074C162.855 135.07 162.406 134.894 162.061 134.578C162.002 134.524 156.07 129.113 150.866 124.282C145.224 119.057 143.218 109.383 143.134 108.971C143.079 108.725 143.073 108.471 143.118 108.223C143.162 107.975 143.255 107.738 143.393 107.527C143.53 107.315 143.708 107.133 143.916 106.992C144.124 106.85 144.359 106.751 144.606 106.701C144.853 106.652 145.107 106.652 145.354 106.701C145.601 106.751 145.836 106.85 146.044 106.992C146.252 107.133 146.43 107.315 146.567 107.526C146.704 107.738 146.798 107.974 146.842 108.222C146.867 108.34 148.705 117.127 153.434 121.508C158.631 126.317 164.554 131.728 164.613 131.782C164.895 132.039 165.093 132.374 165.181 132.745C165.269 133.115 165.243 133.504 165.107 133.859C164.971 134.215 164.73 134.521 164.417 134.738C164.104 134.955 163.733 135.072 163.352 135.074H163.322Z" fill="#F57E1F"/>
<path d="M196.989 95.5765C196.741 95.5828 196.493 95.5402 196.261 95.451C196.029 95.3618 195.817 95.2277 195.637 95.0566C195.457 94.8854 195.312 94.6804 195.211 94.4533C195.11 94.2262 195.055 93.9814 195.049 93.733C195.042 93.4845 195.085 93.2373 195.174 93.0053C195.263 92.7733 195.398 92.5612 195.569 92.3811C195.74 92.2009 195.945 92.0562 196.172 91.9553C196.399 91.8543 196.644 91.7991 196.892 91.7928C198.111 91.7195 199.325 91.5792 200.529 91.3724C199.305 91.4144 198.553 91.4102 198.46 91.4144C197.959 91.4144 197.477 91.2151 197.123 90.8603C196.768 90.5055 196.569 90.0243 196.569 89.5225C196.569 89.0208 196.768 88.5396 197.123 88.1848C197.477 87.83 197.959 87.6307 198.46 87.6307C204.311 87.5477 210.147 87.0022 215.912 85.9995C224.106 84.4902 227.187 83.2206 227.456 83.1028H227.494C227.942 82.9401 228.434 82.9522 228.874 83.1368C229.313 83.3214 229.666 83.6649 229.863 84.0987C230.06 84.5324 230.086 85.0245 229.936 85.4766C229.786 85.9287 229.471 86.3076 229.054 86.5376L228.991 86.567L221.247 89.9892C221.184 90.0167 221.119 90.0406 221.053 90.0607C220.389 90.2709 204.775 95.1855 197.09 95.5849L196.989 95.5765Z" fill="#F57E1F"/>
<path d="M93.9962 158.344C93.5231 158.344 93.0673 158.166 92.7186 157.846C92.3699 157.526 92.1538 157.088 92.1128 156.616C92.0624 156.015 90.923 141.763 97.1578 127.679C103.22 113.94 114.117 97.523 121.962 90.3129C128.895 83.9437 137.488 79.008 148.213 75.2453C149.318 70.9823 152.959 64.5332 160.501 65.0545C169.393 65.6767 171.39 68.0226 171.853 69.0022C172.058 69.4393 172.088 69.9382 171.937 70.3968C171.786 70.8554 171.465 71.239 171.041 71.469C170.616 71.699 170.12 71.7579 169.653 71.6339C169.187 71.5098 168.785 71.212 168.531 70.8016C168.321 70.604 166.656 69.2797 160.253 68.8298C153.317 68.3421 151.757 76.6621 151.694 77.0152C151.635 77.3501 151.486 77.6628 151.264 77.9203C151.042 78.1778 150.755 78.3706 150.432 78.4783C139.746 82.1107 131.266 86.8865 124.514 93.1003C116.993 100.012 106.491 115.87 100.609 129.21C94.7992 142.377 95.8797 156.158 95.8923 156.293C95.9342 156.793 95.7758 157.29 95.4519 157.674C95.1279 158.058 94.6649 158.297 94.1644 158.34L93.9962 158.344Z" fill="#00ADE8"/>
<path d="M197.102 94.0042C196.772 94.0033 196.447 93.9161 196.161 93.7511C195.874 93.5861 195.636 93.349 195.47 93.0635C195.303 92.7779 195.214 92.4538 195.211 92.1232C195.209 91.7927 195.292 91.4671 195.454 91.179C201.672 80.202 198.767 74.6358 194.702 70.2593C190.136 65.3446 184.528 64.0077 178.041 66.2906C173.139 68.0395 169.847 73.3241 168.767 75.3042C169.663 76.9417 170.796 78.4377 172.13 79.7438C172.306 79.9193 172.445 80.1278 172.541 80.3573C172.636 80.5868 172.685 80.8328 172.685 81.0813C172.685 81.3298 172.637 81.5759 172.542 81.8055C172.447 82.0351 172.308 82.2439 172.132 82.4197C171.956 82.5955 171.748 82.7351 171.519 82.8303C171.289 82.9256 171.043 82.9748 170.795 82.9749C170.546 82.9751 170.3 82.9264 170.07 82.8315C169.841 82.7366 169.632 82.5974 169.456 82.4218C166.093 79.0585 164.941 76.0567 164.895 75.9306C164.806 75.696 164.766 75.4462 164.775 75.1957C164.785 74.9452 164.844 74.6991 164.949 74.4718C165.122 74.1018 169.229 65.3866 176.797 62.7212C184.721 59.9339 191.877 61.6492 197.481 67.6863C204.207 74.9174 204.59 82.7371 198.742 93.0456C198.577 93.3355 198.339 93.5767 198.051 93.745C197.763 93.9133 197.436 94.0027 197.102 94.0042Z" fill="#F57E1F"/>
<path d="M190.586 104.565C188.744 104.555 186.959 103.927 185.516 102.782C184.078 101.639 183.2 100.138 183.107 98.6582C183.101 98.5588 183.101 98.4591 183.107 98.3597C183.118 97.9808 182.986 97.6117 182.737 97.3254C182.35 96.9723 181.501 96.8588 180.391 97.0101C177.028 97.9897 170.217 97.6786 167.648 89.7034C166.703 87.2608 166.227 82.0645 171.1 79.4201C176.565 76.4772 186.466 83.5653 188.627 85.2007C189.123 85.4992 191.482 86.937 193.891 88.6607C199.15 92.4445 199.936 94.1555 200.008 95.463C200.197 99.0702 195.9 103.783 191.797 104.464C191.397 104.531 190.992 104.565 190.586 104.565ZM186.891 98.49C187.058 99.0295 187.401 99.4974 187.866 99.8185C188.325 100.191 188.857 100.465 189.427 100.622C189.997 100.779 190.594 100.816 191.179 100.731C193.605 100.31 196.19 97.2624 196.224 95.7657C195.669 94.5675 191.229 91.1412 186.588 88.3917L186.411 88.274C182.434 85.2428 175.388 81.396 172.899 82.7455C169.78 84.4272 171.033 87.9797 171.188 88.3749L171.23 88.4968C172.126 91.3219 173.753 92.991 176.086 93.4535C177.192 93.6626 178.33 93.6268 179.42 93.3483C179.513 93.3231 179.605 93.3021 179.702 93.2853C182.148 92.9195 184.049 93.3567 185.352 94.5928C185.864 95.1009 186.265 95.7095 186.529 96.3803C186.794 97.051 186.917 97.7693 186.891 98.49Z" fill="#00ADE8"/>
<path d="M176.612 109.122C175.817 109.141 175.03 108.954 174.329 108.58C170.28 106.31 161.367 96.0053 165.307 86.2391C165.4 86.0086 165.537 85.7987 165.711 85.6213C165.886 85.444 166.093 85.3026 166.322 85.2054C166.55 85.1082 166.796 85.057 167.045 85.0548C167.293 85.0525 167.54 85.0992 167.77 85.1923C168.001 85.2853 168.211 85.4228 168.388 85.597C168.565 85.7711 168.707 85.9785 168.804 86.2073C168.901 86.436 168.952 86.6817 168.955 86.9303C168.957 87.1788 168.91 87.4254 168.817 87.6559C165.899 94.8828 173.143 103.581 176.179 105.28C177.343 105.927 182.186 103.501 186.147 100.285C186.537 99.9684 187.037 99.8197 187.537 99.8718C188.037 99.9238 188.495 100.172 188.812 100.563C189.129 100.953 189.277 101.453 189.225 101.953C189.173 102.453 188.925 102.911 188.535 103.228C186.626 104.771 180.883 109.122 176.612 109.122Z" fill="#00ADE8"/>
<path d="M167.695 99.5368C167.347 99.5354 167.006 99.4386 166.71 99.257C166.413 99.0754 166.172 98.8159 166.013 98.5068C165.269 97.1698 158.811 93.3231 155.343 91.2588C154.271 90.6198 153.241 89.9976 152.35 89.4637C146.464 85.865 147.889 76.763 147.952 76.3762C148.039 75.8865 148.316 75.4507 148.722 75.1634C149.128 74.876 149.631 74.7602 150.122 74.8409C150.612 74.9216 151.052 75.1924 151.344 75.5946C151.637 75.9968 151.76 76.4981 151.685 76.99C151.374 78.9239 151.24 84.3514 154.325 86.2391C155.213 86.7814 156.217 87.3826 157.268 88.0133C163.881 91.9483 168.3 94.6894 169.372 96.7873C169.52 97.0755 169.591 97.3967 169.578 97.7203C169.566 98.0438 169.471 98.3588 169.302 98.6351C169.134 98.9114 168.897 99.1398 168.615 99.2984C168.332 99.457 168.014 99.5405 167.69 99.541L167.695 99.5368Z" fill="#00ADE8"/>
<path d="M156.852 136.146C156.583 136.147 156.317 136.089 156.072 135.978C155.827 135.867 155.609 135.705 155.431 135.503L143.525 121.974C129.5 106.562 130.072 94.6474 130.118 94.1639C130.133 93.9154 130.197 93.6724 130.306 93.4487C130.415 93.225 130.568 93.0249 130.754 92.86C130.94 92.6951 131.157 92.5684 131.393 92.4874C131.628 92.4063 131.877 92.3724 132.126 92.3876C132.374 92.4028 132.617 92.4668 132.841 92.5759C133.064 92.685 133.265 92.8371 133.429 93.0235C133.594 93.2099 133.721 93.427 133.802 93.6623C133.883 93.8977 133.917 94.1467 133.902 94.3951C133.902 94.5465 133.515 105.326 146.35 119.448L158.282 133.006C158.522 133.279 158.678 133.616 158.731 133.976C158.785 134.335 158.734 134.703 158.584 135.034C158.434 135.366 158.192 135.647 157.886 135.844C157.58 136.041 157.224 136.146 156.861 136.146H156.852Z" fill="#00ADE8"/>
<path d="M153.926 218.854C150.641 218.871 147.365 218.536 144.151 217.854C143.371 217.757 142.65 217.386 142.117 216.807C140.645 215.293 140.115 212.451 140.485 208.117C141.263 199.124 143.807 177.12 150.731 165.756C150.924 164.659 151.483 160.492 149.47 157.516C149.236 157.101 149.168 156.613 149.278 156.15C149.388 155.687 149.669 155.282 150.064 155.017C150.459 154.752 150.94 154.645 151.411 154.719C151.881 154.792 152.306 155.041 152.602 155.414C155.873 160.236 154.431 166.639 154.367 166.908C154.32 167.112 154.239 167.307 154.128 167.484C147.494 178.032 145.018 199.629 144.257 208.457C143.903 212.569 144.584 213.851 144.786 214.133H144.837C153.905 216.151 162.708 214.553 167.152 213.385C173.82 211.665 177.768 209.315 178.44 208.415C178.613 207.343 178.117 205.472 177.6 203.48C176.948 201.025 176.212 198.241 176.212 195.315C176.212 192.221 178.222 185.225 180.547 177.145C182.56 170.128 184.646 162.876 185.482 157.903C187.277 147.254 184.679 143.125 182.119 140.094C179.42 136.92 171.525 134.536 167.72 134.536C164.609 134.536 156.499 136.512 143.622 140.422C135.865 142.768 132.548 146.665 127.957 152.063C126.822 153.4 125.645 154.783 124.312 156.267C118.065 163.133 117.75 165.966 116.98 172.819L116.942 173.155C115.942 182.106 110.296 181.803 110.056 181.786C109.853 181.774 109.654 181.727 109.467 181.648C94.9421 175.585 92.1422 158.008 92.0287 157.281C91.9914 157.035 92.0029 156.784 92.0625 156.543C92.1221 156.302 92.2286 156.075 92.376 155.875C92.5233 155.674 92.7087 155.505 92.9214 155.377C93.1341 155.248 93.37 155.163 93.6157 155.126C93.8614 155.089 94.112 155.1 94.3533 155.16C94.5945 155.219 94.8216 155.326 95.0217 155.473C95.2218 155.621 95.3909 155.806 95.5193 156.019C95.6478 156.231 95.7331 156.467 95.7703 156.713C95.804 156.948 98.3685 172.571 110.485 177.935C111.099 177.771 112.7 176.943 113.175 172.697L113.213 172.361C114.025 165.1 114.432 161.455 121.504 153.682C122.794 152.265 123.951 150.907 125.065 149.595C129.689 144.13 133.696 139.451 142.516 136.781C156.125 132.665 164.129 130.748 167.711 130.748C172.365 130.748 181.413 133.431 184.99 137.639C188.354 141.591 191.191 146.854 189.224 158.529C188.349 163.713 186.235 171.07 184.179 178.183C182.123 185.297 179.975 192.751 179.975 195.311C179.975 197.741 180.643 200.276 181.236 202.509C181.934 205.145 182.535 207.423 182.077 209.374C181.198 213.359 167.863 218.854 153.926 218.854Z" fill="#00ADE8"/>
<path d="M180.631 122.21H180.542C180.041 122.187 179.57 121.966 179.231 121.595C178.893 121.225 178.716 120.735 178.739 120.234C179.088 112.62 177.309 107.432 177.293 107.382C177.144 106.914 177.184 106.407 177.403 105.967C177.621 105.528 178.002 105.191 178.465 105.027C178.928 104.863 179.436 104.886 179.883 105.09C180.329 105.294 180.679 105.663 180.858 106.12C180.942 106.356 182.901 112.006 182.539 120.414C182.513 120.902 182.301 121.36 181.945 121.695C181.589 122.029 181.119 122.214 180.631 122.21Z" fill="#00ADE8"/>
<path d="M214.314 173.071C213.879 173.073 213.456 172.923 213.117 172.649C212.779 172.375 212.546 171.992 212.457 171.566C212.368 171.139 212.429 170.695 212.629 170.308C212.83 169.922 213.158 169.616 213.557 169.443C214.398 169.069 215.706 168.207 215.941 167.555C215.966 167.488 215.979 167.446 215.916 167.312C215.672 166.824 215.256 166.16 214.772 165.395C212.725 162.136 209.631 157.213 210.749 151.87C212.099 145.417 213.608 132.846 210.694 126.683C209.854 124.884 208.941 122.66 207.983 120.305C206.537 116.757 205.04 113.087 203.493 110.215C201.281 106.125 200.159 105.978 200.108 105.969C196.619 105.645 187.416 106.696 181.253 112.032C180.874 112.36 180.38 112.525 179.879 112.49C179.378 112.454 178.912 112.221 178.583 111.842C178.254 111.463 178.089 110.969 178.125 110.468C178.16 109.968 178.393 109.502 178.772 109.173C185.608 103.253 195.702 101.757 200.462 102.202C204.552 102.589 207.482 109.055 211.485 118.876C212.427 121.184 213.314 123.362 214.117 125.064C218.144 133.59 215.105 149.537 214.453 152.648C213.646 156.49 216.135 160.472 217.976 163.381C218.51 164.222 218.972 164.97 219.3 165.622C219.557 166.118 219.707 166.662 219.74 167.22C219.774 167.777 219.69 168.336 219.494 168.859C218.611 171.28 215.647 172.642 215.063 172.916C214.826 173.018 214.572 173.071 214.314 173.071Z" fill="#00ADE8"/>
<path d="M118.931 182.135C116.315 182.136 113.704 181.897 111.132 181.421C110.643 181.318 110.215 181.026 109.94 180.609C109.666 180.191 109.567 179.682 109.667 179.193C109.766 178.703 110.055 178.273 110.471 177.995C110.886 177.718 111.395 177.616 111.885 177.713C111.99 177.734 122.652 179.815 128.701 176.321C131.699 174.589 148.692 165.205 152.131 165.205H152.169C152.671 165.209 153.15 165.412 153.502 165.77C153.854 166.127 154.05 166.61 154.046 167.112C154.042 167.614 153.839 168.093 153.481 168.445C153.124 168.797 152.641 168.993 152.139 168.989C150.29 169.208 138.653 174.934 130.597 179.596C127.142 181.601 122.689 182.135 118.931 182.135Z" fill="#00ADE8"/>
<path d="M209.219 191.96H209.084C205.629 191.717 202.85 187.626 201.958 186.159C200.617 185.154 194.984 180.967 190.96 178.667C187.873 176.895 185.124 174.589 182.842 171.856C182.54 171.46 182.407 170.96 182.471 170.466C182.535 169.972 182.791 169.523 183.184 169.217C183.578 168.911 184.076 168.772 184.57 168.831C185.065 168.89 185.517 169.142 185.827 169.531C187.81 171.87 190.181 173.849 192.835 175.383C197.624 178.12 204.262 183.153 204.544 183.371C204.747 183.527 204.917 183.721 205.044 183.943C205.965 185.549 207.806 187.777 209.084 188.147C210.623 187.655 216.652 185.452 218.581 180.807C218.548 180.609 218.384 180.092 217.589 179.407C216.223 178.225 213.007 172.785 207.874 163.969C205.385 159.685 203.03 155.641 201.832 153.879C198.847 149.469 190.481 140.847 190.405 140.741C190.291 140.624 190.192 140.493 190.111 140.35C190.014 140.178 180.442 123.114 175.22 115.357C174.27 113.949 173.366 112.414 172.496 110.943C168.292 103.796 164.634 97.6113 155.053 100.247C143.618 103.4 146.174 119.166 146.287 119.855C146.349 120.339 146.221 120.827 145.932 121.219C145.642 121.611 145.213 121.876 144.732 121.958C144.252 122.041 143.759 121.936 143.355 121.664C142.95 121.392 142.667 120.975 142.562 120.499C141.377 113.654 142.251 99.8521 154.048 96.6023C166.421 93.1928 171.596 101.971 175.754 109.021C176.637 110.518 177.469 111.926 178.356 113.225C183.401 120.705 192.116 136.172 193.294 138.269C194.555 139.581 202.009 147.371 204.964 151.723C206.226 153.598 208.622 157.697 211.144 162.035C214.268 167.404 218.993 175.518 220.066 176.514C222.908 178.965 222.348 181.421 222.277 181.69C222.277 181.749 222.243 181.807 222.222 181.862C219.473 189.186 210.106 191.775 209.707 191.88C209.548 191.928 209.384 191.955 209.219 191.96Z" fill="#00ADE8"/>
<path d="M225.182 189.875C224.68 189.896 224.191 189.716 223.821 189.376C223.452 189.036 223.233 188.563 223.212 188.061C223.192 187.559 223.371 187.07 223.711 186.701C224.052 186.331 224.525 186.112 225.026 186.091C227.081 185.8 229.049 185.069 230.794 183.947C233.906 181.959 236.731 177.372 236.003 175.489C235.352 173.807 231.564 172.802 226.775 173.063C221.819 173.332 216.736 170.54 216.521 170.397C216.092 170.148 215.777 169.74 215.646 169.26C215.515 168.781 215.577 168.269 215.82 167.836C216.063 167.402 216.467 167.082 216.944 166.944C217.422 166.805 217.934 166.861 218.371 167.097C218.413 167.122 222.718 169.494 226.569 169.283C229.84 169.107 237.643 169.22 239.535 174.126C241.216 178.461 236.76 184.637 232.833 187.134C230.572 188.592 228.012 189.525 225.342 189.863L225.182 189.875Z" fill="#00ADE8"/>
<path d="M202.244 193.495C198.986 193.495 195.589 193.074 193.777 191.506C190.162 188.408 188.711 178.289 188.455 176.292C188.391 175.794 188.528 175.291 188.835 174.894C189.142 174.497 189.594 174.238 190.092 174.175C190.59 174.111 191.093 174.248 191.49 174.555C191.887 174.862 192.145 175.314 192.209 175.812C192.768 180.18 194.387 187.046 196.241 188.635C197.998 190.136 205.162 189.795 209.45 189.093C209.945 189.011 210.452 189.129 210.86 189.421C211.268 189.713 211.544 190.156 211.626 190.651C211.708 191.146 211.59 191.653 211.297 192.061C211.005 192.469 210.563 192.744 210.068 192.826C207.481 193.248 204.865 193.472 202.244 193.495Z" fill="#00ADE8"/>
<path d="M221.533 185.137C221.104 185.137 220.687 184.991 220.352 184.723C220.017 184.456 219.783 184.082 219.688 183.663C219.593 183.245 219.643 182.807 219.83 182.421C220.017 182.035 220.33 181.723 220.717 181.538C220.885 181.412 222.046 180.412 223.088 176.531C224.551 171.066 229.891 169.636 232.569 169.636H232.632C233.133 169.636 233.615 169.836 233.969 170.191C234.324 170.545 234.523 171.027 234.523 171.528C234.523 172.03 234.324 172.511 233.969 172.866C233.615 173.221 233.133 173.42 232.632 173.42C232.409 173.42 227.843 173.487 226.746 177.511C225.169 183.397 223.021 184.725 222.172 185.028C221.967 185.101 221.75 185.138 221.533 185.137Z" fill="#00ADE8"/>
<path d="M216.484 208.991C215.152 208.99 213.823 208.876 212.511 208.651C212.191 208.594 211.891 208.455 211.641 208.248C211.39 208.042 211.198 207.774 211.081 207.471C210.964 207.168 210.928 206.839 210.975 206.518C211.022 206.197 211.151 205.893 211.35 205.636L213.738 202.542C212.897 201.016 211.283 198.098 209.534 195.538C208.016 193.302 207.508 191.515 207.979 190.073C208.107 189.667 208.324 189.295 208.615 188.984C208.906 188.673 209.263 188.432 209.66 188.278C210.064 188.136 210.505 188.135 210.909 188.276C211.314 188.417 211.658 188.691 211.887 189.053C212.115 189.416 212.214 189.845 212.167 190.271C212.12 190.696 211.93 191.093 211.628 191.397C211.858 192.121 212.209 192.8 212.666 193.407C214.474 196.135 216.138 198.956 217.652 201.857C217.817 202.177 217.888 202.537 217.855 202.895C217.822 203.253 217.688 203.595 217.467 203.879L216.45 205.199C218.043 205.199 219.611 204.989 220.427 204.421C223.097 202.551 227.179 197.775 227.364 196.324C226.805 194.403 222.47 186.684 218.792 183.67C218.401 183.352 218.153 182.892 218.102 182.392C218.051 181.891 218.201 181.39 218.518 181C218.836 180.61 219.296 180.362 219.797 180.311C220.297 180.259 220.798 180.409 221.188 180.727C225.594 184.338 230.437 193.053 231.059 195.488C232.081 199.578 223.753 206.696 222.596 207.507C220.957 208.693 218.544 208.991 216.484 208.991Z" fill="#00ADE8"/>
<path d="M175.216 238.681C174.531 238.683 173.846 238.648 173.164 238.576C167.337 237.97 152.106 235.023 149.621 233.417C148.759 232.862 147.658 231.639 145.417 224.063C144.303 220.279 143.441 216.74 143.407 216.592C143.289 216.105 143.37 215.59 143.631 215.161C143.892 214.733 144.313 214.426 144.801 214.307C145.289 214.189 145.804 214.27 146.232 214.531C146.661 214.792 146.968 215.213 147.086 215.701C148.553 221.78 150.731 228.982 151.748 230.281C153.699 231.265 166.938 234.124 173.564 234.813C179.798 235.46 187.992 232.425 190.759 228.444C192.226 226.342 192.743 224.181 192.142 222.688C192.016 222.354 191.808 222.056 191.536 221.825C191.263 221.593 190.937 221.434 190.586 221.364C187.105 220.67 179.319 218.652 176.183 214.108C172.26 215.882 162.002 221.204 160.333 229.066C160.289 229.316 160.196 229.555 160.058 229.768C159.92 229.982 159.74 230.165 159.53 230.307C159.319 230.45 159.082 230.548 158.833 230.597C158.584 230.646 158.327 230.644 158.078 230.591C157.83 230.539 157.594 230.437 157.386 230.291C157.178 230.146 157.001 229.96 156.866 229.744C156.731 229.529 156.641 229.289 156.601 229.038C156.561 228.787 156.572 228.531 156.634 228.284C159.122 216.542 175.666 210.185 176.372 209.92C176.606 209.833 176.856 209.793 177.105 209.803C177.355 209.812 177.601 209.871 177.828 209.976C178.055 210.08 178.259 210.229 178.428 210.413C178.598 210.597 178.729 210.812 178.815 211.047C179.996 214.31 186.054 216.601 191.33 217.656C192.297 217.845 193.2 218.277 193.955 218.91C194.71 219.543 195.293 220.357 195.648 221.276C196.745 223.992 196.094 227.393 193.865 230.601C190.313 235.709 181.85 238.681 175.216 238.681Z" fill="#00ADE8"/>
<path d="M170.028 234.372C167.699 234.372 165.685 233.363 163.722 232.379C161.666 231.345 159.724 230.369 157.491 230.592C151.185 231.227 145.926 223.596 145.341 222.726C145.203 222.519 145.107 222.287 145.059 222.044C145.011 221.8 145.011 221.549 145.059 221.305C145.108 221.061 145.204 220.829 145.342 220.623C145.48 220.416 145.658 220.239 145.865 220.101C146.071 219.963 146.303 219.867 146.547 219.818C146.791 219.77 147.042 219.77 147.286 219.819C147.53 219.867 147.761 219.963 147.968 220.102C148.175 220.24 148.352 220.417 148.49 220.624C149.726 222.47 153.682 227.178 157.109 226.829C160.443 226.489 163.087 227.822 165.424 228.999C167.27 229.928 168.868 230.731 170.469 230.567C173.9 230.214 174.673 229.306 178.411 223.247C182.674 216.34 187.971 216.887 188.194 216.916L187.744 220.675H187.786C187.656 220.675 184.553 220.494 181.631 225.232C178.016 231.088 176.368 233.762 170.856 234.325C170.581 234.356 170.305 234.371 170.028 234.372Z" fill="#00ADE8"/>
<path d="M253.387 82.5815C250.049 82.5815 248.162 82.4848 248.044 82.4764C247.542 82.4497 247.072 82.2247 246.736 81.851C246.4 81.4773 246.226 80.9854 246.253 80.4837C246.28 79.9819 246.505 79.5114 246.878 79.1755C247.252 78.8396 247.744 78.666 248.246 78.6927C248.288 78.6927 252.5 78.9113 259.496 78.6927C260.974 78.6867 262.45 78.5672 263.91 78.3354C263.166 77.9948 261.253 77.7047 259.542 77.6921C259.072 77.6841 258.622 77.5013 258.279 77.1793C257.936 76.8573 257.726 76.4192 257.689 75.9505C257.651 75.4818 257.79 75.0159 258.077 74.6439C258.365 74.2718 258.781 74.0201 259.244 73.9379C262.031 73.4712 269.989 70.6292 272.995 69.0106C272.768 68.8331 272.59 68.6 272.478 68.3337C272.362 68.0732 272.309 67.7888 272.323 67.5038C272.338 67.2189 272.42 66.9414 272.562 66.6941C272.219 66.8531 271.836 66.9073 271.462 66.8497C271.089 66.7921 270.74 66.6254 270.46 66.3704C270.259 66.1778 270.104 65.9418 270.007 65.6803C269.91 65.4188 269.874 65.1386 269.901 64.8611C269.463 64.9298 269.03 65.0225 268.602 65.1386C268.322 65.2173 268.027 65.2298 267.741 65.1751C267.455 65.1204 267.186 64.9999 266.954 64.8233C266.663 64.6014 266.441 64.3009 266.315 63.9572C264.795 64.4111 263.318 65.0021 261.905 65.723C259.294 67.0262 250.255 68.6028 249.234 68.7794C248.742 68.8573 248.24 68.7384 247.835 68.4484C247.431 68.1585 247.157 67.7209 247.073 67.2304C246.989 66.7399 247.101 66.236 247.386 65.8279C247.671 65.4199 248.105 65.1405 248.595 65.0503C252.244 64.4239 258.621 63.1332 260.215 62.3386C267.299 58.7946 268.854 60.2114 269.367 60.657C269.493 60.7699 269.602 60.9001 269.691 61.0438C270.763 60.9092 271.831 60.9513 272.583 61.3759C272.966 61.5885 273.281 61.9028 273.496 62.284C274.209 62.1362 274.952 62.2402 275.598 62.5783C275.999 62.8188 276.327 63.1627 276.549 63.574C276.771 63.9853 276.878 64.4488 276.859 64.9158C276.862 65.5184 276.796 66.1193 276.661 66.7067C277.251 67.3831 277.563 68.2569 277.536 69.1536C277.536 70.5157 276.943 71.7853 269.489 74.6441C268.564 74.9973 267.61 75.342 266.677 75.67C267.198 76.1211 267.54 76.7449 267.639 77.4273C267.639 77.545 267.677 77.6585 267.694 77.7678C267.82 78.533 268.014 79.6933 267.168 80.7107C266.189 81.9005 264.495 82.2914 259.601 82.4428C257.188 82.5563 255.119 82.5815 253.387 82.5815Z" fill="#00ADE8"/>
</g>
</svg>
