<svg width="40" height="40" viewBox="0 0 40 40" fill="none" xmlns="http://www.w3.org/2000/svg">
<mask id="mask0" mask-type="alpha" maskUnits="userSpaceOnUse" x="0" y="0" width="40" height="40">
<rect width="40" height="40" fill="#C4C4C4"/>
</mask>
<g mask="url(#mask0)">
<path d="M5.09597 34.0774C3.26231 32.0731 2.47472 29.25 2.50062 26.0507C2.52649 22.8537 3.36595 19.3292 4.72906 15.9944C6.0917 12.6609 7.96718 9.54253 10.0415 7.15564C12.1266 4.75634 14.3622 3.15315 16.4319 2.74121C20.7233 1.88774 25.994 3.32508 30.2025 6.66146C34.3978 9.98745 37.5 15.1724 37.5 21.7698C37.5 24.9851 35.9886 27.8784 33.5448 30.2973C31.0988 32.7183 27.74 34.6396 24.1217 35.8879C20.504 37.136 16.6572 37.7009 13.2511 37.436C9.83747 37.1705 6.9264 36.0781 5.09597 34.0774Z" stroke="#00ADE8"/>
<mask id="mask1" mask-type="alpha" maskUnits="userSpaceOnUse" x="6" y="7" width="28" height="29">
<rect x="6.5" y="7.73242" width="27" height="27" fill="#C4C4C4" stroke="#00ADE8"/>
</mask>
<g mask="url(#mask1)">
<path d="M13.5838 24.5943L10.9858 23.8303C10.6028 23.7173 10.1878 23.8233 9.90477 24.1053C9.42277 24.5873 9.49377 25.3883 10.0548 25.7763L12.2688 27.2763M30.5028 10.1923C31.3588 11.0493 31.1018 12.8173 29.7888 14.5193C29.7878 14.5203 29.7868 14.5213 29.7868 14.5223C29.2208 15.2533 19.2458 25.0633 19.2458 25.0633C18.7958 25.5133 18.1768 25.9873 17.4028 26.4743C17.4028 26.4743 12.2798 28.9863 12.2458 28.9993C12.0898 29.0583 11.9128 29.0213 11.7938 28.9023C11.6758 28.7843 11.6368 28.6063 11.6968 28.4503C11.7098 28.4163 14.2218 23.2933 14.2218 23.2933C14.7088 22.5203 15.1828 21.9013 15.6328 21.4503C15.6328 21.4503 25.4448 11.4733 26.1758 10.9073C27.8778 9.5933 29.6458 9.3363 30.5028 10.1923ZM22.3688 14.6413L10.6668 12.7363C10.2118 12.6623 9.74577 12.8133 9.42077 13.1383C8.79477 13.7643 8.87977 14.8003 9.59377 15.3173L16.6108 20.3993L22.3688 14.6413ZM20.2968 24.0843L25.3788 31.1013C25.8958 31.8153 26.9318 31.9003 27.5578 31.2743C27.8838 30.9483 28.0338 30.4833 27.9598 30.0283L26.0548 18.3263L20.2968 24.0843ZM27.0348 24.3453L29.0478 22.3323C29.5468 21.8333 29.5468 21.0243 29.0478 20.5253C28.5488 20.0263 27.7408 20.0263 27.2418 20.5253L26.5288 21.2383L27.0348 24.3453ZM18.9898 14.0913L19.7028 13.3783C20.2018 12.8793 20.2018 12.0713 19.7028 11.5723C19.2038 11.0733 18.3948 11.0733 17.8958 11.5723L15.8828 13.5853L18.9898 14.0913ZM13.4188 28.4263L14.9188 30.6403C15.3078 31.2013 16.1078 31.2723 16.5898 30.7903C16.8728 30.5073 16.9778 30.0933 16.8648 29.7093L16.1008 27.1113L13.4188 28.4263Z" stroke="#00ADE8" stroke-miterlimit="10" stroke-linecap="round" stroke-linejoin="round"/>
</g>
</g>
</svg>
