<svg width="40" height="40" viewBox="0 0 40 40" fill="none" xmlns="http://www.w3.org/2000/svg">
<mask id="mask0" mask-type="alpha" maskUnits="userSpaceOnUse" x="0" y="0" width="40" height="40">
<rect width="40" height="40" fill="#C4C4C4"/>
</mask>
<g mask="url(#mask0)">
<path d="M26.5293 2.9599C29.6601 3.5255 32.0713 4.57057 33.1839 5.88578C34.2516 7.14828 35.2931 9.33583 36.0876 12.0368C36.8787 14.726 37.4111 17.8777 37.4899 21.0339C37.6485 27.3932 35.9695 33.5563 31.1387 36.1953C25.9356 39.0374 18.7124 36.9938 12.7387 32.3629C6.78187 27.7451 2.30102 20.7235 2.50683 13.9904C2.60752 10.6964 4.22674 8.20271 6.72024 6.38133C9.22771 4.54975 12.6125 3.40732 16.175 2.86833C19.7333 2.33 23.4291 2.39982 26.5293 2.9599Z" stroke="#00ADE8"/>
<mask id="mask1" mask-type="alpha" maskUnits="userSpaceOnUse" x="6" y="5" width="28" height="28">
<rect x="6.5" y="5.5" width="27" height="27" fill="#C4C4C4" stroke="#00ADE8"/>
</mask>
<g mask="url(#mask1)">
<path d="M24.0883 25.2356H25.9163C25.4803 27.5976 23.3413 29.3727 20.8233 29.2317C18.1943 29.0847 16.2083 26.7606 16.2083 24.1266V12.7406C17.5773 12.1926 18.4833 10.7277 18.1453 9.10465C17.8893 7.87465 16.8693 6.88166 15.6333 6.65366C13.6103 6.27966 11.8403 7.82968 11.8403 9.78568C11.8403 11.1257 12.6743 12.2707 13.8483 12.7417V24.0937C13.8483 27.7787 16.4903 31.0677 20.1463 31.5367C24.5693 32.1047 28.3543 28.6587 28.3543 24.3457V20.7926C28.3543 20.5406 28.0503 20.4147 27.8723 20.5917L24.0883 25.2356ZM15.0293 8.69767C15.6293 8.69767 16.1173 9.18568 16.1173 9.78568C16.1173 10.3857 15.6293 10.8736 15.0293 10.8736C14.4293 10.8736 13.9413 10.3857 13.9413 9.78568C13.9413 9.18568 14.4293 8.69767 15.0293 8.69767Z" stroke="#00ADE8" stroke-miterlimit="10" stroke-linecap="round" stroke-linejoin="round"/>
</g>
</g>
</svg>
