<svg width="60" height="61" viewBox="0 0 60 61" fill="none" xmlns="http://www.w3.org/2000/svg">
<mask id="mask0" mask-type="alpha" maskUnits="userSpaceOnUse" x="0" y="0" width="60" height="61">
<rect y="0.328125" width="60" height="60" fill="#C4C4C4"/>
</mask>
<g mask="url(#mask0)">
<path d="M11.036 2.60467C-5.93591 11.8761 -0.160578 45.4609 7.39057 54.3899C15.5927 64.0866 59.28 63.5399 59.9882 40.3696C60.6965 17.1993 29.2629 -7.35149 11.036 2.60467Z" fill="white"/>
<path d="M18.6438 29.4629C18.6329 29.3107 18.6257 29.1566 18.6257 29.0006C18.6415 27.6147 19.1631 26.2886 20.0821 25.2981C21.0011 24.3076 22.2467 23.729 23.5597 23.6827C24.8727 23.6364 26.1522 24.1259 27.1318 25.0494C28.1114 25.9729 28.7159 27.2593 28.8193 28.641" stroke="#00ADE8" stroke-linecap="round" stroke-linejoin="round"/>
<path d="M42.354 33.8797C41.4717 32.4305 40.3169 31.1877 38.961 30.2282C37.6052 29.2687 36.0771 28.6129 34.4714 28.3014C32.8657 27.9899 31.2165 28.0292 29.6257 28.4171C28.035 28.805 26.5367 29.533 25.2234 30.5563" stroke="#00ADE8" stroke-linecap="round" stroke-linejoin="round"/>
<path d="M27.8667 32.7761C29.5612 31.7178 31.5452 31.2953 33.4962 31.5775C35.4471 31.8597 37.2501 32.8299 38.6121 34.3303" stroke="#00ADE8" stroke-linecap="round" stroke-linejoin="round"/>
<path d="M17.5238 40.6873C17.4512 40.3967 17.4142 40.0975 17.4138 39.797C17.4143 39.3069 17.5139 38.8226 17.7059 38.3764C17.8979 37.9303 18.178 37.5324 18.5273 37.2095C18.8767 36.8865 19.2873 36.6459 19.7318 36.5037C20.1763 36.3615 20.6444 36.321 21.105 36.3848C21.5655 36.4487 22.0078 36.6155 22.4024 36.874C22.797 37.1325 23.1347 37.4769 23.3931 37.8841C23.6515 38.2913 23.8246 38.752 23.9008 39.2354C23.977 39.7188 23.9546 40.2137 23.8351 40.6873" stroke="#00ADE8" stroke-linecap="round" stroke-linejoin="round"/>
<path d="M35.8066 36.7608C36.5953 35.5477 37.7312 34.6327 39.0482 34.1496C40.3652 33.6666 41.7942 33.6409 43.1261 34.0763C44.4579 34.5117 45.6228 35.3854 46.4501 36.5694C47.2774 37.7535 47.7239 39.1858 47.7241 40.6568" stroke="#00ADE8" stroke-linecap="round" stroke-linejoin="round"/>
<path d="M37.9324 40.4698C37.9812 39.5754 38.3583 38.7362 38.9838 38.1302C39.6093 37.5243 40.4339 37.1992 41.2828 37.224C42.1317 37.2487 42.938 37.6213 43.5308 38.2628C44.1237 38.9043 44.4563 39.7641 44.4582 40.66" stroke="#00ADE8" stroke-linecap="round" stroke-linejoin="round"/>
<path d="M51.991 40.7188H7C9.24415 46.8276 12.4547 50.328 15.8272 50.328H43.1728C46.5453 50.328 49.7558 46.8335 52 40.7247L51.991 40.7188Z" stroke="#00ADE8" stroke-linecap="round" stroke-linejoin="round"/>
<path d="M37.4151 40.4961C37.26 35.6641 31.3383 33.5278 28.399 37.2297C27.6527 38.1754 27.2336 39.3609 27.2107 40.5912" stroke="#00ADE8" stroke-linecap="round" stroke-linejoin="round"/>
<path d="M29.795 36.0031C28.9334 33.6931 27.3125 31.7875 25.2285 30.6348C23.1446 29.4821 20.737 29.1593 18.446 29.7255C16.155 30.2917 14.1338 31.709 12.752 33.7182C11.3702 35.7274 10.7201 38.1943 10.9207 40.6676" stroke="#00ADE8" stroke-linecap="round" stroke-linejoin="round"/>
<path d="M27.1708 40.5492C27.2679 39.5786 27.1685 38.5972 26.8789 37.6702C26.5894 36.7432 26.1165 35.8917 25.4914 35.1721C24.8664 34.4525 24.1035 33.8813 23.2534 33.4962C22.4033 33.1112 21.4853 32.9211 20.5602 32.9386C19.6352 32.9561 18.7243 33.1808 17.8878 33.5978C17.0513 34.0148 16.3084 34.6146 15.7082 35.3574C15.1081 36.1002 14.6644 36.9691 14.4066 37.9064C14.1488 38.8438 14.1277 39.7532 14.2578 40.7195" stroke="#00ADE8" stroke-linecap="round" stroke-linejoin="round"/>
<path d="M24.5022 10.3281C22.6702 12.2609 25.0793 13.0047 25.0793 14.5361C25.0793 16.1455 23.24 16.2102 23.24 17.6807C23.24 19.0124 24.6303 20.0054 24.8809 20.0054" stroke="#00ADE8" stroke-linecap="round" stroke-linejoin="round"/>
<path d="M29.3991 10.3281C27.5671 12.2609 29.9762 13.0047 29.9762 14.5361C29.9762 16.1455 28.1387 16.2102 28.1387 17.6807C28.1387 19.0124 29.5272 20.0054 29.7778 20.0054" stroke="#00ADE8" stroke-linecap="round" stroke-linejoin="round"/>
<path d="M34.2994 10.3281C32.4673 12.2609 34.8764 13.0047 34.8764 14.5361C34.8764 16.1455 33.0371 16.2102 33.0371 17.6807C33.0371 19.0124 34.4256 20.0054 34.6762 20.0054" stroke="#00ADE8" stroke-linecap="round" stroke-linejoin="round"/>
</g>
</svg>
