<svg width="424" height="307" viewBox="0 0 424 307" fill="none" xmlns="http://www.w3.org/2000/svg">
<rect width="423.375" height="306.256" fill="black" fill-opacity="0" transform="translate(0.312317 0.0590515)"/>
<rect width="423.375" height="241.17" fill="black" fill-opacity="0" transform="translate(0.312317 0.0590515)"/>
<path d="M21.0547 227.544C21.1718 226.444 20.8523 225.343 20.165 224.476C19.6604 223.94 19.056 223.508 18.3857 223.203C17.6954 222.911 16.9437 222.635 16.1461 222.359L13.6458 221.5C12.1118 221.04 10.4398 220.518 8.85983 219.966C7.33402 219.428 5.90071 218.657 4.61078 217.681C3.32194 216.709 2.27255 215.455 1.54288 214.015C0.690456 212.257 0.269746 210.322 0.315717 208.37C0.284645 206.489 0.650529 204.623 1.38948 202.893C2.09076 201.301 3.13894 199.886 4.45739 198.752C5.84033 197.568 7.45454 196.685 9.1973 196.159C11.2197 195.541 13.3259 195.241 15.4405 195.27C16.3915 195.27 17.6033 195.27 19.0759 195.484C20.5409 195.639 21.9888 195.926 23.4017 196.343C24.6968 196.71 25.9171 197.302 27.0065 198.092C27.4811 198.404 27.8702 198.83 28.1381 199.331C28.406 199.832 28.5443 200.392 28.5404 200.961C28.5424 201.484 28.4357 202.003 28.2271 202.484C28.0186 202.964 27.7126 203.396 27.3286 203.752C26.8783 204.163 26.3507 204.481 25.7767 204.686C25.2026 204.892 24.5934 204.981 23.9846 204.949C23.4352 204.954 22.8879 204.881 22.3586 204.734L20.8246 204.259C20.2111 204.044 19.5208 203.829 18.7385 203.63C17.8058 203.397 16.8464 203.289 15.8853 203.308C15.1084 203.31 14.3332 203.382 13.5691 203.522C12.8632 203.655 12.1906 203.926 11.5903 204.32C11.0202 204.716 10.5524 205.242 10.225 205.854C9.8542 206.563 9.67444 207.356 9.7035 208.155C9.6515 208.688 9.70756 209.227 9.86833 209.738C10.0291 210.249 10.2913 210.723 10.6392 211.131C11.1636 211.651 11.7699 212.081 12.4339 212.404C13.2257 212.79 14.0402 213.128 14.8729 213.416L17.1125 214.107C18.7231 214.613 20.3031 215.15 21.8984 215.717C23.42 216.265 24.8519 217.035 26.1475 218.003C27.42 218.98 28.4665 220.22 29.2154 221.638C30.083 223.362 30.4999 225.278 30.4272 227.207C30.4617 229.238 30.037 231.252 29.1847 233.097C28.3997 234.787 27.2467 236.281 25.81 237.469C24.3008 238.691 22.5648 239.604 20.7019 240.153C18.6082 240.785 16.4308 241.095 14.244 241.073C12.8273 241.058 11.413 240.951 10.0103 240.751C8.44537 240.558 6.90373 240.209 5.40844 239.708C4.12636 239.28 2.92391 238.642 1.84967 237.821C1.38734 237.511 1.00657 237.094 0.739559 236.605C0.472552 236.117 0.327171 235.571 0.315717 235.014C0.324383 234.495 0.437509 233.983 0.648345 233.509C0.859182 233.035 1.16341 232.607 1.54288 232.253C1.94482 231.852 2.42389 231.536 2.95118 231.326C3.47847 231.115 4.04303 231.013 4.61078 231.026C5.12912 231.033 5.64454 231.105 6.14473 231.241C6.68161 231.394 7.26452 231.563 7.86276 231.778C8.461 231.992 9.56544 232.315 10.6239 232.606C11.8259 232.917 13.0639 233.067 14.3054 233.051C16.1036 233.188 17.8935 232.694 19.3674 231.655C19.9453 231.158 20.3999 230.533 20.6954 229.831C20.9908 229.128 21.1191 228.366 21.0701 227.605" fill="#00ADE8"/>
<path d="M53.8046 213.616C53.4842 212.614 53.2431 211.588 53.0837 210.548C52.9149 209.428 52.7615 208.385 52.6388 207.48C52.5059 208.441 52.3525 209.464 52.1786 210.548C52.0265 211.589 51.7853 212.616 51.4577 213.616L48.0216 224.445H57.0719L53.8046 213.616ZM43.4658 238.052C43.1522 238.953 42.5409 239.722 41.7324 240.23C40.9957 240.712 40.1426 240.988 39.2628 241.027C38.0706 241.054 36.9077 240.657 35.9801 239.908C35.5309 239.566 35.1698 239.122 34.927 238.612C34.6842 238.102 34.5667 237.542 34.5842 236.978C34.5716 236.743 34.5716 236.507 34.5842 236.272C34.5921 236.035 34.6441 235.8 34.7376 235.582L47.408 199.565C47.8013 198.435 48.4109 197.393 49.2028 196.497C49.667 196.063 50.2161 195.73 50.8153 195.519C51.4146 195.308 52.0512 195.223 52.6848 195.27C53.3138 195.221 53.9462 195.302 54.5425 195.508C55.1389 195.713 55.6866 196.04 56.1516 196.466C56.9654 197.357 57.5961 198.4 58.0076 199.534L70.6781 235.551C70.794 235.781 70.8618 236.031 70.8775 236.288C70.8775 236.594 70.8775 236.824 70.8775 236.993C70.8961 237.551 70.7854 238.106 70.5538 238.615C70.3223 239.123 69.9763 239.571 69.543 239.923C68.6019 240.691 67.4128 241.089 66.1989 241.043C65.2724 241.026 64.3711 240.738 63.6066 240.214C62.7792 239.718 62.1379 238.963 61.7812 238.067L59.4649 231.686H45.6593L43.4658 238.052Z" fill="#00ADE8"/>
<path d="M92.6749 216.346L106.91 234.754C107.201 235.079 107.411 235.467 107.524 235.889C107.585 236.223 107.615 236.562 107.616 236.901C107.623 237.427 107.523 237.949 107.324 238.435C107.125 238.943 106.828 239.407 106.45 239.8C106.043 240.212 105.572 240.554 105.054 240.813C104.477 241.097 103.841 241.239 103.198 241.227C102.468 241.241 101.745 241.082 101.089 240.762C100.433 240.442 99.8622 239.97 99.4243 239.386L86.8152 222.927L85.6494 224.2V237.116C85.6468 237.662 85.5262 238.201 85.2959 238.696C85.0655 239.191 84.7309 239.631 84.3149 239.984C83.4362 240.785 82.2902 241.229 81.1013 241.229C79.9124 241.229 78.7663 240.785 77.8876 239.984C77.4716 239.631 77.137 239.191 76.9066 238.696C76.6763 238.201 76.5557 237.662 76.5531 237.116V199.319C76.5559 198.776 76.6766 198.239 76.907 197.746C77.1374 197.254 77.472 196.817 77.8876 196.466C78.7799 195.693 79.9208 195.268 81.1013 195.268C82.2817 195.268 83.4226 195.693 84.3149 196.466C84.7305 196.817 85.0651 197.254 85.2955 197.746C85.5259 198.239 85.6467 198.776 85.6494 199.319V211.346L98.4886 197.11C98.9182 196.596 99.438 196.165 100.023 195.837C100.666 195.465 101.396 195.269 102.139 195.27C102.667 195.277 103.188 195.387 103.673 195.592C104.231 195.792 104.75 196.088 105.207 196.466C105.63 196.839 105.988 197.28 106.266 197.77C106.546 198.233 106.695 198.763 106.695 199.304C106.697 199.729 106.641 200.152 106.527 200.562C106.322 201.109 106.003 201.606 105.591 202.019L92.6749 216.346Z" fill="#00ADE8"/>
<path d="M144.369 239.785C143.495 240.584 142.355 241.027 141.171 241.027C139.987 241.027 138.846 240.584 137.973 239.785C137.55 239.435 137.209 238.997 136.973 238.501C136.738 238.006 136.613 237.465 136.607 236.917V222.16H122.802V236.917C122.796 237.462 122.674 238 122.444 238.495C122.214 238.989 121.881 239.429 121.467 239.785C120.584 240.584 119.436 241.026 118.246 241.026C117.055 241.026 115.907 240.584 115.025 239.785C114.609 239.431 114.274 238.992 114.044 238.497C113.813 238.002 113.693 237.463 113.69 236.917V199.319C113.693 198.776 113.814 198.239 114.044 197.746C114.274 197.254 114.609 196.817 115.025 196.466C115.921 195.695 117.064 195.271 118.246 195.271C119.428 195.271 120.571 195.695 121.467 196.466C121.88 196.819 122.213 197.256 122.444 197.748C122.674 198.24 122.796 198.776 122.802 199.319V214.061H136.607V199.319C136.613 198.773 136.738 198.234 136.974 197.741C137.21 197.249 137.55 196.813 137.973 196.466C138.853 195.695 139.985 195.27 141.155 195.27C142.326 195.27 143.457 195.695 144.338 196.466C144.764 196.81 145.107 197.245 145.343 197.739C145.579 198.232 145.702 198.772 145.704 199.319V236.917C145.701 237.463 145.58 238.002 145.35 238.497C145.12 238.992 144.785 239.431 144.369 239.785Z" fill="#00ADE8"/>
<path d="M171.121 213.616C170.794 212.616 170.552 211.589 170.4 210.548C170.232 209.428 170.078 208.385 169.955 207.48C169.812 208.441 169.659 209.464 169.495 210.548C169.343 211.589 169.102 212.616 168.774 213.616L165.338 224.445H174.435L171.121 213.616ZM160.782 238.052C160.449 238.965 159.81 239.735 158.972 240.23C158.236 240.712 157.383 240.988 156.503 241.027C155.311 241.054 154.148 240.657 153.22 239.908C152.769 239.567 152.406 239.123 152.16 238.613C151.915 238.104 151.794 237.543 151.809 236.978C151.809 236.809 151.809 236.579 151.809 236.272C151.809 236.034 151.862 235.798 151.962 235.582L164.633 199.565C165.021 198.433 165.631 197.39 166.427 196.497C167.415 195.712 168.64 195.284 169.902 195.284C171.164 195.284 172.388 195.712 173.376 196.497C174.19 197.388 174.821 198.43 175.232 199.565L187.903 235.582C188.002 235.799 188.059 236.034 188.071 236.272C188.071 236.579 188.071 236.809 188.071 236.978C188.09 237.536 187.979 238.091 187.748 238.599C187.516 239.108 187.17 239.555 186.737 239.908C185.795 240.675 184.607 241.073 183.393 241.027C182.462 241.008 181.556 240.721 180.785 240.199C179.966 239.698 179.331 238.944 178.975 238.052L176.72 231.686H162.915L160.782 238.052Z" fill="#00ADE8"/>
<path d="M221.496 236.41C221.503 236.952 221.393 237.489 221.173 237.984C220.953 238.479 220.629 238.921 220.223 239.279C219.364 240.069 218.23 240.493 217.063 240.46H198.748C197.489 240.473 196.271 240.019 195.327 239.187C194.872 238.816 194.504 238.348 194.252 237.817C194 237.286 193.87 236.706 193.87 236.119V199.304C193.872 198.76 193.993 198.223 194.224 197.731C194.454 197.238 194.789 196.802 195.204 196.451C196.096 195.678 197.237 195.253 198.418 195.253C199.598 195.253 200.739 195.678 201.631 196.451C202.047 196.802 202.382 197.238 202.612 197.731C202.842 198.223 202.963 198.76 202.966 199.304V232.468H217.063C218.19 232.458 219.282 232.862 220.131 233.603C220.551 233.936 220.889 234.361 221.121 234.845C221.352 235.329 221.47 235.859 221.465 236.395" fill="#00ADE8"/>
<path d="M227.202 199.319C227.205 198.775 227.326 198.239 227.556 197.746C227.787 197.254 228.121 196.817 228.537 196.466C229.433 195.695 230.576 195.271 231.758 195.271C232.94 195.271 234.083 195.695 234.98 196.466C235.395 196.817 235.73 197.254 235.96 197.746C236.191 198.239 236.311 198.775 236.314 199.319V236.978C236.313 237.52 236.193 238.055 235.963 238.545C235.732 239.036 235.396 239.469 234.98 239.816C234.088 240.596 232.943 241.025 231.758 241.025C230.573 241.025 229.429 240.596 228.537 239.816C228.12 239.469 227.785 239.036 227.554 238.545C227.323 238.055 227.203 237.52 227.202 236.978V199.319Z" fill="#00ADE8"/>
<path d="M273.742 241.027C272.872 241.028 272.014 240.818 271.242 240.414C270.489 240.055 269.847 239.498 269.386 238.803L254.307 213.278V236.901C254.307 237.453 254.185 237.998 253.949 238.496C253.713 238.995 253.369 239.435 252.942 239.785C252.063 240.609 250.895 241.055 249.69 241.027C249.105 241.042 248.523 240.939 247.977 240.726C247.432 240.513 246.935 240.193 246.515 239.785C246.104 239.425 245.775 238.982 245.55 238.484C245.325 237.987 245.21 237.447 245.211 236.901V199.565C245.201 198.988 245.315 198.415 245.545 197.886C245.775 197.357 246.117 196.883 246.546 196.497C247.48 195.665 248.7 195.225 249.951 195.27C250.823 195.272 251.681 195.488 252.451 195.899C253.227 196.297 253.888 196.889 254.369 197.617L258.311 204.32L261.824 210.302C262.959 212.266 264.14 214.311 265.367 216.438C266.579 218.524 267.944 220.825 269.463 223.372V199.442C269.466 198.892 269.588 198.35 269.821 197.852C270.055 197.354 270.393 196.913 270.813 196.558C271.702 195.752 272.864 195.314 274.065 195.331C275.248 195.306 276.394 195.746 277.255 196.558C277.661 196.922 277.987 197.366 278.212 197.862C278.436 198.359 278.555 198.897 278.559 199.442V236.778C278.569 237.355 278.455 237.928 278.225 238.457C277.995 238.986 277.654 239.46 277.225 239.846C276.278 240.714 275.026 241.172 273.742 241.119" fill="#00ADE8"/>
<path d="M316.126 236.472C316.134 237.023 316.017 237.57 315.783 238.069C315.549 238.569 315.205 239.009 314.776 239.355C313.902 240.142 312.761 240.565 311.585 240.537H290.233C289.002 240.589 287.8 240.153 286.889 239.325C286.472 238.939 286.144 238.468 285.927 237.944C285.709 237.42 285.608 236.855 285.631 236.288C285.631 235.775 285.662 235.263 285.723 234.754C285.778 234.223 285.918 233.706 286.137 233.22C286.785 231.846 287.561 230.537 288.453 229.308C289.339 228.087 290.302 226.923 291.337 225.826C292.38 224.722 293.485 223.663 294.62 222.62L298.102 219.552C299.007 218.754 299.973 217.926 301.001 217.082C302 216.251 302.943 215.355 303.823 214.398C304.659 213.491 305.39 212.493 306.002 211.422C306.579 210.414 306.881 209.271 306.876 208.109C306.909 206.597 306.36 205.131 305.342 204.013C304.737 203.424 304.014 202.97 303.221 202.682C302.428 202.394 301.582 202.278 300.74 202.341C299.737 202.332 298.735 202.419 297.749 202.602C296.901 202.762 296.073 203.014 295.279 203.354C294.535 203.653 293.817 204.012 293.132 204.427C292.386 204.871 291.53 205.094 290.662 205.072C289.548 205.081 288.465 204.707 287.594 204.013C287.155 203.692 286.802 203.268 286.564 202.779C286.326 202.29 286.211 201.75 286.229 201.206C286.237 200.625 286.38 200.054 286.646 199.538C286.912 199.022 287.295 198.574 287.763 198.23C288.883 197.326 290.156 196.63 291.521 196.175C293.076 195.635 294.678 195.245 296.307 195.009C297.788 194.768 299.286 194.639 300.786 194.625C302.951 194.59 305.105 194.933 307.152 195.638C308.889 196.24 310.494 197.172 311.877 198.384C313.126 199.522 314.119 200.913 314.791 202.464C315.469 204.043 315.813 205.746 315.804 207.465C315.875 209.836 315.386 212.19 314.377 214.337C313.411 216.217 312.159 217.935 310.665 219.429C309.576 220.534 308.425 221.608 307.183 222.651C305.94 223.694 304.744 224.783 303.547 225.857C302.351 226.93 301.2 228.004 300.065 229.078C298.975 230.118 297.979 231.252 297.089 232.468H311.708C312.875 232.439 314.012 232.843 314.899 233.603C315.311 233.941 315.643 234.367 315.868 234.851C316.094 235.334 316.208 235.862 316.202 236.395" fill="#F57E1F"/>
<path d="M336.665 202.418C335.798 202.333 334.923 202.464 334.12 202.802C333.316 203.139 332.61 203.672 332.063 204.351C331.095 205.822 330.617 207.561 330.698 209.321V227.161C330.63 228.77 331.178 230.345 332.232 231.563C333.467 232.64 335.05 233.233 336.688 233.233C338.327 233.233 339.91 232.64 341.144 231.563C342.198 230.345 342.747 228.77 342.678 227.161V209.321C342.759 207.561 342.281 205.822 341.313 204.351C340.768 203.671 340.061 203.138 339.258 202.8C338.454 202.462 337.579 202.331 336.711 202.418H336.665ZM336.711 194.748C339.016 194.694 341.308 195.09 343.461 195.914C345.251 196.614 346.853 197.722 348.139 199.151C349.37 200.541 350.29 202.178 350.839 203.952C351.431 205.848 351.726 207.825 351.713 209.812V227.207C351.729 229.066 351.401 230.912 350.747 232.652C350.113 234.314 349.124 235.816 347.848 237.055C346.497 238.345 344.893 239.343 343.139 239.984C338.971 241.436 334.436 241.436 330.269 239.984C328.514 239.343 326.911 238.345 325.559 237.055C324.288 235.812 323.299 234.311 322.66 232.652C322.006 230.912 321.679 229.066 321.694 227.207V209.766C321.681 207.779 321.976 205.802 322.568 203.906C323.117 202.132 324.038 200.495 325.268 199.105C326.554 197.676 328.156 196.568 329.947 195.868C332.104 195.042 334.402 194.646 336.711 194.702" fill="#F57E1F"/>
<path d="M371.823 206.161L366.685 209.229C366.102 209.589 365.492 209.902 364.859 210.164C364.223 210.429 363.539 210.56 362.85 210.548C361.852 210.544 360.874 210.263 360.027 209.735C359.568 209.424 359.201 208.995 358.966 208.493C358.731 207.99 358.636 207.433 358.693 206.882C358.665 206.163 358.838 205.45 359.193 204.824C359.548 204.198 360.071 203.683 360.702 203.338L373.572 195.991C374.342 195.546 375.214 195.308 376.103 195.3C377.363 195.253 378.594 195.68 379.554 196.497C379.995 196.875 380.345 197.347 380.581 197.877C380.818 198.408 380.933 198.984 380.92 199.565V236.901C380.92 237.445 380.801 237.983 380.57 238.476C380.339 238.969 380.003 239.406 379.585 239.754C378.697 240.536 377.555 240.968 376.371 240.968C375.188 240.968 374.046 240.536 373.158 239.754C372.74 239.406 372.404 238.969 372.173 238.476C371.942 237.983 371.823 237.445 371.823 236.901V206.161Z" fill="#F57E1F"/>
<path d="M414.59 213.999C414.591 212.655 414.504 211.313 414.329 209.98C414.189 208.791 413.847 207.634 413.317 206.56C412.843 205.606 412.13 204.792 411.246 204.197C410.221 203.564 409.029 203.254 407.825 203.308C406.818 203.273 405.816 203.467 404.895 203.875C404.156 204.226 403.513 204.753 403.024 205.409C402.537 206.088 402.183 206.853 401.981 207.664C401.763 208.532 401.655 209.423 401.659 210.318C401.525 211.194 401.595 212.089 401.865 212.934C402.134 213.778 402.594 214.549 403.211 215.186C403.827 215.823 404.582 216.309 405.417 216.606C406.252 216.903 407.145 217.003 408.025 216.898C409.268 216.896 410.505 216.705 411.691 216.331C412.756 216.035 413.746 215.511 414.59 214.797V213.999ZM406.598 233.358C407.892 233.454 409.189 233.205 410.356 232.637C411.307 232.125 412.098 231.361 412.642 230.428C413.234 229.387 413.639 228.25 413.838 227.069C414.095 225.699 414.279 224.316 414.391 222.927C413.286 223.599 412.093 224.115 410.847 224.461C409.713 224.741 408.549 224.88 407.38 224.875C405.458 224.881 403.548 224.581 401.72 223.985C399.989 223.422 398.396 222.502 397.042 221.286C395.649 220.032 394.549 218.487 393.82 216.76C392.985 214.76 392.577 212.607 392.624 210.44C392.609 208.449 392.925 206.469 393.559 204.581C394.165 202.789 395.155 201.15 396.459 199.78C397.827 198.355 399.485 197.241 401.321 196.512C403.498 195.676 405.816 195.269 408.147 195.316C410.741 195.227 413.315 195.792 415.633 196.957C417.588 198.027 419.232 199.586 420.404 201.482C421.671 203.594 422.529 205.925 422.935 208.354C423.458 211.234 423.71 214.156 423.686 217.082C423.686 224.803 422.352 230.73 419.683 234.861C417.014 238.992 412.923 241.063 407.411 241.073C406.752 241.073 405.785 241.073 404.512 240.905C403.207 240.795 401.914 240.574 400.646 240.245C399.418 239.93 398.252 239.412 397.195 238.711C396.734 238.43 396.342 238.048 396.05 237.593C395.758 237.139 395.572 236.624 395.508 236.088C395.448 235.604 395.495 235.113 395.646 234.649C395.797 234.185 396.048 233.76 396.382 233.404C396.783 232.974 397.275 232.64 397.821 232.425C398.368 232.21 398.956 232.12 399.542 232.161C400.059 232.164 400.573 232.226 401.076 232.345L402.687 232.759C403.259 232.913 403.857 233.051 404.481 233.174C405.179 233.303 405.888 233.364 406.598 233.358Z" fill="#F57E1F"/>
<path d="M241.253 83.0765C241.412 89.0071 239.798 94.8502 236.618 99.8585C233.438 104.867 228.836 108.813 223.402 111.192C217.967 113.571 211.946 114.274 206.109 113.213C200.272 112.152 194.884 109.373 190.635 105.233C186.386 101.093 183.468 95.7799 182.254 89.9726C181.041 84.1653 181.588 78.1282 183.824 72.6331C186.06 67.1381 189.885 62.4351 194.809 59.1255C199.732 55.8159 205.531 54.0502 211.464 54.0542C219.262 53.9559 226.78 56.9576 232.366 62.3996C237.952 67.8416 241.148 75.2787 241.253 83.0765Z" fill="#FEE000"/>
<path d="M250.595 177.092H257.437V156.261C255.32 156.522 253.034 156.89 250.595 157.366V177.092ZM276.78 177.092H283.56V160.418C281.397 159.667 279.111 158.884 276.78 158.301V177.092ZM290.202 162.903V177.092H296.813V165.726C295.494 165.143 293.162 164.192 290.202 162.919V162.903ZM263.526 177.108H270.383V156.783C268.12 156.346 265.829 156.074 263.526 155.97V177.108ZM126.1 177.43H132.68V159.099C130.18 159.728 128.078 160.311 126.1 160.817V177.43ZM276.427 135.599C278.666 135.425 280.921 135.364 283.192 135.415V83.0765C283.192 44.3596 250.979 12.9596 211.096 12.9596C171.213 12.9596 139 44.3596 139 83.0765V136.059C141.163 135.154 143.387 134.326 145.658 133.574V83.0765C145.658 47.9643 174.925 19.5096 211.004 19.5096C247.082 19.5096 276.366 47.9643 276.366 83.0765L276.427 135.599ZM263.174 137.424C265.413 136.995 267.699 136.596 270.015 136.274V83.0765C270.015 51.4311 243.631 25.7681 211.081 25.7681C178.53 25.7681 152.177 51.4311 152.177 83.0765V131.749C154.37 131.227 156.595 130.813 158.865 130.506L158.972 83.0765C158.972 55.0359 182.319 32.3027 211.127 32.3027C239.934 32.3027 263.281 55.0359 263.281 83.0765L263.174 137.424ZM289.834 135.706C292.059 135.923 294.268 136.287 296.445 136.795V83.1072C296.506 37.2267 258.296 0.0590515 211.142 0.0590515C163.988 0.0590515 125.808 37.2267 125.808 83.0765V143.545C126.698 142.977 127.833 142.318 129.275 141.551L132.343 140.017V83.0765C132.343 40.7701 167.624 6.45563 211.096 6.45563C254.568 6.45563 289.926 40.7701 289.926 83.0765L289.834 135.706ZM165.123 177.43H171.704V159.329C169.48 158.838 167.256 158.378 165.077 157.964L165.123 177.43ZM152.162 177.43H158.742V156.952C156.487 156.645 154.263 156.43 152.115 156.338L152.162 177.43ZM139.062 141.673H139.43C140.365 141.505 141.301 141.351 142.268 141.213H142.62C143.617 141.075 144.614 140.952 145.688 140.845V138.606C143.403 139.372 141.086 140.216 139.046 141.029L139.062 141.673ZM250.35 140.308L257.191 138.774V83.0765C257.191 58.3492 236.606 38.3158 211.173 38.3158C185.74 38.3158 165.154 58.3492 165.154 83.0765V129.969C167.384 129.886 169.617 129.932 171.842 130.107L171.965 83.0765C171.965 62.0153 189.498 44.9578 211.111 44.9578C232.725 44.9578 250.35 62.0153 250.35 83.0765V140.308ZM139.062 157.611V177.43H145.642V156.507C144.799 156.583 143.955 156.691 143.142 156.829C141.608 157.09 140.304 157.35 139.031 157.611H139.062ZM165.108 140.738C167.332 140.952 169.557 141.213 171.781 141.535V136.473C169.572 136.197 167.332 135.998 165.108 135.906V140.738ZM152.177 136.749V140.278C154.355 140.278 156.564 140.278 158.85 140.278V135.89C158.205 135.89 157.561 135.89 156.917 136.013C155.321 136.147 153.737 136.393 152.177 136.749ZM165.139 151.46L171.781 153.423V149.435C169.541 149.021 167.317 148.653 165.139 148.331V151.46Z" fill="#00ADE8"/>
<path d="M262.238 153.914C249.153 153.914 223.506 163.302 205.758 163.302C188.01 163.302 161.365 151.659 143.479 154.804C134.582 156.338 129.582 157.872 125.072 159.068C112.294 162.259 112.57 159.068 122.111 154.467C136.285 147.641 145.443 146.015 155.858 147.196C165.062 148.223 189.452 158.424 206.709 158.424C221.358 158.424 248.509 147.687 263.281 147.687C283.989 147.687 301.768 155.724 313.272 160.925C324.777 166.125 308.962 168.901 297.381 163.9C293.638 162.366 275.399 153.914 262.299 153.914" fill="#00B36E"/>
<path d="M226.159 146.812C210.114 146.812 183.209 131.964 157.254 133.988C148.296 134.679 136.837 140.37 131.024 142.072C120.133 145.248 119.212 144.097 127.802 139.526C140.626 132.7 155.858 126.61 172.977 128.129C186.062 129.294 219.425 140.998 235.041 140.998C248.294 140.998 276.918 127.331 301.001 136.581C311.953 140.784 303.839 143.468 292.242 140.584C269.079 134.817 242.266 146.812 226.205 146.812" fill="#00ADE8"/>
<path d="M213.09 154.267C194.683 154.267 164.51 142.609 144.952 145.784C136.288 147.349 127.774 149.654 119.504 152.672C108.321 156.307 101.464 153.608 112.079 148.684C126.821 141.857 142.329 137.056 162.362 138.437C182.396 139.817 201.923 146.475 219.87 146.475C235.102 146.475 245.41 141.873 260.765 141.075C284.265 139.817 299.114 142.287 311.11 147.487C323.105 152.687 308.042 154.405 297.074 151.107C255.35 138.606 231.544 154.267 213.09 154.267Z" fill="#F57E1F"/>
<path d="M40.3518 278.011H37.5907V264.328L34.9216 265.678L33.8632 263.408L38.189 261.168H40.3518V278.011Z" fill="#221E1F"/>
<path d="M50.5526 261.214L49.6323 262.748C48.9821 262.299 48.2133 262.054 47.4234 262.043C46.6717 262.043 46.2269 262.365 46.2269 262.886C46.2269 263.408 47.0246 263.853 47.9756 264.19C49.2641 264.65 50.7981 265.249 50.7981 267.258C50.7981 269.267 49.4022 270.433 47.0399 270.433C45.8388 270.46 44.6611 270.1 43.6805 269.406L44.3708 267.872C45.1872 268.443 46.1669 268.733 47.1626 268.7C48.037 268.7 48.5585 268.332 48.5585 267.718C48.5585 267.105 47.7762 266.66 46.8558 266.338C45.5673 265.893 43.9873 265.325 43.9873 263.27C43.9873 261.214 45.2605 260.371 47.3927 260.371C48.5062 260.334 49.6057 260.627 50.5526 261.214Z" fill="#221E1F"/>
<path d="M59.1581 262.089H56.6731V270.219H54.4642V262.089H51.9945V260.401H59.1581V262.089Z" fill="#221E1F"/>
<path d="M88.748 261.398L83.916 278.011H80.8481L77.949 267.273L77.4121 264.635L77.0133 267.273L74.2215 278.011H71.1536L66.1989 261.398C66.6166 261.092 67.1229 260.93 67.6408 260.938C67.854 260.896 68.0737 260.9 68.2852 260.95C68.4968 260.999 68.6954 261.093 68.868 261.225C69.0406 261.357 69.1831 261.524 69.2863 261.715C69.3894 261.906 69.4507 262.117 69.4662 262.334L72.4114 272.903L72.979 275.434L73.4392 272.75L76.369 261.429C76.7702 261.099 77.2766 260.925 77.7956 260.938C78.2279 260.94 78.6456 261.095 78.9743 261.376C79.303 261.657 79.5213 262.045 79.5903 262.472L82.2134 273.056L82.6582 275.495L83.1951 272.903L86.263 260.953L88.748 261.398Z" fill="#221E1F"/>
<path d="M92.1227 278.011V261.291C92.4989 261.067 92.9273 260.945 93.3652 260.938C93.576 260.938 93.7847 260.981 93.9782 261.064C94.1716 261.148 94.3458 261.271 94.4897 261.425C94.6337 261.579 94.7443 261.761 94.8148 261.959C94.8852 262.158 94.914 262.369 94.8992 262.579V278.011H92.1227Z" fill="#221E1F"/>
<path d="M111.006 278.011L102.262 265.969L102.385 278.011H99.7464V261.291C100.062 261.059 100.444 260.935 100.836 260.938C101.196 260.955 101.545 261.066 101.849 261.26C102.153 261.454 102.401 261.724 102.569 262.043L110.637 273.194L110.53 261.168H113.168V278.042L111.006 278.011Z" fill="#221E1F"/>
<path d="M128.293 263.346H123.829V278.011H121.068V263.346H116.605V261.168H128.293V263.346Z" fill="#221E1F"/>
<path d="M141.945 275.833V278.011H131.76V261.138H141.685V263.316H134.506V268.224H140.872V270.403H134.506V275.802L141.945 275.833Z" fill="#221E1F"/>
<path d="M158.313 277.888C157.83 278.108 157.309 278.228 156.779 278.241C155.858 278.241 155.352 277.612 155.245 276.6L154.999 274.176C155.001 273.752 154.914 273.332 154.745 272.943C154.575 272.553 154.327 272.204 154.016 271.915C153.704 271.627 153.337 271.406 152.936 271.267C152.535 271.128 152.109 271.074 151.686 271.108H148.756V278.057H146.041V261.184C147.682 261.046 149.83 260.953 151.042 260.953C155.306 260.953 157.822 262.748 157.822 265.816C157.839 266.716 157.571 267.599 157.055 268.338C156.54 269.076 155.804 269.632 154.953 269.927C155.771 270.271 156.475 270.84 156.982 271.568C157.49 272.295 157.781 273.152 157.822 274.038L158.052 276.431C158.072 276.926 158.16 277.417 158.313 277.888ZM148.71 263.162V268.884H150.934C153.496 268.884 154.877 267.81 154.877 265.985C154.877 264.159 153.496 263.116 150.95 263.116L148.71 263.162Z" fill="#221E1F"/>
<path d="M174.971 278.241C170.37 278.241 167.654 275.035 167.654 269.59C167.654 264.144 170.293 260.938 174.726 260.938C175.821 260.877 176.912 261.122 177.876 261.645C178.84 262.168 179.64 262.948 180.187 263.899L177.625 264.957C177.356 264.42 176.942 263.968 176.43 263.654C175.917 263.339 175.327 263.174 174.726 263.178C172.072 263.178 170.492 265.571 170.492 269.59C170.492 273.609 172.256 275.986 175.202 275.986C176.765 276.009 178.29 275.501 179.527 274.544L180.647 276.477C179.006 277.683 177.007 278.304 174.971 278.241Z" fill="#221E1F"/>
<path d="M197.49 262.579V278.011H194.729V270.541H186.814V278.011H184.068V261.291C184.439 261.069 184.862 260.948 185.295 260.938C185.506 260.938 185.714 260.981 185.908 261.064C186.101 261.148 186.275 261.271 186.419 261.425C186.563 261.579 186.674 261.761 186.744 261.959C186.815 262.158 186.844 262.369 186.829 262.579V268.378H194.744V261.291C195.116 261.069 195.539 260.948 195.971 260.938C196.181 260.94 196.388 260.984 196.579 261.069C196.771 261.153 196.943 261.276 197.086 261.43C197.228 261.584 197.337 261.765 197.407 261.963C197.476 262.161 197.504 262.37 197.49 262.579Z" fill="#221E1F"/>
<path d="M202.368 278.011V261.291C202.746 261.07 203.173 260.949 203.61 260.938C203.821 260.938 204.03 260.981 204.223 261.064C204.417 261.148 204.591 261.271 204.735 261.425C204.879 261.579 204.989 261.761 205.06 261.959C205.13 262.158 205.159 262.369 205.144 262.579V278.011H202.368Z" fill="#221E1F"/>
<path d="M219.349 275.756V278.011H209.991V261.291C210.369 261.07 210.797 260.949 211.234 260.938C211.445 260.938 211.653 260.981 211.847 261.064C212.04 261.148 212.214 261.271 212.358 261.425C212.502 261.579 212.613 261.761 212.683 261.959C212.754 262.158 212.783 262.369 212.768 262.579V275.756H219.349Z" fill="#221E1F"/>
<path d="M235.946 269.59C235.946 275.035 232.725 278.241 227.279 278.241C225.899 278.241 223.674 278.103 222.677 278.011V261.138C223.613 261.046 225.561 260.907 227.279 260.907C232.725 260.938 235.946 264.144 235.946 269.59ZM233.077 269.59C233.077 265.525 230.915 263.116 227.248 263.116C226.758 263.116 226.052 263.116 225.515 263.208V275.986C226.091 276.042 226.67 276.067 227.248 276.063C230.915 276.063 233.077 273.655 233.077 269.59Z" fill="#221E1F"/>
<path d="M252.344 277.888C251.861 278.106 251.34 278.226 250.81 278.241C249.905 278.241 249.383 277.612 249.276 276.6L249.046 274.176C249.047 273.75 248.96 273.329 248.79 272.939C248.62 272.548 248.37 272.198 248.057 271.909C247.744 271.621 247.374 271.4 246.971 271.262C246.569 271.125 246.141 271.072 245.717 271.108H242.68V278.057H239.919V261.184C241.56 261.046 243.708 260.953 244.92 260.953C249.184 260.953 251.715 262.748 251.715 265.816C251.729 266.718 251.457 267.601 250.939 268.339C250.422 269.077 249.684 269.633 248.831 269.927C249.651 270.27 250.356 270.839 250.867 271.566C251.377 272.294 251.671 273.151 251.715 274.038L251.945 276.431C252.002 276.934 252.137 277.426 252.344 277.888ZM242.726 263.162V268.884H244.95C247.527 268.884 248.908 267.81 248.908 265.985C248.908 264.159 247.527 263.116 244.966 263.116L242.726 263.162Z" fill="#221E1F"/>
<path d="M266.364 275.833V278.011H256.179V261.138H266.103V263.316H258.94V268.224H265.29V270.403H258.94V275.802L266.364 275.833Z" fill="#221E1F"/>
<path d="M281.688 278.011L272.945 265.97L273.052 278.011H270.414V261.291C270.734 261.056 271.122 260.933 271.518 260.938C271.878 260.958 272.226 261.071 272.529 261.264C272.833 261.457 273.081 261.725 273.252 262.043L281.305 273.194L281.197 261.168H283.836V278.042L281.688 278.011Z" fill="#221E1F"/>
<path d="M294.19 269.59C294.19 264.144 297.089 260.938 301.998 260.938C306.907 260.938 309.806 264.144 309.806 269.59C309.806 275.035 306.907 278.241 301.998 278.241C297.089 278.241 294.19 275.035 294.19 269.59ZM306.937 269.59C306.937 265.571 305.096 263.178 301.983 263.178C298.869 263.178 297.028 265.571 297.028 269.59C297.028 273.609 298.869 275.986 301.983 275.986C305.096 275.986 306.937 273.609 306.937 269.59Z" fill="#221E1F"/>
<path d="M316.616 263.346V268.961H322.108V271.124H316.616V278.011H313.855V261.138H323.335V263.316L316.616 263.346Z" fill="#221E1F"/>
<path d="M341.098 274.023H334.395L333.06 278.011H330.345L336.374 261.291C336.853 261.061 337.377 260.941 337.908 260.938C338.356 260.937 338.791 261.088 339.143 261.367C339.494 261.646 339.74 262.035 339.84 262.472L345.455 278.011H342.387L341.098 274.023ZM340.377 271.86L337.785 264.006L335.162 271.86H340.377Z" fill="#221E1F"/>
<path d="M358.355 262.503L357.189 264.466C356.055 263.655 354.702 263.206 353.309 263.178C351.667 263.178 350.716 263.96 350.716 265.233C350.716 266.767 352.25 267.411 354.014 268.086C356.223 268.915 358.723 269.896 358.723 273.194C358.723 276.492 356.56 278.241 352.864 278.241C350.909 278.297 348.989 277.721 347.387 276.6L348.277 274.575C349.62 275.527 351.233 276.022 352.879 275.986C354.75 275.986 355.855 275.158 355.855 273.701C355.855 271.952 354.321 271.338 352.526 270.633C350.333 269.804 347.832 268.869 347.832 265.555C347.832 262.487 349.842 260.877 353.232 260.877C355.066 260.879 356.855 261.446 358.355 262.503Z" fill="#221E1F"/>
<path d="M362.712 278.011V261.291C363.083 261.069 363.506 260.948 363.939 260.938C364.15 260.938 364.358 260.981 364.552 261.064C364.745 261.148 364.919 261.271 365.063 261.425C365.207 261.579 365.318 261.761 365.388 261.959C365.459 262.158 365.488 262.369 365.473 262.579V278.011H362.712Z" fill="#221E1F"/>
<path d="M379.278 274.023H372.575L371.241 278.011H368.464L374.6 261.291C375.079 261.063 375.603 260.942 376.134 260.938C376.584 260.936 377.022 261.087 377.375 261.366C377.729 261.644 377.978 262.034 378.082 262.472L383.666 277.996H380.69L379.278 274.023ZM378.558 271.86L375.919 264.006L373.296 271.86H378.558Z" fill="#221E1F"/>
<path d="M24.5828 306.067V289.347C24.9606 289.126 25.388 289.005 25.8253 288.994C26.0361 288.994 26.2448 289.037 26.4382 289.12C26.6317 289.204 26.8059 289.327 26.9498 289.481C27.0937 289.635 27.2044 289.817 27.2748 290.015C27.3453 290.214 27.374 290.425 27.3593 290.635V306.067H24.5828Z" fill="#221E1F"/>
<path d="M43.4811 306.067L34.7376 294.025L34.8603 306.067H32.2066V289.347C32.5276 289.114 32.9147 288.991 33.311 288.994C33.6711 289.011 34.0204 289.122 34.3244 289.316C34.6284 289.51 34.8766 289.779 35.0444 290.099L43.113 301.25L42.9903 289.224H45.6287V306.098L43.4811 306.067Z" fill="#221E1F"/>
<path d="M60.7534 291.402H56.2896V306.067H53.5438V291.402H49.0647V289.224H60.7534V291.402Z" fill="#221E1F"/>
<path d="M74.4209 303.889V306.067H64.2202V289.193H74.1602V291.372H66.9813V296.28H73.3472V298.459H66.9813V303.858L74.4209 303.889Z" fill="#221E1F"/>
<path d="M90.8188 305.944C90.3359 306.162 89.8145 306.282 89.2848 306.297C88.3798 306.297 87.8583 305.668 87.7509 304.656L87.4901 302.247C87.4917 301.822 87.4045 301.4 87.2343 301.01C87.0641 300.62 86.8145 300.269 86.5014 299.98C86.1883 299.692 85.8186 299.472 85.4157 299.334C85.0128 299.196 84.5857 299.143 84.1614 299.18H81.2163V306.128H78.5472V289.255C80.1732 289.117 82.3207 289.025 83.5479 289.025C87.7969 289.025 90.3279 290.835 90.3279 293.887C90.344 294.79 90.0735 295.674 89.5553 296.412C89.0371 297.151 88.2979 297.706 87.4441 297.998C88.2659 298.343 88.9732 298.913 89.4837 299.644C89.9941 300.374 90.2869 301.235 90.3279 302.125L90.558 304.502C90.5728 304.993 90.6607 305.479 90.8188 305.944ZM81.2009 291.218V296.94H83.4251C86.0022 296.94 87.3827 295.866 87.3827 294.041C87.3827 292.215 86.0022 291.172 83.4558 291.172L81.2009 291.218Z" fill="#221E1F"/>
<path d="M105.928 306.067L97.1848 294.025L97.3075 306.067H94.6691V289.347C94.9844 289.115 95.3665 288.991 95.7582 288.994C96.1182 289.011 96.4675 289.122 96.7716 289.316C97.0756 289.51 97.3237 289.779 97.4915 290.099L105.56 301.25L105.453 289.224H108.091V306.098L105.928 306.067Z" fill="#221E1F"/>
<path d="M121.958 302.094H115.239L113.905 306.067H111.19L117.233 289.347C117.712 289.115 118.236 288.995 118.767 288.994C119.217 288.995 119.653 289.147 120.006 289.425C120.359 289.703 120.609 290.091 120.716 290.528L126.299 306.052H123.277L121.958 302.094ZM121.222 299.916L118.583 292.062L115.96 299.916H121.222Z" fill="#221E1F"/>
<path d="M138.141 291.402H133.662V306.067H130.916V291.402H126.437V289.224H138.141V291.402Z" fill="#221E1F"/>
<path d="M141.593 306.067V289.347C141.97 289.126 142.398 289.005 142.835 288.994C143.046 288.994 143.255 289.037 143.448 289.12C143.642 289.204 143.816 289.327 143.96 289.481C144.104 289.635 144.214 289.817 144.285 290.015C144.355 290.214 144.384 290.425 144.369 290.635V306.067H141.593Z" fill="#221E1F"/>
<path d="M148.373 297.646C148.373 292.2 151.272 288.994 156.18 288.994C161.089 288.994 163.988 292.2 163.988 297.646C163.988 303.091 161.089 306.297 156.18 306.297C151.272 306.297 148.373 303.091 148.373 297.646ZM161.12 297.646C161.12 293.627 159.279 291.234 156.165 291.234C153.051 291.234 151.21 293.627 151.21 297.646C151.21 301.665 153.051 304.057 156.165 304.057C159.279 304.057 161.12 301.665 161.12 297.646Z" fill="#221E1F"/>
<path d="M179.313 306.067L170.569 294.025L170.692 306.067H168.038V289.347C168.359 289.114 168.746 288.991 169.142 288.994C169.502 289.011 169.852 289.122 170.156 289.316C170.46 289.51 170.708 289.779 170.876 290.099L178.944 301.25L178.822 289.224H181.46V306.098L179.313 306.067Z" fill="#221E1F"/>
<path d="M195.327 302.094H188.624L187.289 306.067H184.574L190.602 289.347C191.081 289.117 191.605 288.997 192.136 288.994C192.584 288.996 193.018 289.148 193.368 289.426C193.719 289.704 193.966 290.093 194.069 290.528L199.668 306.052H196.662L195.327 302.094ZM194.606 299.916L191.968 292.062L189.345 299.916H194.606Z" fill="#221E1F"/>
<path d="M212.093 303.781V306.021H202.797V289.301C203.175 289.08 203.602 288.959 204.04 288.948C204.251 288.948 204.459 288.991 204.653 289.074C204.846 289.158 205.02 289.281 205.164 289.435C205.308 289.589 205.419 289.771 205.489 289.969C205.56 290.168 205.588 290.379 205.574 290.589V303.781H212.093Z" fill="#221E1F"/>
<path d="M230.991 290.559L229.81 292.522C228.676 291.711 227.323 291.262 225.929 291.234C224.303 291.234 223.337 292.016 223.337 293.304C223.337 294.838 224.871 295.467 226.635 296.158C228.859 296.971 231.359 297.952 231.359 301.25C231.359 304.548 229.181 306.297 225.484 306.297C223.535 306.355 221.618 305.779 220.024 304.656L220.913 302.631C222.269 303.617 223.917 304.119 225.592 304.057C227.463 304.057 228.552 303.214 228.552 301.757C228.552 300.008 227.018 299.394 225.239 298.689C223.03 297.86 220.53 296.925 220.53 293.611C220.53 290.62 222.539 289.009 225.929 289.009C227.734 289.007 229.497 289.547 230.991 290.559Z" fill="#221E1F"/>
<path d="M247.113 294.24C247.113 297.6 244.689 299.594 240.548 299.594C239.781 299.594 238.937 299.594 238.093 299.517V306.067H235.332V289.193C237.035 289.055 239.213 288.963 240.579 288.963C244.689 288.994 247.113 290.942 247.113 294.24ZM244.275 294.24C244.275 292.323 242.91 291.172 240.579 291.172C239.827 291.172 239.045 291.172 238.093 291.172V297.308C238.906 297.308 239.781 297.308 240.548 297.308C242.91 297.415 244.214 296.219 244.214 294.24H244.275Z" fill="#221E1F"/>
<path d="M249.859 297.646C249.859 292.2 252.758 288.994 257.667 288.994C262.575 288.994 265.475 292.2 265.475 297.646C265.475 303.091 262.575 306.297 257.667 306.297C252.758 306.297 249.859 303.091 249.859 297.646ZM262.606 297.646C262.606 293.627 260.75 291.234 257.636 291.234C254.522 291.234 252.681 293.627 252.681 297.646C252.681 301.665 254.537 304.057 257.636 304.057C260.735 304.057 262.621 301.665 262.621 297.646H262.606Z" fill="#221E1F"/>
<path d="M281.888 305.944C281.406 306.164 280.884 306.284 280.354 306.297C279.433 306.297 278.927 305.668 278.82 304.656L278.574 302.232C278.576 301.808 278.489 301.388 278.32 300.998C278.151 300.609 277.902 300.259 277.591 299.971C277.28 299.683 276.912 299.462 276.511 299.323C276.11 299.184 275.684 299.13 275.261 299.164H272.285V306.113H269.524V289.24C271.165 289.101 273.313 289.009 274.525 289.009C278.789 289.009 281.305 290.819 281.305 293.872C281.322 294.772 281.054 295.655 280.538 296.394C280.023 297.132 279.287 297.688 278.436 297.983C279.256 298.328 279.962 298.899 280.469 299.63C280.977 300.361 281.267 301.22 281.305 302.109L281.535 304.487C281.585 304.987 281.704 305.477 281.888 305.944ZM272.285 291.218V296.94H274.51C277.071 296.94 278.452 295.866 278.452 294.041C278.452 292.215 277.071 291.172 274.525 291.172L272.285 291.218Z" fill="#221E1F"/>
<path d="M295.494 291.402H291.03V306.067H288.284V291.402H283.805V289.224H295.494V291.402Z" fill="#221E1F"/>
<path d="M308.64 290.559L307.459 292.522C306.324 291.711 304.972 291.262 303.578 291.234C301.952 291.234 300.985 292.016 300.985 293.305C300.985 294.838 302.519 295.467 304.283 296.158C306.508 296.971 309.008 297.952 309.008 301.25C309.008 304.548 306.83 306.297 303.133 306.297C301.183 306.355 299.267 305.779 297.672 304.656L298.562 302.631C299.896 303.602 301.514 304.103 303.164 304.058C305.035 304.058 306.14 303.214 306.14 301.757C306.14 300.008 304.606 299.394 302.826 298.689C300.617 297.86 298.117 296.925 298.117 293.611C298.117 290.62 300.126 289.009 303.516 289.009C305.342 288.995 307.129 289.535 308.64 290.559Z" fill="#221E1F"/>
<path d="M330.806 306.297C330.603 306.285 330.404 306.234 330.221 306.144C330.039 306.055 329.875 305.931 329.741 305.778C329.607 305.625 329.505 305.448 329.44 305.255C329.375 305.062 329.349 304.859 329.364 304.656V304.41C328.85 305.06 328.183 305.573 327.423 305.902C326.663 306.231 325.833 306.367 325.007 306.297C320.85 306.297 318.396 303.091 318.396 297.646C318.396 292.2 321.126 288.994 325.713 288.994C326.807 288.936 327.896 289.184 328.858 289.709C329.82 290.235 330.616 291.018 331.158 291.97L328.581 293.044C328.293 292.506 327.863 292.056 327.339 291.743C326.815 291.429 326.216 291.264 325.605 291.264C322.844 291.264 321.218 293.657 321.218 297.676C321.218 301.695 322.875 304.088 325.682 304.088C326.148 304.14 326.62 304.09 327.065 303.941C327.51 303.792 327.917 303.547 328.257 303.224C328.598 302.901 328.863 302.508 329.036 302.072C329.209 301.635 329.284 301.167 329.256 300.698V298.873H325.59V296.695H332.017V305.898C331.655 306.134 331.237 306.271 330.806 306.297Z" fill="#221E1F"/>
<path d="M345.24 302.094H338.521L337.187 306.067H334.487L340.515 289.347C340.994 289.115 341.518 288.995 342.049 288.994C342.499 288.995 342.935 289.147 343.288 289.425C343.641 289.703 343.891 290.091 343.998 290.528L349.581 306.052H346.621L345.24 302.094ZM344.504 299.916L341.865 292.062L339.319 299.916H344.504Z" fill="#221E1F"/>
<path d="M368.127 306.067L366.838 293.443L362.558 306.067H359.951L355.548 293.366L354.352 306.067H351.805L353.677 289.347C354.108 289.135 354.578 289.015 355.057 288.994C355.491 288.946 355.929 289.043 356.301 289.271C356.673 289.498 356.959 289.844 357.113 290.252L361.531 303.275L366.133 289.378C366.517 289.129 366.964 288.996 367.421 288.994C368.449 288.994 368.955 289.424 369.108 290.635L370.98 306.067H368.127Z" fill="#221E1F"/>
<path d="M385.153 303.889V306.067H374.953V289.193H384.893V291.372H377.668V296.28H384.034V298.459H377.668V303.858L385.153 303.889Z" fill="#221E1F"/>
<path d="M399.036 290.559L397.87 292.522C396.736 291.711 395.383 291.262 393.989 291.234C392.348 291.234 391.397 292.016 391.397 293.305C391.397 294.838 392.931 295.467 394.695 296.158C396.919 296.971 399.419 297.952 399.419 301.25C399.419 304.548 397.241 306.297 393.544 306.297C391.59 306.353 389.669 305.777 388.068 304.656L388.958 302.631C390.315 303.613 391.961 304.115 393.636 304.057C395.508 304.057 396.612 303.214 396.612 301.757C396.612 300.008 395.078 299.394 393.283 298.689C391.09 297.86 388.589 296.925 388.589 293.611C388.589 290.62 390.599 289.009 393.989 289.009C395.789 289.004 397.548 289.544 399.036 290.559Z" fill="#221E1F"/>
</svg>
