<?xml version="1.0" standalone="no"?>
<!DOCTYPE svg PUBLIC "-//W3C//DTD SVG 20010904//EN"
 "http://www.w3.org/TR/2001/REC-SVG-20010904/DTD/svg10.dtd">
<svg version="1.0" xmlns="http://www.w3.org/2000/svg"
 width="700.000000pt" height="700.000000pt" viewBox="0 0 700.000000 700.000000"
 preserveAspectRatio="xMidYMid meet">
<metadata>
Created by potrace 1.11, written by Peter Selinger 2001-2013
</metadata>
<g transform="translate(0.000000,700.000000) scale(0.100000,-0.100000)"
fill="#000000" stroke="none">
<path d="M902 5234 c-253 -55 -411 -190 -485 -414 -36 -105 -44 -176 -46 -371
l-1 -116 -172 2 c-95 0 -179 -1 -186 -3 -9 -3 -12 -63 -12 -252 0 -228 1 -248
18 -252 9 -2 92 -3 184 -2 l168 1 0 -26 c1 -14 1 -383 1 -818 l-1 -793 38 -1
c37 0 79 0 392 1 l165 0 -1 818 -2 818 307 -1 c168 0 314 2 324 4 16 3 17 23
17 252 0 137 -3 249 -7 250 -5 1 -150 2 -323 3 l-315 1 -1 90 c-1 166 44 254
154 295 51 20 70 22 177 16 90 -4 144 -13 218 -34 l97 -29 0 244 0 243 -27 11
c-40 16 -200 56 -253 63 -94 14 -364 14 -428 0z"/>
<path d="M3185 4380 c-22 -5 -54 -11 -71 -14 -167 -30 -396 -186 -499 -339
l-35 -52 0 180 0 180 -287 -1 c-159 -1 -291 -2 -295 -3 -5 -1 -8 -482 -8
-1071 l0 -1070 35 0 c19 -1 145 -1 280 -1 135 0 252 0 260 1 13 0 15 76 15
625 0 562 2 629 16 658 84 162 296 306 489 332 58 8 187 7 229 0 36 -7 39 -8
51 -6 6 1 10 103 9 288 -1 159 -2 291 -3 296 -1 9 -134 7 -186 -3z"/>
<path d="M4710 4370 c-156 -32 -269 -96 -387 -218 l-72 -75 1 104 c0 57 0 115
-1 129 l-1 25 -292 0 -293 0 -1 -1073 0 -1072 100 -1 c348 -1 478 0 483 5 3 3
6 308 5 678 l0 673 23 40 c59 102 196 204 319 235 171 43 321 -14 390 -150 52
-101 54 -131 55 -827 1 -356 3 -648 5 -650 4 -4 139 -5 484 -3 l102 0 0 681 0
681 35 52 c58 88 139 155 234 195 64 27 105 34 187 33 122 -2 230 -70 275
-171 46 -104 48 -138 49 -820 0 -355 2 -646 3 -647 2 -2 133 -4 292 -5 l290
-2 2 724 c1 398 -3 755 -8 792 -45 349 -225 580 -514 660 -101 28 -294 31
-400 7 -207 -47 -347 -127 -479 -272 l-60 -67 -26 43 c-89 152 -273 269 -480
305 -85 14 -227 11 -320 -9z"/>
<path d="M0 438 l0 -438 3500 0 3500 0 -2 438 -3 437 -3497 0 -3498 0 0 -437z"/>
</g>
</svg>
