<svg fill="none" height="211" viewBox="0 0 218 211" width="218" xmlns="http://www.w3.org/2000/svg"><g fill="#4a2918"><path clip-rule="evenodd" d="m30.3001 17.009c.0272.1631.0544.3262.0816.4893.0543.1087.1087.1087.1359.1902.0543.2446.1087.5164.2174.7067.0815.299.1359.6251.2718.8698.0272 0 .0272 0 .0544-.0272.4077.6251.3805.5979 1.06.5164.1087-.0544.299-.1903.4077-.1359.2446.4077.4349.4892.8154.6795.0544.0815.2718.4893.3262.5708.5164.1631.5979.1359.6251.7067.0815.1631.1087.2718.1631.4077h.0543c.1088.1631.1903.3261.2718.4892.1088.0544.1088.0544.1359.0816.4893.163 1.4678.4077 1.7396.8425.0815 0 .1902.1359.1902.1359.5436-.0271 1.06-.1087 1.5493-.1359.462.0816.462.0816.5436.1088.1902.2174.3805.4077.5708.6251.163.3262.2989 1.0872.5707 1.1687.0544.1088.1088.1088.1631.1359.1359.2718.2718.5436.4349.7883.6252.2989 1.0329.7338 1.2775 1.3046-.0816 0-.1631 0-.2175 0-.1359-.299-1.1687-.5708-1.5221-.6523-.163-.0816-.2718-.3262-.3805-.4893-.2446-.2989-.5164-.5979-.761-.8969-.1631-.1631-.2718-.3805-.5708-.2718-.0272.3262-.5164.3262-.7067.4892-.0815.2447.0816.5165.2718.6252.299.6251 1.6852.7067 1.7939 1.3318-.1631.299-.0544.5164.1087.7339h.0544c.0543.1087.3805.163.462.1902.1359.0816.2719.1359.4078.2175.4348.4077 1.4677 1.4405 2.0656 1.3318.0544-.0272.0816-.0815.1088-.1359-.0544-.299-.1088-.5708-.1631-.8698.0272-.0271.0272-.0271.1087-.0543.5164.6795 1.1416 1.06 1.8754 1.3862.3262.3805.6523.6795 1.0057 1.0056.3261.598.6251 1.0872 1.0056 1.6036.0272.1088.0816.2175.1088.299h.0543c.1903.4893.598.9241.6252 1.3862.0815.5164.163 1.0057.2174 1.5221.0272.3533.0815.7067.0544 1.0057-.0544.0271-.1088.0271-.1903.0543-.1359-.1631-.2446-.299-.3805-.4621-.1359-.3533-.4077-.9784-.3534-1.3861-.2446-.2718.0544-.897-.6523-.8698-.0815.0544-.1087.1087-.1087.1903.0272.2174.0815.462.1087.6795.1359 1.06.1359 1.06.1903 1.3318.1631.4621.6795 1.0872.9513 1.4405.299.3262.6795.6252.8426.9242.2446.2989.3261.5164.462.8154.2447.4077.2447.4077.4077.7338.0816.3805.1359.7611.1903 1.1416.0815.1631.1359.3533.2174.5164.5165.6251 1.0057 1.1416 1.5493 1.658.2174.3533.3262.462.6523.6523.8154.1359 1.3318.3262 1.8754.8698.3534.6795.7611 1.359 1.0601 1.9841.0815.0816.1359.1359.2174.2175.0272.3805-.0544.5436.1359.8425.4349-.0543.5164.0272.6795-.3261.0544-.4349-.0815-.7882.1087-1.2503.1087 0 .2446-.0272.3534-.0272.8697.8154 1.658 1.7395 2.6093 2.3647.3261.4892.3533 1.1415.4348 1.658-.0271.0815 0 .0543-.0815.0815-.0815.4892.299.5436.6795.6795.5164.0544.4349-.1359.7067-.4077.4892-.2174.8969.1903 1.1687.4349.1359.0815.299.1631.4349.2174.1903.6795.3805 1.3318.598 1.9842.163.3805.3533.7338.5164 1.0328.7338.8426 1.5764 1.5765 2.419 2.2288.3262.6523.9241 1.0872 1.4406 1.6036.2446.2174.462.3805.6251.598.0272.163.0544.3261.0815.5164.2175.5436.4621.6523.9513.8969.1359.2446.2718.4621.4349.6252.4077.2718.8154.5436 1.1959.8154.2447.3805.4893.7338.7339 1.06.3805.3262.3805.3262.4349.4077.2718.0815.5436.1631.8154.2446.1087.1631.2446.3534.3533.5164.5164.299.9785.598 1.4134.9242 1.3862 1.2231 2.7995 2.4462 4.1585 3.6421 1.2775 1.1959 1.4406 1.3862 2.2288 2.0929.4349.2989.8969.6251 1.3318.9241 1.0057.9241 2.0385 1.8754 3.0442 2.7995.1359.2175.2446.4077.3805.6252.5164.5707 1.06 1.0872 1.6036 1.5764.2718.0816.5708.1631.8426.2174.3805.1631 1.359.598 1.7395.5708.7883.1359 1.5493.1903 2.2832.3262.4892.4077 1.0872.9785 1.3046 1.4949.1359-.0272 1.2231 1.7395 1.2775 1.8211-.4077-.0544-.5708-.5436-.9513-.6795-.2446-.2175-.6252-.598-.9513-.7883-.7611-.163-1.4949-.5164-2.2831-.7882-.0544-.0544-.2447-.0815-.3806-.1359-1.7939-.4892-3.5877-1.1144-5.3544-1.7667-.5165-.1359-1.0057-.299-1.5221-.4349-.5436.0544-1.0872.0816-1.6308.1359-.1631.0544-.4077.1631-.6252.1088-.1087.1358-.5979.2446-.761.2717-1.9842 1.1144-2.419 1.4678-3.9683 2.8811-.2718.2175-2.9355 2.0929-1.9026 2.9627.1631 1.1415.6251 2.12 1.1144 3.0985.1902.7067.1902.7067.299 1.1687-.2175 1.0329-.2175 1.0329-.4077 1.8211.0543.3533.1359.7067.1902 1.06.0544.9241.0272 1.8483.2446 2.7452.598 2.9355 2.1473 5.8709 3.2616 8.6159.3534.571.7611 1.169 1.0872 1.713.4349 1.168 1.5221 2.092 2.3647 2.962.4077.272.4077.272.9785.625.4077.109.8426.191 1.2503.299.3533.027.7338.055 1.0328.082.2718.408.4621.489.8426.707.0544.108 1.0057.489 1.2231.597.4077.299.8154.571 1.2231.87.5164.571.9785 1.196 1.4949 1.685.2718.598.2446.68.7339.979.0543.136.1359.272.1902.38.6795.571 1.3047 1.142 2.0114 1.631.1902.082.3533.136.5164.19.462.028.9241.082 1.359.109.3261.109.6523.19.9785.299.2718-.027 1.1687-.353 1.3046-.571.2446-.108.2446-.108.3262-.136.299.109.6251.218.9241.299.0543.055.0543.055.5436.354.598.625.598.625.8974.978.38.625.733 1.278 1.195 1.794 0 .027.028.055.028.082.244.081.38.57.543.679.163.272.326.517.489.788.191.68.299 1.224.191 1.876.054.19.108.326.217.435.408 1.766.408 1.766.653 2.962-.082.055-.109.136-.245.136-.816-.842-1.495-1.848-2.365-2.745-.272-.217-.543-.462-.788-.679-.4892-.734-.761-1.523-1.0872-2.392-.1087-.109-.2446-.354-.4349-.381 0-.027-.0272-.054-.0272-.081-.0543 0-.1087-.028-.2718 0-.299.136-.6251.271-.9241.407-.4077.354-.7882.598-1.2775.87-.2718.109-.2718.109-1.4677.408-1.2503-.082-1.2503-.082-1.7395-.136-.2718-.109-.5708-.218-.8426-.326-.4349-.109-1.3046-.517-1.7667-.19-.1631.462-.1087.652-.6251.788v.054c-.1903.082-.4621.19-.5708.353.0272.87-.0544 1.794-.0272 2.637.0815.734.0815.734.2174 1.604.4621 1.576.9514 3.152 1.3319 4.729.0543.652.0543 1.223 0 1.875 0 0-.0272.027-.0544.027.1903.218.0272.843.0816 1.115-.0816.19-.2718.788-.4621.842-.0544.245.0815.381.0815.571-.0543.027-.1359.055-.1902.055-.3534-.462-.7067-.952-1.0872-1.414-.2447-.027-.3534 0-.6252.082-.2174-.055-.2174-.055-.3261-.109-.897-1.495-1.7124-3.126-2.6365-4.648-.1359-.136-.2446-.217-.3805-.407-.0544-.028-.0816-.028-.1359-.109-.1631.027-1.0329-1.087-1.1959-1.25-.2447-.435-.4893-.843-.7339-1.278-.0815-2.365-.0815-2.365-.0815-3.533.2989-.598.2989-.598.3533-.789-.0544-.462-.0815-.951-.0815-1.413.0815-.299.163-.625.2174-.924-.0815-.489-.5164-1.006-.8154-1.441-1.2231-.543-1.2231-.543-1.4134-.652-.0272-.054-1.0328-.842-1.06-.897-.299-.244-.5708-.516-.8698-.788-.9784-1.522-.9784-1.522-1.4677-2.365-.2718-.706-.5436-1.467-.9513-2.174-.1902-.652-.3261-1.305-.462-1.984-.0544-.354-.1088-.707-.1631-1.06-.0272-.163-.0816-.354-.0544-.544-.0272-.245-.0815-.516-.1087-.761-.1631-.245-.1087-.734-.1359-1.06-.299-.462-.6251-.924-.9241-1.413-.0816-.191-.1631-.354-.3805-.517-.299-.543-.5708-1.087-1.0057-1.631-.2175-.135-.5164-.489-.6252-.761-.2446-.027-.4077-.516-.8697-.5704-.3534.0272-.3534.0272-.4893.0272 0 0 0-.0272 0-.0544-.1087 0-.8154-.7067-.9513-1.0056-.3533-.3806-.9784-.8698-1.1959-1.3862-.1087-.1087-.1631-.1903-.3533-.299-.1903-.1903-.4077-.3533-.598-.5436-.761-.4621-1.2503-1.1416-2.3103-.7882-.1631-.0544-.2446-.0544-.4349-.2175-.3261-.1087-.8425-.1902-.3261-.4892 0-.0272 0-.0272 0-.0544.0271 0 .0271 0 .0543-.0271.0544-.1088.0544-.1088.6524-.8426.163-.2718.2718-.4893.3805-.7883.0543-.4077.1087-.8425.1087-1.2502-.0272-.2175-.0544-.4349-.1087-.6524-1.9298-4.9739-1.9298-4.9739-1.9842-5.1914 0-.5164-.2718-.9784-.3805-1.4949-.2718-.4348-.4077-.8425-.4892-1.359-.1631-.2174-.1631-.2174-.2175-.2718-.3533-.5436-.761-1.06-1.1144-1.6308-.2446-.5436-.3805-1.1143-.8425-1.5492-.1088-.2446-.299-.4621-.4893-.7339-.1087-.299-.2446-.5979-.4349-.9241-.0543-.0272-.1087-.0815-.163-.1359-.3534-.4349-.6524-.7339-.7883-1.3047-.1902-.2718-1.1687-2.12-1.2502-2.5549-.1359-.2174-.4349-.3805-.5436-.6523-.2447-.1359-.5436-.6251-.7339-.8969-.0816 0-.2446-.299-.3534-.4349-.3805-.2175-1.7667-1.5221-1.8482-2.0385-.1631-.1903-.299-.5708-.598-.7067-.1087-.1903-.1902-.3805-.2446-.6252-.7067-.7066-.8969-.7066-1.2774-1.6579-.1088-.0272-.3534-.9513-.3806-1.0329-.0815-.1902-.163-.2446-.1902-.5164.1087-.2718.0543-.5708.0272-.8969.0543-.1903-.0544-.2447-.1088-.4621-.0543-.4077-.2718-.7882-.2989-1.2503.3533-.1087-.1088-1.4677-.1631-1.8211-.2718-.3533-.3262-.4892-.4349-.9513-.0272-.0271-.0272-.0543-.0544-.0815-.3533-.1087-.6523-.3805-.8969-.7067 0 0-.0272 0-.0272.0272-.299-.4077-.6251-.8698-.8154-1.359-.2718-.3262.1359-.761-.6523-.761-.0272 0-.0544.0271-.1087.0271v.0544c-.1088.0544-.2175.1087-.3262.1631-.1903.0272-.3533.0543-.5436.0543-.0272-.0543-.0815-.0815-.1087-.1359-.1359-.3805-.4893-.6523-.5436-1.1143h-.0272c-.0272-.3262-.0544-.4077-.4077-.2718-.2446.3805-.1631.3805-.598.4892-1.0056.6251-1.4677-.7882-2.3646-.8969-.0544-.0816-.1359-.1359-.1903-.2175-.299-.1087-.7338-.4077-.8697-.761-.1088 0-.2175-.1903-.4349-.2175-.2446-.4892-.2446-.4892-.299-.6795-.1631-.1359-.1631-.1359-.4349-.3805-.1902-.5164-.1902-.5164-.2446-.5708-.1087 0-.4621-.3261-.5164-.4892-.3806-.0272-.897-.1359-1.2775-.3262-.0815-.0815-.1359-.1631-.1903-.299-.2718-.2989-.2174-.6523-.6795-.8425-.3533-.2447-.3533-.3806-.4892-.7883 0 0-.0272 0-.0544 0-.1087-.3261-.163-.462-.2989-.9513 0 0-.0272 0-.0544 0-.0272-.0543-.0544-.1359-.0815-.1902 0 0-.0272 0-.0544 0-.0544-.3805 0-.8426-.4892-1.0329-.1359-.2718-.6795-.462-.7611-.8697-.1631-.2175-.3261-.5708-.6795-.6795-.2446-.2718-.3533-.3805-.4077-.4893-.2446-.1902-.6251-1.0056-.4077-1.3046.4077.5164.598-.1631.598-.5164h.0543c0-.1088.0816-.2447.1631-.3534.598-.3805-.1359-.5708-.3533-.9241 0 0-.0272 0-.0544 0-.1087-.2718-.3805-.8426-.6795-1.0057-.1902-.1902-.3805-.4077-.5708-.5979-.163-.4077-.3261-.7611-.5436-1.1959-.1087-.299-.3805-.6524-.5707-.9785-.2719-.4077-.4893-.8154-.7339-1.2503-.1903-.2175-.4077-.4621-.4077-.7882 0 0-.0272 0-.0544 0-.2174-.4077-.5436-.8154-.7882-1.2775-.0544 0-.2446-.3262-.299-.4349-.0272 0-.0272 0-.0543 0-.0816-.1087-.1359-.2446-.2175-.3533-.0272 0-.0272 0-.0543 0-.0272-.0272-.0544-.0816-.0544-.1087.1087-.1088.2174-.1088.3262-.2175-.0544-.0815-.1359-.1087-.1631-.1631-.1903.0272-.2718.1088-.4621.1359-.1631-.2174-.2446-.3805-.3805-.6523-.0815-.0272-.1631-.0543-.2446-.0815-.2446-.4349-.598-.7611-.9241-1.1959-.1359-.0816-.2447-.1903-.3806-.299-.2174-.0816-.2718-.2175-.3805-.4349-.4077-.3533-.462-.4621-.7067-.9785-.0271-.1631-.0543-.299-.0815-.462 0-.1088.0272-.1903.0272-.299.2446-.2718.3805-.5164.462-.8698.0544-.0272.0816-.0272.1359-.0543-.0271-.0272-.0271-.0272-.0543-.0544 0-.0272 0-.0815 0-.1087.2718-.5165.462-.8426.3533-1.4949.1631-.1088.0816-.1631.0272-.3534-.0544-.5708.1359-.6795.7339-.7338.0815.1087.163.1087.2446.1359.1359.1359.5164.8697.5979.8969-.0271.2446.0544.3805.2175.5164.0272.1903.0272.4621.2174.5164.1087.1631.1359.1903.2718.2447.1903.3533.3262.5979.7339.3805.1087-.1359.0815-.1903.1087-.3534.1631-.3533.2718-.7338.3262-1.1415.3805-.5436.6795-.9241.7338-1.5765-.0272-.2446-.0543-.5164-.0815-.761.3261-.1903.3261-.1631.2446-.5708-.0544-.1087-.0815-.1087-.2446-.1631-.1087-.2174-.1359-.2446-.4077-.3805-.1359-.3261-.299-.2446-.7067-.2446-.1087-.2174-.2718-.3805-.1903-.6523.2447-.0272.4621-.0816.6795-.1087.3262-.1088.6795-.1903.7067-.5165h.0272c0-.1087-.0272-.1359-.0815-.462.0271-.2718.0271-.2718.0271-.3805-.0271-.299-.0815-.5708-.1087-.8698h-.0272c-.163-.4077-.4348-.2718-.8969-.1903-.2446.2175-.1359 1.1144-.1359 1.4406-.0272.1631 0 .1902.0272.299-.0272 0-.0272 0-.0544.0271 0 .0816 0 .1088-.0272.1631-.0815.0272-.2174.0816-.3261.0272-.0544-.2718-.0816-.299-.3262-.5164-.0543-.1903-.1087-.3534-.1631-.5436-.163-.2175-.3261-.4893-.2174-.8154-.0272-.3262-.0544-.598-.2174-.9242-.2447-.1902-.3534-.6523-.598-.9513-.2718-.6523-.4621-.5436-1.2503-.5164-.5708-.0815-1.1687-.0272-1.7939-.2174-.3261-.4349-1.3046-.7067-1.8754-.9241-.0815-.1088-.2174-.1903-.4077-.2175-.3805-.2446-.5436-.3805-1.0328-.4892-.1903-.1087-.1903-.1087-.5708-.2446 0-.0544-.0272-.1088-.0272-.1903.2718-.1359.761-.1631 1.06-.2174.2718-.1359 1.0329-.5165 1.06-.8698.1631-.0815.299-.0815.4349-.1087.0816.1087.0544.1902.1087.2446.4078.0544.9242.761 1.1144.299 0-.0816-.0271-.1631-.0271-.2446.1359-.0816.2446-.2175.3805-.299.3261-.0816.3261-.0816.5436-.1903.1902-.2174-.2175-.4349-.4349-.5436 0-.0272-.0272-.0272-.0272-.0543-.1631.0271-.6795-.3534-.8697-.4077-.1359-.299-.1088-.598-.3534-.9242-.0543-.4077.3805-.5436.6795-.4077.1359.3262.8154 1.0872 1.06.5708.1631-.1631.3262-.3261.4621-.5436.4349-.0544.3262-.0544.5164.2446.2446.3262.5436.6524.7339.9785.2446.0816.2446.1087.3805.2446.2174-.0271 1.7395 1.9298 1.8482 2.0657.1088.4349.1631.598.1359 1.0057z" fill-rule="evenodd"/><path clip-rule="evenodd" d="m1.02718 34.2469v.1359zm215.97282 0v.1359zm-108.068 1.4677-.027-.0272c-9.6491-7.8822-21.8529-16.1721-32.888-20.385-25.6852-9.83921-58.4643-14.622898-69.58099-15.3024v134.514c44.90149-10.654 76.10419-2.12 96.59799 10.437l-.027.055c-33.486-19.951-74.7726-12.095-96.59817-5.056-3.01698.979-3.58777-1.332-3.56059-2.799v-99.1261c-.6795 0-1.359 0-1.84824-.0272l.32616 116.4123c23.80974-13.101 72.81544-18.564 98.25594-10.084 3.5609 1.196 6.2789 3.18 9.2959 3.18 3.343 0 4.838-1.44 7.583-2.5 24.815-9.513 75.724-4.023 100.158 9.404l.327-116.4123c-.49.0272-1.169.0272-1.849.0272v99.1261c.028 1.467-.543 3.778-3.56 2.799-21.88-7.067-63.357-14.949-96.87 5.219l-.027-.027c20.466-12.666 51.751-21.337 96.87-10.628v-134.514c-11.117.652322-43.896 5.43601-69.581 15.3024-11.769 4.5119-22.75 11.8233-33.024 20.4122zm.326.4077c13.291-11.0895 27.996-18.4009 42.51-22.9943 16.797-5.32732 40.172-10.68179 57.866-12.203878v119.945878c-18.21-1.441-33.35-1.251-45.961 1.25-19.488 3.86-33.568 11.66-49.468 23.022-.027 0-.027.027-.054.027-1.006.788-2.909 1.359-4.757 1.495l-.163-110.5417zm-.951 110.5137c-1.876-.19-3.669-.951-4.485-1.522-15.4653-11.198-30.4958-19.243-49.4947-22.994-12.6116-2.501-27.778-2.691-45.9615-1.25v-119.945878c17.6942 1.522088 41.0691 6.876558 57.8664 12.203878 14.4598 4.5934 29.137 12.0407 42.4008 23.0487z" fill-rule="evenodd"/><path d="m61.9105 99.6364c-.1903-.2174-.3262-.3533-.4349-.462-.1631-.1631-.2446-.2718-.3262-.3534-.1359-.1087-.3533-.2446-.8697-.5707l-.1903-.1359c-.2718-.1631-.7338-.3806-1.2774-.598-1.0057-.4077-2.3103-.7882-3.4791-.8698-.9785-.0815-1.8211.0544-2.12.5436-.0272.0272-.0544.0816-.0544.1359-.0815.2447-.2446.4349-.4349.6795-.1631.2175-.3533.4621-.462.7067-.1359.3262-.0544.7339.9784 1.1959.6795.2988 1.196.5978 1.658.8698 1.1416.652 1.7939 1.033 4.4032.652h.0815c1.359-.19 2.6637-.38 2.555-1.7936zm.1631-1.9026c.1087.1088.2174.1903.299.299.6523.598.7882-.0543.9513 1.3318.3533 2.9354-1.658 3.2344-3.7781 3.5334h-.0815c-3.0985.435-3.9139-.027-5.3273-.843-.4077-.244-.8698-.516-1.5221-.788-2.12-.951-2.1744-2.0926-1.7123-3.1255.163-.3805.4077-.7066.6251-.9784.1087-.1631.2174-.299.2446-.3262.0544-.1359.1087-.2446.1903-.3533.6523-1.0601 1.9841-1.3319 3.479-1.2232 1.3047.1088 2.7724.5165 3.914.9513.5979.2447 1.1415.4893 1.4949.7339l.1902.1359c.5708.3534.8154.5164 1.0329.6795z"/><path d="m62.7803 99.4734.8154.0544 1.8483.1359c.5164 0 .8154.0271 1.0872.0543.3805.0272.7338.0544 1.4677-.0543l.1631-.0272c.3805-.0544 1.2774-.1903 1.4133-.1903v1.4678c-.0543 0-.8697.109-1.2231.163l-.1631.027c-.9241.136-1.3318.082-1.7938.055-.2718-.028-.5436-.055-.9513-.055-.0544 0-1.1688-.081-1.9842-.136-.4892-.027-.8969-.081-.9785-.081l.2718-1.4136z"/><path d="m78.1099 96.9728c-1.6579.0272-2.6636.0544-3.5605.299-.8698.2446-1.7124.7882-3.0442 1.8211-.2174.1631-.5708.6251-.7611 1.1141-.0815.245-.1359.462-.1359.653.0272.108.0816.244.1903.326.1903.136.4893.217.9513.244.4077.028.6523.082.897.136.3261.055.6795.136 1.4405.136 1.1416 0 1.9841-.272 2.8267-.516.8698-.272 1.7939-.571 3.1257-.653.7883-.054 1.196-.38 1.359-.815.0816-.2174.0816-.462.0816-.7067-.0272-.2718-.1087-.5436-.2175-.8154-.3261-.7066-.9513-1.2774-1.7123-1.2502l-.8426.0271c-.2174 0-.4349.0272-.598.0272zm-3.9682-1.0872c1.06-.299 2.1472-.3261 3.9411-.3533l.5707-.0272.8155-.0272c1.3861-.0543 2.5277.897 3.0985 2.0929.1902.4077.299.8426.3533 1.2775.0544.462 0 .8969-.1359 1.3317-.3261.951-1.1687 1.712-2.6364 1.794-1.1416.054-1.9842.326-2.7724.571-.9513.299-1.8754.598-3.2616.598-.9241 0-1.3318-.082-1.7395-.163-.2175-.055-.4349-.082-.7067-.109-.7339-.054-1.3047-.245-1.6852-.489-.5164-.354-.761-.816-.8154-1.359-.0544-.435.0544-.924.2174-1.3593.299-.7339.8426-1.4406 1.2231-1.7396 1.495-1.1415 2.4463-1.7395 3.5335-2.0657z"/><path d="m81.3715 97.9241c.1631-.4348.2175-.7882.2718-1.0872.1087-.8969.2175-1.4949 1.6036-2.3375 0 0 .1088-.1087.2447-.2718.2718-.2989.6523-.6795.761-.7882l1.0872.9785c-.1087.1087-.4892.5164-.8154.8426-.2174.2174-.4349.4077-.5436.4892-.7882.4893-.8426.8154-.8969 1.2775-.0544.3805-.1088.8426-.3534 1.4405z"/><path d="m90.1506 84.8505c-1.4949-.3533-3.5606 2.0385-4.6206 3.2888l-.0544.0816c-.3533.4077-.5979 1.4405-.6523 2.5005-.0272.8698.1087 1.7124.4893 2.1472.5979.7067.6251.6795 1.6308-.0543l.5979-.4349c.5165-.3805 1.4134-2.7724 2.0657-4.6206.299-.8426.5708-1.5765.7882-2.0385.0272-.0816.0272-.2718 0-.4893-.0271-.1359-.0815-.2718-.163-.3261-.0272 0-.0544-.0272-.0544-.0272zm-5.735 2.3375c1.2775-1.4677 3.7237-4.2944 6.0612-3.7508.1359.0271.2446.0815.3533.1359.6252.2989.8698.8697.9785 1.3861.0815.4621.0272.897-.0272 1.0601-.0272.0815-.0543.1359-.0815.1902-.1903.3805-.4621 1.1144-.7611 1.957-.7338 2.0385-1.7123 4.675-2.5821 5.3001l-.5707.4349c-2.0386 1.5221-2.0929 1.5764-3.5878-.1631-.6252-.7339-.8698-1.9298-.8426-3.1257.0272-1.359.4349-2.7452.9785-3.3975l.0543-.0816z"/><path d="m87.4327 79.795c.3533-.0272 1.5764-.5436 2.5277-1.2775.5436-.4077.9785-.8698.9785-1.2503.0272-.8426-.8154-3.2616-1.957-5.3001-.761-1.3862-1.6579-2.5006-2.3918-2.6636-.3805-.0816-.6523-.1631-.897-.2175-.4348-.1087-.8697-.2174-1.1959-.2718-.8697-.1359-1.4405.1087-1.7123 1.8483-.2175 1.4133-.0544 3.479.5979 5.3001.4893 1.3862 1.2503 2.5549 2.2832 3.0985.4348.2175.5707.4077.6795.5436 0 0 0-.0272.2174.0272.299.0815.5708.1631.8698.2174zm3.3431-.2175c-1.6036 1.2231-3.3159.9513-3.3431 1.5765 0 .2446-.0272.4892-.0272.8154 0 .2718.0815.8969.2174 1.4133.0816.3262.1631.5708.1903.6252l-.9241.9785c-.2446-.2447-.4349-.7339-.5708-1.2775-.1631-.6251-.2446-1.359-.2446-1.7123 0-.2447.0271-.5708.0271-.8698v-.2174c-.5707-.1359-.6795-.299-.8425-.5165-.0272-.0271-.0544-.0543-.1903-.1359-1.3862-.7066-2.3647-2.1744-2.9354-3.8324-.7067-2.0113-.897-4.3488-.6524-5.9524.4621-2.8267 1.5221-3.2344 3.2345-2.9626.4077.0543.8425.1631 1.3046.299.299.0815.6252.163.8698.2174 1.1687.2718 2.3375 1.658 3.2616 3.316 1.2231 2.2016 2.1472 4.9467 2.12 5.9796-.0272.8697-.6795 1.6308-1.4949 2.2831z"/><path d="m51.2016 98.1688c-.0815-.299-2.0113-.897-3.2616-1.3047-.6795-.2174-1.3318-.4077-1.7667-.6251-.8154-.3806-2.1744-1.957-2.4734-2.256l.9241.4621.3262-1.0057c.1903.0544.2718.1631.4349.3262.2446.2446.8426.8969 1.4133 1.1687.3534.1631.9513.3534 1.5765.5436 1.6308.5164 3.5334 1.0872 3.778 2.2016zm-7.5017-4.1858s.1359.0544.1903.0816l.1087-.3534-.3262.299z"/><path d="m42.1235 85.3125c-.0544-.0543-.1359-.1087-.2175-.1359-.1087-.0271-.2174-.0271-.3261 0-.1359.0544-.2718.1631-.4077.3262-.299.4077-.5164 1.0872-.5164 2.12 0 1.1416.2718 2.6093.8697 3.7509.4349.8154 1.06 1.4677 1.8754 1.6852.5165.1359.7339-.0272.8154-.3262.1359-.4892.1088-1.1959.0816-1.8754 0-.3262-.0272-.6523-.0272-.9513.0272-1.4949-.6795-2.4734-1.4949-3.615-.2174-.299-.4349-.5979-.6795-.9513zm.2174-1.522c.4621.163.897.4892 1.1688.9784.163.2175.2989.4349.462.6524.9513 1.3318 1.7667 2.4733 1.7667 4.4575 0 .2718 0 .5708.0272.8969.0272.7883.0544 1.6308-.1087 2.3103-.299 1.1144-1.0057 1.7939-2.6093 1.359-1.2775-.3261-2.1744-1.2502-2.7724-2.3918-.7338-1.3862-1.06-3.0985-1.06-4.4304 0-1.3861.3534-2.3646.8426-2.9898.299-.4077.6795-.6795 1.06-.8154.4077-.1359.8426-.163 1.2503-.0271z"/><path d="m40.1121 84.7689c0-.0272-.1088-.2446-.2447-.5164-.3805-.7339-.9241-1.7939-.9784-3.4247 0-.0543 0-.1359-.0272-.2174-.0272-.1631-.0272-.3534-.0272-.598l1.3862-.3805c0 .1903.0815.6795.0815.8154 0 .1087.0272.1903.0272.3262.0544 1.3046.5164 2.2015.8426 2.7995.2446.4892.4349.8426.4077 1.2503l-1.4406-.0816z"/><path d="m38.4542 70.7713c-.9513.6795-1.7124 1.2503-2.1744 1.9298-.4893.6795-.7067 1.522-.5436 2.7723.0815.6523.3533 1.4134.7882 2.0657.299.4621.6795.8698 1.0872 1.1144.3533.2446.7339.3533 1.1416.3262.2446-.0272.4892-.1088.7338-.2719.1631-.1087.2446-.163.299-.1902.4621-.299.299-.6795.299-1.3318v-.1088c0-.9784-.0544-1.9026-.1903-2.8267s-.3533-1.821-.6795-2.718c-.0543-.1359-.2446-.3805-.4892-.5708-.0816-.0815-.1631-.1359-.2446-.163zm-3.3704 1.0872c.6524-.9241 1.6037-1.6037 2.7452-2.4462l.1631-.1088.1903-.0271c.462-.0272.9513.1902 1.3862.5164.4348.3533.8154.8426.9513 1.2231.3533 1.0057.5979 1.9841.7338 2.9898.1631 1.0057.2175 2.0113.2175 3.0442v.1087c0 .9241 0 1.359-.1359 1.7395-.1631.4077-.4077.5708-.8154.8154l-.2718.1903c-.4621.299-.9242.462-1.3862.5164-.7339.0815-1.4406-.1359-2.0657-.5436-.5708-.3805-1.0872-.9241-1.5221-1.5221-.5708-.8426-.9513-1.8211-1.0328-2.6908-.1903-1.658.1359-2.7996.8154-3.778z"/><path d="m39.786 64.6014c.8697-.0272 1.6851-.3805 2.3647-.9241.6795-.5165 1.1687-2.4191 1.359-3.2073.0543-.2718.1087-.5708.0815-.8697 0-.2447.0544-.4893.1087-.7611.1359-.4892.299-1.1415-.8154-1.4949-.8426-.2446-1.7395 0-2.5821.5164-1.1959.7067-2.2288 1.8755-2.7995 2.8811-.0816.1087-.1088 1.4406-.1359 1.6308-.0544.3534 0 .7611.1359 1.1144.1359.3262.3261.6252.5979.7882.2175.1359 1.359.3534 1.658.3262zm.0543 1.359c-.2174 0-.4348 0-.6523 0-.0815.6251-.0543 1.2503-.0543 1.9298 0 .5436.0271 1.0872 0 1.6308l-1.359-.0816c.0271-.5164.0271-1.0328 0-1.522-.0272-.7611-.0272-1.4949.0815-2.256-.1631-.0543-.299-.1087-.4349-.1902-.5708-.3262-.9785-.897-1.1959-1.4949-.2174-.5708-.2718-1.2232-.1903-1.7668.0544-.3533.1631-1.8482.299-2.12.6795-1.1416 1.8754-2.5277 3.2888-3.3431 1.1416-.6795 2.419-1.0329 3.6693-.6252 2.3375.7067 1.9842 2.1201 1.7124 3.1257-.0544.1631-.0816.299-.0816.3534.0272.4348-.0272.8425-.1087 1.2502-.2718 1.1144-.9513 3.2617-1.8482 3.9683-.897.7067-2.0114 1.1416-3.1529 1.196z"/><path d="m58.051 50.6036c-.1631-.2718-.2175-.5164-.2447-.761-.0271-.4077.1088-.7882.3806-1.0872.2174-.2718.5164-.5164.8697-.7067.897-.5164 2.1201-.8154 2.8539-.8697 2.9355-.1631 3.9955.8425 4.5935 1.4405.2446.2446.5707 1.06.462 1.3862 0 .1631 0 .3261-.0272.4349-.2174.7882-.6251 2.2016-3.2888 3.5062-.6523.3262-1.8754.6795-2.9082.6523-.4077 0-.7882-.0543-1.1144-.1902-.3805-.1631-.6795-.4077-.8698-.7611-.1087-.2174-.163-.4892-.163-.7882h1.1143c0 .1087.0272.2174.0544.2718.0544.1087.1631.1903.2718.2446.1903.0816.4349.1087.7067.1087.8426 0 1.8754-.2718 2.3918-.5436 4.2129-2.0928 3.2888-4.8924-1.1687-4.6206-.598.0272-1.6036.2718-2.3375.7067-.2446.1359-.4349.299-.5436.4349-.0815.1087-.1359.2174-.1359.3533 0 .0816.0272.1631.0815.2718l-.9784.5708z"/><path d="m98.6309 61.5029c-1.0872-.9242-2.3918-1.8211-3.6965-2.718-3.4247-2.3375-7.8278-5.3002-8.5345-9.7577-.598-4.1857 3.0985-7.5017 6.7406-8.6704 1.6308-.5164 3.6965-.3262 5.4089-.3262 8.3716 0 16.7426.0272 25.1146.0272 3.506.0544 7.719 2.9898 8.616 6.4688.244.9242.244 1.7668.109 2.6909-.925 4.4031-4.784 7.0124-8.508 9.5674-1.304.8969-2.609 1.7938-3.696 2.718-2.555 1.9026-3.588 3.18-3.561 5.0555.136 6.9852 8.535 10.7089 9.758 9.8391-.517.7611.38 1.8755-.191 2.6093-.108-.1359-2.582-.5707-4.647-1.7939-1.821-1.06-3.289-2.9082-3.398-3.0441-2.827-3.4519-5.11-6.9853-2.718-11.3069 3.316-5.6263 12.965-8.0453 14.378-14.1608.408-2.3104-1.685-4.213-3.533-5.1643-1.957-1.0056-2.582-1.4677-4.702-1.4949-4.403-.0271-8.834.0272-13.237.0272-4.321 0-8.6703-.1087-12.9919 0-2.9898.0816-7.0396 3.7237-6.1699 7.094.2175.8154.6524 1.5493 1.1416 2.2288 1.4949 2.0928 4.077 3.8052 6.1699 5.2186 1.359.9241 2.718 1.8482 3.9413 2.881 5.952 5.1643 4.022 10.6003-.326 16.0363-.2178.2718-4.8928 4.4847-5.1102 4.7565-.4893-.7339-.598-2.256-1.06-2.9898 4.4847-2.6365 12.0412-8.3715 5.5719-15.0034-.2447-.2718-.5165-.4893-.7883-.7339z"/><path d="m140.243 95.9672c-6.305-3.2345-12.149-7.8551-13.834-15.085-3.262-13.8346 6.469-25.1144 19.569-28.2129 4.947-1.1687 10.329-1.1415 15.602.3534 2.5.7066 5.11 1.9026 7.311 3.3975 0 .8697-.027 1.1143 0 1.6036-2.256-1.658-5.055-2.9626-7.692-3.7237-5.055-1.4405-10.219-1.4677-14.949-.3533-12.367 2.9082-21.635 13.5085-18.564 26.5821 1.604 6.795 7.23 11.1438 13.128 14.188l-.598 1.1959zm32.997-35.8505c1.25 1.3046 2.202 2.6908 3.153 4.1585 3.37 5.1914 4.784 11.4156 2.555 17.3409-.816 2.12-2.773 4.838-5.192 7.3658-.081-.4621-.434-.8426-.896-1.0057 2.255-2.3646 4.077-4.8924 4.81-6.8222 2.093-5.4903.707-11.3341-2.419-16.1449-.706-1.0872-1.331-2.1201-2.201-3.1257l.163-1.7667zm-1.114 30.496c-.381.3805-.789.7338-1.196 1.0872-3.262 2.8267-6.877 4.9468-9.54 4.9468v-1.3319c3.125 0 7.447-3.4518 9.73-5.5719.136.4621.544.8154 1.006.897z"/><path d="m115.102 46.1189c3.479 0 7.23-.0543 10.682-.0815-.028.2446 0 .3805.054.5979-1.413 0-2.827-.0271-4.322-.0271-.271 0-1.875 0-2.473.0815-.245.0272.082.5164-.109.5708-.788.1359-1.902 0-2.609 0-.136 0 .163 1.4134.217 1.7667 0 .0815-.244 0-.271.0815-.055.1359.108.5436.081.7883-.027.2989-.462.1087-.571.0543-.244-.1631-.054-.3261-.353-.3261l-.326-3.5606zm16.389.3262c.68.0272 2.555-.2446 3.316.0272.299.1087 4.077 4.9739 4.621 5.6534l2.066 2.4462c-.245.1087-.598-.2718-.734-.0272-1.848-2.3103-3.86-4.7021-5.817-7.0668-.163-.1902-.353-.4349-.598-.4892-.489-.1359-1.141.0543-1.549.0272-.081 0-.462 1.0872-.707 1.1415-.163.0544-1.005.2446-1.087.3262-.272.2718.734-.5164.408-.4621-.68.1631-1.413-.462-1.577-.5708-1.467-1.7395-.271-1.0872 1.631-1.06zm17.477 17.368-.462.0272c-.625-.761-6.224-7.2299-6.197-7.5017 0-.0815.218-.1902.245-.1902.326 0 5.708 6.7678 6.414 7.6376z"/><path d="m131.274 53.0498c.217-.2446.435.1631.625.3534.625.6523 1.25 1.3318 1.794 2.0385-.163.4349-.38.0543-.679-.2446-.218-.2447-1.767-1.8755-1.767-2.0385z"/><path d="m136.683 59.7633c.217-.299 1.848 1.5493 2.12 1.8211.272.2989.544.5707.788.8697-.272.4349-.353.0816-.734-.2718-.272-.2718-2.31-2.1472-2.174-2.3918z"/><path d="m145.571 65.7702c.38-.0272.761-.0544 1.141-.0816.028-.2718.055-.5436.082-.8154.625-.1631.408.0272.516-.7882.028-.2718-.027-.1631.354-.1903 1.005-.0815 2.011.0272 3.044-.0543.136-.5436-.027-.4621-.489-.4893-1.414-.0543-3.045 0-4.485 0-4.784 0-9.54-.0543-14.324 0-.082 0-.299 0-.381 0-.135.1903.299.1903-.543.2175-.245 0-.489.0271-.761.0543-.082.7339-.082 1.3047 0 2.0657 1.522.1087 2.935-.0543 4.376.0272 2.011.1087.299.8969 2.256.9513.244 0 .435.0272.679.0815-.108.5708-.027.5436.544.598.299.7339.598.4892 1.332.4349 2.093-.0816 4.376.1902 6.441 0 .272-.0272.163-.1359.191-.5708 0-.4892 0-.9785.027-1.4405z"/><path d="m134.699 62.6988c-1.549-1.4406-.843-1.7124.326-.1631.652.8426.326.7611-.326.1631z"/><path d="m132.66 48.9728c.027-.1087.191-.3262.354-.1359.57.7339 4.294 5.0011 4.348 5.4088.028.3262-.326.0816-.462-.1087-.57-.6795-1.087-1.359-1.658-2.0657-.788-.9513-1.793-2.0656-2.5-3.0441l-.055-.1088z"/><path d="m127.578 61.2853c-.381-.3805-.734-.761-1.115-1.1415.272-.4077.272-.2175.68.1902.136.1359 1.223 1.1144 1.114 1.2775-.19.3262-.516-.1631-.706-.3262z"/><path d="m123.147 50.06c-.244-.2446-.516-.5164-.761-.761-.462-.4621-.489-.2718-.136-.6251.544.5436 5.79 5.735 5.817 5.8165 0 0-.109.3533-.299.1631-.816-.6795-1.821-1.7667-2.582-2.555-.68-.6795-1.332-1.359-2.012-2.0385z"/><path d="m124.506 56.1212c-1.685-1.658-3.533-3.4247-5.11-5.1643-.163-.163-.407-.3261-.108-.4348.217-.0816.761.5707.924.761 1.794 1.7395 3.56 3.5606 5.327 5.3273l-.163-.1359c-.163 0-.299.0272-.381.1087l-.462-.462z"/><path d="m121.353 57.5074c-.869-.7339-1.875-1.8211-2.69-2.6365-.68-.6795-1.441-1.4134-2.066-2.1472.217-.4349.38-.0816.679.2446 1.305 1.3318 2.691 2.6365 3.969 3.9683.163.1631.272.299.435.4892-.082.2175-.136.2175-.299.1087z"/><path d="m119.315 59.9807c.027.2175-.163.2718-.353.0816-.653-.598-1.523-1.4949-2.148-2.1473-.163-.163-.299-.3261-.462-.5164.299-.4349.354-.1087.788.3262.299.299 2.121 2.0657 2.175 2.2559z"/><path d="m130.459 58.35c-.136-.1359-1.305-1.0872-.897-1.2775.163-.0815.842.7067.951.8154s1.006.8426.544.9513c-.163.0272-.462-.3533-.598-.4892z"/><path d="m141.494 60.4429c-.163-.1903-1.332-1.5221-1.305-1.7124.082-.4621 1.06.8426 1.115.897.326.3533 2.228 2.4462 2.283 2.718.054.4077-.571-.1631-.626-.2175-.489-.5164-.978-1.1144-1.467-1.6851z"/><g clip-rule="evenodd" fill-rule="evenodd"><path d="m116.923 89.1993c-.054-.3805-.027-1.5492-.027-1.9841 0-1.0601 0-2.0657.027-3.1257.027-.7067-.027-1.4678 0-2.2016 0-.4893.027-.9513.054-1.4406.653-.0271 5.817-.1902 5.953.0272.054.0816.081.8426-.272.9241-.408.0816-2.392-.1087-2.446.1631-.027.0816 0 .5436.109.5436.516.0272.951.0272 1.522.0816.054.2718.027.6251.19.8697.217.3262-.109.7339.163.8698.299.1359.054.4077-.381.4349-.57.0271-1.494-.0272-2.092-.0272-.299 0-2.284-.0544-2.365.0543-.027.0272-.082.7611.136.8154.299.0816.679-.2174.706.3534.028.462.218.3261.707.299.517-.0272 1.604-.1359 2.039.163.489.3262 1.549-.2446 1.712.5708.19.8426-.326 1.0057 1.087 1.0329.489 0 .952 0 1.414.0272.027.4077.027.6795 0 1.0872-.925.0271-6.877-.1359-7.203.0271-.19.0816.217.6524-.707.5708-.136 0-.217-.0272-.299-.1359zm.598-13.7531c.544-.1359 4.322-.2174 4.593 0 .462.3262-.326 3.5062.435 3.5334.299 0 .462-.0272.381.4349-.055.299-.734.1903-1.06.1903-.489 0-4.811.0815-4.893-.0544-.299-.5164.272-.4892.354-.7339.136-.4077-.245-3.0985.163-3.3159z"/><path d="m126.871 93.7928c.652-.0272 1.277-.0272 1.93 0 .054 1.4405 0 2.8539.027 4.2944 3.914.0544 7.909.0816 11.823.0272.272 0 .462-.0272.734-.0815.163-1.3862-.136-2.6908.163-4.0227.544-.163.815-.1359 1.359-.0271.19 1.1143 0 1.9569.082 3.0169.027.4349.108.0272.271.4077.082.1903.462.1088.707.1088 3.534.0543 7.148.0271 10.682.0271 1.196 0 1.169.1359 1.087-1.0328-.027-.299 0-.1903-.516-.2174-1.767-.1088-3.806 0-5.627 0-.434 0-.842 0-1.277 0 0-.299 0-.598 0-.897 2.337-.0272 4.675.0544 7.012 0 .626-.0272.408-.2174.408-.8697 0-.2718.027-.5165.054-.8154.626-.0816 1.06-.1359 1.658.0271.218.9785.055 2.3647.109 3.4247.544.1359.381-.0543.544.3534 2.419.0815 4.838-.0544 7.202 0 .272 0 .544.0271.816.0815.054.3262.027.4621 0 .7882-1.495.1631-3.452.0544-5.001.0544-.326 0-2.909-.0544-3.017.0543-.136.1359-.055 4.9741-.027 5.6531 2.5.028 5.055-.054 7.528 0 .191 0 .408.028.598.028.055.897.055 1.793 0 2.69-1.957.163-4.185.028-6.169.028-.653 0-1.305 0-1.957 0-.028 1.957.054 4.022 0 5.952 0 .245-.028.435-.055.68-.734.081-1.223.054-1.957 0-.027-.408-.054-.626-.081-1.033-1.414-.136-3.316-.055-4.784-.027-.734 0-5.463.135-5.708-.136-.217-.245-.109-.68.354-.761 1.087-.164 3.506-.055 4.729-.055h.272c1.495.027 3.18.082 4.675.027.652-.027.516.082.543-.679.055-1.223 0-2.718 0-3.968-4.24 0-8.507-.028-12.747 0 0 1.522.217 5.381-.082 6.659-.625.136-.761.136-1.386 0-.272-1.876-.109-4.023-.081-5.926 0-.951.135-.706-1.115-.706-1.141 0-11.579-.055-11.714.027-.164.109-.109 1.685-.109 1.93 0 1.549.054 3.153 0 4.675-.653.027-1.278.027-1.93 0-.109-2.148.027-4.403-.054-6.578-1.957-.081-3.914.082-5.844-.054-.054-.897-.054-1.767 0-2.691 1.875-.163 3.941 0 5.844-.054.054-1.686.027-3.398 0-5.0831-.625-.0272-5.137.1359-5.246-.1087-.109-.2175-.136-.7067.19-.7611.625-.1359 3.996 0 5.083-.0271 0-1.4406-.027-2.8539.027-4.2945zm17.069-5.5991c0 .4621 0 .9241-.027 1.3862-1.115.0272-2.256 0-3.371 0 0-.0544 0-.1087 0-.1631-1.168 0-2.337.0272-3.506 0 0-.2174-.027-2.1744.027-2.2016.109-.0272.028-.6251.028-.761-2.12-.0544-4.349-.0272-6.469 0-.245 0-.462 0-.707.0272-.027.9241-.109.7066.68.7338 1.875.0544 3.778-.0543 5.653.0272.027.8969-.027 1.7667.027 2.6093 0 .1902 0 .1087.353.1087h2.501c0 .1903-.027 1.6852.027 1.7395.027.0272.027.8154.055.9242 2.12.1087 4.376-.0544 6.468.0271.463.0272.354-.1087.354.5436 0 .299 0 .598.027.897.788.0272 1.604.0272 2.419 0 0-.6795 0-1.3862 0-2.0657-.217-.0272-.136.0272-.163-.3262-1.114 0-2.283.0272-3.398-.0272-.054-1.1959 0-2.4462-.027-3.6421-.272 0-.652-.0543-.897.0272l-.027.1359zm-18.564 23.5383c0 .217 0 .38-.027.625-1.984.163-4.186.027-6.197.054-.272 0-2.338.055-2.419-.109-.027-.081-.082-13.7255.027-14.2419.054-.3262.408.163.353-1.0601 0-.4077-.244-.6251-.054-1.1959.081-.2446.652-.1902.87-.1902 1.304-.0544 3.044-.0816 4.321 0 .625.0543.571.9241.082 1.0328-.707.1631-3.452-.1903-3.805.0815-.272.1903-.272 1.5765.027 1.7667.407.2447 1.549-.2174 1.386.6795-.054.3262-.272.2447-.598.2447-.245 0-1.386.0271-1.522.1902-.163.1903-.054 1.8757-.027 2.2017 1.114.054 2.201 0 3.288.054.055.761-.19.517-1.005.49-.761 0-1.522 0-2.283.027-.109 2.691-.082 5.626-.027 8.317 0 .217.027.38.054.571 2.337.217 4.947-.055 7.366.054.271 0 .19 0 .217.38zm5.871.598c-.435 0-.408.054-.381-.462 0-.544.109-.408.707-.435 2.283-.055 4.865-.136 7.121-.028.326.028.788-.027.734.435-.054.653-1.25.517-1.712.544-2.175.027-4.322 0-6.496-.054zm12.177-8.834v1.413c1.25 0 12.448.055 12.665 0 .164-.054.109-.407.109-.543 0-1.685.027-3.398-.027-5.0828-.489-.1631-8.888-.0816-10.383-.0816-.244 0-2.31-.0272-2.364.0816-.055.2174 0 3.6688 0 4.2128zm-14.27 1.06c1.169 0 12.584.109 12.693-.027.109-.353.054-4.485-.027-5.0284-1.658-.1903-3.778-.0544-5.49-.0544-2.447 0-4.92-.0271-7.339 0-.027 1.5218 0 3.0438 0 4.5388 0 .272-.054.272.027.517l.136.027z"/><path d="m172.615 90.8302c-.571 0-1.142 0-1.712.0271-.055 2.0385 0 4.213 0 6.2786 0 5.5451-.028 11.1441 0 16.6881 1.005 0 2.174.055 3.152-.027.082-1.712.028-3.642.028-5.354 0-5.735.027-11.4973 0-17.2323 0-.4621.108-.3534-.517-.3805-.326 0-.625 0-.951 0zm-5.762-.0544c-.055-.7067.081-.4621.407-.4892.245 0 .463-.0272.707-.0272.571-1.06 2.283-3.6421 3.099-4.4032.163-.1631.244-.0272.462.1631 1.141.9241 3.044 2.9626 3.914 4.1857.108.1631-.028.0816.407.0816.082 0 .653-.0544.707.0543 0 0 .109.4621-.19.4621-.571 0-1.196.0272-1.767.0543-.054 1.9026 0 3.9955 0 5.9253 0 5.5174.027 11.0354 0 16.5254 0 .353 0 .707-.027 1.06-1.577.082-3.425.027-5.028.027-.897 0-.707.191-.707-.706 0-7.475.027-15.0038 0-22.4783 0-.4893.136-.3534-.571-.3534-.489 0-.951 0-1.44-.0543zm4.403-2.718c-.136 1.3046.027 2.3647 1.604 2.2831 1.494-.0815-.028-2.0928-.435-2.6636-.109-.1631-.734-.897-.924-.598-.136.1903-.218.7882-.245 1.0057z"/></g><path d="m171.963 43.4009h-1.495v43.4609h1.495z"/><path d="m157.715 43.1434v.7413h26.177v-.7413z"/><path clip-rule="evenodd" d="m173.784 43.5096c-.653 0-5.491.0815-5.708-.0272-.272-.1359-.082-1.8482-.027-2.1744 1.141-.2446 3.18-.0815 4.43-.0815.544 0 .843-.0272 1.359.1087.19.598.081 1.2231.081 1.8482l.028.1903-.055.1359-.136.0272z" fill-rule="evenodd"/><path clip-rule="evenodd" d="m157.938 43.8902c-.055-.299-.191-2.0929.054-2.2288.299-.0815 2.446-.1087 2.501.0544.081.2446.027 1.8482.027 2.2015-.87 0-1.713.0544-2.582-.0271z" fill-rule="evenodd"/><path d="m157.775 44.0804c-.055-.3262-.163-2.4734.054-2.6093.299-.0543 2.8-.1359 2.854.0544.109.3805.054 2.0657.054 2.5549-.978 0-1.957.0544-2.935-.0272zm.407-2.1472c-.136.1359-.217 1.7123 0 1.7939.381.0543 1.821.1087 2.148 0 .081-.3806.027-1.4406 0-1.8755-.517-.0271-1.74-.163-2.148.0816z"/><path d="m152.583 28.9411c.354.9785 3.452 9.5946 3.371 9.7577-.055.1631-.272.1087-.354-.0816-.244-.4892-.489-1.4133-.679-1.9841-.218-.6251-.462-1.2231-.68-1.8482-.652-1.8483-1.332-3.7237-1.957-5.572-.081-.2718-.163-.5164-.217-.7882.353-.2718.38.1087.516.4893z"/><path d="m151.659 28.479c-.326 0-.652-.0271-.951-.0271-.109-.7067.136-.4621.707-.4893 5.164-.1087 10.355 0 15.547 0 .163 0 .407-.0272.57.0544 0 .5979-.081.462-.57.462-1.93.0816-4.023.0272-5.98.0272-3.099 0-6.224.0272-9.323 0z"/><path d="m164.352 31.6591c.353-1.0057.734-2.1472 1.114-3.1257.109-.2718.136-.3534.381-.0816-.625 1.9842-1.441 4.0771-2.147 6.0612-.517 1.4677-.979 2.9083-1.604 4.3216-.462-.0272-.19-.3533-.081-.7067.761-2.1744 1.549-4.2944 2.337-6.4416z"/><path d="m165.276 38.4541c.191.1903.245.7339-.081.7611-.979.1359-2.827.0543-3.887.0815h-.109c-1.277 0-1.495.7067-1.522 1.2503-.054.6795.027 1.1688-.027 1.2231-.082.1087-.843.0272-.924-.1087-.027-.0544 0-.6795 0-1.359 0-.4892-1.25-.9785-1.549-.9785-1.468.0272-2.066 0-3.507-.0272-.108 0-.733-.0272-.788-.0543-.163-.1088-.109-.598-.054-.7883.978-.163 3.289-.0815 4.457-.0815 2.474-.0272 4.92-.0544 7.393.0544.109 0 .49.0271.598.0543z"/><path clip-rule="evenodd" d="m152.42 28.2344c-.163-.1359 2.229-2.2559 2.501-2.4733.407-.3262 2.908-2.2832 3.261-2.3104.163 0 1.821.7883 3.398 1.7396 2.011 1.2231 4.023 2.6636 4.05 2.7452.081.163-1.767.1359-1.903.1359-1.141.0271-11.062.3533-11.307.163z" fill-rule="evenodd"/><path d="m153.698 39.2151c-.055-.163.217-.6251.435-.6251.244.0815.951.2174 1.576.6251.353.2175.435.7067.761.9785.598.5164 1.413.8426 1.712 1.06.163.1088.517.1359.653.299-.055.1903-.544.7882-.761.6795-.408-.1631-4.159-2.7452-4.376-3.017z"/><path d="m164.325 38.5356c.272.0544.625.4893.353.8154-.462.4893-3.56 2.4462-4.403 2.9627-.244.163-.136.1902-.408-.1631-.108-.1631-.163-.2718-.244-.4621 1.006-.8154 2.473-1.7395 3.588-2.4462.299-.1902.598-.3805.897-.5979.054-.0272.135-.0816.217-.1359z"/><path d="m155.193 29.3488c.407.9513.815 2.5005 1.141 3.5605.353 1.2231.761 2.4462 1.087 3.6693.055.1903-.244.1903-.299.1631-.108-.1087-.706-2.2016-.815-2.5277-.163-.5164-1.468-4.7837-1.441-4.9468.028-.1359.218-.0815.327.0816z"/><path d="m163.999 29.2401c.353.0816.217.1631.081.5708-.244.7067-.543 1.4677-.842 2.1472-.489-.0815-.326-.1087-.082-.761.082-.2174.68-1.8754.788-1.9298z"/><path d="m158.373 26.0872c0 .1087-.027.1902-.027.2989-.707.0272-.463-.0543-.49-.2174-.108-1.6036 0-3.2072 0-4.8109 0-.0543-.027-.1359.055-.1902.598 0 .462.0272.462.1631.081.5979.027 1.2502.027 1.8482 0 .9513.027 1.9298 0 2.8811z"/><path clip-rule="evenodd" d="m181.584 43.8902c-.054-.299-.19-2.0929.055-2.2288.299-.0815 2.446-.1087 2.5.0544.082.2446.027 1.8482.027 2.2015-.869 0-1.712.0544-2.582-.0271z" fill-rule="evenodd"/><path d="m181.394 44.0804c-.054-.3262-.163-2.4734.055-2.6093.298-.0543 2.799-.1359 2.853.0544.109.3805.055 2.0657.055 2.5549-.979 0-1.957.0544-2.936-.0272zm.408-2.1472c-.136.1359-.218 1.7123 0 1.7939.38.0543 1.821.1087 2.147 0 .082-.3806.027-1.4406 0-1.8755-.516-.0271-1.739-.163-2.147.0816z"/><path d="m176.203 28.9411c.353.9785 3.452 9.5946 3.37 9.7577-.054.1631-.272.1087-.353-.0816-.245-.4892-.489-1.4133-.68-1.9841-.217-.6251-.462-1.2231-.679-1.8482-.653-1.8483-1.332-3.7237-1.957-5.572-.082-.2718-.163-.5164-.218-.7882.354-.2718.381.1087.517.4893z"/><path d="m175.279 28.479c-.327 0-.653-.0271-.952-.0271-.108-.7067.136-.4621.707-.4893 5.164-.1087 10.356 0 15.547 0 .163 0 .408-.0272.571.0544 0 .5979-.082.462-.571.462-1.93.0816-4.023.0272-5.98.0272-3.098 0-6.224.0272-9.322 0z"/><path d="m187.972 31.6591c.353-1.0057.734-2.1472 1.114-3.1257.109-.2718.136-.3534.381-.0816-.626 1.9842-1.441 4.0771-2.148 6.0612-.516 1.4677-.978 2.9083-1.603 4.3216-.462-.0272-.191-.3533-.082-.7067.761-2.1744 1.549-4.2944 2.338-6.4416z"/><path d="m188.896 38.4541c.19.1903.245.7339-.082.7611-.978.1359-2.826.0543-3.886.0815h-.109c-1.278 0-1.495.7067-1.522 1.2503-.055.6795.027 1.1688-.027 1.2231-.082.1087-.843.0272-.924-.1087-.028-.0544 0-.6795 0-1.359 0-.4892-1.251-.9785-1.55-.9785-1.467.0272-2.065 0-3.506-.0272-.109 0-.734-.0272-.788-.0543-.163-.1088-.109-.598-.055-.7883.979-.163 3.289-.0815 4.458-.0815 2.473-.0272 4.92-.0544 7.393.0544.109 0 .489.0271.598.0543z"/><path clip-rule="evenodd" d="m176.04 28.2344c-.163-.1359 2.228-2.2559 2.5-2.4733.408-.3262 2.909-2.2832 3.262-2.3104.163 0 1.821.7883 3.397 1.7396 2.012 1.2231 4.023 2.6636 4.05 2.7452.082.163-1.766.1359-1.902.1359-1.142.0271-11.063.3533-11.307.163z" fill-rule="evenodd"/><path d="m177.317 39.2151c-.054-.163.218-.6251.435-.6251.245.0815.951.2174 1.576.6251.354.2175.435.7067.762.9785.597.5164 1.413.8426 1.712 1.06.163.1088.516.1359.652.299-.054.1903-.543.7882-.761.6795-.408-.1631-4.158-2.7452-4.376-3.017z"/><path d="m187.944 38.5356c.272.0544.626.4893.354.8154-.462.4893-3.561 2.4462-4.403 2.9627-.245.163-.136.1902-.408-.1631-.109-.1631-.163-.2718-.245-.4621 1.006-.8154 2.474-1.7395 3.588-2.4462.299-.1902.598-.3805.897-.5979.054-.0272.136-.0816.217-.1359z"/><path d="m178.839 29.3488c.408.9513.815 2.5005 1.142 3.5605.353 1.2231.761 2.4462 1.087 3.6693.054.1903-.245.1903-.299.1631-.109-.1087-.707-2.2016-.816-2.5277-.163-.5164-1.467-4.7837-1.44-4.9468.027-.1359.217-.0815.326.0816z"/><path d="m180.171 29.5391c.326-.1359.272.0272.381.4349.217.7067.407 1.4949.543 2.2288-.435.2174-.326.0815-.489-.5708-.054-.2446-.516-1.9298-.489-2.0385l.027-.0544z"/><path d="m182.019 26.0872c0 .1087-.027.1902-.027.2989-.707.0272-.462-.0543-.489-.2174-.109-1.6036 0-3.2072 0-4.8109 0-.0543-.027-.1359.054-.1902.598 0 .462.0272.462.1631.082.5979.027 1.2502.027 1.8482 0 .9513.028 1.9298 0 2.8811z"/><path clip-rule="evenodd" d="m143.587 67.8901h1.549v20.1404h-1.549z" fill-rule="evenodd"/><path d="m135.351 70.3907h-1.006v16.4439h1.006z"/><path d="m127.697 81.7156v.58h7.174v-.58z"/><path d="m127.083 76.3665v.5012h7.595v-.5012z"/><path d="m130.567 70.3635h-.489v16.3081h.489z"/><path d="m127.059 69.83v.7646h9.422v-.7646z"/><path clip-rule="evenodd" d="m143.532 82.812c-.489-.0272-.815-.0272-1.304.0272-.082.7067-.082 1.3046 0 2.0113.217.0544 1.386.1631 1.44-.0544.055-.2174.109-1.8482-.027-1.9569l-.136-.0544z" fill-rule="evenodd"/><path d="m131.002 70.2276h-.571v3.1257h.571z"/><path clip-rule="evenodd" d="m143.75 79.8766c.081.4077.027.299.706.2718.245 0 .354-.0544.272.2718-.38.0543-1.739.1631-1.984-.1359-.272-.3534-1.495-.1087-1.631 0-.217.2174.218.2718-.38.8154-.245.2174-.109.6795-.191 1.1144-.19 1.0328-.081 1.6308-.163 2.6364-.081.9241-.271.3262-.271-.2446 0-.9241.136-1.2503-.082-2.2016-1.277-.2718-2.174-.1087-3.452-.1087-.408 0-.326 0-.299-.3533 0-.1631 1.522-.0272 1.685-.0272.354 0 2.229.1087 2.365-.2446.163-.4349.027-2.6909-.136-3.2345-.435-1.5221.68-2.0657-1.413-1.9841-.435.0272-.952 0-1.386-.0272.054-.8698.38-.598 1.168-.5436.598.0272 1.196 0 1.821-.0815.163-1.3319.055-2.7724.136-4.1314.707-.1087.49.2718.517.9785s.244 4.7837-.191 5.0826c-.271.1903-.244.0816-.244.5708 0 1.0601.272.5708.462 1.0872.217.598.353.4077 1.06.4077.544 0 1.087 0 1.658.0272zm.978-3.2345c-.652 0-1.277 0-1.93-.0271-.054-.3806-.054-.5436 0-.9242.707-.0271 1.414-.0271 2.12 0 0 .2718.055.6795-.027.9242l-.136.0271z" fill-rule="evenodd"/><path d="m140.651 82.0238h-.299v.9785h.299z"/><path d="m43.0748 57.2627c-.2175-.2174-.3534-.4349-.4349-.6795-.1359-.3805-.0815-.7882.0815-1.1687.1359-.3262.3806-.6252.6524-.9242.7338-.7338 1.8482-1.3318 2.5277-1.5764 2.7995-.9241 4.077-.1903 4.8109.2174.5164.299 1.7395 2.256-.5436.9785-.5708-.3261-1.5765-.8697-3.914-.1087-.5707.1903-1.4949.6795-2.0928 1.2775-.1903.1902-.3262.3805-.4077.5707-.0544.1359-.0816.2447-.0544.3534.0272.0815.0816.1631.1631.2446l-.7882.7882z"/><path d="m109.34 152.828c-3.996-.19-10.2472-2.093-13.8078-6.252-.299 12.367 27.9138 12.367 27.6148 0-3.56 4.159-9.812 6.062-13.807 6.252z"/><path d="m66.6399 49.2446 4.2945.6252c.3805.5164.3533.9785-.1631 1.1687l-4.2944-.6251z"/><path d="m82.7305 63.949 1.3318 4.1314-1.1144.3533-1.3318-4.1313c-.0816-.6252.7882-.6252 1.1144-.3534z"/><path clip-rule="evenodd" d="m83.4915 68.2435c.8698 1.4405 3.9955 7.6647 3.9411 9.2956-.0543 1.4133 1.3319 2.3918-1.4949 2.3646-1.7667-.0272-3.6421-3.3975-3.6421-4.8924 0-2.419-.4077-4.1585 1.06-6.3058l.1631-.462z" fill-rule="evenodd"/><path clip-rule="evenodd" d="m59.4372 51.6093c1.658-.4077 3.017-1.0056 4.7294-1.3318.5164-.1087 3.2072-1.658 2.6364-.0544-.1902.5165-2.0657 2.3375-2.4734 2.5006-2.2016.7882-1.2231 1.0057-4.4575.8154-.9785-.0544-1.9026-1.7667-.7882-1.7667.0543 0 .3805-.1903.3805-.1903z" fill-rule="evenodd"/><path d="m1.08479 180v-.48h1.08c.27 0 .405-.135.405-.405v-8.91c0-.27-.135-.405-.405-.405h-1.08v-.48h4.35v.48h-1.08c-.27 0-.405.135-.405.405v7.545l4.26-7.05v-.495c0-.27-.135-.405-.405-.405h-1.08v-.48h4.35001v.48h-1.08001c-.27 0-.405.135-.405.405v8.91c0 .27.135.405.405.405h1.08001v.48h-4.35001v-.48h1.08c.27 0 .405-.135.405-.405v-7.545l-4.26 7.05v.495c0 .27.135.405.405.405h1.08v.48zm14.27301.18c-.87 0-1.58-.345-2.13-1.035-.54-.7-.81-1.555-.81-2.565s.275-1.86.825-2.55c.55-.7 1.255-1.05 2.115-1.05.68 0 1.225.205 1.635.615.41.4.615.85.615 1.35 0 .31-.08.555-.24.735-.16.17-.355.255-.585.255-.2 0-.37-.065-.51-.195-.13-.13-.195-.285-.195-.465 0-.35.17-.58.51-.69.16-.05.24-.14.24-.27 0-.2-.125-.41-.375-.63-.25-.23-.615-.345-1.095-.345-.63 0-1.06.27-1.29.81-.22.54-.33 1.35-.33 2.43s.11 1.89.33 2.43.65.81 1.29.81c.61 0 1.08-.215 1.41-.645s.53-.935.6-1.515h.36c-.04.65-.265 1.235-.675 1.755-.41.51-.975.765-1.695.765zm4.9132-.18v-.36h.63c.22 0 .33-.11.33-.33v-5.46c0-.22-.11-.33-.33-.33-.62 0-1.06.25-1.32.75-.15.3-.26.63-.33.99l-.12.54h-.3l.105-2.64h5.685l.09 2.64h-.3l-.12-.54c-.07-.36-.18-.69-.33-.99-.26-.5-.7-.75-1.32-.75-.22 0-.33.11-.33.33v5.46c0 .22.11.33.33.33h.63v.36zm8.7552-.18c1.12 0 1.68-1.08 1.68-3.24s-.56-3.24-1.68-3.24-1.68 1.08-1.68 3.24.56 3.24 1.68 3.24zm0 .36c-.84 0-1.55-.35-2.13-1.05-.58-.71-.87-1.56-.87-2.55s.29-1.835.87-2.535c.58-.71 1.29-1.065 2.13-1.065s1.55.355 2.13 1.065c.58.7.87 1.545.87 2.535s-.29 1.84-.87 2.55c-.58.7-1.29 1.05-2.13 1.05zm8.1614-.36c.48 0 .815-.28 1.005-.84.19-.57.285-1.37.285-2.4s-.095-1.825-.285-2.385c-.19-.57-.525-.855-1.005-.855-.47 0-.895.285-1.275.855-.37.56-.555 1.185-.555 1.875v1.395c0 .61.165 1.155.495 1.635.34.48.785.72 1.335.72zm-4.02 3.63v-.36h.78c.22 0 .33-.11.33-.33v-8.91c0-.22-.11-.33-.33-.33h-.78v-.36h2.19v.96l.09.03c.2-.33.46-.605.78-.825.33-.23.66-.345.99-.345.79 0 1.415.345 1.875 1.035.47.69.705 1.545.705 2.565s-.245 1.875-.735 2.565c-.48.69-1.115 1.035-1.905 1.035-.66 0-1.235-.285-1.725-.855l-.075.045v3.39c0 .22.11.33.33.33h.78v.36zm7.9136-3.45v-.36h.63c.22 0 .33-.11.33-.33v-5.46c0-.22-.11-.33-.33-.33h-.63v-.36h3v.36h-.63c-.22 0-.33.11-.33.33v4.41l2.85-4.02v-.39c0-.22-.11-.33-.33-.33h-.63v-.36h3v.36h-.63c-.22 0-.33.11-.33.33v5.46c0 .22.11.33.33.33h.63v.36h-3v-.36h.63c.22 0 .33-.11.33-.33v-4.41l-2.85 4.02v.39c0 .22.11.33.33.33h.63v.36zm8.0713 0v-.36h.63c.22 0 .33-.11.33-.33v-5.445c0-.22-.11-.33-.33-.33h-.63v-.36h3v.36h-.63c-.22 0-.33.11-.33.33v2.355h.975c.54 0 .86-.655.96-1.965.03-.43.145-.75.345-.96.21-.21.455-.315.735-.315.33 0 .575.11.735.33.17.22.255.465.255.735s-.08.49-.24.66-.35.255-.57.255c-.2 0-.355-.055-.465-.165-.11-.12-.165-.265-.165-.435s.08-.31.24-.42c.11-.08.165-.165.165-.255 0-.12-.08-.18-.24-.18-.27 0-.42.245-.45.735-.08 1.31-.38 2.035-.9 2.175v.045c.53 0 .965.21 1.305.63.25.3.4.8.45 1.5.02.24.04.42.06.54s.065.235.135.345c.08.11.19.165.33.165.24 0 .405-.145.495-.435.09-.3.135-.605.135-.915h.27c0 .19-.015.375-.045.555s-.085.38-.165.6c-.07.22-.2.4-.39.54-.18.13-.405.195-.675.195-.31 0-.565-.07-.765-.21-.37-.26-.555-.695-.555-1.305v-.75c0-.47-.105-.8-.315-.99-.2-.19-.43-.285-.69-.285h-.96v2.67c0 .22.11.33.33.33h.63v.36zm10.6793-.18c1.12 0 1.68-1.08 1.68-3.24s-.56-3.24-1.68-3.24-1.68 1.08-1.68 3.24.56 3.24 1.68 3.24zm0 .36c-.84 0-1.55-.35-2.13-1.05-.58-.71-.87-1.56-.87-2.55s.29-1.835.87-2.535c.58-.71 1.29-1.065 2.13-1.065s1.55.355 2.13 1.065c.58.7.87 1.545.87 2.535s-.29 1.84-.87 2.55c-.58.7-1.29 1.05-2.13 1.05zm8.8255-4.38h3.75v.84h-3.75zm9.0359 3.195c0-.29.07-.525.21-.705.15-.18.36-.27.63-.27.21 0 .37.07.48.21.12.13.18.29.18.48 0 .28-.105.47-.315.57-.12.05-.18.155-.18.315 0 .06.025.115.075.165.06.04.12.06.18.06.4 0 .705-.205.915-.615s.36-1.09.45-2.04l.135-1.605c.06-.74.09-1.28.09-1.62 0-.15-.025-.255-.075-.315-.05-.07-.165-.105-.345-.105h-.57v-.36h4.95v.36h-.63c-.22 0-.33.11-.33.33v5.46c0 .22.11.33.33.33h.615v.36h-3v-.36h.645c.22 0 .33-.11.33-.33v-5.46c0-.22-.11-.33-.33-.33h-.495c-.24 0-.415.09-.525.27-.1.17-.165.44-.195.81l-.225 2.685c-.15 1.93-.725 2.895-1.725 2.895-.45 0-.775-.13-.975-.39s-.3-.525-.3-.795zm7.9486 1.005v-.36h.63c.22 0 .33-.11.33-.33v-5.46c0-.22-.11-.33-.33-.33h-.63v-.36h3v.36h-.63c-.22 0-.33.11-.33.33v4.41l2.85-4.02v-.39c0-.22-.11-.33-.33-.33h-.63v-.36h3v.36h-.63c-.22 0-.33.11-.33.33v5.46c0 .22.11.33.33.33h.63v.36h-3v-.36h.63c.22 0 .33-.11.33-.33v-4.41l-2.85 4.02v.39c0 .22.11.33.33.33h.63v.36zm9.5413 0v-.36h.63c.22 0 .33-.11.33-.33v-5.46c0-.22-.11-.33-.33-.33-.62 0-1.06.25-1.32.75-.15.3-.26.63-.33.99l-.12.54h-.3l.105-2.64h5.685l.09 2.64h-.3l-.12-.54c-.07-.36-.18-.69-.33-.99-.26-.5-.7-.75-1.32-.75-.22 0-.33.11-.33.33v5.46c0 .22.11.33.33.33h.63v.36zm7.0749-3.78h2.85c0-.36-.025-.7-.075-1.02s-.125-.625-.225-.915-.245-.52-.435-.69-.415-.255-.675-.255-.485.085-.675.255-.34.4-.45.69-.19.6-.24.93c-.05.32-.075.655-.075 1.005zm-1.32.36c0-.62.115-1.2.345-1.74s.56-.985.99-1.335c.44-.35.935-.525 1.485-.525.36 0 .69.075.99.225s.55.35.75.6.37.535.51.855.24.645.3.975.09.665.09 1.005h-4.14c0 .49.025.92.075 1.29.05.36.135.69.255.99.12.29.295.515.525.675.23.15.515.225.855.225.2 0 .39-.03.57-.09.19-.06.38-.165.57-.315.2-.15.365-.375.495-.675.14-.3.235-.66.285-1.08h.36c-.06.74-.285 1.345-.675 1.815s-.935.705-1.635.705c-.9 0-1.625-.335-2.175-1.005s-.825-1.535-.825-2.595zm10.62 3.24c.48 0 .815-.28 1.005-.84.19-.57.285-1.37.285-2.4s-.095-1.825-.285-2.385c-.19-.57-.525-.855-1.005-.855-.47 0-.895.285-1.275.855-.37.56-.555 1.185-.555 1.875v1.395c0 .61.165 1.155.495 1.635.34.48.785.72 1.335.72zm-4.02 3.63v-.36h.78c.22 0 .33-.11.33-.33v-8.91c0-.22-.11-.33-.33-.33h-.78v-.36h2.19v.96l.09.03c.2-.33.46-.605.78-.825.33-.23.66-.345.99-.345.79 0 1.415.345 1.875 1.035.47.69.705 1.545.705 2.565s-.245 1.875-.735 2.565c-.48.69-1.115 1.035-1.905 1.035-.66 0-1.235-.285-1.725-.855l-.075.045v3.39c0 .22.11.33.33.33h.78v.36zm9.293-4.995c0 .79.31 1.185.93 1.185.24 0 .455-.055.645-.165.2-.12.37-.29.51-.51.15-.23.26-.425.33-.585.08-.17.165-.38.255-.63v-1.425l-1.305.285c-.48.1-.83.3-1.05.6-.21.29-.315.705-.315 1.245zm-1.26-.045c0-.31.06-.585.18-.825.12-.25.255-.445.405-.585.16-.14.375-.265.645-.375s.485-.185.645-.225c.17-.04.395-.085.675-.135l1.38-.255v-1.275c0-.93-.465-1.395-1.395-1.395-.34 0-.65.09-.93.27-.28.17-.42.365-.42.585 0 .1.015.175.045.225.04.08.115.13.225.15.37.1.555.295.555.585 0 .39-.22.585-.66.585-.22 0-.42-.085-.6-.255s-.27-.415-.27-.735c0-.55.215-.98.645-1.29.43-.32.915-.48 1.455-.48.66 0 1.23.175 1.71.525.48.34.72.875.72 1.605v3.69c0 .5.155.75.465.75.47 0 .705-.5.705-1.5h.27c0 1.42-.4 2.13-1.2 2.13-.85 0-1.29-.48-1.32-1.44l-.075-.03c-.15.35-.395.685-.735 1.005-.33.31-.72.465-1.17.465-.53 0-.99-.13-1.38-.39-.38-.26-.57-.72-.57-1.38zm8.85 1.59v-.36h.63c.22 0 .33-.11.33-.33v-5.46c0-.22-.11-.33-.33-.33-.62 0-1.06.25-1.32.75-.15.3-.26.63-.33.99l-.12.54h-.3l.105-2.64h5.685l.09 2.64h-.3l-.12-.54c-.07-.36-.18-.69-.33-.99-.26-.5-.7-.75-1.32-.75-.22 0-.33.11-.33.33v5.46c0 .22.11.33.33.33h.63v.36zm7.046 3.57c-.39 0-.71-.125-.96-.375-.28-.26-.42-.575-.42-.945 0-.28.08-.49.24-.63.15-.15.32-.225.51-.225.23 0 .4.07.51.21.12.15.18.335.18.555 0 .12-.04.26-.12.42-.06.1-.09.195-.09.285 0 .15.1.225.3.225.3 0 .55-.12.75-.36.21-.23.365-.505.465-.825l.405-1.305-2.13-6.195c-.08-.22-.15-.38-.21-.48-.05-.11-.135-.205-.255-.285-.11-.08-.25-.12-.42-.12h-.495v-.36h3.39v.36h-.48c-.12 0-.23.035-.33.105-.1.06-.15.145-.15.255 0 .17.03.335.09.495l1.56 4.605 1.245-4.11c.11-.31.165-.565.165-.765 0-.17-.05-.31-.15-.42s-.23-.165-.39-.165h-.36v-.36h2.73v.36h-.345c-.49 0-.835.295-1.035.885l-2.415 7.68c-.11.37-.32.71-.63 1.02s-.695.465-1.155.465zm10.384-3.75c.48 0 .815-.28 1.005-.84.19-.57.285-1.37.285-2.4s-.095-1.825-.285-2.385c-.19-.57-.525-.855-1.005-.855-.47 0-.895.285-1.275.855-.37.56-.555 1.185-.555 1.875v1.395c0 .61.165 1.155.495 1.635.34.48.785.72 1.335.72zm-4.02 3.63v-.36h.78c.22 0 .33-.11.33-.33v-8.91c0-.22-.11-.33-.33-.33h-.78v-.36h2.19v.96l.09.03c.2-.33.46-.605.78-.825.33-.23.66-.345.99-.345.79 0 1.415.345 1.875 1.035.47.69.705 1.545.705 2.565s-.245 1.875-.735 2.565c-.48.69-1.115 1.035-1.905 1.035-.66 0-1.235-.285-1.725-.855l-.075.045v3.39c0 .22.11.33.33.33h.78v.36zm7.913-3.45v-.36h.63c.22 0 .33-.11.33-.33v-5.46c0-.22-.11-.33-.33-.33h-.63v-.36h3v.36h-.63c-.22 0-.33.11-.33.33v2.37h3v-2.37c0-.22-.11-.33-.33-.33h-.63v-.36h3v.36h-.63c-.22 0-.33.11-.33.33v5.46c0 .22.11.33.33.33h.63v.36h-3v-.36h.63c.22 0 .33-.11.33-.33v-2.67h-3v2.67c0 .22.11.33.33.33h.63v.36zm8.218 0v-.36h.63c.22 0 .33-.11.33-.33v-5.46c0-.22-.11-.33-.33-.33h-.63v-.36h3v.36h-.63c-.22 0-.33.11-.33.33v2.43h1.74c.63 0 1.15.18 1.56.54.42.36.63.8.63 1.32 0 .51-.22.95-.66 1.32-.44.36-.95.54-1.53.54zm2.04-3.36v2.67c0 .22.11.33.33.33h.99c.42 0 .74-.14.96-.42s.33-.64.33-1.08-.115-.8-.345-1.08c-.22-.28-.535-.42-.945-.42zm3.72 3.36v-.36h.63c.22 0 .33-.11.33-.33v-5.46c0-.22-.11-.33-.33-.33h-.63v-.36h3v.36h-.63c-.22 0-.33.11-.33.33v5.46c0 .22.11.33.33.33h.63v.36zm4.142 0v-.36h.63c.22 0 .33-.11.33-.33v-5.46c0-.22-.11-.33-.33-.33h-.63v-.36h3v.36h-.63c-.22 0-.33.11-.33.33v4.41l2.85-4.02v-.39c0-.22-.11-.33-.33-.33h-.63v-.36h3v.36h-.63c-.22 0-.33.11-.33.33v5.46c0 .22.11.33.33.33h.63v.36h-3v-.36h.63c.22 0 .33-.11.33-.33v-4.41l-2.85 4.02v.39c0 .22.11.33.33.33h.63v.36zm3.45-7.83c.91 0 1.365-.175 1.365-.525 0-.2-.1-.3-.3-.3-.11 0-.22-.04-.33-.12-.11-.09-.165-.22-.165-.39s.055-.305.165-.405c.12-.1.28-.15.48-.15.25 0 .445.085.585.255.14.16.21.385.21.675 0 .41-.22.745-.66 1.005-.44.25-.89.375-1.35.375s-.91-.125-1.35-.375c-.44-.26-.66-.595-.66-1.005 0-.29.07-.515.21-.675.14-.17.335-.255.585-.255.2 0 .355.05.465.15.12.1.18.235.18.405s-.055.3-.165.39c-.11.08-.22.12-.33.12-.2 0-.3.1-.3.3 0 .35.455.525 1.365.525zm8.826 7.83v-.36h.3c.22 0 .37-.065.45-.195.08-.14.12-.345.12-.615v-4.98c0-.22-.11-.33-.33-.33h-.54v-.36h2.07l1.68 4.98 1.605-4.98h2.145v.36h-.54c-.22 0-.33.11-.33.33v5.46c0 .22.11.33.33.33h.54v.36h-2.82v-.36h.54c.22 0 .33-.11.33-.33v-5.16l-1.95 5.97h-.27l-2.04-5.85v4.56c0 .27.04.475.12.615.08.13.23.195.45.195h.3v.36zm10.082 3.57c-.39 0-.71-.125-.96-.375-.28-.26-.42-.575-.42-.945 0-.28.08-.49.24-.63.15-.15.32-.225.51-.225.23 0 .4.07.51.21.12.15.18.335.18.555 0 .12-.04.26-.12.42-.06.1-.09.195-.09.285 0 .15.1.225.3.225.3 0 .55-.12.75-.36.21-.23.365-.505.465-.825l.405-1.305-2.13-6.195c-.08-.22-.15-.38-.21-.48-.05-.11-.135-.205-.255-.285-.11-.08-.25-.12-.42-.12h-.495v-.36h3.39v.36h-.48c-.12 0-.23.035-.33.105-.1.06-.15.145-.15.255 0 .17.03.335.09.495l1.56 4.605 1.245-4.11c.11-.31.165-.565.165-.765 0-.17-.05-.31-.15-.42s-.23-.165-.39-.165h-.36v-.36h2.73v.36h-.345c-.49 0-.835.295-1.035.885l-2.415 7.68c-.11.37-.32.71-.63 1.02s-.695.465-1.155.465zm9.095-10.59c.74 0 1.32.17 1.74.51s.63.78.63 1.32c0 .34-.14.645-.42.915-.27.27-.56.475-.87.615v.06c.41.1.78.305 1.11.615.34.3.51.685.51 1.155 0 .64-.325 1.17-.975 1.59-.44.28-1.055.42-1.845.42-.62 0-1.175-.155-1.665-.465-.49-.32-.735-.8-.735-1.44 0-.22.065-.425.195-.615.14-.2.335-.3.585-.3.23 0 .4.065.51.195.12.13.18.29.18.48 0 .32-.16.51-.48.57-.2.04-.3.13-.3.27 0 .29.175.52.525.69.36.17.755.255 1.185.255 1 0 1.5-.565 1.5-1.695 0-.39-.095-.735-.285-1.035s-.475-.45-.855-.45h-1.08v-.42h1.08c.66 0 .99-.47.99-1.41 0-.53-.135-.905-.405-1.125-.26-.23-.565-.345-.915-.345-.44 0-.85.215-1.23.645-.38.42-.63.935-.75 1.545h-.27v-2.46h.27l.12.36c.04.13.11.195.21.195.08 0 .18-.045.3-.135.49-.34.97-.51 1.44-.51zm5.393 3.24h2.85c0-.36-.025-.7-.075-1.02s-.125-.625-.225-.915-.245-.52-.435-.69-.415-.255-.675-.255-.485.085-.675.255-.34.4-.45.69-.19.6-.24.93c-.05.32-.075.655-.075 1.005zm-1.32.36c0-.62.115-1.2.345-1.74s.56-.985.99-1.335c.44-.35.935-.525 1.485-.525.36 0 .69.075.99.225s.55.35.75.6.37.535.51.855.24.645.3.975.09.665.09 1.005h-4.14c0 .49.025.92.075 1.29.05.36.135.69.255.99.12.29.295.515.525.675.23.15.515.225.855.225.2 0 .39-.03.57-.09.19-.06.38-.165.57-.315.2-.15.365-.375.495-.675.14-.3.235-.66.285-1.08h.36c-.06.74-.285 1.345-.675 1.815s-.935.705-1.635.705c-.9 0-1.625-.335-2.175-1.005s-.825-1.535-.825-2.595zm6.75 3.42v-.36h.63c.22 0 .33-.11.33-.33v-5.46c0-.22-.11-.33-.33-.33h-.63v-.36h3v.36h-.63c-.22 0-.33.11-.33.33v4.41l2.85-4.02v-.39c0-.22-.11-.33-.33-.33h-.63v-.36h3v.36h-.63c-.22 0-.33.11-.33.33v5.46c0 .22.11.33.33.33h.63v.36h-3v-.36h.63c.22 0 .33-.11.33-.33v-4.41l-2.85 4.02v.39c0 .22.11.33.33.33h.63v.36zm3.45-7.83c.91 0 1.365-.175 1.365-.525 0-.2-.1-.3-.3-.3-.11 0-.22-.04-.33-.12-.11-.09-.165-.22-.165-.39s.055-.305.165-.405c.12-.1.28-.15.48-.15.25 0 .445.085.585.255.14.16.21.385.21.675 0 .41-.22.745-.66 1.005-.44.25-.89.375-1.35.375s-.91-.125-1.35-.375c-.44-.26-.66-.595-.66-1.005 0-.29.07-.515.21-.675.14-.17.335-.255.585-.255.2 0 .355.05.465.15.12.1.18.235.18.405s-.055.3-.165.39c-.11.08-.22.12-.33.12-.2 0-.3.1-.3.3 0 .35.455.525 1.365.525zm-180.4334 27.41c0-.61.135-1.15.405-1.62.28-.48.58-.85.9-1.11l.21.21c-.53.67-.795 1.51-.795 2.52s.265 1.85.795 2.52l-.21.21c-.32-.26-.62-.625-.9-1.095-.27-.48-.405-1.025-.405-1.635zm-2.355 0c0-.65.175-1.24.525-1.77.36-.53.765-.94 1.215-1.23l.225.225c-.75.67-1.125 1.595-1.125 2.775s.375 2.105 1.125 2.775l-.225.225c-.45-.29-.855-.7-1.215-1.23-.35-.53-.525-1.12-.525-1.77zm9.5771-.27h3.075l-1.56-4.545zm-3.3 3.69v-.48h.555c.58 0 1-.365 1.26-1.095l3.255-9.105h.375l3.255 9.54c.18.44.48.66.9.66h.84v.48h-4.65v-.48h.99c.15 0 .275-.035.375-.105.1-.08.15-.17.15-.27 0-.13-.02-.24-.06-.33l-.675-1.965h-3.465l-.345.975c-.14.4-.21.7-.21.9 0 .21.055.395.165.555.12.16.32.24.6.24h.795v.48zm12.8651.18c-.27 0-.495-.085-.675-.255-.17-.18-.255-.405-.255-.675s.085-.49.255-.66c.18-.18.405-.27.675-.27s.49.09.66.27c.18.17.27.39.27.66s-.09.495-.27.675c-.17.17-.39.255-.66.255zm7.2382-.18v-.48h1.08c.27 0 .405-.135.405-.405v-8.91c0-.27-.135-.405-.405-.405h-1.08v-.48h10.26v.48h-1.08c-.27 0-.405.135-.405.405v8.91c0 .27.135.405.405.405h1.08v.48h-4.35v-.48h1.08c.27 0 .405-.135.405-.405v-8.91c0-.27-.135-.405-.405-.405h-3.72c-.27 0-.405.135-.405.405v8.91c0 .27.135.405.405.405h1.08v.48zm12.9912.18c-.27 0-.495-.085-.675-.255-.17-.18-.255-.405-.255-.675s.085-.49.255-.66c.18-.18.405-.27.675-.27s.49.09.66.27c.18.17.27.39.27.66s-.09.495-.27.675c-.17.17-.39.255-.66.255zm12.0682-.18v-.48h1.32c.27 0 .405-.135.405-.405v-5.115c-.23.32-.585.615-1.065.885-.47.27-.97.405-1.5.405-.8 0-1.48-.18-2.04-.54-.55-.36-.825-.895-.825-1.605v-2.94c0-.27-.135-.405-.405-.405h-1.08v-.48h4.35v.48h-1.08c-.27 0-.405.135-.405.405v3.105c0 .58.145.975.435 1.185.3.21.72.315 1.26.315.53 0 .995-.13 1.395-.39.41-.27.73-.57.96-.9v-3.315c0-.27-.135-.405-.405-.405h-1.08v-.48h4.35v.48h-1.08c-.27 0-.405.135-.405.405v8.91c0 .27.135.405.405.405h1.08v.48zm7.2664-3.78h2.85c0-.36-.025-.7-.075-1.02s-.125-.625-.225-.915-.245-.52-.435-.69-.415-.255-.675-.255-.485.085-.675.255-.34.4-.45.69-.19.6-.24.93c-.05.32-.075.655-.075 1.005zm-1.32.36c0-.62.115-1.2.345-1.74s.56-.985.99-1.335c.44-.35.935-.525 1.485-.525.36 0 .69.075.99.225s.55.35.75.6.37.535.51.855.24.645.3.975.09.665.09 1.005h-4.14c0 .49.025.92.075 1.29.05.36.135.69.255.99.12.29.295.515.525.675.23.15.515.225.855.225.2 0 .39-.03.57-.09.19-.06.38-.165.57-.315.2-.15.365-.375.495-.675.14-.3.235-.66.285-1.08h.36c-.06.74-.285 1.345-.675 1.815s-.935.705-1.635.705c-.9 0-1.625-.335-2.175-1.005s-.825-1.535-.825-2.595zm6.6894 3.42v-.36h.39c.14 0 .265-.025.375-.075.11-.06.205-.13.285-.21.09-.08.16-.15.21-.21.05-.07.125-.18.225-.33l1.365-2.04-1.83-2.925c-.05-.07-.09-.13-.12-.18-.02-.05-.065-.085-.135-.105-.06-.03-.145-.045-.255-.045h-.45v-.36h2.97v.36h-.36c-.2 0-.3.1-.3.3 0 .11.03.215.09.315l1.035 1.68.99-1.47c.09-.13.135-.29.135-.48 0-.11-.04-.195-.12-.255-.07-.06-.15-.09-.24-.09h-.36v-.36h2.61v.36h-.375c-.4 0-.745.22-1.035.66l-1.365 2.01 1.905 3.06c.06.1.11.175.15.225.04.04.11.08.21.12.1.03.225.045.375.045h.345v.36h-3.12v-.36h.45c.23 0 .345-.085.345-.255 0-.09-.035-.195-.105-.315l-1.2-1.92-1.02 1.515c-.15.24-.225.415-.225.525 0 .3.125.45.375.45h.27v.36zm10.6368-.18c1.12 0 1.68-1.08 1.68-3.24s-.56-3.24-1.68-3.24-1.6801 1.08-1.6801 3.24.5601 3.24 1.6801 3.24zm0 .36c-.84 0-1.5501-.35-2.1301-1.05-.58-.71-.87-1.56-.87-2.55s.29-1.835.87-2.535c.58-.71 1.2901-1.065 2.1301-1.065s1.55.355 2.13 1.065c.58.7.87 1.545.87 2.535s-.29 1.84-.87 2.55c-.58.7-1.29 1.05-2.13 1.05zm6.331-3.96h1.29c.4 0 .695-.125.885-.375.19-.26.285-.605.285-1.035 0-.36-.105-.665-.315-.915-.2-.25-.485-.375-.855-.375h-.96c-.22 0-.33.11-.33.33zm-2.04 3.78v-.36h.63c.22 0 .33-.11.33-.33v-5.46c0-.22-.11-.33-.33-.33h-.63v-.36h3.51c.63 0 1.14.15 1.53.45.4.3.6.7.6 1.2 0 .45-.15.805-.45 1.065-.29.25-.62.415-.99.495v.03c.2.02.425.08.675.18s.495.29.735.57c.24.27.36.59.36.96 0 .57-.235 1.03-.705 1.38-.46.34-1.005.51-1.635.51zm2.04-3.36v2.67c0 .22.11.33.33.33h1.08c.39 0 .685-.165.885-.495.21-.33.315-.685.315-1.065 0-.42-.095-.765-.285-1.035s-.495-.405-.915-.405zm9.371 3.36v-.36h.63c.22 0 .33-.11.33-.33v-5.46c0-.22-.11-.33-.33-.33h-.63v-.36h3v.36h-.63c-.22 0-.33.11-.33.33v4.41l2.85-4.02v-.39c0-.22-.11-.33-.33-.33h-.63v-.36h3v.36h-.63c-.22 0-.33.11-.33.33v5.46c0 .22.11.33.33.33h.63v.36h-3v-.36h.63c.22 0 .33-.11.33-.33v-4.41l-2.85 4.02v.39c0 .22.11.33.33.33h.63v.36zm12.756-5.43c0-1.01.165-1.93.495-2.76s.815-1.495 1.455-1.995c.64-.51 1.39-.765 2.25-.765.61 0 1.23.23 1.86.69.16.1.29.195.39.285.16.14.3.21.42.21.08 0 .135-.02.165-.06.04-.05.085-.14.135-.27l.255-.735h.375v4.17h-.375c-.33-1.22-.795-2.16-1.395-2.82-.59-.66-1.2-.99-1.83-.99-.42 0-.785.08-1.095.24s-.56.375-.75.645-.345.625-.465 1.065-.2.905-.24 1.395c-.04.48-.06 1.045-.06 1.695s.025 1.225.075 1.725.14.98.27 1.44c.13.45.3.82.51 1.11s.48.52.81.69c.34.17.735.255 1.185.255.5 0 .945-.105 1.335-.315s.7-.495.93-.855c.24-.36.425-.75.555-1.17s.21-.865.24-1.335h.54c-.01.22-.035.445-.075.675-.03.23-.085.485-.165.765-.08.27-.18.53-.3.78s-.275.495-.465.735-.405.45-.645.63c-.23.17-.515.305-.855.405-.33.11-.695.165-1.095.165-.7 0-1.34-.165-1.92-.495-.57-.33-1.035-.765-1.395-1.305s-.64-1.145-.84-1.815c-.19-.67-.285-1.365-.285-2.085zm10.949 3.885c0 .79.31 1.185.93 1.185.24 0 .455-.055.645-.165.2-.12.37-.29.51-.51.15-.23.26-.425.33-.585.08-.17.165-.38.255-.63v-1.425l-1.305.285c-.48.1-.83.3-1.05.6-.21.29-.315.705-.315 1.245zm-1.26-.045c0-.31.06-.585.18-.825.12-.25.255-.445.405-.585.16-.14.375-.265.645-.375s.485-.185.645-.225c.17-.04.395-.085.675-.135l1.38-.255v-1.275c0-.93-.465-1.395-1.395-1.395-.34 0-.65.09-.93.27-.28.17-.42.365-.42.585 0 .1.015.175.045.225.04.08.115.13.225.15.37.1.555.295.555.585 0 .39-.22.585-.66.585-.22 0-.42-.085-.6-.255s-.27-.415-.27-.735c0-.55.215-.98.645-1.29.43-.32.915-.48 1.455-.48.66 0 1.23.175 1.71.525.48.34.72.875.72 1.605v3.69c0 .5.155.75.465.75.47 0 .705-.5.705-1.5h.27c0 1.42-.4 2.13-1.2 2.13-.85 0-1.29-.48-1.32-1.44l-.075-.03c-.15.35-.395.685-.735 1.005-.33.31-.72.465-1.17.465-.53 0-.99-.13-1.38-.39-.38-.26-.57-.72-.57-1.38zm7.32 1.59v-.36h.39c.14 0 .265-.025.375-.075.11-.06.205-.13.285-.21.09-.08.16-.15.21-.21.05-.07.125-.18.225-.33l1.365-2.04-1.83-2.925c-.05-.07-.09-.13-.12-.18-.02-.05-.065-.085-.135-.105-.06-.03-.145-.045-.255-.045h-.45v-.36h2.97v.36h-.36c-.2 0-.3.1-.3.3 0 .11.03.215.09.315l1.035 1.68.99-1.47c.09-.13.135-.29.135-.48 0-.11-.04-.195-.12-.255-.07-.06-.15-.09-.24-.09h-.36v-.36h2.61v.36h-.375c-.4 0-.745.22-1.035.66l-1.365 2.01 1.905 3.06c.06.1.11.175.15.225.04.04.11.08.21.12.1.03.225.045.375.045h.345v.36h-3.12v-.36h.45c.23 0 .345-.085.345-.255 0-.09-.035-.195-.105-.315l-1.2-1.92-1.02 1.515c-.15.24-.225.415-.225.525 0 .3.125.45.375.45h.27v.36zm9.233-1.545c0 .79.31 1.185.93 1.185.24 0 .455-.055.645-.165.2-.12.37-.29.51-.51.15-.23.26-.425.33-.585.08-.17.165-.38.255-.63v-1.425l-1.305.285c-.48.1-.83.3-1.05.6-.21.29-.315.705-.315 1.245zm-1.26-.045c0-.31.06-.585.18-.825.12-.25.255-.445.405-.585.16-.14.375-.265.645-.375s.485-.185.645-.225c.17-.04.395-.085.675-.135l1.38-.255v-1.275c0-.93-.465-1.395-1.395-1.395-.34 0-.65.09-.93.27-.28.17-.42.365-.42.585 0 .1.015.175.045.225.04.08.115.13.225.15.37.1.555.295.555.585 0 .39-.22.585-.66.585-.22 0-.42-.085-.6-.255s-.27-.415-.27-.735c0-.55.215-.98.645-1.29.43-.32.915-.48 1.455-.48.66 0 1.23.175 1.71.525.48.34.72.875.72 1.605v3.69c0 .5.155.75.465.75.47 0 .705-.5.705-1.5h.27c0 1.42-.4 2.13-1.2 2.13-.85 0-1.29-.48-1.32-1.44l-.075-.03c-.15.35-.395.685-.735 1.005-.33.31-.72.465-1.17.465-.53 0-.99-.13-1.38-.39-.38-.26-.57-.72-.57-1.38zm6.99.585c0-.29.07-.525.21-.705.15-.18.36-.27.63-.27.21 0 .37.07.48.21.12.13.18.29.18.48 0 .28-.105.47-.315.57-.12.05-.18.155-.18.315 0 .06.025.115.075.165.06.04.12.06.18.06.4 0 .705-.205.915-.615s.36-1.09.45-2.04l.135-1.605c.06-.74.09-1.28.09-1.62 0-.15-.025-.255-.075-.315-.05-.07-.165-.105-.345-.105h-.57v-.36h4.95v.36h-.63c-.22 0-.33.11-.33.33v5.46c0 .22.11.33.33.33h.615v.36h-3v-.36h.645c.22 0 .33-.11.33-.33v-5.46c0-.22-.11-.33-.33-.33h-.495c-.24 0-.415.09-.525.27-.1.17-.165.44-.195.81l-.225 2.685c-.15 1.93-.725 2.895-1.725 2.895-.45 0-.775-.13-.975-.39s-.3-.525-.3-.795zm7.948 1.005v-.36h.63c.22 0 .33-.11.33-.33v-5.46c0-.22-.11-.33-.33-.33h-.63v-.36h3v.36h-.63c-.22 0-.33.11-.33.33v4.41l2.85-4.02v-.39c0-.22-.11-.33-.33-.33h-.63v-.36h3v.36h-.63c-.22 0-.33.11-.33.33v5.46c0 .22.11.33.33.33h.63v.36h-3v-.36h.63c.22 0 .33-.11.33-.33v-4.41l-2.85 4.02v.39c0 .22.11.33.33.33h.63v.36zm8.072 0v-.36h.63c.22 0 .33-.11.33-.33v-5.46c0-.22-.11-.33-.33-.33h-.63v-.36h3v.36h-.63c-.22 0-.33.11-.33.33v2.37h3v-2.37c0-.22-.11-.33-.33-.33h-.63v-.36h3v.36h-.63c-.22 0-.33.11-.33.33v5.46c0 .22.11.33.33.33h.63v.36h-3v-.36h.63c.22 0 .33-.11.33-.33v-2.67h-3v2.67c0 .22.11.33.33.33h.63v.36zm13.227-3.42c0 .65-.18 1.24-.54 1.77-.35.53-.75.94-1.2 1.23l-.225-.225c.75-.67 1.125-1.595 1.125-2.775s-.375-2.105-1.125-2.775l.225-.225c.45.29.85.7 1.2 1.23.36.53.54 1.12.54 1.77zm-2.355 0c0 .61-.14 1.155-.42 1.635-.27.47-.565.835-.885 1.095l-.21-.21c.53-.67.795-1.51.795-2.52s-.265-1.85-.795-2.52l.21-.21c.32.26.615.63.885 1.11.28.47.42 1.01.42 1.62z"/></g></svg>