<svg width="35" height="35" viewBox="0 0 35 35" fill="none" xmlns="http://www.w3.org/2000/svg">
<path d="M17.5 11.0645C16.371 11.0645 15.4113 11.4597 14.621 12.25C13.8306 13.0403 13.4355 14 13.4355 15.129C13.4355 16.2581 13.8306 17.2177 14.621 18.0081C15.4113 18.7984 16.371 19.1935 17.5 19.1935C18.629 19.1935 19.5887 18.7984 20.379 18.0081C21.1694 17.2177 21.5645 16.2581 21.5645 15.129C21.5645 14 21.1694 13.0403 20.379 12.25C19.5887 11.4597 18.629 11.0645 17.5 11.0645ZM17.5 17.1613C16.9355 17.1613 16.4556 16.9637 16.0605 16.5685C15.6653 16.1734 15.4677 15.6935 15.4677 15.129C15.4677 14.5645 15.6653 14.0847 16.0605 13.6895C16.4556 13.2944 16.9355 13.0968 17.5 13.0968C18.0645 13.0968 18.5444 13.2944 18.9395 13.6895C19.3347 14.0847 19.5323 14.5645 19.5323 15.129C19.5323 15.6935 19.3347 16.1734 18.9395 16.5685C18.5444 16.9637 18.0645 17.1613 17.5 17.1613ZM17.5 7C15.6089 7 13.8589 7.47984 12.25 8.43952C10.6411 9.37097 9.35685 10.6411 8.39718 12.25C7.46573 13.8589 7 15.6089 7 17.5C7 19.3911 7.46573 21.1411 8.39718 22.75C9.35685 24.3589 10.6411 25.629 12.25 26.5605C13.8589 27.5202 15.6089 28 17.5 28C19.3911 28 21.1411 27.5202 22.75 26.5605C24.3589 25.629 25.629 24.3589 26.5605 22.75C27.5202 21.1411 28 19.3911 28 17.5C28 15.6089 27.5202 13.8589 26.5605 12.25C25.629 10.6411 24.3589 9.37097 22.75 8.43952C21.1411 7.47984 19.3911 7 17.5 7ZM17.5 25.9677C16.4556 25.9677 15.4677 25.7984 14.5363 25.4597C13.6048 25.0927 12.7581 24.5847 11.996 23.9355C12.3065 23.4274 12.7157 23.0323 13.2238 22.75C13.7601 22.4395 14.3387 22.2702 14.9597 22.2419C15.8347 22.5242 16.6815 22.6653 17.5 22.6653C18.3468 22.6653 19.2077 22.5242 20.0827 22.2419C20.6754 22.2702 21.2258 22.4395 21.7339 22.75C22.2702 23.0323 22.6935 23.4274 23.004 23.9355C22.2419 24.5847 21.3952 25.0927 20.4637 25.4597C19.5323 25.7984 18.5444 25.9677 17.5 25.9677ZM24.4012 22.4113C23.8649 21.7339 23.2016 21.1976 22.4113 20.8024C21.6492 20.4073 20.8306 20.2097 19.9556 20.2097C19.8427 20.2097 19.6452 20.252 19.3629 20.3367C18.6855 20.5343 18.0645 20.6331 17.5 20.6331C16.9355 20.6331 16.3145 20.5343 15.6371 20.3367C15.3548 20.252 15.1573 20.2097 15.0444 20.2097C14.1694 20.2097 13.3367 20.4073 12.5464 20.8024C11.7843 21.1976 11.1351 21.7339 10.5988 22.4113C9.55444 20.9435 9.03226 19.3065 9.03226 17.5C9.03226 15.9758 9.41331 14.5645 10.1754 13.2661C10.9375 11.9677 11.9677 10.9375 13.2661 10.1754C14.5645 9.41331 15.9758 9.03226 17.5 9.03226C19.0242 9.03226 20.4355 9.41331 21.7339 10.1754C23.0323 10.9375 24.0625 11.9677 24.8246 13.2661C25.5867 14.5645 25.9677 15.9758 25.9677 17.5C25.9677 19.3065 25.4456 20.9435 24.4012 22.4113Z" fill="#C3C3C3"/>
</svg>
