<svg width="116" height="85" viewBox="0 0 116 85" fill="none" xmlns="http://www.w3.org/2000/svg">
<line x1="79" y1="53.5" x2="116" y2="53.5" stroke="#515257"/>
<line x1="79" y1="65.5" x2="116" y2="65.5" stroke="#515257"/>
<path d="M97 77.5L116 77.5" stroke="#515257"/>
<line x1="79" y1="41.5" x2="116" y2="41.5" stroke="#515257"/>
<line x1="79" y1="17.5" x2="116" y2="17.5" stroke="#515257"/>
<line x1="79" y1="29.5" x2="116" y2="29.5" stroke="#515257"/>
<line x1="79" y1="5.5" x2="116" y2="5.5" stroke="#515257"/>
<rect x="79.5" y="72.5" width="11" height="11" rx="5.5" fill="#F2F2F2" stroke="#515257"/>
<path d="M82.5 77.4997L84.9999 80.0002L87.5 76.5" stroke="#515257"/>
<path d="M30.5 9.5H4.5V80.5H30.5V9.5Z" stroke="#515257"/>
<rect x="-0.5" y="0.5" width="69" height="79" transform="matrix(-1 0 0 1 69 5)" stroke="#515257"/>
<path d="M65.5 9.5H38.5V80.5H65.5V9.5Z" stroke="#515257"/>
<path d="M34.5 5.5V84" stroke="#515257"/>
<path d="M36.5 39V48.5" stroke="#515257"/>
</svg>
