<svg width="14" height="14" viewBox="0 0 14 14" fill="none" xmlns="http://www.w3.org/2000/svg">
<path d="M6.78125 2.625C6.05208 2.625 5.43229 2.88021 4.92188 3.39062C4.41146 3.90104 4.15625 4.52083 4.15625 5.25C4.15625 5.97917 4.41146 6.59896 4.92188 7.10938C5.43229 7.61979 6.05208 7.875 6.78125 7.875C7.51042 7.875 8.13021 7.61979 8.64062 7.10938C9.15104 6.59896 9.40625 5.97917 9.40625 5.25C9.40625 4.52083 9.15104 3.90104 8.64062 3.39062C8.13021 2.88021 7.51042 2.625 6.78125 2.625ZM6.78125 6.5625C6.41667 6.5625 6.10677 6.4349 5.85156 6.17969C5.59635 5.92448 5.46875 5.61458 5.46875 5.25C5.46875 4.88542 5.59635 4.57552 5.85156 4.32031C6.10677 4.0651 6.41667 3.9375 6.78125 3.9375C7.14583 3.9375 7.45573 4.0651 7.71094 4.32031C7.96615 4.57552 8.09375 4.88542 8.09375 5.25C8.09375 5.61458 7.96615 5.92448 7.71094 6.17969C7.45573 6.4349 7.14583 6.5625 6.78125 6.5625ZM6.78125 0C5.5599 0 4.42969 0.309896 3.39062 0.929688C2.35156 1.53125 1.52214 2.35156 0.902344 3.39062C0.300781 4.42969 0 5.5599 0 6.78125C0 8.0026 0.300781 9.13281 0.902344 10.1719C1.52214 11.2109 2.35156 12.0312 3.39062 12.6328C4.42969 13.2526 5.5599 13.5625 6.78125 13.5625C8.0026 13.5625 9.13281 13.2526 10.1719 12.6328C11.2109 12.0312 12.0312 11.2109 12.6328 10.1719C13.2526 9.13281 13.5625 8.0026 13.5625 6.78125C13.5625 5.5599 13.2526 4.42969 12.6328 3.39062C12.0312 2.35156 11.2109 1.53125 10.1719 0.929688C9.13281 0.309896 8.0026 0 6.78125 0ZM6.78125 12.25C6.10677 12.25 5.46875 12.1406 4.86719 11.9219C4.26562 11.6849 3.71875 11.3568 3.22656 10.9375C3.42708 10.6094 3.69141 10.3542 4.01953 10.1719C4.36589 9.97135 4.73958 9.86198 5.14062 9.84375C5.70573 10.026 6.2526 10.1172 6.78125 10.1172C7.32812 10.1172 7.88411 10.026 8.44922 9.84375C8.83203 9.86198 9.1875 9.97135 9.51562 10.1719C9.86198 10.3542 10.1354 10.6094 10.3359 10.9375C9.84375 11.3568 9.29688 11.6849 8.69531 11.9219C8.09375 12.1406 7.45573 12.25 6.78125 12.25ZM11.2383 9.95312C10.8919 9.51562 10.4635 9.16927 9.95312 8.91406C9.46094 8.65885 8.93229 8.53125 8.36719 8.53125C8.29427 8.53125 8.16667 8.55859 7.98438 8.61328C7.54688 8.74089 7.14583 8.80469 6.78125 8.80469C6.41667 8.80469 6.01562 8.74089 5.57812 8.61328C5.39583 8.55859 5.26823 8.53125 5.19531 8.53125C4.63021 8.53125 4.09245 8.65885 3.58203 8.91406C3.08984 9.16927 2.67057 9.51562 2.32422 9.95312C1.64974 9.00521 1.3125 7.94792 1.3125 6.78125C1.3125 5.79688 1.55859 4.88542 2.05078 4.04688C2.54297 3.20833 3.20833 2.54297 4.04688 2.05078C4.88542 1.55859 5.79688 1.3125 6.78125 1.3125C7.76562 1.3125 8.67708 1.55859 9.51562 2.05078C10.3542 2.54297 11.0195 3.20833 11.5117 4.04688C12.0039 4.88542 12.25 5.79688 12.25 6.78125C12.25 7.94792 11.9128 9.00521 11.2383 9.95312Z" fill="#515257"/>
</svg>
