<svg width="118" height="135" viewBox="0 0 118 135" fill="none" xmlns="http://www.w3.org/2000/svg">
<rect x="-1" y="1" width="58" height="133" transform="matrix(-1 0 0 1 58 0)" stroke="#515257" stroke-width="2"/>
<rect x="-1" y="1" width="44" height="119" transform="matrix(-1 0 0 1 51 7)" stroke="#515257" stroke-width="2"/>
<path d="M8 8L51 66.9541L8 127" stroke="#30C2FF"/>
<path d="M7.99999 127L29.7982 8L52 127" stroke="#30C2FF"/>
<rect x="-1" y="1" width="58" height="133" transform="matrix(-1 0 0 1 116 0)" stroke="#515257" stroke-width="2"/>
<rect x="-1" y="1" width="44" height="119" transform="matrix(-1 0 0 1 109 7)" stroke="#515257" stroke-width="2"/>
<line x1="82.0105" y1="73.0312" x2="94.0313" y2="61.0104" stroke="#30C2FF"/>
<line x1="82.0103" y1="61.0107" x2="94.0311" y2="73.0315" stroke="#30C2FF"/>
</svg>
