<svg width="27" height="38" viewBox="0 0 27 38" fill="none" xmlns="http://www.w3.org/2000/svg">
<path d="M26.5 0.5H0.5V14.5H26.5V0.5Z" stroke="#C3C3C3"/>
<path d="M23.5 3.5H3.5V12.5H23.5V3.5Z" stroke="#C3C3C3"/>
<rect x="3" y="23" width="1" height="9" transform="rotate(-90 3 23)" fill="#C3C3C3"/>
<rect x="3" y="26" width="0.999999" height="7" transform="rotate(-90 3 26)" fill="#C3C3C3"/>
<rect x="17" y="26" width="1" height="9" transform="rotate(-90 17 26)" fill="#C3C3C3"/>
<rect x="15" y="23" width="1" height="9" transform="rotate(-90 15 23)" fill="#C3C3C3"/>
<mask id="path-7-outside-1" maskUnits="userSpaceOnUse" x="0" y="12" width="27" height="26" fill="black">
<rect fill="white" y="12" width="27" height="26"/>
<path fill-rule="evenodd" clip-rule="evenodd" d="M1 15V35.1538V37H3H24H26V35.1538V15V13H24H3H1V15ZM24 35.1538V15L3 15V35.1538L24 35.1538Z"/>
</mask>
<path fill-rule="evenodd" clip-rule="evenodd" d="M1 15V35.1538V37H3H24H26V35.1538V15V13H24H3H1V15ZM24 35.1538V15L3 15V35.1538L24 35.1538Z" fill="#30C2FF"/>
<path d="M1 37H0V38H1V37ZM26 37V38H27V37H26ZM26 13H27V12H26V13ZM1 13V12H0V13H1ZM24 35.1538V36.1538H25V35.1538H24ZM24 15H25V14H24V15ZM3 15V14L2 14V15H3ZM3 35.1538H2V36.1538H3L3 35.1538ZM2 35.1538V15H0V35.1538H2ZM2 37V35.1538H0V37H2ZM3 36H1V38H3V36ZM24 36H3V38H24V36ZM26 36H24V38H26V36ZM25 35.1538V37H27V35.1538H25ZM25 15V35.1538H27V15H25ZM25 13V15H27V13H25ZM24 14H26V12H24V14ZM3 14H24V12H3V14ZM1 14H3V12H1V14ZM2 15V13H0V15H2ZM25 35.1538V15H23V35.1538H25ZM24 14L3 14V16L24 16V14ZM2 15V35.1538H4V15H2ZM3 36.1538L24 36.1538V34.1538L3 34.1538L3 36.1538Z" fill="#515257" mask="url(#path-7-outside-1)"/>
<rect x="14" y="19" width="8" height="1" transform="rotate(90 14 19)" fill="#515257"/>
<path d="M13.5 29L11 25L16 25L13.5 29Z" fill="#515257"/>
</svg>
