<svg width="35" height="8" viewBox="0 0 35 8" fill="none" xmlns="http://www.w3.org/2000/svg">
<path d="M2.34099 3.89001H3.918V2.68896H2.34099V2.40399C2.34099 1.94599 2.574 1.72198 3.043 1.72198C3.338 1.72198 3.623 1.78296 3.918 1.89496V0.734985C3.551 0.592985 3.124 0.520996 2.625 0.520996C1.496 0.520996 0.905991 1.20296 0.905991 2.20996V2.68896H0V3.89001H0.905991V7.76697H2.34099V3.89001ZM6.27899 7.76697V4.80597C6.48199 4.34797 7.07199 3.91998 7.76399 3.91998C7.93699 3.91998 8.08999 3.94001 8.21199 3.97101V2.56702C8.17199 2.55702 8.121 2.55701 8.049 2.55701C7.673 2.55701 7.317 2.65799 6.991 2.85199C6.665 3.04499 6.43099 3.27901 6.27899 3.54401V2.68896H4.84399V7.76697H6.27899V7.76697ZM17.147 7.76697V4.54102C17.351 4.16402 17.798 3.86902 18.216 3.86902C18.775 3.86902 19.06 4.21499 19.06 4.91699V7.76697H20.495V4.56097C20.688 4.16397 21.116 3.86902 21.553 3.86902C22.113 3.86902 22.398 4.21499 22.398 4.91699V7.76697H23.833V4.59198C23.833 3.25898 23.11 2.55701 22.021 2.55701C21.289 2.55701 20.607 2.923 20.271 3.422C20.058 2.943 19.457 2.55701 18.694 2.55701C18.043 2.55701 17.524 2.811 17.147 3.31V2.68896H15.712V7.76697H17.147V7.76697ZM27.619 7.89899C28.453 7.89899 29.094 7.726 29.552 7.38V6.22998C29.033 6.52498 28.494 6.67798 27.924 6.67798C27.028 6.67798 26.377 6.312 26.224 5.62H29.868V5.24298C29.868 4.48998 29.644 3.85897 29.206 3.33997C28.769 2.82097 28.189 2.55701 27.446 2.55701C26.662 2.55701 26.021 2.81102 25.532 3.33002C25.044 3.83902 24.8 4.46996 24.8 5.22296C24.8 6.02696 25.075 6.67802 25.614 7.16602C26.153 7.65502 26.825 7.89899 27.619 7.89899V7.89899ZM26.224 4.70398C26.296 4.10298 26.733 3.68597 27.384 3.68597C28.026 3.68597 28.423 4.14398 28.453 4.70398H26.224V4.70398ZM32.402 7.76697V4.80597C32.605 4.34797 33.195 3.91998 33.887 3.91998C34.06 3.91998 34.213 3.94001 34.335 3.97101V2.56702C34.294 2.55702 34.244 2.55701 34.172 2.55701C33.796 2.55701 33.44 2.65799 33.114 2.85199C32.788 3.04499 32.554 3.27901 32.402 3.54401V2.68896H30.967V7.76697H32.402ZM11.204 7.89899C11.937 7.89899 12.496 7.645 12.873 7.146V7.76697H14.308V2.68896H12.873V3.31C12.476 2.811 11.927 2.55701 11.204 2.55701C10.512 2.55701 9.94199 2.81102 9.48399 3.33002C9.03699 3.83902 8.81299 4.46996 8.81299 5.22296C8.81299 5.98596 9.03699 6.61699 9.48399 7.13599C9.94199 7.64499 10.512 7.89899 11.204 7.89899ZM11.611 6.64801C11.214 6.64801 10.878 6.51499 10.624 6.23999C10.37 5.96599 10.237 5.62996 10.237 5.22296C10.237 4.82596 10.37 4.48997 10.624 4.21497C10.878 3.93997 11.214 3.80798 11.611 3.80798C12.171 3.80798 12.639 4.12397 12.873 4.56097V5.88397C12.639 6.32197 12.171 6.64801 11.611 6.64801V6.64801Z" fill="#2B2A29"/>
</svg>
