<svg width="183" height="131" viewBox="0 0 183 131" fill="none" xmlns="http://www.w3.org/2000/svg">
<path d="M182 34.4055L149.577 1H33.423L1 34.4055V130H182V34.4055Z" stroke="#515257" stroke-width="2"/>
<path d="M117 8H66V123H117V8Z" stroke="#515257" stroke-width="2"/>
<path d="M8 123V37.4043L36.4242 8H59V123H8Z" stroke="#515257" stroke-width="2"/>
<path d="M117 8L66 64.9725L117 123" stroke="#30C2FF"/>
<line y1="-0.5" x2="17" y2="-0.5" transform="matrix(-0.707107 -0.707107 -0.707107 0.707107 39.6777 72.3848)" stroke="#30C2FF"/>
<line y1="-0.5" x2="17" y2="-0.5" transform="matrix(-0.707107 0.707107 0.707107 0.707107 40.3848 60.3633)" stroke="#30C2FF"/>
<path d="M175 123V37.4043L146.576 8H124V123H175Z" stroke="#515257" stroke-width="2"/>
<line x1="142.969" y1="72.0312" x2="154.99" y2="60.0104" stroke="#30C2FF"/>
<line x1="142.969" y1="60.0097" x2="154.99" y2="72.0305" stroke="#30C2FF"/>
</svg>
