<svg width="26" height="23" viewBox="0 0 26 23" fill="none" xmlns="http://www.w3.org/2000/svg">
<path fill-rule="evenodd" clip-rule="evenodd" d="M25.9905 22.5L13.0001 0L0.00976562 22.5H25.9905ZM12.2175 16.9668H13.732L13.9059 8.92603H12.0509L12.2175 16.9668ZM12.2683 18.6893C12.0895 18.8824 12.0001 19.1278 12.0001 19.4253C12.0001 19.7124 12.0871 19.9525 12.261 20.1456C12.4349 20.3387 12.6813 20.4353 13.0001 20.4353C13.319 20.4353 13.5654 20.3387 13.7393 20.1456C13.9132 19.9525 14.0001 19.7124 14.0001 19.4253C14.0001 19.1278 13.9108 18.8824 13.732 18.6893C13.5533 18.491 13.3093 18.3918 13.0001 18.3918C12.691 18.3918 12.447 18.491 12.2683 18.6893Z" fill="white"/>
</svg>
