<svg width="16" height="16" viewBox="0 0 16 16" fill="none" xmlns="http://www.w3.org/2000/svg">
<path d="M15.7939 12.5793L9.23092 1.69516C8.97236 1.26638 8.5007 1 7.99998 1C7.49926 1 7.02761 1.26638 6.76901 1.69519L0.206108 12.5793C-0.0611112 13.0225 -0.0690175 13.5777 0.185451 14.0283C0.439983 14.479 0.919545 14.7589 1.43705 14.7589H14.5629C15.0804 14.7589 15.56 14.479 15.8145 14.0283C16.069 13.5777 16.0611 13.0224 15.7939 12.5793ZM14.9075 13.5161C14.8374 13.6401 14.7054 13.7172 14.5629 13.7172H1.43705C1.29458 13.7172 1.16255 13.6402 1.09251 13.5161C1.02245 13.3921 1.02464 13.2392 1.09817 13.1172L7.66114 2.23309C7.73233 2.11506 7.86217 2.04172 8.00001 2.04172C8.13783 2.04172 8.26767 2.11506 8.33886 2.23309L14.9018 13.1172C14.9754 13.2392 14.9775 13.3921 14.9075 13.5161Z" fill="#fff"/>
<path d="M8.00433 5.28564C7.60808 5.28564 7.29883 5.49827 7.29883 5.87521C7.29883 7.02527 7.43411 8.67789 7.43411 9.82799C7.43414 10.1276 7.69511 10.2532 8.00436 10.2532C8.2363 10.2532 8.56489 10.1276 8.56489 9.82799C8.56489 8.67792 8.70017 7.0253 8.70017 5.87521C8.70017 5.4983 8.38127 5.28564 8.00433 5.28564Z" fill="#fff"/>
<path d="M8.0147 10.9204C7.58948 10.9204 7.27051 11.2587 7.27051 11.6646C7.27051 12.0608 7.58945 12.4088 8.0147 12.4088C8.41095 12.4088 8.74923 12.0608 8.74923 11.6646C8.74923 11.2587 8.41091 10.9204 8.0147 10.9204Z" fill="#fff"/>
</svg>
