<svg width="418" height="135" viewBox="0 0 418 135" fill="none" xmlns="http://www.w3.org/2000/svg">
<rect x="-1" y="1" width="72" height="133" transform="matrix(-1 0 0 1 208 0)" stroke="#515257" stroke-width="2"/>
<rect x="-1" y="1" width="58" height="119" transform="matrix(-1 0 0 1 201 7)" stroke="#515257" stroke-width="2"/>
<line y1="-0.5" x2="17" y2="-0.5" transform="matrix(-0.707107 -0.707107 -0.707107 0.707107 178.636 73.3848)" stroke="#30C2FF"/>
<line y1="-0.5" x2="17" y2="-0.5" transform="matrix(-0.707107 0.707107 0.707107 0.707107 179.343 61.3633)" stroke="#30C2FF"/>
<rect x="-1" y="1" width="78" height="133" transform="matrix(-1 0 0 1 78 0)" stroke="#515257" stroke-width="2"/>
<rect x="-1" y="1" width="64" height="119" transform="matrix(-1 0 0 1 71 7)" stroke="#515257" stroke-width="2"/>
<line y1="-0.5" x2="17" y2="-0.5" transform="matrix(-0.707107 -0.707107 -0.707107 0.707107 43.6362 73.3848)" stroke="#30C2FF"/>
<line y1="-0.5" x2="17" y2="-0.5" transform="matrix(-0.707107 0.707107 0.707107 0.707107 44.3433 61.3633)" stroke="#30C2FF"/>
<rect x="-1" y="1" width="58" height="133" transform="matrix(-1 0 0 1 136 0)" stroke="#515257" stroke-width="2"/>
<rect x="-1" y="1" width="44" height="119" transform="matrix(-1 0 0 1 129 7)" stroke="#515257" stroke-width="2"/>
<path d="M86 8L129 66.9541L86 127" stroke="#30C2FF"/>
<rect x="339" y="1" width="78" height="133" stroke="#515257" stroke-width="2"/>
<rect x="346" y="8" width="64" height="119" stroke="#515257" stroke-width="2"/>
<line x1="374.01" y1="73.0312" x2="386.031" y2="61.0104" stroke="#30C2FF"/>
<line x1="374.01" y1="61.0097" x2="386.031" y2="73.0305" stroke="#30C2FF"/>
<rect x="281" y="1" width="58" height="133" stroke="#515257" stroke-width="2"/>
<rect x="288" y="8" width="44" height="119" stroke="#515257" stroke-width="2"/>
<path d="M332 8L289 66.9541L332 127" stroke="#30C2FF"/>
<rect x="209" y="1" width="72" height="133" stroke="#515257" stroke-width="2"/>
<rect x="216" y="8" width="58" height="119" stroke="#515257" stroke-width="2"/>
<line x1="239.01" y1="73.0312" x2="251.031" y2="61.0104" stroke="#30C2FF"/>
<line x1="239.01" y1="61.0097" x2="251.031" y2="73.0305" stroke="#30C2FF"/>
</svg>
