<svg width="16" height="14" viewBox="0 0 16 14" fill="none" xmlns="http://www.w3.org/2000/svg">
<path d="M15.7939 11.5793L9.23092 0.695156C8.97236 0.266375 8.5007 0 7.99998 0C7.49926 0 7.02761 0.266375 6.76901 0.695188L0.206108 11.5793C-0.0611112 12.0225 -0.0690175 12.5777 0.185451 13.0283C0.439983 13.479 0.919545 13.7589 1.43705 13.7589H14.5629C15.0804 13.7589 15.56 13.479 15.8145 13.0283C16.069 12.5777 16.0611 12.0224 15.7939 11.5793ZM14.9075 12.5161C14.8374 12.6401 14.7054 12.7172 14.5629 12.7172H1.43705C1.29458 12.7172 1.16255 12.6402 1.09251 12.5161C1.02245 12.3921 1.02464 12.2392 1.09817 12.1172L7.66114 1.23309C7.73233 1.11506 7.86217 1.04172 8.00001 1.04172C8.13783 1.04172 8.26767 1.11506 8.33886 1.23309L14.9018 12.1172C14.9754 12.2392 14.9775 12.3921 14.9075 12.5161Z" fill="white"/>
<path d="M8.00482 4.28516C7.60857 4.28516 7.29932 4.49778 7.29932 4.87472C7.29932 6.02478 7.4346 7.6774 7.4346 8.8275C7.43463 9.12709 7.6956 9.25272 8.00485 9.25272C8.23679 9.25272 8.56538 9.12709 8.56538 8.8275C8.56538 7.67744 8.70066 6.02481 8.70066 4.87472C8.70066 4.49781 8.38175 4.28516 8.00482 4.28516Z" fill="white"/>
<path d="M8.0147 9.91992C7.58948 9.91992 7.27051 10.2582 7.27051 10.6641C7.27051 11.0604 7.58945 11.4083 8.0147 11.4083C8.41095 11.4083 8.74923 11.0604 8.74923 10.6641C8.74923 10.2582 8.41091 9.91992 8.0147 9.91992Z" fill="white"/>
</svg>
