<svg width="32" height="52" viewBox="0 0 32 52" fill="none" xmlns="http://www.w3.org/2000/svg">
<path d="M32 52H1.37891V50.1016L18.8516 29.957C21.7109 26.6055 23.832 23.6289 25.2148 21.0273C26.6211 18.4258 27.3242 16.0352 27.3242 13.8555C27.3242 10.1055 26.2344 7.19922 24.0547 5.13672C21.875 3.05078 18.8047 2.00781 14.8438 2.00781C12.4531 2.00781 10.2734 2.58203 8.30469 3.73047C6.33594 4.87891 4.78906 6.47266 3.66406 8.51172C2.5625 10.5273 2.01172 12.7773 2.01172 15.2617H0.113281C0.113281 12.5195 0.746094 9.97656 2.01172 7.63281C3.27734 5.28906 5.03516 3.44922 7.28516 2.11328C9.53516 0.777344 12.0547 0.109375 14.8438 0.109375C19.3906 0.109375 22.9297 1.31641 25.4609 3.73047C27.9922 6.14453 29.2578 9.51953 29.2578 13.8555C29.2578 17.8398 27.0195 22.6094 22.543 28.1641L19.3438 32.0664L3.875 50.1016H32V52Z" fill="#515257"/>
</svg>
