<svg width="14" height="15" viewBox="0 0 14 15" fill="none" xmlns="http://www.w3.org/2000/svg">
<path d="M6.78125 0.96875C5.5599 0.96875 4.42969 1.27865 3.39062 1.89844C2.35156 2.5 1.52214 3.32031 0.902344 4.35938C0.300781 5.39844 0 6.52865 0 7.75C0 8.97135 0.300781 10.1016 0.902344 11.1406C1.52214 12.1797 2.35156 13 3.39062 13.6016C4.42969 14.2214 5.5599 14.5312 6.78125 14.5312C8.0026 14.5312 9.13281 14.2214 10.1719 13.6016C11.2109 13 12.0312 12.1797 12.6328 11.1406C13.2526 10.1016 13.5625 8.97135 13.5625 7.75C13.5625 6.52865 13.2526 5.39844 12.6328 4.35938C12.0312 3.32031 11.2109 2.5 10.1719 1.89844C9.13281 1.27865 8.0026 0.96875 6.78125 0.96875ZM6.78125 3.59375C7.4375 3.59375 8.0026 3.83073 8.47656 4.30469C8.95052 4.77865 9.1875 5.34375 9.1875 6C9.1875 6.65625 8.95052 7.22135 8.47656 7.69531C8.0026 8.16927 7.4375 8.40625 6.78125 8.40625C6.125 8.40625 5.5599 8.16927 5.08594 7.69531C4.61198 7.22135 4.375 6.65625 4.375 6C4.375 5.34375 4.61198 4.77865 5.08594 4.30469C5.5599 3.83073 6.125 3.59375 6.78125 3.59375ZM6.78125 13C5.9974 13 5.25 12.8359 4.53906 12.5078C3.84635 12.1797 3.25391 11.724 2.76172 11.1406C3.03516 10.6484 3.40885 10.2565 3.88281 9.96484C4.35677 9.65495 4.88542 9.5 5.46875 9.5C5.52344 9.5 5.58724 9.50911 5.66016 9.52734C6.04297 9.65495 6.41667 9.71875 6.78125 9.71875C7.14583 9.71875 7.51953 9.65495 7.90234 9.52734C7.97526 9.50911 8.03906 9.5 8.09375 9.5C8.67708 9.5 9.20573 9.65495 9.67969 9.96484C10.1536 10.2565 10.5273 10.6484 10.8008 11.1406C10.3086 11.724 9.70703 12.1797 8.99609 12.5078C8.30339 12.8359 7.5651 13 6.78125 13Z" fill="#515257" fill-opacity="0.35"/>
</svg>
