<svg width="16" height="11" viewBox="0 0 16 11" fill="none" xmlns="http://www.w3.org/2000/svg">
<path d="M0.191406 5.09375C0.97526 3.76302 2.04167 2.70573 3.39062 1.92188C4.75781 1.11979 6.2526 0.71875 7.875 0.71875C9.4974 0.71875 10.9922 1.11979 12.3594 1.92188C13.7083 2.70573 14.7747 3.76302 15.5586 5.09375C15.6862 5.29427 15.75 5.51302 15.75 5.75C15.75 5.98698 15.6862 6.20573 15.5586 6.40625C14.7747 7.73698 13.7083 8.79427 12.3594 9.57812C10.9922 10.3802 9.4974 10.7812 7.875 10.7812C6.2526 10.7812 4.75781 10.3802 3.39062 9.57812C2.04167 8.79427 0.97526 7.73698 0.191406 6.40625C0.0638021 6.20573 0 5.98698 0 5.75C0 5.51302 0.0638021 5.29427 0.191406 5.09375ZM7.875 9.46875C9.26042 9.46875 10.5365 9.13151 11.7031 8.45703C12.8516 7.78255 13.763 6.88021 14.4375 5.75C13.8177 4.71094 12.9883 3.86328 11.9492 3.20703C10.9102 2.55078 9.77083 2.16797 8.53125 2.05859C8.23958 2.35026 8.09375 2.70573 8.09375 3.125C8.09375 3.54427 8.2487 3.90885 8.55859 4.21875C8.85026 4.51042 9.20573 4.65625 9.625 4.65625C10.0443 4.65625 10.4089 4.51042 10.7188 4.21875C11.0104 3.90885 11.1562 3.54427 11.1562 3.125C11.4479 3.67188 11.5938 4.25521 11.5938 4.875C11.5938 5.54948 11.4297 6.16927 11.1016 6.73438C10.7552 7.29948 10.2995 7.75521 9.73438 8.10156C9.16927 8.42969 8.54948 8.59375 7.875 8.59375C7.20052 8.59375 6.58073 8.42969 6.01562 8.10156C5.45052 7.75521 5.00391 7.29948 4.67578 6.73438C4.32943 6.16927 4.15625 5.54948 4.15625 4.875C4.15625 4.03646 4.41146 3.27995 4.92188 2.60547C4.15625 2.93359 3.47266 3.37109 2.87109 3.91797C2.2513 4.44661 1.73177 5.05729 1.3125 5.75C1.98698 6.88021 2.90755 7.78255 4.07422 8.45703C5.22266 9.13151 6.48958 9.46875 7.875 9.46875Z" fill="#515257"/>
</svg>
