<svg width="204" height="66" viewBox="0 0 204 66" fill="none" xmlns="http://www.w3.org/2000/svg">
<path d="M6.09745 60.2861H4.07898V65.9996H6.09745V60.2861Z" fill="#DA4052"/>
<path d="M10.1343 60.2861H8.11584V65.9996H10.1343V60.2861Z" fill="#DA4052"/>
<path d="M14.1724 60.2861H12.1539V65.9996H14.1724V60.2861Z" fill="#DA4052"/>
<path d="M18.2105 60.2861H16.192V65.9996H18.2105V60.2861Z" fill="#DA4052"/>
<path d="M22.2487 57.4287H20.2302V65.9984H22.2487V57.4287Z" fill="#DA4052"/>
<path d="M26.2867 60.2861H24.2682V65.9996H26.2867V60.2861Z" fill="#DA4052"/>
<path d="M30.3247 60.2861H28.3063V65.9996H30.3247V60.2861Z" fill="#DA4052"/>
<path d="M34.3629 60.2861H32.3445V65.9996H34.3629V60.2861Z" fill="#DA4052"/>
<path d="M38.4009 60.2861H36.3824V65.9996H38.4009V60.2861Z" fill="#DA4052"/>
<path d="M2.05912 54.5728H0.0406494V65.9997H2.05912V54.5728Z" fill="#DA4052"/>
<path d="M46.4771 60.2861H44.4586V65.9996H46.4771V60.2861Z" fill="#DA4052"/>
<path d="M50.5153 60.2861H48.4968V65.9996H50.5153V60.2861Z" fill="#DA4052"/>
<path d="M54.5534 60.2861H52.5349V65.9996H54.5534V60.2861Z" fill="#DA4052"/>
<path d="M58.5914 60.2861H56.5729V65.9996H58.5914V60.2861Z" fill="#DA4052"/>
<path d="M62.6283 57.4287H60.6099V65.9984H62.6283V57.4287Z" fill="#DA4052"/>
<path d="M66.6664 60.2861H64.6479V65.9996H66.6664V60.2861Z" fill="#DA4052"/>
<path d="M70.7045 60.2861H68.686V65.9996H70.7045V60.2861Z" fill="#DA4052"/>
<path d="M74.7427 60.2861H72.7242V65.9996H74.7427V60.2861Z" fill="#DA4052"/>
<path d="M78.7806 60.2861H76.7621V65.9996H78.7806V60.2861Z" fill="#DA4052"/>
<path d="M82.8188 54.5728H80.8003V65.9997H82.8188V54.5728Z" fill="#DA4052"/>
<path d="M86.8569 60.2861H84.8384V65.9996H86.8569V60.2861Z" fill="#DA4052"/>
<path d="M90.8949 60.2861H88.8765V65.9996H90.8949V60.2861Z" fill="#DA4052"/>
<path d="M94.933 60.2861H92.9146V65.9996H94.933V60.2861Z" fill="#DA4052"/>
<path d="M98.9711 60.2861H96.9526V65.9996H98.9711V60.2861Z" fill="#DA4052"/>
<path d="M103.009 57.4287H100.991V65.9984H103.009V57.4287Z" fill="#DA4052"/>
<path d="M107.047 60.2861H105.029V65.9996H107.047V60.2861Z" fill="#DA4052"/>
<path d="M111.084 60.2861H109.066V65.9996H111.084V60.2861Z" fill="#DA4052"/>
<path d="M115.122 60.2861H113.104V65.9996H115.122V60.2861Z" fill="#DA4052"/>
<path d="M119.16 60.2861H117.142V65.9996H119.16V60.2861Z" fill="#DA4052"/>
<path d="M123.199 54.5728H121.18V65.9997H123.199V54.5728Z" fill="#DA4052"/>
<path d="M127.237 60.2861H125.218V65.9996H127.237V60.2861Z" fill="#DA4052"/>
<path d="M131.275 60.2861H129.256V65.9996H131.275V60.2861Z" fill="#DA4052"/>
<path d="M135.313 60.2861H133.294V65.9996H135.313V60.2861Z" fill="#DA4052"/>
<path d="M139.351 60.2861H137.332V65.9996H139.351V60.2861Z" fill="#DA4052"/>
<path d="M143.389 57.4287H141.37V65.9984H143.389V57.4287Z" fill="#DA4052"/>
<path d="M147.427 60.2861H145.409V65.9996H147.427V60.2861Z" fill="#DA4052"/>
<path d="M151.465 60.2861H149.447V65.9996H151.465V60.2861Z" fill="#DA4052"/>
<path d="M155.503 60.2861H153.485V65.9996H155.503V60.2861Z" fill="#DA4052"/>
<path d="M159.541 60.2861H157.523V65.9996H159.541V60.2861Z" fill="#DA4052"/>
<path d="M163.578 54.5728H161.56V65.9997H163.578V54.5728Z" fill="#DA4052"/>
<path d="M167.616 60.2861H165.598V65.9996H167.616V60.2861Z" fill="#DA4052"/>
<path d="M171.654 60.2861H169.636V65.9996H171.654V60.2861Z" fill="#DA4052"/>
<path d="M175.692 60.2861H173.674V65.9996H175.692V60.2861Z" fill="#DA4052"/>
<path d="M179.731 60.2861H177.712V65.9996H179.731V60.2861Z" fill="#DA4052"/>
<path d="M183.769 57.4287H181.75V65.9984H183.769V57.4287Z" fill="#DA4052"/>
<path d="M187.807 60.2861H185.788V65.9996H187.807V60.2861Z" fill="#DA4052"/>
<path d="M191.845 60.2861H189.826V65.9996H191.845V60.2861Z" fill="#DA4052"/>
<path d="M195.883 60.2861H193.865V65.9996H195.883V60.2861Z" fill="#DA4052"/>
<path d="M199.921 60.2861H197.903V65.9996H199.921V60.2861Z" fill="#DA4052"/>
<path d="M203.959 54.5728H201.941V65.9997H203.959V54.5728Z" fill="#DA4052"/>
<path d="M42.439 54.5728H40.4205V65.9997H42.439V54.5728Z" fill="#DA4052"/>
<path d="M12.3901 19.5431H22.3639V13.6311H12.3901V10.8293C12.3901 7.53103 13.9379 5.84996 17.0972 5.84996C18.6469 5.84996 20.4418 6.22414 22.3639 6.97067V1.30689C20.2565 0.436238 17.9038 0 15.2387 0C9.04365 0 5.69906 3.8586 5.69906 9.64833V13.6311H0V19.5431H5.69906V44.1896H12.3901V19.5431ZM35.3734 44.1896V25.4551C36.7996 22.281 40.5765 19.4792 45.3473 19.4792C46.0285 19.4792 46.648 19.5413 47.2058 19.6033V12.8809C47.0205 12.8188 46.8333 12.8188 46.5863 12.8188C41.8773 12.8188 37.4173 15.3705 35.3734 18.9188V13.6292H28.6824V44.1896H35.3734ZM99.6146 44.1896V24.0241C101.101 21.2241 104.324 19.1068 107.483 19.1068C111.634 19.1068 113.74 21.5965 113.74 26.6379V44.1896H120.431V24.2103C121.731 21.2844 125.014 19.1068 128.237 19.1068C132.387 19.1068 134.432 21.5965 134.432 26.6379V44.1896H141.123V25.0809C141.123 17.1137 137.034 12.8206 130.345 12.8206C125.45 12.8206 121.424 15.1241 119.255 18.2982C117.954 15.0621 114.423 12.8206 109.652 12.8206C105.254 12.8206 101.909 14.4378 99.6165 17.6138V13.6311H92.9255V44.1914H99.6165L99.6146 44.1896ZM147.874 28.8793C147.874 33.6724 149.484 37.531 152.707 40.519C155.989 43.5069 159.955 45 164.662 45C169.37 45 173.087 44.0034 175.875 42.012V36.3483C172.84 38.1534 169.618 39.0862 166.087 39.0862C159.892 39.0862 155.432 36.0361 154.627 30.8706H177.919V29.1275C177.919 23.5879 175.999 18.5465 171.475 15.3103C169.244 13.6292 166.581 12.8206 163.483 12.8206C158.838 12.8206 155.121 14.3776 152.209 17.4258C149.297 20.4758 147.872 24.3344 147.872 28.8775L147.874 28.8793ZM154.689 25.7672C155.123 21.7845 158.282 18.4844 163.176 18.4844C165.654 18.4844 167.575 19.231 168.999 20.7258C170.425 22.2189 171.106 23.9 171.168 25.7672H154.689ZM192.168 44.1896V25.4551C193.594 22.281 197.371 19.4792 202.141 19.4792C202.823 19.4792 203.442 19.5413 204 19.6033V12.8809C203.815 12.8188 203.628 12.8188 203.38 12.8188C198.672 12.8188 194.211 15.3705 192.168 18.9188V13.6292H185.477V44.1896H192.168ZM65.8526 44.9982C70.5598 44.9982 74.1532 43.3171 76.693 40.0189V44.1896H83.384V13.6292H76.693V17.7981C74.1532 14.4999 70.5598 12.8188 65.8526 12.8188C61.5779 12.8188 58.0462 14.3758 55.2593 17.486C52.4725 20.5981 51.1081 24.3946 51.1081 28.8756C51.1081 33.4187 52.4706 37.2153 55.2593 40.3273C58.0462 43.4394 61.5779 44.9945 65.8526 44.9945V44.9982ZM67.6494 39.0843C64.8625 39.0843 62.508 38.0896 60.6495 36.1584C58.791 34.1671 57.8627 31.7395 57.8627 28.8756C57.8627 26.0757 58.791 23.6481 60.6495 21.717C62.508 19.7256 64.8625 18.729 67.6494 18.729C71.6135 18.729 75.0216 21.0945 76.693 24.1446V33.6049C75.0198 36.779 71.6135 39.0807 67.6494 39.0807V39.0843Z" fill="#515257"/>
</svg>
