<svg width="183" height="157" viewBox="0 0 183 157" fill="none" xmlns="http://www.w3.org/2000/svg">
<path d="M182 34.2001L91.0019 1.06492L1 34.1975V130H182V34.2001Z" stroke="#515257" stroke-width="2"/>
<path d="M175 44V38.6997L91.002 8.06517L8 38.6969V44H175Z" stroke="#515257" stroke-width="2"/>
<path d="M59 51H8V123H59V51Z" stroke="#515257" stroke-width="2"/>
<path d="M117 51H66V123H117V51Z" stroke="#515257" stroke-width="2"/>
<path d="M124 51H175V123H124V51Z" stroke="#515257" stroke-width="2"/>
<path d="M117 51L66 86.6697L117 123" stroke="#30C2FF"/>
<line x1="85.0105" y1="34.0312" x2="97.0313" y2="22.0104" stroke="#30C2FF"/>
<line x1="85.0103" y1="22.0097" x2="97.0311" y2="34.0305" stroke="#30C2FF"/>
<line x1="144.01" y1="93.0302" x2="156.031" y2="81.0094" stroke="#30C2FF"/>
<line x1="144.01" y1="81.0097" x2="156.031" y2="93.0305" stroke="#30C2FF"/>
<line x1="28.3535" y1="93.0312" x2="40.3743" y2="81.0104" stroke="#30C2FF"/>
<line x1="28.3536" y1="81.0097" x2="40.3744" y2="93.0305" stroke="#30C2FF"/>
</svg>
