<svg width="150" height="191" viewBox="0 0 150 191" fill="none" xmlns="http://www.w3.org/2000/svg">
<rect x="-1" y="1" width="90" height="133" transform="matrix(-1 0 0 1 90 0)" stroke="#515257" stroke-width="2"/>
<rect x="-1" y="1" width="76" height="119" transform="matrix(-1 0 0 1 83 7)" stroke="#515257" stroke-width="2"/>
<rect x="-1" y="1" width="58" height="189" transform="matrix(-1 0 0 1 148 0)" stroke="#515257" stroke-width="2"/>
<rect x="-1" y="1" width="44" height="119" transform="matrix(-1 0 0 1 141 7)" stroke="#515257" stroke-width="2"/>
<rect x="-1" y="1" width="44" height="49" transform="matrix(-1 0 0 1 141 133)" stroke="#515257" stroke-width="2"/>
<path d="M142 8L99 94.6973L142 183" stroke="#30C2FF"/>
<path d="M142 183L120.202 8L98 183" stroke="#30C2FF"/>
<line x1="40.0105" y1="74.0322" x2="52.0313" y2="62.0114" stroke="#30C2FF"/>
<line x1="40.0103" y1="62.0107" x2="52.0311" y2="74.0315" stroke="#30C2FF"/>
</svg>
