<svg width="118" height="135" viewBox="0 0 118 135" fill="none" xmlns="http://www.w3.org/2000/svg">
<rect x="-1" y="1" width="58" height="133" transform="matrix(-1 0 0 1 58 0)" stroke="#515257" stroke-width="2"/>
<rect x="-1" y="1" width="44" height="119" transform="matrix(-1 0 0 1 51 7)" stroke="#515257" stroke-width="2"/>
<path d="M8 8L51 66.8737L8 127" stroke="#30C2FF"/>
<path d="M7.99999 127L29.7684 8L52 127" stroke="#30C2FF"/>
<rect x="59" y="1" width="58" height="45" stroke="#515257" stroke-width="2"/>
<rect x="66" y="8" width="44" height="31" stroke="#515257" stroke-width="2"/>
<rect x="59" y="46" width="58" height="88" stroke="#515257" stroke-width="2"/>
<rect x="66" y="53" width="44" height="74" stroke="#515257" stroke-width="2"/>
<path d="M110 8L67 23.3368L110 39" stroke="#30C2FF"/>
<line x1="82.0102" y1="96.0312" x2="94.031" y2="84.0104" stroke="#30C2FF"/>
<line x1="82.0103" y1="84.0107" x2="94.0311" y2="96.0315" stroke="#30C2FF"/>
</svg>
