<svg width="29" height="29" viewBox="0 0 29 29" fill="none" xmlns="http://www.w3.org/2000/svg">
<g clip-path="url(#clip0)">
<path d="M25.4598 3.46533H3.54624C1.59011 3.46533 0 5.05544 0 7.01158V21.9886C0 23.9447 1.59011 25.5349 3.54624 25.5349H25.4538C27.4099 25.5349 29 23.9447 29 21.9886V7.01758C29.006 5.06144 27.4159 3.46533 25.4598 3.46533ZM27.3859 21.9886C27.3859 23.0507 26.5218 23.9147 25.4598 23.9147H3.54624C2.48417 23.9147 1.62011 23.0507 1.62011 21.9886V7.01758C1.62011 5.9555 2.48417 5.09144 3.54624 5.09144H25.4538C26.5158 5.09144 27.3799 5.9555 27.3799 7.01758V21.9886H27.3859Z" fill="#9A9A9A"/>
<path d="M18.2896 14.3141L25.3821 7.95362C25.7121 7.6536 25.7421 7.14357 25.4421 6.80754C25.1421 6.47752 24.632 6.44752 24.296 6.74754L14.5153 15.5261L12.6072 13.822C12.6012 13.816 12.5952 13.81 12.5952 13.804C12.5532 13.762 12.5112 13.726 12.4632 13.69L4.69865 6.74154C4.36263 6.44152 3.8526 6.47152 3.55257 6.80754C3.25255 7.14357 3.28256 7.6536 3.61858 7.95362L10.7951 14.3681L3.64858 21.0585C3.32456 21.3646 3.30656 21.8746 3.61258 22.2046C3.77459 22.3726 3.9906 22.4626 4.20662 22.4626C4.40463 22.4626 4.60265 22.3906 4.75866 22.2466L12.0132 15.4601L13.9813 17.2183C14.1373 17.3563 14.3293 17.4223 14.5213 17.4223C14.7133 17.4223 14.9114 17.3503 15.0614 17.2123L17.0835 15.4001L24.296 22.2526C24.452 22.4026 24.656 22.4746 24.854 22.4746C25.0701 22.4746 25.2801 22.3906 25.4421 22.2226C25.7481 21.8986 25.7361 21.3826 25.4121 21.0765L18.2896 14.3141Z" fill="#9A9A9A"/>
</g>
<defs>
<clipPath id="clip0">
<rect width="29" height="29" fill="white"/>
</clipPath>
</defs>
</svg>
