<svg width="176" height="135" viewBox="0 0 176 135" fill="none" xmlns="http://www.w3.org/2000/svg">
<rect x="-1" y="1" width="58" height="133" transform="matrix(-1 0 0 1 58 0)" stroke="#515257" stroke-width="2"/>
<rect x="-1" y="1" width="44" height="119" transform="matrix(-1 0 0 1 51 7)" stroke="#515257" stroke-width="2"/>
<path d="M8 8L51 66.9541L8 127" stroke="#30C2FF"/>
<rect x="-1" y="1" width="58" height="133" transform="matrix(-1 0 0 1 116 0)" stroke="#515257" stroke-width="2"/>
<rect x="-1" y="1" width="44" height="119" transform="matrix(-1 0 0 1 109 7)" stroke="#515257" stroke-width="2"/>
<path d="M66 8L109 66.9541L66 127" stroke="#30C2FF"/>
<rect x="-1" y="1" width="58" height="133" transform="matrix(-1 0 0 1 174 0)" stroke="#515257" stroke-width="2"/>
<rect x="-1" y="1" width="44" height="119" transform="matrix(-1 0 0 1 167 7)" stroke="#515257" stroke-width="2"/>
<path d="M124 8L167 66.9541L124 127" stroke="#30C2FF"/>
</svg>
