<svg width="20" height="20" viewBox="0 0 20 20" fill="none" xmlns="http://www.w3.org/2000/svg">
<path d="M16.1923 3.80719C15.6729 3.28641 14.9801 3 14.2446 3C13.5092 3 12.8173 3.28594 12.2974 3.80625L4.01322 12.0427C3.964 12.0914 3.9265 12.15 3.90306 12.2147L2.02806 17.3709C1.96759 17.5373 2.0065 17.7253 2.12884 17.8542C2.21884 17.9489 2.34212 18 2.46916 18C2.51509 18 2.56103 17.9934 2.6065 17.9794L7.27009 16.5487C7.34322 16.5267 7.40978 16.4864 7.46416 16.4325L16.1927 7.70391C16.714 7.18406 17.0004 6.49125 17.0004 5.75531C16.9999 5.01984 16.714 4.3275 16.1923 3.80719ZM6.73103 15.7336L4.98541 16.2698C4.88369 15.9712 4.72525 15.7069 4.50916 15.4908C4.32119 15.3037 4.10322 15.1584 3.87353 15.0403L4.67228 12.8438H5.75041V13.7812C5.75041 14.0405 5.95994 14.25 6.21916 14.25H7.0465L6.73103 15.7336ZM13.631 8.93953L7.91978 14.6508L8.08384 13.8788C8.11291 13.74 8.07822 13.5961 7.98916 13.4864C7.90009 13.3763 7.7665 13.3125 7.62541 13.3125H6.68791V12.375C6.68791 12.1163 6.47791 11.9062 6.21916 11.9062H5.47947L11.0543 6.36328L11.0599 6.36844C11.4031 6.02484 11.8601 5.83594 12.3452 5.83594C12.8304 5.83594 13.2879 6.02484 13.6306 6.36844C13.9732 6.71203 14.164 7.16859 14.164 7.65422C14.164 8.13984 13.9751 8.59594 13.631 8.93953ZM15.5295 7.04109L15.0926 7.47844C15.0504 6.80859 14.7724 6.18422 14.2943 5.70562C13.8157 5.22656 13.1909 4.94906 12.5192 4.90734L12.9588 4.47094L12.9598 4.47C13.302 4.12641 13.759 3.9375 14.2446 3.9375C14.7302 3.9375 15.1868 4.12641 15.5295 4.47C15.8735 4.81359 16.0629 5.27016 16.0629 5.75531C16.0629 6.24141 15.8745 6.69797 15.5295 7.04109ZM12.4502 6.88734L7.76275 11.5748C7.57947 11.7581 7.57947 12.0544 7.76275 12.2377C7.85369 12.3291 7.97416 12.375 8.09416 12.375C8.21416 12.375 8.33369 12.3291 8.42556 12.2377L13.1131 7.55016C13.2963 7.36687 13.2963 7.07063 13.1131 6.88734C12.9293 6.70406 12.6335 6.70406 12.4502 6.88734Z" fill="#30C2FF"/>
</svg>
