<svg width="16" height="16" viewBox="0 0 16 16" fill="none" xmlns="http://www.w3.org/2000/svg">
<path d="M8 1C4.13423 1 1 4.13423 1 8C1 11.8662 4.13423 15 8 15C11.8662 15 15 11.8666 15 8C15 4.13423 11.8662 1 8 1ZM8 13.6875C4.85877 13.6875 2.31252 11.1412 2.31252 8C2.31252 4.85877 4.85877 2.31252 8 2.31252C11.1412 2.31252 13.6875 4.85877 13.6875 8C13.6875 11.1412 11.1412 13.6875 8 13.6875ZM8.00044 4.06992C7.49908 4.06992 7.11973 4.33157 7.11973 4.75418V8.63042C7.11973 9.05347 7.49903 9.31423 8.00044 9.31423C8.48956 9.31423 8.88115 9.04256 8.88115 8.63042V4.75418C8.8811 4.3416 8.48956 4.06992 8.00044 4.06992ZM8.00044 10.1875C7.51876 10.1875 7.12673 10.5795 7.12673 11.0616C7.12673 11.5428 7.51876 11.9349 8.00044 11.9349C8.48213 11.9349 8.87371 11.5428 8.87371 11.0616C8.87366 10.5795 8.48213 10.1875 8.00044 10.1875Z" fill="#DA4052"/>
</svg>
