<svg width="16" height="15" viewBox="0 0 16 15" fill="none" xmlns="http://www.w3.org/2000/svg">
<path d="M7.46484 10.5664C6.73568 10.4935 6.08854 10.2292 5.52344 9.77344C4.97656 9.31771 4.58464 8.7526 4.34766 8.07812C4.11068 7.40365 4.08333 6.71094 4.26562 6L7.46484 10.5664ZM7.875 11.4688C6.48958 11.4688 5.21354 11.1315 4.04688 10.457C2.89844 9.78255 1.98698 8.88021 1.3125 7.75C1.91406 6.72917 2.71615 5.89062 3.71875 5.23438L2.98047 4.16797C1.8138 4.93359 0.884115 5.90885 0.191406 7.09375C0.0638021 7.29427 0 7.51302 0 7.75C0 7.98698 0.0638021 8.20573 0.191406 8.40625C0.97526 9.73698 2.04167 10.7943 3.39062 11.5781C4.75781 12.3802 6.2526 12.7812 7.875 12.7812C8.23958 12.7812 8.60417 12.763 8.96875 12.7266L8.09375 11.4688H7.875ZM15.5586 8.40625C15.1029 9.1901 14.5378 9.88281 13.8633 10.4844C13.207 11.0859 12.4688 11.5781 11.6484 11.9609L12.9609 13.8477C13.0156 13.9206 13.0339 13.9935 13.0156 14.0664C12.9974 14.1576 12.9518 14.2305 12.8789 14.2852L12.3047 14.6953C12.2318 14.75 12.1497 14.7682 12.0586 14.75C11.9674 14.7318 11.9036 14.6862 11.8672 14.6133L2.78906 1.65234C2.73438 1.57943 2.71615 1.50651 2.73438 1.43359C2.7526 1.34245 2.79818 1.26953 2.87109 1.21484L3.44531 0.804688C3.51823 0.75 3.60026 0.731771 3.69141 0.75C3.78255 0.768229 3.84635 0.813802 3.88281 0.886719L5.41406 3.04688C6.21615 2.82812 7.03646 2.71875 7.875 2.71875C9.4974 2.71875 10.9922 3.11979 12.3594 3.92188C13.7083 4.70573 14.7747 5.76302 15.5586 7.09375C15.6862 7.29427 15.75 7.51302 15.75 7.75C15.75 7.98698 15.6862 8.20573 15.5586 8.40625ZM14.4375 7.75C13.8177 6.71094 12.9883 5.86328 11.9492 5.20703C10.9102 4.55078 9.77083 4.16797 8.53125 4.05859C8.23958 4.35026 8.09375 4.70573 8.09375 5.125C8.09375 5.54427 8.23958 5.90885 8.53125 6.21875C8.84115 6.51042 9.20573 6.65625 9.625 6.65625C10.0443 6.65625 10.3997 6.51042 10.6914 6.21875C11.0013 5.90885 11.1562 5.54427 11.1562 5.125C11.5755 5.90885 11.694 6.7474 11.5117 7.64062C11.3294 8.53385 10.8737 9.26302 10.1445 9.82812L10.8828 10.8672C11.6302 10.5391 12.3047 10.1107 12.9062 9.58203C13.526 9.05339 14.0365 8.44271 14.4375 7.75Z" fill="#515257" fill-opacity="0.35"/>
</svg>
