<svg width="20" height="20" viewBox="0 0 20 20" fill="none" xmlns="http://www.w3.org/2000/svg">
<g opacity="0.5">
<path d="M6.59662 12.2239C6.59662 11.9084 6.37767 11.7202 5.99136 11.7202C5.83361 11.7202 5.72678 11.7358 5.6709 11.7507V12.7631C5.73706 12.778 5.8184 12.7829 5.93052 12.7829C6.34229 12.7829 6.59662 12.5749 6.59662 12.2239Z" fill="#515257"/>
<path d="M8.98813 11.731C8.81513 11.731 8.70333 11.7459 8.63721 11.7614V14.0035C8.70337 14.019 8.81021 14.019 8.90679 14.019C9.6086 14.024 10.0663 13.6377 10.0663 12.8191C10.0713 12.1073 9.6542 11.731 8.98813 11.731Z" fill="#515257"/>
<path fill-rule="evenodd" clip-rule="evenodd" d="M5.80021 0H13.4314L18.2342 4.78602V16.9778C18.2342 18.0932 17.3267 19 16.2126 19H5.80021C4.68537 19 3.77801 18.0932 3.77801 16.9778V16.0716H3.5805C3.1305 16.0716 2.76562 15.7071 2.76562 15.2567V10.3149C2.76562 9.86452 3.13054 9.49996 3.5805 9.49996H3.77801V2.0222C3.77801 0.907991 4.68537 0 5.80021 0ZM5.95079 11.1359C5.47786 11.1359 5.14218 11.1664 4.90337 11.2067V14.5885H5.67103V13.3631C5.74244 13.373 5.83375 13.378 5.93561 13.378C6.39333 13.378 6.78461 13.2662 7.0492 13.0172C7.25262 12.824 7.36442 12.5389 7.36442 12.2036C7.36442 11.8681 7.21688 11.5831 6.99824 11.4104C6.76936 11.2272 6.42872 11.1359 5.95079 11.1359ZM5.80021 17.7615H16.2126C16.6442 17.7615 16.9951 17.41 16.9951 16.9777L16.9659 5.2766L14.3705 5.28405C13.596 5.28405 12.9681 4.65554 12.9681 3.88165V1.23216L5.80021 1.23965C5.36858 1.23965 5.01702 1.59116 5.01702 2.0222V9.49996H14.7235C15.1736 9.49996 15.5384 9.86452 15.5384 10.3149V15.2567C15.5384 15.7071 15.1736 16.0716 14.7235 16.0716H5.01702V16.9778C5.01702 17.41 5.36854 17.7615 5.80021 17.7615ZM7.85942 11.2067V14.573C8.05255 14.5984 8.33727 14.6239 8.73915 14.6239C9.41023 14.6239 9.95953 14.4816 10.3204 14.1816C10.6511 13.9022 10.8899 13.4494 10.8899 12.7935C10.8899 12.188 10.6664 11.7663 10.3105 11.5017C9.97978 11.2527 9.55773 11.1359 8.90687 11.1359C8.51524 11.1359 8.14414 11.1614 7.85942 11.2067ZM13.4091 13.2103V12.5799H12.1784V11.7967H13.4954V11.1614H11.4005V14.5885H12.1784V13.2103H13.4091Z" fill="#515257"/>
</g>
</svg>
