<svg width="16" height="16" viewBox="0 0 16 16" fill="none" xmlns="http://www.w3.org/2000/svg">
<path d="M8 12.0332C8.37754 12.0332 8.68359 11.7271 8.68359 11.3496C8.68359 10.9721 8.37754 10.666 8 10.666C7.62246 10.666 7.31641 10.9721 7.31641 11.3496C7.31641 11.7271 7.62246 12.0332 8 12.0332Z" fill="#C3C3C3"/>
<path d="M8 1C4.1313 1 1 4.13078 1 8C1 11.8687 4.13078 15 8 15C11.8687 15 15 11.8692 15 8C15 4.1313 11.8692 1 8 1ZM8 13.9062C4.73579 13.9062 2.09375 11.2647 2.09375 8C2.09375 4.73579 4.73535 2.09375 8 2.09375C11.2642 2.09375 13.9062 4.73535 13.9062 8C13.9062 11.2642 11.2647 13.9062 8 13.9062Z" fill="#C3C3C3"/>
<path d="M8 4.51367C6.79381 4.51367 5.8125 5.49498 5.8125 6.70117C5.8125 7.00321 6.05734 7.24805 6.35938 7.24805C6.66141 7.24805 6.90625 7.00321 6.90625 6.70117C6.90625 6.09808 7.39691 5.60742 8 5.60742C8.60309 5.60742 9.09375 6.09808 9.09375 6.70117C9.09375 7.30427 8.60309 7.79492 8 7.79492C7.69796 7.79492 7.45312 8.03976 7.45312 8.3418V9.70898C7.45312 10.011 7.69796 10.2559 8 10.2559C8.30204 10.2559 8.54688 10.011 8.54688 9.70898V8.81946C9.4893 8.57602 10.1875 7.71861 10.1875 6.70117C10.1875 5.49498 9.20619 4.51367 8 4.51367Z" fill="#C3C3C3"/>
</svg>
