<svg width="35" height="35" viewBox="0 0 35 35" fill="none" xmlns="http://www.w3.org/2000/svg">
<path fill-rule="evenodd" clip-rule="evenodd" d="M9 14H25V25H23V31H11V25H9V14ZM11 16H23V23H21V29H13V23H11V16Z" fill="#C4C4C4"/>
<path fill-rule="evenodd" clip-rule="evenodd" d="M17 12C19.2091 12 21 10.2091 21 8C21 5.79086 19.2091 4 17 4C14.7909 4 13 5.79086 13 8C13 10.2091 14.7909 12 17 12ZM17 10C18.1046 10 19 9.10457 19 8C19 6.89543 18.1046 6 17 6C15.8954 6 15 6.89543 15 8C15 9.10457 15.8954 10 17 10Z" fill="#C4C4C4"/>
</svg>
