<svg width="118" height="135" viewBox="0 0 118 135" fill="none" xmlns="http://www.w3.org/2000/svg">
<rect x="-1" y="1" width="58" height="93" transform="matrix(-1 0 0 1 58 40)" stroke="#515257" stroke-width="2"/>
<rect x="-1" y="1" width="44" height="79" transform="matrix(-1 0 0 1 51 47)" stroke="#515257" stroke-width="2"/>
<rect x="1" y="1" width="116" height="40" stroke="#515257" stroke-width="2"/>
<rect x="8" y="8" width="102" height="26" stroke="#515257" stroke-width="2"/>
<rect x="59" y="41" width="58" height="93" stroke="#515257" stroke-width="2"/>
<rect x="66" y="48" width="44" height="79" stroke="#515257" stroke-width="2"/>
<path d="M110 48L67 87.0842L110 127" stroke="#30C2FF"/>
<path d="M110 127L88.2316 48L66 127" stroke="#30C2FF"/>
<line x1="24.0105" y1="96.0312" x2="36.0313" y2="84.0104" stroke="#30C2FF"/>
<line x1="24.0103" y1="84.0107" x2="36.0311" y2="96.0315" stroke="#30C2FF"/>
<line x1="53.0105" y1="27.0312" x2="65.0313" y2="15.0104" stroke="#30C2FF"/>
<line x1="53.0103" y1="15.0107" x2="65.0311" y2="27.0315" stroke="#30C2FF"/>
</svg>
