<svg width="116" height="85" viewBox="0 0 116 85" fill="none" xmlns="http://www.w3.org/2000/svg">
<line x1="88" y1="55.5" x2="108" y2="55.5" stroke="#515257"/>
<line x1="88" y1="21.5" x2="108" y2="21.5" stroke="#515257"/>
<line x1="88" y1="38.5" x2="108" y2="38.5" stroke="#515257"/>
<rect x="4.5" y="67.5" width="106" height="17" rx="8.5" fill="#F2F2F2" stroke="#515257"/>
<rect x="7.18542" y="70.5" width="11" height="11" rx="5.5" fill="#F2F2F2" stroke="#515257"/>
<rect x="10.1854" y="73.5" width="5" height="5" rx="2.5" fill="#F2F2F2" stroke="#515257"/>
<rect x="4.18542" y="29.5" width="11" height="11" rx="5.5" fill="#F2F2F2" stroke="#515257"/>
<rect x="7.18542" y="32.5" width="5" height="5" rx="2.5" fill="#F2F2F2" stroke="#515257"/>
<rect x="24.1854" y="14.5" width="5" height="5" rx="2.5" fill="#F2F2F2" stroke="#515257"/>
<rect x="96.1854" y="70.5" width="11" height="11" rx="5.5" fill="#F2F2F2" stroke="#515257"/>
<rect x="99.1854" y="73.5" width="5" height="5" rx="2.5" fill="#F2F2F2" stroke="#515257"/>
<rect x="31.1854" y="73.5" width="5" height="5" rx="2.5" fill="#F2F2F2" stroke="#515257"/>
<rect x="54.1854" y="73.5" width="5" height="5" rx="2.5" fill="#F2F2F2" stroke="#515257"/>
<rect x="77.1854" y="73.5" width="5" height="5" rx="2.5" fill="#F2F2F2" stroke="#515257"/>
<rect x="73.5" y="16.5" width="11" height="11" rx="5.5" fill="#F2F2F2" stroke="#515257"/>
<path d="M76.4999 21.4996L78.9999 24L81.5 20.5" stroke="#515257"/>
<rect x="73.5" y="32.5" width="11" height="11" rx="5.5" fill="#F2F2F2" stroke="#515257"/>
<path d="M76.4998 37.4996L78.9998 40.0001L81.5 36.5" stroke="#515257"/>
<rect x="73.5" y="48.5" width="11" height="11" rx="5.5" fill="#F2F2F2" stroke="#515257"/>
<path d="M81.04 52L76.54 56.5" stroke="#515257"/>
<path d="M81 56.5L76.64 52" stroke="#515257"/>
<path d="M5.18441 37.9994L5.18445 73" stroke="#515257" stroke-linejoin="round"/>
<path d="M14.1854 38.5L19.6854 67.5" stroke="#515257" stroke-linejoin="round"/>
<path d="M24 17.5L9.99998 29.4998" stroke="#515257" stroke-linejoin="round"/>
<path d="M25.5 19.5L15 33" stroke="#515257" stroke-linejoin="round"/>
<path d="M36.6854 25L29.1854 17.4998" stroke="#515257" stroke-linejoin="round"/>
<path d="M36.6854 25L27.6854 19.2783" stroke="#515257" stroke-linejoin="round"/>
<path d="M64 67.0001L64 35L61 38L61 64.5L41 64.5L41 38L38 34.5L38 67.0001" stroke="#515257"/>
<path d="M39 27L63.5 27L60.5 30L41.4999 30L39 27Z" stroke="#515257"/>
<line x1="41.6854" y1="67.5" x2="70.6854" y2="67.5" stroke="#515257"/>
</svg>
