<svg width="415" height="135" viewBox="0 0 415 135" fill="none" xmlns="http://www.w3.org/2000/svg">
<rect x="1" y="1" width="59" height="133" stroke="#515257" stroke-width="2"/>
<rect x="8" y="8" width="45" height="119" stroke="#515257" stroke-width="2"/>
<line x1="25.0105" y1="73.0312" x2="37.0313" y2="61.0104" stroke="#30C2FF"/>
<line x1="25.0103" y1="61.0097" x2="37.0311" y2="73.0305" stroke="#30C2FF"/>
<rect x="60" y="1" width="59" height="133" stroke="#515257" stroke-width="2"/>
<rect x="67" y="8" width="45" height="119" stroke="#515257" stroke-width="2"/>
<path d="M68 8L111 66.9541L68 127" stroke="#30C2FF"/>
<rect x="119" y="1" width="59" height="133" stroke="#515257" stroke-width="2"/>
<rect x="126" y="8" width="45" height="119" stroke="#515257" stroke-width="2"/>
<line x1="143.01" y1="73.0312" x2="155.031" y2="61.0104" stroke="#30C2FF"/>
<line x1="143.01" y1="61.0097" x2="155.031" y2="73.0305" stroke="#30C2FF"/>
<rect x="178" y="1" width="59" height="133" stroke="#515257" stroke-width="2"/>
<rect x="185" y="8" width="45" height="119" stroke="#515257" stroke-width="2"/>
<path d="M229 8L186 66.9541L229 127" stroke="#30C2FF"/>
<rect x="237" y="1" width="59" height="133" stroke="#515257" stroke-width="2"/>
<rect x="244" y="8" width="45" height="119" stroke="#515257" stroke-width="2"/>
<line x1="261.01" y1="73.0312" x2="273.031" y2="61.0104" stroke="#30C2FF"/>
<line x1="261.01" y1="61.0097" x2="273.031" y2="73.0305" stroke="#30C2FF"/>
<rect x="296" y="1" width="59" height="133" stroke="#515257" stroke-width="2"/>
<rect x="303" y="8" width="45" height="119" stroke="#515257" stroke-width="2"/>
<path d="M347 8L304 66.9541L347 127" stroke="#30C2FF"/>
<rect x="355" y="1" width="59" height="133" stroke="#515257" stroke-width="2"/>
<rect x="362" y="8" width="45" height="119" stroke="#515257" stroke-width="2"/>
<line x1="379.01" y1="73.0312" x2="391.031" y2="61.0104" stroke="#30C2FF"/>
<line x1="379.01" y1="61.0097" x2="391.031" y2="73.0305" stroke="#30C2FF"/>
</svg>
