<svg width="72" height="16" viewBox="0 0 72 16" fill="none" xmlns="http://www.w3.org/2000/svg">
<path d="M4.37296 6.94865H7.89313V4.8466H4.37296V3.85041C4.37296 2.6777 4.91926 2.07999 6.0343 2.07999C6.58124 2.07999 7.21475 2.21303 7.89313 2.47846V0.464671C7.14935 0.155107 6.319 0 5.37836 0C3.19188 0 2.01143 1.37195 2.01143 3.43052V4.8466H0V6.94865H2.01143V15.7119H4.37296V6.94865ZM12.4847 15.7119V9.0507C12.9881 7.92212 14.3211 6.92593 16.0049 6.92593C16.2454 6.92593 16.464 6.948 16.6609 6.97007V4.57986C16.5955 4.5578 16.5294 4.5578 16.4422 4.5578C14.7802 4.5578 13.2061 5.46508 12.4847 6.7267V4.84595H10.1232V15.7119H12.4847ZM35.1581 15.7119V8.5419C35.6826 7.54636 36.8201 6.79354 37.9351 6.79354C39.4003 6.79354 40.1434 7.67875 40.1434 9.47124V15.7119H42.5049V8.6081C42.964 7.56778 44.1227 6.79354 45.2602 6.79354C46.7247 6.79354 47.4466 7.67875 47.4466 9.47124V15.7119H49.8082V8.91766C49.8082 6.08485 48.3648 4.55845 46.004 4.55845C44.2766 4.55845 42.8557 5.37746 42.0901 6.50604C41.631 5.3554 40.3845 4.55845 38.7007 4.55845C37.1484 4.55845 35.9679 5.13345 35.1587 6.26268V4.8466H32.7972V15.7125H35.1587L35.1581 15.7119ZM52.1909 10.2682C52.1909 11.9724 52.759 13.3444 53.8964 14.4067C55.0551 15.4691 56.4548 16 58.1162 16C59.7775 16 61.0894 15.6457 62.0736 14.9376V12.9238C61.0022 13.5657 59.8653 13.8973 58.6189 13.8973C56.4324 13.8973 54.8582 12.8128 54.5742 10.9762H62.795V10.3565C62.795 8.38679 62.1172 6.59431 60.5207 5.44366C59.7333 4.84595 58.7933 4.55845 57.7 4.55845C56.0605 4.55845 54.7486 5.11203 53.7208 6.19583C52.6929 7.28028 52.1902 8.65223 52.1902 10.2675L52.1909 10.2682ZM54.596 9.16168C54.7492 7.7456 55.8643 6.57224 57.5917 6.57224C58.4663 6.57224 59.144 6.83767 59.6467 7.36919C60.15 7.90006 60.3905 8.49777 60.4123 9.16168H54.596ZM67.8239 15.7119V9.0507C68.3272 7.92212 69.6603 6.92593 71.3441 6.92593C71.5845 6.92593 71.8032 6.948 72 6.97007V4.57986C71.9346 4.5578 71.8686 4.5578 71.7813 4.5578C70.1194 4.5578 68.5452 5.46508 67.8239 6.7267V4.84595H65.4624V15.7119H67.8239ZM23.2421 15.9994C24.9034 15.9994 26.1717 15.4016 27.0681 14.2289V15.7119H29.4297V4.84595H27.0681V6.32822C26.1717 5.15551 24.9034 4.5578 23.2421 4.5578C21.7334 4.5578 20.4869 5.11138 19.5033 6.21725C18.5197 7.32376 18.0382 8.67364 18.0382 10.2669C18.0382 11.8822 18.519 13.2321 19.5033 14.3386C20.4869 15.4451 21.7334 15.9981 23.2421 15.9981V15.9994ZM23.8762 13.8966C22.8927 13.8966 22.0617 13.543 21.4057 12.8563C20.7498 12.1483 20.4221 11.2851 20.4221 10.2669C20.4221 9.27136 20.7498 8.40821 21.4057 7.72159C22.0617 7.01355 22.8927 6.6592 23.8762 6.6592C25.2753 6.6592 26.4782 7.50028 27.0681 8.58473V11.9484C26.4776 13.077 25.2753 13.8954 23.8762 13.8954V13.8966Z" fill="#515257"/>
</svg>
