<svg width="176" height="191" viewBox="0 0 176 191" fill="none" xmlns="http://www.w3.org/2000/svg">
<line x1="140.01" y1="74.0322" x2="152.031" y2="62.0114" stroke="#30C2FF"/>
<line x1="140.01" y1="62.0107" x2="152.031" y2="74.0315" stroke="#30C2FF"/>
<rect x="59" y="1" width="58" height="133" stroke="#515257" stroke-width="2"/>
<rect x="66" y="8" width="44" height="119" stroke="#515257" stroke-width="2"/>
<path d="M110 8L67 66.9541L110 127" stroke="#30C2FF"/>
<path d="M110 127L88.2018 9L66 127" stroke="#30C2FF"/>
<rect x="117" y="1" width="58" height="133" stroke="#515257" stroke-width="2"/>
<rect x="124" y="8" width="44" height="119" stroke="#515257" stroke-width="2"/>
<rect x="1" y="1" width="58" height="189" stroke="#515257" stroke-width="2"/>
<rect x="8" y="8" width="44" height="119" stroke="#515257" stroke-width="2"/>
<rect x="8" y="134" width="44" height="49" stroke="#515257" stroke-width="2"/>
<path d="M8 8L51 94.6973L8 183" stroke="#30C2FF"/>
<path d="M52 183L30.2018 9L8 183" stroke="#30C2FF"/>
</svg>
