<svg width="176" height="135" viewBox="0 0 176 135" fill="none" xmlns="http://www.w3.org/2000/svg">
<rect x="117" y="1" width="58" height="133" stroke="#515257" stroke-width="2"/>
<rect x="124" y="8" width="44" height="119" stroke="#515257" stroke-width="2"/>
<path d="M168 8L125 66.9541L168 127" stroke="#30C2FF"/>
<rect x="-1" y="1" width="58" height="133" transform="matrix(-1 0 0 1 116 0)" stroke="#515257" stroke-width="2"/>
<rect x="-1" y="1" width="44" height="119" transform="matrix(-1 0 0 1 109 7)" stroke="#515257" stroke-width="2"/>
<rect x="-1" y="1" width="58" height="45" transform="matrix(-1 0 0 1 58 0)" stroke="#515257" stroke-width="2"/>
<rect x="-1" y="1" width="44" height="31" transform="matrix(-1 0 0 1 51 7)" stroke="#515257" stroke-width="2"/>
<rect x="-1" y="1" width="58" height="88" transform="matrix(-1 0 0 1 58 45)" stroke="#515257" stroke-width="2"/>
<rect x="-1" y="1" width="44" height="74" transform="matrix(-1 0 0 1 51 52)" stroke="#515257" stroke-width="2"/>
<path d="M8 8L51 23.3368L8 39" stroke="#30C2FF"/>
<path d="M8 53L51 89.6105L8 127" stroke="#30C2FF"/>
<line x1="83.0102" y1="73.0312" x2="95.031" y2="61.0104" stroke="#30C2FF"/>
<line x1="83.0103" y1="61.0107" x2="95.0311" y2="73.0315" stroke="#30C2FF"/>
</svg>
