<svg width="118" height="191" viewBox="0 0 118 191" fill="none" xmlns="http://www.w3.org/2000/svg">
<rect x="1" y="1" width="58" height="189" stroke="#515257" stroke-width="2"/>
<rect x="8" y="8" width="44" height="119" stroke="#515257" stroke-width="2"/>
<rect x="8" y="134" width="44" height="49" stroke="#515257" stroke-width="2"/>
<line x1="24.0105" y1="74.0312" x2="36.0313" y2="62.0104" stroke="#30C2FF"/>
<line x1="24.0103" y1="62.0107" x2="36.0311" y2="74.0315" stroke="#30C2FF"/>
<line x1="24.0105" y1="165.031" x2="36.0313" y2="153.01" stroke="#30C2FF"/>
<line x1="24.0103" y1="153.011" x2="36.0311" y2="165.032" stroke="#30C2FF"/>
<rect x="-1" y="1" width="58" height="189" transform="matrix(-1 0 0 1 116 0)" stroke="#515257" stroke-width="2"/>
<rect x="-1" y="1" width="44" height="119" transform="matrix(-1 0 0 1 109 7)" stroke="#515257" stroke-width="2"/>
<rect x="-1" y="1" width="44" height="49" transform="matrix(-1 0 0 1 109 133)" stroke="#515257" stroke-width="2"/>
<path d="M110 8L67 94.6973L110 183" stroke="#30C2FF"/>
<path d="M66 183L87.7982 9L110 183" stroke="#30C2FF"/>
</svg>
