<svg width="208" height="135" viewBox="0 0 208 135" fill="none" xmlns="http://www.w3.org/2000/svg">
<path d="M1 1H52V134H2H1V133V1Z" stroke="#515257" stroke-width="2"/>
<path d="M8 8H45V127H8V8Z" stroke="#515257" stroke-width="2"/>
<line x1="21.0105" y1="73.5312" x2="33.0313" y2="61.5104" stroke="#30C2FF"/>
<line x1="21.0103" y1="61.5097" x2="33.0311" y2="73.5305" stroke="#30C2FF"/>
<path d="M52 1H104V134H52V1Z" stroke="#515257" stroke-width="2"/>
<path d="M59 8H97V127H59V8Z" stroke="#515257" stroke-width="2"/>
<path d="M59 8L96 66.9541L59 127" stroke="#30C2FF"/>
<path d="M207 1H156V134H207V1Z" stroke="#515257" stroke-width="2"/>
<path d="M200 8H163V127H200V8Z" stroke="#515257" stroke-width="2"/>
<line y1="-0.5" x2="17" y2="-0.5" transform="matrix(-0.707107 -0.707107 -0.707107 0.707107 186.636 73.8848)" stroke="#30C2FF"/>
<line y1="-0.5" x2="17" y2="-0.5" transform="matrix(-0.707107 0.707107 0.707107 0.707107 187.343 61.8633)" stroke="#30C2FF"/>
<path d="M156 1H104V134H156V1Z" stroke="#515257" stroke-width="2"/>
<path d="M149 8H111V127H149V8Z" stroke="#515257" stroke-width="2"/>
<path d="M149 8L112 66.9541L149 127" stroke="#30C2FF"/>
</svg>
